<?xml version="1.0" encoding="utf-8" standalone="no"?>
<!DOCTYPE svg PUBLIC "-//W3C//DTD SVG 1.1//EN"
  "http://www.w3.org/Graphics/SVG/1.1/DTD/svg11.dtd">
<svg height="288pt" version="1.1" viewBox="0 0 576 288" width="576pt" xmlns="http://www.w3.org/2000/svg" xmlns:xlink="http://www.w3.org/1999/xlink">
 <metadata>
  <rdf:RDF xmlns:cc="http://creativecommons.org/ns#" xmlns:dc="http://purl.org/dc/elements/1.1/" xmlns:rdf="http://www.w3.org/1999/02/22-rdf-syntax-ns#">
   <cc:Work>
    <dc:type rdf:resource="http://purl.org/dc/dcmitype/StillImage"/>
    <dc:date>2022-01-08T16:58:38.263033</dc:date>
    <dc:format>image/svg+xml</dc:format>
    <dc:creator>
     <cc:Agent>
      <dc:title>Matplotlib v3.4.3, https://matplotlib.org/</dc:title>
     </cc:Agent>
    </dc:creator>
   </cc:Work>
  </rdf:RDF>
 </metadata>
 <defs>
  <style type="text/css">*{stroke-linecap:butt;stroke-linejoin:round;}</style>
 </defs>
 <g id="figure_1">
  <g id="patch_1">
   <path d="M 0 288 
L 576 288 
L 576 0 
L 0 0 
z
" style="fill:none;"/>
  </g>
  <g id="axes_1">
   <g id="patch_2">
    <path d="M 72 252 
L 518.4 252 
L 518.4 34.56 
L 72 34.56 
z
" style="fill:#ffffff;"/>
   </g>
   <g id="patch_3">
    <path clip-path="url(#p4ac8eb9c39)" d="M 92.290909 252 
L 96.048485 252 
L 96.048485 44.914286 
L 92.290909 44.914286 
z
" style="fill:#1f77b4;fill-opacity:0.75;stroke:#000000;stroke-linejoin:miter;stroke-width:0.375758;"/>
   </g>
   <g id="patch_4">
    <path clip-path="url(#p4ac8eb9c39)" d="M 96.048485 252 
L 99.806061 252 
L 99.806061 110.991623 
L 96.048485 110.991623 
z
" style="fill:#1f77b4;fill-opacity:0.75;stroke:#000000;stroke-linejoin:miter;stroke-width:0.375758;"/>
   </g>
   <g id="patch_5">
    <path clip-path="url(#p4ac8eb9c39)" d="M 99.806061 252 
L 103.563636 252 
L 103.563636 126.193601 
L 99.806061 126.193601 
z
" style="fill:#1f77b4;fill-opacity:0.75;stroke:#000000;stroke-linejoin:miter;stroke-width:0.375758;"/>
   </g>
   <g id="patch_6">
    <path clip-path="url(#p4ac8eb9c39)" d="M 103.563636 252 
L 107.321212 252 
L 107.321212 154.368528 
L 103.563636 154.368528 
z
" style="fill:#1f77b4;fill-opacity:0.75;stroke:#000000;stroke-linejoin:miter;stroke-width:0.375758;"/>
   </g>
   <g id="patch_7">
    <path clip-path="url(#p4ac8eb9c39)" d="M 107.321212 252 
L 111.078788 252 
L 111.078788 165.968395 
L 107.321212 165.968395 
z
" style="fill:#1f77b4;fill-opacity:0.75;stroke:#000000;stroke-linejoin:miter;stroke-width:0.375758;"/>
   </g>
   <g id="patch_8">
    <path clip-path="url(#p4ac8eb9c39)" d="M 111.078788 252 
L 114.836364 252 
L 114.836364 159.798443 
L 111.078788 159.798443 
z
" style="fill:#1f77b4;fill-opacity:0.75;stroke:#000000;stroke-linejoin:miter;stroke-width:0.375758;"/>
   </g>
   <g id="patch_9">
    <path clip-path="url(#p4ac8eb9c39)" d="M 114.836364 252 
L 118.593939 252 
L 118.593939 169.802325 
L 114.836364 169.802325 
z
" style="fill:#1f77b4;fill-opacity:0.75;stroke:#000000;stroke-linejoin:miter;stroke-width:0.375758;"/>
   </g>
   <g id="patch_10">
    <path clip-path="url(#p4ac8eb9c39)" d="M 118.593939 252 
L 122.351515 252 
L 122.351515 172.940798 
L 118.593939 172.940798 
z
" style="fill:#1f77b4;fill-opacity:0.75;stroke:#000000;stroke-linejoin:miter;stroke-width:0.375758;"/>
   </g>
   <g id="patch_11">
    <path clip-path="url(#p4ac8eb9c39)" d="M 122.351515 252 
L 126.109091 252 
L 126.109091 175.5978 
L 122.351515 175.5978 
z
" style="fill:#1f77b4;fill-opacity:0.75;stroke:#000000;stroke-linejoin:miter;stroke-width:0.375758;"/>
   </g>
   <g id="patch_12">
    <path clip-path="url(#p4ac8eb9c39)" d="M 126.109091 252 
L 129.866667 252 
L 129.866667 179.289073 
L 126.109091 179.289073 
z
" style="fill:#1f77b4;fill-opacity:0.75;stroke:#000000;stroke-linejoin:miter;stroke-width:0.375758;"/>
   </g>
   <g id="patch_13">
    <path clip-path="url(#p4ac8eb9c39)" d="M 129.866667 252 
L 133.624242 252 
L 133.624242 181.045547 
L 129.866667 181.045547 
z
" style="fill:#1f77b4;fill-opacity:0.75;stroke:#000000;stroke-linejoin:miter;stroke-width:0.375758;"/>
   </g>
   <g id="patch_14">
    <path clip-path="url(#p4ac8eb9c39)" d="M 133.624242 252 
L 137.381818 252 
L 137.381818 176.846057 
L 133.624242 176.846057 
z
" style="fill:#1f77b4;fill-opacity:0.75;stroke:#000000;stroke-linejoin:miter;stroke-width:0.375758;"/>
   </g>
   <g id="patch_15">
    <path clip-path="url(#p4ac8eb9c39)" d="M 137.381818 252 
L 141.139394 252 
L 141.139394 179.975614 
L 137.381818 179.975614 
z
" style="fill:#1f77b4;fill-opacity:0.75;stroke:#000000;stroke-linejoin:miter;stroke-width:0.375758;"/>
   </g>
   <g id="patch_16">
    <path clip-path="url(#p4ac8eb9c39)" d="M 141.139394 252 
L 144.89697 252 
L 144.89697 180.376839 
L 141.139394 180.376839 
z
" style="fill:#1f77b4;fill-opacity:0.75;stroke:#000000;stroke-linejoin:miter;stroke-width:0.375758;"/>
   </g>
   <g id="patch_17">
    <path clip-path="url(#p4ac8eb9c39)" d="M 144.89697 252 
L 148.654545 252 
L 148.654545 178.406377 
L 144.89697 178.406377 
z
" style="fill:#1f77b4;fill-opacity:0.75;stroke:#000000;stroke-linejoin:miter;stroke-width:0.375758;"/>
   </g>
   <g id="patch_18">
    <path clip-path="url(#p4ac8eb9c39)" d="M 148.654545 252 
L 152.412121 252 
L 152.412121 180.537329 
L 148.654545 180.537329 
z
" style="fill:#1f77b4;fill-opacity:0.75;stroke:#000000;stroke-linejoin:miter;stroke-width:0.375758;"/>
   </g>
   <g id="patch_19">
    <path clip-path="url(#p4ac8eb9c39)" d="M 152.412121 252 
L 156.169697 252 
L 156.169697 185.735425 
L 152.412121 185.735425 
z
" style="fill:#1f77b4;fill-opacity:0.75;stroke:#000000;stroke-linejoin:miter;stroke-width:0.375758;"/>
   </g>
   <g id="patch_20">
    <path clip-path="url(#p4ac8eb9c39)" d="M 156.169697 252 
L 159.927273 252 
L 159.927273 178.281551 
L 156.169697 178.281551 
z
" style="fill:#1f77b4;fill-opacity:0.75;stroke:#000000;stroke-linejoin:miter;stroke-width:0.375758;"/>
   </g>
   <g id="patch_21">
    <path clip-path="url(#p4ac8eb9c39)" d="M 159.927273 252 
L 163.684848 252 
L 163.684848 183.461815 
L 159.927273 183.461815 
z
" style="fill:#1f77b4;fill-opacity:0.75;stroke:#000000;stroke-linejoin:miter;stroke-width:0.375758;"/>
   </g>
   <g id="patch_22">
    <path clip-path="url(#p4ac8eb9c39)" d="M 163.684848 252 
L 167.442424 252 
L 167.442424 181.874746 
L 163.684848 181.874746 
z
" style="fill:#1f77b4;fill-opacity:0.75;stroke:#000000;stroke-linejoin:miter;stroke-width:0.375758;"/>
   </g>
   <g id="patch_23">
    <path clip-path="url(#p4ac8eb9c39)" d="M 167.442424 252 
L 171.2 252 
L 171.2 186.056405 
L 167.442424 186.056405 
z
" style="fill:#1f77b4;fill-opacity:0.75;stroke:#000000;stroke-linejoin:miter;stroke-width:0.375758;"/>
   </g>
   <g id="patch_24">
    <path clip-path="url(#p4ac8eb9c39)" d="M 171.2 252 
L 174.957576 252 
L 174.957576 182.46321 
L 171.2 182.46321 
z
" style="fill:#1f77b4;fill-opacity:0.75;stroke:#000000;stroke-linejoin:miter;stroke-width:0.375758;"/>
   </g>
   <g id="patch_25">
    <path clip-path="url(#p4ac8eb9c39)" d="M 174.957576 252 
L 178.715152 252 
L 178.715152 181.491353 
L 174.957576 181.491353 
z
" style="fill:#1f77b4;fill-opacity:0.75;stroke:#000000;stroke-linejoin:miter;stroke-width:0.375758;"/>
   </g>
   <g id="patch_26">
    <path clip-path="url(#p4ac8eb9c39)" d="M 178.715152 252 
L 182.472727 252 
L 182.472727 183.123003 
L 178.715152 183.123003 
z
" style="fill:#1f77b4;fill-opacity:0.75;stroke:#000000;stroke-linejoin:miter;stroke-width:0.375758;"/>
   </g>
   <g id="patch_27">
    <path clip-path="url(#p4ac8eb9c39)" d="M 182.472727 252 
L 186.230303 252 
L 186.230303 180.466 
L 182.472727 180.466 
z
" style="fill:#1f77b4;fill-opacity:0.75;stroke:#000000;stroke-linejoin:miter;stroke-width:0.375758;"/>
   </g>
   <g id="patch_28">
    <path clip-path="url(#p4ac8eb9c39)" d="M 186.230303 252 
L 189.987879 252 
L 189.987879 180.572993 
L 186.230303 180.572993 
z
" style="fill:#1f77b4;fill-opacity:0.75;stroke:#000000;stroke-linejoin:miter;stroke-width:0.375758;"/>
   </g>
   <g id="patch_29">
    <path clip-path="url(#p4ac8eb9c39)" d="M 189.987879 252 
L 193.745455 252 
L 193.745455 185.985076 
L 189.987879 185.985076 
z
" style="fill:#1f77b4;fill-opacity:0.75;stroke:#000000;stroke-linejoin:miter;stroke-width:0.375758;"/>
   </g>
   <g id="patch_30">
    <path clip-path="url(#p4ac8eb9c39)" d="M 193.745455 252 
L 197.50303 252 
L 197.50303 182.168978 
L 193.745455 182.168978 
z
" style="fill:#1f77b4;fill-opacity:0.75;stroke:#000000;stroke-linejoin:miter;stroke-width:0.375758;"/>
   </g>
   <g id="patch_31">
    <path clip-path="url(#p4ac8eb9c39)" d="M 197.50303 252 
L 201.260606 252 
L 201.260606 182.757442 
L 197.50303 182.757442 
z
" style="fill:#1f77b4;fill-opacity:0.75;stroke:#000000;stroke-linejoin:miter;stroke-width:0.375758;"/>
   </g>
   <g id="patch_32">
    <path clip-path="url(#p4ac8eb9c39)" d="M 201.260606 252 
L 205.018182 252 
L 205.018182 184.29993 
L 201.260606 184.29993 
z
" style="fill:#1f77b4;fill-opacity:0.75;stroke:#000000;stroke-linejoin:miter;stroke-width:0.375758;"/>
   </g>
   <g id="patch_33">
    <path clip-path="url(#p4ac8eb9c39)" d="M 205.018182 252 
L 208.775758 252 
L 208.775758 187.367074 
L 205.018182 187.367074 
z
" style="fill:#1f77b4;fill-opacity:0.75;stroke:#000000;stroke-linejoin:miter;stroke-width:0.375758;"/>
   </g>
   <g id="patch_34">
    <path clip-path="url(#p4ac8eb9c39)" d="M 208.775758 252 
L 212.533333 252 
L 212.533333 183.854124 
L 208.775758 183.854124 
z
" style="fill:#1f77b4;fill-opacity:0.75;stroke:#000000;stroke-linejoin:miter;stroke-width:0.375758;"/>
   </g>
   <g id="patch_35">
    <path clip-path="url(#p4ac8eb9c39)" d="M 212.533333 252 
L 216.290909 252 
L 216.290909 185.797837 
L 212.533333 185.797837 
z
" style="fill:#1f77b4;fill-opacity:0.75;stroke:#000000;stroke-linejoin:miter;stroke-width:0.375758;"/>
   </g>
   <g id="patch_36">
    <path clip-path="url(#p4ac8eb9c39)" d="M 216.290909 252 
L 220.048485 252 
L 220.048485 186.787526 
L 216.290909 186.787526 
z
" style="fill:#1f77b4;fill-opacity:0.75;stroke:#000000;stroke-linejoin:miter;stroke-width:0.375758;"/>
   </g>
   <g id="patch_37">
    <path clip-path="url(#p4ac8eb9c39)" d="M 220.048485 252 
L 223.806061 252 
L 223.806061 182.017404 
L 220.048485 182.017404 
z
" style="fill:#1f77b4;fill-opacity:0.75;stroke:#000000;stroke-linejoin:miter;stroke-width:0.375758;"/>
   </g>
   <g id="patch_38">
    <path clip-path="url(#p4ac8eb9c39)" d="M 223.806061 252 
L 227.563636 252 
L 227.563636 183.319157 
L 223.806061 183.319157 
z
" style="fill:#1f77b4;fill-opacity:0.75;stroke:#000000;stroke-linejoin:miter;stroke-width:0.375758;"/>
   </g>
   <g id="patch_39">
    <path clip-path="url(#p4ac8eb9c39)" d="M 227.563636 252 
L 231.321212 252 
L 231.321212 182.614784 
L 227.563636 182.614784 
z
" style="fill:#1f77b4;fill-opacity:0.75;stroke:#000000;stroke-linejoin:miter;stroke-width:0.375758;"/>
   </g>
   <g id="patch_40">
    <path clip-path="url(#p4ac8eb9c39)" d="M 231.321212 252 
L 235.078788 252 
L 235.078788 185.485773 
L 231.321212 185.485773 
z
" style="fill:#1f77b4;fill-opacity:0.75;stroke:#000000;stroke-linejoin:miter;stroke-width:0.375758;"/>
   </g>
   <g id="patch_41">
    <path clip-path="url(#p4ac8eb9c39)" d="M 235.078788 252 
L 238.836364 252 
L 238.836364 186.520043 
L 235.078788 186.520043 
z
" style="fill:#1f77b4;fill-opacity:0.75;stroke:#000000;stroke-linejoin:miter;stroke-width:0.375758;"/>
   </g>
   <g id="patch_42">
    <path clip-path="url(#p4ac8eb9c39)" d="M 238.836364 252 
L 242.593939 252 
L 242.593939 182.46321 
L 238.836364 182.46321 
z
" style="fill:#1f77b4;fill-opacity:0.75;stroke:#000000;stroke-linejoin:miter;stroke-width:0.375758;"/>
   </g>
   <g id="patch_43">
    <path clip-path="url(#p4ac8eb9c39)" d="M 242.593939 252 
L 246.351515 252 
L 246.351515 188.080363 
L 242.593939 188.080363 
z
" style="fill:#1f77b4;fill-opacity:0.75;stroke:#000000;stroke-linejoin:miter;stroke-width:0.375758;"/>
   </g>
   <g id="patch_44">
    <path clip-path="url(#p4ac8eb9c39)" d="M 246.351515 252 
L 250.109091 252 
L 250.109091 187.242248 
L 246.351515 187.242248 
z
" style="fill:#1f77b4;fill-opacity:0.75;stroke:#000000;stroke-linejoin:miter;stroke-width:0.375758;"/>
   </g>
   <g id="patch_45">
    <path clip-path="url(#p4ac8eb9c39)" d="M 250.109091 252 
L 253.866667 252 
L 253.866667 183.274577 
L 250.109091 183.274577 
z
" style="fill:#1f77b4;fill-opacity:0.75;stroke:#000000;stroke-linejoin:miter;stroke-width:0.375758;"/>
   </g>
   <g id="patch_46">
    <path clip-path="url(#p4ac8eb9c39)" d="M 253.866667 252 
L 257.624242 252 
L 257.624242 186.145566 
L 253.866667 186.145566 
z
" style="fill:#1f77b4;fill-opacity:0.75;stroke:#000000;stroke-linejoin:miter;stroke-width:0.375758;"/>
   </g>
   <g id="patch_47">
    <path clip-path="url(#p4ac8eb9c39)" d="M 257.624242 252 
L 261.381818 252 
L 261.381818 182.231391 
L 257.624242 182.231391 
z
" style="fill:#1f77b4;fill-opacity:0.75;stroke:#000000;stroke-linejoin:miter;stroke-width:0.375758;"/>
   </g>
   <g id="patch_48">
    <path clip-path="url(#p4ac8eb9c39)" d="M 261.381818 252 
L 265.139394 252 
L 265.139394 185.227206 
L 261.381818 185.227206 
z
" style="fill:#1f77b4;fill-opacity:0.75;stroke:#000000;stroke-linejoin:miter;stroke-width:0.375758;"/>
   </g>
   <g id="patch_49">
    <path clip-path="url(#p4ac8eb9c39)" d="M 265.139394 252 
L 268.89697 252 
L 268.89697 186.074237 
L 265.139394 186.074237 
z
" style="fill:#1f77b4;fill-opacity:0.75;stroke:#000000;stroke-linejoin:miter;stroke-width:0.375758;"/>
   </g>
   <g id="patch_50">
    <path clip-path="url(#p4ac8eb9c39)" d="M 268.89697 252 
L 272.654545 252 
L 272.654545 186.983681 
L 268.89697 186.983681 
z
" style="fill:#1f77b4;fill-opacity:0.75;stroke:#000000;stroke-linejoin:miter;stroke-width:0.375758;"/>
   </g>
   <g id="patch_51">
    <path clip-path="url(#p4ac8eb9c39)" d="M 272.654545 252 
L 276.412121 252 
L 276.412121 181.749921 
L 272.654545 181.749921 
z
" style="fill:#1f77b4;fill-opacity:0.75;stroke:#000000;stroke-linejoin:miter;stroke-width:0.375758;"/>
   </g>
   <g id="patch_52">
    <path clip-path="url(#p4ac8eb9c39)" d="M 276.412121 252 
L 280.169697 252 
L 280.169697 184.255349 
L 276.412121 184.255349 
z
" style="fill:#1f77b4;fill-opacity:0.75;stroke:#000000;stroke-linejoin:miter;stroke-width:0.375758;"/>
   </g>
   <g id="patch_53">
    <path clip-path="url(#p4ac8eb9c39)" d="M 280.169697 252 
L 283.927273 252 
L 283.927273 183.925453 
L 280.169697 183.925453 
z
" style="fill:#1f77b4;fill-opacity:0.75;stroke:#000000;stroke-linejoin:miter;stroke-width:0.375758;"/>
   </g>
   <g id="patch_54">
    <path clip-path="url(#p4ac8eb9c39)" d="M 283.927273 252 
L 287.684848 252 
L 287.684848 183.292409 
L 283.927273 183.292409 
z
" style="fill:#1f77b4;fill-opacity:0.75;stroke:#000000;stroke-linejoin:miter;stroke-width:0.375758;"/>
   </g>
   <g id="patch_55">
    <path clip-path="url(#p4ac8eb9c39)" d="M 287.684848 252 
L 291.442424 252 
L 291.442424 187.286829 
L 287.684848 187.286829 
z
" style="fill:#1f77b4;fill-opacity:0.75;stroke:#000000;stroke-linejoin:miter;stroke-width:0.375758;"/>
   </g>
   <g id="patch_56">
    <path clip-path="url(#p4ac8eb9c39)" d="M 291.442424 252 
L 295.2 252 
L 295.2 187.028261 
L 291.442424 187.028261 
z
" style="fill:#1f77b4;fill-opacity:0.75;stroke:#000000;stroke-linejoin:miter;stroke-width:0.375758;"/>
   </g>
   <g id="patch_57">
    <path clip-path="url(#p4ac8eb9c39)" d="M 295.2 252 
L 298.957576 252 
L 298.957576 184.656575 
L 295.2 184.656575 
z
" style="fill:#1f77b4;fill-opacity:0.75;stroke:#000000;stroke-linejoin:miter;stroke-width:0.375758;"/>
   </g>
   <g id="patch_58">
    <path clip-path="url(#p4ac8eb9c39)" d="M 298.957576 252 
L 302.715152 252 
L 302.715152 184.264265 
L 298.957576 184.264265 
z
" style="fill:#1f77b4;fill-opacity:0.75;stroke:#000000;stroke-linejoin:miter;stroke-width:0.375758;"/>
   </g>
   <g id="patch_59">
    <path clip-path="url(#p4ac8eb9c39)" d="M 302.715152 252 
L 306.472727 252 
L 306.472727 182.035236 
L 302.715152 182.035236 
z
" style="fill:#1f77b4;fill-opacity:0.75;stroke:#000000;stroke-linejoin:miter;stroke-width:0.375758;"/>
   </g>
   <g id="patch_60">
    <path clip-path="url(#p4ac8eb9c39)" d="M 306.472727 252 
L 310.230303 252 
L 310.230303 187.634557 
L 306.472727 187.634557 
z
" style="fill:#1f77b4;fill-opacity:0.75;stroke:#000000;stroke-linejoin:miter;stroke-width:0.375758;"/>
   </g>
   <g id="patch_61">
    <path clip-path="url(#p4ac8eb9c39)" d="M 310.230303 252 
L 313.987879 252 
L 313.987879 189.480193 
L 310.230303 189.480193 
z
" style="fill:#1f77b4;fill-opacity:0.75;stroke:#000000;stroke-linejoin:miter;stroke-width:0.375758;"/>
   </g>
   <g id="patch_62">
    <path clip-path="url(#p4ac8eb9c39)" d="M 313.987879 252 
L 317.745455 252 
L 317.745455 187.090674 
L 313.987879 187.090674 
z
" style="fill:#1f77b4;fill-opacity:0.75;stroke:#000000;stroke-linejoin:miter;stroke-width:0.375758;"/>
   </g>
   <g id="patch_63">
    <path clip-path="url(#p4ac8eb9c39)" d="M 317.745455 252 
L 321.50303 252 
L 321.50303 189.863586 
L 317.745455 189.863586 
z
" style="fill:#1f77b4;fill-opacity:0.75;stroke:#000000;stroke-linejoin:miter;stroke-width:0.375758;"/>
   </g>
   <g id="patch_64">
    <path clip-path="url(#p4ac8eb9c39)" d="M 321.50303 252 
L 325.260606 252 
L 325.260606 191.842964 
L 321.50303 191.842964 
z
" style="fill:#1f77b4;fill-opacity:0.75;stroke:#000000;stroke-linejoin:miter;stroke-width:0.375758;"/>
   </g>
   <g id="patch_65">
    <path clip-path="url(#p4ac8eb9c39)" d="M 325.260606 252 
L 329.018182 252 
L 329.018182 191.067262 
L 325.260606 191.067262 
z
" style="fill:#1f77b4;fill-opacity:0.75;stroke:#000000;stroke-linejoin:miter;stroke-width:0.375758;"/>
   </g>
   <g id="patch_66">
    <path clip-path="url(#p4ac8eb9c39)" d="M 329.018182 252 
L 332.775758 252 
L 332.775758 189.792257 
L 329.018182 189.792257 
z
" style="fill:#1f77b4;fill-opacity:0.75;stroke:#000000;stroke-linejoin:miter;stroke-width:0.375758;"/>
   </g>
   <g id="patch_67">
    <path clip-path="url(#p4ac8eb9c39)" d="M 332.775758 252 
L 336.533333 252 
L 336.533333 194.392973 
L 332.775758 194.392973 
z
" style="fill:#1f77b4;fill-opacity:0.75;stroke:#000000;stroke-linejoin:miter;stroke-width:0.375758;"/>
   </g>
   <g id="patch_68">
    <path clip-path="url(#p4ac8eb9c39)" d="M 336.533333 252 
L 340.290909 252 
L 340.290909 190.808695 
L 336.533333 190.808695 
z
" style="fill:#1f77b4;fill-opacity:0.75;stroke:#000000;stroke-linejoin:miter;stroke-width:0.375758;"/>
   </g>
   <g id="patch_69">
    <path clip-path="url(#p4ac8eb9c39)" d="M 340.290909 252 
L 344.048485 252 
L 344.048485 198.467638 
L 340.290909 198.467638 
z
" style="fill:#1f77b4;fill-opacity:0.75;stroke:#000000;stroke-linejoin:miter;stroke-width:0.375758;"/>
   </g>
   <g id="patch_70">
    <path clip-path="url(#p4ac8eb9c39)" d="M 344.048485 252 
L 347.806061 252 
L 347.806061 198.110994 
L 344.048485 198.110994 
z
" style="fill:#1f77b4;fill-opacity:0.75;stroke:#000000;stroke-linejoin:miter;stroke-width:0.375758;"/>
   </g>
   <g id="patch_71">
    <path clip-path="url(#p4ac8eb9c39)" d="M 347.806061 252 
L 351.563636 252 
L 351.563636 197.879175 
L 347.806061 197.879175 
z
" style="fill:#1f77b4;fill-opacity:0.75;stroke:#000000;stroke-linejoin:miter;stroke-width:0.375758;"/>
   </g>
   <g id="patch_72">
    <path clip-path="url(#p4ac8eb9c39)" d="M 351.563636 252 
L 355.321212 252 
L 355.321212 198.030749 
L 351.563636 198.030749 
z
" style="fill:#1f77b4;fill-opacity:0.75;stroke:#000000;stroke-linejoin:miter;stroke-width:0.375758;"/>
   </g>
   <g id="patch_73">
    <path clip-path="url(#p4ac8eb9c39)" d="M 355.321212 252 
L 359.078788 252 
L 359.078788 199.849636 
L 355.321212 199.849636 
z
" style="fill:#1f77b4;fill-opacity:0.75;stroke:#000000;stroke-linejoin:miter;stroke-width:0.375758;"/>
   </g>
   <g id="patch_74">
    <path clip-path="url(#p4ac8eb9c39)" d="M 359.078788 252 
L 362.836364 252 
L 362.836364 199.724811 
L 359.078788 199.724811 
z
" style="fill:#1f77b4;fill-opacity:0.75;stroke:#000000;stroke-linejoin:miter;stroke-width:0.375758;"/>
   </g>
   <g id="patch_75">
    <path clip-path="url(#p4ac8eb9c39)" d="M 362.836364 252 
L 366.593939 252 
L 366.593939 204.860494 
L 362.836364 204.860494 
z
" style="fill:#1f77b4;fill-opacity:0.75;stroke:#000000;stroke-linejoin:miter;stroke-width:0.375758;"/>
   </g>
   <g id="patch_76">
    <path clip-path="url(#p4ac8eb9c39)" d="M 366.593939 252 
L 370.351515 252 
L 370.351515 205.208222 
L 366.593939 205.208222 
z
" style="fill:#1f77b4;fill-opacity:0.75;stroke:#000000;stroke-linejoin:miter;stroke-width:0.375758;"/>
   </g>
   <g id="patch_77">
    <path clip-path="url(#p4ac8eb9c39)" d="M 370.351515 252 
L 374.109091 252 
L 374.109091 207.357006 
L 370.351515 207.357006 
z
" style="fill:#1f77b4;fill-opacity:0.75;stroke:#000000;stroke-linejoin:miter;stroke-width:0.375758;"/>
   </g>
   <g id="patch_78">
    <path clip-path="url(#p4ac8eb9c39)" d="M 374.109091 252 
L 377.866667 252 
L 377.866667 206.86662 
L 374.109091 206.86662 
z
" style="fill:#1f77b4;fill-opacity:0.75;stroke:#000000;stroke-linejoin:miter;stroke-width:0.375758;"/>
   </g>
   <g id="patch_79">
    <path clip-path="url(#p4ac8eb9c39)" d="M 377.866667 252 
L 381.624242 252 
L 381.624242 208.293199 
L 377.866667 208.293199 
z
" style="fill:#1f77b4;fill-opacity:0.75;stroke:#000000;stroke-linejoin:miter;stroke-width:0.375758;"/>
   </g>
   <g id="patch_80">
    <path clip-path="url(#p4ac8eb9c39)" d="M 381.624242 252 
L 385.381818 252 
L 385.381818 214.151087 
L 381.624242 214.151087 
z
" style="fill:#1f77b4;fill-opacity:0.75;stroke:#000000;stroke-linejoin:miter;stroke-width:0.375758;"/>
   </g>
   <g id="patch_81">
    <path clip-path="url(#p4ac8eb9c39)" d="M 385.381818 252 
L 389.139394 252 
L 389.139394 210.450899 
L 385.381818 210.450899 
z
" style="fill:#1f77b4;fill-opacity:0.75;stroke:#000000;stroke-linejoin:miter;stroke-width:0.375758;"/>
   </g>
   <g id="patch_82">
    <path clip-path="url(#p4ac8eb9c39)" d="M 389.139394 252 
L 392.89697 252 
L 392.89697 214.614725 
L 389.139394 214.614725 
z
" style="fill:#1f77b4;fill-opacity:0.75;stroke:#000000;stroke-linejoin:miter;stroke-width:0.375758;"/>
   </g>
   <g id="patch_83">
    <path clip-path="url(#p4ac8eb9c39)" d="M 392.89697 252 
L 396.654545 252 
L 396.654545 215.29235 
L 392.89697 215.29235 
z
" style="fill:#1f77b4;fill-opacity:0.75;stroke:#000000;stroke-linejoin:miter;stroke-width:0.375758;"/>
   </g>
   <g id="patch_84">
    <path clip-path="url(#p4ac8eb9c39)" d="M 396.654545 252 
L 400.412121 252 
L 400.412121 216.326619 
L 396.654545 216.326619 
z
" style="fill:#1f77b4;fill-opacity:0.75;stroke:#000000;stroke-linejoin:miter;stroke-width:0.375758;"/>
   </g>
   <g id="patch_85">
    <path clip-path="url(#p4ac8eb9c39)" d="M 400.412121 252 
L 404.169697 252 
L 404.169697 217.45005 
L 400.412121 217.45005 
z
" style="fill:#1f77b4;fill-opacity:0.75;stroke:#000000;stroke-linejoin:miter;stroke-width:0.375758;"/>
   </g>
   <g id="patch_86">
    <path clip-path="url(#p4ac8eb9c39)" d="M 404.169697 252 
L 407.927273 252 
L 407.927273 218.493235 
L 404.169697 218.493235 
z
" style="fill:#1f77b4;fill-opacity:0.75;stroke:#000000;stroke-linejoin:miter;stroke-width:0.375758;"/>
   </g>
   <g id="patch_87">
    <path clip-path="url(#p4ac8eb9c39)" d="M 407.927273 252 
L 411.684848 252 
L 411.684848 222.871048 
L 407.927273 222.871048 
z
" style="fill:#1f77b4;fill-opacity:0.75;stroke:#000000;stroke-linejoin:miter;stroke-width:0.375758;"/>
   </g>
   <g id="patch_88">
    <path clip-path="url(#p4ac8eb9c39)" d="M 411.684848 252 
L 415.442424 252 
L 415.442424 222.817552 
L 411.684848 222.817552 
z
" style="fill:#1f77b4;fill-opacity:0.75;stroke:#000000;stroke-linejoin:miter;stroke-width:0.375758;"/>
   </g>
   <g id="patch_89">
    <path clip-path="url(#p4ac8eb9c39)" d="M 415.442424 252 
L 419.2 252 
L 419.2 226.214592 
L 415.442424 226.214592 
z
" style="fill:#1f77b4;fill-opacity:0.75;stroke:#000000;stroke-linejoin:miter;stroke-width:0.375758;"/>
   </g>
   <g id="patch_90">
    <path clip-path="url(#p4ac8eb9c39)" d="M 419.2 252 
L 422.957576 252 
L 422.957576 226.392914 
L 419.2 226.392914 
z
" style="fill:#1f77b4;fill-opacity:0.75;stroke:#000000;stroke-linejoin:miter;stroke-width:0.375758;"/>
   </g>
   <g id="patch_91">
    <path clip-path="url(#p4ac8eb9c39)" d="M 422.957576 252 
L 426.715152 252 
L 426.715152 227.908654 
L 422.957576 227.908654 
z
" style="fill:#1f77b4;fill-opacity:0.75;stroke:#000000;stroke-linejoin:miter;stroke-width:0.375758;"/>
   </g>
   <g id="patch_92">
    <path clip-path="url(#p4ac8eb9c39)" d="M 426.715152 252 
L 430.472727 252 
L 430.472727 230.012858 
L 426.715152 230.012858 
z
" style="fill:#1f77b4;fill-opacity:0.75;stroke:#000000;stroke-linejoin:miter;stroke-width:0.375758;"/>
   </g>
   <g id="patch_93">
    <path clip-path="url(#p4ac8eb9c39)" d="M 430.472727 252 
L 434.230303 252 
L 434.230303 232.500454 
L 430.472727 232.500454 
z
" style="fill:#1f77b4;fill-opacity:0.75;stroke:#000000;stroke-linejoin:miter;stroke-width:0.375758;"/>
   </g>
   <g id="patch_94">
    <path clip-path="url(#p4ac8eb9c39)" d="M 434.230303 252 
L 437.987879 252 
L 437.987879 234.979134 
L 434.230303 234.979134 
z
" style="fill:#1f77b4;fill-opacity:0.75;stroke:#000000;stroke-linejoin:miter;stroke-width:0.375758;"/>
   </g>
   <g id="patch_95">
    <path clip-path="url(#p4ac8eb9c39)" d="M 437.987879 252 
L 441.745455 252 
L 441.745455 234.586825 
L 437.987879 234.586825 
z
" style="fill:#1f77b4;fill-opacity:0.75;stroke:#000000;stroke-linejoin:miter;stroke-width:0.375758;"/>
   </g>
   <g id="patch_96">
    <path clip-path="url(#p4ac8eb9c39)" d="M 441.745455 252 
L 445.50303 252 
L 445.50303 236.387881 
L 441.745455 236.387881 
z
" style="fill:#1f77b4;fill-opacity:0.75;stroke:#000000;stroke-linejoin:miter;stroke-width:0.375758;"/>
   </g>
   <g id="patch_97">
    <path clip-path="url(#p4ac8eb9c39)" d="M 445.50303 252 
L 449.260606 252 
L 449.260606 237.885788 
L 445.50303 237.885788 
z
" style="fill:#1f77b4;fill-opacity:0.75;stroke:#000000;stroke-linejoin:miter;stroke-width:0.375758;"/>
   </g>
   <g id="patch_98">
    <path clip-path="url(#p4ac8eb9c39)" d="M 449.260606 252 
L 453.018182 252 
L 453.018182 239.294534 
L 449.260606 239.294534 
z
" style="fill:#1f77b4;fill-opacity:0.75;stroke:#000000;stroke-linejoin:miter;stroke-width:0.375758;"/>
   </g>
   <g id="patch_99">
    <path clip-path="url(#p4ac8eb9c39)" d="M 453.018182 252 
L 456.775758 252 
L 456.775758 240.435797 
L 453.018182 240.435797 
z
" style="fill:#1f77b4;fill-opacity:0.75;stroke:#000000;stroke-linejoin:miter;stroke-width:0.375758;"/>
   </g>
   <g id="patch_100">
    <path clip-path="url(#p4ac8eb9c39)" d="M 456.775758 252 
L 460.533333 252 
L 460.533333 241.987202 
L 456.775758 241.987202 
z
" style="fill:#1f77b4;fill-opacity:0.75;stroke:#000000;stroke-linejoin:miter;stroke-width:0.375758;"/>
   </g>
   <g id="patch_101">
    <path clip-path="url(#p4ac8eb9c39)" d="M 460.533333 252 
L 464.290909 252 
L 464.290909 244.189482 
L 460.533333 244.189482 
z
" style="fill:#1f77b4;fill-opacity:0.75;stroke:#000000;stroke-linejoin:miter;stroke-width:0.375758;"/>
   </g>
   <g id="patch_102">
    <path clip-path="url(#p4ac8eb9c39)" d="M 464.290909 252 
L 468.048485 252 
L 468.048485 245.428822 
L 464.290909 245.428822 
z
" style="fill:#1f77b4;fill-opacity:0.75;stroke:#000000;stroke-linejoin:miter;stroke-width:0.375758;"/>
   </g>
   <g id="patch_103">
    <path clip-path="url(#p4ac8eb9c39)" d="M 468.048485 252 
L 471.806061 252 
L 471.806061 246.061867 
L 468.048485 246.061867 
z
" style="fill:#1f77b4;fill-opacity:0.75;stroke:#000000;stroke-linejoin:miter;stroke-width:0.375758;"/>
   </g>
   <g id="patch_104">
    <path clip-path="url(#p4ac8eb9c39)" d="M 471.806061 252 
L 475.563636 252 
L 475.563636 248.451386 
L 471.806061 248.451386 
z
" style="fill:#1f77b4;fill-opacity:0.75;stroke:#000000;stroke-linejoin:miter;stroke-width:0.375758;"/>
   </g>
   <g id="patch_105">
    <path clip-path="url(#p4ac8eb9c39)" d="M 475.563636 252 
L 479.321212 252 
L 479.321212 249.093346 
L 475.563636 249.093346 
z
" style="fill:#1f77b4;fill-opacity:0.75;stroke:#000000;stroke-linejoin:miter;stroke-width:0.375758;"/>
   </g>
   <g id="patch_106">
    <path clip-path="url(#p4ac8eb9c39)" d="M 479.321212 252 
L 483.078788 252 
L 483.078788 250.341602 
L 479.321212 250.341602 
z
" style="fill:#1f77b4;fill-opacity:0.75;stroke:#000000;stroke-linejoin:miter;stroke-width:0.375758;"/>
   </g>
   <g id="patch_107">
    <path clip-path="url(#p4ac8eb9c39)" d="M 483.078788 252 
L 486.836364 252 
L 486.836364 250.831989 
L 483.078788 250.831989 
z
" style="fill:#1f77b4;fill-opacity:0.75;stroke:#000000;stroke-linejoin:miter;stroke-width:0.375758;"/>
   </g>
   <g id="patch_108">
    <path clip-path="url(#p4ac8eb9c39)" d="M 486.836364 252 
L 490.593939 252 
L 490.593939 251.384788 
L 486.836364 251.384788 
z
" style="fill:#1f77b4;fill-opacity:0.75;stroke:#000000;stroke-linejoin:miter;stroke-width:0.375758;"/>
   </g>
   <g id="patch_109">
    <path clip-path="url(#p4ac8eb9c39)" d="M 490.593939 252 
L 494.351515 252 
L 494.351515 251.714684 
L 490.593939 251.714684 
z
" style="fill:#1f77b4;fill-opacity:0.75;stroke:#000000;stroke-linejoin:miter;stroke-width:0.375758;"/>
   </g>
   <g id="patch_110">
    <path clip-path="url(#p4ac8eb9c39)" d="M 494.351515 252 
L 498.109091 252 
L 498.109091 251.893007 
L 494.351515 251.893007 
z
" style="fill:#1f77b4;fill-opacity:0.75;stroke:#000000;stroke-linejoin:miter;stroke-width:0.375758;"/>
   </g>
   <g id="matplotlib.axis_1">
    <g id="xtick_1">
     <g id="line2d_1">
      <defs>
       <path d="M 0 0 
L 0 3.5 
" id="m0cbcf597d7" style="stroke:#000000;stroke-width:0.8;"/>
      </defs>
      <g>
       <use style="stroke:#000000;stroke-width:0.8;" x="92.290909" xlink:href="#m0cbcf597d7" y="252"/>
      </g>
     </g>
     <g id="text_1">
      <!-- 0.0 -->
      <g transform="translate(84.339347 266.598437)scale(0.1 -0.1)">
       <defs>
        <path d="M 2034 4250 
Q 1547 4250 1301 3770 
Q 1056 3291 1056 2328 
Q 1056 1369 1301 889 
Q 1547 409 2034 409 
Q 2525 409 2770 889 
Q 3016 1369 3016 2328 
Q 3016 3291 2770 3770 
Q 2525 4250 2034 4250 
z
M 2034 4750 
Q 2819 4750 3233 4129 
Q 3647 3509 3647 2328 
Q 3647 1150 3233 529 
Q 2819 -91 2034 -91 
Q 1250 -91 836 529 
Q 422 1150 422 2328 
Q 422 3509 836 4129 
Q 1250 4750 2034 4750 
z
" id="DejaVuSans-30" transform="scale(0.015625)"/>
        <path d="M 684 794 
L 1344 794 
L 1344 0 
L 684 0 
L 684 794 
z
" id="DejaVuSans-2e" transform="scale(0.015625)"/>
       </defs>
       <use xlink:href="#DejaVuSans-30"/>
       <use x="63.623047" xlink:href="#DejaVuSans-2e"/>
       <use x="95.410156" xlink:href="#DejaVuSans-30"/>
      </g>
     </g>
    </g>
    <g id="xtick_2">
     <g id="line2d_2">
      <g>
       <use style="stroke:#000000;stroke-width:0.8;" x="174.067873" xlink:href="#m0cbcf597d7" y="252"/>
      </g>
     </g>
     <g id="text_2">
      <!-- 0.2 -->
      <g transform="translate(166.11631 266.598437)scale(0.1 -0.1)">
       <defs>
        <path d="M 1228 531 
L 3431 531 
L 3431 0 
L 469 0 
L 469 531 
Q 828 903 1448 1529 
Q 2069 2156 2228 2338 
Q 2531 2678 2651 2914 
Q 2772 3150 2772 3378 
Q 2772 3750 2511 3984 
Q 2250 4219 1831 4219 
Q 1534 4219 1204 4116 
Q 875 4013 500 3803 
L 500 4441 
Q 881 4594 1212 4672 
Q 1544 4750 1819 4750 
Q 2544 4750 2975 4387 
Q 3406 4025 3406 3419 
Q 3406 3131 3298 2873 
Q 3191 2616 2906 2266 
Q 2828 2175 2409 1742 
Q 1991 1309 1228 531 
z
" id="DejaVuSans-32" transform="scale(0.015625)"/>
       </defs>
       <use xlink:href="#DejaVuSans-30"/>
       <use x="63.623047" xlink:href="#DejaVuSans-2e"/>
       <use x="95.410156" xlink:href="#DejaVuSans-32"/>
      </g>
     </g>
    </g>
    <g id="xtick_3">
     <g id="line2d_3">
      <g>
       <use style="stroke:#000000;stroke-width:0.8;" x="255.844836" xlink:href="#m0cbcf597d7" y="252"/>
      </g>
     </g>
     <g id="text_3">
      <!-- 0.4 -->
      <g transform="translate(247.893274 266.598437)scale(0.1 -0.1)">
       <defs>
        <path d="M 2419 4116 
L 825 1625 
L 2419 1625 
L 2419 4116 
z
M 2253 4666 
L 3047 4666 
L 3047 1625 
L 3713 1625 
L 3713 1100 
L 3047 1100 
L 3047 0 
L 2419 0 
L 2419 1100 
L 313 1100 
L 313 1709 
L 2253 4666 
z
" id="DejaVuSans-34" transform="scale(0.015625)"/>
       </defs>
       <use xlink:href="#DejaVuSans-30"/>
       <use x="63.623047" xlink:href="#DejaVuSans-2e"/>
       <use x="95.410156" xlink:href="#DejaVuSans-34"/>
      </g>
     </g>
    </g>
    <g id="xtick_4">
     <g id="line2d_4">
      <g>
       <use style="stroke:#000000;stroke-width:0.8;" x="337.6218" xlink:href="#m0cbcf597d7" y="252"/>
      </g>
     </g>
     <g id="text_4">
      <!-- 0.6 -->
      <g transform="translate(329.670237 266.598437)scale(0.1 -0.1)">
       <defs>
        <path d="M 2113 2584 
Q 1688 2584 1439 2293 
Q 1191 2003 1191 1497 
Q 1191 994 1439 701 
Q 1688 409 2113 409 
Q 2538 409 2786 701 
Q 3034 994 3034 1497 
Q 3034 2003 2786 2293 
Q 2538 2584 2113 2584 
z
M 3366 4563 
L 3366 3988 
Q 3128 4100 2886 4159 
Q 2644 4219 2406 4219 
Q 1781 4219 1451 3797 
Q 1122 3375 1075 2522 
Q 1259 2794 1537 2939 
Q 1816 3084 2150 3084 
Q 2853 3084 3261 2657 
Q 3669 2231 3669 1497 
Q 3669 778 3244 343 
Q 2819 -91 2113 -91 
Q 1303 -91 875 529 
Q 447 1150 447 2328 
Q 447 3434 972 4092 
Q 1497 4750 2381 4750 
Q 2619 4750 2861 4703 
Q 3103 4656 3366 4563 
z
" id="DejaVuSans-36" transform="scale(0.015625)"/>
       </defs>
       <use xlink:href="#DejaVuSans-30"/>
       <use x="63.623047" xlink:href="#DejaVuSans-2e"/>
       <use x="95.410156" xlink:href="#DejaVuSans-36"/>
      </g>
     </g>
    </g>
    <g id="xtick_5">
     <g id="line2d_5">
      <g>
       <use style="stroke:#000000;stroke-width:0.8;" x="419.398763" xlink:href="#m0cbcf597d7" y="252"/>
      </g>
     </g>
     <g id="text_5">
      <!-- 0.8 -->
      <g transform="translate(411.447201 266.598437)scale(0.1 -0.1)">
       <defs>
        <path d="M 2034 2216 
Q 1584 2216 1326 1975 
Q 1069 1734 1069 1313 
Q 1069 891 1326 650 
Q 1584 409 2034 409 
Q 2484 409 2743 651 
Q 3003 894 3003 1313 
Q 3003 1734 2745 1975 
Q 2488 2216 2034 2216 
z
M 1403 2484 
Q 997 2584 770 2862 
Q 544 3141 544 3541 
Q 544 4100 942 4425 
Q 1341 4750 2034 4750 
Q 2731 4750 3128 4425 
Q 3525 4100 3525 3541 
Q 3525 3141 3298 2862 
Q 3072 2584 2669 2484 
Q 3125 2378 3379 2068 
Q 3634 1759 3634 1313 
Q 3634 634 3220 271 
Q 2806 -91 2034 -91 
Q 1263 -91 848 271 
Q 434 634 434 1313 
Q 434 1759 690 2068 
Q 947 2378 1403 2484 
z
M 1172 3481 
Q 1172 3119 1398 2916 
Q 1625 2713 2034 2713 
Q 2441 2713 2670 2916 
Q 2900 3119 2900 3481 
Q 2900 3844 2670 4047 
Q 2441 4250 2034 4250 
Q 1625 4250 1398 4047 
Q 1172 3844 1172 3481 
z
" id="DejaVuSans-38" transform="scale(0.015625)"/>
       </defs>
       <use xlink:href="#DejaVuSans-30"/>
       <use x="63.623047" xlink:href="#DejaVuSans-2e"/>
       <use x="95.410156" xlink:href="#DejaVuSans-38"/>
      </g>
     </g>
    </g>
    <g id="xtick_6">
     <g id="line2d_6">
      <g>
       <use style="stroke:#000000;stroke-width:0.8;" x="501.175727" xlink:href="#m0cbcf597d7" y="252"/>
      </g>
     </g>
     <g id="text_6">
      <!-- 1.0 -->
      <g transform="translate(493.224165 266.598437)scale(0.1 -0.1)">
       <defs>
        <path d="M 794 531 
L 1825 531 
L 1825 4091 
L 703 3866 
L 703 4441 
L 1819 4666 
L 2450 4666 
L 2450 531 
L 3481 531 
L 3481 0 
L 794 0 
L 794 531 
z
" id="DejaVuSans-31" transform="scale(0.015625)"/>
       </defs>
       <use xlink:href="#DejaVuSans-31"/>
       <use x="63.623047" xlink:href="#DejaVuSans-2e"/>
       <use x="95.410156" xlink:href="#DejaVuSans-30"/>
      </g>
     </g>
    </g>
    <g id="text_7">
     <!-- Crime probability -->
     <g transform="translate(252.052344 280.276563)scale(0.1 -0.1)">
      <defs>
       <path d="M 4122 4306 
L 4122 3641 
Q 3803 3938 3442 4084 
Q 3081 4231 2675 4231 
Q 1875 4231 1450 3742 
Q 1025 3253 1025 2328 
Q 1025 1406 1450 917 
Q 1875 428 2675 428 
Q 3081 428 3442 575 
Q 3803 722 4122 1019 
L 4122 359 
Q 3791 134 3420 21 
Q 3050 -91 2638 -91 
Q 1578 -91 968 557 
Q 359 1206 359 2328 
Q 359 3453 968 4101 
Q 1578 4750 2638 4750 
Q 3056 4750 3426 4639 
Q 3797 4528 4122 4306 
z
" id="DejaVuSans-43" transform="scale(0.015625)"/>
       <path d="M 2631 2963 
Q 2534 3019 2420 3045 
Q 2306 3072 2169 3072 
Q 1681 3072 1420 2755 
Q 1159 2438 1159 1844 
L 1159 0 
L 581 0 
L 581 3500 
L 1159 3500 
L 1159 2956 
Q 1341 3275 1631 3429 
Q 1922 3584 2338 3584 
Q 2397 3584 2469 3576 
Q 2541 3569 2628 3553 
L 2631 2963 
z
" id="DejaVuSans-72" transform="scale(0.015625)"/>
       <path d="M 603 3500 
L 1178 3500 
L 1178 0 
L 603 0 
L 603 3500 
z
M 603 4863 
L 1178 4863 
L 1178 4134 
L 603 4134 
L 603 4863 
z
" id="DejaVuSans-69" transform="scale(0.015625)"/>
       <path d="M 3328 2828 
Q 3544 3216 3844 3400 
Q 4144 3584 4550 3584 
Q 5097 3584 5394 3201 
Q 5691 2819 5691 2113 
L 5691 0 
L 5113 0 
L 5113 2094 
Q 5113 2597 4934 2840 
Q 4756 3084 4391 3084 
Q 3944 3084 3684 2787 
Q 3425 2491 3425 1978 
L 3425 0 
L 2847 0 
L 2847 2094 
Q 2847 2600 2669 2842 
Q 2491 3084 2119 3084 
Q 1678 3084 1418 2786 
Q 1159 2488 1159 1978 
L 1159 0 
L 581 0 
L 581 3500 
L 1159 3500 
L 1159 2956 
Q 1356 3278 1631 3431 
Q 1906 3584 2284 3584 
Q 2666 3584 2933 3390 
Q 3200 3197 3328 2828 
z
" id="DejaVuSans-6d" transform="scale(0.015625)"/>
       <path d="M 3597 1894 
L 3597 1613 
L 953 1613 
Q 991 1019 1311 708 
Q 1631 397 2203 397 
Q 2534 397 2845 478 
Q 3156 559 3463 722 
L 3463 178 
Q 3153 47 2828 -22 
Q 2503 -91 2169 -91 
Q 1331 -91 842 396 
Q 353 884 353 1716 
Q 353 2575 817 3079 
Q 1281 3584 2069 3584 
Q 2775 3584 3186 3129 
Q 3597 2675 3597 1894 
z
M 3022 2063 
Q 3016 2534 2758 2815 
Q 2500 3097 2075 3097 
Q 1594 3097 1305 2825 
Q 1016 2553 972 2059 
L 3022 2063 
z
" id="DejaVuSans-65" transform="scale(0.015625)"/>
       <path id="DejaVuSans-20" transform="scale(0.015625)"/>
       <path d="M 1159 525 
L 1159 -1331 
L 581 -1331 
L 581 3500 
L 1159 3500 
L 1159 2969 
Q 1341 3281 1617 3432 
Q 1894 3584 2278 3584 
Q 2916 3584 3314 3078 
Q 3713 2572 3713 1747 
Q 3713 922 3314 415 
Q 2916 -91 2278 -91 
Q 1894 -91 1617 61 
Q 1341 213 1159 525 
z
M 3116 1747 
Q 3116 2381 2855 2742 
Q 2594 3103 2138 3103 
Q 1681 3103 1420 2742 
Q 1159 2381 1159 1747 
Q 1159 1113 1420 752 
Q 1681 391 2138 391 
Q 2594 391 2855 752 
Q 3116 1113 3116 1747 
z
" id="DejaVuSans-70" transform="scale(0.015625)"/>
       <path d="M 1959 3097 
Q 1497 3097 1228 2736 
Q 959 2375 959 1747 
Q 959 1119 1226 758 
Q 1494 397 1959 397 
Q 2419 397 2687 759 
Q 2956 1122 2956 1747 
Q 2956 2369 2687 2733 
Q 2419 3097 1959 3097 
z
M 1959 3584 
Q 2709 3584 3137 3096 
Q 3566 2609 3566 1747 
Q 3566 888 3137 398 
Q 2709 -91 1959 -91 
Q 1206 -91 779 398 
Q 353 888 353 1747 
Q 353 2609 779 3096 
Q 1206 3584 1959 3584 
z
" id="DejaVuSans-6f" transform="scale(0.015625)"/>
       <path d="M 3116 1747 
Q 3116 2381 2855 2742 
Q 2594 3103 2138 3103 
Q 1681 3103 1420 2742 
Q 1159 2381 1159 1747 
Q 1159 1113 1420 752 
Q 1681 391 2138 391 
Q 2594 391 2855 752 
Q 3116 1113 3116 1747 
z
M 1159 2969 
Q 1341 3281 1617 3432 
Q 1894 3584 2278 3584 
Q 2916 3584 3314 3078 
Q 3713 2572 3713 1747 
Q 3713 922 3314 415 
Q 2916 -91 2278 -91 
Q 1894 -91 1617 61 
Q 1341 213 1159 525 
L 1159 0 
L 581 0 
L 581 4863 
L 1159 4863 
L 1159 2969 
z
" id="DejaVuSans-62" transform="scale(0.015625)"/>
       <path d="M 2194 1759 
Q 1497 1759 1228 1600 
Q 959 1441 959 1056 
Q 959 750 1161 570 
Q 1363 391 1709 391 
Q 2188 391 2477 730 
Q 2766 1069 2766 1631 
L 2766 1759 
L 2194 1759 
z
M 3341 1997 
L 3341 0 
L 2766 0 
L 2766 531 
Q 2569 213 2275 61 
Q 1981 -91 1556 -91 
Q 1019 -91 701 211 
Q 384 513 384 1019 
Q 384 1609 779 1909 
Q 1175 2209 1959 2209 
L 2766 2209 
L 2766 2266 
Q 2766 2663 2505 2880 
Q 2244 3097 1772 3097 
Q 1472 3097 1187 3025 
Q 903 2953 641 2809 
L 641 3341 
Q 956 3463 1253 3523 
Q 1550 3584 1831 3584 
Q 2591 3584 2966 3190 
Q 3341 2797 3341 1997 
z
" id="DejaVuSans-61" transform="scale(0.015625)"/>
       <path d="M 603 4863 
L 1178 4863 
L 1178 0 
L 603 0 
L 603 4863 
z
" id="DejaVuSans-6c" transform="scale(0.015625)"/>
       <path d="M 1172 4494 
L 1172 3500 
L 2356 3500 
L 2356 3053 
L 1172 3053 
L 1172 1153 
Q 1172 725 1289 603 
Q 1406 481 1766 481 
L 2356 481 
L 2356 0 
L 1766 0 
Q 1100 0 847 248 
Q 594 497 594 1153 
L 594 3053 
L 172 3053 
L 172 3500 
L 594 3500 
L 594 4494 
L 1172 4494 
z
" id="DejaVuSans-74" transform="scale(0.015625)"/>
       <path d="M 2059 -325 
Q 1816 -950 1584 -1140 
Q 1353 -1331 966 -1331 
L 506 -1331 
L 506 -850 
L 844 -850 
Q 1081 -850 1212 -737 
Q 1344 -625 1503 -206 
L 1606 56 
L 191 3500 
L 800 3500 
L 1894 763 
L 2988 3500 
L 3597 3500 
L 2059 -325 
z
" id="DejaVuSans-79" transform="scale(0.015625)"/>
      </defs>
      <use xlink:href="#DejaVuSans-43"/>
      <use x="69.824219" xlink:href="#DejaVuSans-72"/>
      <use x="110.9375" xlink:href="#DejaVuSans-69"/>
      <use x="138.720703" xlink:href="#DejaVuSans-6d"/>
      <use x="236.132812" xlink:href="#DejaVuSans-65"/>
      <use x="297.65625" xlink:href="#DejaVuSans-20"/>
      <use x="329.443359" xlink:href="#DejaVuSans-70"/>
      <use x="392.919922" xlink:href="#DejaVuSans-72"/>
      <use x="431.783203" xlink:href="#DejaVuSans-6f"/>
      <use x="492.964844" xlink:href="#DejaVuSans-62"/>
      <use x="556.441406" xlink:href="#DejaVuSans-61"/>
      <use x="617.720703" xlink:href="#DejaVuSans-62"/>
      <use x="681.197266" xlink:href="#DejaVuSans-69"/>
      <use x="708.980469" xlink:href="#DejaVuSans-6c"/>
      <use x="736.763672" xlink:href="#DejaVuSans-69"/>
      <use x="764.546875" xlink:href="#DejaVuSans-74"/>
      <use x="803.755859" xlink:href="#DejaVuSans-79"/>
     </g>
    </g>
   </g>
   <g id="matplotlib.axis_2">
    <g id="ytick_1">
     <g id="line2d_7">
      <defs>
       <path d="M 0 0 
L -3.5 0 
" id="m3b428dd24d" style="stroke:#000000;stroke-width:0.8;"/>
      </defs>
      <g>
       <use style="stroke:#000000;stroke-width:0.8;" x="72" xlink:href="#m3b428dd24d" y="252"/>
      </g>
     </g>
     <g id="text_8">
      <!-- 0 -->
      <g transform="translate(58.6375 255.799219)scale(0.1 -0.1)">
       <use xlink:href="#DejaVuSans-30"/>
      </g>
     </g>
    </g>
    <g id="ytick_2">
     <g id="line2d_8">
      <g>
       <use style="stroke:#000000;stroke-width:0.8;" x="72" xlink:href="#m3b428dd24d" y="207.419419"/>
      </g>
     </g>
     <g id="text_9">
      <!-- 5000 -->
      <g transform="translate(39.55 211.218638)scale(0.1 -0.1)">
       <defs>
        <path d="M 691 4666 
L 3169 4666 
L 3169 4134 
L 1269 4134 
L 1269 2991 
Q 1406 3038 1543 3061 
Q 1681 3084 1819 3084 
Q 2600 3084 3056 2656 
Q 3513 2228 3513 1497 
Q 3513 744 3044 326 
Q 2575 -91 1722 -91 
Q 1428 -91 1123 -41 
Q 819 9 494 109 
L 494 744 
Q 775 591 1075 516 
Q 1375 441 1709 441 
Q 2250 441 2565 725 
Q 2881 1009 2881 1497 
Q 2881 1984 2565 2268 
Q 2250 2553 1709 2553 
Q 1456 2553 1204 2497 
Q 953 2441 691 2322 
L 691 4666 
z
" id="DejaVuSans-35" transform="scale(0.015625)"/>
       </defs>
       <use xlink:href="#DejaVuSans-35"/>
       <use x="63.623047" xlink:href="#DejaVuSans-30"/>
       <use x="127.246094" xlink:href="#DejaVuSans-30"/>
       <use x="190.869141" xlink:href="#DejaVuSans-30"/>
      </g>
     </g>
    </g>
    <g id="ytick_3">
     <g id="line2d_9">
      <g>
       <use style="stroke:#000000;stroke-width:0.8;" x="72" xlink:href="#m3b428dd24d" y="162.838838"/>
      </g>
     </g>
     <g id="text_10">
      <!-- 10000 -->
      <g transform="translate(33.1875 166.638057)scale(0.1 -0.1)">
       <use xlink:href="#DejaVuSans-31"/>
       <use x="63.623047" xlink:href="#DejaVuSans-30"/>
       <use x="127.246094" xlink:href="#DejaVuSans-30"/>
       <use x="190.869141" xlink:href="#DejaVuSans-30"/>
       <use x="254.492188" xlink:href="#DejaVuSans-30"/>
      </g>
     </g>
    </g>
    <g id="ytick_4">
     <g id="line2d_10">
      <g>
       <use style="stroke:#000000;stroke-width:0.8;" x="72" xlink:href="#m3b428dd24d" y="118.258257"/>
      </g>
     </g>
     <g id="text_11">
      <!-- 15000 -->
      <g transform="translate(33.1875 122.057476)scale(0.1 -0.1)">
       <use xlink:href="#DejaVuSans-31"/>
       <use x="63.623047" xlink:href="#DejaVuSans-35"/>
       <use x="127.246094" xlink:href="#DejaVuSans-30"/>
       <use x="190.869141" xlink:href="#DejaVuSans-30"/>
       <use x="254.492188" xlink:href="#DejaVuSans-30"/>
      </g>
     </g>
    </g>
    <g id="ytick_5">
     <g id="line2d_11">
      <g>
       <use style="stroke:#000000;stroke-width:0.8;" x="72" xlink:href="#m3b428dd24d" y="73.677676"/>
      </g>
     </g>
     <g id="text_12">
      <!-- 20000 -->
      <g transform="translate(33.1875 77.476895)scale(0.1 -0.1)">
       <use xlink:href="#DejaVuSans-32"/>
       <use x="63.623047" xlink:href="#DejaVuSans-30"/>
       <use x="127.246094" xlink:href="#DejaVuSans-30"/>
       <use x="190.869141" xlink:href="#DejaVuSans-30"/>
       <use x="254.492188" xlink:href="#DejaVuSans-30"/>
      </g>
     </g>
    </g>
    <g id="text_13">
     <!-- Count -->
     <g transform="translate(27.107812 158.128437)rotate(-90)scale(0.1 -0.1)">
      <defs>
       <path d="M 544 1381 
L 544 3500 
L 1119 3500 
L 1119 1403 
Q 1119 906 1312 657 
Q 1506 409 1894 409 
Q 2359 409 2629 706 
Q 2900 1003 2900 1516 
L 2900 3500 
L 3475 3500 
L 3475 0 
L 2900 0 
L 2900 538 
Q 2691 219 2414 64 
Q 2138 -91 1772 -91 
Q 1169 -91 856 284 
Q 544 659 544 1381 
z
M 1991 3584 
L 1991 3584 
z
" id="DejaVuSans-75" transform="scale(0.015625)"/>
       <path d="M 3513 2113 
L 3513 0 
L 2938 0 
L 2938 2094 
Q 2938 2591 2744 2837 
Q 2550 3084 2163 3084 
Q 1697 3084 1428 2787 
Q 1159 2491 1159 1978 
L 1159 0 
L 581 0 
L 581 3500 
L 1159 3500 
L 1159 2956 
Q 1366 3272 1645 3428 
Q 1925 3584 2291 3584 
Q 2894 3584 3203 3211 
Q 3513 2838 3513 2113 
z
" id="DejaVuSans-6e" transform="scale(0.015625)"/>
      </defs>
      <use xlink:href="#DejaVuSans-43"/>
      <use x="69.824219" xlink:href="#DejaVuSans-6f"/>
      <use x="131.005859" xlink:href="#DejaVuSans-75"/>
      <use x="194.384766" xlink:href="#DejaVuSans-6e"/>
      <use x="257.763672" xlink:href="#DejaVuSans-74"/>
     </g>
    </g>
   </g>
   <g id="patch_111">
    <path d="M 72 252 
L 72 34.56 
" style="fill:none;stroke:#000000;stroke-linecap:square;stroke-linejoin:miter;stroke-width:0.8;"/>
   </g>
   <g id="patch_112">
    <path d="M 518.4 252 
L 518.4 34.56 
" style="fill:none;stroke:#000000;stroke-linecap:square;stroke-linejoin:miter;stroke-width:0.8;"/>
   </g>
   <g id="patch_113">
    <path d="M 72 252 
L 518.4 252 
" style="fill:none;stroke:#000000;stroke-linecap:square;stroke-linejoin:miter;stroke-width:0.8;"/>
   </g>
   <g id="patch_114">
    <path d="M 72 34.56 
L 518.4 34.56 
" style="fill:none;stroke:#000000;stroke-linecap:square;stroke-linejoin:miter;stroke-width:0.8;"/>
   </g>
  </g>
  <g id="text_14">
   <!-- Probability distribution -->
   <g transform="translate(197.5825 17.9175)scale(0.16 -0.16)">
    <defs>
     <path d="M 1259 4147 
L 1259 2394 
L 2053 2394 
Q 2494 2394 2734 2622 
Q 2975 2850 2975 3272 
Q 2975 3691 2734 3919 
Q 2494 4147 2053 4147 
L 1259 4147 
z
M 628 4666 
L 2053 4666 
Q 2838 4666 3239 4311 
Q 3641 3956 3641 3272 
Q 3641 2581 3239 2228 
Q 2838 1875 2053 1875 
L 1259 1875 
L 1259 0 
L 628 0 
L 628 4666 
z
" id="DejaVuSans-50" transform="scale(0.015625)"/>
     <path d="M 2906 2969 
L 2906 4863 
L 3481 4863 
L 3481 0 
L 2906 0 
L 2906 525 
Q 2725 213 2448 61 
Q 2172 -91 1784 -91 
Q 1150 -91 751 415 
Q 353 922 353 1747 
Q 353 2572 751 3078 
Q 1150 3584 1784 3584 
Q 2172 3584 2448 3432 
Q 2725 3281 2906 2969 
z
M 947 1747 
Q 947 1113 1208 752 
Q 1469 391 1925 391 
Q 2381 391 2643 752 
Q 2906 1113 2906 1747 
Q 2906 2381 2643 2742 
Q 2381 3103 1925 3103 
Q 1469 3103 1208 2742 
Q 947 2381 947 1747 
z
" id="DejaVuSans-64" transform="scale(0.015625)"/>
     <path d="M 2834 3397 
L 2834 2853 
Q 2591 2978 2328 3040 
Q 2066 3103 1784 3103 
Q 1356 3103 1142 2972 
Q 928 2841 928 2578 
Q 928 2378 1081 2264 
Q 1234 2150 1697 2047 
L 1894 2003 
Q 2506 1872 2764 1633 
Q 3022 1394 3022 966 
Q 3022 478 2636 193 
Q 2250 -91 1575 -91 
Q 1294 -91 989 -36 
Q 684 19 347 128 
L 347 722 
Q 666 556 975 473 
Q 1284 391 1588 391 
Q 1994 391 2212 530 
Q 2431 669 2431 922 
Q 2431 1156 2273 1281 
Q 2116 1406 1581 1522 
L 1381 1569 
Q 847 1681 609 1914 
Q 372 2147 372 2553 
Q 372 3047 722 3315 
Q 1072 3584 1716 3584 
Q 2034 3584 2315 3537 
Q 2597 3491 2834 3397 
z
" id="DejaVuSans-73" transform="scale(0.015625)"/>
    </defs>
    <use xlink:href="#DejaVuSans-50"/>
    <use x="58.552734" xlink:href="#DejaVuSans-72"/>
    <use x="97.416016" xlink:href="#DejaVuSans-6f"/>
    <use x="158.597656" xlink:href="#DejaVuSans-62"/>
    <use x="222.074219" xlink:href="#DejaVuSans-61"/>
    <use x="283.353516" xlink:href="#DejaVuSans-62"/>
    <use x="346.830078" xlink:href="#DejaVuSans-69"/>
    <use x="374.613281" xlink:href="#DejaVuSans-6c"/>
    <use x="402.396484" xlink:href="#DejaVuSans-69"/>
    <use x="430.179688" xlink:href="#DejaVuSans-74"/>
    <use x="469.388672" xlink:href="#DejaVuSans-79"/>
    <use x="528.568359" xlink:href="#DejaVuSans-20"/>
    <use x="560.355469" xlink:href="#DejaVuSans-64"/>
    <use x="623.832031" xlink:href="#DejaVuSans-69"/>
    <use x="651.615234" xlink:href="#DejaVuSans-73"/>
    <use x="703.714844" xlink:href="#DejaVuSans-74"/>
    <use x="742.923828" xlink:href="#DejaVuSans-72"/>
    <use x="784.037109" xlink:href="#DejaVuSans-69"/>
    <use x="811.820312" xlink:href="#DejaVuSans-62"/>
    <use x="875.296875" xlink:href="#DejaVuSans-75"/>
    <use x="938.675781" xlink:href="#DejaVuSans-74"/>
    <use x="977.884766" xlink:href="#DejaVuSans-69"/>
    <use x="1005.667969" xlink:href="#DejaVuSans-6f"/>
    <use x="1066.849609" xlink:href="#DejaVuSans-6e"/>
   </g>
  </g>
 </g>
 <defs>
  <clipPath id="p4ac8eb9c39">
   <rect height="217.44" width="446.4" x="72" y="34.56"/>
  </clipPath>
 </defs>
</svg>
