<?xml version="1.0" encoding="utf-8" standalone="no"?>
<!DOCTYPE svg PUBLIC "-//W3C//DTD SVG 1.1//EN"
  "http://www.w3.org/Graphics/SVG/1.1/DTD/svg11.dtd">
<svg height="360pt" version="1.1" viewBox="0 0 576 360" width="576pt" xmlns="http://www.w3.org/2000/svg" xmlns:xlink="http://www.w3.org/1999/xlink">
 <metadata>
  <rdf:RDF xmlns:cc="http://creativecommons.org/ns#" xmlns:dc="http://purl.org/dc/elements/1.1/" xmlns:rdf="http://www.w3.org/1999/02/22-rdf-syntax-ns#">
   <cc:Work>
    <dc:type rdf:resource="http://purl.org/dc/dcmitype/StillImage"/>
    <dc:date>2022-01-04T20:32:57.751831</dc:date>
    <dc:format>image/svg+xml</dc:format>
    <dc:creator>
     <cc:Agent>
      <dc:title>Matplotlib v3.4.3, https://matplotlib.org/</dc:title>
     </cc:Agent>
    </dc:creator>
   </cc:Work>
  </rdf:RDF>
 </metadata>
 <defs>
  <style type="text/css">*{stroke-linecap:butt;stroke-linejoin:round;}</style>
 </defs>
 <g id="figure_1">
  <g id="patch_1">
   <path d="M 0 360 
L 576 360 
L 576 0 
L 0 0 
z
" style="fill:none;"/>
  </g>
  <g id="axes_1">
   <g id="patch_2">
    <path d="M 72 315 
L 518.4 315 
L 518.4 43.2 
L 72 43.2 
z
" style="fill:#ffffff;"/>
   </g>
   <g id="matplotlib.axis_1">
    <g id="xtick_1">
     <g id="line2d_1">
      <defs>
       <path d="M 0 0 
L 0 3.5 
" id="m782f69e0d7" style="stroke:#000000;stroke-width:0.8;"/>
      </defs>
      <g>
       <use style="stroke:#000000;stroke-width:0.8;" x="92.290909" xlink:href="#m782f69e0d7" y="315"/>
      </g>
     </g>
     <g id="text_1">
      <!-- 0.0 -->
      <g transform="translate(84.339347 329.598437)scale(0.1 -0.1)">
       <defs>
        <path d="M 2034 4250 
Q 1547 4250 1301 3770 
Q 1056 3291 1056 2328 
Q 1056 1369 1301 889 
Q 1547 409 2034 409 
Q 2525 409 2770 889 
Q 3016 1369 3016 2328 
Q 3016 3291 2770 3770 
Q 2525 4250 2034 4250 
z
M 2034 4750 
Q 2819 4750 3233 4129 
Q 3647 3509 3647 2328 
Q 3647 1150 3233 529 
Q 2819 -91 2034 -91 
Q 1250 -91 836 529 
Q 422 1150 422 2328 
Q 422 3509 836 4129 
Q 1250 4750 2034 4750 
z
" id="DejaVuSans-30" transform="scale(0.015625)"/>
        <path d="M 684 794 
L 1344 794 
L 1344 0 
L 684 0 
L 684 794 
z
" id="DejaVuSans-2e" transform="scale(0.015625)"/>
       </defs>
       <use xlink:href="#DejaVuSans-30"/>
       <use x="63.623047" xlink:href="#DejaVuSans-2e"/>
       <use x="95.410156" xlink:href="#DejaVuSans-30"/>
      </g>
     </g>
    </g>
    <g id="xtick_2">
     <g id="line2d_2">
      <g>
       <use style="stroke:#000000;stroke-width:0.8;" x="173.454545" xlink:href="#m782f69e0d7" y="315"/>
      </g>
     </g>
     <g id="text_2">
      <!-- 0.2 -->
      <g transform="translate(165.502983 329.598437)scale(0.1 -0.1)">
       <defs>
        <path d="M 1228 531 
L 3431 531 
L 3431 0 
L 469 0 
L 469 531 
Q 828 903 1448 1529 
Q 2069 2156 2228 2338 
Q 2531 2678 2651 2914 
Q 2772 3150 2772 3378 
Q 2772 3750 2511 3984 
Q 2250 4219 1831 4219 
Q 1534 4219 1204 4116 
Q 875 4013 500 3803 
L 500 4441 
Q 881 4594 1212 4672 
Q 1544 4750 1819 4750 
Q 2544 4750 2975 4387 
Q 3406 4025 3406 3419 
Q 3406 3131 3298 2873 
Q 3191 2616 2906 2266 
Q 2828 2175 2409 1742 
Q 1991 1309 1228 531 
z
" id="DejaVuSans-32" transform="scale(0.015625)"/>
       </defs>
       <use xlink:href="#DejaVuSans-30"/>
       <use x="63.623047" xlink:href="#DejaVuSans-2e"/>
       <use x="95.410156" xlink:href="#DejaVuSans-32"/>
      </g>
     </g>
    </g>
    <g id="xtick_3">
     <g id="line2d_3">
      <g>
       <use style="stroke:#000000;stroke-width:0.8;" x="254.618182" xlink:href="#m782f69e0d7" y="315"/>
      </g>
     </g>
     <g id="text_3">
      <!-- 0.4 -->
      <g transform="translate(246.666619 329.598437)scale(0.1 -0.1)">
       <defs>
        <path d="M 2419 4116 
L 825 1625 
L 2419 1625 
L 2419 4116 
z
M 2253 4666 
L 3047 4666 
L 3047 1625 
L 3713 1625 
L 3713 1100 
L 3047 1100 
L 3047 0 
L 2419 0 
L 2419 1100 
L 313 1100 
L 313 1709 
L 2253 4666 
z
" id="DejaVuSans-34" transform="scale(0.015625)"/>
       </defs>
       <use xlink:href="#DejaVuSans-30"/>
       <use x="63.623047" xlink:href="#DejaVuSans-2e"/>
       <use x="95.410156" xlink:href="#DejaVuSans-34"/>
      </g>
     </g>
    </g>
    <g id="xtick_4">
     <g id="line2d_4">
      <g>
       <use style="stroke:#000000;stroke-width:0.8;" x="335.781818" xlink:href="#m782f69e0d7" y="315"/>
      </g>
     </g>
     <g id="text_4">
      <!-- 0.6 -->
      <g transform="translate(327.830256 329.598437)scale(0.1 -0.1)">
       <defs>
        <path d="M 2113 2584 
Q 1688 2584 1439 2293 
Q 1191 2003 1191 1497 
Q 1191 994 1439 701 
Q 1688 409 2113 409 
Q 2538 409 2786 701 
Q 3034 994 3034 1497 
Q 3034 2003 2786 2293 
Q 2538 2584 2113 2584 
z
M 3366 4563 
L 3366 3988 
Q 3128 4100 2886 4159 
Q 2644 4219 2406 4219 
Q 1781 4219 1451 3797 
Q 1122 3375 1075 2522 
Q 1259 2794 1537 2939 
Q 1816 3084 2150 3084 
Q 2853 3084 3261 2657 
Q 3669 2231 3669 1497 
Q 3669 778 3244 343 
Q 2819 -91 2113 -91 
Q 1303 -91 875 529 
Q 447 1150 447 2328 
Q 447 3434 972 4092 
Q 1497 4750 2381 4750 
Q 2619 4750 2861 4703 
Q 3103 4656 3366 4563 
z
" id="DejaVuSans-36" transform="scale(0.015625)"/>
       </defs>
       <use xlink:href="#DejaVuSans-30"/>
       <use x="63.623047" xlink:href="#DejaVuSans-2e"/>
       <use x="95.410156" xlink:href="#DejaVuSans-36"/>
      </g>
     </g>
    </g>
    <g id="xtick_5">
     <g id="line2d_5">
      <g>
       <use style="stroke:#000000;stroke-width:0.8;" x="416.945455" xlink:href="#m782f69e0d7" y="315"/>
      </g>
     </g>
     <g id="text_5">
      <!-- 0.8 -->
      <g transform="translate(408.993892 329.598437)scale(0.1 -0.1)">
       <defs>
        <path d="M 2034 2216 
Q 1584 2216 1326 1975 
Q 1069 1734 1069 1313 
Q 1069 891 1326 650 
Q 1584 409 2034 409 
Q 2484 409 2743 651 
Q 3003 894 3003 1313 
Q 3003 1734 2745 1975 
Q 2488 2216 2034 2216 
z
M 1403 2484 
Q 997 2584 770 2862 
Q 544 3141 544 3541 
Q 544 4100 942 4425 
Q 1341 4750 2034 4750 
Q 2731 4750 3128 4425 
Q 3525 4100 3525 3541 
Q 3525 3141 3298 2862 
Q 3072 2584 2669 2484 
Q 3125 2378 3379 2068 
Q 3634 1759 3634 1313 
Q 3634 634 3220 271 
Q 2806 -91 2034 -91 
Q 1263 -91 848 271 
Q 434 634 434 1313 
Q 434 1759 690 2068 
Q 947 2378 1403 2484 
z
M 1172 3481 
Q 1172 3119 1398 2916 
Q 1625 2713 2034 2713 
Q 2441 2713 2670 2916 
Q 2900 3119 2900 3481 
Q 2900 3844 2670 4047 
Q 2441 4250 2034 4250 
Q 1625 4250 1398 4047 
Q 1172 3844 1172 3481 
z
" id="DejaVuSans-38" transform="scale(0.015625)"/>
       </defs>
       <use xlink:href="#DejaVuSans-30"/>
       <use x="63.623047" xlink:href="#DejaVuSans-2e"/>
       <use x="95.410156" xlink:href="#DejaVuSans-38"/>
      </g>
     </g>
    </g>
    <g id="xtick_6">
     <g id="line2d_6">
      <g>
       <use style="stroke:#000000;stroke-width:0.8;" x="498.109091" xlink:href="#m782f69e0d7" y="315"/>
      </g>
     </g>
     <g id="text_6">
      <!-- 1.0 -->
      <g transform="translate(490.157528 329.598437)scale(0.1 -0.1)">
       <defs>
        <path d="M 794 531 
L 1825 531 
L 1825 4091 
L 703 3866 
L 703 4441 
L 1819 4666 
L 2450 4666 
L 2450 531 
L 3481 531 
L 3481 0 
L 794 0 
L 794 531 
z
" id="DejaVuSans-31" transform="scale(0.015625)"/>
       </defs>
       <use xlink:href="#DejaVuSans-31"/>
       <use x="63.623047" xlink:href="#DejaVuSans-2e"/>
       <use x="95.410156" xlink:href="#DejaVuSans-30"/>
      </g>
     </g>
    </g>
    <g id="text_7">
     <!-- False positive rate -->
     <g transform="translate(249.699219 343.276563)scale(0.1 -0.1)">
      <defs>
       <path d="M 628 4666 
L 3309 4666 
L 3309 4134 
L 1259 4134 
L 1259 2759 
L 3109 2759 
L 3109 2228 
L 1259 2228 
L 1259 0 
L 628 0 
L 628 4666 
z
" id="DejaVuSans-46" transform="scale(0.015625)"/>
       <path d="M 2194 1759 
Q 1497 1759 1228 1600 
Q 959 1441 959 1056 
Q 959 750 1161 570 
Q 1363 391 1709 391 
Q 2188 391 2477 730 
Q 2766 1069 2766 1631 
L 2766 1759 
L 2194 1759 
z
M 3341 1997 
L 3341 0 
L 2766 0 
L 2766 531 
Q 2569 213 2275 61 
Q 1981 -91 1556 -91 
Q 1019 -91 701 211 
Q 384 513 384 1019 
Q 384 1609 779 1909 
Q 1175 2209 1959 2209 
L 2766 2209 
L 2766 2266 
Q 2766 2663 2505 2880 
Q 2244 3097 1772 3097 
Q 1472 3097 1187 3025 
Q 903 2953 641 2809 
L 641 3341 
Q 956 3463 1253 3523 
Q 1550 3584 1831 3584 
Q 2591 3584 2966 3190 
Q 3341 2797 3341 1997 
z
" id="DejaVuSans-61" transform="scale(0.015625)"/>
       <path d="M 603 4863 
L 1178 4863 
L 1178 0 
L 603 0 
L 603 4863 
z
" id="DejaVuSans-6c" transform="scale(0.015625)"/>
       <path d="M 2834 3397 
L 2834 2853 
Q 2591 2978 2328 3040 
Q 2066 3103 1784 3103 
Q 1356 3103 1142 2972 
Q 928 2841 928 2578 
Q 928 2378 1081 2264 
Q 1234 2150 1697 2047 
L 1894 2003 
Q 2506 1872 2764 1633 
Q 3022 1394 3022 966 
Q 3022 478 2636 193 
Q 2250 -91 1575 -91 
Q 1294 -91 989 -36 
Q 684 19 347 128 
L 347 722 
Q 666 556 975 473 
Q 1284 391 1588 391 
Q 1994 391 2212 530 
Q 2431 669 2431 922 
Q 2431 1156 2273 1281 
Q 2116 1406 1581 1522 
L 1381 1569 
Q 847 1681 609 1914 
Q 372 2147 372 2553 
Q 372 3047 722 3315 
Q 1072 3584 1716 3584 
Q 2034 3584 2315 3537 
Q 2597 3491 2834 3397 
z
" id="DejaVuSans-73" transform="scale(0.015625)"/>
       <path d="M 3597 1894 
L 3597 1613 
L 953 1613 
Q 991 1019 1311 708 
Q 1631 397 2203 397 
Q 2534 397 2845 478 
Q 3156 559 3463 722 
L 3463 178 
Q 3153 47 2828 -22 
Q 2503 -91 2169 -91 
Q 1331 -91 842 396 
Q 353 884 353 1716 
Q 353 2575 817 3079 
Q 1281 3584 2069 3584 
Q 2775 3584 3186 3129 
Q 3597 2675 3597 1894 
z
M 3022 2063 
Q 3016 2534 2758 2815 
Q 2500 3097 2075 3097 
Q 1594 3097 1305 2825 
Q 1016 2553 972 2059 
L 3022 2063 
z
" id="DejaVuSans-65" transform="scale(0.015625)"/>
       <path id="DejaVuSans-20" transform="scale(0.015625)"/>
       <path d="M 1159 525 
L 1159 -1331 
L 581 -1331 
L 581 3500 
L 1159 3500 
L 1159 2969 
Q 1341 3281 1617 3432 
Q 1894 3584 2278 3584 
Q 2916 3584 3314 3078 
Q 3713 2572 3713 1747 
Q 3713 922 3314 415 
Q 2916 -91 2278 -91 
Q 1894 -91 1617 61 
Q 1341 213 1159 525 
z
M 3116 1747 
Q 3116 2381 2855 2742 
Q 2594 3103 2138 3103 
Q 1681 3103 1420 2742 
Q 1159 2381 1159 1747 
Q 1159 1113 1420 752 
Q 1681 391 2138 391 
Q 2594 391 2855 752 
Q 3116 1113 3116 1747 
z
" id="DejaVuSans-70" transform="scale(0.015625)"/>
       <path d="M 1959 3097 
Q 1497 3097 1228 2736 
Q 959 2375 959 1747 
Q 959 1119 1226 758 
Q 1494 397 1959 397 
Q 2419 397 2687 759 
Q 2956 1122 2956 1747 
Q 2956 2369 2687 2733 
Q 2419 3097 1959 3097 
z
M 1959 3584 
Q 2709 3584 3137 3096 
Q 3566 2609 3566 1747 
Q 3566 888 3137 398 
Q 2709 -91 1959 -91 
Q 1206 -91 779 398 
Q 353 888 353 1747 
Q 353 2609 779 3096 
Q 1206 3584 1959 3584 
z
" id="DejaVuSans-6f" transform="scale(0.015625)"/>
       <path d="M 603 3500 
L 1178 3500 
L 1178 0 
L 603 0 
L 603 3500 
z
M 603 4863 
L 1178 4863 
L 1178 4134 
L 603 4134 
L 603 4863 
z
" id="DejaVuSans-69" transform="scale(0.015625)"/>
       <path d="M 1172 4494 
L 1172 3500 
L 2356 3500 
L 2356 3053 
L 1172 3053 
L 1172 1153 
Q 1172 725 1289 603 
Q 1406 481 1766 481 
L 2356 481 
L 2356 0 
L 1766 0 
Q 1100 0 847 248 
Q 594 497 594 1153 
L 594 3053 
L 172 3053 
L 172 3500 
L 594 3500 
L 594 4494 
L 1172 4494 
z
" id="DejaVuSans-74" transform="scale(0.015625)"/>
       <path d="M 191 3500 
L 800 3500 
L 1894 563 
L 2988 3500 
L 3597 3500 
L 2284 0 
L 1503 0 
L 191 3500 
z
" id="DejaVuSans-76" transform="scale(0.015625)"/>
       <path d="M 2631 2963 
Q 2534 3019 2420 3045 
Q 2306 3072 2169 3072 
Q 1681 3072 1420 2755 
Q 1159 2438 1159 1844 
L 1159 0 
L 581 0 
L 581 3500 
L 1159 3500 
L 1159 2956 
Q 1341 3275 1631 3429 
Q 1922 3584 2338 3584 
Q 2397 3584 2469 3576 
Q 2541 3569 2628 3553 
L 2631 2963 
z
" id="DejaVuSans-72" transform="scale(0.015625)"/>
      </defs>
      <use xlink:href="#DejaVuSans-46"/>
      <use x="48.394531" xlink:href="#DejaVuSans-61"/>
      <use x="109.673828" xlink:href="#DejaVuSans-6c"/>
      <use x="137.457031" xlink:href="#DejaVuSans-73"/>
      <use x="189.556641" xlink:href="#DejaVuSans-65"/>
      <use x="251.080078" xlink:href="#DejaVuSans-20"/>
      <use x="282.867188" xlink:href="#DejaVuSans-70"/>
      <use x="346.34375" xlink:href="#DejaVuSans-6f"/>
      <use x="407.525391" xlink:href="#DejaVuSans-73"/>
      <use x="459.625" xlink:href="#DejaVuSans-69"/>
      <use x="487.408203" xlink:href="#DejaVuSans-74"/>
      <use x="526.617188" xlink:href="#DejaVuSans-69"/>
      <use x="554.400391" xlink:href="#DejaVuSans-76"/>
      <use x="613.580078" xlink:href="#DejaVuSans-65"/>
      <use x="675.103516" xlink:href="#DejaVuSans-20"/>
      <use x="706.890625" xlink:href="#DejaVuSans-72"/>
      <use x="748.003906" xlink:href="#DejaVuSans-61"/>
      <use x="809.283203" xlink:href="#DejaVuSans-74"/>
      <use x="848.492188" xlink:href="#DejaVuSans-65"/>
     </g>
    </g>
   </g>
   <g id="matplotlib.axis_2">
    <g id="ytick_1">
     <g id="line2d_7">
      <defs>
       <path d="M 0 0 
L -3.5 0 
" id="m4520751b53" style="stroke:#000000;stroke-width:0.8;"/>
      </defs>
      <g>
       <use style="stroke:#000000;stroke-width:0.8;" x="72" xlink:href="#m4520751b53" y="302.645455"/>
      </g>
     </g>
     <g id="text_8">
      <!-- 0.0 -->
      <g transform="translate(49.096875 306.444673)scale(0.1 -0.1)">
       <use xlink:href="#DejaVuSans-30"/>
       <use x="63.623047" xlink:href="#DejaVuSans-2e"/>
       <use x="95.410156" xlink:href="#DejaVuSans-30"/>
      </g>
     </g>
    </g>
    <g id="ytick_2">
     <g id="line2d_8">
      <g>
       <use style="stroke:#000000;stroke-width:0.8;" x="72" xlink:href="#m4520751b53" y="253.227273"/>
      </g>
     </g>
     <g id="text_9">
      <!-- 0.2 -->
      <g transform="translate(49.096875 257.026491)scale(0.1 -0.1)">
       <use xlink:href="#DejaVuSans-30"/>
       <use x="63.623047" xlink:href="#DejaVuSans-2e"/>
       <use x="95.410156" xlink:href="#DejaVuSans-32"/>
      </g>
     </g>
    </g>
    <g id="ytick_3">
     <g id="line2d_9">
      <g>
       <use style="stroke:#000000;stroke-width:0.8;" x="72" xlink:href="#m4520751b53" y="203.809091"/>
      </g>
     </g>
     <g id="text_10">
      <!-- 0.4 -->
      <g transform="translate(49.096875 207.60831)scale(0.1 -0.1)">
       <use xlink:href="#DejaVuSans-30"/>
       <use x="63.623047" xlink:href="#DejaVuSans-2e"/>
       <use x="95.410156" xlink:href="#DejaVuSans-34"/>
      </g>
     </g>
    </g>
    <g id="ytick_4">
     <g id="line2d_10">
      <g>
       <use style="stroke:#000000;stroke-width:0.8;" x="72" xlink:href="#m4520751b53" y="154.390909"/>
      </g>
     </g>
     <g id="text_11">
      <!-- 0.6 -->
      <g transform="translate(49.096875 158.190128)scale(0.1 -0.1)">
       <use xlink:href="#DejaVuSans-30"/>
       <use x="63.623047" xlink:href="#DejaVuSans-2e"/>
       <use x="95.410156" xlink:href="#DejaVuSans-36"/>
      </g>
     </g>
    </g>
    <g id="ytick_5">
     <g id="line2d_11">
      <g>
       <use style="stroke:#000000;stroke-width:0.8;" x="72" xlink:href="#m4520751b53" y="104.972727"/>
      </g>
     </g>
     <g id="text_12">
      <!-- 0.8 -->
      <g transform="translate(49.096875 108.771946)scale(0.1 -0.1)">
       <use xlink:href="#DejaVuSans-30"/>
       <use x="63.623047" xlink:href="#DejaVuSans-2e"/>
       <use x="95.410156" xlink:href="#DejaVuSans-38"/>
      </g>
     </g>
    </g>
    <g id="ytick_6">
     <g id="line2d_12">
      <g>
       <use style="stroke:#000000;stroke-width:0.8;" x="72" xlink:href="#m4520751b53" y="55.554545"/>
      </g>
     </g>
     <g id="text_13">
      <!-- 1.0 -->
      <g transform="translate(49.096875 59.353764)scale(0.1 -0.1)">
       <use xlink:href="#DejaVuSans-31"/>
       <use x="63.623047" xlink:href="#DejaVuSans-2e"/>
       <use x="95.410156" xlink:href="#DejaVuSans-30"/>
      </g>
     </g>
    </g>
    <g id="text_14">
     <!-- True positive rate -->
     <g transform="translate(43.017187 222.664062)rotate(-90)scale(0.1 -0.1)">
      <defs>
       <path d="M -19 4666 
L 3928 4666 
L 3928 4134 
L 2272 4134 
L 2272 0 
L 1638 0 
L 1638 4134 
L -19 4134 
L -19 4666 
z
" id="DejaVuSans-54" transform="scale(0.015625)"/>
       <path d="M 544 1381 
L 544 3500 
L 1119 3500 
L 1119 1403 
Q 1119 906 1312 657 
Q 1506 409 1894 409 
Q 2359 409 2629 706 
Q 2900 1003 2900 1516 
L 2900 3500 
L 3475 3500 
L 3475 0 
L 2900 0 
L 2900 538 
Q 2691 219 2414 64 
Q 2138 -91 1772 -91 
Q 1169 -91 856 284 
Q 544 659 544 1381 
z
M 1991 3584 
L 1991 3584 
z
" id="DejaVuSans-75" transform="scale(0.015625)"/>
      </defs>
      <use xlink:href="#DejaVuSans-54"/>
      <use x="46.333984" xlink:href="#DejaVuSans-72"/>
      <use x="87.447266" xlink:href="#DejaVuSans-75"/>
      <use x="150.826172" xlink:href="#DejaVuSans-65"/>
      <use x="212.349609" xlink:href="#DejaVuSans-20"/>
      <use x="244.136719" xlink:href="#DejaVuSans-70"/>
      <use x="307.613281" xlink:href="#DejaVuSans-6f"/>
      <use x="368.794922" xlink:href="#DejaVuSans-73"/>
      <use x="420.894531" xlink:href="#DejaVuSans-69"/>
      <use x="448.677734" xlink:href="#DejaVuSans-74"/>
      <use x="487.886719" xlink:href="#DejaVuSans-69"/>
      <use x="515.669922" xlink:href="#DejaVuSans-76"/>
      <use x="574.849609" xlink:href="#DejaVuSans-65"/>
      <use x="636.373047" xlink:href="#DejaVuSans-20"/>
      <use x="668.160156" xlink:href="#DejaVuSans-72"/>
      <use x="709.273438" xlink:href="#DejaVuSans-61"/>
      <use x="770.552734" xlink:href="#DejaVuSans-74"/>
      <use x="809.761719" xlink:href="#DejaVuSans-65"/>
     </g>
    </g>
   </g>
   <g id="line2d_13">
    <path clip-path="url(#p4116f2f78a)" d="M 92.290909 302.645455 
L 92.420313 301.631124 
L 92.465985 301.631124 
L 93.014048 299.399597 
L 93.044496 299.399597 
L 93.185318 298.588133 
L 93.63062 297.573802 
L 93.702934 297.573802 
L 93.965548 297.16807 
L 94.045473 297.16807 
L 94.201519 296.356605 
L 94.277639 296.356605 
L 94.395625 295.748007 
L 94.486969 295.748007 
L 94.825703 293.922212 
L 94.890405 293.922212 
L 95.506976 292.096417 
L 95.594514 292.096417 
L 95.605932 291.893551 
L 96.066458 290.879221 
L 96.256757 290.879221 
L 96.405191 290.270622 
L 96.683029 289.053426 
L 96.698253 289.053426 
L 96.820045 288.647694 
L 96.926613 288.647694 
L 97.116913 288.039095 
L 97.231093 288.039095 
L 97.364302 287.633363 
L 97.463258 287.633363 
L 97.474676 287.227631 
L 97.554602 287.227631 
L 97.821022 287.227631 
L 97.8705 287.024765 
L 98.007516 287.024765 
L 98.574609 285.401836 
L 98.692595 285.401836 
L 98.924761 284.387506 
L 99.255883 283.981773 
L 99.438571 283.170309 
L 99.453794 283.170309 
L 99.59081 282.155979 
L 99.720214 282.155979 
L 99.868648 281.344514 
L 99.959992 281.344514 
L 100.135068 280.127318 
L 100.211188 280.127318 
L 100.4091 279.721585 
L 100.633653 278.504389 
L 100.736415 278.504389 
L 101.139851 276.678594 
L 101.280673 276.678594 
L 101.942916 274.852799 
L 101.97717 274.852799 
L 102.235978 274.041335 
L 102.460532 273.432736 
L 102.60516 273.22987 
L 102.787847 272.621272 
L 102.803071 272.621272 
L 103.157029 272.21554 
L 103.217925 272.21554 
L 103.275015 271.809807 
L 103.514793 271.201209 
L 103.648003 270.592611 
L 103.678451 270.592611 
L 103.807854 269.781146 
L 104.161812 269.781146 
L 104.393978 269.57828 
L 104.584278 269.57828 
L 104.736518 268.969682 
L 104.827862 268.969682 
L 105.021967 268.56395 
L 105.200849 268.56395 
L 105.710853 267.752485 
L 106.114288 267.752485 
L 106.669964 267.346753 
L 106.704218 267.346753 
L 106.867876 266.941021 
L 106.913548 266.941021 
L 106.928772 266.738155 
L 107.218027 266.332423 
L 107.773703 264.91236 
L 107.899301 264.91236 
L 107.937361 264.506628 
L 108.120048 264.506628 
L 108.253258 264.100896 
L 108.29893 264.100896 
L 108.64147 263.695163 
L 108.976398 263.695163 
L 109.273265 263.086565 
L 109.326549 263.086565 
L 109.353191 262.883699 
L 109.585357 262.883699 
L 109.707149 262.477967 
L 109.939315 262.072235 
L 110.064913 262.072235 
L 110.122003 261.869369 
L 110.281855 261.666502 
L 110.498796 261.666502 
L 110.902232 260.652172 
L 111.1991 260.652172 
L 111.347534 260.043574 
L 112.508362 258.826377 
L 112.751946 258.826377 
L 112.88135 258.014913 
L 113.162994 257.000582 
L 113.459862 257.000582 
L 113.566429 256.391984 
L 113.596877 256.391984 
L 113.608295 256.189118 
L 113.886133 255.986252 
L 114.023149 255.986252 
L 114.369495 255.580519 
L 114.742482 254.160457 
L 114.77293 254.160457 
L 114.871886 253.551858 
L 114.96323 253.551858 
L 115.492264 252.131796 
L 115.602638 252.131796 
L 115.690176 251.92893 
L 116.063163 251.92893 
L 116.367643 251.523197 
L 116.504659 251.523197 
L 116.729213 251.320331 
L 117.147872 251.320331 
L 117.296306 251.117465 
L 117.410486 250.508867 
L 117.509442 250.508867 
L 117.551308 250.306001 
L 117.931907 249.697403 
L 118.072729 249.29167 
L 118.221163 249.29167 
L 118.464747 248.480206 
L 118.578927 248.480206 
L 118.879601 248.074474 
L 119.176468 248.074474 
L 119.37438 247.465876 
L 119.694084 247.060143 
L 119.827294 246.857277 
L 120.306849 245.842947 
L 120.440059 245.437215 
L 120.676031 245.437215 
L 120.740733 245.234348 
L 121.071855 244.62575 
L 121.147974 244.62575 
L 121.368722 244.220018 
L 121.49432 243.814286 
L 121.555216 243.814286 
L 121.791188 243.61142 
L 121.966264 243.61142 
L 122.091862 243.205687 
L 122.107086 243.205687 
L 122.620895 241.379893 
L 122.689403 241.379893 
L 122.807389 241.177026 
L 122.830225 241.177026 
L 122.856867 240.97416 
L 123.142317 240.97416 
L 123.602842 240.162696 
L 123.618066 240.162696 
L 124.074786 239.351232 
L 124.192772 239.351232 
L 124.325982 238.945499 
L 124.569565 238.742633 
L 124.672327 238.539767 
L 125.269869 237.322571 
L 125.319347 237.322571 
L 125.612408 236.916838 
L 125.627632 236.916838 
L 125.897858 236.30824 
L 126.015844 236.30824 
L 126.072934 236.105374 
L 126.841745 234.279579 
L 127.131001 234.279579 
L 127.275629 233.670981 
L 127.309883 233.670981 
L 127.576303 233.468115 
L 127.625781 233.468115 
L 127.861752 233.062382 
L 127.907424 233.062382 
L 128.227128 232.859516 
L 128.246158 232.859516 
L 128.421234 232.65665 
L 128.50116 232.65665 
L 129.372733 232.048052 
L 129.494525 231.845186 
L 129.498331 231.845186 
L 129.726691 231.64232 
L 129.871318 231.033721 
L 130.419382 229.816525 
L 130.44983 229.816525 
L 130.586846 229.00506 
L 130.628712 229.00506 
L 130.971251 228.599328 
L 131.081625 227.99073 
L 131.393717 227.584998 
L 131.629689 227.382132 
L 131.816183 227.382132 
L 132.040736 226.570667 
L 132.086408 226.570667 
L 132.444172 226.164935 
L 132.771488 225.150605 
L 132.85522 224.947738 
L 133.506045 224.136274 
L 133.772465 224.136274 
L 134.111199 223.527676 
L 134.210154 223.32481 
L 134.495604 223.121944 
L 134.526052 223.121944 
L 134.567918 222.919077 
L 134.845756 222.716211 
L 134.891428 222.716211 
L 135.01322 222.513345 
L 135.527029 221.701881 
L 135.606955 221.701881 
L 136.223527 221.296149 
L 136.413826 220.890416 
L 136.42905 220.890416 
L 136.775396 220.078952 
L 136.79062 220.078952 
L 136.984726 219.67322 
L 137.338684 219.470354 
L 137.475699 219.267488 
L 137.905777 219.267488 
L 138.031375 218.861755 
L 138.202645 218.456023 
L 138.518542 218.456023 
L 138.518542 218.253157 
L 138.609886 218.253157 
L 138.686006 218.253157 
L 138.944814 218.050291 
L 139.08183 217.441693 
L 139.097054 217.441693 
L 139.13892 217.238827 
L 139.355862 217.238827 
L 139.492878 216.833094 
L 139.797357 216.224496 
L 139.900119 216.224496 
L 139.907731 215.818764 
L 140.200793 215.413032 
L 140.337809 215.413032 
L 140.379675 215.210166 
L 140.752662 214.804433 
L 140.82117 214.601567 
L 141.574758 213.992969 
L 141.609012 213.992969 
L 141.650878 213.790103 
L 141.985805 213.384371 
L 142.286479 213.384371 
L 142.602377 212.775773 
L 142.982976 211.964308 
L 143.196112 211.152844 
L 143.234172 211.152844 
L 143.534846 210.747112 
L 143.694698 210.747112 
L 143.72134 210.544245 
L 143.976341 210.341379 
L 144.136193 209.935647 
L 144.231343 209.935647 
L 144.581495 209.124183 
L 144.630973 208.921317 
L 144.882169 208.515584 
L 145.019184 208.515584 
L 145.125752 208.312718 
L 145.342694 208.109852 
L 145.426426 207.70412 
L 145.578666 207.501254 
L 146.020162 206.892656 
L 146.046804 206.486923 
L 146.979273 205.675459 
L 147.089647 205.472593 
L 147.512112 205.472593 
L 147.858458 205.269727 
L 148.063982 204.661129 
L 148.086818 204.661129 
L 148.330401 204.255396 
L 148.585403 204.255396 
L 148.935555 203.849664 
L 148.966003 203.849664 
L 149.251453 203.443932 
L 149.601604 203.0382 
L 149.81474 202.023869 
L 149.92892 202.023869 
L 150.29049 201.415271 
L 150.416087 201.415271 
L 150.572133 200.603807 
L 150.815717 200.603807 
L 150.884225 200.40094 
L 151.146839 200.40094 
L 151.280049 199.995208 
L 151.626394 199.995208 
L 151.854754 199.38661 
L 151.987964 199.38661 
L 152.098338 199.183744 
L 152.117368 199.183744 
L 152.269608 198.980878 
L 152.577894 198.980878 
L 152.699685 198.778012 
L 152.867149 198.778012 
L 153.068867 198.575146 
L 153.141181 198.169413 
L 153.361929 197.966547 
L 153.761558 197.966547 
L 153.989918 197.560815 
L 154.309622 197.560815 
L 154.41619 197.357949 
L 155.059403 196.952217 
L 155.329629 196.952217 
L 155.447615 196.749351 
L 155.512317 196.749351 
L 155.873886 195.937886 
L 155.991872 195.937886 
L 156.258292 195.73502 
L 156.380084 195.532154 
L 156.463816 195.532154 
L 156.558966 195.329288 
L 156.871058 194.72069 
L 157.023297 194.72069 
L 157.049939 194.517824 
L 157.662705 194.112091 
L 157.898677 194.112091 
L 158.00905 193.909225 
L 158.363008 193.909225 
L 158.480994 193.503493 
L 158.667488 193.503493 
L 158.678906 193.300627 
L 159.451523 192.692029 
L 159.558091 192.489163 
L 159.626599 192.489163 
L 159.645629 192.286296 
L 159.980557 192.286296 
L 160.148021 192.08343 
L 160.593322 192.08343 
L 161.053848 191.474832 
L 161.168028 191.474832 
L 161.350715 191.0691 
L 161.803629 191.0691 
L 161.906391 190.866234 
L 162.465872 190.866234 
L 162.81983 190.663368 
L 162.884532 190.663368 
L 162.9911 190.460502 
L 163.31461 190.054769 
L 163.345058 190.054769 
L 163.516327 189.446171 
L 163.870285 189.040439 
L 163.923569 189.040439 
L 163.969241 188.837573 
L 164.064391 188.837573 
L 164.163347 188.431841 
L 164.502081 188.431841 
L 164.639096 188.026108 
L 164.772306 188.026108 
L 165.183354 187.41751 
L 165.327982 187.41751 
L 165.373654 187.011778 
L 165.632461 187.011778 
L 165.704775 186.606046 
L 165.849403 185.388849 
L 166.226197 185.388849 
L 166.370825 184.983117 
L 166.416497 184.983117 
L 166.492617 184.780251 
L 166.819932 184.171652 
L 167.017844 184.171652 
L 167.109188 183.76592 
L 167.265234 183.563054 
L 167.356578 183.157322 
L 167.505012 183.157322 
L 167.615386 182.954456 
L 167.954119 182.954456 
L 168.060687 182.75159 
L 168.346137 182.75159 
L 168.536437 182.548724 
L 168.627781 182.345858 
L 168.787633 182.345858 
L 169.133978 181.534393 
L 169.31286 181.128661 
L 169.343308 181.128661 
L 169.366144 180.722929 
L 169.613534 180.317197 
L 169.628758 180.317197 
L 169.834282 179.911464 
L 170.188239 179.505732 
L 170.310031 179.505732 
L 170.408987 179.302866 
L 170.831453 178.491402 
L 170.995111 178.491402 
L 171.0522 178.288536 
L 171.398546 177.477071 
L 171.619294 177.477071 
L 171.821012 177.274205 
L 171.935192 177.071339 
L 172.04176 177.071339 
L 172.475643 176.057009 
L 172.490867 176.057009 
L 172.970423 175.44841 
L 173.331992 175.44841 
L 173.45759 175.042678 
L 173.55274 174.839812 
L 173.651696 174.43408 
L 174.234014 173.216883 
L 174.374835 172.608285 
L 174.405283 172.608285 
L 174.823943 172.405419 
L 174.922899 172.405419 
L 175.413872 171.593954 
L 175.638426 171.593954 
L 175.680292 171.391088 
L 176.007608 170.985356 
L 176.03425 170.579624 
L 176.791643 169.565293 
L 176.924853 169.565293 
L 177.533812 169.159561 
L 177.785008 169.159561 
L 177.902994 168.753829 
L 178.07807 168.550963 
L 178.470088 168.550963 
L 178.957255 167.536632 
L 179.421587 167.536632 
L 179.512931 167.333766 
L 179.680395 167.333766 
L 179.847858 167.1309 
L 180.167562 167.1309 
L 180.300772 166.725168 
L 180.567192 166.725168 
L 180.913537 166.522302 
L 181.259883 166.522302 
L 181.533915 166.319436 
L 181.644289 166.319436 
L 181.762275 165.913704 
L 181.785111 165.913704 
L 182.249442 165.305105 
L 182.310338 165.305105 
L 182.390264 165.102239 
L 182.858402 165.102239 
L 183.014447 164.696507 
L 183.490197 164.493641 
L 183.528257 164.493641 
L 184.620578 163.682176 
L 184.784236 163.47931 
L 184.860356 163.47931 
L 185.739541 162.870712 
L 186.63395 162.870712 
L 187.006938 162.262114 
L 187.121118 162.262114 
L 187.189626 162.059248 
L 187.585449 162.059248 
L 188.160155 161.044917 
L 188.60165 161.044917 
L 188.71583 160.842051 
L 188.814786 160.842051 
L 189.09643 160.030587 
L 189.41994 160.030587 
L 189.431358 159.827721 
L 189.732031 159.827721 
L 189.880465 159.421988 
L 190.055541 159.421988 
L 190.146885 159.219122 
L 190.428529 159.219122 
L 190.478007 159.016256 
L 191.018458 159.016256 
L 191.136444 158.81339 
L 191.193534 158.81339 
L 191.288684 158.610524 
L 191.825329 158.001926 
L 192.103167 158.001926 
L 192.224959 157.79906 
L 192.384811 157.596193 
L 192.495185 157.393327 
L 192.780634 157.393327 
L 192.868172 157.190461 
L 193.210712 157.190461 
L 193.553252 156.987595 
L 193.610342 156.784729 
L 193.865343 156.784729 
L 194.063255 156.581863 
L 194.257361 155.973265 
L 194.695051 155.973265 
L 194.801619 155.770399 
L 194.862515 155.770399 
L 194.976694 155.567532 
L 195.22789 155.567532 
L 195.288786 155.364666 
L 195.528564 154.958934 
L 195.935806 154.958934 
L 196.129911 154.553202 
L 196.666557 154.553202 
L 196.685587 154.350336 
L 197.058574 153.944604 
L 197.104246 153.944604 
L 197.161336 153.538871 
L 197.496264 152.930273 
L 197.57619 152.930273 
L 197.678952 152.524541 
L 197.892088 152.321675 
L 198.044328 151.51021 
L 198.078582 151.51021 
L 198.086194 151.307344 
L 198.246045 151.104478 
L 198.630451 151.104478 
L 198.756049 150.698746 
L 198.915901 150.698746 
L 199.44874 150.49588 
L 199.79128 150.49588 
L 199.958744 150.090148 
L 200.015834 150.090148 
L 200.069118 149.684416 
L 200.118596 149.684416 
L 200.461135 149.684416 
L 200.624793 149.278683 
L 201.077707 149.278683 
L 201.306067 149.075817 
L 201.850324 149.075817 
L 201.972116 148.872951 
L 202.406 148.467219 
L 202.550627 148.061487 
L 202.581075 148.061487 
L 202.832271 147.858621 
L 202.904585 147.452888 
L 203.159587 147.452888 
L 203.464067 146.84429 
L 203.498321 146.84429 
L 203.684814 146.438558 
L 203.68862 146.438558 
L 204.080638 146.235692 
L 204.111086 146.235692 
L 204.229072 145.82996 
L 204.796165 145.424227 
L 205.443185 145.424227 
L 205.477439 145.221361 
L 205.800948 144.815629 
L 206.120652 144.815629 
L 206.166324 144.612763 
L 206.326176 144.612763 
L 206.466998 144.207031 
L 208.990373 144.207031 
L 209.070299 144.004165 
L 209.275823 144.004165 
L 209.302465 143.598433 
L 209.370973 143.598433 
L 209.953291 143.598433 
L 210.044635 143.395567 
L 210.177844 143.395567 
L 210.444264 143.1927 
L 211.334867 143.1927 
L 211.452853 142.989834 
L 211.776363 142.989834 
L 211.806811 142.786968 
L 212.080843 142.381236 
L 212.134127 142.17837 
L 212.446218 142.17837 
L 213.036148 141.772638 
L 213.976229 141.164039 
L 214.018095 141.164039 
L 214.162723 140.352575 
L 214.345411 139.946843 
L 214.42153 139.743977 
L 214.653696 139.541111 
L 214.741234 139.135378 
L 215.076162 139.135378 
L 215.194148 138.729646 
L 215.365418 138.729646 
L 215.650867 138.52678 
L 215.909675 138.52678 
L 216.035273 138.323914 
L 216.050497 138.323914 
L 216.385425 138.121048 
L 216.59856 138.121048 
L 216.876398 137.918182 
L 217.078116 137.918182 
L 217.413044 137.309584 
L 217.489164 137.309584 
L 217.774613 136.700985 
L 218.185661 136.498119 
L 218.992532 136.498119 
L 219.34649 136.092387 
L 219.453058 136.092387 
L 219.513954 135.889521 
L 219.944031 135.280923 
L 219.985897 135.078056 
L 220.290377 135.078056 
L 220.427393 134.87519 
L 220.530155 134.672324 
L 220.922172 134.266592 
L 221.10486 134.266592 
L 221.188592 133.657994 
L 221.649118 133.657994 
L 221.862254 133.455128 
L 222.299943 133.455128 
L 222.391287 133.252262 
L 222.802335 133.252262 
L 223.327562 132.440797 
L 223.723386 132.440797 
L 224.534063 131.020734 
L 224.773841 131.020734 
L 224.785259 130.817868 
L 225.337128 130.817868 
L 225.778624 130.615002 
L 226.18206 130.615002 
L 226.726317 130.20927 
L 227.057439 130.20927 
L 227.152589 130.006404 
L 227.327665 130.006404 
L 227.373337 129.803538 
L 227.52177 129.803538 
L 227.59789 129.600672 
L 228.069834 129.397806 
L 228.153566 129.397806 
L 228.210656 129.19494 
L 228.709241 128.789207 
L 228.800585 128.586341 
L 228.918571 128.180609 
L 229.329619 127.774877 
L 229.379097 127.774877 
L 229.470441 127.572011 
L 229.538949 127.572011 
L 230.033728 127.166279 
L 230.106042 127.166279 
L 230.204998 126.963412 
L 230.235446 126.963412 
L 230.695971 126.760546 
L 230.996645 126.760546 
L 231.350603 126.354814 
L 231.636053 126.354814 
L 232.19934 125.746216 
L 233.398229 125.746216 
L 233.592335 125.340484 
L 233.980546 125.340484 
L 234.102338 125.137618 
L 234.326892 125.137618 
L 234.368758 124.934751 
L 234.836896 124.529019 
L 234.951076 124.326153 
L 235.194659 124.326153 
L 235.194659 124.123287 
L 235.301227 124.123287 
L 235.350705 124.123287 
L 235.396377 123.920421 
L 235.738917 123.514689 
L 235.883545 123.514689 
L 235.910187 123.311823 
L 236.804596 123.311823 
L 237.071016 122.500358 
L 237.706617 122.094626 
L 238.399308 121.688894 
L 238.795132 121.283162 
L 239.453569 121.283162 
L 239.571555 121.080296 
L 239.594391 121.080296 
L 240.127231 120.674563 
L 240.355591 120.674563 
L 240.941714 120.268831 
L 240.968356 120.065965 
L 241.725749 120.065965 
L 242.079707 119.254501 
L 242.212917 118.848768 
L 242.407023 118.848768 
L 242.772398 118.645902 
L 242.806652 118.645902 
L 242.974116 118.443036 
L 243.552628 118.443036 
L 243.57927 118.24017 
L 244.184423 118.24017 
L 244.580247 117.631572 
L 244.660173 117.631572 
L 244.717263 117.428706 
L 245.078832 116.820107 
L 245.269132 116.820107 
L 245.349058 116.414375 
L 245.817196 116.211509 
L 245.927569 116.211509 
L 245.958017 116.008643 
L 246.285333 116.008643 
L 246.418543 115.602911 
L 246.544141 115.602911 
L 247.050338 115.400045 
L 247.278698 115.400045 
L 247.663104 115.197179 
L 248.378631 115.197179 
L 248.530871 114.994313 
L 248.884829 114.994313 
L 249.204532 114.58858 
L 249.261622 114.385714 
L 249.832522 114.385714 
L 249.84394 114.182848 
L 250.152226 114.182848 
L 250.395809 113.979982 
L 251.495742 113.979982 
L 251.758356 113.371384 
L 251.842088 113.371384 
L 252.759333 112.559919 
L 253.307397 112.559919 
L 253.452024 112.357053 
L 253.661354 112.357053 
L 253.676578 112.154187 
L 253.973446 111.951321 
L 254.190388 111.951321 
L 254.997259 111.545589 
L 255.442561 111.545589 
L 255.587189 110.936991 
L 256.097192 110.936991 
L 256.211372 110.531258 
L 256.29891 110.531258 
L 256.67951 110.328392 
L 257.341753 110.328392 
L 257.779443 109.92266 
L 258.441686 109.92266 
L 258.62818 109.111196 
L 258.658628 109.111196 
L 259.107735 108.502597 
L 259.480723 108.502597 
L 259.785203 107.893999 
L 260.093488 107.893999 
L 260.458864 107.691133 
L 260.59588 107.488267 
L 261.612081 107.488267 
L 261.749097 107.285401 
L 261.794769 107.285401 
L 261.802381 107.082535 
L 262.616864 107.082535 
L 262.670148 106.879669 
L 262.852836 106.676803 
L 263.370451 106.473936 
L 263.617841 106.473936 
L 263.910903 106.27107 
L 264.059337 105.865338 
L 264.337174 105.865338 
L 264.356204 105.459606 
L 264.81673 105.459606 
L 265.12121 105.25674 
L 266.46092 105.25674 
L 266.72734 105.053874 
L 266.849132 104.851008 
L 267.123164 104.851008 
L 267.553241 104.648142 
L 267.568465 104.648142 
L 267.678839 104.445275 
L 267.739735 104.445275 
L 268.116529 104.039543 
L 268.352501 104.039543 
L 268.755936 103.836677 
L 269.768331 103.836677 
L 269.848257 103.633811 
L 269.958631 103.633811 
L 270.354455 103.430945 
L 270.636099 103.430945 
L 270.716025 103.228079 
L 271.465806 103.228079 
L 272.040511 102.619481 
L 272.082377 102.619481 
L 272.192751 102.416614 
L 272.607605 102.213748 
L 272.748427 102.213748 
L 272.763651 102.010882 
L 273.094772 101.60515 
L 273.787464 101.60515 
L 273.897838 101.402284 
L 274.004406 101.199418 
L 274.270825 101.199418 
L 274.388811 100.996552 
L 275.012995 100.996552 
L 275.119563 100.793686 
L 275.382176 100.59082 
L 275.496356 100.185087 
L 275.66382 99.982221 
L 275.72091 99.982221 
L 275.812254 99.576489 
L 276.074868 99.373623 
L 276.261361 99.373623 
L 276.634349 98.765025 
L 276.877933 98.765025 
L 277.623908 98.359292 
L 277.78376 98.359292 
L 277.936 98.156426 
L 278.03115 98.156426 
L 278.388914 97.750694 
L 279.226233 97.750694 
L 279.644892 97.547828 
L 280.021686 97.547828 
L 280.109224 97.344962 
L 280.307136 97.344962 
L 280.680123 96.93923 
L 280.938931 96.93923 
L 280.996021 96.736364 
L 281.498413 96.736364 
L 281.696324 96.533498 
L 282.55648 96.533498 
L 282.716332 96.127765 
L 282.807675 96.127765 
L 283.233947 95.924899 
L 283.462307 95.924899 
L 284.025594 95.316301 
L 284.040818 95.316301 
L 284.052236 95.113435 
L 285.235901 95.113435 
L 285.833443 94.707703 
L 286.160758 94.707703 
L 286.373894 94.30197 
L 286.678374 94.30197 
L 286.765912 94.099104 
L 287.637485 94.099104 
L 287.698381 93.693372 
L 288.059951 93.693372 
L 288.059951 93.490506 
L 288.170324 93.490506 
L 288.432938 93.490506 
L 288.843986 93.084774 
L 289.102794 93.084774 
L 289.468169 92.476176 
L 290.027651 92.476176 
L 290.214145 92.273309 
L 290.244593 92.273309 
L 290.556684 92.070443 
L 290.670864 91.867577 
L 290.796462 91.867577 
L 290.884 91.664711 
L 291.515795 91.664711 
L 291.744155 91.461845 
L 291.839305 91.258979 
L 291.961097 91.258979 
L 292.212293 91.056113 
L 292.882148 91.056113 
L 292.912596 90.853247 
L 293.167598 90.853247 
L 293.300808 90.650381 
L 294.739474 90.650381 
L 295.120074 90.041782 
L 296.886056 90.041782 
L 296.992624 89.63605 
L 297.144864 89.63605 
L 297.5483 89.433184 
L 297.628226 89.433184 
L 297.628226 89.230318 
L 297.689122 89.230318 
L 298.115393 89.230318 
L 298.374201 89.027452 
L 298.652039 88.824586 
L 299.569284 88.824586 
L 299.698688 88.62172 
L 300.330483 88.62172 
L 300.661605 88.418854 
L 301.160191 88.418854 
L 301.262952 88.215987 
L 301.696836 88.215987 
L 301.830046 88.013121 
L 303.074607 88.013121 
L 303.181175 87.810255 
L 303.405728 87.607389 
L 303.519908 87.404523 
L 303.645506 87.404523 
L 303.767298 87.201657 
L 303.873866 87.201657 
L 304.32678 86.998791 
L 304.699767 86.998791 
L 305.118427 86.795925 
L 306.431496 86.795925 
L 306.968141 86.390193 
L 307.664639 86.390193 
L 307.759788 86.187326 
L 309.605697 86.187326 
L 310.047192 85.781594 
L 310.264134 85.375862 
L 311.554367 85.375862 
L 311.836011 85.172996 
L 312.113848 84.564398 
L 312.460194 84.564398 
L 312.509672 84.361532 
L 312.810346 84.361532 
L 313.179527 84.158665 
L 314.762822 84.158665 
L 314.797076 83.955799 
L 315.162452 83.550067 
L 315.295661 83.347201 
L 315.740963 83.347201 
L 315.942681 83.144335 
L 317.800007 83.144335 
L 318.412773 82.738603 
L 318.424191 82.535737 
L 318.67158 82.332871 
L 319.322406 82.332871 
L 319.417556 82.130004 
L 319.919947 82.130004 
L 320.026515 81.927138 
L 320.593609 81.927138 
L 320.669729 81.724272 
L 321.225404 81.724272 
L 321.468988 81.521406 
L 321.636452 81.521406 
L 321.754438 81.31854 
L 322.169291 81.115674 
L 322.447129 81.115674 
L 322.801087 80.912808 
L 323.722138 80.912808 
L 323.72975 80.507076 
L 324.426247 80.507076 
L 324.700279 80.30421 
L 324.894385 80.30421 
L 325.320656 80.101343 
L 325.552822 80.101343 
L 325.750734 79.898477 
L 325.90678 79.898477 
L 326.108498 79.695611 
L 326.835443 79.695611 
L 327.200818 79.492745 
L 327.345446 79.492745 
L 327.36067 79.289879 
L 327.3797 79.289879 
L 329.990614 79.289879 
L 330.466363 79.087013 
L 331.490177 79.087013 
L 331.608162 78.884147 
L 332.300854 78.478415 
L 333.598699 78.478415 
L 333.87273 78.275549 
L 334.12012 78.275549 
L 334.474078 77.869816 
L 334.736692 77.869816 
L 334.778558 77.66695 
L 335.162963 77.464084 
L 335.368487 77.464084 
L 335.802371 76.855486 
L 337.739623 76.855486 
L 337.838579 76.65262 
L 338.485598 76.65262 
L 338.927094 76.449754 
L 341.096512 76.449754 
L 341.522783 76.246888 
L 341.777785 76.246888 
L 342.135549 76.044021 
L 342.276371 76.044021 
L 342.61891 75.841155 
L 342.767344 75.841155 
L 343.20884 75.638289 
L 343.833023 75.638289 
L 343.951009 75.435423 
L 344.506685 75.435423 
L 344.563774 75.232557 
L 344.85303 75.232557 
L 344.894896 75.029691 
L 345.077584 75.029691 
L 345.572364 74.826825 
L 345.747439 74.826825 
L 346.341175 74.218227 
L 347.817901 74.218227 
L 348.255591 74.015361 
L 348.438279 74.015361 
L 348.845521 73.812494 
L 350.398367 73.812494 
L 350.447845 73.609628 
L 351.471658 73.609628 
L 351.597256 73.406762 
L 353.233834 73.406762 
L 353.42794 73.00103 
L 354.733397 73.00103 
L 354.767651 72.798164 
L 355.079743 72.595298 
L 355.224371 72.392432 
L 356.602141 72.392432 
L 356.727739 72.189566 
L 357.420431 72.189566 
L 357.76297 71.9867 
L 357.926628 71.9867 
L 358.455662 71.783833 
L 358.912381 71.783833 
L 359.144547 71.580967 
L 362.501436 71.580967 
L 362.604198 71.378101 
L 363.738385 71.378101 
L 363.818311 70.972369 
L 363.833535 70.972369 
L 366.143775 70.972369 
L 366.596688 70.769503 
L 367.053408 70.769503 
L 367.1752 70.566637 
L 367.810801 70.566637 
L 368.393119 70.160905 
L 369.717605 70.160905 
L 369.816561 69.958039 
L 369.847009 69.958039 
L 370.459775 69.755172 
L 372.256205 69.755172 
L 372.427475 69.552306 
L 372.442699 69.552306 
L 372.743373 69.34944 
L 372.929866 69.34944 
L 372.960314 69.146574 
L 374.692043 69.146574 
L 375.377122 68.740842 
L 376.442801 68.740842 
L 376.705415 68.537976 
L 377.94617 68.537976 
L 378.345799 68.33511 
L 378.505651 68.33511 
L 378.851997 68.132244 
L 382.273588 68.132244 
L 382.684635 67.929378 
L 383.126131 67.929378 
L 383.194639 67.726511 
L 386.67332 67.726511 
L 386.741828 67.523645 
L 387.978776 67.523645 
L 388.104374 67.320779 
L 388.648632 67.117913 
L 390.273792 67.117913 
L 390.365136 66.712181 
L 391.529771 66.712181 
L 391.659175 66.509315 
L 392.953214 66.509315 
L 393.295754 66.306449 
L 393.520307 66.306449 
L 393.813369 66.103583 
L 393.938967 65.900717 
L 394.327179 65.900717 
L 394.445164 65.69785 
L 395.09599 65.69785 
L 395.21017 65.494984 
L 395.30532 65.494984 
L 395.933309 65.089252 
L 396.458537 64.68352 
L 398.388177 64.68352 
L 398.825866 64.480654 
L 400.116099 64.480654 
L 400.416773 64.277788 
L 400.599461 64.277788 
L 401.03715 63.872056 
L 402.049545 63.872056 
L 402.121859 63.669189 
L 402.395891 63.669189 
L 402.727013 63.466323 
L 402.917313 63.466323 
L 402.982015 63.263457 
L 404.458741 63.263457 
L 404.584339 63.060591 
L 405.41024 63.060591 
L 406.023006 62.451993 
L 407.332269 62.451993 
L 407.671002 62.249127 
L 407.747122 62.249127 
L 407.85369 62.046261 
L 408.553993 62.046261 
L 409.166759 61.843395 
L 409.642508 61.843395 
L 409.7643 61.640528 
L 410.304752 61.640528 
L 410.456992 61.234796 
L 410.605426 61.234796 
L 410.997443 61.03193 
L 413.166861 61.03193 
L 413.292459 60.829064 
L 413.969926 60.829064 
L 414.0803 60.626198 
L 414.792022 60.626198 
L 415.142173 60.423332 
L 415.267771 60.423332 
L 415.865313 60.220466 
L 418.628466 60.220466 
L 418.849214 60.0176 
L 419.416307 60.0176 
L 419.488621 59.814734 
L 419.895863 59.814734 
L 420.013849 59.611867 
L 420.314523 59.611867 
L 420.447733 59.409001 
L 424.550597 59.409001 
L 425.072018 59.206135 
L 425.711426 59.206135 
L 426.103443 59.003269 
L 429.768618 59.003269 
L 429.829514 58.800403 
L 431.675422 58.800403 
L 432.151172 58.394671 
L 439.020995 58.394671 
L 439.599507 58.191805 
L 440.284586 58.191805 
L 441.555789 57.786073 
L 444.524466 57.786073 
L 444.631034 57.583206 
L 446.914632 57.583206 
L 447.181052 57.177474 
L 447.949863 57.177474 
L 448.634943 56.974608 
L 448.661585 56.771742 
L 451.478022 56.771742 
L 452.467581 56.568876 
L 453.312512 56.568876 
L 454.184085 56.36601 
L 459.85502 56.36601 
L 461.038685 56.163144 
L 465.347073 56.163144 
L 466.831412 55.960278 
L 476.144685 55.960278 
L 476.384463 55.757412 
L 487.197299 55.757412 
L 490.082244 55.554545 
L 498.109091 55.554545 
L 498.109091 55.554545 
" style="fill:none;stroke:#2b667c;stroke-linecap:square;stroke-width:1.5;"/>
   </g>
   <g id="line2d_14">
    <path clip-path="url(#p4116f2f78a)" d="M 92.290909 302.645455 
L 498.109091 55.554545 
" style="fill:none;stroke:#ff0000;stroke-linecap:square;stroke-width:1.5;"/>
   </g>
   <g id="patch_3">
    <path d="M 72 315 
L 72 43.2 
" style="fill:none;stroke:#000000;stroke-linecap:square;stroke-linejoin:miter;stroke-width:0.8;"/>
   </g>
   <g id="patch_4">
    <path d="M 518.4 315 
L 518.4 43.2 
" style="fill:none;stroke:#000000;stroke-linecap:square;stroke-linejoin:miter;stroke-width:0.8;"/>
   </g>
   <g id="patch_5">
    <path d="M 72 315 
L 518.4 315 
" style="fill:none;stroke:#000000;stroke-linecap:square;stroke-linejoin:miter;stroke-width:0.8;"/>
   </g>
   <g id="patch_6">
    <path d="M 72 43.2 
L 518.4 43.2 
" style="fill:none;stroke:#000000;stroke-linecap:square;stroke-linejoin:miter;stroke-width:0.8;"/>
   </g>
   <g id="text_15">
    <!-- IZTAPALAPA -->
    <g transform="translate(271.569375 37.2)scale(0.08 -0.08)">
     <defs>
      <path d="M 628 4666 
L 1259 4666 
L 1259 0 
L 628 0 
L 628 4666 
z
" id="DejaVuSans-49" transform="scale(0.015625)"/>
      <path d="M 359 4666 
L 4025 4666 
L 4025 4184 
L 1075 531 
L 4097 531 
L 4097 0 
L 288 0 
L 288 481 
L 3238 4134 
L 359 4134 
L 359 4666 
z
" id="DejaVuSans-5a" transform="scale(0.015625)"/>
      <path d="M 2188 4044 
L 1331 1722 
L 3047 1722 
L 2188 4044 
z
M 1831 4666 
L 2547 4666 
L 4325 0 
L 3669 0 
L 3244 1197 
L 1141 1197 
L 716 0 
L 50 0 
L 1831 4666 
z
" id="DejaVuSans-41" transform="scale(0.015625)"/>
      <path d="M 1259 4147 
L 1259 2394 
L 2053 2394 
Q 2494 2394 2734 2622 
Q 2975 2850 2975 3272 
Q 2975 3691 2734 3919 
Q 2494 4147 2053 4147 
L 1259 4147 
z
M 628 4666 
L 2053 4666 
Q 2838 4666 3239 4311 
Q 3641 3956 3641 3272 
Q 3641 2581 3239 2228 
Q 2838 1875 2053 1875 
L 1259 1875 
L 1259 0 
L 628 0 
L 628 4666 
z
" id="DejaVuSans-50" transform="scale(0.015625)"/>
      <path d="M 628 4666 
L 1259 4666 
L 1259 531 
L 3531 531 
L 3531 0 
L 628 0 
L 628 4666 
z
" id="DejaVuSans-4c" transform="scale(0.015625)"/>
     </defs>
     <use xlink:href="#DejaVuSans-49"/>
     <use x="29.492188" xlink:href="#DejaVuSans-5a"/>
     <use x="97.998047" xlink:href="#DejaVuSans-54"/>
     <use x="151.332031" xlink:href="#DejaVuSans-41"/>
     <use x="219.740234" xlink:href="#DejaVuSans-50"/>
     <use x="273.667969" xlink:href="#DejaVuSans-41"/>
     <use x="342.076172" xlink:href="#DejaVuSans-4c"/>
     <use x="400.039062" xlink:href="#DejaVuSans-41"/>
     <use x="468.447266" xlink:href="#DejaVuSans-50"/>
     <use x="522.375" xlink:href="#DejaVuSans-41"/>
    </g>
   </g>
  </g>
  <g id="text_16">
   <!-- ROC Curve -->
   <g transform="translate(244.4125 19.3575)scale(0.16 -0.16)">
    <defs>
     <path d="M 2841 2188 
Q 3044 2119 3236 1894 
Q 3428 1669 3622 1275 
L 4263 0 
L 3584 0 
L 2988 1197 
Q 2756 1666 2539 1819 
Q 2322 1972 1947 1972 
L 1259 1972 
L 1259 0 
L 628 0 
L 628 4666 
L 2053 4666 
Q 2853 4666 3247 4331 
Q 3641 3997 3641 3322 
Q 3641 2881 3436 2590 
Q 3231 2300 2841 2188 
z
M 1259 4147 
L 1259 2491 
L 2053 2491 
Q 2509 2491 2742 2702 
Q 2975 2913 2975 3322 
Q 2975 3731 2742 3939 
Q 2509 4147 2053 4147 
L 1259 4147 
z
" id="DejaVuSans-52" transform="scale(0.015625)"/>
     <path d="M 2522 4238 
Q 1834 4238 1429 3725 
Q 1025 3213 1025 2328 
Q 1025 1447 1429 934 
Q 1834 422 2522 422 
Q 3209 422 3611 934 
Q 4013 1447 4013 2328 
Q 4013 3213 3611 3725 
Q 3209 4238 2522 4238 
z
M 2522 4750 
Q 3503 4750 4090 4092 
Q 4678 3434 4678 2328 
Q 4678 1225 4090 567 
Q 3503 -91 2522 -91 
Q 1538 -91 948 565 
Q 359 1222 359 2328 
Q 359 3434 948 4092 
Q 1538 4750 2522 4750 
z
" id="DejaVuSans-4f" transform="scale(0.015625)"/>
     <path d="M 4122 4306 
L 4122 3641 
Q 3803 3938 3442 4084 
Q 3081 4231 2675 4231 
Q 1875 4231 1450 3742 
Q 1025 3253 1025 2328 
Q 1025 1406 1450 917 
Q 1875 428 2675 428 
Q 3081 428 3442 575 
Q 3803 722 4122 1019 
L 4122 359 
Q 3791 134 3420 21 
Q 3050 -91 2638 -91 
Q 1578 -91 968 557 
Q 359 1206 359 2328 
Q 359 3453 968 4101 
Q 1578 4750 2638 4750 
Q 3056 4750 3426 4639 
Q 3797 4528 4122 4306 
z
" id="DejaVuSans-43" transform="scale(0.015625)"/>
    </defs>
    <use xlink:href="#DejaVuSans-52"/>
    <use x="69.482422" xlink:href="#DejaVuSans-4f"/>
    <use x="148.193359" xlink:href="#DejaVuSans-43"/>
    <use x="218.017578" xlink:href="#DejaVuSans-20"/>
    <use x="249.804688" xlink:href="#DejaVuSans-43"/>
    <use x="319.628906" xlink:href="#DejaVuSans-75"/>
    <use x="383.007812" xlink:href="#DejaVuSans-72"/>
    <use x="424.121094" xlink:href="#DejaVuSans-76"/>
    <use x="483.300781" xlink:href="#DejaVuSans-65"/>
   </g>
  </g>
 </g>
 <defs>
  <clipPath id="p4116f2f78a">
   <rect height="271.8" width="446.4" x="72" y="43.2"/>
  </clipPath>
 </defs>
</svg>
