<?xml version="1.0" encoding="utf-8" standalone="no"?>
<!DOCTYPE svg PUBLIC "-//W3C//DTD SVG 1.1//EN"
  "http://www.w3.org/Graphics/SVG/1.1/DTD/svg11.dtd">
<svg height="360pt" version="1.1" viewBox="0 0 576 360" width="576pt" xmlns="http://www.w3.org/2000/svg" xmlns:xlink="http://www.w3.org/1999/xlink">
 <metadata>
  <rdf:RDF xmlns:cc="http://creativecommons.org/ns#" xmlns:dc="http://purl.org/dc/elements/1.1/" xmlns:rdf="http://www.w3.org/1999/02/22-rdf-syntax-ns#">
   <cc:Work>
    <dc:type rdf:resource="http://purl.org/dc/dcmitype/StillImage"/>
    <dc:date>2022-01-04T19:38:27.287699</dc:date>
    <dc:format>image/svg+xml</dc:format>
    <dc:creator>
     <cc:Agent>
      <dc:title>Matplotlib v3.4.3, https://matplotlib.org/</dc:title>
     </cc:Agent>
    </dc:creator>
   </cc:Work>
  </rdf:RDF>
 </metadata>
 <defs>
  <style type="text/css">*{stroke-linecap:butt;stroke-linejoin:round;}</style>
 </defs>
 <g id="figure_1">
  <g id="patch_1">
   <path d="M 0 360 
L 576 360 
L 576 0 
L 0 0 
z
" style="fill:none;"/>
  </g>
  <g id="axes_1">
   <g id="patch_2">
    <path d="M 72 315 
L 518.4 315 
L 518.4 43.2 
L 72 43.2 
z
" style="fill:#ffffff;"/>
   </g>
   <g id="matplotlib.axis_1">
    <g id="xtick_1">
     <g id="line2d_1">
      <defs>
       <path d="M 0 0 
L 0 3.5 
" id="m9bc8268059" style="stroke:#000000;stroke-width:0.8;"/>
      </defs>
      <g>
       <use style="stroke:#000000;stroke-width:0.8;" x="92.290909" xlink:href="#m9bc8268059" y="315"/>
      </g>
     </g>
     <g id="text_1">
      <!-- 0.0 -->
      <g transform="translate(84.339347 329.598437)scale(0.1 -0.1)">
       <defs>
        <path d="M 2034 4250 
Q 1547 4250 1301 3770 
Q 1056 3291 1056 2328 
Q 1056 1369 1301 889 
Q 1547 409 2034 409 
Q 2525 409 2770 889 
Q 3016 1369 3016 2328 
Q 3016 3291 2770 3770 
Q 2525 4250 2034 4250 
z
M 2034 4750 
Q 2819 4750 3233 4129 
Q 3647 3509 3647 2328 
Q 3647 1150 3233 529 
Q 2819 -91 2034 -91 
Q 1250 -91 836 529 
Q 422 1150 422 2328 
Q 422 3509 836 4129 
Q 1250 4750 2034 4750 
z
" id="DejaVuSans-30" transform="scale(0.015625)"/>
        <path d="M 684 794 
L 1344 794 
L 1344 0 
L 684 0 
L 684 794 
z
" id="DejaVuSans-2e" transform="scale(0.015625)"/>
       </defs>
       <use xlink:href="#DejaVuSans-30"/>
       <use x="63.623047" xlink:href="#DejaVuSans-2e"/>
       <use x="95.410156" xlink:href="#DejaVuSans-30"/>
      </g>
     </g>
    </g>
    <g id="xtick_2">
     <g id="line2d_2">
      <g>
       <use style="stroke:#000000;stroke-width:0.8;" x="173.454545" xlink:href="#m9bc8268059" y="315"/>
      </g>
     </g>
     <g id="text_2">
      <!-- 0.2 -->
      <g transform="translate(165.502983 329.598437)scale(0.1 -0.1)">
       <defs>
        <path d="M 1228 531 
L 3431 531 
L 3431 0 
L 469 0 
L 469 531 
Q 828 903 1448 1529 
Q 2069 2156 2228 2338 
Q 2531 2678 2651 2914 
Q 2772 3150 2772 3378 
Q 2772 3750 2511 3984 
Q 2250 4219 1831 4219 
Q 1534 4219 1204 4116 
Q 875 4013 500 3803 
L 500 4441 
Q 881 4594 1212 4672 
Q 1544 4750 1819 4750 
Q 2544 4750 2975 4387 
Q 3406 4025 3406 3419 
Q 3406 3131 3298 2873 
Q 3191 2616 2906 2266 
Q 2828 2175 2409 1742 
Q 1991 1309 1228 531 
z
" id="DejaVuSans-32" transform="scale(0.015625)"/>
       </defs>
       <use xlink:href="#DejaVuSans-30"/>
       <use x="63.623047" xlink:href="#DejaVuSans-2e"/>
       <use x="95.410156" xlink:href="#DejaVuSans-32"/>
      </g>
     </g>
    </g>
    <g id="xtick_3">
     <g id="line2d_3">
      <g>
       <use style="stroke:#000000;stroke-width:0.8;" x="254.618182" xlink:href="#m9bc8268059" y="315"/>
      </g>
     </g>
     <g id="text_3">
      <!-- 0.4 -->
      <g transform="translate(246.666619 329.598437)scale(0.1 -0.1)">
       <defs>
        <path d="M 2419 4116 
L 825 1625 
L 2419 1625 
L 2419 4116 
z
M 2253 4666 
L 3047 4666 
L 3047 1625 
L 3713 1625 
L 3713 1100 
L 3047 1100 
L 3047 0 
L 2419 0 
L 2419 1100 
L 313 1100 
L 313 1709 
L 2253 4666 
z
" id="DejaVuSans-34" transform="scale(0.015625)"/>
       </defs>
       <use xlink:href="#DejaVuSans-30"/>
       <use x="63.623047" xlink:href="#DejaVuSans-2e"/>
       <use x="95.410156" xlink:href="#DejaVuSans-34"/>
      </g>
     </g>
    </g>
    <g id="xtick_4">
     <g id="line2d_4">
      <g>
       <use style="stroke:#000000;stroke-width:0.8;" x="335.781818" xlink:href="#m9bc8268059" y="315"/>
      </g>
     </g>
     <g id="text_4">
      <!-- 0.6 -->
      <g transform="translate(327.830256 329.598437)scale(0.1 -0.1)">
       <defs>
        <path d="M 2113 2584 
Q 1688 2584 1439 2293 
Q 1191 2003 1191 1497 
Q 1191 994 1439 701 
Q 1688 409 2113 409 
Q 2538 409 2786 701 
Q 3034 994 3034 1497 
Q 3034 2003 2786 2293 
Q 2538 2584 2113 2584 
z
M 3366 4563 
L 3366 3988 
Q 3128 4100 2886 4159 
Q 2644 4219 2406 4219 
Q 1781 4219 1451 3797 
Q 1122 3375 1075 2522 
Q 1259 2794 1537 2939 
Q 1816 3084 2150 3084 
Q 2853 3084 3261 2657 
Q 3669 2231 3669 1497 
Q 3669 778 3244 343 
Q 2819 -91 2113 -91 
Q 1303 -91 875 529 
Q 447 1150 447 2328 
Q 447 3434 972 4092 
Q 1497 4750 2381 4750 
Q 2619 4750 2861 4703 
Q 3103 4656 3366 4563 
z
" id="DejaVuSans-36" transform="scale(0.015625)"/>
       </defs>
       <use xlink:href="#DejaVuSans-30"/>
       <use x="63.623047" xlink:href="#DejaVuSans-2e"/>
       <use x="95.410156" xlink:href="#DejaVuSans-36"/>
      </g>
     </g>
    </g>
    <g id="xtick_5">
     <g id="line2d_5">
      <g>
       <use style="stroke:#000000;stroke-width:0.8;" x="416.945455" xlink:href="#m9bc8268059" y="315"/>
      </g>
     </g>
     <g id="text_5">
      <!-- 0.8 -->
      <g transform="translate(408.993892 329.598437)scale(0.1 -0.1)">
       <defs>
        <path d="M 2034 2216 
Q 1584 2216 1326 1975 
Q 1069 1734 1069 1313 
Q 1069 891 1326 650 
Q 1584 409 2034 409 
Q 2484 409 2743 651 
Q 3003 894 3003 1313 
Q 3003 1734 2745 1975 
Q 2488 2216 2034 2216 
z
M 1403 2484 
Q 997 2584 770 2862 
Q 544 3141 544 3541 
Q 544 4100 942 4425 
Q 1341 4750 2034 4750 
Q 2731 4750 3128 4425 
Q 3525 4100 3525 3541 
Q 3525 3141 3298 2862 
Q 3072 2584 2669 2484 
Q 3125 2378 3379 2068 
Q 3634 1759 3634 1313 
Q 3634 634 3220 271 
Q 2806 -91 2034 -91 
Q 1263 -91 848 271 
Q 434 634 434 1313 
Q 434 1759 690 2068 
Q 947 2378 1403 2484 
z
M 1172 3481 
Q 1172 3119 1398 2916 
Q 1625 2713 2034 2713 
Q 2441 2713 2670 2916 
Q 2900 3119 2900 3481 
Q 2900 3844 2670 4047 
Q 2441 4250 2034 4250 
Q 1625 4250 1398 4047 
Q 1172 3844 1172 3481 
z
" id="DejaVuSans-38" transform="scale(0.015625)"/>
       </defs>
       <use xlink:href="#DejaVuSans-30"/>
       <use x="63.623047" xlink:href="#DejaVuSans-2e"/>
       <use x="95.410156" xlink:href="#DejaVuSans-38"/>
      </g>
     </g>
    </g>
    <g id="xtick_6">
     <g id="line2d_6">
      <g>
       <use style="stroke:#000000;stroke-width:0.8;" x="498.109091" xlink:href="#m9bc8268059" y="315"/>
      </g>
     </g>
     <g id="text_6">
      <!-- 1.0 -->
      <g transform="translate(490.157528 329.598437)scale(0.1 -0.1)">
       <defs>
        <path d="M 794 531 
L 1825 531 
L 1825 4091 
L 703 3866 
L 703 4441 
L 1819 4666 
L 2450 4666 
L 2450 531 
L 3481 531 
L 3481 0 
L 794 0 
L 794 531 
z
" id="DejaVuSans-31" transform="scale(0.015625)"/>
       </defs>
       <use xlink:href="#DejaVuSans-31"/>
       <use x="63.623047" xlink:href="#DejaVuSans-2e"/>
       <use x="95.410156" xlink:href="#DejaVuSans-30"/>
      </g>
     </g>
    </g>
    <g id="text_7">
     <!-- False positive rate -->
     <g transform="translate(249.699219 343.276563)scale(0.1 -0.1)">
      <defs>
       <path d="M 628 4666 
L 3309 4666 
L 3309 4134 
L 1259 4134 
L 1259 2759 
L 3109 2759 
L 3109 2228 
L 1259 2228 
L 1259 0 
L 628 0 
L 628 4666 
z
" id="DejaVuSans-46" transform="scale(0.015625)"/>
       <path d="M 2194 1759 
Q 1497 1759 1228 1600 
Q 959 1441 959 1056 
Q 959 750 1161 570 
Q 1363 391 1709 391 
Q 2188 391 2477 730 
Q 2766 1069 2766 1631 
L 2766 1759 
L 2194 1759 
z
M 3341 1997 
L 3341 0 
L 2766 0 
L 2766 531 
Q 2569 213 2275 61 
Q 1981 -91 1556 -91 
Q 1019 -91 701 211 
Q 384 513 384 1019 
Q 384 1609 779 1909 
Q 1175 2209 1959 2209 
L 2766 2209 
L 2766 2266 
Q 2766 2663 2505 2880 
Q 2244 3097 1772 3097 
Q 1472 3097 1187 3025 
Q 903 2953 641 2809 
L 641 3341 
Q 956 3463 1253 3523 
Q 1550 3584 1831 3584 
Q 2591 3584 2966 3190 
Q 3341 2797 3341 1997 
z
" id="DejaVuSans-61" transform="scale(0.015625)"/>
       <path d="M 603 4863 
L 1178 4863 
L 1178 0 
L 603 0 
L 603 4863 
z
" id="DejaVuSans-6c" transform="scale(0.015625)"/>
       <path d="M 2834 3397 
L 2834 2853 
Q 2591 2978 2328 3040 
Q 2066 3103 1784 3103 
Q 1356 3103 1142 2972 
Q 928 2841 928 2578 
Q 928 2378 1081 2264 
Q 1234 2150 1697 2047 
L 1894 2003 
Q 2506 1872 2764 1633 
Q 3022 1394 3022 966 
Q 3022 478 2636 193 
Q 2250 -91 1575 -91 
Q 1294 -91 989 -36 
Q 684 19 347 128 
L 347 722 
Q 666 556 975 473 
Q 1284 391 1588 391 
Q 1994 391 2212 530 
Q 2431 669 2431 922 
Q 2431 1156 2273 1281 
Q 2116 1406 1581 1522 
L 1381 1569 
Q 847 1681 609 1914 
Q 372 2147 372 2553 
Q 372 3047 722 3315 
Q 1072 3584 1716 3584 
Q 2034 3584 2315 3537 
Q 2597 3491 2834 3397 
z
" id="DejaVuSans-73" transform="scale(0.015625)"/>
       <path d="M 3597 1894 
L 3597 1613 
L 953 1613 
Q 991 1019 1311 708 
Q 1631 397 2203 397 
Q 2534 397 2845 478 
Q 3156 559 3463 722 
L 3463 178 
Q 3153 47 2828 -22 
Q 2503 -91 2169 -91 
Q 1331 -91 842 396 
Q 353 884 353 1716 
Q 353 2575 817 3079 
Q 1281 3584 2069 3584 
Q 2775 3584 3186 3129 
Q 3597 2675 3597 1894 
z
M 3022 2063 
Q 3016 2534 2758 2815 
Q 2500 3097 2075 3097 
Q 1594 3097 1305 2825 
Q 1016 2553 972 2059 
L 3022 2063 
z
" id="DejaVuSans-65" transform="scale(0.015625)"/>
       <path id="DejaVuSans-20" transform="scale(0.015625)"/>
       <path d="M 1159 525 
L 1159 -1331 
L 581 -1331 
L 581 3500 
L 1159 3500 
L 1159 2969 
Q 1341 3281 1617 3432 
Q 1894 3584 2278 3584 
Q 2916 3584 3314 3078 
Q 3713 2572 3713 1747 
Q 3713 922 3314 415 
Q 2916 -91 2278 -91 
Q 1894 -91 1617 61 
Q 1341 213 1159 525 
z
M 3116 1747 
Q 3116 2381 2855 2742 
Q 2594 3103 2138 3103 
Q 1681 3103 1420 2742 
Q 1159 2381 1159 1747 
Q 1159 1113 1420 752 
Q 1681 391 2138 391 
Q 2594 391 2855 752 
Q 3116 1113 3116 1747 
z
" id="DejaVuSans-70" transform="scale(0.015625)"/>
       <path d="M 1959 3097 
Q 1497 3097 1228 2736 
Q 959 2375 959 1747 
Q 959 1119 1226 758 
Q 1494 397 1959 397 
Q 2419 397 2687 759 
Q 2956 1122 2956 1747 
Q 2956 2369 2687 2733 
Q 2419 3097 1959 3097 
z
M 1959 3584 
Q 2709 3584 3137 3096 
Q 3566 2609 3566 1747 
Q 3566 888 3137 398 
Q 2709 -91 1959 -91 
Q 1206 -91 779 398 
Q 353 888 353 1747 
Q 353 2609 779 3096 
Q 1206 3584 1959 3584 
z
" id="DejaVuSans-6f" transform="scale(0.015625)"/>
       <path d="M 603 3500 
L 1178 3500 
L 1178 0 
L 603 0 
L 603 3500 
z
M 603 4863 
L 1178 4863 
L 1178 4134 
L 603 4134 
L 603 4863 
z
" id="DejaVuSans-69" transform="scale(0.015625)"/>
       <path d="M 1172 4494 
L 1172 3500 
L 2356 3500 
L 2356 3053 
L 1172 3053 
L 1172 1153 
Q 1172 725 1289 603 
Q 1406 481 1766 481 
L 2356 481 
L 2356 0 
L 1766 0 
Q 1100 0 847 248 
Q 594 497 594 1153 
L 594 3053 
L 172 3053 
L 172 3500 
L 594 3500 
L 594 4494 
L 1172 4494 
z
" id="DejaVuSans-74" transform="scale(0.015625)"/>
       <path d="M 191 3500 
L 800 3500 
L 1894 563 
L 2988 3500 
L 3597 3500 
L 2284 0 
L 1503 0 
L 191 3500 
z
" id="DejaVuSans-76" transform="scale(0.015625)"/>
       <path d="M 2631 2963 
Q 2534 3019 2420 3045 
Q 2306 3072 2169 3072 
Q 1681 3072 1420 2755 
Q 1159 2438 1159 1844 
L 1159 0 
L 581 0 
L 581 3500 
L 1159 3500 
L 1159 2956 
Q 1341 3275 1631 3429 
Q 1922 3584 2338 3584 
Q 2397 3584 2469 3576 
Q 2541 3569 2628 3553 
L 2631 2963 
z
" id="DejaVuSans-72" transform="scale(0.015625)"/>
      </defs>
      <use xlink:href="#DejaVuSans-46"/>
      <use x="48.394531" xlink:href="#DejaVuSans-61"/>
      <use x="109.673828" xlink:href="#DejaVuSans-6c"/>
      <use x="137.457031" xlink:href="#DejaVuSans-73"/>
      <use x="189.556641" xlink:href="#DejaVuSans-65"/>
      <use x="251.080078" xlink:href="#DejaVuSans-20"/>
      <use x="282.867188" xlink:href="#DejaVuSans-70"/>
      <use x="346.34375" xlink:href="#DejaVuSans-6f"/>
      <use x="407.525391" xlink:href="#DejaVuSans-73"/>
      <use x="459.625" xlink:href="#DejaVuSans-69"/>
      <use x="487.408203" xlink:href="#DejaVuSans-74"/>
      <use x="526.617188" xlink:href="#DejaVuSans-69"/>
      <use x="554.400391" xlink:href="#DejaVuSans-76"/>
      <use x="613.580078" xlink:href="#DejaVuSans-65"/>
      <use x="675.103516" xlink:href="#DejaVuSans-20"/>
      <use x="706.890625" xlink:href="#DejaVuSans-72"/>
      <use x="748.003906" xlink:href="#DejaVuSans-61"/>
      <use x="809.283203" xlink:href="#DejaVuSans-74"/>
      <use x="848.492188" xlink:href="#DejaVuSans-65"/>
     </g>
    </g>
   </g>
   <g id="matplotlib.axis_2">
    <g id="ytick_1">
     <g id="line2d_7">
      <defs>
       <path d="M 0 0 
L -3.5 0 
" id="mf291cfe3ca" style="stroke:#000000;stroke-width:0.8;"/>
      </defs>
      <g>
       <use style="stroke:#000000;stroke-width:0.8;" x="72" xlink:href="#mf291cfe3ca" y="302.645455"/>
      </g>
     </g>
     <g id="text_8">
      <!-- 0.0 -->
      <g transform="translate(49.096875 306.444673)scale(0.1 -0.1)">
       <use xlink:href="#DejaVuSans-30"/>
       <use x="63.623047" xlink:href="#DejaVuSans-2e"/>
       <use x="95.410156" xlink:href="#DejaVuSans-30"/>
      </g>
     </g>
    </g>
    <g id="ytick_2">
     <g id="line2d_8">
      <g>
       <use style="stroke:#000000;stroke-width:0.8;" x="72" xlink:href="#mf291cfe3ca" y="253.227273"/>
      </g>
     </g>
     <g id="text_9">
      <!-- 0.2 -->
      <g transform="translate(49.096875 257.026491)scale(0.1 -0.1)">
       <use xlink:href="#DejaVuSans-30"/>
       <use x="63.623047" xlink:href="#DejaVuSans-2e"/>
       <use x="95.410156" xlink:href="#DejaVuSans-32"/>
      </g>
     </g>
    </g>
    <g id="ytick_3">
     <g id="line2d_9">
      <g>
       <use style="stroke:#000000;stroke-width:0.8;" x="72" xlink:href="#mf291cfe3ca" y="203.809091"/>
      </g>
     </g>
     <g id="text_10">
      <!-- 0.4 -->
      <g transform="translate(49.096875 207.60831)scale(0.1 -0.1)">
       <use xlink:href="#DejaVuSans-30"/>
       <use x="63.623047" xlink:href="#DejaVuSans-2e"/>
       <use x="95.410156" xlink:href="#DejaVuSans-34"/>
      </g>
     </g>
    </g>
    <g id="ytick_4">
     <g id="line2d_10">
      <g>
       <use style="stroke:#000000;stroke-width:0.8;" x="72" xlink:href="#mf291cfe3ca" y="154.390909"/>
      </g>
     </g>
     <g id="text_11">
      <!-- 0.6 -->
      <g transform="translate(49.096875 158.190128)scale(0.1 -0.1)">
       <use xlink:href="#DejaVuSans-30"/>
       <use x="63.623047" xlink:href="#DejaVuSans-2e"/>
       <use x="95.410156" xlink:href="#DejaVuSans-36"/>
      </g>
     </g>
    </g>
    <g id="ytick_5">
     <g id="line2d_11">
      <g>
       <use style="stroke:#000000;stroke-width:0.8;" x="72" xlink:href="#mf291cfe3ca" y="104.972727"/>
      </g>
     </g>
     <g id="text_12">
      <!-- 0.8 -->
      <g transform="translate(49.096875 108.771946)scale(0.1 -0.1)">
       <use xlink:href="#DejaVuSans-30"/>
       <use x="63.623047" xlink:href="#DejaVuSans-2e"/>
       <use x="95.410156" xlink:href="#DejaVuSans-38"/>
      </g>
     </g>
    </g>
    <g id="ytick_6">
     <g id="line2d_12">
      <g>
       <use style="stroke:#000000;stroke-width:0.8;" x="72" xlink:href="#mf291cfe3ca" y="55.554545"/>
      </g>
     </g>
     <g id="text_13">
      <!-- 1.0 -->
      <g transform="translate(49.096875 59.353764)scale(0.1 -0.1)">
       <use xlink:href="#DejaVuSans-31"/>
       <use x="63.623047" xlink:href="#DejaVuSans-2e"/>
       <use x="95.410156" xlink:href="#DejaVuSans-30"/>
      </g>
     </g>
    </g>
    <g id="text_14">
     <!-- True positive rate -->
     <g transform="translate(43.017187 222.664062)rotate(-90)scale(0.1 -0.1)">
      <defs>
       <path d="M -19 4666 
L 3928 4666 
L 3928 4134 
L 2272 4134 
L 2272 0 
L 1638 0 
L 1638 4134 
L -19 4134 
L -19 4666 
z
" id="DejaVuSans-54" transform="scale(0.015625)"/>
       <path d="M 544 1381 
L 544 3500 
L 1119 3500 
L 1119 1403 
Q 1119 906 1312 657 
Q 1506 409 1894 409 
Q 2359 409 2629 706 
Q 2900 1003 2900 1516 
L 2900 3500 
L 3475 3500 
L 3475 0 
L 2900 0 
L 2900 538 
Q 2691 219 2414 64 
Q 2138 -91 1772 -91 
Q 1169 -91 856 284 
Q 544 659 544 1381 
z
M 1991 3584 
L 1991 3584 
z
" id="DejaVuSans-75" transform="scale(0.015625)"/>
      </defs>
      <use xlink:href="#DejaVuSans-54"/>
      <use x="46.333984" xlink:href="#DejaVuSans-72"/>
      <use x="87.447266" xlink:href="#DejaVuSans-75"/>
      <use x="150.826172" xlink:href="#DejaVuSans-65"/>
      <use x="212.349609" xlink:href="#DejaVuSans-20"/>
      <use x="244.136719" xlink:href="#DejaVuSans-70"/>
      <use x="307.613281" xlink:href="#DejaVuSans-6f"/>
      <use x="368.794922" xlink:href="#DejaVuSans-73"/>
      <use x="420.894531" xlink:href="#DejaVuSans-69"/>
      <use x="448.677734" xlink:href="#DejaVuSans-74"/>
      <use x="487.886719" xlink:href="#DejaVuSans-69"/>
      <use x="515.669922" xlink:href="#DejaVuSans-76"/>
      <use x="574.849609" xlink:href="#DejaVuSans-65"/>
      <use x="636.373047" xlink:href="#DejaVuSans-20"/>
      <use x="668.160156" xlink:href="#DejaVuSans-72"/>
      <use x="709.273438" xlink:href="#DejaVuSans-61"/>
      <use x="770.552734" xlink:href="#DejaVuSans-74"/>
      <use x="809.761719" xlink:href="#DejaVuSans-65"/>
     </g>
    </g>
   </g>
   <g id="line2d_13">
    <path clip-path="url(#p03c52138ff)" d="M 92.290909 302.645455 
L 92.372272 302.645455 
L 92.494317 301.819064 
L 93.002835 301.819064 
L 93.206243 300.166282 
L 93.389309 300.166282 
L 93.511354 298.5135 
L 93.755443 298.5135 
L 93.877487 296.860718 
L 94.22328 296.860718 
L 94.365665 296.034327 
L 94.650435 296.034327 
L 94.711458 295.207936 
L 95.118272 295.207936 
L 95.179295 294.381545 
L 95.789517 294.381545 
L 95.931902 293.555154 
L 96.237013 293.555154 
L 96.298036 292.728763 
L 96.887917 292.728763 
L 97.050643 291.902372 
L 98.942332 291.902372 
L 99.003355 291.075981 
L 99.918688 291.075981 
L 100.142436 290.24959 
L 101.383222 290.24959 
L 101.586629 288.596808 
L 101.952762 288.596808 
L 102.095148 286.117635 
L 102.318896 286.117635 
L 102.379918 285.291244 
L 102.949459 285.291244 
L 103.071503 283.638462 
L 103.132526 283.638462 
L 103.193548 282.812071 
L 103.437637 282.812071 
L 103.580022 281.98568 
L 104.027518 281.98568 
L 104.251267 281.159289 
L 105.573415 281.159289 
L 105.695459 279.506507 
L 106.163296 279.506507 
L 106.305682 278.680116 
L 109.356793 278.680116 
L 109.702586 276.200943 
L 110.597579 276.200943 
L 110.739964 275.374552 
L 111.533253 275.374552 
L 111.614616 274.548161 
L 112.163816 274.548161 
L 112.367223 273.72177 
L 112.448586 273.72177 
L 112.651994 272.068988 
L 112.977446 272.068988 
L 113.119831 270.416206 
L 113.546986 270.416206 
L 113.730053 269.589815 
L 113.852098 268.763424 
L 114.19789 266.284251 
L 114.970839 266.284251 
L 115.113224 265.45786 
L 116.028557 265.45786 
L 116.272646 264.631469 
L 116.435372 264.631469 
L 116.65912 262.978687 
L 117.106617 262.978687 
L 117.330365 261.325905 
L 118.001609 261.325905 
L 118.184676 260.499514 
L 118.672854 260.499514 
L 118.977965 259.673123 
L 119.344098 259.673123 
L 119.486484 258.846732 
L 120.361136 258.846732 
L 120.645906 256.367559 
L 121.195106 256.367559 
L 121.418854 254.714777 
L 122.029077 254.714777 
L 122.090099 253.888386 
L 123.188499 253.888386 
L 123.269862 252.235604 
L 123.534292 252.235604 
L 123.880084 250.582822 
L 124.937803 250.582822 
L 125.181892 249.756431 
L 125.425981 249.756431 
L 125.568366 248.93004 
L 125.710751 248.103649 
L 126.117566 248.103649 
L 126.259951 247.277258 
L 127.907552 247.277258 
L 128.009255 246.450867 
L 128.1313 246.450867 
L 128.375389 245.624476 
L 129.209359 245.624476 
L 129.351745 244.798085 
L 130.531508 244.798085 
L 130.938323 243.971694 
L 130.999345 243.145303 
L 131.4265 243.145303 
L 131.487523 242.318912 
L 131.792634 242.318912 
L 132.016382 241.492521 
L 133.257167 241.492521 
L 133.60296 240.66613 
L 133.86739 240.66613 
L 134.172501 239.839739 
L 134.579316 239.839739 
L 134.660679 239.013348 
L 134.762382 239.013348 
L 134.986131 237.360566 
L 135.616694 237.360566 
L 136.043849 236.534175 
L 136.572709 235.707784 
L 136.633731 234.881393 
L 138.769509 234.881393 
L 139.013598 233.228611 
L 139.33905 233.228611 
L 139.400072 232.40222 
L 140.478131 232.40222 
L 140.478131 231.575829 
L 140.640857 231.575829 
L 140.783243 230.749438 
L 141.25108 230.749438 
L 141.312102 229.923047 
L 141.596872 229.923047 
L 141.657895 229.096656 
L 141.901983 228.270265 
L 143.000384 228.270265 
L 143.224132 226.617483 
L 144.424236 226.617483 
L 144.485258 224.964701 
L 144.770028 224.964701 
L 144.912414 224.13831 
L 145.217525 224.13831 
L 145.563317 223.311919 
L 149.061925 223.311919 
L 149.326355 222.485528 
L 149.509422 221.659137 
L 150.912933 221.659137 
L 151.218044 220.832746 
L 153.353822 220.832746 
L 153.618252 219.179964 
L 154.330178 219.179964 
L 154.330178 218.353573 
L 154.818356 218.353573 
L 154.879378 217.527182 
L 155.042104 217.527182 
L 155.164149 215.8744 
L 155.46926 215.8744 
L 155.46926 215.048009 
L 156.83209 215.048009 
L 156.994815 214.221618 
L 157.503334 214.221618 
L 157.645719 213.395227 
L 158.540712 213.395227 
L 158.703438 212.568836 
L 158.723779 212.568836 
L 158.784801 211.742445 
L 159.29332 211.742445 
L 159.374683 210.916054 
L 160.351038 210.916054 
L 160.574786 210.089663 
L 161.22569 210.089663 
L 161.530801 209.263272 
L 162.913972 209.263272 
L 163.564876 208.436881 
L 163.788624 207.61049 
L 164.622594 207.61049 
L 164.866683 206.784099 
L 165.31418 206.784099 
L 165.375202 205.957708 
L 165.537928 205.957708 
L 165.700654 203.478535 
L 166.229513 203.478535 
L 166.982121 202.652144 
L 167.104165 200.999362 
L 167.449958 200.999362 
L 167.51098 200.172971 
L 167.77541 200.172971 
L 168.019499 198.520189 
L 168.528017 198.520189 
L 168.914491 197.693798 
L 171.843559 197.693798 
L 172.046966 196.867407 
L 172.250373 196.867407 
L 172.474122 196.041016 
L 172.962299 196.041016 
L 173.613203 193.561843 
L 173.877633 193.561843 
L 174.101381 192.735452 
L 174.487855 192.735452 
L 174.63024 191.909061 
L 175.891367 191.909061 
L 176.460907 191.08267 
L 176.745678 191.08267 
L 177.233856 190.256279 
L 177.376241 189.429888 
L 178.98316 189.429888 
L 179.125545 188.603497 
L 180.061219 188.603497 
L 180.36633 186.124324 
L 181.586775 186.124324 
L 181.749501 185.297933 
L 182.135975 185.297933 
L 182.298701 184.471542 
L 183.742894 184.471542 
L 183.803916 183.645151 
L 184.902316 183.645151 
L 185.085383 182.81876 
L 186.305827 182.81876 
L 186.712642 181.992369 
L 186.977072 181.992369 
L 187.404228 181.165978 
L 188.29922 181.165978 
L 188.441606 180.339587 
L 188.726376 180.339587 
L 188.82808 179.513196 
L 189.072169 179.513196 
L 189.214554 178.686804 
L 190.516361 178.686804 
L 190.821473 177.860413 
L 191.472376 177.860413 
L 191.777488 177.034022 
L 192.67248 177.034022 
L 192.753843 176.207631 
L 196.435518 176.207631 
L 196.923696 175.38124 
L 198.734022 175.38124 
L 199.527311 174.554849 
L 199.934126 173.728458 
L 200.300259 173.728458 
L 200.544348 172.902067 
L 200.910482 172.902067 
L 201.13423 171.249285 
L 201.68343 171.249285 
L 201.866497 170.422894 
L 202.476719 170.422894 
L 202.761489 169.596503 
L 204.042956 169.596503 
L 204.185341 168.770112 
L 204.632838 167.943721 
L 205.283742 167.943721 
L 205.751579 167.11733 
L 206.016008 167.11733 
L 206.158394 166.290939 
L 207.216112 166.290939 
L 207.785653 165.464548 
L 208.172127 165.464548 
L 208.456898 163.811766 
L 209.433253 163.811766 
L 210.287565 162.985375 
L 210.918128 162.985375 
L 210.999491 162.158984 
L 211.324942 162.158984 
L 211.548691 161.332593 
L 212.423343 161.332593 
L 212.850498 160.506202 
L 213.70481 160.506202 
L 214.009921 158.85342 
L 214.904913 158.85342 
L 215.474454 157.200638 
L 215.677862 157.200638 
L 215.738884 156.374247 
L 216.45081 153.068683 
L 217.28478 153.068683 
L 217.366143 152.242292 
L 218.403521 152.242292 
L 218.464544 150.58951 
L 219.135788 150.58951 
L 219.278173 149.763119 
L 219.990099 149.763119 
L 220.335892 147.283946 
L 222.1869 147.283946 
L 222.329285 146.457555 
L 222.695418 146.457555 
L 222.939507 145.631164 
L 223.203937 145.631164 
L 223.529389 144.804773 
L 224.058248 144.804773 
L 224.404041 142.3256 
L 228.431508 142.3256 
L 228.817982 141.499209 
L 229.428205 140.672818 
L 229.753656 140.672818 
L 230.180812 139.020036 
L 230.628308 139.020036 
L 230.628308 138.193645 
L 231.441938 138.193645 
L 231.50296 137.367254 
L 233.882827 137.367254 
L 233.94385 136.540863 
L 236.872917 136.540863 
L 237.015302 135.714472 
L 237.340754 135.714472 
L 237.747569 134.888081 
L 239.049376 134.888081 
L 239.537554 134.06169 
L 239.781643 134.06169 
L 239.822325 132.408908 
L 241.042769 132.408908 
L 241.693673 131.582517 
L 242.120829 131.582517 
L 242.588666 130.756126 
L 243.320933 130.756126 
L 243.565022 129.929735 
L 244.744785 129.929735 
L 244.826148 129.103344 
L 245.599096 129.103344 
L 245.924548 128.276953 
L 247.917941 128.276953 
L 248.223052 127.450562 
L 250.663941 127.450562 
L 251.45723 126.624171 
L 252.026771 126.624171 
L 252.372564 125.79778 
L 254.772771 125.79778 
L 254.915157 124.971389 
L 255.871172 124.971389 
L 256.09492 124.144998 
L 257.966268 124.144998 
L 257.966268 123.318607 
L 258.047631 123.318607 
L 258.637513 123.318607 
L 259.064668 121.665825 
L 259.430802 121.665825 
L 259.634209 120.013043 
L 260.447839 120.013043 
L 261.261469 119.186652 
L 261.261469 118.360261 
L 261.363172 118.360261 
L 268.360388 118.360261 
L 268.929929 117.53387 
L 269.092655 117.53387 
L 269.153677 116.707479 
L 271.838656 116.707479 
L 272.550582 115.881088 
L 272.998078 115.881088 
L 273.140463 115.054697 
L 274.767723 115.054697 
L 274.950789 114.228306 
L 275.194878 114.228306 
L 275.581352 113.401915 
L 276.720434 113.401915 
L 277.330656 112.575524 
L 277.859516 112.575524 
L 278.205308 111.749133 
L 278.266331 110.922742 
L 278.632464 110.922742 
L 278.937575 110.096351 
L 282.090391 110.096351 
L 282.842998 109.26996 
L 282.985383 108.443569 
L 284.022761 108.443569 
L 284.165146 106.790787 
L 284.449917 106.790787 
L 285.060139 105.964396 
L 287.948525 105.964396 
L 288.436703 105.138005 
L 288.721473 105.138005 
L 289.352036 104.311614 
L 289.514762 103.485223 
L 289.535103 103.485223 
L 290.063962 102.658832 
L 290.389414 102.658832 
L 290.592822 101.832441 
L 291.447133 101.832441 
L 291.589518 101.00605 
L 291.894629 100.179659 
L 292.850644 100.179659 
L 293.501548 99.353268 
L 299.603771 99.353268 
L 299.725816 97.700486 
L 300.722512 97.700486 
L 300.783534 96.874095 
L 305.299179 96.874095 
L 305.360202 96.047704 
L 307.902795 96.047704 
L 308.675743 95.221313 
L 309.14358 95.221313 
L 309.814825 94.394922 
L 311.706514 94.394922 
L 311.767536 93.568531 
L 312.215032 93.568531 
L 312.743892 92.74214 
L 312.987981 92.74214 
L 313.049003 91.915749 
L 313.415136 91.089358 
L 321.815863 91.089358 
L 321.99893 90.262967 
L 326.412872 90.262967 
L 326.982412 89.436576 
L 329.057168 89.436576 
L 329.301257 88.610185 
L 330.155568 88.610185 
L 330.440339 87.783794 
L 334.142354 87.783794 
L 334.650873 86.957403 
L 334.955984 86.957403 
L 335.037347 86.131012 
L 336.847673 86.131012 
L 336.908695 85.304621 
L 338.983451 85.304621 
L 339.349585 84.47823 
L 341.342978 84.47823 
L 342.095585 83.651839 
L 342.095585 82.825448 
L 343.804208 82.825448 
L 344.15 81.999057 
L 344.475452 81.999057 
L 344.536474 81.172666 
L 346.773956 81.172666 
L 347.302816 79.519884 
L 350.43529 79.519884 
L 350.577675 78.693493 
L 352.042209 78.693493 
L 352.34732 77.867102 
L 353.771172 77.867102 
L 354.52378 77.040711 
L 354.971276 77.040711 
L 355.540817 76.21432 
L 361.073499 76.21432 
L 361.276907 75.387929 
L 362.049855 75.387929 
L 362.19224 74.561538 
L 362.721099 74.561538 
L 363.168596 73.735147 
L 363.595751 73.735147 
L 364.165292 72.908756 
L 365.141648 72.908756 
L 365.284033 72.082365 
L 365.609485 72.082365 
L 366.077322 70.429583 
L 369.514908 70.429583 
L 369.962404 68.776801 
L 373.420331 68.776801 
L 373.562716 67.95041 
L 374.986568 67.95041 
L 375.04759 67.124019 
L 375.250998 67.124019 
L 375.840879 66.297628 
L 383.265251 66.297628 
L 383.387295 65.471237 
L 383.50934 65.471237 
L 384.05854 64.644846 
L 387.862259 64.644846 
L 388.533503 63.818455 
L 388.940318 63.818455 
L 389.001341 62.165673 
L 409.301403 62.165673 
L 409.50481 61.339282 
L 410.664233 61.339282 
L 410.704914 60.512891 
L 415.993508 60.512891 
L 416.31896 59.6865 
L 423.580605 59.6865 
L 424.129805 58.860109 
L 435.947778 58.860109 
L 436.151185 58.033718 
L 437.330948 58.033718 
L 437.839467 57.207327 
L 477.788688 57.207327 
L 478.622658 55.554545 
L 498.109091 55.554545 
L 498.109091 55.554545 
" style="fill:none;stroke:#2b667c;stroke-linecap:square;stroke-width:1.5;"/>
   </g>
   <g id="line2d_14">
    <path clip-path="url(#p03c52138ff)" d="M 92.290909 302.645455 
L 498.109091 55.554545 
" style="fill:none;stroke:#ff0000;stroke-linecap:square;stroke-width:1.5;"/>
   </g>
   <g id="patch_3">
    <path d="M 72 315 
L 72 43.2 
" style="fill:none;stroke:#000000;stroke-linecap:square;stroke-linejoin:miter;stroke-width:0.8;"/>
   </g>
   <g id="patch_4">
    <path d="M 518.4 315 
L 518.4 43.2 
" style="fill:none;stroke:#000000;stroke-linecap:square;stroke-linejoin:miter;stroke-width:0.8;"/>
   </g>
   <g id="patch_5">
    <path d="M 72 315 
L 518.4 315 
" style="fill:none;stroke:#000000;stroke-linecap:square;stroke-linejoin:miter;stroke-width:0.8;"/>
   </g>
   <g id="patch_6">
    <path d="M 72 43.2 
L 518.4 43.2 
" style="fill:none;stroke:#000000;stroke-linecap:square;stroke-linejoin:miter;stroke-width:0.8;"/>
   </g>
   <g id="text_15">
    <!-- IZTACALCO -->
    <g transform="translate(272.780625 37.2)scale(0.08 -0.08)">
     <defs>
      <path d="M 628 4666 
L 1259 4666 
L 1259 0 
L 628 0 
L 628 4666 
z
" id="DejaVuSans-49" transform="scale(0.015625)"/>
      <path d="M 359 4666 
L 4025 4666 
L 4025 4184 
L 1075 531 
L 4097 531 
L 4097 0 
L 288 0 
L 288 481 
L 3238 4134 
L 359 4134 
L 359 4666 
z
" id="DejaVuSans-5a" transform="scale(0.015625)"/>
      <path d="M 2188 4044 
L 1331 1722 
L 3047 1722 
L 2188 4044 
z
M 1831 4666 
L 2547 4666 
L 4325 0 
L 3669 0 
L 3244 1197 
L 1141 1197 
L 716 0 
L 50 0 
L 1831 4666 
z
" id="DejaVuSans-41" transform="scale(0.015625)"/>
      <path d="M 4122 4306 
L 4122 3641 
Q 3803 3938 3442 4084 
Q 3081 4231 2675 4231 
Q 1875 4231 1450 3742 
Q 1025 3253 1025 2328 
Q 1025 1406 1450 917 
Q 1875 428 2675 428 
Q 3081 428 3442 575 
Q 3803 722 4122 1019 
L 4122 359 
Q 3791 134 3420 21 
Q 3050 -91 2638 -91 
Q 1578 -91 968 557 
Q 359 1206 359 2328 
Q 359 3453 968 4101 
Q 1578 4750 2638 4750 
Q 3056 4750 3426 4639 
Q 3797 4528 4122 4306 
z
" id="DejaVuSans-43" transform="scale(0.015625)"/>
      <path d="M 628 4666 
L 1259 4666 
L 1259 531 
L 3531 531 
L 3531 0 
L 628 0 
L 628 4666 
z
" id="DejaVuSans-4c" transform="scale(0.015625)"/>
      <path d="M 2522 4238 
Q 1834 4238 1429 3725 
Q 1025 3213 1025 2328 
Q 1025 1447 1429 934 
Q 1834 422 2522 422 
Q 3209 422 3611 934 
Q 4013 1447 4013 2328 
Q 4013 3213 3611 3725 
Q 3209 4238 2522 4238 
z
M 2522 4750 
Q 3503 4750 4090 4092 
Q 4678 3434 4678 2328 
Q 4678 1225 4090 567 
Q 3503 -91 2522 -91 
Q 1538 -91 948 565 
Q 359 1222 359 2328 
Q 359 3434 948 4092 
Q 1538 4750 2522 4750 
z
" id="DejaVuSans-4f" transform="scale(0.015625)"/>
     </defs>
     <use xlink:href="#DejaVuSans-49"/>
     <use x="29.492188" xlink:href="#DejaVuSans-5a"/>
     <use x="97.998047" xlink:href="#DejaVuSans-54"/>
     <use x="151.332031" xlink:href="#DejaVuSans-41"/>
     <use x="217.990234" xlink:href="#DejaVuSans-43"/>
     <use x="287.814453" xlink:href="#DejaVuSans-41"/>
     <use x="356.222656" xlink:href="#DejaVuSans-4c"/>
     <use x="411.935547" xlink:href="#DejaVuSans-43"/>
     <use x="481.759766" xlink:href="#DejaVuSans-4f"/>
    </g>
   </g>
  </g>
  <g id="text_16">
   <!-- ROC Curve -->
   <g transform="translate(244.4125 19.3575)scale(0.16 -0.16)">
    <defs>
     <path d="M 2841 2188 
Q 3044 2119 3236 1894 
Q 3428 1669 3622 1275 
L 4263 0 
L 3584 0 
L 2988 1197 
Q 2756 1666 2539 1819 
Q 2322 1972 1947 1972 
L 1259 1972 
L 1259 0 
L 628 0 
L 628 4666 
L 2053 4666 
Q 2853 4666 3247 4331 
Q 3641 3997 3641 3322 
Q 3641 2881 3436 2590 
Q 3231 2300 2841 2188 
z
M 1259 4147 
L 1259 2491 
L 2053 2491 
Q 2509 2491 2742 2702 
Q 2975 2913 2975 3322 
Q 2975 3731 2742 3939 
Q 2509 4147 2053 4147 
L 1259 4147 
z
" id="DejaVuSans-52" transform="scale(0.015625)"/>
    </defs>
    <use xlink:href="#DejaVuSans-52"/>
    <use x="69.482422" xlink:href="#DejaVuSans-4f"/>
    <use x="148.193359" xlink:href="#DejaVuSans-43"/>
    <use x="218.017578" xlink:href="#DejaVuSans-20"/>
    <use x="249.804688" xlink:href="#DejaVuSans-43"/>
    <use x="319.628906" xlink:href="#DejaVuSans-75"/>
    <use x="383.007812" xlink:href="#DejaVuSans-72"/>
    <use x="424.121094" xlink:href="#DejaVuSans-76"/>
    <use x="483.300781" xlink:href="#DejaVuSans-65"/>
   </g>
  </g>
 </g>
 <defs>
  <clipPath id="p03c52138ff">
   <rect height="271.8" width="446.4" x="72" y="43.2"/>
  </clipPath>
 </defs>
</svg>
