<?xml version="1.0" encoding="utf-8" standalone="no"?>
<!DOCTYPE svg PUBLIC "-//W3C//DTD SVG 1.1//EN"
  "http://www.w3.org/Graphics/SVG/1.1/DTD/svg11.dtd">
<svg height="360pt" version="1.1" viewBox="0 0 576 360" width="576pt" xmlns="http://www.w3.org/2000/svg" xmlns:xlink="http://www.w3.org/1999/xlink">
 <metadata>
  <rdf:RDF xmlns:cc="http://creativecommons.org/ns#" xmlns:dc="http://purl.org/dc/elements/1.1/" xmlns:rdf="http://www.w3.org/1999/02/22-rdf-syntax-ns#">
   <cc:Work>
    <dc:type rdf:resource="http://purl.org/dc/dcmitype/StillImage"/>
    <dc:date>2022-01-04T19:15:14.252393</dc:date>
    <dc:format>image/svg+xml</dc:format>
    <dc:creator>
     <cc:Agent>
      <dc:title>Matplotlib v3.4.3, https://matplotlib.org/</dc:title>
     </cc:Agent>
    </dc:creator>
   </cc:Work>
  </rdf:RDF>
 </metadata>
 <defs>
  <style type="text/css">*{stroke-linecap:butt;stroke-linejoin:round;}</style>
 </defs>
 <g id="figure_1">
  <g id="patch_1">
   <path d="M 0 360 
L 576 360 
L 576 0 
L 0 0 
z
" style="fill:none;"/>
  </g>
  <g id="axes_1">
   <g id="patch_2">
    <path d="M 72 315 
L 518.4 315 
L 518.4 43.2 
L 72 43.2 
z
" style="fill:#ffffff;"/>
   </g>
   <g id="matplotlib.axis_1">
    <g id="xtick_1">
     <g id="line2d_1">
      <defs>
       <path d="M 0 0 
L 0 3.5 
" id="m01124392fc" style="stroke:#000000;stroke-width:0.8;"/>
      </defs>
      <g>
       <use style="stroke:#000000;stroke-width:0.8;" x="92.290909" xlink:href="#m01124392fc" y="315"/>
      </g>
     </g>
     <g id="text_1">
      <!-- 0.0 -->
      <g transform="translate(84.339347 329.598437)scale(0.1 -0.1)">
       <defs>
        <path d="M 2034 4250 
Q 1547 4250 1301 3770 
Q 1056 3291 1056 2328 
Q 1056 1369 1301 889 
Q 1547 409 2034 409 
Q 2525 409 2770 889 
Q 3016 1369 3016 2328 
Q 3016 3291 2770 3770 
Q 2525 4250 2034 4250 
z
M 2034 4750 
Q 2819 4750 3233 4129 
Q 3647 3509 3647 2328 
Q 3647 1150 3233 529 
Q 2819 -91 2034 -91 
Q 1250 -91 836 529 
Q 422 1150 422 2328 
Q 422 3509 836 4129 
Q 1250 4750 2034 4750 
z
" id="DejaVuSans-30" transform="scale(0.015625)"/>
        <path d="M 684 794 
L 1344 794 
L 1344 0 
L 684 0 
L 684 794 
z
" id="DejaVuSans-2e" transform="scale(0.015625)"/>
       </defs>
       <use xlink:href="#DejaVuSans-30"/>
       <use x="63.623047" xlink:href="#DejaVuSans-2e"/>
       <use x="95.410156" xlink:href="#DejaVuSans-30"/>
      </g>
     </g>
    </g>
    <g id="xtick_2">
     <g id="line2d_2">
      <g>
       <use style="stroke:#000000;stroke-width:0.8;" x="173.454545" xlink:href="#m01124392fc" y="315"/>
      </g>
     </g>
     <g id="text_2">
      <!-- 0.2 -->
      <g transform="translate(165.502983 329.598437)scale(0.1 -0.1)">
       <defs>
        <path d="M 1228 531 
L 3431 531 
L 3431 0 
L 469 0 
L 469 531 
Q 828 903 1448 1529 
Q 2069 2156 2228 2338 
Q 2531 2678 2651 2914 
Q 2772 3150 2772 3378 
Q 2772 3750 2511 3984 
Q 2250 4219 1831 4219 
Q 1534 4219 1204 4116 
Q 875 4013 500 3803 
L 500 4441 
Q 881 4594 1212 4672 
Q 1544 4750 1819 4750 
Q 2544 4750 2975 4387 
Q 3406 4025 3406 3419 
Q 3406 3131 3298 2873 
Q 3191 2616 2906 2266 
Q 2828 2175 2409 1742 
Q 1991 1309 1228 531 
z
" id="DejaVuSans-32" transform="scale(0.015625)"/>
       </defs>
       <use xlink:href="#DejaVuSans-30"/>
       <use x="63.623047" xlink:href="#DejaVuSans-2e"/>
       <use x="95.410156" xlink:href="#DejaVuSans-32"/>
      </g>
     </g>
    </g>
    <g id="xtick_3">
     <g id="line2d_3">
      <g>
       <use style="stroke:#000000;stroke-width:0.8;" x="254.618182" xlink:href="#m01124392fc" y="315"/>
      </g>
     </g>
     <g id="text_3">
      <!-- 0.4 -->
      <g transform="translate(246.666619 329.598437)scale(0.1 -0.1)">
       <defs>
        <path d="M 2419 4116 
L 825 1625 
L 2419 1625 
L 2419 4116 
z
M 2253 4666 
L 3047 4666 
L 3047 1625 
L 3713 1625 
L 3713 1100 
L 3047 1100 
L 3047 0 
L 2419 0 
L 2419 1100 
L 313 1100 
L 313 1709 
L 2253 4666 
z
" id="DejaVuSans-34" transform="scale(0.015625)"/>
       </defs>
       <use xlink:href="#DejaVuSans-30"/>
       <use x="63.623047" xlink:href="#DejaVuSans-2e"/>
       <use x="95.410156" xlink:href="#DejaVuSans-34"/>
      </g>
     </g>
    </g>
    <g id="xtick_4">
     <g id="line2d_4">
      <g>
       <use style="stroke:#000000;stroke-width:0.8;" x="335.781818" xlink:href="#m01124392fc" y="315"/>
      </g>
     </g>
     <g id="text_4">
      <!-- 0.6 -->
      <g transform="translate(327.830256 329.598437)scale(0.1 -0.1)">
       <defs>
        <path d="M 2113 2584 
Q 1688 2584 1439 2293 
Q 1191 2003 1191 1497 
Q 1191 994 1439 701 
Q 1688 409 2113 409 
Q 2538 409 2786 701 
Q 3034 994 3034 1497 
Q 3034 2003 2786 2293 
Q 2538 2584 2113 2584 
z
M 3366 4563 
L 3366 3988 
Q 3128 4100 2886 4159 
Q 2644 4219 2406 4219 
Q 1781 4219 1451 3797 
Q 1122 3375 1075 2522 
Q 1259 2794 1537 2939 
Q 1816 3084 2150 3084 
Q 2853 3084 3261 2657 
Q 3669 2231 3669 1497 
Q 3669 778 3244 343 
Q 2819 -91 2113 -91 
Q 1303 -91 875 529 
Q 447 1150 447 2328 
Q 447 3434 972 4092 
Q 1497 4750 2381 4750 
Q 2619 4750 2861 4703 
Q 3103 4656 3366 4563 
z
" id="DejaVuSans-36" transform="scale(0.015625)"/>
       </defs>
       <use xlink:href="#DejaVuSans-30"/>
       <use x="63.623047" xlink:href="#DejaVuSans-2e"/>
       <use x="95.410156" xlink:href="#DejaVuSans-36"/>
      </g>
     </g>
    </g>
    <g id="xtick_5">
     <g id="line2d_5">
      <g>
       <use style="stroke:#000000;stroke-width:0.8;" x="416.945455" xlink:href="#m01124392fc" y="315"/>
      </g>
     </g>
     <g id="text_5">
      <!-- 0.8 -->
      <g transform="translate(408.993892 329.598437)scale(0.1 -0.1)">
       <defs>
        <path d="M 2034 2216 
Q 1584 2216 1326 1975 
Q 1069 1734 1069 1313 
Q 1069 891 1326 650 
Q 1584 409 2034 409 
Q 2484 409 2743 651 
Q 3003 894 3003 1313 
Q 3003 1734 2745 1975 
Q 2488 2216 2034 2216 
z
M 1403 2484 
Q 997 2584 770 2862 
Q 544 3141 544 3541 
Q 544 4100 942 4425 
Q 1341 4750 2034 4750 
Q 2731 4750 3128 4425 
Q 3525 4100 3525 3541 
Q 3525 3141 3298 2862 
Q 3072 2584 2669 2484 
Q 3125 2378 3379 2068 
Q 3634 1759 3634 1313 
Q 3634 634 3220 271 
Q 2806 -91 2034 -91 
Q 1263 -91 848 271 
Q 434 634 434 1313 
Q 434 1759 690 2068 
Q 947 2378 1403 2484 
z
M 1172 3481 
Q 1172 3119 1398 2916 
Q 1625 2713 2034 2713 
Q 2441 2713 2670 2916 
Q 2900 3119 2900 3481 
Q 2900 3844 2670 4047 
Q 2441 4250 2034 4250 
Q 1625 4250 1398 4047 
Q 1172 3844 1172 3481 
z
" id="DejaVuSans-38" transform="scale(0.015625)"/>
       </defs>
       <use xlink:href="#DejaVuSans-30"/>
       <use x="63.623047" xlink:href="#DejaVuSans-2e"/>
       <use x="95.410156" xlink:href="#DejaVuSans-38"/>
      </g>
     </g>
    </g>
    <g id="xtick_6">
     <g id="line2d_6">
      <g>
       <use style="stroke:#000000;stroke-width:0.8;" x="498.109091" xlink:href="#m01124392fc" y="315"/>
      </g>
     </g>
     <g id="text_6">
      <!-- 1.0 -->
      <g transform="translate(490.157528 329.598437)scale(0.1 -0.1)">
       <defs>
        <path d="M 794 531 
L 1825 531 
L 1825 4091 
L 703 3866 
L 703 4441 
L 1819 4666 
L 2450 4666 
L 2450 531 
L 3481 531 
L 3481 0 
L 794 0 
L 794 531 
z
" id="DejaVuSans-31" transform="scale(0.015625)"/>
       </defs>
       <use xlink:href="#DejaVuSans-31"/>
       <use x="63.623047" xlink:href="#DejaVuSans-2e"/>
       <use x="95.410156" xlink:href="#DejaVuSans-30"/>
      </g>
     </g>
    </g>
    <g id="text_7">
     <!-- False positive rate -->
     <g transform="translate(249.699219 343.276563)scale(0.1 -0.1)">
      <defs>
       <path d="M 628 4666 
L 3309 4666 
L 3309 4134 
L 1259 4134 
L 1259 2759 
L 3109 2759 
L 3109 2228 
L 1259 2228 
L 1259 0 
L 628 0 
L 628 4666 
z
" id="DejaVuSans-46" transform="scale(0.015625)"/>
       <path d="M 2194 1759 
Q 1497 1759 1228 1600 
Q 959 1441 959 1056 
Q 959 750 1161 570 
Q 1363 391 1709 391 
Q 2188 391 2477 730 
Q 2766 1069 2766 1631 
L 2766 1759 
L 2194 1759 
z
M 3341 1997 
L 3341 0 
L 2766 0 
L 2766 531 
Q 2569 213 2275 61 
Q 1981 -91 1556 -91 
Q 1019 -91 701 211 
Q 384 513 384 1019 
Q 384 1609 779 1909 
Q 1175 2209 1959 2209 
L 2766 2209 
L 2766 2266 
Q 2766 2663 2505 2880 
Q 2244 3097 1772 3097 
Q 1472 3097 1187 3025 
Q 903 2953 641 2809 
L 641 3341 
Q 956 3463 1253 3523 
Q 1550 3584 1831 3584 
Q 2591 3584 2966 3190 
Q 3341 2797 3341 1997 
z
" id="DejaVuSans-61" transform="scale(0.015625)"/>
       <path d="M 603 4863 
L 1178 4863 
L 1178 0 
L 603 0 
L 603 4863 
z
" id="DejaVuSans-6c" transform="scale(0.015625)"/>
       <path d="M 2834 3397 
L 2834 2853 
Q 2591 2978 2328 3040 
Q 2066 3103 1784 3103 
Q 1356 3103 1142 2972 
Q 928 2841 928 2578 
Q 928 2378 1081 2264 
Q 1234 2150 1697 2047 
L 1894 2003 
Q 2506 1872 2764 1633 
Q 3022 1394 3022 966 
Q 3022 478 2636 193 
Q 2250 -91 1575 -91 
Q 1294 -91 989 -36 
Q 684 19 347 128 
L 347 722 
Q 666 556 975 473 
Q 1284 391 1588 391 
Q 1994 391 2212 530 
Q 2431 669 2431 922 
Q 2431 1156 2273 1281 
Q 2116 1406 1581 1522 
L 1381 1569 
Q 847 1681 609 1914 
Q 372 2147 372 2553 
Q 372 3047 722 3315 
Q 1072 3584 1716 3584 
Q 2034 3584 2315 3537 
Q 2597 3491 2834 3397 
z
" id="DejaVuSans-73" transform="scale(0.015625)"/>
       <path d="M 3597 1894 
L 3597 1613 
L 953 1613 
Q 991 1019 1311 708 
Q 1631 397 2203 397 
Q 2534 397 2845 478 
Q 3156 559 3463 722 
L 3463 178 
Q 3153 47 2828 -22 
Q 2503 -91 2169 -91 
Q 1331 -91 842 396 
Q 353 884 353 1716 
Q 353 2575 817 3079 
Q 1281 3584 2069 3584 
Q 2775 3584 3186 3129 
Q 3597 2675 3597 1894 
z
M 3022 2063 
Q 3016 2534 2758 2815 
Q 2500 3097 2075 3097 
Q 1594 3097 1305 2825 
Q 1016 2553 972 2059 
L 3022 2063 
z
" id="DejaVuSans-65" transform="scale(0.015625)"/>
       <path id="DejaVuSans-20" transform="scale(0.015625)"/>
       <path d="M 1159 525 
L 1159 -1331 
L 581 -1331 
L 581 3500 
L 1159 3500 
L 1159 2969 
Q 1341 3281 1617 3432 
Q 1894 3584 2278 3584 
Q 2916 3584 3314 3078 
Q 3713 2572 3713 1747 
Q 3713 922 3314 415 
Q 2916 -91 2278 -91 
Q 1894 -91 1617 61 
Q 1341 213 1159 525 
z
M 3116 1747 
Q 3116 2381 2855 2742 
Q 2594 3103 2138 3103 
Q 1681 3103 1420 2742 
Q 1159 2381 1159 1747 
Q 1159 1113 1420 752 
Q 1681 391 2138 391 
Q 2594 391 2855 752 
Q 3116 1113 3116 1747 
z
" id="DejaVuSans-70" transform="scale(0.015625)"/>
       <path d="M 1959 3097 
Q 1497 3097 1228 2736 
Q 959 2375 959 1747 
Q 959 1119 1226 758 
Q 1494 397 1959 397 
Q 2419 397 2687 759 
Q 2956 1122 2956 1747 
Q 2956 2369 2687 2733 
Q 2419 3097 1959 3097 
z
M 1959 3584 
Q 2709 3584 3137 3096 
Q 3566 2609 3566 1747 
Q 3566 888 3137 398 
Q 2709 -91 1959 -91 
Q 1206 -91 779 398 
Q 353 888 353 1747 
Q 353 2609 779 3096 
Q 1206 3584 1959 3584 
z
" id="DejaVuSans-6f" transform="scale(0.015625)"/>
       <path d="M 603 3500 
L 1178 3500 
L 1178 0 
L 603 0 
L 603 3500 
z
M 603 4863 
L 1178 4863 
L 1178 4134 
L 603 4134 
L 603 4863 
z
" id="DejaVuSans-69" transform="scale(0.015625)"/>
       <path d="M 1172 4494 
L 1172 3500 
L 2356 3500 
L 2356 3053 
L 1172 3053 
L 1172 1153 
Q 1172 725 1289 603 
Q 1406 481 1766 481 
L 2356 481 
L 2356 0 
L 1766 0 
Q 1100 0 847 248 
Q 594 497 594 1153 
L 594 3053 
L 172 3053 
L 172 3500 
L 594 3500 
L 594 4494 
L 1172 4494 
z
" id="DejaVuSans-74" transform="scale(0.015625)"/>
       <path d="M 191 3500 
L 800 3500 
L 1894 563 
L 2988 3500 
L 3597 3500 
L 2284 0 
L 1503 0 
L 191 3500 
z
" id="DejaVuSans-76" transform="scale(0.015625)"/>
       <path d="M 2631 2963 
Q 2534 3019 2420 3045 
Q 2306 3072 2169 3072 
Q 1681 3072 1420 2755 
Q 1159 2438 1159 1844 
L 1159 0 
L 581 0 
L 581 3500 
L 1159 3500 
L 1159 2956 
Q 1341 3275 1631 3429 
Q 1922 3584 2338 3584 
Q 2397 3584 2469 3576 
Q 2541 3569 2628 3553 
L 2631 2963 
z
" id="DejaVuSans-72" transform="scale(0.015625)"/>
      </defs>
      <use xlink:href="#DejaVuSans-46"/>
      <use x="48.394531" xlink:href="#DejaVuSans-61"/>
      <use x="109.673828" xlink:href="#DejaVuSans-6c"/>
      <use x="137.457031" xlink:href="#DejaVuSans-73"/>
      <use x="189.556641" xlink:href="#DejaVuSans-65"/>
      <use x="251.080078" xlink:href="#DejaVuSans-20"/>
      <use x="282.867188" xlink:href="#DejaVuSans-70"/>
      <use x="346.34375" xlink:href="#DejaVuSans-6f"/>
      <use x="407.525391" xlink:href="#DejaVuSans-73"/>
      <use x="459.625" xlink:href="#DejaVuSans-69"/>
      <use x="487.408203" xlink:href="#DejaVuSans-74"/>
      <use x="526.617188" xlink:href="#DejaVuSans-69"/>
      <use x="554.400391" xlink:href="#DejaVuSans-76"/>
      <use x="613.580078" xlink:href="#DejaVuSans-65"/>
      <use x="675.103516" xlink:href="#DejaVuSans-20"/>
      <use x="706.890625" xlink:href="#DejaVuSans-72"/>
      <use x="748.003906" xlink:href="#DejaVuSans-61"/>
      <use x="809.283203" xlink:href="#DejaVuSans-74"/>
      <use x="848.492188" xlink:href="#DejaVuSans-65"/>
     </g>
    </g>
   </g>
   <g id="matplotlib.axis_2">
    <g id="ytick_1">
     <g id="line2d_7">
      <defs>
       <path d="M 0 0 
L -3.5 0 
" id="ma8ae707267" style="stroke:#000000;stroke-width:0.8;"/>
      </defs>
      <g>
       <use style="stroke:#000000;stroke-width:0.8;" x="72" xlink:href="#ma8ae707267" y="302.645455"/>
      </g>
     </g>
     <g id="text_8">
      <!-- 0.0 -->
      <g transform="translate(49.096875 306.444673)scale(0.1 -0.1)">
       <use xlink:href="#DejaVuSans-30"/>
       <use x="63.623047" xlink:href="#DejaVuSans-2e"/>
       <use x="95.410156" xlink:href="#DejaVuSans-30"/>
      </g>
     </g>
    </g>
    <g id="ytick_2">
     <g id="line2d_8">
      <g>
       <use style="stroke:#000000;stroke-width:0.8;" x="72" xlink:href="#ma8ae707267" y="253.227273"/>
      </g>
     </g>
     <g id="text_9">
      <!-- 0.2 -->
      <g transform="translate(49.096875 257.026491)scale(0.1 -0.1)">
       <use xlink:href="#DejaVuSans-30"/>
       <use x="63.623047" xlink:href="#DejaVuSans-2e"/>
       <use x="95.410156" xlink:href="#DejaVuSans-32"/>
      </g>
     </g>
    </g>
    <g id="ytick_3">
     <g id="line2d_9">
      <g>
       <use style="stroke:#000000;stroke-width:0.8;" x="72" xlink:href="#ma8ae707267" y="203.809091"/>
      </g>
     </g>
     <g id="text_10">
      <!-- 0.4 -->
      <g transform="translate(49.096875 207.60831)scale(0.1 -0.1)">
       <use xlink:href="#DejaVuSans-30"/>
       <use x="63.623047" xlink:href="#DejaVuSans-2e"/>
       <use x="95.410156" xlink:href="#DejaVuSans-34"/>
      </g>
     </g>
    </g>
    <g id="ytick_4">
     <g id="line2d_10">
      <g>
       <use style="stroke:#000000;stroke-width:0.8;" x="72" xlink:href="#ma8ae707267" y="154.390909"/>
      </g>
     </g>
     <g id="text_11">
      <!-- 0.6 -->
      <g transform="translate(49.096875 158.190128)scale(0.1 -0.1)">
       <use xlink:href="#DejaVuSans-30"/>
       <use x="63.623047" xlink:href="#DejaVuSans-2e"/>
       <use x="95.410156" xlink:href="#DejaVuSans-36"/>
      </g>
     </g>
    </g>
    <g id="ytick_5">
     <g id="line2d_11">
      <g>
       <use style="stroke:#000000;stroke-width:0.8;" x="72" xlink:href="#ma8ae707267" y="104.972727"/>
      </g>
     </g>
     <g id="text_12">
      <!-- 0.8 -->
      <g transform="translate(49.096875 108.771946)scale(0.1 -0.1)">
       <use xlink:href="#DejaVuSans-30"/>
       <use x="63.623047" xlink:href="#DejaVuSans-2e"/>
       <use x="95.410156" xlink:href="#DejaVuSans-38"/>
      </g>
     </g>
    </g>
    <g id="ytick_6">
     <g id="line2d_12">
      <g>
       <use style="stroke:#000000;stroke-width:0.8;" x="72" xlink:href="#ma8ae707267" y="55.554545"/>
      </g>
     </g>
     <g id="text_13">
      <!-- 1.0 -->
      <g transform="translate(49.096875 59.353764)scale(0.1 -0.1)">
       <use xlink:href="#DejaVuSans-31"/>
       <use x="63.623047" xlink:href="#DejaVuSans-2e"/>
       <use x="95.410156" xlink:href="#DejaVuSans-30"/>
      </g>
     </g>
    </g>
    <g id="text_14">
     <!-- True positive rate -->
     <g transform="translate(43.017187 222.664062)rotate(-90)scale(0.1 -0.1)">
      <defs>
       <path d="M -19 4666 
L 3928 4666 
L 3928 4134 
L 2272 4134 
L 2272 0 
L 1638 0 
L 1638 4134 
L -19 4134 
L -19 4666 
z
" id="DejaVuSans-54" transform="scale(0.015625)"/>
       <path d="M 544 1381 
L 544 3500 
L 1119 3500 
L 1119 1403 
Q 1119 906 1312 657 
Q 1506 409 1894 409 
Q 2359 409 2629 706 
Q 2900 1003 2900 1516 
L 2900 3500 
L 3475 3500 
L 3475 0 
L 2900 0 
L 2900 538 
Q 2691 219 2414 64 
Q 2138 -91 1772 -91 
Q 1169 -91 856 284 
Q 544 659 544 1381 
z
M 1991 3584 
L 1991 3584 
z
" id="DejaVuSans-75" transform="scale(0.015625)"/>
      </defs>
      <use xlink:href="#DejaVuSans-54"/>
      <use x="46.333984" xlink:href="#DejaVuSans-72"/>
      <use x="87.447266" xlink:href="#DejaVuSans-75"/>
      <use x="150.826172" xlink:href="#DejaVuSans-65"/>
      <use x="212.349609" xlink:href="#DejaVuSans-20"/>
      <use x="244.136719" xlink:href="#DejaVuSans-70"/>
      <use x="307.613281" xlink:href="#DejaVuSans-6f"/>
      <use x="368.794922" xlink:href="#DejaVuSans-73"/>
      <use x="420.894531" xlink:href="#DejaVuSans-69"/>
      <use x="448.677734" xlink:href="#DejaVuSans-74"/>
      <use x="487.886719" xlink:href="#DejaVuSans-69"/>
      <use x="515.669922" xlink:href="#DejaVuSans-76"/>
      <use x="574.849609" xlink:href="#DejaVuSans-65"/>
      <use x="636.373047" xlink:href="#DejaVuSans-20"/>
      <use x="668.160156" xlink:href="#DejaVuSans-72"/>
      <use x="709.273438" xlink:href="#DejaVuSans-61"/>
      <use x="770.552734" xlink:href="#DejaVuSans-74"/>
      <use x="809.761719" xlink:href="#DejaVuSans-65"/>
     </g>
    </g>
   </g>
   <g id="line2d_13">
    <path clip-path="url(#p8be7a481f3)" d="M 92.290909 302.645455 
L 92.370994 302.645455 
L 92.401025 301.85095 
L 92.521152 301.85095 
L 92.631268 300.261941 
L 93.882588 300.261941 
L 94.042757 299.467436 
L 94.513254 299.467436 
L 94.62337 297.878427 
L 94.663412 297.878427 
L 94.853613 295.494914 
L 97.005884 295.494914 
L 97.126011 294.700409 
L 97.416317 294.700409 
L 97.506412 293.1114 
L 97.586497 293.1114 
L 97.616528 292.316896 
L 97.946877 292.316896 
L 98.026961 291.522391 
L 98.167109 291.522391 
L 98.197141 290.727887 
L 98.317268 290.727887 
L 98.437394 289.933382 
L 98.737711 289.933382 
L 98.787764 289.138878 
L 99.24825 289.138878 
L 99.278282 288.344373 
L 99.588609 288.344373 
L 99.658683 287.549868 
L 100.899993 287.549868 
L 101.010109 286.755364 
L 101.060162 286.755364 
L 101.130236 285.960859 
L 101.550679 284.37185 
L 102.071228 284.37185 
L 102.181345 283.577346 
L 102.751947 283.577346 
L 103.042253 282.782841 
L 103.152369 281.988337 
L 103.582823 281.988337 
L 103.732982 281.193832 
L 103.903161 279.604823 
L 104.533827 279.604823 
L 104.724027 278.810319 
L 105.374714 278.810319 
L 105.494841 277.22131 
L 105.775136 277.22131 
L 106.0254 276.426805 
L 106.846267 276.426805 
L 106.91634 275.6323 
L 107.116552 274.837796 
L 107.26671 274.837796 
L 107.326774 273.248787 
L 109.719298 273.248787 
L 109.829414 272.454282 
L 110.349963 272.454282 
L 110.46008 271.659778 
L 111.7114 271.659778 
L 111.751442 270.865273 
L 111.911611 270.865273 
L 112.141854 269.276264 
L 112.60234 269.276264 
L 112.632372 268.48176 
L 112.822572 267.687255 
L 113.012773 267.687255 
L 113.152921 266.892751 
L 113.403185 266.892751 
L 113.473259 266.098246 
L 113.613407 266.098246 
L 113.723523 265.303742 
L 114.354188 265.303742 
L 114.474315 264.509237 
L 114.92479 264.509237 
L 115.155033 263.714733 
L 115.27516 263.714733 
L 115.375266 262.920228 
L 116.406353 262.920228 
L 116.446396 262.125723 
L 116.726691 262.125723 
L 117.05704 259.74221 
L 117.437441 259.74221 
L 117.567579 258.947705 
L 117.76779 258.947705 
L 117.877906 258.153201 
L 118.258307 258.153201 
L 118.508572 256.564192 
L 119.54967 256.564192 
L 119.629755 255.769687 
L 120.500673 255.769687 
L 120.710895 254.975183 
L 121.711951 254.975183 
L 121.86211 254.180678 
L 122.202469 254.180678 
L 122.452733 252.591669 
L 123.47381 252.591669 
L 123.684032 251.797165 
L 125.185617 251.797165 
L 125.666124 250.208156 
L 126.637148 250.208156 
L 126.707222 248.619146 
L 128.27888 248.619146 
L 128.589208 247.030137 
L 128.709334 246.235633 
L 129.670348 246.235633 
L 129.830517 244.646624 
L 130.270982 244.646624 
L 130.391109 243.852119 
L 130.611341 243.057615 
L 133.184056 243.057615 
L 133.43432 242.26311 
L 133.734637 242.26311 
L 133.894806 241.468606 
L 134.175101 241.468606 
L 134.315249 240.674101 
L 134.555503 239.879597 
L 135.286274 239.879597 
L 135.506506 239.085092 
L 135.686696 239.085092 
L 135.956981 238.290588 
L 136.427478 238.290588 
L 136.737805 237.496083 
L 137.52864 237.496083 
L 137.698819 235.907074 
L 137.71884 235.907074 
L 137.899031 235.112569 
L 138.329485 235.112569 
L 138.659833 233.52356 
L 138.970161 233.52356 
L 139.030224 231.934551 
L 139.6709 231.934551 
L 139.951196 231.140047 
L 140.041291 231.140047 
L 140.181439 230.345542 
L 140.271534 230.345542 
L 140.521798 229.551038 
L 141.192506 229.551038 
L 141.322643 228.756533 
L 141.62296 228.756533 
L 141.693034 227.962029 
L 143.094512 227.962029 
L 143.344776 226.37302 
L 143.865326 226.37302 
L 143.995463 224.784011 
L 144.065537 223.989506 
L 145.446994 223.989506 
L 145.677237 223.195001 
L 146.458061 223.195001 
L 146.638251 222.400497 
L 148.440153 222.400497 
L 148.880617 220.811488 
L 149.351114 220.811488 
L 149.501272 219.222479 
L 150.222033 219.222479 
L 150.252064 218.427974 
L 150.442265 217.63347 
L 150.562392 217.63347 
L 150.782624 216.838965 
L 150.782624 216.044461 
L 150.822666 216.044461 
L 151.823723 216.044461 
L 152.033944 215.249956 
L 152.284208 214.455452 
L 154.666722 214.455452 
L 154.826891 213.660947 
L 155.607715 213.660947 
L 155.837958 212.866443 
L 156.128264 212.866443 
L 156.158296 212.071938 
L 156.708877 212.071938 
L 156.889067 210.482929 
L 157.810039 210.482929 
L 157.900134 209.688424 
L 158.320577 209.688424 
L 158.500768 208.89392 
L 158.861148 208.89392 
L 159.011306 208.099415 
L 159.07137 208.099415 
L 159.631961 207.304911 
L 159.752088 206.510406 
L 159.952299 206.510406 
L 160.072426 205.715902 
L 160.412785 204.921397 
L 161.453883 204.921397 
L 161.604042 203.332388 
L 163.095616 203.332388 
L 163.415954 201.743379 
L 163.786344 201.743379 
L 163.926492 200.948875 
L 163.996566 200.948875 
L 164.086661 199.359866 
L 164.437031 199.359866 
L 164.467063 198.565361 
L 165.067696 198.565361 
L 165.187823 197.770856 
L 167.08983 197.770856 
L 167.199946 196.976352 
L 168.381193 196.976352 
L 168.741573 196.181847 
L 169.031879 196.181847 
L 169.432302 194.592838 
L 169.922819 194.592838 
L 170.032935 192.209325 
L 170.12303 192.209325 
L 170.30322 190.620316 
L 171.224192 190.620316 
L 171.524509 189.825811 
L 171.934942 189.825811 
L 172.165185 189.031307 
L 172.275301 188.236802 
L 173.266347 188.236802 
L 173.576674 187.442298 
L 174.38753 187.442298 
L 174.477625 186.647793 
L 175.538745 186.647793 
L 175.62884 185.853289 
L 175.748966 185.853289 
L 176.039273 183.469775 
L 176.369621 183.469775 
L 176.589854 182.67527 
L 177.140434 182.67527 
L 177.270572 181.880766 
L 177.430741 181.086261 
L 178.411776 181.086261 
L 178.561934 179.497252 
L 178.642019 179.497252 
L 178.742124 178.702748 
L 180.173635 178.702748 
L 180.6141 177.908243 
L 180.854353 177.908243 
L 180.97448 177.113739 
L 181.344871 177.113739 
L 181.595135 176.319234 
L 182.966582 176.319234 
L 183.006624 175.52473 
L 183.206835 174.730225 
L 183.867532 174.730225 
L 183.987659 173.935721 
L 185.058789 173.935721 
L 185.409159 173.141216 
L 186.690511 173.141216 
L 187.03087 172.346711 
L 188.942887 172.346711 
L 189.083035 171.552207 
L 193.127302 171.552207 
L 193.347535 170.757702 
L 194.528781 170.757702 
L 194.899172 169.963198 
L 195.029309 169.963198 
L 195.04933 169.168693 
L 195.489795 169.168693 
L 195.700017 168.374189 
L 196.040376 168.374189 
L 196.080418 167.579684 
L 196.580946 166.78518 
L 197.89233 166.78518 
L 198.132583 165.990675 
L 198.512985 165.990675 
L 198.60308 165.196171 
L 199.614147 165.196171 
L 199.67421 163.607162 
L 199.974527 162.812657 
L 201.44608 162.812657 
L 201.756407 162.018153 
L 202.367051 162.018153 
L 202.487178 161.223648 
L 202.787495 160.429144 
L 202.927643 159.634639 
L 204.148931 159.634639 
L 204.47928 158.840134 
L 204.679491 158.840134 
L 204.859681 158.04563 
L 204.899723 158.04563 
L 205.290135 156.456621 
L 205.610473 156.456621 
L 205.640505 155.662116 
L 207.212163 155.662116 
L 207.432396 154.867612 
L 207.852839 154.867612 
L 208.243251 153.278603 
L 209.884983 153.278603 
L 209.965068 152.484098 
L 210.805955 152.484098 
L 211.336515 151.689594 
L 214.309652 151.689594 
L 214.339684 150.895089 
L 215.010391 150.895089 
L 215.540951 150.100585 
L 216.531997 150.100585 
L 217.082578 148.511576 
L 218.033581 148.511576 
L 218.444014 146.922567 
L 219.735377 146.922567 
L 219.925577 146.128062 
L 221.437172 146.128062 
L 221.507246 145.333557 
L 222.027795 145.333557 
L 222.137912 144.539053 
L 222.418207 144.539053 
L 222.488281 143.744548 
L 222.608408 143.744548 
L 222.938757 142.155539 
L 224.490394 142.155539 
L 224.610521 141.361035 
L 226.56258 141.361035 
L 226.983024 140.56653 
L 229.335506 140.56653 
L 229.715907 139.772026 
L 231.587882 139.772026 
L 231.858168 138.977521 
L 232.418759 138.977521 
L 232.899266 138.183017 
L 233.770185 138.183017 
L 234.170607 137.388512 
L 235.431938 137.388512 
L 235.552065 136.594008 
L 235.672192 136.594008 
L 236.022561 135.799503 
L 236.242794 135.799503 
L 236.242794 135.004999 
L 236.302857 135.004999 
L 236.71329 135.004999 
L 236.853438 134.210494 
L 238.034684 134.210494 
L 238.164822 133.415989 
L 239.316036 133.415989 
L 239.426153 132.621485 
L 239.976734 131.82698 
L 240.637431 131.82698 
L 240.7976 131.032476 
L 244.511518 131.032476 
L 244.54155 130.237971 
L 245.162205 130.237971 
L 245.272321 129.443467 
L 245.312363 129.443467 
L 245.422479 128.648962 
L 248.665902 128.648962 
L 248.846092 127.854458 
L 249.606894 127.854458 
L 249.987296 127.059953 
L 252.219651 127.059953 
L 252.249683 126.265449 
L 252.36981 126.265449 
L 252.820285 124.67644 
L 252.860327 124.67644 
L 253.040517 123.087431 
L 253.701214 123.087431 
L 253.771288 122.292926 
L 254.441996 122.292926 
L 254.542102 121.498422 
L 255.04263 120.703917 
L 255.162756 120.703917 
L 255.192788 119.909412 
L 258.78658 119.909412 
L 258.836633 119.114908 
L 260.858766 119.114908 
L 261.339273 117.525899 
L 262.070044 117.525899 
L 262.550551 116.731394 
L 262.620625 115.93689 
L 265.243393 115.93689 
L 265.533699 115.142385 
L 265.944132 115.142385 
L 265.994185 114.347881 
L 266.384597 114.347881 
L 266.584808 113.553376 
L 266.61484 112.758872 
L 274.903585 112.758872 
L 275.113807 111.964367 
L 275.283986 111.964367 
L 275.364071 111.169863 
L 275.984726 111.169863 
L 276.58536 110.375358 
L 277.005803 110.375358 
L 277.616447 109.580854 
L 277.83668 109.580854 
L 278.177039 108.786349 
L 285.414675 108.786349 
L 285.49476 107.991844 
L 285.85514 107.19734 
L 285.945235 107.19734 
L 286.085383 106.402835 
L 287.566946 106.402835 
L 288.007411 105.608331 
L 288.387812 105.608331 
L 288.69814 104.813826 
L 292.141773 104.813826 
L 292.171805 104.019322 
L 293.583294 104.019322 
L 294.203949 103.224817 
L 294.424181 102.430313 
L 299.729779 102.430313 
L 299.869927 100.841304 
L 300.260339 100.046799 
L 300.340424 100.046799 
L 300.440529 99.252295 
L 301.241374 99.252295 
L 301.581733 98.45779 
L 301.922093 98.45779 
L 302.382578 97.663286 
L 302.602811 97.663286 
L 302.983212 96.868781 
L 305.07542 96.868781 
L 305.105451 96.074277 
L 306.577004 96.074277 
L 306.607036 95.279772 
L 307.277743 95.279772 
L 307.317786 94.485267 
L 308.759307 94.485267 
L 308.789338 93.690763 
L 309.259835 93.690763 
L 309.450035 92.896258 
L 311.692401 92.896258 
L 312.092824 92.101754 
L 313.123912 92.101754 
L 313.123912 91.307249 
L 313.143933 91.307249 
L 313.864693 91.307249 
L 313.944778 90.512745 
L 315.486404 90.512745 
L 315.716647 89.71824 
L 315.986932 89.71824 
L 316.097049 88.923736 
L 327.619206 88.923736 
L 327.729322 87.334727 
L 330.312047 87.334727 
L 330.642396 86.540222 
L 333.775702 86.540222 
L 333.815744 85.745718 
L 338.310486 85.745718 
L 338.520708 84.951213 
L 338.861067 84.951213 
L 339.221447 84.156709 
L 342.64506 84.156709 
L 343.065503 82.5677 
L 344.877415 82.5677 
L 345.287848 80.97869 
L 345.367933 80.97869 
L 345.528102 80.184186 
L 354.247301 80.184186 
L 354.377439 79.389681 
L 357.230449 79.389681 
L 357.470702 78.595177 
L 359.963332 78.595177 
L 360.033406 77.800672 
L 360.934357 77.800672 
L 361.004431 77.006168 
L 370.854824 77.006168 
L 371.32532 75.417159 
L 372.836915 75.417159 
L 372.917 74.622654 
L 373.327433 74.622654 
L 373.347454 73.82815 
L 373.667792 73.82815 
L 373.797929 73.033645 
L 374.458626 73.033645 
L 374.839028 72.239141 
L 377.471806 72.239141 
L 378.002365 70.650132 
L 379.093517 70.650132 
L 379.213643 69.855627 
L 380.364858 69.855627 
L 380.444943 69.061122 
L 391.056139 69.061122 
L 391.536646 68.266618 
L 391.927057 68.266618 
L 392.417575 67.472113 
L 396.391768 67.472113 
L 396.591979 66.677609 
L 405.090947 66.677609 
L 405.471348 65.883104 
L 406.412341 65.883104 
L 406.672616 65.0886 
L 411.047231 65.0886 
L 411.427633 64.294095 
L 411.567781 63.499591 
L 418.174752 63.499591 
L 418.284868 62.705086 
L 426.473508 62.705086 
L 426.543582 61.910582 
L 426.823877 61.910582 
L 427.284363 61.116077 
L 427.444532 61.116077 
L 428.105229 60.321573 
L 436.403985 60.321573 
L 436.403985 59.527068 
L 441.239087 59.527068 
L 442.029921 58.732564 
L 456.565258 58.732564 
L 456.685384 57.938059 
L 457.035754 57.143555 
L 462.171173 57.143555 
L 462.691722 56.34905 
L 470.85033 56.34905 
L 471.270774 55.554545 
L 498.109091 55.554545 
L 498.109091 55.554545 
" style="fill:none;stroke:#2b667c;stroke-linecap:square;stroke-width:1.5;"/>
   </g>
   <g id="line2d_14">
    <path clip-path="url(#p8be7a481f3)" d="M 92.290909 302.645455 
L 498.109091 55.554545 
" style="fill:none;stroke:#ff0000;stroke-linecap:square;stroke-width:1.5;"/>
   </g>
   <g id="patch_3">
    <path d="M 72 315 
L 72 43.2 
" style="fill:none;stroke:#000000;stroke-linecap:square;stroke-linejoin:miter;stroke-width:0.8;"/>
   </g>
   <g id="patch_4">
    <path d="M 518.4 315 
L 518.4 43.2 
" style="fill:none;stroke:#000000;stroke-linecap:square;stroke-linejoin:miter;stroke-width:0.8;"/>
   </g>
   <g id="patch_5">
    <path d="M 72 315 
L 518.4 315 
" style="fill:none;stroke:#000000;stroke-linecap:square;stroke-linejoin:miter;stroke-width:0.8;"/>
   </g>
   <g id="patch_6">
    <path d="M 72 43.2 
L 518.4 43.2 
" style="fill:none;stroke:#000000;stroke-linecap:square;stroke-linejoin:miter;stroke-width:0.8;"/>
   </g>
   <g id="text_15">
    <!-- AZCAPOTZALCO -->
    <g transform="translate(262.54375 37.2)scale(0.08 -0.08)">
     <defs>
      <path d="M 2188 4044 
L 1331 1722 
L 3047 1722 
L 2188 4044 
z
M 1831 4666 
L 2547 4666 
L 4325 0 
L 3669 0 
L 3244 1197 
L 1141 1197 
L 716 0 
L 50 0 
L 1831 4666 
z
" id="DejaVuSans-41" transform="scale(0.015625)"/>
      <path d="M 359 4666 
L 4025 4666 
L 4025 4184 
L 1075 531 
L 4097 531 
L 4097 0 
L 288 0 
L 288 481 
L 3238 4134 
L 359 4134 
L 359 4666 
z
" id="DejaVuSans-5a" transform="scale(0.015625)"/>
      <path d="M 4122 4306 
L 4122 3641 
Q 3803 3938 3442 4084 
Q 3081 4231 2675 4231 
Q 1875 4231 1450 3742 
Q 1025 3253 1025 2328 
Q 1025 1406 1450 917 
Q 1875 428 2675 428 
Q 3081 428 3442 575 
Q 3803 722 4122 1019 
L 4122 359 
Q 3791 134 3420 21 
Q 3050 -91 2638 -91 
Q 1578 -91 968 557 
Q 359 1206 359 2328 
Q 359 3453 968 4101 
Q 1578 4750 2638 4750 
Q 3056 4750 3426 4639 
Q 3797 4528 4122 4306 
z
" id="DejaVuSans-43" transform="scale(0.015625)"/>
      <path d="M 1259 4147 
L 1259 2394 
L 2053 2394 
Q 2494 2394 2734 2622 
Q 2975 2850 2975 3272 
Q 2975 3691 2734 3919 
Q 2494 4147 2053 4147 
L 1259 4147 
z
M 628 4666 
L 2053 4666 
Q 2838 4666 3239 4311 
Q 3641 3956 3641 3272 
Q 3641 2581 3239 2228 
Q 2838 1875 2053 1875 
L 1259 1875 
L 1259 0 
L 628 0 
L 628 4666 
z
" id="DejaVuSans-50" transform="scale(0.015625)"/>
      <path d="M 2522 4238 
Q 1834 4238 1429 3725 
Q 1025 3213 1025 2328 
Q 1025 1447 1429 934 
Q 1834 422 2522 422 
Q 3209 422 3611 934 
Q 4013 1447 4013 2328 
Q 4013 3213 3611 3725 
Q 3209 4238 2522 4238 
z
M 2522 4750 
Q 3503 4750 4090 4092 
Q 4678 3434 4678 2328 
Q 4678 1225 4090 567 
Q 3503 -91 2522 -91 
Q 1538 -91 948 565 
Q 359 1222 359 2328 
Q 359 3434 948 4092 
Q 1538 4750 2522 4750 
z
" id="DejaVuSans-4f" transform="scale(0.015625)"/>
      <path d="M 628 4666 
L 1259 4666 
L 1259 531 
L 3531 531 
L 3531 0 
L 628 0 
L 628 4666 
z
" id="DejaVuSans-4c" transform="scale(0.015625)"/>
     </defs>
     <use xlink:href="#DejaVuSans-41"/>
     <use x="68.408203" xlink:href="#DejaVuSans-5a"/>
     <use x="136.914062" xlink:href="#DejaVuSans-43"/>
     <use x="206.738281" xlink:href="#DejaVuSans-41"/>
     <use x="275.146484" xlink:href="#DejaVuSans-50"/>
     <use x="335.449219" xlink:href="#DejaVuSans-4f"/>
     <use x="414.160156" xlink:href="#DejaVuSans-54"/>
     <use x="475.244141" xlink:href="#DejaVuSans-5a"/>
     <use x="543.75" xlink:href="#DejaVuSans-41"/>
     <use x="612.158203" xlink:href="#DejaVuSans-4c"/>
     <use x="667.871094" xlink:href="#DejaVuSans-43"/>
     <use x="737.695312" xlink:href="#DejaVuSans-4f"/>
    </g>
   </g>
  </g>
  <g id="text_16">
   <!-- ROC Curve -->
   <g transform="translate(244.4125 19.3575)scale(0.16 -0.16)">
    <defs>
     <path d="M 2841 2188 
Q 3044 2119 3236 1894 
Q 3428 1669 3622 1275 
L 4263 0 
L 3584 0 
L 2988 1197 
Q 2756 1666 2539 1819 
Q 2322 1972 1947 1972 
L 1259 1972 
L 1259 0 
L 628 0 
L 628 4666 
L 2053 4666 
Q 2853 4666 3247 4331 
Q 3641 3997 3641 3322 
Q 3641 2881 3436 2590 
Q 3231 2300 2841 2188 
z
M 1259 4147 
L 1259 2491 
L 2053 2491 
Q 2509 2491 2742 2702 
Q 2975 2913 2975 3322 
Q 2975 3731 2742 3939 
Q 2509 4147 2053 4147 
L 1259 4147 
z
" id="DejaVuSans-52" transform="scale(0.015625)"/>
    </defs>
    <use xlink:href="#DejaVuSans-52"/>
    <use x="69.482422" xlink:href="#DejaVuSans-4f"/>
    <use x="148.193359" xlink:href="#DejaVuSans-43"/>
    <use x="218.017578" xlink:href="#DejaVuSans-20"/>
    <use x="249.804688" xlink:href="#DejaVuSans-43"/>
    <use x="319.628906" xlink:href="#DejaVuSans-75"/>
    <use x="383.007812" xlink:href="#DejaVuSans-72"/>
    <use x="424.121094" xlink:href="#DejaVuSans-76"/>
    <use x="483.300781" xlink:href="#DejaVuSans-65"/>
   </g>
  </g>
 </g>
 <defs>
  <clipPath id="p8be7a481f3">
   <rect height="271.8" width="446.4" x="72" y="43.2"/>
  </clipPath>
 </defs>
</svg>
