<?xml version="1.0" encoding="utf-8" standalone="no"?>
<!DOCTYPE svg PUBLIC "-//W3C//DTD SVG 1.1//EN"
  "http://www.w3.org/Graphics/SVG/1.1/DTD/svg11.dtd">
<svg height="360pt" version="1.1" viewBox="0 0 576 360" width="576pt" xmlns="http://www.w3.org/2000/svg" xmlns:xlink="http://www.w3.org/1999/xlink">
 <metadata>
  <rdf:RDF xmlns:cc="http://creativecommons.org/ns#" xmlns:dc="http://purl.org/dc/elements/1.1/" xmlns:rdf="http://www.w3.org/1999/02/22-rdf-syntax-ns#">
   <cc:Work>
    <dc:type rdf:resource="http://purl.org/dc/dcmitype/StillImage"/>
    <dc:date>2022-01-04T18:33:51.284078</dc:date>
    <dc:format>image/svg+xml</dc:format>
    <dc:creator>
     <cc:Agent>
      <dc:title>Matplotlib v3.4.3, https://matplotlib.org/</dc:title>
     </cc:Agent>
    </dc:creator>
   </cc:Work>
  </rdf:RDF>
 </metadata>
 <defs>
  <style type="text/css">*{stroke-linecap:butt;stroke-linejoin:round;}</style>
 </defs>
 <g id="figure_1">
  <g id="patch_1">
   <path d="M 0 360 
L 576 360 
L 576 0 
L 0 0 
z
" style="fill:none;"/>
  </g>
  <g id="axes_1">
   <g id="patch_2">
    <path d="M 72 315 
L 518.4 315 
L 518.4 43.2 
L 72 43.2 
z
" style="fill:#ffffff;"/>
   </g>
   <g id="matplotlib.axis_1">
    <g id="xtick_1">
     <g id="line2d_1">
      <defs>
       <path d="M 0 0 
L 0 3.5 
" id="m5df635895c" style="stroke:#000000;stroke-width:0.8;"/>
      </defs>
      <g>
       <use style="stroke:#000000;stroke-width:0.8;" x="92.290909" xlink:href="#m5df635895c" y="315"/>
      </g>
     </g>
     <g id="text_1">
      <!-- 0.0 -->
      <g transform="translate(84.339347 329.598437)scale(0.1 -0.1)">
       <defs>
        <path d="M 2034 4250 
Q 1547 4250 1301 3770 
Q 1056 3291 1056 2328 
Q 1056 1369 1301 889 
Q 1547 409 2034 409 
Q 2525 409 2770 889 
Q 3016 1369 3016 2328 
Q 3016 3291 2770 3770 
Q 2525 4250 2034 4250 
z
M 2034 4750 
Q 2819 4750 3233 4129 
Q 3647 3509 3647 2328 
Q 3647 1150 3233 529 
Q 2819 -91 2034 -91 
Q 1250 -91 836 529 
Q 422 1150 422 2328 
Q 422 3509 836 4129 
Q 1250 4750 2034 4750 
z
" id="DejaVuSans-30" transform="scale(0.015625)"/>
        <path d="M 684 794 
L 1344 794 
L 1344 0 
L 684 0 
L 684 794 
z
" id="DejaVuSans-2e" transform="scale(0.015625)"/>
       </defs>
       <use xlink:href="#DejaVuSans-30"/>
       <use x="63.623047" xlink:href="#DejaVuSans-2e"/>
       <use x="95.410156" xlink:href="#DejaVuSans-30"/>
      </g>
     </g>
    </g>
    <g id="xtick_2">
     <g id="line2d_2">
      <g>
       <use style="stroke:#000000;stroke-width:0.8;" x="173.454545" xlink:href="#m5df635895c" y="315"/>
      </g>
     </g>
     <g id="text_2">
      <!-- 0.2 -->
      <g transform="translate(165.502983 329.598437)scale(0.1 -0.1)">
       <defs>
        <path d="M 1228 531 
L 3431 531 
L 3431 0 
L 469 0 
L 469 531 
Q 828 903 1448 1529 
Q 2069 2156 2228 2338 
Q 2531 2678 2651 2914 
Q 2772 3150 2772 3378 
Q 2772 3750 2511 3984 
Q 2250 4219 1831 4219 
Q 1534 4219 1204 4116 
Q 875 4013 500 3803 
L 500 4441 
Q 881 4594 1212 4672 
Q 1544 4750 1819 4750 
Q 2544 4750 2975 4387 
Q 3406 4025 3406 3419 
Q 3406 3131 3298 2873 
Q 3191 2616 2906 2266 
Q 2828 2175 2409 1742 
Q 1991 1309 1228 531 
z
" id="DejaVuSans-32" transform="scale(0.015625)"/>
       </defs>
       <use xlink:href="#DejaVuSans-30"/>
       <use x="63.623047" xlink:href="#DejaVuSans-2e"/>
       <use x="95.410156" xlink:href="#DejaVuSans-32"/>
      </g>
     </g>
    </g>
    <g id="xtick_3">
     <g id="line2d_3">
      <g>
       <use style="stroke:#000000;stroke-width:0.8;" x="254.618182" xlink:href="#m5df635895c" y="315"/>
      </g>
     </g>
     <g id="text_3">
      <!-- 0.4 -->
      <g transform="translate(246.666619 329.598437)scale(0.1 -0.1)">
       <defs>
        <path d="M 2419 4116 
L 825 1625 
L 2419 1625 
L 2419 4116 
z
M 2253 4666 
L 3047 4666 
L 3047 1625 
L 3713 1625 
L 3713 1100 
L 3047 1100 
L 3047 0 
L 2419 0 
L 2419 1100 
L 313 1100 
L 313 1709 
L 2253 4666 
z
" id="DejaVuSans-34" transform="scale(0.015625)"/>
       </defs>
       <use xlink:href="#DejaVuSans-30"/>
       <use x="63.623047" xlink:href="#DejaVuSans-2e"/>
       <use x="95.410156" xlink:href="#DejaVuSans-34"/>
      </g>
     </g>
    </g>
    <g id="xtick_4">
     <g id="line2d_4">
      <g>
       <use style="stroke:#000000;stroke-width:0.8;" x="335.781818" xlink:href="#m5df635895c" y="315"/>
      </g>
     </g>
     <g id="text_4">
      <!-- 0.6 -->
      <g transform="translate(327.830256 329.598437)scale(0.1 -0.1)">
       <defs>
        <path d="M 2113 2584 
Q 1688 2584 1439 2293 
Q 1191 2003 1191 1497 
Q 1191 994 1439 701 
Q 1688 409 2113 409 
Q 2538 409 2786 701 
Q 3034 994 3034 1497 
Q 3034 2003 2786 2293 
Q 2538 2584 2113 2584 
z
M 3366 4563 
L 3366 3988 
Q 3128 4100 2886 4159 
Q 2644 4219 2406 4219 
Q 1781 4219 1451 3797 
Q 1122 3375 1075 2522 
Q 1259 2794 1537 2939 
Q 1816 3084 2150 3084 
Q 2853 3084 3261 2657 
Q 3669 2231 3669 1497 
Q 3669 778 3244 343 
Q 2819 -91 2113 -91 
Q 1303 -91 875 529 
Q 447 1150 447 2328 
Q 447 3434 972 4092 
Q 1497 4750 2381 4750 
Q 2619 4750 2861 4703 
Q 3103 4656 3366 4563 
z
" id="DejaVuSans-36" transform="scale(0.015625)"/>
       </defs>
       <use xlink:href="#DejaVuSans-30"/>
       <use x="63.623047" xlink:href="#DejaVuSans-2e"/>
       <use x="95.410156" xlink:href="#DejaVuSans-36"/>
      </g>
     </g>
    </g>
    <g id="xtick_5">
     <g id="line2d_5">
      <g>
       <use style="stroke:#000000;stroke-width:0.8;" x="416.945455" xlink:href="#m5df635895c" y="315"/>
      </g>
     </g>
     <g id="text_5">
      <!-- 0.8 -->
      <g transform="translate(408.993892 329.598437)scale(0.1 -0.1)">
       <defs>
        <path d="M 2034 2216 
Q 1584 2216 1326 1975 
Q 1069 1734 1069 1313 
Q 1069 891 1326 650 
Q 1584 409 2034 409 
Q 2484 409 2743 651 
Q 3003 894 3003 1313 
Q 3003 1734 2745 1975 
Q 2488 2216 2034 2216 
z
M 1403 2484 
Q 997 2584 770 2862 
Q 544 3141 544 3541 
Q 544 4100 942 4425 
Q 1341 4750 2034 4750 
Q 2731 4750 3128 4425 
Q 3525 4100 3525 3541 
Q 3525 3141 3298 2862 
Q 3072 2584 2669 2484 
Q 3125 2378 3379 2068 
Q 3634 1759 3634 1313 
Q 3634 634 3220 271 
Q 2806 -91 2034 -91 
Q 1263 -91 848 271 
Q 434 634 434 1313 
Q 434 1759 690 2068 
Q 947 2378 1403 2484 
z
M 1172 3481 
Q 1172 3119 1398 2916 
Q 1625 2713 2034 2713 
Q 2441 2713 2670 2916 
Q 2900 3119 2900 3481 
Q 2900 3844 2670 4047 
Q 2441 4250 2034 4250 
Q 1625 4250 1398 4047 
Q 1172 3844 1172 3481 
z
" id="DejaVuSans-38" transform="scale(0.015625)"/>
       </defs>
       <use xlink:href="#DejaVuSans-30"/>
       <use x="63.623047" xlink:href="#DejaVuSans-2e"/>
       <use x="95.410156" xlink:href="#DejaVuSans-38"/>
      </g>
     </g>
    </g>
    <g id="xtick_6">
     <g id="line2d_6">
      <g>
       <use style="stroke:#000000;stroke-width:0.8;" x="498.109091" xlink:href="#m5df635895c" y="315"/>
      </g>
     </g>
     <g id="text_6">
      <!-- 1.0 -->
      <g transform="translate(490.157528 329.598437)scale(0.1 -0.1)">
       <defs>
        <path d="M 794 531 
L 1825 531 
L 1825 4091 
L 703 3866 
L 703 4441 
L 1819 4666 
L 2450 4666 
L 2450 531 
L 3481 531 
L 3481 0 
L 794 0 
L 794 531 
z
" id="DejaVuSans-31" transform="scale(0.015625)"/>
       </defs>
       <use xlink:href="#DejaVuSans-31"/>
       <use x="63.623047" xlink:href="#DejaVuSans-2e"/>
       <use x="95.410156" xlink:href="#DejaVuSans-30"/>
      </g>
     </g>
    </g>
    <g id="text_7">
     <!-- False positive rate -->
     <g transform="translate(249.699219 343.276563)scale(0.1 -0.1)">
      <defs>
       <path d="M 628 4666 
L 3309 4666 
L 3309 4134 
L 1259 4134 
L 1259 2759 
L 3109 2759 
L 3109 2228 
L 1259 2228 
L 1259 0 
L 628 0 
L 628 4666 
z
" id="DejaVuSans-46" transform="scale(0.015625)"/>
       <path d="M 2194 1759 
Q 1497 1759 1228 1600 
Q 959 1441 959 1056 
Q 959 750 1161 570 
Q 1363 391 1709 391 
Q 2188 391 2477 730 
Q 2766 1069 2766 1631 
L 2766 1759 
L 2194 1759 
z
M 3341 1997 
L 3341 0 
L 2766 0 
L 2766 531 
Q 2569 213 2275 61 
Q 1981 -91 1556 -91 
Q 1019 -91 701 211 
Q 384 513 384 1019 
Q 384 1609 779 1909 
Q 1175 2209 1959 2209 
L 2766 2209 
L 2766 2266 
Q 2766 2663 2505 2880 
Q 2244 3097 1772 3097 
Q 1472 3097 1187 3025 
Q 903 2953 641 2809 
L 641 3341 
Q 956 3463 1253 3523 
Q 1550 3584 1831 3584 
Q 2591 3584 2966 3190 
Q 3341 2797 3341 1997 
z
" id="DejaVuSans-61" transform="scale(0.015625)"/>
       <path d="M 603 4863 
L 1178 4863 
L 1178 0 
L 603 0 
L 603 4863 
z
" id="DejaVuSans-6c" transform="scale(0.015625)"/>
       <path d="M 2834 3397 
L 2834 2853 
Q 2591 2978 2328 3040 
Q 2066 3103 1784 3103 
Q 1356 3103 1142 2972 
Q 928 2841 928 2578 
Q 928 2378 1081 2264 
Q 1234 2150 1697 2047 
L 1894 2003 
Q 2506 1872 2764 1633 
Q 3022 1394 3022 966 
Q 3022 478 2636 193 
Q 2250 -91 1575 -91 
Q 1294 -91 989 -36 
Q 684 19 347 128 
L 347 722 
Q 666 556 975 473 
Q 1284 391 1588 391 
Q 1994 391 2212 530 
Q 2431 669 2431 922 
Q 2431 1156 2273 1281 
Q 2116 1406 1581 1522 
L 1381 1569 
Q 847 1681 609 1914 
Q 372 2147 372 2553 
Q 372 3047 722 3315 
Q 1072 3584 1716 3584 
Q 2034 3584 2315 3537 
Q 2597 3491 2834 3397 
z
" id="DejaVuSans-73" transform="scale(0.015625)"/>
       <path d="M 3597 1894 
L 3597 1613 
L 953 1613 
Q 991 1019 1311 708 
Q 1631 397 2203 397 
Q 2534 397 2845 478 
Q 3156 559 3463 722 
L 3463 178 
Q 3153 47 2828 -22 
Q 2503 -91 2169 -91 
Q 1331 -91 842 396 
Q 353 884 353 1716 
Q 353 2575 817 3079 
Q 1281 3584 2069 3584 
Q 2775 3584 3186 3129 
Q 3597 2675 3597 1894 
z
M 3022 2063 
Q 3016 2534 2758 2815 
Q 2500 3097 2075 3097 
Q 1594 3097 1305 2825 
Q 1016 2553 972 2059 
L 3022 2063 
z
" id="DejaVuSans-65" transform="scale(0.015625)"/>
       <path id="DejaVuSans-20" transform="scale(0.015625)"/>
       <path d="M 1159 525 
L 1159 -1331 
L 581 -1331 
L 581 3500 
L 1159 3500 
L 1159 2969 
Q 1341 3281 1617 3432 
Q 1894 3584 2278 3584 
Q 2916 3584 3314 3078 
Q 3713 2572 3713 1747 
Q 3713 922 3314 415 
Q 2916 -91 2278 -91 
Q 1894 -91 1617 61 
Q 1341 213 1159 525 
z
M 3116 1747 
Q 3116 2381 2855 2742 
Q 2594 3103 2138 3103 
Q 1681 3103 1420 2742 
Q 1159 2381 1159 1747 
Q 1159 1113 1420 752 
Q 1681 391 2138 391 
Q 2594 391 2855 752 
Q 3116 1113 3116 1747 
z
" id="DejaVuSans-70" transform="scale(0.015625)"/>
       <path d="M 1959 3097 
Q 1497 3097 1228 2736 
Q 959 2375 959 1747 
Q 959 1119 1226 758 
Q 1494 397 1959 397 
Q 2419 397 2687 759 
Q 2956 1122 2956 1747 
Q 2956 2369 2687 2733 
Q 2419 3097 1959 3097 
z
M 1959 3584 
Q 2709 3584 3137 3096 
Q 3566 2609 3566 1747 
Q 3566 888 3137 398 
Q 2709 -91 1959 -91 
Q 1206 -91 779 398 
Q 353 888 353 1747 
Q 353 2609 779 3096 
Q 1206 3584 1959 3584 
z
" id="DejaVuSans-6f" transform="scale(0.015625)"/>
       <path d="M 603 3500 
L 1178 3500 
L 1178 0 
L 603 0 
L 603 3500 
z
M 603 4863 
L 1178 4863 
L 1178 4134 
L 603 4134 
L 603 4863 
z
" id="DejaVuSans-69" transform="scale(0.015625)"/>
       <path d="M 1172 4494 
L 1172 3500 
L 2356 3500 
L 2356 3053 
L 1172 3053 
L 1172 1153 
Q 1172 725 1289 603 
Q 1406 481 1766 481 
L 2356 481 
L 2356 0 
L 1766 0 
Q 1100 0 847 248 
Q 594 497 594 1153 
L 594 3053 
L 172 3053 
L 172 3500 
L 594 3500 
L 594 4494 
L 1172 4494 
z
" id="DejaVuSans-74" transform="scale(0.015625)"/>
       <path d="M 191 3500 
L 800 3500 
L 1894 563 
L 2988 3500 
L 3597 3500 
L 2284 0 
L 1503 0 
L 191 3500 
z
" id="DejaVuSans-76" transform="scale(0.015625)"/>
       <path d="M 2631 2963 
Q 2534 3019 2420 3045 
Q 2306 3072 2169 3072 
Q 1681 3072 1420 2755 
Q 1159 2438 1159 1844 
L 1159 0 
L 581 0 
L 581 3500 
L 1159 3500 
L 1159 2956 
Q 1341 3275 1631 3429 
Q 1922 3584 2338 3584 
Q 2397 3584 2469 3576 
Q 2541 3569 2628 3553 
L 2631 2963 
z
" id="DejaVuSans-72" transform="scale(0.015625)"/>
      </defs>
      <use xlink:href="#DejaVuSans-46"/>
      <use x="48.394531" xlink:href="#DejaVuSans-61"/>
      <use x="109.673828" xlink:href="#DejaVuSans-6c"/>
      <use x="137.457031" xlink:href="#DejaVuSans-73"/>
      <use x="189.556641" xlink:href="#DejaVuSans-65"/>
      <use x="251.080078" xlink:href="#DejaVuSans-20"/>
      <use x="282.867188" xlink:href="#DejaVuSans-70"/>
      <use x="346.34375" xlink:href="#DejaVuSans-6f"/>
      <use x="407.525391" xlink:href="#DejaVuSans-73"/>
      <use x="459.625" xlink:href="#DejaVuSans-69"/>
      <use x="487.408203" xlink:href="#DejaVuSans-74"/>
      <use x="526.617188" xlink:href="#DejaVuSans-69"/>
      <use x="554.400391" xlink:href="#DejaVuSans-76"/>
      <use x="613.580078" xlink:href="#DejaVuSans-65"/>
      <use x="675.103516" xlink:href="#DejaVuSans-20"/>
      <use x="706.890625" xlink:href="#DejaVuSans-72"/>
      <use x="748.003906" xlink:href="#DejaVuSans-61"/>
      <use x="809.283203" xlink:href="#DejaVuSans-74"/>
      <use x="848.492188" xlink:href="#DejaVuSans-65"/>
     </g>
    </g>
   </g>
   <g id="matplotlib.axis_2">
    <g id="ytick_1">
     <g id="line2d_7">
      <defs>
       <path d="M 0 0 
L -3.5 0 
" id="m4ff1ab9075" style="stroke:#000000;stroke-width:0.8;"/>
      </defs>
      <g>
       <use style="stroke:#000000;stroke-width:0.8;" x="72" xlink:href="#m4ff1ab9075" y="302.645455"/>
      </g>
     </g>
     <g id="text_8">
      <!-- 0.0 -->
      <g transform="translate(49.096875 306.444673)scale(0.1 -0.1)">
       <use xlink:href="#DejaVuSans-30"/>
       <use x="63.623047" xlink:href="#DejaVuSans-2e"/>
       <use x="95.410156" xlink:href="#DejaVuSans-30"/>
      </g>
     </g>
    </g>
    <g id="ytick_2">
     <g id="line2d_8">
      <g>
       <use style="stroke:#000000;stroke-width:0.8;" x="72" xlink:href="#m4ff1ab9075" y="253.227273"/>
      </g>
     </g>
     <g id="text_9">
      <!-- 0.2 -->
      <g transform="translate(49.096875 257.026491)scale(0.1 -0.1)">
       <use xlink:href="#DejaVuSans-30"/>
       <use x="63.623047" xlink:href="#DejaVuSans-2e"/>
       <use x="95.410156" xlink:href="#DejaVuSans-32"/>
      </g>
     </g>
    </g>
    <g id="ytick_3">
     <g id="line2d_9">
      <g>
       <use style="stroke:#000000;stroke-width:0.8;" x="72" xlink:href="#m4ff1ab9075" y="203.809091"/>
      </g>
     </g>
     <g id="text_10">
      <!-- 0.4 -->
      <g transform="translate(49.096875 207.60831)scale(0.1 -0.1)">
       <use xlink:href="#DejaVuSans-30"/>
       <use x="63.623047" xlink:href="#DejaVuSans-2e"/>
       <use x="95.410156" xlink:href="#DejaVuSans-34"/>
      </g>
     </g>
    </g>
    <g id="ytick_4">
     <g id="line2d_10">
      <g>
       <use style="stroke:#000000;stroke-width:0.8;" x="72" xlink:href="#m4ff1ab9075" y="154.390909"/>
      </g>
     </g>
     <g id="text_11">
      <!-- 0.6 -->
      <g transform="translate(49.096875 158.190128)scale(0.1 -0.1)">
       <use xlink:href="#DejaVuSans-30"/>
       <use x="63.623047" xlink:href="#DejaVuSans-2e"/>
       <use x="95.410156" xlink:href="#DejaVuSans-36"/>
      </g>
     </g>
    </g>
    <g id="ytick_5">
     <g id="line2d_11">
      <g>
       <use style="stroke:#000000;stroke-width:0.8;" x="72" xlink:href="#m4ff1ab9075" y="104.972727"/>
      </g>
     </g>
     <g id="text_12">
      <!-- 0.8 -->
      <g transform="translate(49.096875 108.771946)scale(0.1 -0.1)">
       <use xlink:href="#DejaVuSans-30"/>
       <use x="63.623047" xlink:href="#DejaVuSans-2e"/>
       <use x="95.410156" xlink:href="#DejaVuSans-38"/>
      </g>
     </g>
    </g>
    <g id="ytick_6">
     <g id="line2d_12">
      <g>
       <use style="stroke:#000000;stroke-width:0.8;" x="72" xlink:href="#m4ff1ab9075" y="55.554545"/>
      </g>
     </g>
     <g id="text_13">
      <!-- 1.0 -->
      <g transform="translate(49.096875 59.353764)scale(0.1 -0.1)">
       <use xlink:href="#DejaVuSans-31"/>
       <use x="63.623047" xlink:href="#DejaVuSans-2e"/>
       <use x="95.410156" xlink:href="#DejaVuSans-30"/>
      </g>
     </g>
    </g>
    <g id="text_14">
     <!-- True positive rate -->
     <g transform="translate(43.017187 222.664062)rotate(-90)scale(0.1 -0.1)">
      <defs>
       <path d="M -19 4666 
L 3928 4666 
L 3928 4134 
L 2272 4134 
L 2272 0 
L 1638 0 
L 1638 4134 
L -19 4134 
L -19 4666 
z
" id="DejaVuSans-54" transform="scale(0.015625)"/>
       <path d="M 544 1381 
L 544 3500 
L 1119 3500 
L 1119 1403 
Q 1119 906 1312 657 
Q 1506 409 1894 409 
Q 2359 409 2629 706 
Q 2900 1003 2900 1516 
L 2900 3500 
L 3475 3500 
L 3475 0 
L 2900 0 
L 2900 538 
Q 2691 219 2414 64 
Q 2138 -91 1772 -91 
Q 1169 -91 856 284 
Q 544 659 544 1381 
z
M 1991 3584 
L 1991 3584 
z
" id="DejaVuSans-75" transform="scale(0.015625)"/>
      </defs>
      <use xlink:href="#DejaVuSans-54"/>
      <use x="46.333984" xlink:href="#DejaVuSans-72"/>
      <use x="87.447266" xlink:href="#DejaVuSans-75"/>
      <use x="150.826172" xlink:href="#DejaVuSans-65"/>
      <use x="212.349609" xlink:href="#DejaVuSans-20"/>
      <use x="244.136719" xlink:href="#DejaVuSans-70"/>
      <use x="307.613281" xlink:href="#DejaVuSans-6f"/>
      <use x="368.794922" xlink:href="#DejaVuSans-73"/>
      <use x="420.894531" xlink:href="#DejaVuSans-69"/>
      <use x="448.677734" xlink:href="#DejaVuSans-74"/>
      <use x="487.886719" xlink:href="#DejaVuSans-69"/>
      <use x="515.669922" xlink:href="#DejaVuSans-76"/>
      <use x="574.849609" xlink:href="#DejaVuSans-65"/>
      <use x="636.373047" xlink:href="#DejaVuSans-20"/>
      <use x="668.160156" xlink:href="#DejaVuSans-72"/>
      <use x="709.273438" xlink:href="#DejaVuSans-61"/>
      <use x="770.552734" xlink:href="#DejaVuSans-74"/>
      <use x="809.761719" xlink:href="#DejaVuSans-65"/>
     </g>
    </g>
   </g>
   <g id="line2d_13">
    <path clip-path="url(#p7afa1c8383)" d="M 92.290909 302.645455 
L 92.428938 301.451779 
L 93.06387 301.451779 
L 93.201899 299.661265 
L 93.35373 299.064427 
L 93.657393 294.886561 
L 93.809225 294.886561 
L 93.905845 293.692885 
L 94.154297 293.692885 
L 94.306128 292.499209 
L 94.568383 292.499209 
L 94.816834 290.708696 
L 95.451766 290.708696 
L 95.575992 290.111858 
L 95.727824 289.51502 
L 95.796838 289.51502 
L 95.94867 288.918182 
L 96.155713 288.321344 
L 96.542193 287.724506 
L 96.928673 287.724506 
L 97.149519 287.127668 
L 97.82586 287.127668 
L 97.867269 286.53083 
L 98.088115 285.933992 
L 98.640229 285.933992 
L 98.792061 285.337154 
L 98.93009 285.337154 
L 99.040513 284.740316 
L 99.109527 284.740316 
L 99.261358 284.143478 
L 99.344176 284.143478 
L 99.647839 282.352964 
L 99.89629 282.352964 
L 100.089531 281.159289 
L 100.158545 281.159289 
L 100.448405 280.562451 
L 100.641645 280.562451 
L 100.724463 279.965613 
L 100.862491 279.965613 
L 100.972914 279.368775 
L 101.497423 279.368775 
L 101.663058 278.175099 
L 101.718269 278.175099 
L 102.049538 276.981423 
L 103.181374 276.981423 
L 103.347008 275.787747 
L 103.402219 275.787747 
L 103.471234 275.190909 
L 103.636868 275.190909 
L 104.106166 273.997233 
L 104.975747 273.997233 
L 105.127578 273.400395 
L 105.196593 273.400395 
L 105.500256 269.819368 
L 105.76251 269.819368 
L 105.803919 269.22253 
L 106.231808 269.22253 
L 106.328428 268.625692 
L 106.811528 267.432016 
L 107.25322 267.432016 
L 107.432658 266.835178 
L 107.584489 265.044664 
L 107.819138 265.044664 
L 107.957167 263.850988 
L 108.674916 263.850988 
L 108.716324 263.25415 
L 109.185622 262.657312 
L 109.351256 262.060474 
L 109.861963 260.866798 
L 109.917174 260.866798 
L 110.13802 260.26996 
L 110.248443 260.26996 
L 110.289852 259.673123 
L 110.869572 259.673123 
L 111.297461 259.076285 
L 111.394081 258.479447 
L 111.72535 256.688933 
L 112.029013 256.688933 
L 112.180845 255.495257 
L 112.553522 255.495257 
L 112.746762 254.898419 
L 112.870988 254.898419 
L 112.995214 254.301581 
L 113.229863 254.301581 
L 113.60254 253.107905 
L 114.030429 253.107905 
L 114.306487 252.511067 
L 114.430713 252.511067 
L 114.596347 251.914229 
L 115.976634 251.914229 
L 116.128466 250.720553 
L 116.432129 248.333202 
L 116.625369 248.333202 
L 116.708186 247.139526 
L 116.873821 246.542688 
L 116.873821 245.94585 
L 116.901426 245.94585 
L 117.136075 245.349012 
L 117.481147 245.349012 
L 117.991853 243.558498 
L 118.185093 243.558498 
L 118.226502 242.96166 
L 118.875237 242.96166 
L 119.027068 242.364822 
L 119.247914 241.767984 
L 119.675803 241.767984 
L 120.103692 241.171146 
L 120.214115 241.171146 
L 120.434961 239.380632 
L 120.890456 238.783794 
L 121.180316 238.783794 
L 121.483979 238.186957 
L 122.615815 238.186957 
L 122.974689 237.590119 
L 123.126521 236.993281 
L 123.513001 236.993281 
L 123.871876 235.799605 
L 124.382582 235.799605 
L 124.562019 235.202767 
L 125.183148 235.202767 
L 125.293571 234.605929 
L 125.735263 234.605929 
L 126.025123 234.009091 
L 126.328787 233.412253 
L 126.425407 233.412253 
L 126.466815 232.815415 
L 127.129353 232.815415 
L 127.460622 231.621739 
L 127.502031 231.024901 
L 128.178371 231.024901 
L 128.233583 230.428063 
L 128.344006 230.428063 
L 128.482034 229.234387 
L 129.116966 229.234387 
L 129.268798 228.637549 
L 129.379221 228.040711 
L 129.627673 228.040711 
L 130.428239 226.847036 
L 130.607676 226.847036 
L 131.284017 225.65336 
L 131.325426 225.056522 
L 132.208809 225.056522 
L 132.360641 224.459684 
L 132.526275 224.459684 
L 132.526275 223.862846 
L 132.622895 223.862846 
L 132.733318 223.862846 
L 133.119799 223.266008 
L 134.030788 223.266008 
L 134.362057 222.66917 
L 134.444874 222.66917 
L 134.555297 222.072332 
L 136.791362 222.072332 
L 136.901785 221.475494 
L 137.177842 221.475494 
L 137.371083 220.878656 
L 137.536717 220.878656 
L 137.578126 220.281818 
L 137.854183 218.491304 
L 138.019818 218.491304 
L 138.13024 217.894466 
L 138.420101 217.297628 
L 139.082639 217.297628 
L 139.23447 216.103953 
L 139.248273 216.103953 
L 139.289682 215.507115 
L 142.036453 215.507115 
L 142.284904 214.910277 
L 142.450539 214.910277 
L 142.450539 214.313439 
L 142.519553 214.313439 
L 143.071668 213.119763 
L 143.458148 210.135573 
L 144.990267 210.135573 
L 145.19731 209.538735 
L 145.473367 209.538735 
L 145.68041 208.941897 
L 146.549991 208.941897 
L 146.646611 207.748221 
L 147.129712 207.748221 
L 147.226332 206.554545 
L 147.488586 206.554545 
L 147.709432 205.957708 
L 147.98549 205.957708 
L 148.192533 205.36087 
L 149.738454 205.36087 
L 150.097329 204.764032 
L 150.304372 203.570356 
L 150.387189 203.570356 
L 150.704655 202.973518 
L 151.753673 202.973518 
L 151.905505 202.37668 
L 152.250577 202.37668 
L 152.637057 201.183004 
L 152.982129 201.183004 
L 153.023537 200.586166 
L 153.589455 200.586166 
L 153.94833 199.989328 
L 155.370025 199.989328 
L 155.411434 199.39249 
L 156.888341 199.39249 
L 157.164398 198.198814 
L 157.371441 198.198814 
L 157.785527 196.4083 
L 158.213416 196.4083 
L 158.696517 194.617787 
L 159.221026 194.617787 
L 159.842155 194.020949 
L 160.573707 194.020949 
L 160.794553 192.230435 
L 161.153428 192.230435 
L 161.263851 191.633597 
L 161.664134 191.633597 
L 161.829768 191.036759 
L 162.823575 191.036759 
L 163.541324 189.246245 
L 164.217665 189.246245 
L 164.410905 188.052569 
L 164.479919 188.052569 
L 164.76978 187.455731 
L 165.004428 187.455731 
L 165.459923 186.858893 
L 166.826407 186.858893 
L 166.867816 186.262055 
L 167.254296 186.262055 
L 167.792608 185.665217 
L 167.889228 185.665217 
L 168.054863 185.068379 
L 168.468949 185.068379 
L 168.745006 184.471542 
L 169.642193 184.471542 
L 170.097687 183.874704 
L 170.497971 183.874704 
L 171.284734 182.08419 
L 171.436566 182.08419 
L 171.643609 181.487352 
L 173.010093 181.487352 
L 173.548405 180.293676 
L 173.852068 179.696838 
L 174.0039 179.1 
L 174.210943 178.503162 
L 175.052918 178.503162 
L 175.052918 177.906324 
L 175.121932 177.906324 
L 177.095743 177.906324 
L 177.302786 176.11581 
L 178.172366 176.11581 
L 178.752087 175.518972 
L 178.931524 175.518972 
L 179.124764 174.922134 
L 180.021951 174.922134 
L 180.104768 173.728458 
L 182.092382 173.728458 
L 182.216607 173.131621 
L 182.975765 173.131621 
L 183.04478 172.534783 
L 183.33464 172.534783 
L 183.472669 171.937945 
L 184.066192 171.937945 
L 184.066192 171.341107 
L 184.121403 171.341107 
L 185.805354 171.341107 
L 186.357468 170.744269 
L 186.467891 170.744269 
L 186.536906 170.147431 
L 186.868175 168.953755 
L 187.102823 168.953755 
L 187.503107 168.356917 
L 187.834375 168.356917 
L 187.889587 167.163241 
L 188.455505 167.163241 
L 188.593533 166.566403 
L 188.759168 166.566403 
L 189.104239 165.969565 
L 191.326502 165.969565 
L 191.726785 165.372727 
L 191.837208 165.372727 
L 191.892419 164.775889 
L 192.196082 164.179051 
L 192.265097 164.179051 
L 192.416928 163.582213 
L 193.465946 163.582213 
L 193.562567 162.985375 
L 194.238907 162.985375 
L 194.280316 162.388538 
L 194.722008 162.388538 
L 194.915248 161.7917 
L 195.439757 161.7917 
L 195.536377 161.194862 
L 196.005675 160.598024 
L 196.116097 160.598024 
L 196.267929 160.001186 
L 196.336943 160.001186 
L 196.474972 159.404348 
L 196.889058 159.404348 
L 197.082298 158.210672 
L 198.062302 158.210672 
L 198.476388 155.82332 
L 199.221743 155.82332 
L 199.539209 154.629644 
L 199.704844 154.629644 
L 200.146536 154.032806 
L 200.298367 153.435968 
L 201.043722 153.435968 
L 201.526823 152.83913 
L 202.161755 152.242292 
L 203.155561 152.242292 
L 203.19697 151.645455 
L 203.445421 151.645455 
L 203.887113 151.048617 
L 205.557261 151.048617 
L 205.557261 150.451779 
L 205.612472 150.451779 
L 206.799519 150.451779 
L 206.840927 149.854941 
L 207.241211 149.854941 
L 207.351634 149.258103 
L 207.834734 149.258103 
L 207.917551 148.661265 
L 208.027974 148.661265 
L 208.083186 148.064427 
L 208.414455 148.064427 
L 208.621498 147.467589 
L 209.132204 147.467589 
L 209.242627 146.273913 
L 209.54629 145.677075 
L 210.319251 145.677075 
L 210.74714 144.483399 
L 211.244043 144.483399 
L 211.575312 143.886561 
L 211.796158 143.886561 
L 211.906581 143.289723 
L 212.182638 142.692885 
L 212.348273 142.692885 
L 212.679542 141.499209 
L 213.949406 141.499209 
L 214.087434 140.902372 
L 214.529126 140.305534 
L 214.639549 140.305534 
L 214.777578 139.708696 
L 214.805183 139.708696 
L 215.357298 138.51502 
L 215.70237 138.51502 
L 216.061245 137.918182 
L 216.254485 137.918182 
L 216.765191 136.724506 
L 217.979844 136.724506 
L 218.518156 136.127668 
L 218.518156 135.53083 
L 218.628578 135.53083 
L 218.849424 135.53083 
L 219.401539 134.933992 
L 219.691399 134.933992 
L 220.202106 134.337154 
L 220.409149 133.143478 
L 221.057884 133.143478 
L 221.513378 132.54664 
L 222.96268 132.54664 
L 223.500992 131.949802 
L 223.83226 131.949802 
L 224.094515 131.352964 
L 224.398178 131.352964 
L 224.757053 130.756126 
L 225.22635 130.756126 
L 225.516211 130.159289 
L 226.482412 130.159289 
L 226.993118 129.562451 
L 227.213964 129.562451 
L 227.393401 128.368775 
L 227.890304 128.368775 
L 227.890304 127.175099 
L 227.973122 127.175099 
L 230.112566 127.175099 
L 230.236792 126.578261 
L 235.0816 126.578261 
L 235.192023 125.981423 
L 237.317665 125.981423 
L 237.717948 124.787747 
L 238.270063 124.787747 
L 238.325274 124.190909 
L 238.532317 124.190909 
L 238.974009 123.594071 
L 239.857393 123.594071 
L 240.009224 122.997233 
L 242.176275 122.997233 
L 242.424726 121.206719 
L 245.337132 121.206719 
L 245.847838 120.609881 
L 246.344742 120.609881 
L 246.800236 120.013043 
L 249.17433 120.013043 
L 249.284753 119.416206 
L 249.450387 119.416206 
L 249.961093 118.819368 
L 251.023914 118.819368 
L 251.065323 118.22253 
L 251.24476 118.22253 
L 251.424198 117.625692 
L 251.465606 117.028854 
L 251.86589 117.028854 
L 251.990115 116.432016 
L 252.73547 116.432016 
L 252.873499 115.835178 
L 254.874915 115.835178 
L 255.095761 114.641502 
L 255.496044 114.641502 
L 255.52365 114.044664 
L 258.574084 114.044664 
L 258.615493 113.447826 
L 259.070988 113.447826 
L 259.181411 112.850988 
L 260.327049 112.850988 
L 260.658318 112.25415 
L 261.983393 112.25415 
L 262.245648 111.657312 
L 264.550727 111.657312 
L 264.812982 111.060474 
L 264.978616 111.060474 
L 265.199462 110.463636 
L 266.193269 110.463636 
L 266.331297 109.26996 
L 268.581165 109.26996 
L 268.953843 108.673123 
L 270.196101 108.673123 
L 270.485961 108.076285 
L 271.631599 108.076285 
L 271.714417 106.882609 
L 272.30794 106.882609 
L 272.818646 106.285771 
L 273.191324 106.285771 
L 273.715833 105.688933 
L 273.826256 105.688933 
L 274.18513 105.092095 
L 274.447385 105.092095 
L 274.502596 103.898419 
L 275.662037 103.898419 
L 276.020912 102.704743 
L 276.255561 102.704743 
L 276.49021 102.107905 
L 276.669647 101.511067 
L 276.752464 101.511067 
L 277.290776 100.914229 
L 278.905712 100.914229 
L 279.444024 100.317391 
L 280.34121 100.317391 
L 280.796705 99.123715 
L 283.502068 99.123715 
L 283.929957 98.526877 
L 285.862358 98.526877 
L 286.20743 97.93004 
L 286.994194 97.93004 
L 287.31166 97.333202 
L 288.305466 97.333202 
L 288.526312 96.736364 
L 290.168854 96.736364 
L 290.831392 96.139526 
L 290.900406 95.542688 
L 291.342098 95.542688 
L 291.438718 94.349012 
L 292.611962 94.349012 
L 292.777596 93.752174 
L 292.901822 93.752174 
L 293.136471 93.155336 
L 293.85422 93.155336 
L 294.254503 91.96166 
L 296.504371 91.96166 
L 296.559583 91.364822 
L 296.821837 91.364822 
L 296.918457 90.767984 
L 299.941286 90.767984 
L 300.051709 90.171146 
L 300.728049 90.171146 
L 300.907487 89.574308 
L 301.390587 89.574308 
L 301.514813 88.97747 
L 302.287774 88.97747 
L 302.536225 87.783794 
L 306.042154 87.783794 
L 306.138775 87.186957 
L 308.526671 87.186957 
L 308.56808 86.590119 
L 309.1478 86.590119 
L 309.410055 85.993281 
L 311.149216 85.993281 
L 311.204428 85.396443 
L 313.633733 85.396443 
L 313.757959 84.799605 
L 316.766984 84.799605 
L 317.070648 83.605929 
L 317.746988 83.605929 
L 318.105863 83.009091 
L 318.354314 83.009091 
L 318.409526 82.412253 
L 319.513756 82.412253 
L 319.665587 81.815415 
L 323.130108 81.815415 
L 323.654617 81.218577 
L 324.524197 81.218577 
L 324.993495 80.621739 
L 325.034904 80.621739 
L 325.159129 80.024901 
L 325.904484 80.024901 
L 326.097725 79.428063 
L 331.950141 79.428063 
L 332.322819 78.831225 
L 333.454654 78.831225 
L 333.854938 78.234387 
L 336.725934 78.234387 
L 336.794949 77.637549 
L 338.216644 77.637549 
L 338.465096 77.040711 
L 340.563132 77.040711 
L 341.03243 76.443874 
L 345.007657 76.443874 
L 345.131882 75.847036 
L 348.334148 75.847036 
L 348.458374 74.65336 
L 348.789643 74.65336 
L 349.010489 74.056522 
L 349.148518 74.056522 
L 349.438378 73.459684 
L 353.123744 73.459684 
L 353.385999 72.862846 
L 356.339813 72.862846 
L 356.450236 72.266008 
L 356.90573 72.266008 
L 357.016153 71.66917 
L 359.335036 71.66917 
L 359.818136 70.475494 
L 360.535885 70.475494 
L 360.6049 69.878656 
L 364.138434 69.878656 
L 364.442098 69.281818 
L 368.941833 69.281818 
L 369.535357 68.68498 
L 370.501557 68.68498 
L 370.736206 68.088142 
L 374.131712 68.088142 
L 374.283544 67.491304 
L 374.79425 66.894466 
L 378.327785 66.894466 
L 378.810885 66.297628 
L 381.04695 66.297628 
L 381.433431 65.700791 
L 382.813718 65.700791 
L 383.227804 64.507115 
L 390.391493 64.507115 
L 390.529522 63.910277 
L 394.007845 63.910277 
L 394.214888 63.313439 
L 394.670383 63.313439 
L 394.905032 62.716601 
L 403.31098 62.716601 
L 403.573234 62.119763 
L 414.684544 62.119763 
L 415.126236 61.522925 
L 416.658355 61.522925 
L 417.265681 59.732411 
L 427.038113 59.732411 
L 427.134733 59.135573 
L 429.702067 59.135573 
L 429.798687 58.538735 
L 438.301255 58.538735 
L 438.453087 57.941897 
L 439.212244 57.941897 
L 439.267456 57.345059 
L 450.406372 57.345059 
L 451.055107 56.748221 
L 452.55962 56.748221 
L 452.601028 56.151383 
L 476.976897 56.151383 
L 478.205352 55.554545 
L 498.109091 55.554545 
L 498.109091 55.554545 
" style="fill:none;stroke:#2b667c;stroke-linecap:square;stroke-width:1.5;"/>
   </g>
   <g id="line2d_14">
    <path clip-path="url(#p7afa1c8383)" d="M 92.290909 302.645455 
L 498.109091 55.554545 
" style="fill:none;stroke:#ff0000;stroke-linecap:square;stroke-width:1.5;"/>
   </g>
   <g id="patch_3">
    <path d="M 72 315 
L 72 43.2 
" style="fill:none;stroke:#000000;stroke-linecap:square;stroke-linejoin:miter;stroke-width:0.8;"/>
   </g>
   <g id="patch_4">
    <path d="M 518.4 315 
L 518.4 43.2 
" style="fill:none;stroke:#000000;stroke-linecap:square;stroke-linejoin:miter;stroke-width:0.8;"/>
   </g>
   <g id="patch_5">
    <path d="M 72 315 
L 518.4 315 
" style="fill:none;stroke:#000000;stroke-linecap:square;stroke-linejoin:miter;stroke-width:0.8;"/>
   </g>
   <g id="patch_6">
    <path d="M 72 43.2 
L 518.4 43.2 
" style="fill:none;stroke:#000000;stroke-linecap:square;stroke-linejoin:miter;stroke-width:0.8;"/>
   </g>
   <g id="text_15">
    <!-- VENUSTIANO CARRANZA -->
    <g transform="translate(245.571875 37.2)scale(0.08 -0.08)">
     <defs>
      <path d="M 1831 0 
L 50 4666 
L 709 4666 
L 2188 738 
L 3669 4666 
L 4325 4666 
L 2547 0 
L 1831 0 
z
" id="DejaVuSans-56" transform="scale(0.015625)"/>
      <path d="M 628 4666 
L 3578 4666 
L 3578 4134 
L 1259 4134 
L 1259 2753 
L 3481 2753 
L 3481 2222 
L 1259 2222 
L 1259 531 
L 3634 531 
L 3634 0 
L 628 0 
L 628 4666 
z
" id="DejaVuSans-45" transform="scale(0.015625)"/>
      <path d="M 628 4666 
L 1478 4666 
L 3547 763 
L 3547 4666 
L 4159 4666 
L 4159 0 
L 3309 0 
L 1241 3903 
L 1241 0 
L 628 0 
L 628 4666 
z
" id="DejaVuSans-4e" transform="scale(0.015625)"/>
      <path d="M 556 4666 
L 1191 4666 
L 1191 1831 
Q 1191 1081 1462 751 
Q 1734 422 2344 422 
Q 2950 422 3222 751 
Q 3494 1081 3494 1831 
L 3494 4666 
L 4128 4666 
L 4128 1753 
Q 4128 841 3676 375 
Q 3225 -91 2344 -91 
Q 1459 -91 1007 375 
Q 556 841 556 1753 
L 556 4666 
z
" id="DejaVuSans-55" transform="scale(0.015625)"/>
      <path d="M 3425 4513 
L 3425 3897 
Q 3066 4069 2747 4153 
Q 2428 4238 2131 4238 
Q 1616 4238 1336 4038 
Q 1056 3838 1056 3469 
Q 1056 3159 1242 3001 
Q 1428 2844 1947 2747 
L 2328 2669 
Q 3034 2534 3370 2195 
Q 3706 1856 3706 1288 
Q 3706 609 3251 259 
Q 2797 -91 1919 -91 
Q 1588 -91 1214 -16 
Q 841 59 441 206 
L 441 856 
Q 825 641 1194 531 
Q 1563 422 1919 422 
Q 2459 422 2753 634 
Q 3047 847 3047 1241 
Q 3047 1584 2836 1778 
Q 2625 1972 2144 2069 
L 1759 2144 
Q 1053 2284 737 2584 
Q 422 2884 422 3419 
Q 422 4038 858 4394 
Q 1294 4750 2059 4750 
Q 2388 4750 2728 4690 
Q 3069 4631 3425 4513 
z
" id="DejaVuSans-53" transform="scale(0.015625)"/>
      <path d="M 628 4666 
L 1259 4666 
L 1259 0 
L 628 0 
L 628 4666 
z
" id="DejaVuSans-49" transform="scale(0.015625)"/>
      <path d="M 2188 4044 
L 1331 1722 
L 3047 1722 
L 2188 4044 
z
M 1831 4666 
L 2547 4666 
L 4325 0 
L 3669 0 
L 3244 1197 
L 1141 1197 
L 716 0 
L 50 0 
L 1831 4666 
z
" id="DejaVuSans-41" transform="scale(0.015625)"/>
      <path d="M 2522 4238 
Q 1834 4238 1429 3725 
Q 1025 3213 1025 2328 
Q 1025 1447 1429 934 
Q 1834 422 2522 422 
Q 3209 422 3611 934 
Q 4013 1447 4013 2328 
Q 4013 3213 3611 3725 
Q 3209 4238 2522 4238 
z
M 2522 4750 
Q 3503 4750 4090 4092 
Q 4678 3434 4678 2328 
Q 4678 1225 4090 567 
Q 3503 -91 2522 -91 
Q 1538 -91 948 565 
Q 359 1222 359 2328 
Q 359 3434 948 4092 
Q 1538 4750 2522 4750 
z
" id="DejaVuSans-4f" transform="scale(0.015625)"/>
      <path d="M 4122 4306 
L 4122 3641 
Q 3803 3938 3442 4084 
Q 3081 4231 2675 4231 
Q 1875 4231 1450 3742 
Q 1025 3253 1025 2328 
Q 1025 1406 1450 917 
Q 1875 428 2675 428 
Q 3081 428 3442 575 
Q 3803 722 4122 1019 
L 4122 359 
Q 3791 134 3420 21 
Q 3050 -91 2638 -91 
Q 1578 -91 968 557 
Q 359 1206 359 2328 
Q 359 3453 968 4101 
Q 1578 4750 2638 4750 
Q 3056 4750 3426 4639 
Q 3797 4528 4122 4306 
z
" id="DejaVuSans-43" transform="scale(0.015625)"/>
      <path d="M 2841 2188 
Q 3044 2119 3236 1894 
Q 3428 1669 3622 1275 
L 4263 0 
L 3584 0 
L 2988 1197 
Q 2756 1666 2539 1819 
Q 2322 1972 1947 1972 
L 1259 1972 
L 1259 0 
L 628 0 
L 628 4666 
L 2053 4666 
Q 2853 4666 3247 4331 
Q 3641 3997 3641 3322 
Q 3641 2881 3436 2590 
Q 3231 2300 2841 2188 
z
M 1259 4147 
L 1259 2491 
L 2053 2491 
Q 2509 2491 2742 2702 
Q 2975 2913 2975 3322 
Q 2975 3731 2742 3939 
Q 2509 4147 2053 4147 
L 1259 4147 
z
" id="DejaVuSans-52" transform="scale(0.015625)"/>
      <path d="M 359 4666 
L 4025 4666 
L 4025 4184 
L 1075 531 
L 4097 531 
L 4097 0 
L 288 0 
L 288 481 
L 3238 4134 
L 359 4134 
L 359 4666 
z
" id="DejaVuSans-5a" transform="scale(0.015625)"/>
     </defs>
     <use xlink:href="#DejaVuSans-56"/>
     <use x="68.408203" xlink:href="#DejaVuSans-45"/>
     <use x="131.591797" xlink:href="#DejaVuSans-4e"/>
     <use x="206.396484" xlink:href="#DejaVuSans-55"/>
     <use x="279.589844" xlink:href="#DejaVuSans-53"/>
     <use x="343.066406" xlink:href="#DejaVuSans-54"/>
     <use x="404.150391" xlink:href="#DejaVuSans-49"/>
     <use x="433.642578" xlink:href="#DejaVuSans-41"/>
     <use x="502.050781" xlink:href="#DejaVuSans-4e"/>
     <use x="576.855469" xlink:href="#DejaVuSans-4f"/>
     <use x="655.566406" xlink:href="#DejaVuSans-20"/>
     <use x="687.353516" xlink:href="#DejaVuSans-43"/>
     <use x="757.177734" xlink:href="#DejaVuSans-41"/>
     <use x="825.585938" xlink:href="#DejaVuSans-52"/>
     <use x="895.068359" xlink:href="#DejaVuSans-52"/>
     <use x="960.550781" xlink:href="#DejaVuSans-41"/>
     <use x="1028.958984" xlink:href="#DejaVuSans-4e"/>
     <use x="1103.763672" xlink:href="#DejaVuSans-5a"/>
     <use x="1172.269531" xlink:href="#DejaVuSans-41"/>
    </g>
   </g>
  </g>
  <g id="text_16">
   <!-- ROC Curve -->
   <g transform="translate(244.4125 19.3575)scale(0.16 -0.16)">
    <use xlink:href="#DejaVuSans-52"/>
    <use x="69.482422" xlink:href="#DejaVuSans-4f"/>
    <use x="148.193359" xlink:href="#DejaVuSans-43"/>
    <use x="218.017578" xlink:href="#DejaVuSans-20"/>
    <use x="249.804688" xlink:href="#DejaVuSans-43"/>
    <use x="319.628906" xlink:href="#DejaVuSans-75"/>
    <use x="383.007812" xlink:href="#DejaVuSans-72"/>
    <use x="424.121094" xlink:href="#DejaVuSans-76"/>
    <use x="483.300781" xlink:href="#DejaVuSans-65"/>
   </g>
  </g>
 </g>
 <defs>
  <clipPath id="p7afa1c8383">
   <rect height="271.8" width="446.4" x="72" y="43.2"/>
  </clipPath>
 </defs>
</svg>
