<?xml version="1.0" encoding="utf-8" standalone="no"?>
<!DOCTYPE svg PUBLIC "-//W3C//DTD SVG 1.1//EN"
  "http://www.w3.org/Graphics/SVG/1.1/DTD/svg11.dtd">
<svg height="360pt" version="1.1" viewBox="0 0 576 360" width="576pt" xmlns="http://www.w3.org/2000/svg" xmlns:xlink="http://www.w3.org/1999/xlink">
 <metadata>
  <rdf:RDF xmlns:cc="http://creativecommons.org/ns#" xmlns:dc="http://purl.org/dc/elements/1.1/" xmlns:rdf="http://www.w3.org/1999/02/22-rdf-syntax-ns#">
   <cc:Work>
    <dc:type rdf:resource="http://purl.org/dc/dcmitype/StillImage"/>
    <dc:date>2022-01-04T19:08:29.358014</dc:date>
    <dc:format>image/svg+xml</dc:format>
    <dc:creator>
     <cc:Agent>
      <dc:title>Matplotlib v3.4.3, https://matplotlib.org/</dc:title>
     </cc:Agent>
    </dc:creator>
   </cc:Work>
  </rdf:RDF>
 </metadata>
 <defs>
  <style type="text/css">*{stroke-linecap:butt;stroke-linejoin:round;}</style>
 </defs>
 <g id="figure_1">
  <g id="patch_1">
   <path d="M 0 360 
L 576 360 
L 576 0 
L 0 0 
z
" style="fill:none;"/>
  </g>
  <g id="axes_1">
   <g id="patch_2">
    <path d="M 72 315 
L 518.4 315 
L 518.4 43.2 
L 72 43.2 
z
" style="fill:#ffffff;"/>
   </g>
   <g id="matplotlib.axis_1">
    <g id="xtick_1">
     <g id="line2d_1">
      <defs>
       <path d="M 0 0 
L 0 3.5 
" id="m9fd3e72d2d" style="stroke:#000000;stroke-width:0.8;"/>
      </defs>
      <g>
       <use style="stroke:#000000;stroke-width:0.8;" x="92.290909" xlink:href="#m9fd3e72d2d" y="315"/>
      </g>
     </g>
     <g id="text_1">
      <!-- 0.0 -->
      <g transform="translate(84.339347 329.598437)scale(0.1 -0.1)">
       <defs>
        <path d="M 2034 4250 
Q 1547 4250 1301 3770 
Q 1056 3291 1056 2328 
Q 1056 1369 1301 889 
Q 1547 409 2034 409 
Q 2525 409 2770 889 
Q 3016 1369 3016 2328 
Q 3016 3291 2770 3770 
Q 2525 4250 2034 4250 
z
M 2034 4750 
Q 2819 4750 3233 4129 
Q 3647 3509 3647 2328 
Q 3647 1150 3233 529 
Q 2819 -91 2034 -91 
Q 1250 -91 836 529 
Q 422 1150 422 2328 
Q 422 3509 836 4129 
Q 1250 4750 2034 4750 
z
" id="DejaVuSans-30" transform="scale(0.015625)"/>
        <path d="M 684 794 
L 1344 794 
L 1344 0 
L 684 0 
L 684 794 
z
" id="DejaVuSans-2e" transform="scale(0.015625)"/>
       </defs>
       <use xlink:href="#DejaVuSans-30"/>
       <use x="63.623047" xlink:href="#DejaVuSans-2e"/>
       <use x="95.410156" xlink:href="#DejaVuSans-30"/>
      </g>
     </g>
    </g>
    <g id="xtick_2">
     <g id="line2d_2">
      <g>
       <use style="stroke:#000000;stroke-width:0.8;" x="173.454545" xlink:href="#m9fd3e72d2d" y="315"/>
      </g>
     </g>
     <g id="text_2">
      <!-- 0.2 -->
      <g transform="translate(165.502983 329.598437)scale(0.1 -0.1)">
       <defs>
        <path d="M 1228 531 
L 3431 531 
L 3431 0 
L 469 0 
L 469 531 
Q 828 903 1448 1529 
Q 2069 2156 2228 2338 
Q 2531 2678 2651 2914 
Q 2772 3150 2772 3378 
Q 2772 3750 2511 3984 
Q 2250 4219 1831 4219 
Q 1534 4219 1204 4116 
Q 875 4013 500 3803 
L 500 4441 
Q 881 4594 1212 4672 
Q 1544 4750 1819 4750 
Q 2544 4750 2975 4387 
Q 3406 4025 3406 3419 
Q 3406 3131 3298 2873 
Q 3191 2616 2906 2266 
Q 2828 2175 2409 1742 
Q 1991 1309 1228 531 
z
" id="DejaVuSans-32" transform="scale(0.015625)"/>
       </defs>
       <use xlink:href="#DejaVuSans-30"/>
       <use x="63.623047" xlink:href="#DejaVuSans-2e"/>
       <use x="95.410156" xlink:href="#DejaVuSans-32"/>
      </g>
     </g>
    </g>
    <g id="xtick_3">
     <g id="line2d_3">
      <g>
       <use style="stroke:#000000;stroke-width:0.8;" x="254.618182" xlink:href="#m9fd3e72d2d" y="315"/>
      </g>
     </g>
     <g id="text_3">
      <!-- 0.4 -->
      <g transform="translate(246.666619 329.598437)scale(0.1 -0.1)">
       <defs>
        <path d="M 2419 4116 
L 825 1625 
L 2419 1625 
L 2419 4116 
z
M 2253 4666 
L 3047 4666 
L 3047 1625 
L 3713 1625 
L 3713 1100 
L 3047 1100 
L 3047 0 
L 2419 0 
L 2419 1100 
L 313 1100 
L 313 1709 
L 2253 4666 
z
" id="DejaVuSans-34" transform="scale(0.015625)"/>
       </defs>
       <use xlink:href="#DejaVuSans-30"/>
       <use x="63.623047" xlink:href="#DejaVuSans-2e"/>
       <use x="95.410156" xlink:href="#DejaVuSans-34"/>
      </g>
     </g>
    </g>
    <g id="xtick_4">
     <g id="line2d_4">
      <g>
       <use style="stroke:#000000;stroke-width:0.8;" x="335.781818" xlink:href="#m9fd3e72d2d" y="315"/>
      </g>
     </g>
     <g id="text_4">
      <!-- 0.6 -->
      <g transform="translate(327.830256 329.598437)scale(0.1 -0.1)">
       <defs>
        <path d="M 2113 2584 
Q 1688 2584 1439 2293 
Q 1191 2003 1191 1497 
Q 1191 994 1439 701 
Q 1688 409 2113 409 
Q 2538 409 2786 701 
Q 3034 994 3034 1497 
Q 3034 2003 2786 2293 
Q 2538 2584 2113 2584 
z
M 3366 4563 
L 3366 3988 
Q 3128 4100 2886 4159 
Q 2644 4219 2406 4219 
Q 1781 4219 1451 3797 
Q 1122 3375 1075 2522 
Q 1259 2794 1537 2939 
Q 1816 3084 2150 3084 
Q 2853 3084 3261 2657 
Q 3669 2231 3669 1497 
Q 3669 778 3244 343 
Q 2819 -91 2113 -91 
Q 1303 -91 875 529 
Q 447 1150 447 2328 
Q 447 3434 972 4092 
Q 1497 4750 2381 4750 
Q 2619 4750 2861 4703 
Q 3103 4656 3366 4563 
z
" id="DejaVuSans-36" transform="scale(0.015625)"/>
       </defs>
       <use xlink:href="#DejaVuSans-30"/>
       <use x="63.623047" xlink:href="#DejaVuSans-2e"/>
       <use x="95.410156" xlink:href="#DejaVuSans-36"/>
      </g>
     </g>
    </g>
    <g id="xtick_5">
     <g id="line2d_5">
      <g>
       <use style="stroke:#000000;stroke-width:0.8;" x="416.945455" xlink:href="#m9fd3e72d2d" y="315"/>
      </g>
     </g>
     <g id="text_5">
      <!-- 0.8 -->
      <g transform="translate(408.993892 329.598437)scale(0.1 -0.1)">
       <defs>
        <path d="M 2034 2216 
Q 1584 2216 1326 1975 
Q 1069 1734 1069 1313 
Q 1069 891 1326 650 
Q 1584 409 2034 409 
Q 2484 409 2743 651 
Q 3003 894 3003 1313 
Q 3003 1734 2745 1975 
Q 2488 2216 2034 2216 
z
M 1403 2484 
Q 997 2584 770 2862 
Q 544 3141 544 3541 
Q 544 4100 942 4425 
Q 1341 4750 2034 4750 
Q 2731 4750 3128 4425 
Q 3525 4100 3525 3541 
Q 3525 3141 3298 2862 
Q 3072 2584 2669 2484 
Q 3125 2378 3379 2068 
Q 3634 1759 3634 1313 
Q 3634 634 3220 271 
Q 2806 -91 2034 -91 
Q 1263 -91 848 271 
Q 434 634 434 1313 
Q 434 1759 690 2068 
Q 947 2378 1403 2484 
z
M 1172 3481 
Q 1172 3119 1398 2916 
Q 1625 2713 2034 2713 
Q 2441 2713 2670 2916 
Q 2900 3119 2900 3481 
Q 2900 3844 2670 4047 
Q 2441 4250 2034 4250 
Q 1625 4250 1398 4047 
Q 1172 3844 1172 3481 
z
" id="DejaVuSans-38" transform="scale(0.015625)"/>
       </defs>
       <use xlink:href="#DejaVuSans-30"/>
       <use x="63.623047" xlink:href="#DejaVuSans-2e"/>
       <use x="95.410156" xlink:href="#DejaVuSans-38"/>
      </g>
     </g>
    </g>
    <g id="xtick_6">
     <g id="line2d_6">
      <g>
       <use style="stroke:#000000;stroke-width:0.8;" x="498.109091" xlink:href="#m9fd3e72d2d" y="315"/>
      </g>
     </g>
     <g id="text_6">
      <!-- 1.0 -->
      <g transform="translate(490.157528 329.598437)scale(0.1 -0.1)">
       <defs>
        <path d="M 794 531 
L 1825 531 
L 1825 4091 
L 703 3866 
L 703 4441 
L 1819 4666 
L 2450 4666 
L 2450 531 
L 3481 531 
L 3481 0 
L 794 0 
L 794 531 
z
" id="DejaVuSans-31" transform="scale(0.015625)"/>
       </defs>
       <use xlink:href="#DejaVuSans-31"/>
       <use x="63.623047" xlink:href="#DejaVuSans-2e"/>
       <use x="95.410156" xlink:href="#DejaVuSans-30"/>
      </g>
     </g>
    </g>
    <g id="text_7">
     <!-- False positive rate -->
     <g transform="translate(249.699219 343.276563)scale(0.1 -0.1)">
      <defs>
       <path d="M 628 4666 
L 3309 4666 
L 3309 4134 
L 1259 4134 
L 1259 2759 
L 3109 2759 
L 3109 2228 
L 1259 2228 
L 1259 0 
L 628 0 
L 628 4666 
z
" id="DejaVuSans-46" transform="scale(0.015625)"/>
       <path d="M 2194 1759 
Q 1497 1759 1228 1600 
Q 959 1441 959 1056 
Q 959 750 1161 570 
Q 1363 391 1709 391 
Q 2188 391 2477 730 
Q 2766 1069 2766 1631 
L 2766 1759 
L 2194 1759 
z
M 3341 1997 
L 3341 0 
L 2766 0 
L 2766 531 
Q 2569 213 2275 61 
Q 1981 -91 1556 -91 
Q 1019 -91 701 211 
Q 384 513 384 1019 
Q 384 1609 779 1909 
Q 1175 2209 1959 2209 
L 2766 2209 
L 2766 2266 
Q 2766 2663 2505 2880 
Q 2244 3097 1772 3097 
Q 1472 3097 1187 3025 
Q 903 2953 641 2809 
L 641 3341 
Q 956 3463 1253 3523 
Q 1550 3584 1831 3584 
Q 2591 3584 2966 3190 
Q 3341 2797 3341 1997 
z
" id="DejaVuSans-61" transform="scale(0.015625)"/>
       <path d="M 603 4863 
L 1178 4863 
L 1178 0 
L 603 0 
L 603 4863 
z
" id="DejaVuSans-6c" transform="scale(0.015625)"/>
       <path d="M 2834 3397 
L 2834 2853 
Q 2591 2978 2328 3040 
Q 2066 3103 1784 3103 
Q 1356 3103 1142 2972 
Q 928 2841 928 2578 
Q 928 2378 1081 2264 
Q 1234 2150 1697 2047 
L 1894 2003 
Q 2506 1872 2764 1633 
Q 3022 1394 3022 966 
Q 3022 478 2636 193 
Q 2250 -91 1575 -91 
Q 1294 -91 989 -36 
Q 684 19 347 128 
L 347 722 
Q 666 556 975 473 
Q 1284 391 1588 391 
Q 1994 391 2212 530 
Q 2431 669 2431 922 
Q 2431 1156 2273 1281 
Q 2116 1406 1581 1522 
L 1381 1569 
Q 847 1681 609 1914 
Q 372 2147 372 2553 
Q 372 3047 722 3315 
Q 1072 3584 1716 3584 
Q 2034 3584 2315 3537 
Q 2597 3491 2834 3397 
z
" id="DejaVuSans-73" transform="scale(0.015625)"/>
       <path d="M 3597 1894 
L 3597 1613 
L 953 1613 
Q 991 1019 1311 708 
Q 1631 397 2203 397 
Q 2534 397 2845 478 
Q 3156 559 3463 722 
L 3463 178 
Q 3153 47 2828 -22 
Q 2503 -91 2169 -91 
Q 1331 -91 842 396 
Q 353 884 353 1716 
Q 353 2575 817 3079 
Q 1281 3584 2069 3584 
Q 2775 3584 3186 3129 
Q 3597 2675 3597 1894 
z
M 3022 2063 
Q 3016 2534 2758 2815 
Q 2500 3097 2075 3097 
Q 1594 3097 1305 2825 
Q 1016 2553 972 2059 
L 3022 2063 
z
" id="DejaVuSans-65" transform="scale(0.015625)"/>
       <path id="DejaVuSans-20" transform="scale(0.015625)"/>
       <path d="M 1159 525 
L 1159 -1331 
L 581 -1331 
L 581 3500 
L 1159 3500 
L 1159 2969 
Q 1341 3281 1617 3432 
Q 1894 3584 2278 3584 
Q 2916 3584 3314 3078 
Q 3713 2572 3713 1747 
Q 3713 922 3314 415 
Q 2916 -91 2278 -91 
Q 1894 -91 1617 61 
Q 1341 213 1159 525 
z
M 3116 1747 
Q 3116 2381 2855 2742 
Q 2594 3103 2138 3103 
Q 1681 3103 1420 2742 
Q 1159 2381 1159 1747 
Q 1159 1113 1420 752 
Q 1681 391 2138 391 
Q 2594 391 2855 752 
Q 3116 1113 3116 1747 
z
" id="DejaVuSans-70" transform="scale(0.015625)"/>
       <path d="M 1959 3097 
Q 1497 3097 1228 2736 
Q 959 2375 959 1747 
Q 959 1119 1226 758 
Q 1494 397 1959 397 
Q 2419 397 2687 759 
Q 2956 1122 2956 1747 
Q 2956 2369 2687 2733 
Q 2419 3097 1959 3097 
z
M 1959 3584 
Q 2709 3584 3137 3096 
Q 3566 2609 3566 1747 
Q 3566 888 3137 398 
Q 2709 -91 1959 -91 
Q 1206 -91 779 398 
Q 353 888 353 1747 
Q 353 2609 779 3096 
Q 1206 3584 1959 3584 
z
" id="DejaVuSans-6f" transform="scale(0.015625)"/>
       <path d="M 603 3500 
L 1178 3500 
L 1178 0 
L 603 0 
L 603 3500 
z
M 603 4863 
L 1178 4863 
L 1178 4134 
L 603 4134 
L 603 4863 
z
" id="DejaVuSans-69" transform="scale(0.015625)"/>
       <path d="M 1172 4494 
L 1172 3500 
L 2356 3500 
L 2356 3053 
L 1172 3053 
L 1172 1153 
Q 1172 725 1289 603 
Q 1406 481 1766 481 
L 2356 481 
L 2356 0 
L 1766 0 
Q 1100 0 847 248 
Q 594 497 594 1153 
L 594 3053 
L 172 3053 
L 172 3500 
L 594 3500 
L 594 4494 
L 1172 4494 
z
" id="DejaVuSans-74" transform="scale(0.015625)"/>
       <path d="M 191 3500 
L 800 3500 
L 1894 563 
L 2988 3500 
L 3597 3500 
L 2284 0 
L 1503 0 
L 191 3500 
z
" id="DejaVuSans-76" transform="scale(0.015625)"/>
       <path d="M 2631 2963 
Q 2534 3019 2420 3045 
Q 2306 3072 2169 3072 
Q 1681 3072 1420 2755 
Q 1159 2438 1159 1844 
L 1159 0 
L 581 0 
L 581 3500 
L 1159 3500 
L 1159 2956 
Q 1341 3275 1631 3429 
Q 1922 3584 2338 3584 
Q 2397 3584 2469 3576 
Q 2541 3569 2628 3553 
L 2631 2963 
z
" id="DejaVuSans-72" transform="scale(0.015625)"/>
      </defs>
      <use xlink:href="#DejaVuSans-46"/>
      <use x="48.394531" xlink:href="#DejaVuSans-61"/>
      <use x="109.673828" xlink:href="#DejaVuSans-6c"/>
      <use x="137.457031" xlink:href="#DejaVuSans-73"/>
      <use x="189.556641" xlink:href="#DejaVuSans-65"/>
      <use x="251.080078" xlink:href="#DejaVuSans-20"/>
      <use x="282.867188" xlink:href="#DejaVuSans-70"/>
      <use x="346.34375" xlink:href="#DejaVuSans-6f"/>
      <use x="407.525391" xlink:href="#DejaVuSans-73"/>
      <use x="459.625" xlink:href="#DejaVuSans-69"/>
      <use x="487.408203" xlink:href="#DejaVuSans-74"/>
      <use x="526.617188" xlink:href="#DejaVuSans-69"/>
      <use x="554.400391" xlink:href="#DejaVuSans-76"/>
      <use x="613.580078" xlink:href="#DejaVuSans-65"/>
      <use x="675.103516" xlink:href="#DejaVuSans-20"/>
      <use x="706.890625" xlink:href="#DejaVuSans-72"/>
      <use x="748.003906" xlink:href="#DejaVuSans-61"/>
      <use x="809.283203" xlink:href="#DejaVuSans-74"/>
      <use x="848.492188" xlink:href="#DejaVuSans-65"/>
     </g>
    </g>
   </g>
   <g id="matplotlib.axis_2">
    <g id="ytick_1">
     <g id="line2d_7">
      <defs>
       <path d="M 0 0 
L -3.5 0 
" id="mc365aeb345" style="stroke:#000000;stroke-width:0.8;"/>
      </defs>
      <g>
       <use style="stroke:#000000;stroke-width:0.8;" x="72" xlink:href="#mc365aeb345" y="302.645455"/>
      </g>
     </g>
     <g id="text_8">
      <!-- 0.0 -->
      <g transform="translate(49.096875 306.444673)scale(0.1 -0.1)">
       <use xlink:href="#DejaVuSans-30"/>
       <use x="63.623047" xlink:href="#DejaVuSans-2e"/>
       <use x="95.410156" xlink:href="#DejaVuSans-30"/>
      </g>
     </g>
    </g>
    <g id="ytick_2">
     <g id="line2d_8">
      <g>
       <use style="stroke:#000000;stroke-width:0.8;" x="72" xlink:href="#mc365aeb345" y="253.227273"/>
      </g>
     </g>
     <g id="text_9">
      <!-- 0.2 -->
      <g transform="translate(49.096875 257.026491)scale(0.1 -0.1)">
       <use xlink:href="#DejaVuSans-30"/>
       <use x="63.623047" xlink:href="#DejaVuSans-2e"/>
       <use x="95.410156" xlink:href="#DejaVuSans-32"/>
      </g>
     </g>
    </g>
    <g id="ytick_3">
     <g id="line2d_9">
      <g>
       <use style="stroke:#000000;stroke-width:0.8;" x="72" xlink:href="#mc365aeb345" y="203.809091"/>
      </g>
     </g>
     <g id="text_10">
      <!-- 0.4 -->
      <g transform="translate(49.096875 207.60831)scale(0.1 -0.1)">
       <use xlink:href="#DejaVuSans-30"/>
       <use x="63.623047" xlink:href="#DejaVuSans-2e"/>
       <use x="95.410156" xlink:href="#DejaVuSans-34"/>
      </g>
     </g>
    </g>
    <g id="ytick_4">
     <g id="line2d_10">
      <g>
       <use style="stroke:#000000;stroke-width:0.8;" x="72" xlink:href="#mc365aeb345" y="154.390909"/>
      </g>
     </g>
     <g id="text_11">
      <!-- 0.6 -->
      <g transform="translate(49.096875 158.190128)scale(0.1 -0.1)">
       <use xlink:href="#DejaVuSans-30"/>
       <use x="63.623047" xlink:href="#DejaVuSans-2e"/>
       <use x="95.410156" xlink:href="#DejaVuSans-36"/>
      </g>
     </g>
    </g>
    <g id="ytick_5">
     <g id="line2d_11">
      <g>
       <use style="stroke:#000000;stroke-width:0.8;" x="72" xlink:href="#mc365aeb345" y="104.972727"/>
      </g>
     </g>
     <g id="text_12">
      <!-- 0.8 -->
      <g transform="translate(49.096875 108.771946)scale(0.1 -0.1)">
       <use xlink:href="#DejaVuSans-30"/>
       <use x="63.623047" xlink:href="#DejaVuSans-2e"/>
       <use x="95.410156" xlink:href="#DejaVuSans-38"/>
      </g>
     </g>
    </g>
    <g id="ytick_6">
     <g id="line2d_12">
      <g>
       <use style="stroke:#000000;stroke-width:0.8;" x="72" xlink:href="#mc365aeb345" y="55.554545"/>
      </g>
     </g>
     <g id="text_13">
      <!-- 1.0 -->
      <g transform="translate(49.096875 59.353764)scale(0.1 -0.1)">
       <use xlink:href="#DejaVuSans-31"/>
       <use x="63.623047" xlink:href="#DejaVuSans-2e"/>
       <use x="95.410156" xlink:href="#DejaVuSans-30"/>
      </g>
     </g>
    </g>
    <g id="text_14">
     <!-- True positive rate -->
     <g transform="translate(43.017187 222.664062)rotate(-90)scale(0.1 -0.1)">
      <defs>
       <path d="M -19 4666 
L 3928 4666 
L 3928 4134 
L 2272 4134 
L 2272 0 
L 1638 0 
L 1638 4134 
L -19 4134 
L -19 4666 
z
" id="DejaVuSans-54" transform="scale(0.015625)"/>
       <path d="M 544 1381 
L 544 3500 
L 1119 3500 
L 1119 1403 
Q 1119 906 1312 657 
Q 1506 409 1894 409 
Q 2359 409 2629 706 
Q 2900 1003 2900 1516 
L 2900 3500 
L 3475 3500 
L 3475 0 
L 2900 0 
L 2900 538 
Q 2691 219 2414 64 
Q 2138 -91 1772 -91 
Q 1169 -91 856 284 
Q 544 659 544 1381 
z
M 1991 3584 
L 1991 3584 
z
" id="DejaVuSans-75" transform="scale(0.015625)"/>
      </defs>
      <use xlink:href="#DejaVuSans-54"/>
      <use x="46.333984" xlink:href="#DejaVuSans-72"/>
      <use x="87.447266" xlink:href="#DejaVuSans-75"/>
      <use x="150.826172" xlink:href="#DejaVuSans-65"/>
      <use x="212.349609" xlink:href="#DejaVuSans-20"/>
      <use x="244.136719" xlink:href="#DejaVuSans-70"/>
      <use x="307.613281" xlink:href="#DejaVuSans-6f"/>
      <use x="368.794922" xlink:href="#DejaVuSans-73"/>
      <use x="420.894531" xlink:href="#DejaVuSans-69"/>
      <use x="448.677734" xlink:href="#DejaVuSans-74"/>
      <use x="487.886719" xlink:href="#DejaVuSans-69"/>
      <use x="515.669922" xlink:href="#DejaVuSans-76"/>
      <use x="574.849609" xlink:href="#DejaVuSans-65"/>
      <use x="636.373047" xlink:href="#DejaVuSans-20"/>
      <use x="668.160156" xlink:href="#DejaVuSans-72"/>
      <use x="709.273438" xlink:href="#DejaVuSans-61"/>
      <use x="770.552734" xlink:href="#DejaVuSans-74"/>
      <use x="809.761719" xlink:href="#DejaVuSans-65"/>
     </g>
    </g>
   </g>
   <g id="line2d_13">
    <path clip-path="url(#p61e595d6f5)" d="M 92.290909 302.645455 
L 92.409972 301.995215 
L 92.585434 301.995215 
L 92.717031 301.344976 
L 92.892493 301.344976 
L 93.074221 300.044498 
L 93.105553 300.044498 
L 93.23715 298.744019 
L 93.400079 298.744019 
L 93.500343 298.09378 
L 93.650738 298.09378 
L 93.725936 297.443541 
L 93.882599 297.443541 
L 94.020462 296.793301 
L 94.177124 296.793301 
L 94.277388 296.143062 
L 94.408984 296.143062 
L 94.534314 294.842584 
L 94.628312 294.842584 
L 94.741108 294.192344 
L 94.860172 293.542105 
L 94.897771 293.542105 
L 95.016834 292.891866 
L 95.211096 292.891866 
L 95.411623 289.64067 
L 95.436689 289.64067 
L 95.580819 288.990431 
L 96.050806 288.990431 
L 96.213735 287.039713 
L 96.621057 284.438756 
L 96.671189 284.438756 
L 96.821585 283.138278 
L 96.871717 283.138278 
L 97.228907 281.18756 
L 97.749026 281.18756 
L 97.924488 280.537321 
L 97.95582 280.537321 
L 98.087416 278.586603 
L 98.168881 278.586603 
L 98.275411 277.936364 
L 98.494739 277.936364 
L 98.58247 276.635885 
L 98.908327 275.335407 
L 98.989792 275.335407 
L 99.008591 274.685167 
L 99.234185 274.685167 
L 99.478578 272.73445 
L 99.541243 272.73445 
L 99.716705 270.783732 
L 99.741771 270.783732 
L 100.048829 270.133493 
L 100.073895 270.133493 
L 100.192959 269.483254 
L 100.399753 268.833014 
L 100.86974 268.833014 
L 101.24573 266.882297 
L 101.358527 266.232057 
L 101.389859 266.232057 
L 101.715717 261.030144 
L 101.935044 261.030144 
L 102.279701 257.128708 
L 102.824886 254.527751 
L 102.856219 254.527751 
L 103.019148 253.227273 
L 103.044214 253.227273 
L 103.232208 252.577033 
L 103.332472 252.577033 
L 103.476602 251.276555 
L 103.626998 251.276555 
L 103.727261 250.626316 
L 104.01552 250.626316 
L 104.147117 249.976077 
L 104.360177 249.976077 
L 104.504307 248.675598 
L 104.698568 248.675598 
L 104.823898 248.025359 
L 104.949228 248.025359 
L 105.018159 246.72488 
L 105.206154 246.72488 
L 105.438014 245.424402 
L 105.619743 244.774163 
L 105.933068 244.774163 
L 106.045864 243.473684 
L 106.522118 243.473684 
L 106.647448 242.173206 
L 106.69758 242.173206 
L 106.860509 241.522967 
L 106.960773 241.522967 
L 107.086103 240.872727 
L 107.111169 240.872727 
L 107.368095 239.572249 
L 107.543557 237.621531 
L 107.593689 237.621531 
L 107.800483 236.971292 
L 107.994744 236.971292 
L 108.232871 235.670813 
L 108.652726 235.670813 
L 108.828188 235.020574 
L 109.705497 235.020574 
L 109.993756 234.370335 
L 110.213083 234.370335 
L 110.32588 233.720096 
L 110.463743 233.069856 
L 110.958796 233.069856 
L 110.996395 232.419617 
L 111.171857 231.769378 
L 111.240788 230.4689 
L 111.591712 230.4689 
L 112.017834 229.168421 
L 112.0429 229.168421 
L 112.161963 228.518182 
L 112.475288 227.867943 
L 112.713415 227.867943 
L 112.838744 227.217703 
L 113.139536 227.217703 
L 113.340064 226.567464 
L 113.609523 226.567464 
L 113.778719 225.917225 
L 113.828851 225.917225 
L 113.985513 225.266986 
L 115.182413 225.266986 
L 115.433073 224.616746 
L 115.646134 224.616746 
L 115.77773 223.966507 
L 116.191319 223.966507 
L 116.360514 223.316268 
L 116.698905 223.316268 
L 116.8681 222.666029 
L 116.949565 222.666029 
L 117.175159 222.015789 
L 117.256623 222.015789 
L 117.275423 221.36555 
L 117.463417 221.36555 
L 117.60128 220.065072 
L 117.895805 220.065072 
L 117.939671 219.414833 
L 118.221663 219.414833 
L 118.240463 218.764593 
L 118.491122 218.764593 
L 118.597653 218.114354 
L 118.848313 218.114354 
L 119.017508 217.464115 
L 119.750688 217.464115 
L 119.850952 216.813876 
L 119.982548 216.813876 
L 120.120411 215.513397 
L 120.371071 214.863158 
L 120.540266 214.863158 
L 120.684396 213.562679 
L 120.884923 212.91244 
L 121.035319 211.611962 
L 121.304778 211.611962 
L 121.436375 210.961722 
L 121.530372 210.961722 
L 121.793565 210.311483 
L 122.708473 210.311483 
L 122.846336 209.661244 
L 123.034331 209.661244 
L 123.128328 209.011005 
L 123.32259 209.011005 
L 123.466719 207.710526 
L 124.1435 205.759809 
L 124.738817 205.759809 
L 124.889213 205.109569 
L 125.096008 205.109569 
L 125.096008 204.45933 
L 125.428132 203.158852 
L 125.75399 203.158852 
L 125.829187 202.508612 
L 126.957156 202.508612 
L 127.019821 201.858373 
L 127.301814 201.858373 
L 127.427144 201.208134 
L 127.652737 200.557895 
L 127.753001 200.557895 
L 127.872065 199.257416 
L 128.843371 199.257416 
L 128.912303 198.607177 
L 129.526419 198.607177 
L 129.733214 197.956938 
L 129.940008 197.956938 
L 129.99014 197.306699 
L 132.246078 197.306699 
L 132.477938 196.656459 
L 133.449245 196.656459 
L 133.549509 195.355981 
L 134.514549 195.355981 
L 134.589747 194.705742 
L 135.930777 194.705742 
L 136.056106 194.055502 
L 136.225302 194.055502 
L 136.344365 192.104785 
L 136.895817 192.104785 
L 136.996081 191.454545 
L 137.459801 191.454545 
L 137.591398 190.804306 
L 137.99872 190.804306 
L 138.092717 190.154067 
L 139.120422 190.154067 
L 139.258285 189.503828 
L 140.279724 189.503828 
L 140.405054 188.853589 
L 141.37636 188.853589 
L 141.37636 188.203349 
L 141.439025 188.203349 
L 141.990477 188.203349 
L 142.034342 187.55311 
L 143.34404 187.55311 
L 143.481902 186.902871 
L 144.735201 186.902871 
L 144.904397 185.602392 
L 145.035993 185.602392 
L 145.111191 184.952153 
L 145.27412 184.952153 
L 145.324252 184.301914 
L 146.934741 184.301914 
L 147.016205 183.651675 
L 148.06271 183.651675 
L 148.18804 183.001435 
L 149.554136 183.001435 
L 149.572935 182.351196 
L 150.556775 182.351196 
L 150.575574 181.700957 
L 151.31502 181.700957 
L 151.490482 180.400478 
L 152.023134 180.400478 
L 152.041934 179.750239 
L 153.245101 179.750239 
L 153.307766 179.1 
L 153.508294 179.1 
L 153.677489 178.449761 
L 154.535999 178.449761 
L 154.636263 177.149282 
L 154.993453 177.149282 
L 155.237846 176.499043 
L 156.478612 176.499043 
L 156.622741 175.848804 
L 157.16166 175.848804 
L 157.28699 175.198565 
L 158.139233 175.198565 
L 158.320961 174.548325 
L 158.540289 174.548325 
L 158.621753 173.247847 
L 158.997743 171.297129 
L 159.386265 171.297129 
L 159.405065 170.64689 
L 160.207176 170.64689 
L 160.338773 169.346411 
L 160.68343 169.346411 
L 160.833826 168.696172 
L 160.858892 168.696172 
L 161.090752 168.045933 
L 161.604604 168.045933 
L 161.811399 167.395694 
L 161.924196 167.395694 
L 162.199921 166.095215 
L 163.490819 166.095215 
L 163.672548 164.794737 
L 164.07987 164.794737 
L 164.424527 162.844019 
L 164.881981 162.844019 
L 165.076242 162.19378 
L 165.226638 162.19378 
L 165.377034 161.543541 
L 165.608894 161.543541 
L 165.702892 160.893301 
L 167.401112 160.893301 
L 167.632972 160.243062 
L 167.921231 160.243062 
L 168.027761 159.592823 
L 168.278421 159.592823 
L 168.453883 158.942584 
L 169.243461 158.942584 
L 169.462788 158.292344 
L 170.101971 158.292344 
L 170.377697 157.642105 
L 170.609557 157.642105 
L 170.841417 156.991866 
L 170.922882 156.991866 
L 171.060745 156.341627 
L 171.092077 156.341627 
L 171.21114 155.691388 
L 172.621102 155.691388 
L 172.715099 155.041148 
L 172.846695 154.390909 
L 173.116155 153.74067 
L 173.874401 153.74067 
L 173.943332 153.090431 
L 175.334494 153.090431 
L 175.434758 152.440191 
L 176.825919 152.440191 
L 177.026447 151.789952 
L 177.258308 151.789952 
L 177.258308 150.489474 
L 177.358572 150.489474 
L 177.753361 150.489474 
L 177.878691 149.839234 
L 179.921568 149.839234 
L 180.059431 149.188995 
L 180.45422 149.188995 
L 180.554484 148.538756 
L 181.037004 148.538756 
L 181.243798 147.238278 
L 181.713785 147.238278 
L 181.79525 146.588038 
L 181.926846 146.588038 
L 182.221371 145.28756 
L 182.672559 143.987081 
L 183.104947 143.987081 
L 183.261609 143.336842 
L 185.028761 143.336842 
L 185.348352 142.686603 
L 186.896176 142.686603 
L 187.077904 142.036364 
L 187.328564 142.036364 
L 187.37243 141.386124 
L 189.095716 141.386124 
L 189.246112 140.735885 
L 191.514583 140.735885 
L 191.633646 140.085646 
L 191.721377 140.085646 
L 191.915638 139.435407 
L 192.040968 138.785167 
L 195.731933 138.785167 
L 195.869796 137.484689 
L 197.806143 137.484689 
L 197.931473 136.83445 
L 198.451592 136.83445 
L 198.576922 136.184211 
L 199.00931 136.184211 
L 199.159706 135.533971 
L 200.062081 135.533971 
L 200.149812 134.883732 
L 200.362873 134.883732 
L 200.5822 133.583254 
L 201.077253 133.583254 
L 201.346712 132.933014 
L 203.778112 132.933014 
L 204.154102 132.282775 
L 204.69302 132.282775 
L 204.918614 131.632536 
L 206.836161 131.632536 
L 206.980291 130.982297 
L 207.243484 130.982297 
L 207.519209 130.332057 
L 208.208524 130.332057 
L 208.509316 129.031579 
L 208.603313 127.7311 
L 208.991836 127.7311 
L 209.098366 127.080861 
L 210.965781 127.080861 
L 211.116177 126.430622 
L 213.046258 126.430622 
L 213.253052 125.780383 
L 214.449952 125.780383 
L 214.581549 125.130144 
L 216.442698 125.130144 
L 216.668291 124.479904 
L 216.893885 124.479904 
L 216.981616 123.829665 
L 218.27878 123.829665 
L 218.473042 123.179426 
L 223.147847 123.179426 
L 223.298242 122.529187 
L 224.551541 122.529187 
L 224.60794 121.878947 
L 225.566713 121.878947 
L 225.779774 121.228708 
L 226.143231 121.228708 
L 226.350025 120.578469 
L 226.957875 120.578469 
L 227.214802 119.92823 
L 228.392902 119.92823 
L 228.461834 119.27799 
L 229.627402 119.27799 
L 229.878062 118.627751 
L 232.253063 118.627751 
L 232.403459 117.977512 
L 233.863552 117.977512 
L 233.926217 117.327273 
L 234.06408 117.327273 
L 234.18941 116.677033 
L 234.477669 116.677033 
L 234.772194 115.376555 
L 234.897524 115.376555 
L 235.041653 114.726316 
L 236.833871 114.726316 
L 236.890269 114.076077 
L 237.20986 114.076077 
L 237.56705 113.425837 
L 237.886642 113.425837 
L 237.905441 112.775598 
L 239.810455 112.775598 
L 240.180179 112.125359 
L 242.705576 112.125359 
L 242.824639 111.47512 
L 243.344758 111.47512 
L 243.382357 110.82488 
L 244.823651 110.82488 
L 245.005379 110.174641 
L 246.390275 110.174641 
L 246.471739 109.524402 
L 248.013297 109.524402 
L 248.107294 108.874163 
L 248.220091 108.874163 
L 248.589814 108.223923 
L 251.322006 108.223923 
L 251.397204 107.573684 
L 255.721085 107.573684 
L 255.796283 106.923445 
L 256.698658 106.923445 
L 256.742523 106.273206 
L 258.052221 106.273206 
L 258.353013 105.622967 
L 258.459543 104.972727 
L 259.449649 104.972727 
L 259.543646 104.322488 
L 260.157763 104.322488 
L 260.283093 103.672249 
L 261.041339 103.672249 
L 261.091471 103.02201 
L 262.21944 103.02201 
L 262.313437 102.37177 
L 262.990218 102.37177 
L 263.05915 101.721531 
L 265.302555 101.721531 
L 265.409085 101.071292 
L 265.647212 100.421053 
L 265.866539 100.421053 
L 265.948004 99.770813 
L 266.305194 99.770813 
L 266.443057 99.120574 
L 268.053546 99.120574 
L 268.460868 97.169856 
L 269.074985 97.169856 
L 269.093784 96.519617 
L 269.181515 96.519617 
L 270.472413 96.519617 
L 270.591476 95.869378 
L 271.506384 95.869378 
L 271.825976 95.219139 
L 274.276175 95.219139 
L 274.351373 94.5689 
L 275.247482 94.5689 
L 275.560806 93.91866 
L 278.675254 93.91866 
L 278.957246 93.268421 
L 281.802235 93.268421 
L 282.303554 91.967943 
L 283.287394 91.967943 
L 283.581919 91.317703 
L 284.196036 91.317703 
L 284.227368 90.667464 
L 286.47704 90.667464 
L 286.790364 90.017225 
L 288.363255 90.017225 
L 288.570049 89.366986 
L 290.700657 89.366986 
L 290.869852 88.716746 
L 295.55719 88.716746 
L 295.795317 88.066507 
L 295.845449 88.066507 
L 295.970779 87.416268 
L 295.983312 87.416268 
L 296.284104 86.766029 
L 297.305542 86.766029 
L 297.324342 86.115789 
L 298.496176 86.115789 
L 298.496176 85.46555 
L 298.558841 85.46555 
L 302.312471 85.46555 
L 302.70726 84.815311 
L 306.442091 84.815311 
L 306.485957 84.165072 
L 308.07138 84.165072 
L 308.17791 83.514833 
L 313.065776 83.514833 
L 313.422966 82.864593 
L 313.955618 82.864593 
L 314.11228 82.214354 
L 314.388006 81.564115 
L 326.488607 81.564115 
L 326.588871 80.263636 
L 328.569083 80.263636 
L 328.669347 79.613397 
L 332.986962 79.613397 
L 333.369218 78.963158 
L 333.513347 78.312919 
L 339.629446 78.312919 
L 339.930238 77.662679 
L 341.703655 77.662679 
L 342.01698 77.01244 
L 344.041058 77.01244 
L 344.172654 76.362201 
L 345.55755 76.362201 
L 345.833275 75.711962 
L 346.87978 75.711962 
L 346.898579 75.061722 
L 351.203661 75.061722 
L 351.303925 74.411483 
L 356.003796 74.411483 
L 356.154192 73.761244 
L 359.513033 73.761244 
L 359.939154 73.111005 
L 360.08955 73.111005 
L 360.208614 72.460766 
L 360.365276 72.460766 
L 360.760065 71.810526 
L 362.182559 71.810526 
L 362.257757 71.160287 
L 365.491268 71.160287 
L 365.566466 70.510048 
L 367.822404 70.510048 
L 368.091864 69.859809 
L 368.192128 69.859809 
L 368.398922 69.209569 
L 373.625178 69.209569 
L 373.706643 68.55933 
L 377.855062 68.55933 
L 378.425313 67.909091 
L 380.781515 67.909091 
L 381.019642 67.258852 
L 382.172677 67.258852 
L 382.598798 66.608612 
L 386.766017 66.608612 
L 386.816149 65.958373 
L 394.686866 65.958373 
L 395.194452 65.308134 
L 399.737661 65.308134 
L 399.90059 64.657895 
L 408.773946 64.657895 
L 408.893009 64.007656 
L 409.870582 64.007656 
L 409.958313 63.357416 
L 411.061216 63.357416 
L 411.606401 62.707177 
L 411.781863 62.056938 
L 412.521309 62.056938 
L 412.671705 61.406699 
L 417.434241 61.406699 
L 417.991959 60.756459 
L 421.795721 60.756459 
L 422.058914 60.10622 
L 431.41479 60.10622 
L 431.734381 59.455981 
L 432.661823 59.455981 
L 433.551665 58.805742 
L 435.481745 58.805742 
L 435.650941 58.155502 
L 446.648638 58.155502 
L 447.582346 57.505263 
L 451.505172 57.505263 
L 451.711966 56.855024 
L 465.886776 56.855024 
L 467.183941 56.204785 
L 479.660531 56.204785 
L 479.71693 55.554545 
L 498.109091 55.554545 
L 498.109091 55.554545 
" style="fill:none;stroke:#2b667c;stroke-linecap:square;stroke-width:1.5;"/>
   </g>
   <g id="line2d_14">
    <path clip-path="url(#p61e595d6f5)" d="M 92.290909 302.645455 
L 498.109091 55.554545 
" style="fill:none;stroke:#ff0000;stroke-linecap:square;stroke-width:1.5;"/>
   </g>
   <g id="patch_3">
    <path d="M 72 315 
L 72 43.2 
" style="fill:none;stroke:#000000;stroke-linecap:square;stroke-linejoin:miter;stroke-width:0.8;"/>
   </g>
   <g id="patch_4">
    <path d="M 518.4 315 
L 518.4 43.2 
" style="fill:none;stroke:#000000;stroke-linecap:square;stroke-linejoin:miter;stroke-width:0.8;"/>
   </g>
   <g id="patch_5">
    <path d="M 72 315 
L 518.4 315 
" style="fill:none;stroke:#000000;stroke-linecap:square;stroke-linejoin:miter;stroke-width:0.8;"/>
   </g>
   <g id="patch_6">
    <path d="M 72 43.2 
L 518.4 43.2 
" style="fill:none;stroke:#000000;stroke-linecap:square;stroke-linejoin:miter;stroke-width:0.8;"/>
   </g>
   <g id="text_15">
    <!-- TLALPAN -->
    <g transform="translate(277.5875 37.2)scale(0.08 -0.08)">
     <defs>
      <path d="M 628 4666 
L 1259 4666 
L 1259 531 
L 3531 531 
L 3531 0 
L 628 0 
L 628 4666 
z
" id="DejaVuSans-4c" transform="scale(0.015625)"/>
      <path d="M 2188 4044 
L 1331 1722 
L 3047 1722 
L 2188 4044 
z
M 1831 4666 
L 2547 4666 
L 4325 0 
L 3669 0 
L 3244 1197 
L 1141 1197 
L 716 0 
L 50 0 
L 1831 4666 
z
" id="DejaVuSans-41" transform="scale(0.015625)"/>
      <path d="M 1259 4147 
L 1259 2394 
L 2053 2394 
Q 2494 2394 2734 2622 
Q 2975 2850 2975 3272 
Q 2975 3691 2734 3919 
Q 2494 4147 2053 4147 
L 1259 4147 
z
M 628 4666 
L 2053 4666 
Q 2838 4666 3239 4311 
Q 3641 3956 3641 3272 
Q 3641 2581 3239 2228 
Q 2838 1875 2053 1875 
L 1259 1875 
L 1259 0 
L 628 0 
L 628 4666 
z
" id="DejaVuSans-50" transform="scale(0.015625)"/>
      <path d="M 628 4666 
L 1478 4666 
L 3547 763 
L 3547 4666 
L 4159 4666 
L 4159 0 
L 3309 0 
L 1241 3903 
L 1241 0 
L 628 0 
L 628 4666 
z
" id="DejaVuSans-4e" transform="scale(0.015625)"/>
     </defs>
     <use xlink:href="#DejaVuSans-54"/>
     <use x="61.083984" xlink:href="#DejaVuSans-4c"/>
     <use x="119.046875" xlink:href="#DejaVuSans-41"/>
     <use x="187.455078" xlink:href="#DejaVuSans-4c"/>
     <use x="243.167969" xlink:href="#DejaVuSans-50"/>
     <use x="297.095703" xlink:href="#DejaVuSans-41"/>
     <use x="365.503906" xlink:href="#DejaVuSans-4e"/>
    </g>
   </g>
  </g>
  <g id="text_16">
   <!-- ROC Curve -->
   <g transform="translate(244.4125 19.3575)scale(0.16 -0.16)">
    <defs>
     <path d="M 2841 2188 
Q 3044 2119 3236 1894 
Q 3428 1669 3622 1275 
L 4263 0 
L 3584 0 
L 2988 1197 
Q 2756 1666 2539 1819 
Q 2322 1972 1947 1972 
L 1259 1972 
L 1259 0 
L 628 0 
L 628 4666 
L 2053 4666 
Q 2853 4666 3247 4331 
Q 3641 3997 3641 3322 
Q 3641 2881 3436 2590 
Q 3231 2300 2841 2188 
z
M 1259 4147 
L 1259 2491 
L 2053 2491 
Q 2509 2491 2742 2702 
Q 2975 2913 2975 3322 
Q 2975 3731 2742 3939 
Q 2509 4147 2053 4147 
L 1259 4147 
z
" id="DejaVuSans-52" transform="scale(0.015625)"/>
     <path d="M 2522 4238 
Q 1834 4238 1429 3725 
Q 1025 3213 1025 2328 
Q 1025 1447 1429 934 
Q 1834 422 2522 422 
Q 3209 422 3611 934 
Q 4013 1447 4013 2328 
Q 4013 3213 3611 3725 
Q 3209 4238 2522 4238 
z
M 2522 4750 
Q 3503 4750 4090 4092 
Q 4678 3434 4678 2328 
Q 4678 1225 4090 567 
Q 3503 -91 2522 -91 
Q 1538 -91 948 565 
Q 359 1222 359 2328 
Q 359 3434 948 4092 
Q 1538 4750 2522 4750 
z
" id="DejaVuSans-4f" transform="scale(0.015625)"/>
     <path d="M 4122 4306 
L 4122 3641 
Q 3803 3938 3442 4084 
Q 3081 4231 2675 4231 
Q 1875 4231 1450 3742 
Q 1025 3253 1025 2328 
Q 1025 1406 1450 917 
Q 1875 428 2675 428 
Q 3081 428 3442 575 
Q 3803 722 4122 1019 
L 4122 359 
Q 3791 134 3420 21 
Q 3050 -91 2638 -91 
Q 1578 -91 968 557 
Q 359 1206 359 2328 
Q 359 3453 968 4101 
Q 1578 4750 2638 4750 
Q 3056 4750 3426 4639 
Q 3797 4528 4122 4306 
z
" id="DejaVuSans-43" transform="scale(0.015625)"/>
    </defs>
    <use xlink:href="#DejaVuSans-52"/>
    <use x="69.482422" xlink:href="#DejaVuSans-4f"/>
    <use x="148.193359" xlink:href="#DejaVuSans-43"/>
    <use x="218.017578" xlink:href="#DejaVuSans-20"/>
    <use x="249.804688" xlink:href="#DejaVuSans-43"/>
    <use x="319.628906" xlink:href="#DejaVuSans-75"/>
    <use x="383.007812" xlink:href="#DejaVuSans-72"/>
    <use x="424.121094" xlink:href="#DejaVuSans-76"/>
    <use x="483.300781" xlink:href="#DejaVuSans-65"/>
   </g>
  </g>
 </g>
 <defs>
  <clipPath id="p61e595d6f5">
   <rect height="271.8" width="446.4" x="72" y="43.2"/>
  </clipPath>
 </defs>
</svg>
