<?xml version="1.0" encoding="utf-8" standalone="no"?>
<!DOCTYPE svg PUBLIC "-//W3C//DTD SVG 1.1//EN"
  "http://www.w3.org/Graphics/SVG/1.1/DTD/svg11.dtd">
<svg height="360pt" version="1.1" viewBox="0 0 576 360" width="576pt" xmlns="http://www.w3.org/2000/svg" xmlns:xlink="http://www.w3.org/1999/xlink">
 <metadata>
  <rdf:RDF xmlns:cc="http://creativecommons.org/ns#" xmlns:dc="http://purl.org/dc/elements/1.1/" xmlns:rdf="http://www.w3.org/1999/02/22-rdf-syntax-ns#">
   <cc:Work>
    <dc:type rdf:resource="http://purl.org/dc/dcmitype/StillImage"/>
    <dc:date>2022-01-04T19:54:29.125479</dc:date>
    <dc:format>image/svg+xml</dc:format>
    <dc:creator>
     <cc:Agent>
      <dc:title>Matplotlib v3.4.3, https://matplotlib.org/</dc:title>
     </cc:Agent>
    </dc:creator>
   </cc:Work>
  </rdf:RDF>
 </metadata>
 <defs>
  <style type="text/css">*{stroke-linecap:butt;stroke-linejoin:round;}</style>
 </defs>
 <g id="figure_1">
  <g id="patch_1">
   <path d="M 0 360 
L 576 360 
L 576 0 
L 0 0 
z
" style="fill:none;"/>
  </g>
  <g id="axes_1">
   <g id="patch_2">
    <path d="M 72 315 
L 518.4 315 
L 518.4 43.2 
L 72 43.2 
z
" style="fill:#ffffff;"/>
   </g>
   <g id="matplotlib.axis_1">
    <g id="xtick_1">
     <g id="line2d_1">
      <defs>
       <path d="M 0 0 
L 0 3.5 
" id="me62d22c266" style="stroke:#000000;stroke-width:0.8;"/>
      </defs>
      <g>
       <use style="stroke:#000000;stroke-width:0.8;" x="92.290909" xlink:href="#me62d22c266" y="315"/>
      </g>
     </g>
     <g id="text_1">
      <!-- 0.0 -->
      <g transform="translate(84.339347 329.598437)scale(0.1 -0.1)">
       <defs>
        <path d="M 2034 4250 
Q 1547 4250 1301 3770 
Q 1056 3291 1056 2328 
Q 1056 1369 1301 889 
Q 1547 409 2034 409 
Q 2525 409 2770 889 
Q 3016 1369 3016 2328 
Q 3016 3291 2770 3770 
Q 2525 4250 2034 4250 
z
M 2034 4750 
Q 2819 4750 3233 4129 
Q 3647 3509 3647 2328 
Q 3647 1150 3233 529 
Q 2819 -91 2034 -91 
Q 1250 -91 836 529 
Q 422 1150 422 2328 
Q 422 3509 836 4129 
Q 1250 4750 2034 4750 
z
" id="DejaVuSans-30" transform="scale(0.015625)"/>
        <path d="M 684 794 
L 1344 794 
L 1344 0 
L 684 0 
L 684 794 
z
" id="DejaVuSans-2e" transform="scale(0.015625)"/>
       </defs>
       <use xlink:href="#DejaVuSans-30"/>
       <use x="63.623047" xlink:href="#DejaVuSans-2e"/>
       <use x="95.410156" xlink:href="#DejaVuSans-30"/>
      </g>
     </g>
    </g>
    <g id="xtick_2">
     <g id="line2d_2">
      <g>
       <use style="stroke:#000000;stroke-width:0.8;" x="173.454545" xlink:href="#me62d22c266" y="315"/>
      </g>
     </g>
     <g id="text_2">
      <!-- 0.2 -->
      <g transform="translate(165.502983 329.598437)scale(0.1 -0.1)">
       <defs>
        <path d="M 1228 531 
L 3431 531 
L 3431 0 
L 469 0 
L 469 531 
Q 828 903 1448 1529 
Q 2069 2156 2228 2338 
Q 2531 2678 2651 2914 
Q 2772 3150 2772 3378 
Q 2772 3750 2511 3984 
Q 2250 4219 1831 4219 
Q 1534 4219 1204 4116 
Q 875 4013 500 3803 
L 500 4441 
Q 881 4594 1212 4672 
Q 1544 4750 1819 4750 
Q 2544 4750 2975 4387 
Q 3406 4025 3406 3419 
Q 3406 3131 3298 2873 
Q 3191 2616 2906 2266 
Q 2828 2175 2409 1742 
Q 1991 1309 1228 531 
z
" id="DejaVuSans-32" transform="scale(0.015625)"/>
       </defs>
       <use xlink:href="#DejaVuSans-30"/>
       <use x="63.623047" xlink:href="#DejaVuSans-2e"/>
       <use x="95.410156" xlink:href="#DejaVuSans-32"/>
      </g>
     </g>
    </g>
    <g id="xtick_3">
     <g id="line2d_3">
      <g>
       <use style="stroke:#000000;stroke-width:0.8;" x="254.618182" xlink:href="#me62d22c266" y="315"/>
      </g>
     </g>
     <g id="text_3">
      <!-- 0.4 -->
      <g transform="translate(246.666619 329.598437)scale(0.1 -0.1)">
       <defs>
        <path d="M 2419 4116 
L 825 1625 
L 2419 1625 
L 2419 4116 
z
M 2253 4666 
L 3047 4666 
L 3047 1625 
L 3713 1625 
L 3713 1100 
L 3047 1100 
L 3047 0 
L 2419 0 
L 2419 1100 
L 313 1100 
L 313 1709 
L 2253 4666 
z
" id="DejaVuSans-34" transform="scale(0.015625)"/>
       </defs>
       <use xlink:href="#DejaVuSans-30"/>
       <use x="63.623047" xlink:href="#DejaVuSans-2e"/>
       <use x="95.410156" xlink:href="#DejaVuSans-34"/>
      </g>
     </g>
    </g>
    <g id="xtick_4">
     <g id="line2d_4">
      <g>
       <use style="stroke:#000000;stroke-width:0.8;" x="335.781818" xlink:href="#me62d22c266" y="315"/>
      </g>
     </g>
     <g id="text_4">
      <!-- 0.6 -->
      <g transform="translate(327.830256 329.598437)scale(0.1 -0.1)">
       <defs>
        <path d="M 2113 2584 
Q 1688 2584 1439 2293 
Q 1191 2003 1191 1497 
Q 1191 994 1439 701 
Q 1688 409 2113 409 
Q 2538 409 2786 701 
Q 3034 994 3034 1497 
Q 3034 2003 2786 2293 
Q 2538 2584 2113 2584 
z
M 3366 4563 
L 3366 3988 
Q 3128 4100 2886 4159 
Q 2644 4219 2406 4219 
Q 1781 4219 1451 3797 
Q 1122 3375 1075 2522 
Q 1259 2794 1537 2939 
Q 1816 3084 2150 3084 
Q 2853 3084 3261 2657 
Q 3669 2231 3669 1497 
Q 3669 778 3244 343 
Q 2819 -91 2113 -91 
Q 1303 -91 875 529 
Q 447 1150 447 2328 
Q 447 3434 972 4092 
Q 1497 4750 2381 4750 
Q 2619 4750 2861 4703 
Q 3103 4656 3366 4563 
z
" id="DejaVuSans-36" transform="scale(0.015625)"/>
       </defs>
       <use xlink:href="#DejaVuSans-30"/>
       <use x="63.623047" xlink:href="#DejaVuSans-2e"/>
       <use x="95.410156" xlink:href="#DejaVuSans-36"/>
      </g>
     </g>
    </g>
    <g id="xtick_5">
     <g id="line2d_5">
      <g>
       <use style="stroke:#000000;stroke-width:0.8;" x="416.945455" xlink:href="#me62d22c266" y="315"/>
      </g>
     </g>
     <g id="text_5">
      <!-- 0.8 -->
      <g transform="translate(408.993892 329.598437)scale(0.1 -0.1)">
       <defs>
        <path d="M 2034 2216 
Q 1584 2216 1326 1975 
Q 1069 1734 1069 1313 
Q 1069 891 1326 650 
Q 1584 409 2034 409 
Q 2484 409 2743 651 
Q 3003 894 3003 1313 
Q 3003 1734 2745 1975 
Q 2488 2216 2034 2216 
z
M 1403 2484 
Q 997 2584 770 2862 
Q 544 3141 544 3541 
Q 544 4100 942 4425 
Q 1341 4750 2034 4750 
Q 2731 4750 3128 4425 
Q 3525 4100 3525 3541 
Q 3525 3141 3298 2862 
Q 3072 2584 2669 2484 
Q 3125 2378 3379 2068 
Q 3634 1759 3634 1313 
Q 3634 634 3220 271 
Q 2806 -91 2034 -91 
Q 1263 -91 848 271 
Q 434 634 434 1313 
Q 434 1759 690 2068 
Q 947 2378 1403 2484 
z
M 1172 3481 
Q 1172 3119 1398 2916 
Q 1625 2713 2034 2713 
Q 2441 2713 2670 2916 
Q 2900 3119 2900 3481 
Q 2900 3844 2670 4047 
Q 2441 4250 2034 4250 
Q 1625 4250 1398 4047 
Q 1172 3844 1172 3481 
z
" id="DejaVuSans-38" transform="scale(0.015625)"/>
       </defs>
       <use xlink:href="#DejaVuSans-30"/>
       <use x="63.623047" xlink:href="#DejaVuSans-2e"/>
       <use x="95.410156" xlink:href="#DejaVuSans-38"/>
      </g>
     </g>
    </g>
    <g id="xtick_6">
     <g id="line2d_6">
      <g>
       <use style="stroke:#000000;stroke-width:0.8;" x="498.109091" xlink:href="#me62d22c266" y="315"/>
      </g>
     </g>
     <g id="text_6">
      <!-- 1.0 -->
      <g transform="translate(490.157528 329.598437)scale(0.1 -0.1)">
       <defs>
        <path d="M 794 531 
L 1825 531 
L 1825 4091 
L 703 3866 
L 703 4441 
L 1819 4666 
L 2450 4666 
L 2450 531 
L 3481 531 
L 3481 0 
L 794 0 
L 794 531 
z
" id="DejaVuSans-31" transform="scale(0.015625)"/>
       </defs>
       <use xlink:href="#DejaVuSans-31"/>
       <use x="63.623047" xlink:href="#DejaVuSans-2e"/>
       <use x="95.410156" xlink:href="#DejaVuSans-30"/>
      </g>
     </g>
    </g>
    <g id="text_7">
     <!-- False positive rate -->
     <g transform="translate(249.699219 343.276563)scale(0.1 -0.1)">
      <defs>
       <path d="M 628 4666 
L 3309 4666 
L 3309 4134 
L 1259 4134 
L 1259 2759 
L 3109 2759 
L 3109 2228 
L 1259 2228 
L 1259 0 
L 628 0 
L 628 4666 
z
" id="DejaVuSans-46" transform="scale(0.015625)"/>
       <path d="M 2194 1759 
Q 1497 1759 1228 1600 
Q 959 1441 959 1056 
Q 959 750 1161 570 
Q 1363 391 1709 391 
Q 2188 391 2477 730 
Q 2766 1069 2766 1631 
L 2766 1759 
L 2194 1759 
z
M 3341 1997 
L 3341 0 
L 2766 0 
L 2766 531 
Q 2569 213 2275 61 
Q 1981 -91 1556 -91 
Q 1019 -91 701 211 
Q 384 513 384 1019 
Q 384 1609 779 1909 
Q 1175 2209 1959 2209 
L 2766 2209 
L 2766 2266 
Q 2766 2663 2505 2880 
Q 2244 3097 1772 3097 
Q 1472 3097 1187 3025 
Q 903 2953 641 2809 
L 641 3341 
Q 956 3463 1253 3523 
Q 1550 3584 1831 3584 
Q 2591 3584 2966 3190 
Q 3341 2797 3341 1997 
z
" id="DejaVuSans-61" transform="scale(0.015625)"/>
       <path d="M 603 4863 
L 1178 4863 
L 1178 0 
L 603 0 
L 603 4863 
z
" id="DejaVuSans-6c" transform="scale(0.015625)"/>
       <path d="M 2834 3397 
L 2834 2853 
Q 2591 2978 2328 3040 
Q 2066 3103 1784 3103 
Q 1356 3103 1142 2972 
Q 928 2841 928 2578 
Q 928 2378 1081 2264 
Q 1234 2150 1697 2047 
L 1894 2003 
Q 2506 1872 2764 1633 
Q 3022 1394 3022 966 
Q 3022 478 2636 193 
Q 2250 -91 1575 -91 
Q 1294 -91 989 -36 
Q 684 19 347 128 
L 347 722 
Q 666 556 975 473 
Q 1284 391 1588 391 
Q 1994 391 2212 530 
Q 2431 669 2431 922 
Q 2431 1156 2273 1281 
Q 2116 1406 1581 1522 
L 1381 1569 
Q 847 1681 609 1914 
Q 372 2147 372 2553 
Q 372 3047 722 3315 
Q 1072 3584 1716 3584 
Q 2034 3584 2315 3537 
Q 2597 3491 2834 3397 
z
" id="DejaVuSans-73" transform="scale(0.015625)"/>
       <path d="M 3597 1894 
L 3597 1613 
L 953 1613 
Q 991 1019 1311 708 
Q 1631 397 2203 397 
Q 2534 397 2845 478 
Q 3156 559 3463 722 
L 3463 178 
Q 3153 47 2828 -22 
Q 2503 -91 2169 -91 
Q 1331 -91 842 396 
Q 353 884 353 1716 
Q 353 2575 817 3079 
Q 1281 3584 2069 3584 
Q 2775 3584 3186 3129 
Q 3597 2675 3597 1894 
z
M 3022 2063 
Q 3016 2534 2758 2815 
Q 2500 3097 2075 3097 
Q 1594 3097 1305 2825 
Q 1016 2553 972 2059 
L 3022 2063 
z
" id="DejaVuSans-65" transform="scale(0.015625)"/>
       <path id="DejaVuSans-20" transform="scale(0.015625)"/>
       <path d="M 1159 525 
L 1159 -1331 
L 581 -1331 
L 581 3500 
L 1159 3500 
L 1159 2969 
Q 1341 3281 1617 3432 
Q 1894 3584 2278 3584 
Q 2916 3584 3314 3078 
Q 3713 2572 3713 1747 
Q 3713 922 3314 415 
Q 2916 -91 2278 -91 
Q 1894 -91 1617 61 
Q 1341 213 1159 525 
z
M 3116 1747 
Q 3116 2381 2855 2742 
Q 2594 3103 2138 3103 
Q 1681 3103 1420 2742 
Q 1159 2381 1159 1747 
Q 1159 1113 1420 752 
Q 1681 391 2138 391 
Q 2594 391 2855 752 
Q 3116 1113 3116 1747 
z
" id="DejaVuSans-70" transform="scale(0.015625)"/>
       <path d="M 1959 3097 
Q 1497 3097 1228 2736 
Q 959 2375 959 1747 
Q 959 1119 1226 758 
Q 1494 397 1959 397 
Q 2419 397 2687 759 
Q 2956 1122 2956 1747 
Q 2956 2369 2687 2733 
Q 2419 3097 1959 3097 
z
M 1959 3584 
Q 2709 3584 3137 3096 
Q 3566 2609 3566 1747 
Q 3566 888 3137 398 
Q 2709 -91 1959 -91 
Q 1206 -91 779 398 
Q 353 888 353 1747 
Q 353 2609 779 3096 
Q 1206 3584 1959 3584 
z
" id="DejaVuSans-6f" transform="scale(0.015625)"/>
       <path d="M 603 3500 
L 1178 3500 
L 1178 0 
L 603 0 
L 603 3500 
z
M 603 4863 
L 1178 4863 
L 1178 4134 
L 603 4134 
L 603 4863 
z
" id="DejaVuSans-69" transform="scale(0.015625)"/>
       <path d="M 1172 4494 
L 1172 3500 
L 2356 3500 
L 2356 3053 
L 1172 3053 
L 1172 1153 
Q 1172 725 1289 603 
Q 1406 481 1766 481 
L 2356 481 
L 2356 0 
L 1766 0 
Q 1100 0 847 248 
Q 594 497 594 1153 
L 594 3053 
L 172 3053 
L 172 3500 
L 594 3500 
L 594 4494 
L 1172 4494 
z
" id="DejaVuSans-74" transform="scale(0.015625)"/>
       <path d="M 191 3500 
L 800 3500 
L 1894 563 
L 2988 3500 
L 3597 3500 
L 2284 0 
L 1503 0 
L 191 3500 
z
" id="DejaVuSans-76" transform="scale(0.015625)"/>
       <path d="M 2631 2963 
Q 2534 3019 2420 3045 
Q 2306 3072 2169 3072 
Q 1681 3072 1420 2755 
Q 1159 2438 1159 1844 
L 1159 0 
L 581 0 
L 581 3500 
L 1159 3500 
L 1159 2956 
Q 1341 3275 1631 3429 
Q 1922 3584 2338 3584 
Q 2397 3584 2469 3576 
Q 2541 3569 2628 3553 
L 2631 2963 
z
" id="DejaVuSans-72" transform="scale(0.015625)"/>
      </defs>
      <use xlink:href="#DejaVuSans-46"/>
      <use x="48.394531" xlink:href="#DejaVuSans-61"/>
      <use x="109.673828" xlink:href="#DejaVuSans-6c"/>
      <use x="137.457031" xlink:href="#DejaVuSans-73"/>
      <use x="189.556641" xlink:href="#DejaVuSans-65"/>
      <use x="251.080078" xlink:href="#DejaVuSans-20"/>
      <use x="282.867188" xlink:href="#DejaVuSans-70"/>
      <use x="346.34375" xlink:href="#DejaVuSans-6f"/>
      <use x="407.525391" xlink:href="#DejaVuSans-73"/>
      <use x="459.625" xlink:href="#DejaVuSans-69"/>
      <use x="487.408203" xlink:href="#DejaVuSans-74"/>
      <use x="526.617188" xlink:href="#DejaVuSans-69"/>
      <use x="554.400391" xlink:href="#DejaVuSans-76"/>
      <use x="613.580078" xlink:href="#DejaVuSans-65"/>
      <use x="675.103516" xlink:href="#DejaVuSans-20"/>
      <use x="706.890625" xlink:href="#DejaVuSans-72"/>
      <use x="748.003906" xlink:href="#DejaVuSans-61"/>
      <use x="809.283203" xlink:href="#DejaVuSans-74"/>
      <use x="848.492188" xlink:href="#DejaVuSans-65"/>
     </g>
    </g>
   </g>
   <g id="matplotlib.axis_2">
    <g id="ytick_1">
     <g id="line2d_7">
      <defs>
       <path d="M 0 0 
L -3.5 0 
" id="m644981dc68" style="stroke:#000000;stroke-width:0.8;"/>
      </defs>
      <g>
       <use style="stroke:#000000;stroke-width:0.8;" x="72" xlink:href="#m644981dc68" y="302.645455"/>
      </g>
     </g>
     <g id="text_8">
      <!-- 0.0 -->
      <g transform="translate(49.096875 306.444673)scale(0.1 -0.1)">
       <use xlink:href="#DejaVuSans-30"/>
       <use x="63.623047" xlink:href="#DejaVuSans-2e"/>
       <use x="95.410156" xlink:href="#DejaVuSans-30"/>
      </g>
     </g>
    </g>
    <g id="ytick_2">
     <g id="line2d_8">
      <g>
       <use style="stroke:#000000;stroke-width:0.8;" x="72" xlink:href="#m644981dc68" y="253.227273"/>
      </g>
     </g>
     <g id="text_9">
      <!-- 0.2 -->
      <g transform="translate(49.096875 257.026491)scale(0.1 -0.1)">
       <use xlink:href="#DejaVuSans-30"/>
       <use x="63.623047" xlink:href="#DejaVuSans-2e"/>
       <use x="95.410156" xlink:href="#DejaVuSans-32"/>
      </g>
     </g>
    </g>
    <g id="ytick_3">
     <g id="line2d_9">
      <g>
       <use style="stroke:#000000;stroke-width:0.8;" x="72" xlink:href="#m644981dc68" y="203.809091"/>
      </g>
     </g>
     <g id="text_10">
      <!-- 0.4 -->
      <g transform="translate(49.096875 207.60831)scale(0.1 -0.1)">
       <use xlink:href="#DejaVuSans-30"/>
       <use x="63.623047" xlink:href="#DejaVuSans-2e"/>
       <use x="95.410156" xlink:href="#DejaVuSans-34"/>
      </g>
     </g>
    </g>
    <g id="ytick_4">
     <g id="line2d_10">
      <g>
       <use style="stroke:#000000;stroke-width:0.8;" x="72" xlink:href="#m644981dc68" y="154.390909"/>
      </g>
     </g>
     <g id="text_11">
      <!-- 0.6 -->
      <g transform="translate(49.096875 158.190128)scale(0.1 -0.1)">
       <use xlink:href="#DejaVuSans-30"/>
       <use x="63.623047" xlink:href="#DejaVuSans-2e"/>
       <use x="95.410156" xlink:href="#DejaVuSans-36"/>
      </g>
     </g>
    </g>
    <g id="ytick_5">
     <g id="line2d_11">
      <g>
       <use style="stroke:#000000;stroke-width:0.8;" x="72" xlink:href="#m644981dc68" y="104.972727"/>
      </g>
     </g>
     <g id="text_12">
      <!-- 0.8 -->
      <g transform="translate(49.096875 108.771946)scale(0.1 -0.1)">
       <use xlink:href="#DejaVuSans-30"/>
       <use x="63.623047" xlink:href="#DejaVuSans-2e"/>
       <use x="95.410156" xlink:href="#DejaVuSans-38"/>
      </g>
     </g>
    </g>
    <g id="ytick_6">
     <g id="line2d_12">
      <g>
       <use style="stroke:#000000;stroke-width:0.8;" x="72" xlink:href="#m644981dc68" y="55.554545"/>
      </g>
     </g>
     <g id="text_13">
      <!-- 1.0 -->
      <g transform="translate(49.096875 59.353764)scale(0.1 -0.1)">
       <use xlink:href="#DejaVuSans-31"/>
       <use x="63.623047" xlink:href="#DejaVuSans-2e"/>
       <use x="95.410156" xlink:href="#DejaVuSans-30"/>
      </g>
     </g>
    </g>
    <g id="text_14">
     <!-- True positive rate -->
     <g transform="translate(43.017187 222.664062)rotate(-90)scale(0.1 -0.1)">
      <defs>
       <path d="M -19 4666 
L 3928 4666 
L 3928 4134 
L 2272 4134 
L 2272 0 
L 1638 0 
L 1638 4134 
L -19 4134 
L -19 4666 
z
" id="DejaVuSans-54" transform="scale(0.015625)"/>
       <path d="M 544 1381 
L 544 3500 
L 1119 3500 
L 1119 1403 
Q 1119 906 1312 657 
Q 1506 409 1894 409 
Q 2359 409 2629 706 
Q 2900 1003 2900 1516 
L 2900 3500 
L 3475 3500 
L 3475 0 
L 2900 0 
L 2900 538 
Q 2691 219 2414 64 
Q 2138 -91 1772 -91 
Q 1169 -91 856 284 
Q 544 659 544 1381 
z
M 1991 3584 
L 1991 3584 
z
" id="DejaVuSans-75" transform="scale(0.015625)"/>
      </defs>
      <use xlink:href="#DejaVuSans-54"/>
      <use x="46.333984" xlink:href="#DejaVuSans-72"/>
      <use x="87.447266" xlink:href="#DejaVuSans-75"/>
      <use x="150.826172" xlink:href="#DejaVuSans-65"/>
      <use x="212.349609" xlink:href="#DejaVuSans-20"/>
      <use x="244.136719" xlink:href="#DejaVuSans-70"/>
      <use x="307.613281" xlink:href="#DejaVuSans-6f"/>
      <use x="368.794922" xlink:href="#DejaVuSans-73"/>
      <use x="420.894531" xlink:href="#DejaVuSans-69"/>
      <use x="448.677734" xlink:href="#DejaVuSans-74"/>
      <use x="487.886719" xlink:href="#DejaVuSans-69"/>
      <use x="515.669922" xlink:href="#DejaVuSans-76"/>
      <use x="574.849609" xlink:href="#DejaVuSans-65"/>
      <use x="636.373047" xlink:href="#DejaVuSans-20"/>
      <use x="668.160156" xlink:href="#DejaVuSans-72"/>
      <use x="709.273438" xlink:href="#DejaVuSans-61"/>
      <use x="770.552734" xlink:href="#DejaVuSans-74"/>
      <use x="809.761719" xlink:href="#DejaVuSans-65"/>
     </g>
    </g>
   </g>
   <g id="line2d_13">
    <path clip-path="url(#pdad7323f03)" d="M 92.290909 302.645455 
L 92.434886 302.645455 
L 92.704844 301.51374 
L 92.848821 301.51374 
L 93.04679 300.004788 
L 93.190768 300.004788 
L 93.334745 298.873074 
L 93.496719 298.495836 
L 93.586705 298.495836 
L 93.640697 295.477932 
L 93.87466 295.477932 
L 93.928652 295.100694 
L 94.234603 294.346218 
L 94.288595 294.346218 
L 94.558552 293.591742 
L 94.70253 293.591742 
L 94.846507 293.214504 
L 95.242445 291.705552 
L 95.296436 291.328314 
L 95.458411 291.328314 
L 95.512402 290.951076 
L 95.746366 290.951076 
L 95.926337 289.819362 
L 96.016323 289.819362 
L 96.142303 289.442124 
L 96.358269 287.933171 
L 96.430258 287.933171 
L 96.556238 286.424219 
L 96.700216 286.424219 
L 96.880187 285.669743 
L 97.006168 285.292505 
L 97.240131 285.292505 
L 97.276125 284.160791 
L 97.294122 284.160791 
L 97.420102 284.160791 
L 97.420102 283.783553 
L 97.510088 283.783553 
L 97.600074 283.783553 
L 97.654066 283.406315 
L 97.81604 283.406315 
L 97.996012 282.651839 
L 98.211978 282.651839 
L 98.337958 282.274601 
L 98.679904 281.520125 
L 98.823882 280.388411 
L 98.877873 279.633935 
L 99.453783 278.124983 
L 99.525771 278.124983 
L 99.651752 277.747745 
L 100.335644 277.747745 
L 100.389636 277.370507 
L 100.533613 277.370507 
L 100.80357 276.993269 
L 100.875559 276.238793 
L 101.415474 276.238793 
L 101.487463 275.107078 
L 101.793415 275.107078 
L 101.901398 274.72984 
L 102.045375 274.72984 
L 102.261341 273.975364 
L 102.495304 273.975364 
L 102.621285 273.598126 
L 102.837251 273.598126 
L 102.873245 272.84365 
L 104.852934 272.84365 
L 105.0689 272.089174 
L 105.212877 272.089174 
L 105.392849 270.95746 
L 105.680803 270.95746 
L 105.842778 270.580222 
L 106.580662 270.580222 
L 106.778631 269.825746 
L 107.120577 269.825746 
L 107.210563 269.448508 
L 107.48052 269.07127 
L 107.714484 267.939556 
L 107.786472 267.939556 
L 107.840464 267.562318 
L 107.984441 267.562318 
L 108.038433 266.807842 
L 108.272396 266.807842 
L 108.326387 266.053366 
L 108.470365 266.053366 
L 108.542353 265.676128 
L 108.740322 265.29889 
L 109.334229 265.29889 
L 109.460209 264.921652 
L 109.604186 264.921652 
L 109.892141 264.167176 
L 109.946133 263.4127 
L 110.21609 263.4127 
L 110.432056 263.035461 
L 110.720011 263.035461 
L 110.845991 262.658223 
L 111.367909 262.658223 
L 111.763847 261.903747 
L 111.853833 261.903747 
L 112.105793 260.772033 
L 112.321759 260.772033 
L 112.591717 259.640319 
L 113.527569 259.640319 
L 113.833521 258.508605 
L 113.869516 257.754129 
L 114.15747 257.754129 
L 114.391434 257.376891 
L 114.787371 256.999653 
L 114.931349 256.999653 
L 115.057329 256.622415 
L 115.291292 256.622415 
L 115.56125 255.113463 
L 115.993182 255.113463 
L 116.173153 254.736225 
L 116.299134 253.227273 
L 116.587088 252.850035 
L 116.965029 252.850035 
L 117.145001 252.095559 
L 117.288978 252.095559 
L 117.558935 251.341083 
L 117.702913 251.341083 
L 118.080853 250.209368 
L 118.4228 250.209368 
L 118.92672 248.700416 
L 119.070698 248.323178 
L 119.214675 248.323178 
L 119.412644 247.191464 
L 119.898568 246.05975 
L 120.348497 246.05975 
L 120.83442 244.928036 
L 121.41033 244.928036 
L 121.698285 244.17356 
L 121.842262 244.17356 
L 122.040231 243.796322 
L 122.940089 243.796322 
L 123.084067 243.419084 
L 123.408016 243.041846 
L 124.199891 243.041846 
L 124.325871 242.664608 
L 124.955772 242.664608 
L 125.189735 242.28737 
L 126.935461 242.28737 
L 127.367393 241.155656 
L 127.583359 241.155656 
L 127.691342 240.40118 
L 128.393232 240.40118 
L 128.573203 239.269466 
L 128.789169 238.892228 
L 129.131116 238.892228 
L 129.185107 238.51499 
L 129.509056 238.51499 
L 129.851002 238.137752 
L 130.768858 238.137752 
L 130.82285 237.760514 
L 131.182793 237.760514 
L 131.434753 237.006037 
L 131.596728 237.006037 
L 131.686714 236.628799 
L 131.830691 236.628799 
L 132.118646 236.251561 
L 132.244626 235.874323 
L 132.892524 235.874323 
L 133.090493 234.742609 
L 133.666402 234.742609 
L 133.666402 234.365371 
L 133.738391 234.365371 
L 134.116332 233.988133 
L 134.260309 233.610895 
L 134.692241 233.610895 
L 134.908207 233.233657 
L 135.052185 232.856419 
L 135.232156 232.479181 
L 135.448122 232.479181 
L 135.880054 231.724705 
L 136.042029 231.724705 
L 136.293989 230.592991 
L 136.437967 230.592991 
L 136.977882 230.215753 
L 137.841746 230.215753 
L 138.075709 229.461277 
L 139.191534 229.461277 
L 139.677457 227.952325 
L 141.477174 227.952325 
L 141.621152 227.575087 
L 141.909106 227.575087 
L 142.053084 227.197849 
L 143.330883 227.197849 
L 143.690826 226.820611 
L 143.744818 226.443373 
L 144.590685 225.688897 
L 144.626679 225.311659 
L 145.472546 225.311659 
L 146.08445 222.670992 
L 146.750345 222.670992 
L 146.768342 222.293754 
L 147.110288 220.407564 
L 147.254266 220.407564 
L 147.398243 220.030326 
L 147.524223 219.653088 
L 147.938158 219.27585 
L 148.172121 219.27585 
L 148.424082 218.898612 
L 148.460076 218.144136 
L 149.341937 218.144136 
L 149.557903 217.766898 
L 149.737875 217.766898 
L 150.241796 217.38966 
L 150.331782 217.38966 
L 150.457762 217.012422 
L 150.511753 217.012422 
L 151.519595 216.635184 
L 151.717564 216.257946 
L 151.861541 216.257946 
L 151.915533 215.880708 
L 152.18549 215.50347 
L 152.455448 215.50347 
L 152.509439 215.126232 
L 153.01336 215.126232 
L 153.157337 214.748994 
L 153.499284 213.994518 
L 153.787238 213.994518 
L 153.949213 213.61728 
L 155.838916 213.61728 
L 156.162865 213.240042 
L 156.486814 213.240042 
L 156.630791 212.862804 
L 157.026729 212.862804 
L 157.08072 212.485566 
L 158.250536 212.485566 
L 158.61048 212.108328 
L 158.754457 211.73109 
L 159.150395 211.353851 
L 159.312369 210.222137 
L 159.384358 210.222137 
L 159.69031 209.844899 
L 159.834287 209.467661 
L 159.996262 209.467661 
L 160.338208 209.090423 
L 161.112086 209.090423 
L 161.490027 208.335947 
L 161.544018 207.958709 
L 161.777982 207.958709 
L 161.813976 207.581471 
L 162.209914 207.581471 
L 162.389885 207.204233 
L 163.865653 207.204233 
L 163.919645 206.826995 
L 164.477557 205.695281 
L 164.531549 205.318043 
L 164.855498 205.318043 
L 164.999475 204.940805 
L 166.457246 204.940805 
L 167.051152 204.563567 
L 167.339107 203.809091 
L 168.023 203.809091 
L 168.328951 203.431853 
L 168.544918 203.431853 
L 168.742886 202.677377 
L 169.264804 202.300139 
L 169.552759 200.791187 
L 169.624748 200.791187 
L 169.696736 200.413949 
L 169.894705 200.413949 
L 169.984691 199.282235 
L 170.272646 199.282235 
L 170.776567 198.904997 
L 170.920544 198.904997 
L 171.172504 198.527759 
L 171.424465 198.527759 
L 171.658428 198.15052 
L 172.036368 198.15052 
L 172.162349 197.773282 
L 172.666269 197.396044 
L 173.278173 197.396044 
L 173.278173 197.018806 
L 173.368159 197.018806 
L 173.494139 197.018806 
L 173.530134 196.641568 
L 173.890077 196.641568 
L 173.980063 195.887092 
L 174.681952 195.887092 
L 174.735944 195.509854 
L 175.761783 195.509854 
L 176.247706 195.132616 
L 176.625647 195.132616 
L 176.913601 194.755378 
L 177.219553 194.755378 
L 177.345534 194.000902 
L 177.489511 194.000902 
L 177.957437 193.623664 
L 178.011429 193.246426 
L 178.947282 193.246426 
L 179.109256 192.869188 
L 179.72116 192.869188 
L 180.153092 192.49195 
L 180.225081 192.114712 
L 180.531033 192.114712 
L 181.070948 191.737474 
L 181.304911 191.737474 
L 181.484883 190.982998 
L 181.808832 190.60576 
L 182.33075 190.60576 
L 182.996645 190.228522 
L 183.140622 190.228522 
L 183.194614 189.851284 
L 183.914501 189.851284 
L 183.968492 189.474046 
L 184.706376 189.474046 
L 185.264288 189.096808 
L 186.938025 189.096808 
L 187.315966 188.71957 
L 190.123524 188.71957 
L 190.285499 188.342332 
L 191.851252 188.342332 
L 192.787105 187.965094 
L 193.542986 187.965094 
L 193.704961 187.587856 
L 193.974918 187.587856 
L 194.064904 187.210618 
L 194.766794 187.210618 
L 195.162732 186.456142 
L 195.540672 186.456142 
L 196.080587 185.701666 
L 196.206568 185.324427 
L 196.278556 185.324427 
L 196.386539 184.947189 
L 197.01644 183.815475 
L 197.556355 183.815475 
L 198.258245 183.438237 
L 198.420219 183.438237 
L 198.636185 183.060999 
L 199.068118 182.683761 
L 199.320078 182.683761 
L 199.446058 182.306523 
L 199.931982 181.929285 
L 200.021968 181.929285 
L 200.093956 181.174809 
L 200.975818 181.174809 
L 201.029809 180.797571 
L 201.695704 179.665857 
L 203.135478 179.665857 
L 203.279455 179.288619 
L 204.413277 179.288619 
L 204.557254 178.911381 
L 205.025181 178.534143 
L 205.331133 178.534143 
L 205.583093 177.402429 
L 206.374968 177.402429 
L 206.518946 177.025191 
L 206.662923 177.025191 
L 206.716915 176.647953 
L 207.184841 176.647953 
L 207.310821 176.270715 
L 207.886731 176.270715 
L 208.0847 175.139001 
L 208.516632 174.761763 
L 208.786589 173.630049 
L 208.984558 173.630049 
L 209.560468 172.875573 
L 209.686448 172.498334 
L 209.848422 172.498334 
L 210.478323 172.121096 
L 210.748281 172.121096 
L 211.288196 171.743858 
L 212.044077 171.743858 
L 212.296037 170.612144 
L 213.303879 170.612144 
L 213.429859 170.234906 
L 213.771805 170.234906 
L 214.689661 169.103192 
L 215.517531 169.103192 
L 216.291409 168.725954 
L 217.065287 168.725954 
L 217.101282 167.971478 
L 217.263256 167.971478 
L 217.479222 167.217002 
L 218.469067 167.217002 
L 219.296936 166.839764 
L 220.682718 166.839764 
L 221.240631 166.085288 
L 221.546583 166.085288 
L 221.546583 165.70805 
L 221.636568 165.70805 
L 221.708557 165.70805 
L 222.176484 164.576336 
L 222.626413 164.576336 
L 222.986356 163.82186 
L 223.202322 163.82186 
L 223.400291 163.067384 
L 223.562266 163.067384 
L 224.174169 162.690146 
L 224.318147 162.690146 
L 225.254 161.93567 
L 226.423816 161.93567 
L 226.927736 161.558432 
L 227.125705 161.181194 
L 227.28768 161.181194 
L 227.359668 160.803956 
L 227.881586 160.803956 
L 228.043561 159.672241 
L 228.529484 159.672241 
L 228.961417 159.295003 
L 229.105394 158.917765 
L 229.177383 158.917765 
L 229.303363 158.163289 
L 229.519329 158.163289 
L 230.041247 157.786051 
L 230.077241 156.654337 
L 230.815125 156.654337 
L 231.031091 155.899861 
L 231.139074 155.899861 
L 231.193066 155.522623 
L 231.337043 155.522623 
L 231.858961 154.768147 
L 231.894955 154.390909 
L 232.326887 154.390909 
L 232.380879 154.013671 
L 232.524856 154.013671 
L 232.722825 153.636433 
L 234.252584 153.636433 
L 234.396562 153.259195 
L 234.738508 153.259195 
L 235.206434 152.881957 
L 235.350412 152.127481 
L 235.458395 152.127481 
L 235.530384 151.750243 
L 235.908324 151.373005 
L 236.196279 151.373005 
L 236.394248 150.995767 
L 236.808183 150.618529 
L 237.438084 150.618529 
L 237.995996 149.864053 
L 238.409931 149.864053 
L 238.481919 149.486815 
L 239.363781 149.486815 
L 239.777716 149.109577 
L 240.155656 149.109577 
L 240.209648 148.732339 
L 240.821551 148.732339 
L 240.947532 148.355101 
L 241.235486 148.355101 
L 241.289478 147.977863 
L 242.243328 147.977863 
L 242.315317 147.600625 
L 242.729251 146.846149 
L 243.017206 146.846149 
L 243.071198 146.46891 
L 243.215175 146.46891 
L 243.665104 146.091672 
L 243.773087 145.337196 
L 244.025048 145.337196 
L 244.151028 144.959958 
L 244.259011 144.959958 
L 244.83492 143.828244 
L 244.996895 143.828244 
L 245.53681 143.451006 
L 245.53681 143.073768 
L 245.824765 143.073768 
L 245.878756 142.69653 
L 246.436668 142.319292 
L 246.49066 141.942054 
L 246.634637 141.942054 
L 247.498501 141.564816 
L 247.660476 140.433102 
L 248.128402 140.055864 
L 248.182394 139.678626 
L 249.136244 139.678626 
L 249.262224 139.301388 
L 250.18008 139.301388 
L 251.205918 138.92415 
L 251.997794 138.92415 
L 252.069783 138.546912 
L 253.059627 138.546912 
L 253.329584 138.169674 
L 254.877341 138.169674 
L 255.273279 137.792436 
L 255.813194 137.792436 
L 256.98301 137.415198 
L 257.144984 137.415198 
L 257.954857 136.660722 
L 260.744418 136.660722 
L 261.680271 135.906246 
L 262.022217 135.906246 
L 262.310172 135.529008 
L 262.472147 135.529008 
L 262.526138 135.15177 
L 263.08405 134.774532 
L 264.235869 134.774532 
L 264.559818 134.020056 
L 264.86577 134.020056 
L 264.901765 133.642817 
L 265.423683 133.642817 
L 265.999592 133.265579 
L 267.835303 133.265579 
L 268.501199 132.888341 
L 269.005119 132.888341 
L 269.473046 132.511103 
L 269.689012 132.511103 
L 269.814992 132.133865 
L 269.904978 132.133865 
L 270.642862 131.756627 
L 270.948814 131.756627 
L 271.920661 131.379389 
L 273.90035 131.379389 
L 273.90035 131.002151 
L 274.27829 131.002151 
L 274.440265 129.870437 
L 274.692225 129.870437 
L 275.682069 129.493199 
L 275.862041 128.738723 
L 276.275976 128.738723 
L 276.329967 128.361485 
L 277.085849 127.984247 
L 277.661758 127.984247 
L 278.111687 126.475295 
L 279.371489 126.475295 
L 279.983393 126.098057 
L 280.12737 125.720819 
L 280.271348 125.720819 
L 281.2072 124.966343 
L 282.395014 124.966343 
L 282.449005 124.589105 
L 283.168892 124.589105 
L 283.546833 124.211867 
L 283.69081 124.211867 
L 283.762799 123.834629 
L 284.212728 123.457391 
L 284.51868 123.457391 
L 284.680654 123.080153 
L 284.752643 123.080153 
L 285.580513 122.702915 
L 285.958453 122.702915 
L 286.822317 122.325677 
L 287.038283 122.325677 
L 287.290244 121.948439 
L 287.974136 121.571201 
L 288.028128 121.193963 
L 289.755856 121.193963 
L 290.349763 120.439486 
L 291.609565 120.439486 
L 291.753542 120.062248 
L 293.193316 120.062248 
L 294.05718 119.68501 
L 294.291143 119.68501 
L 294.831058 119.307772 
L 295.298984 119.307772 
L 295.8389 118.553296 
L 296.21684 118.553296 
L 296.486798 117.79882 
L 297.260676 117.79882 
L 297.386656 117.421582 
L 297.620619 117.421582 
L 298.736444 117.044344 
L 299.474328 117.044344 
L 300.03224 116.667106 
L 300.248206 115.91263 
L 301.436019 115.91263 
L 301.93994 115.535392 
L 303.739657 115.535392 
L 304.621518 115.158154 
L 305.737343 115.158154 
L 306.0073 114.403678 
L 306.70919 114.02644 
L 307.53706 114.02644 
L 307.681037 113.649202 
L 309.552743 113.649202 
L 309.660726 113.271964 
L 310.038667 113.271964 
L 310.092658 112.894726 
L 310.77655 112.894726 
L 310.848539 111.763012 
L 312.018355 111.763012 
L 312.648256 111.385774 
L 312.882219 111.008536 
L 313.170174 111.008536 
L 314.08803 110.25406 
L 314.232007 109.499584 
L 315.023883 109.499584 
L 315.077874 109.122346 
L 316.031724 109.122346 
L 316.031724 108.745108 
L 316.175701 108.36787 
L 317.183543 108.36787 
L 317.77745 107.990632 
L 319.289212 107.990632 
L 319.613161 107.236155 
L 319.703147 107.236155 
L 320.31505 106.858917 
L 320.998943 106.858917 
L 321.862807 104.595489 
L 322.150762 104.595489 
L 322.600691 104.218251 
L 324.112453 104.218251 
L 324.652368 103.841013 
L 324.886332 103.463775 
L 324.940323 103.463775 
L 325.480238 103.086537 
L 325.624216 103.086537 
L 325.678207 102.709299 
L 325.822184 102.709299 
L 325.894173 102.332061 
L 326.48808 101.577585 
L 327.135978 101.577585 
L 327.31595 100.823109 
L 328.017839 100.445871 
L 330.753409 100.445871 
L 331.059361 100.068633 
L 331.995214 99.314157 
L 332.121194 99.314157 
L 332.121194 98.936919 
L 332.193183 98.936919 
L 336.15256 98.936919 
L 336.242546 97.805205 
L 336.350529 97.805205 
L 336.944435 97.427967 
L 338.492192 97.427967 
L 338.726155 97.050729 
L 338.960118 97.050729 
L 339.626014 96.673491 
L 340.993799 96.673491 
L 341.245759 96.296253 
L 341.587705 95.919015 
L 343.459411 95.919015 
L 343.729368 95.541777 
L 345.727054 95.541777 
L 345.781046 95.164539 
L 347.940706 95.164539 
L 348.192666 94.7873 
L 348.282652 94.7873 
L 348.822567 93.655586 
L 349.056531 93.655586 
L 349.200508 93.278348 
L 351.378166 93.278348 
L 351.900083 92.90111 
L 352.116049 92.523872 
L 352.278024 92.523872 
L 353.19588 92.146634 
L 353.591817 92.146634 
L 354.131733 91.769396 
L 354.347699 91.769396 
L 354.40169 91.392158 
L 355.337543 91.392158 
L 355.391534 91.01492 
L 356.291393 91.01492 
L 356.597345 90.637682 
L 357.317232 90.637682 
L 357.479206 90.260444 
L 357.623183 90.260444 
L 357.803155 89.883206 
L 358.487048 89.883206 
L 358.990968 89.12873 
L 360.286765 89.12873 
L 361.006651 88.751492 
L 362.104479 88.751492 
L 362.15847 88.374254 
L 362.302448 88.374254 
L 362.500416 87.997016 
L 362.98634 87.997016 
L 363.094323 87.619778 
L 363.274295 87.619778 
L 363.904196 87.24254 
L 365.146 87.24254 
L 365.289978 86.865302 
L 365.451952 86.865302 
L 365.631924 86.488064 
L 366.459794 86.488064 
L 366.513785 86.110826 
L 367.665604 86.110826 
L 367.719596 85.733588 
L 368.439483 84.979112 
L 370.095222 84.979112 
L 370.635137 84.601874 
L 370.707126 84.224636 
L 371.121061 84.224636 
L 371.247041 83.847398 
L 372.578832 83.847398 
L 372.632823 83.47016 
L 373.028761 83.47016 
L 373.784642 83.092922 
L 374.954458 83.092922 
L 375.620353 82.715684 
L 381.649405 82.715684 
L 381.865371 82.338446 
L 382.261309 82.338446 
L 383.251153 81.206731 
L 383.809066 81.206731 
L 384.09702 80.829493 
L 384.67293 80.452255 
L 384.744918 80.075017 
L 385.05087 80.075017 
L 385.842746 79.697779 
L 385.914734 79.697779 
L 385.968726 79.320541 
L 386.256681 79.320541 
L 387.300516 78.566065 
L 389.082236 78.566065 
L 389.226214 78.188827 
L 389.640149 78.188827 
L 390.126072 77.057113 
L 391.295888 77.057113 
L 392.105761 76.679875 
L 392.951628 76.679875 
L 393.815492 75.925399 
L 394.319413 75.925399 
L 394.787339 75.170923 
L 397.378932 75.170923 
L 397.504912 74.793685 
L 398.584742 74.793685 
L 399.412612 74.416447 
L 399.628578 74.416447 
L 400.960368 74.039209 
L 404.721777 74.039209 
L 405.333681 73.661971 
L 405.459661 73.284733 
L 406.179548 73.284733 
L 406.791451 72.530257 
L 409.203072 72.530257 
L 409.635004 72.153019 
L 409.796979 71.398543 
L 411.002789 71.398543 
L 412.58654 70.266829 
L 413.918331 70.266829 
L 414.962166 69.889591 
L 415.088147 69.512353 
L 415.826031 69.135115 
L 417.013844 69.135115 
L 417.139824 68.757876 
L 420.073363 68.757876 
L 420.829244 68.380638 
L 421.117199 68.380638 
L 422.071049 68.0034 
L 422.215026 68.0034 
L 422.880921 67.248924 
L 426.156406 67.248924 
L 426.264389 66.494448 
L 427.506194 65.739972 
L 429.161933 65.739972 
L 429.593865 65.362734 
L 429.719846 64.985496 
L 432.293441 64.985496 
L 432.437418 64.608258 
L 434.831042 64.608258 
L 435.298968 64.23102 
L 435.892875 64.23102 
L 436.756739 63.853782 
L 438.232507 63.853782 
L 438.574453 63.476544 
L 440.662125 63.476544 
L 440.788105 63.099306 
L 440.932082 63.099306 
L 441.615975 62.722068 
L 441.831941 62.722068 
L 442.677808 61.967592 
L 442.803788 61.967592 
L 443.433689 61.590354 
L 444.531516 61.590354 
L 444.675494 60.835878 
L 449.750696 60.835878 
L 450.164631 60.45864 
L 450.308608 60.45864 
L 450.848523 60.081402 
L 451.730384 60.081402 
L 452.414277 59.704164 
L 456.031708 59.704164 
L 456.805586 58.949688 
L 460.836952 58.949688 
L 460.98093 58.57245 
L 463.788488 58.57245 
L 463.860477 58.195212 
L 465.192267 58.195212 
L 465.678191 57.817974 
L 466.362083 57.817974 
L 466.83001 57.440736 
L 469.799543 57.440736 
L 470.357455 57.063498 
L 475.28868 57.063498 
L 475.7926 56.68626 
L 477.232374 56.68626 
L 477.376351 56.309022 
L 482.577533 56.309022 
L 482.667519 55.931783 
L 484.521228 55.931783 
L 484.719197 55.554545 
L 498.109091 55.554545 
L 498.109091 55.554545 
" style="fill:none;stroke:#2b667c;stroke-linecap:square;stroke-width:1.5;"/>
   </g>
   <g id="line2d_14">
    <path clip-path="url(#pdad7323f03)" d="M 92.290909 302.645455 
L 498.109091 55.554545 
" style="fill:none;stroke:#ff0000;stroke-linecap:square;stroke-width:1.5;"/>
   </g>
   <g id="patch_3">
    <path d="M 72 315 
L 72 43.2 
" style="fill:none;stroke:#000000;stroke-linecap:square;stroke-linejoin:miter;stroke-width:0.8;"/>
   </g>
   <g id="patch_4">
    <path d="M 518.4 315 
L 518.4 43.2 
" style="fill:none;stroke:#000000;stroke-linecap:square;stroke-linejoin:miter;stroke-width:0.8;"/>
   </g>
   <g id="patch_5">
    <path d="M 72 315 
L 518.4 315 
" style="fill:none;stroke:#000000;stroke-linecap:square;stroke-linejoin:miter;stroke-width:0.8;"/>
   </g>
   <g id="patch_6">
    <path d="M 72 43.2 
L 518.4 43.2 
" style="fill:none;stroke:#000000;stroke-linecap:square;stroke-linejoin:miter;stroke-width:0.8;"/>
   </g>
   <g id="text_15">
    <!-- CUAUHTEMOC -->
    <g transform="translate(266.44375 37.2)scale(0.08 -0.08)">
     <defs>
      <path d="M 4122 4306 
L 4122 3641 
Q 3803 3938 3442 4084 
Q 3081 4231 2675 4231 
Q 1875 4231 1450 3742 
Q 1025 3253 1025 2328 
Q 1025 1406 1450 917 
Q 1875 428 2675 428 
Q 3081 428 3442 575 
Q 3803 722 4122 1019 
L 4122 359 
Q 3791 134 3420 21 
Q 3050 -91 2638 -91 
Q 1578 -91 968 557 
Q 359 1206 359 2328 
Q 359 3453 968 4101 
Q 1578 4750 2638 4750 
Q 3056 4750 3426 4639 
Q 3797 4528 4122 4306 
z
" id="DejaVuSans-43" transform="scale(0.015625)"/>
      <path d="M 556 4666 
L 1191 4666 
L 1191 1831 
Q 1191 1081 1462 751 
Q 1734 422 2344 422 
Q 2950 422 3222 751 
Q 3494 1081 3494 1831 
L 3494 4666 
L 4128 4666 
L 4128 1753 
Q 4128 841 3676 375 
Q 3225 -91 2344 -91 
Q 1459 -91 1007 375 
Q 556 841 556 1753 
L 556 4666 
z
" id="DejaVuSans-55" transform="scale(0.015625)"/>
      <path d="M 2188 4044 
L 1331 1722 
L 3047 1722 
L 2188 4044 
z
M 1831 4666 
L 2547 4666 
L 4325 0 
L 3669 0 
L 3244 1197 
L 1141 1197 
L 716 0 
L 50 0 
L 1831 4666 
z
" id="DejaVuSans-41" transform="scale(0.015625)"/>
      <path d="M 628 4666 
L 1259 4666 
L 1259 2753 
L 3553 2753 
L 3553 4666 
L 4184 4666 
L 4184 0 
L 3553 0 
L 3553 2222 
L 1259 2222 
L 1259 0 
L 628 0 
L 628 4666 
z
" id="DejaVuSans-48" transform="scale(0.015625)"/>
      <path d="M 628 4666 
L 3578 4666 
L 3578 4134 
L 1259 4134 
L 1259 2753 
L 3481 2753 
L 3481 2222 
L 1259 2222 
L 1259 531 
L 3634 531 
L 3634 0 
L 628 0 
L 628 4666 
z
" id="DejaVuSans-45" transform="scale(0.015625)"/>
      <path d="M 628 4666 
L 1569 4666 
L 2759 1491 
L 3956 4666 
L 4897 4666 
L 4897 0 
L 4281 0 
L 4281 4097 
L 3078 897 
L 2444 897 
L 1241 4097 
L 1241 0 
L 628 0 
L 628 4666 
z
" id="DejaVuSans-4d" transform="scale(0.015625)"/>
      <path d="M 2522 4238 
Q 1834 4238 1429 3725 
Q 1025 3213 1025 2328 
Q 1025 1447 1429 934 
Q 1834 422 2522 422 
Q 3209 422 3611 934 
Q 4013 1447 4013 2328 
Q 4013 3213 3611 3725 
Q 3209 4238 2522 4238 
z
M 2522 4750 
Q 3503 4750 4090 4092 
Q 4678 3434 4678 2328 
Q 4678 1225 4090 567 
Q 3503 -91 2522 -91 
Q 1538 -91 948 565 
Q 359 1222 359 2328 
Q 359 3434 948 4092 
Q 1538 4750 2522 4750 
z
" id="DejaVuSans-4f" transform="scale(0.015625)"/>
     </defs>
     <use xlink:href="#DejaVuSans-43"/>
     <use x="69.824219" xlink:href="#DejaVuSans-55"/>
     <use x="143.017578" xlink:href="#DejaVuSans-41"/>
     <use x="211.425781" xlink:href="#DejaVuSans-55"/>
     <use x="284.619141" xlink:href="#DejaVuSans-48"/>
     <use x="359.814453" xlink:href="#DejaVuSans-54"/>
     <use x="420.898438" xlink:href="#DejaVuSans-45"/>
     <use x="484.082031" xlink:href="#DejaVuSans-4d"/>
     <use x="570.361328" xlink:href="#DejaVuSans-4f"/>
     <use x="649.072266" xlink:href="#DejaVuSans-43"/>
    </g>
   </g>
  </g>
  <g id="text_16">
   <!-- ROC Curve -->
   <g transform="translate(244.4125 19.3575)scale(0.16 -0.16)">
    <defs>
     <path d="M 2841 2188 
Q 3044 2119 3236 1894 
Q 3428 1669 3622 1275 
L 4263 0 
L 3584 0 
L 2988 1197 
Q 2756 1666 2539 1819 
Q 2322 1972 1947 1972 
L 1259 1972 
L 1259 0 
L 628 0 
L 628 4666 
L 2053 4666 
Q 2853 4666 3247 4331 
Q 3641 3997 3641 3322 
Q 3641 2881 3436 2590 
Q 3231 2300 2841 2188 
z
M 1259 4147 
L 1259 2491 
L 2053 2491 
Q 2509 2491 2742 2702 
Q 2975 2913 2975 3322 
Q 2975 3731 2742 3939 
Q 2509 4147 2053 4147 
L 1259 4147 
z
" id="DejaVuSans-52" transform="scale(0.015625)"/>
    </defs>
    <use xlink:href="#DejaVuSans-52"/>
    <use x="69.482422" xlink:href="#DejaVuSans-4f"/>
    <use x="148.193359" xlink:href="#DejaVuSans-43"/>
    <use x="218.017578" xlink:href="#DejaVuSans-20"/>
    <use x="249.804688" xlink:href="#DejaVuSans-43"/>
    <use x="319.628906" xlink:href="#DejaVuSans-75"/>
    <use x="383.007812" xlink:href="#DejaVuSans-72"/>
    <use x="424.121094" xlink:href="#DejaVuSans-76"/>
    <use x="483.300781" xlink:href="#DejaVuSans-65"/>
   </g>
  </g>
 </g>
 <defs>
  <clipPath id="pdad7323f03">
   <rect height="271.8" width="446.4" x="72" y="43.2"/>
  </clipPath>
 </defs>
</svg>
