<?xml version="1.0" encoding="utf-8" standalone="no"?>
<!DOCTYPE svg PUBLIC "-//W3C//DTD SVG 1.1//EN"
  "http://www.w3.org/Graphics/SVG/1.1/DTD/svg11.dtd">
<svg height="360pt" version="1.1" viewBox="0 0 576 360" width="576pt" xmlns="http://www.w3.org/2000/svg" xmlns:xlink="http://www.w3.org/1999/xlink">
 <metadata>
  <rdf:RDF xmlns:cc="http://creativecommons.org/ns#" xmlns:dc="http://purl.org/dc/elements/1.1/" xmlns:rdf="http://www.w3.org/1999/02/22-rdf-syntax-ns#">
   <cc:Work>
    <dc:type rdf:resource="http://purl.org/dc/dcmitype/StillImage"/>
    <dc:date>2022-01-04T19:19:49.425532</dc:date>
    <dc:format>image/svg+xml</dc:format>
    <dc:creator>
     <cc:Agent>
      <dc:title>Matplotlib v3.4.3, https://matplotlib.org/</dc:title>
     </cc:Agent>
    </dc:creator>
   </cc:Work>
  </rdf:RDF>
 </metadata>
 <defs>
  <style type="text/css">*{stroke-linecap:butt;stroke-linejoin:round;}</style>
 </defs>
 <g id="figure_1">
  <g id="patch_1">
   <path d="M 0 360 
L 576 360 
L 576 0 
L 0 0 
z
" style="fill:none;"/>
  </g>
  <g id="axes_1">
   <g id="patch_2">
    <path d="M 72 315 
L 518.4 315 
L 518.4 43.2 
L 72 43.2 
z
" style="fill:#ffffff;"/>
   </g>
   <g id="matplotlib.axis_1">
    <g id="xtick_1">
     <g id="line2d_1">
      <defs>
       <path d="M 0 0 
L 0 3.5 
" id="m09ae2101b0" style="stroke:#000000;stroke-width:0.8;"/>
      </defs>
      <g>
       <use style="stroke:#000000;stroke-width:0.8;" x="92.290909" xlink:href="#m09ae2101b0" y="315"/>
      </g>
     </g>
     <g id="text_1">
      <!-- 0.0 -->
      <g transform="translate(84.339347 329.598437)scale(0.1 -0.1)">
       <defs>
        <path d="M 2034 4250 
Q 1547 4250 1301 3770 
Q 1056 3291 1056 2328 
Q 1056 1369 1301 889 
Q 1547 409 2034 409 
Q 2525 409 2770 889 
Q 3016 1369 3016 2328 
Q 3016 3291 2770 3770 
Q 2525 4250 2034 4250 
z
M 2034 4750 
Q 2819 4750 3233 4129 
Q 3647 3509 3647 2328 
Q 3647 1150 3233 529 
Q 2819 -91 2034 -91 
Q 1250 -91 836 529 
Q 422 1150 422 2328 
Q 422 3509 836 4129 
Q 1250 4750 2034 4750 
z
" id="DejaVuSans-30" transform="scale(0.015625)"/>
        <path d="M 684 794 
L 1344 794 
L 1344 0 
L 684 0 
L 684 794 
z
" id="DejaVuSans-2e" transform="scale(0.015625)"/>
       </defs>
       <use xlink:href="#DejaVuSans-30"/>
       <use x="63.623047" xlink:href="#DejaVuSans-2e"/>
       <use x="95.410156" xlink:href="#DejaVuSans-30"/>
      </g>
     </g>
    </g>
    <g id="xtick_2">
     <g id="line2d_2">
      <g>
       <use style="stroke:#000000;stroke-width:0.8;" x="173.454545" xlink:href="#m09ae2101b0" y="315"/>
      </g>
     </g>
     <g id="text_2">
      <!-- 0.2 -->
      <g transform="translate(165.502983 329.598437)scale(0.1 -0.1)">
       <defs>
        <path d="M 1228 531 
L 3431 531 
L 3431 0 
L 469 0 
L 469 531 
Q 828 903 1448 1529 
Q 2069 2156 2228 2338 
Q 2531 2678 2651 2914 
Q 2772 3150 2772 3378 
Q 2772 3750 2511 3984 
Q 2250 4219 1831 4219 
Q 1534 4219 1204 4116 
Q 875 4013 500 3803 
L 500 4441 
Q 881 4594 1212 4672 
Q 1544 4750 1819 4750 
Q 2544 4750 2975 4387 
Q 3406 4025 3406 3419 
Q 3406 3131 3298 2873 
Q 3191 2616 2906 2266 
Q 2828 2175 2409 1742 
Q 1991 1309 1228 531 
z
" id="DejaVuSans-32" transform="scale(0.015625)"/>
       </defs>
       <use xlink:href="#DejaVuSans-30"/>
       <use x="63.623047" xlink:href="#DejaVuSans-2e"/>
       <use x="95.410156" xlink:href="#DejaVuSans-32"/>
      </g>
     </g>
    </g>
    <g id="xtick_3">
     <g id="line2d_3">
      <g>
       <use style="stroke:#000000;stroke-width:0.8;" x="254.618182" xlink:href="#m09ae2101b0" y="315"/>
      </g>
     </g>
     <g id="text_3">
      <!-- 0.4 -->
      <g transform="translate(246.666619 329.598437)scale(0.1 -0.1)">
       <defs>
        <path d="M 2419 4116 
L 825 1625 
L 2419 1625 
L 2419 4116 
z
M 2253 4666 
L 3047 4666 
L 3047 1625 
L 3713 1625 
L 3713 1100 
L 3047 1100 
L 3047 0 
L 2419 0 
L 2419 1100 
L 313 1100 
L 313 1709 
L 2253 4666 
z
" id="DejaVuSans-34" transform="scale(0.015625)"/>
       </defs>
       <use xlink:href="#DejaVuSans-30"/>
       <use x="63.623047" xlink:href="#DejaVuSans-2e"/>
       <use x="95.410156" xlink:href="#DejaVuSans-34"/>
      </g>
     </g>
    </g>
    <g id="xtick_4">
     <g id="line2d_4">
      <g>
       <use style="stroke:#000000;stroke-width:0.8;" x="335.781818" xlink:href="#m09ae2101b0" y="315"/>
      </g>
     </g>
     <g id="text_4">
      <!-- 0.6 -->
      <g transform="translate(327.830256 329.598437)scale(0.1 -0.1)">
       <defs>
        <path d="M 2113 2584 
Q 1688 2584 1439 2293 
Q 1191 2003 1191 1497 
Q 1191 994 1439 701 
Q 1688 409 2113 409 
Q 2538 409 2786 701 
Q 3034 994 3034 1497 
Q 3034 2003 2786 2293 
Q 2538 2584 2113 2584 
z
M 3366 4563 
L 3366 3988 
Q 3128 4100 2886 4159 
Q 2644 4219 2406 4219 
Q 1781 4219 1451 3797 
Q 1122 3375 1075 2522 
Q 1259 2794 1537 2939 
Q 1816 3084 2150 3084 
Q 2853 3084 3261 2657 
Q 3669 2231 3669 1497 
Q 3669 778 3244 343 
Q 2819 -91 2113 -91 
Q 1303 -91 875 529 
Q 447 1150 447 2328 
Q 447 3434 972 4092 
Q 1497 4750 2381 4750 
Q 2619 4750 2861 4703 
Q 3103 4656 3366 4563 
z
" id="DejaVuSans-36" transform="scale(0.015625)"/>
       </defs>
       <use xlink:href="#DejaVuSans-30"/>
       <use x="63.623047" xlink:href="#DejaVuSans-2e"/>
       <use x="95.410156" xlink:href="#DejaVuSans-36"/>
      </g>
     </g>
    </g>
    <g id="xtick_5">
     <g id="line2d_5">
      <g>
       <use style="stroke:#000000;stroke-width:0.8;" x="416.945455" xlink:href="#m09ae2101b0" y="315"/>
      </g>
     </g>
     <g id="text_5">
      <!-- 0.8 -->
      <g transform="translate(408.993892 329.598437)scale(0.1 -0.1)">
       <defs>
        <path d="M 2034 2216 
Q 1584 2216 1326 1975 
Q 1069 1734 1069 1313 
Q 1069 891 1326 650 
Q 1584 409 2034 409 
Q 2484 409 2743 651 
Q 3003 894 3003 1313 
Q 3003 1734 2745 1975 
Q 2488 2216 2034 2216 
z
M 1403 2484 
Q 997 2584 770 2862 
Q 544 3141 544 3541 
Q 544 4100 942 4425 
Q 1341 4750 2034 4750 
Q 2731 4750 3128 4425 
Q 3525 4100 3525 3541 
Q 3525 3141 3298 2862 
Q 3072 2584 2669 2484 
Q 3125 2378 3379 2068 
Q 3634 1759 3634 1313 
Q 3634 634 3220 271 
Q 2806 -91 2034 -91 
Q 1263 -91 848 271 
Q 434 634 434 1313 
Q 434 1759 690 2068 
Q 947 2378 1403 2484 
z
M 1172 3481 
Q 1172 3119 1398 2916 
Q 1625 2713 2034 2713 
Q 2441 2713 2670 2916 
Q 2900 3119 2900 3481 
Q 2900 3844 2670 4047 
Q 2441 4250 2034 4250 
Q 1625 4250 1398 4047 
Q 1172 3844 1172 3481 
z
" id="DejaVuSans-38" transform="scale(0.015625)"/>
       </defs>
       <use xlink:href="#DejaVuSans-30"/>
       <use x="63.623047" xlink:href="#DejaVuSans-2e"/>
       <use x="95.410156" xlink:href="#DejaVuSans-38"/>
      </g>
     </g>
    </g>
    <g id="xtick_6">
     <g id="line2d_6">
      <g>
       <use style="stroke:#000000;stroke-width:0.8;" x="498.109091" xlink:href="#m09ae2101b0" y="315"/>
      </g>
     </g>
     <g id="text_6">
      <!-- 1.0 -->
      <g transform="translate(490.157528 329.598437)scale(0.1 -0.1)">
       <defs>
        <path d="M 794 531 
L 1825 531 
L 1825 4091 
L 703 3866 
L 703 4441 
L 1819 4666 
L 2450 4666 
L 2450 531 
L 3481 531 
L 3481 0 
L 794 0 
L 794 531 
z
" id="DejaVuSans-31" transform="scale(0.015625)"/>
       </defs>
       <use xlink:href="#DejaVuSans-31"/>
       <use x="63.623047" xlink:href="#DejaVuSans-2e"/>
       <use x="95.410156" xlink:href="#DejaVuSans-30"/>
      </g>
     </g>
    </g>
    <g id="text_7">
     <!-- False positive rate -->
     <g transform="translate(249.699219 343.276563)scale(0.1 -0.1)">
      <defs>
       <path d="M 628 4666 
L 3309 4666 
L 3309 4134 
L 1259 4134 
L 1259 2759 
L 3109 2759 
L 3109 2228 
L 1259 2228 
L 1259 0 
L 628 0 
L 628 4666 
z
" id="DejaVuSans-46" transform="scale(0.015625)"/>
       <path d="M 2194 1759 
Q 1497 1759 1228 1600 
Q 959 1441 959 1056 
Q 959 750 1161 570 
Q 1363 391 1709 391 
Q 2188 391 2477 730 
Q 2766 1069 2766 1631 
L 2766 1759 
L 2194 1759 
z
M 3341 1997 
L 3341 0 
L 2766 0 
L 2766 531 
Q 2569 213 2275 61 
Q 1981 -91 1556 -91 
Q 1019 -91 701 211 
Q 384 513 384 1019 
Q 384 1609 779 1909 
Q 1175 2209 1959 2209 
L 2766 2209 
L 2766 2266 
Q 2766 2663 2505 2880 
Q 2244 3097 1772 3097 
Q 1472 3097 1187 3025 
Q 903 2953 641 2809 
L 641 3341 
Q 956 3463 1253 3523 
Q 1550 3584 1831 3584 
Q 2591 3584 2966 3190 
Q 3341 2797 3341 1997 
z
" id="DejaVuSans-61" transform="scale(0.015625)"/>
       <path d="M 603 4863 
L 1178 4863 
L 1178 0 
L 603 0 
L 603 4863 
z
" id="DejaVuSans-6c" transform="scale(0.015625)"/>
       <path d="M 2834 3397 
L 2834 2853 
Q 2591 2978 2328 3040 
Q 2066 3103 1784 3103 
Q 1356 3103 1142 2972 
Q 928 2841 928 2578 
Q 928 2378 1081 2264 
Q 1234 2150 1697 2047 
L 1894 2003 
Q 2506 1872 2764 1633 
Q 3022 1394 3022 966 
Q 3022 478 2636 193 
Q 2250 -91 1575 -91 
Q 1294 -91 989 -36 
Q 684 19 347 128 
L 347 722 
Q 666 556 975 473 
Q 1284 391 1588 391 
Q 1994 391 2212 530 
Q 2431 669 2431 922 
Q 2431 1156 2273 1281 
Q 2116 1406 1581 1522 
L 1381 1569 
Q 847 1681 609 1914 
Q 372 2147 372 2553 
Q 372 3047 722 3315 
Q 1072 3584 1716 3584 
Q 2034 3584 2315 3537 
Q 2597 3491 2834 3397 
z
" id="DejaVuSans-73" transform="scale(0.015625)"/>
       <path d="M 3597 1894 
L 3597 1613 
L 953 1613 
Q 991 1019 1311 708 
Q 1631 397 2203 397 
Q 2534 397 2845 478 
Q 3156 559 3463 722 
L 3463 178 
Q 3153 47 2828 -22 
Q 2503 -91 2169 -91 
Q 1331 -91 842 396 
Q 353 884 353 1716 
Q 353 2575 817 3079 
Q 1281 3584 2069 3584 
Q 2775 3584 3186 3129 
Q 3597 2675 3597 1894 
z
M 3022 2063 
Q 3016 2534 2758 2815 
Q 2500 3097 2075 3097 
Q 1594 3097 1305 2825 
Q 1016 2553 972 2059 
L 3022 2063 
z
" id="DejaVuSans-65" transform="scale(0.015625)"/>
       <path id="DejaVuSans-20" transform="scale(0.015625)"/>
       <path d="M 1159 525 
L 1159 -1331 
L 581 -1331 
L 581 3500 
L 1159 3500 
L 1159 2969 
Q 1341 3281 1617 3432 
Q 1894 3584 2278 3584 
Q 2916 3584 3314 3078 
Q 3713 2572 3713 1747 
Q 3713 922 3314 415 
Q 2916 -91 2278 -91 
Q 1894 -91 1617 61 
Q 1341 213 1159 525 
z
M 3116 1747 
Q 3116 2381 2855 2742 
Q 2594 3103 2138 3103 
Q 1681 3103 1420 2742 
Q 1159 2381 1159 1747 
Q 1159 1113 1420 752 
Q 1681 391 2138 391 
Q 2594 391 2855 752 
Q 3116 1113 3116 1747 
z
" id="DejaVuSans-70" transform="scale(0.015625)"/>
       <path d="M 1959 3097 
Q 1497 3097 1228 2736 
Q 959 2375 959 1747 
Q 959 1119 1226 758 
Q 1494 397 1959 397 
Q 2419 397 2687 759 
Q 2956 1122 2956 1747 
Q 2956 2369 2687 2733 
Q 2419 3097 1959 3097 
z
M 1959 3584 
Q 2709 3584 3137 3096 
Q 3566 2609 3566 1747 
Q 3566 888 3137 398 
Q 2709 -91 1959 -91 
Q 1206 -91 779 398 
Q 353 888 353 1747 
Q 353 2609 779 3096 
Q 1206 3584 1959 3584 
z
" id="DejaVuSans-6f" transform="scale(0.015625)"/>
       <path d="M 603 3500 
L 1178 3500 
L 1178 0 
L 603 0 
L 603 3500 
z
M 603 4863 
L 1178 4863 
L 1178 4134 
L 603 4134 
L 603 4863 
z
" id="DejaVuSans-69" transform="scale(0.015625)"/>
       <path d="M 1172 4494 
L 1172 3500 
L 2356 3500 
L 2356 3053 
L 1172 3053 
L 1172 1153 
Q 1172 725 1289 603 
Q 1406 481 1766 481 
L 2356 481 
L 2356 0 
L 1766 0 
Q 1100 0 847 248 
Q 594 497 594 1153 
L 594 3053 
L 172 3053 
L 172 3500 
L 594 3500 
L 594 4494 
L 1172 4494 
z
" id="DejaVuSans-74" transform="scale(0.015625)"/>
       <path d="M 191 3500 
L 800 3500 
L 1894 563 
L 2988 3500 
L 3597 3500 
L 2284 0 
L 1503 0 
L 191 3500 
z
" id="DejaVuSans-76" transform="scale(0.015625)"/>
       <path d="M 2631 2963 
Q 2534 3019 2420 3045 
Q 2306 3072 2169 3072 
Q 1681 3072 1420 2755 
Q 1159 2438 1159 1844 
L 1159 0 
L 581 0 
L 581 3500 
L 1159 3500 
L 1159 2956 
Q 1341 3275 1631 3429 
Q 1922 3584 2338 3584 
Q 2397 3584 2469 3576 
Q 2541 3569 2628 3553 
L 2631 2963 
z
" id="DejaVuSans-72" transform="scale(0.015625)"/>
      </defs>
      <use xlink:href="#DejaVuSans-46"/>
      <use x="48.394531" xlink:href="#DejaVuSans-61"/>
      <use x="109.673828" xlink:href="#DejaVuSans-6c"/>
      <use x="137.457031" xlink:href="#DejaVuSans-73"/>
      <use x="189.556641" xlink:href="#DejaVuSans-65"/>
      <use x="251.080078" xlink:href="#DejaVuSans-20"/>
      <use x="282.867188" xlink:href="#DejaVuSans-70"/>
      <use x="346.34375" xlink:href="#DejaVuSans-6f"/>
      <use x="407.525391" xlink:href="#DejaVuSans-73"/>
      <use x="459.625" xlink:href="#DejaVuSans-69"/>
      <use x="487.408203" xlink:href="#DejaVuSans-74"/>
      <use x="526.617188" xlink:href="#DejaVuSans-69"/>
      <use x="554.400391" xlink:href="#DejaVuSans-76"/>
      <use x="613.580078" xlink:href="#DejaVuSans-65"/>
      <use x="675.103516" xlink:href="#DejaVuSans-20"/>
      <use x="706.890625" xlink:href="#DejaVuSans-72"/>
      <use x="748.003906" xlink:href="#DejaVuSans-61"/>
      <use x="809.283203" xlink:href="#DejaVuSans-74"/>
      <use x="848.492188" xlink:href="#DejaVuSans-65"/>
     </g>
    </g>
   </g>
   <g id="matplotlib.axis_2">
    <g id="ytick_1">
     <g id="line2d_7">
      <defs>
       <path d="M 0 0 
L -3.5 0 
" id="m5a6cae0215" style="stroke:#000000;stroke-width:0.8;"/>
      </defs>
      <g>
       <use style="stroke:#000000;stroke-width:0.8;" x="72" xlink:href="#m5a6cae0215" y="302.645455"/>
      </g>
     </g>
     <g id="text_8">
      <!-- 0.0 -->
      <g transform="translate(49.096875 306.444673)scale(0.1 -0.1)">
       <use xlink:href="#DejaVuSans-30"/>
       <use x="63.623047" xlink:href="#DejaVuSans-2e"/>
       <use x="95.410156" xlink:href="#DejaVuSans-30"/>
      </g>
     </g>
    </g>
    <g id="ytick_2">
     <g id="line2d_8">
      <g>
       <use style="stroke:#000000;stroke-width:0.8;" x="72" xlink:href="#m5a6cae0215" y="253.227273"/>
      </g>
     </g>
     <g id="text_9">
      <!-- 0.2 -->
      <g transform="translate(49.096875 257.026491)scale(0.1 -0.1)">
       <use xlink:href="#DejaVuSans-30"/>
       <use x="63.623047" xlink:href="#DejaVuSans-2e"/>
       <use x="95.410156" xlink:href="#DejaVuSans-32"/>
      </g>
     </g>
    </g>
    <g id="ytick_3">
     <g id="line2d_9">
      <g>
       <use style="stroke:#000000;stroke-width:0.8;" x="72" xlink:href="#m5a6cae0215" y="203.809091"/>
      </g>
     </g>
     <g id="text_10">
      <!-- 0.4 -->
      <g transform="translate(49.096875 207.60831)scale(0.1 -0.1)">
       <use xlink:href="#DejaVuSans-30"/>
       <use x="63.623047" xlink:href="#DejaVuSans-2e"/>
       <use x="95.410156" xlink:href="#DejaVuSans-34"/>
      </g>
     </g>
    </g>
    <g id="ytick_4">
     <g id="line2d_10">
      <g>
       <use style="stroke:#000000;stroke-width:0.8;" x="72" xlink:href="#m5a6cae0215" y="154.390909"/>
      </g>
     </g>
     <g id="text_11">
      <!-- 0.6 -->
      <g transform="translate(49.096875 158.190128)scale(0.1 -0.1)">
       <use xlink:href="#DejaVuSans-30"/>
       <use x="63.623047" xlink:href="#DejaVuSans-2e"/>
       <use x="95.410156" xlink:href="#DejaVuSans-36"/>
      </g>
     </g>
    </g>
    <g id="ytick_5">
     <g id="line2d_11">
      <g>
       <use style="stroke:#000000;stroke-width:0.8;" x="72" xlink:href="#m5a6cae0215" y="104.972727"/>
      </g>
     </g>
     <g id="text_12">
      <!-- 0.8 -->
      <g transform="translate(49.096875 108.771946)scale(0.1 -0.1)">
       <use xlink:href="#DejaVuSans-30"/>
       <use x="63.623047" xlink:href="#DejaVuSans-2e"/>
       <use x="95.410156" xlink:href="#DejaVuSans-38"/>
      </g>
     </g>
    </g>
    <g id="ytick_6">
     <g id="line2d_12">
      <g>
       <use style="stroke:#000000;stroke-width:0.8;" x="72" xlink:href="#m5a6cae0215" y="55.554545"/>
      </g>
     </g>
     <g id="text_13">
      <!-- 1.0 -->
      <g transform="translate(49.096875 59.353764)scale(0.1 -0.1)">
       <use xlink:href="#DejaVuSans-31"/>
       <use x="63.623047" xlink:href="#DejaVuSans-2e"/>
       <use x="95.410156" xlink:href="#DejaVuSans-30"/>
      </g>
     </g>
    </g>
    <g id="text_14">
     <!-- True positive rate -->
     <g transform="translate(43.017187 222.664062)rotate(-90)scale(0.1 -0.1)">
      <defs>
       <path d="M -19 4666 
L 3928 4666 
L 3928 4134 
L 2272 4134 
L 2272 0 
L 1638 0 
L 1638 4134 
L -19 4134 
L -19 4666 
z
" id="DejaVuSans-54" transform="scale(0.015625)"/>
       <path d="M 544 1381 
L 544 3500 
L 1119 3500 
L 1119 1403 
Q 1119 906 1312 657 
Q 1506 409 1894 409 
Q 2359 409 2629 706 
Q 2900 1003 2900 1516 
L 2900 3500 
L 3475 3500 
L 3475 0 
L 2900 0 
L 2900 538 
Q 2691 219 2414 64 
Q 2138 -91 1772 -91 
Q 1169 -91 856 284 
Q 544 659 544 1381 
z
M 1991 3584 
L 1991 3584 
z
" id="DejaVuSans-75" transform="scale(0.015625)"/>
      </defs>
      <use xlink:href="#DejaVuSans-54"/>
      <use x="46.333984" xlink:href="#DejaVuSans-72"/>
      <use x="87.447266" xlink:href="#DejaVuSans-75"/>
      <use x="150.826172" xlink:href="#DejaVuSans-65"/>
      <use x="212.349609" xlink:href="#DejaVuSans-20"/>
      <use x="244.136719" xlink:href="#DejaVuSans-70"/>
      <use x="307.613281" xlink:href="#DejaVuSans-6f"/>
      <use x="368.794922" xlink:href="#DejaVuSans-73"/>
      <use x="420.894531" xlink:href="#DejaVuSans-69"/>
      <use x="448.677734" xlink:href="#DejaVuSans-74"/>
      <use x="487.886719" xlink:href="#DejaVuSans-69"/>
      <use x="515.669922" xlink:href="#DejaVuSans-76"/>
      <use x="574.849609" xlink:href="#DejaVuSans-65"/>
      <use x="636.373047" xlink:href="#DejaVuSans-20"/>
      <use x="668.160156" xlink:href="#DejaVuSans-72"/>
      <use x="709.273438" xlink:href="#DejaVuSans-61"/>
      <use x="770.552734" xlink:href="#DejaVuSans-74"/>
      <use x="809.761719" xlink:href="#DejaVuSans-65"/>
     </g>
    </g>
   </g>
   <g id="line2d_13">
    <path clip-path="url(#pee3500ea08)" d="M 92.290909 302.645455 
L 92.981388 302.645455 
L 93.136393 300.861405 
L 93.347764 300.861405 
L 93.432312 299.077355 
L 93.770506 299.077355 
L 93.826872 298.18533 
L 94.911909 298.18533 
L 94.996458 296.40128 
L 95.066915 296.40128 
L 95.447382 294.61723 
L 95.715119 294.61723 
L 95.757393 293.725205 
L 95.870124 293.725205 
L 96.067404 292.83318 
L 96.997436 292.83318 
L 97.208807 291.941155 
L 97.307447 290.157105 
L 97.617458 289.26508 
L 97.702006 287.481031 
L 97.871103 287.481031 
L 97.983834 286.589006 
L 98.167022 286.589006 
L 98.44885 285.696981 
L 98.702495 285.696981 
L 98.758861 283.912931 
L 99.209786 283.912931 
L 99.336608 282.128881 
L 99.576162 282.128881 
L 99.731167 280.344831 
L 100.125727 278.560781 
L 100.280732 277.668756 
L 100.520286 277.668756 
L 100.633017 276.776731 
L 100.802114 276.776731 
L 100.844388 275.884706 
L 101.06985 275.884706 
L 101.196673 274.100656 
L 101.351678 274.100656 
L 101.450318 272.316606 
L 101.943517 272.316606 
L 102.140797 269.640532 
L 102.281711 269.640532 
L 102.309893 268.748507 
L 102.422625 267.856482 
L 102.648087 267.856482 
L 102.690361 266.964457 
L 103.296291 266.964457 
L 103.747216 265.180407 
L 104.240415 265.180407 
L 104.282689 263.396357 
L 104.719522 263.396357 
L 104.888619 262.504332 
L 105.114082 262.504332 
L 105.39591 260.720282 
L 105.466367 260.720282 
L 105.565006 259.828257 
L 106.635953 259.828257 
L 106.748684 258.936232 
L 106.931872 258.936232 
L 107.072786 258.044207 
L 108.101458 258.044207 
L 108.143732 257.152182 
L 108.693297 257.152182 
L 108.735571 256.260158 
L 109.200587 256.260158 
L 109.355593 255.368133 
L 109.651512 255.368133 
L 109.947431 253.584083 
L 110.144711 253.584083 
L 110.271533 252.692058 
L 110.384265 250.908008 
L 110.623818 250.908008 
L 110.73655 250.015983 
L 111.300205 250.015983 
L 111.666582 249.123958 
L 111.793404 248.231933 
L 112.173872 246.447883 
L 112.723437 246.447883 
L 112.977082 244.663833 
L 113.16027 242.879783 
L 113.216636 242.879783 
L 113.329367 241.095734 
L 113.413915 241.095734 
L 113.526646 240.203709 
L 113.794383 240.203709 
L 113.893023 239.311684 
L 114.06212 239.311684 
L 114.217125 238.419659 
L 114.428496 238.419659 
L 114.597593 235.743584 
L 114.766689 235.743584 
L 114.992152 234.851559 
L 115.97855 234.851559 
L 116.07719 233.959534 
L 116.429475 233.959534 
L 116.514023 233.067509 
L 116.669028 233.067509 
L 116.697211 231.283459 
L 117.415872 231.283459 
L 117.500421 230.391434 
L 117.655426 230.391434 
L 117.6977 229.499409 
L 118.247265 229.499409 
L 118.374087 228.607384 
L 118.627733 228.607384 
L 119.0082 227.715359 
L 119.120932 226.823334 
L 119.557765 226.823334 
L 119.656405 225.931309 
L 119.924141 225.039285 
L 119.952324 223.255235 
L 120.079147 223.255235 
L 120.220061 221.471185 
L 120.685077 221.471185 
L 120.783717 220.57916 
L 121.178276 220.57916 
L 121.234641 219.687135 
L 121.488287 219.687135 
L 121.643292 218.79511 
L 122.136491 218.79511 
L 122.178765 217.903085 
L 122.573324 217.903085 
L 122.869244 217.01106 
L 123.362443 217.01106 
L 123.630179 214.334985 
L 123.84155 214.334985 
L 123.968373 213.44296 
L 124.827948 213.44296 
L 124.926588 212.550935 
L 125.25069 212.550935 
L 125.377512 211.65891 
L 125.588883 210.766885 
L 126.349819 210.766885 
L 126.533007 209.874861 
L 126.65983 209.874861 
L 126.744378 207.198786 
L 126.955749 207.198786 
L 127.06848 206.306761 
L 127.293943 206.306761 
L 127.434857 204.522711 
L 127.758959 204.522711 
L 127.899873 201.846636 
L 128.026695 200.954611 
L 128.37898 200.954611 
L 128.421255 200.062586 
L 130.351776 200.062586 
L 130.478599 199.170561 
L 130.534964 199.170561 
L 130.647695 198.278536 
L 130.830884 198.278536 
L 130.99998 197.386511 
L 131.183169 197.386511 
L 131.479088 196.494486 
L 131.831373 196.494486 
L 131.915921 194.710436 
L 132.155475 194.710436 
L 132.451394 193.818412 
L 133.930991 193.818412 
L 133.973265 192.926387 
L 134.551013 192.926387 
L 134.846932 191.142337 
L 135.016029 191.142337 
L 135.2274 190.250312 
L 136.73518 190.250312 
L 136.73518 189.358287 
L 136.749271 189.358287 
L 138.341599 189.358287 
L 138.45433 188.466262 
L 141.089422 188.466262 
L 141.131696 187.574237 
L 141.97718 187.574237 
L 142.132185 186.682212 
L 143.69633 186.682212 
L 144.034524 184.898162 
L 149.03697 184.898162 
L 149.290616 184.006137 
L 150.03746 184.006137 
L 150.079734 183.114112 
L 150.248831 183.114112 
L 150.417927 182.222087 
L 151.080223 182.222087 
L 151.080223 180.438037 
L 151.136589 180.438037 
L 151.841159 180.438037 
L 151.939798 179.546012 
L 154.588981 179.546012 
L 154.729895 178.653988 
L 155.08218 178.653988 
L 155.124454 177.761963 
L 155.364008 177.761963 
L 155.490831 176.869938 
L 157.364987 176.869938 
L 157.407261 175.977913 
L 158.069557 175.977913 
L 158.210471 175.085888 
L 159.746433 175.085888 
L 160.01417 174.193863 
L 161.155573 174.193863 
L 161.395127 173.301838 
L 162.367433 173.301838 
L 162.451982 171.517788 
L 162.747901 171.517788 
L 162.860632 170.625763 
L 163.311557 170.625763 
L 163.565202 169.733738 
L 164.35432 169.733738 
L 164.579783 168.841713 
L 166.947138 168.841713 
L 167.045777 167.949688 
L 168.877659 167.949688 
L 168.919933 167.057663 
L 170.159977 167.057663 
L 170.202251 166.165638 
L 170.737724 164.381588 
L 170.949095 164.381588 
L 171.061826 163.489564 
L 171.611391 163.489564 
L 171.780487 162.597539 
L 171.935493 162.597539 
L 172.273686 161.705514 
L 174.556493 161.705514 
L 174.655133 160.813489 
L 174.796047 160.813489 
L 175.063783 159.921464 
L 175.204697 159.921464 
L 175.303337 159.029439 
L 176.092455 159.029439 
L 176.148821 158.137414 
L 176.402466 158.137414 
L 176.529289 157.245389 
L 177.572052 157.245389 
L 177.727057 155.461339 
L 178.234348 155.461339 
L 178.36117 154.569314 
L 178.995283 154.569314 
L 179.108014 153.677289 
L 179.728036 153.677289 
L 179.953498 152.785264 
L 180.446697 152.785264 
L 180.57352 151.893239 
L 185.378687 151.893239 
L 185.40687 150.109189 
L 185.519601 150.109189 
L 185.575966 149.217164 
L 185.857794 148.325139 
L 186.294628 148.325139 
L 186.435542 147.433115 
L 186.830101 147.433115 
L 187.055563 146.54109 
L 187.238751 146.54109 
L 187.281026 145.649065 
L 187.393757 145.649065 
L 187.506488 144.75704 
L 188.591526 144.75704 
L 188.591526 143.865015 
L 188.676074 143.865015 
L 188.986085 143.865015 
L 189.155182 142.97299 
L 189.704746 142.97299 
L 189.803386 142.080965 
L 190.183854 142.080965 
L 190.296585 141.18894 
L 190.64887 141.18894 
L 190.691144 140.296915 
L 191.931187 140.296915 
L 192.100284 139.40489 
L 193.199413 139.40489 
L 193.67852 138.512865 
L 194.918563 138.512865 
L 195.059477 137.62084 
L 195.665408 137.62084 
L 195.79223 135.83679 
L 195.904961 135.83679 
L 196.059967 134.944765 
L 198.906429 134.944765 
L 199.21644 134.05274 
L 199.272806 133.160715 
L 200.541031 133.160715 
L 200.710128 132.268691 
L 201.344241 132.268691 
L 201.485155 131.376666 
L 203.204306 131.376666 
L 203.373402 129.592616 
L 203.979333 129.592616 
L 204.387983 128.700591 
L 205.050279 128.700591 
L 205.050279 127.808566 
L 205.106644 127.808566 
L 206.684881 127.808566 
L 206.727155 126.024516 
L 207.135806 126.024516 
L 207.17808 125.132491 
L 207.290811 125.132491 
L 207.629005 124.240466 
L 208.305392 124.240466 
L 208.629494 123.348441 
L 209.376338 123.348441 
L 209.418612 122.456416 
L 209.89772 122.456416 
L 210.038634 121.564391 
L 210.771387 121.564391 
L 210.870026 120.672366 
L 211.137763 120.672366 
L 211.222311 119.780341 
L 211.926881 119.780341 
L 211.983247 118.888316 
L 212.856914 118.888316 
L 212.856914 117.996291 
L 214.604247 117.996291 
L 215.055172 117.104266 
L 215.210177 116.212242 
L 221.241296 116.212242 
L 221.368118 115.320217 
L 221.424484 115.320217 
L 221.847226 114.428192 
L 225.72236 114.428192 
L 225.947823 113.536167 
L 228.061532 113.536167 
L 228.188355 112.644142 
L 229.512946 112.644142 
L 229.555221 111.752117 
L 232.021215 111.752117 
L 232.415775 110.860092 
L 233.092162 110.860092 
L 233.218984 109.968067 
L 234.219474 109.968067 
L 234.346296 109.076042 
L 238.827361 109.076042 
L 239.165554 108.184017 
L 240.363323 108.184017 
L 240.476054 107.291992 
L 241.687915 107.291992 
L 241.828829 105.507942 
L 246.436716 105.507942 
L 246.549447 104.615917 
L 248.620883 104.615917 
L 248.747705 103.723892 
L 250.283668 103.723892 
L 250.551404 102.831867 
L 251.91827 102.831867 
L 252.129641 101.047818 
L 253.200587 101.047818 
L 253.383775 99.263768 
L 256.145689 99.263768 
L 256.328878 97.479718 
L 257.188453 97.479718 
L 257.315275 96.587693 
L 258.498953 96.587693 
L 258.541227 95.695668 
L 269.05341 95.695668 
L 269.208416 94.803643 
L 270.730287 94.803643 
L 270.814835 93.911618 
L 272.083061 93.911618 
L 272.209884 93.019593 
L 277.395518 93.019593 
L 277.437792 92.127568 
L 279.791056 92.127568 
L 279.960153 91.235543 
L 283.285723 91.235543 
L 283.581642 90.343518 
L 284.779411 90.343518 
L 284.821685 89.451493 
L 285.047147 89.451493 
L 285.343067 88.559468 
L 285.624895 88.559468 
L 285.793992 87.667443 
L 288.133164 87.667443 
L 288.245895 86.775418 
L 292.064664 86.775418 
L 292.219669 85.883394 
L 293.206067 85.883394 
L 293.628809 84.991369 
L 296.686643 84.991369 
L 296.855739 84.099344 
L 297.348938 84.099344 
L 297.475761 83.207319 
L 301.238164 83.207319 
L 301.604541 82.315294 
L 301.886369 82.315294 
L 301.928643 81.423269 
L 302.464116 81.423269 
L 302.633213 80.531244 
L 309.227987 80.531244 
L 309.622546 79.639219 
L 310.017105 79.639219 
L 310.228476 78.747194 
L 312.314003 78.747194 
L 312.426735 77.855169 
L 315.583208 77.855169 
L 315.667756 76.963144 
L 316.978256 76.963144 
L 317.02053 76.071119 
L 324.517154 76.071119 
L 324.742617 75.179094 
L 328.209101 75.179094 
L 328.251375 74.287069 
L 329.984617 74.287069 
L 330.210079 73.395044 
L 335.522536 73.395044 
L 336.114375 72.503019 
L 341.694569 72.503019 
L 342.103219 71.610994 
L 342.948703 71.610994 
L 343.047343 70.718969 
L 346.457462 70.718969 
L 346.570193 69.826945 
L 350.360779 69.826945 
L 350.783521 68.93492 
L 351.671279 68.93492 
L 351.727645 68.042895 
L 354.771387 68.042895 
L 354.926392 67.15087 
L 364.663548 67.15087 
L 364.98765 66.258845 
L 366.199511 66.258845 
L 366.241785 65.36682 
L 366.537704 64.474795 
L 369.370075 64.474795 
L 369.496898 63.58277 
L 376.429866 63.58277 
L 376.542597 62.690745 
L 378.571758 62.690745 
L 378.614033 61.79872 
L 378.895861 61.79872 
L 379.036775 60.906695 
L 391.831764 60.906695 
L 392.071318 60.01467 
L 393.254996 60.01467 
L 393.367727 59.122645 
L 399.187474 59.122645 
L 399.84977 58.23062 
L 407.191389 58.23062 
L 407.318211 57.338595 
L 443.744476 57.338595 
L 443.843116 56.44657 
L 485.145004 56.44657 
L 486.568236 55.554545 
L 498.109091 55.554545 
L 498.109091 55.554545 
" style="fill:none;stroke:#2b667c;stroke-linecap:square;stroke-width:1.5;"/>
   </g>
   <g id="line2d_14">
    <path clip-path="url(#pee3500ea08)" d="M 92.290909 302.645455 
L 498.109091 55.554545 
" style="fill:none;stroke:#ff0000;stroke-linecap:square;stroke-width:1.5;"/>
   </g>
   <g id="patch_3">
    <path d="M 72 315 
L 72 43.2 
" style="fill:none;stroke:#000000;stroke-linecap:square;stroke-linejoin:miter;stroke-width:0.8;"/>
   </g>
   <g id="patch_4">
    <path d="M 518.4 315 
L 518.4 43.2 
" style="fill:none;stroke:#000000;stroke-linecap:square;stroke-linejoin:miter;stroke-width:0.8;"/>
   </g>
   <g id="patch_5">
    <path d="M 72 315 
L 518.4 315 
" style="fill:none;stroke:#000000;stroke-linecap:square;stroke-linejoin:miter;stroke-width:0.8;"/>
   </g>
   <g id="patch_6">
    <path d="M 72 43.2 
L 518.4 43.2 
" style="fill:none;stroke:#000000;stroke-linecap:square;stroke-linejoin:miter;stroke-width:0.8;"/>
   </g>
   <g id="text_15">
    <!-- XOCHIMILCO -->
    <g transform="translate(269.783125 37.2)scale(0.08 -0.08)">
     <defs>
      <path d="M 403 4666 
L 1081 4666 
L 2241 2931 
L 3406 4666 
L 4084 4666 
L 2584 2425 
L 4184 0 
L 3506 0 
L 2194 1984 
L 872 0 
L 191 0 
L 1856 2491 
L 403 4666 
z
" id="DejaVuSans-58" transform="scale(0.015625)"/>
      <path d="M 2522 4238 
Q 1834 4238 1429 3725 
Q 1025 3213 1025 2328 
Q 1025 1447 1429 934 
Q 1834 422 2522 422 
Q 3209 422 3611 934 
Q 4013 1447 4013 2328 
Q 4013 3213 3611 3725 
Q 3209 4238 2522 4238 
z
M 2522 4750 
Q 3503 4750 4090 4092 
Q 4678 3434 4678 2328 
Q 4678 1225 4090 567 
Q 3503 -91 2522 -91 
Q 1538 -91 948 565 
Q 359 1222 359 2328 
Q 359 3434 948 4092 
Q 1538 4750 2522 4750 
z
" id="DejaVuSans-4f" transform="scale(0.015625)"/>
      <path d="M 4122 4306 
L 4122 3641 
Q 3803 3938 3442 4084 
Q 3081 4231 2675 4231 
Q 1875 4231 1450 3742 
Q 1025 3253 1025 2328 
Q 1025 1406 1450 917 
Q 1875 428 2675 428 
Q 3081 428 3442 575 
Q 3803 722 4122 1019 
L 4122 359 
Q 3791 134 3420 21 
Q 3050 -91 2638 -91 
Q 1578 -91 968 557 
Q 359 1206 359 2328 
Q 359 3453 968 4101 
Q 1578 4750 2638 4750 
Q 3056 4750 3426 4639 
Q 3797 4528 4122 4306 
z
" id="DejaVuSans-43" transform="scale(0.015625)"/>
      <path d="M 628 4666 
L 1259 4666 
L 1259 2753 
L 3553 2753 
L 3553 4666 
L 4184 4666 
L 4184 0 
L 3553 0 
L 3553 2222 
L 1259 2222 
L 1259 0 
L 628 0 
L 628 4666 
z
" id="DejaVuSans-48" transform="scale(0.015625)"/>
      <path d="M 628 4666 
L 1259 4666 
L 1259 0 
L 628 0 
L 628 4666 
z
" id="DejaVuSans-49" transform="scale(0.015625)"/>
      <path d="M 628 4666 
L 1569 4666 
L 2759 1491 
L 3956 4666 
L 4897 4666 
L 4897 0 
L 4281 0 
L 4281 4097 
L 3078 897 
L 2444 897 
L 1241 4097 
L 1241 0 
L 628 0 
L 628 4666 
z
" id="DejaVuSans-4d" transform="scale(0.015625)"/>
      <path d="M 628 4666 
L 1259 4666 
L 1259 531 
L 3531 531 
L 3531 0 
L 628 0 
L 628 4666 
z
" id="DejaVuSans-4c" transform="scale(0.015625)"/>
     </defs>
     <use xlink:href="#DejaVuSans-58"/>
     <use x="62.130859" xlink:href="#DejaVuSans-4f"/>
     <use x="140.841797" xlink:href="#DejaVuSans-43"/>
     <use x="210.666016" xlink:href="#DejaVuSans-48"/>
     <use x="285.861328" xlink:href="#DejaVuSans-49"/>
     <use x="315.353516" xlink:href="#DejaVuSans-4d"/>
     <use x="401.632812" xlink:href="#DejaVuSans-49"/>
     <use x="431.125" xlink:href="#DejaVuSans-4c"/>
     <use x="486.837891" xlink:href="#DejaVuSans-43"/>
     <use x="556.662109" xlink:href="#DejaVuSans-4f"/>
    </g>
   </g>
  </g>
  <g id="text_16">
   <!-- ROC Curve -->
   <g transform="translate(244.4125 19.3575)scale(0.16 -0.16)">
    <defs>
     <path d="M 2841 2188 
Q 3044 2119 3236 1894 
Q 3428 1669 3622 1275 
L 4263 0 
L 3584 0 
L 2988 1197 
Q 2756 1666 2539 1819 
Q 2322 1972 1947 1972 
L 1259 1972 
L 1259 0 
L 628 0 
L 628 4666 
L 2053 4666 
Q 2853 4666 3247 4331 
Q 3641 3997 3641 3322 
Q 3641 2881 3436 2590 
Q 3231 2300 2841 2188 
z
M 1259 4147 
L 1259 2491 
L 2053 2491 
Q 2509 2491 2742 2702 
Q 2975 2913 2975 3322 
Q 2975 3731 2742 3939 
Q 2509 4147 2053 4147 
L 1259 4147 
z
" id="DejaVuSans-52" transform="scale(0.015625)"/>
    </defs>
    <use xlink:href="#DejaVuSans-52"/>
    <use x="69.482422" xlink:href="#DejaVuSans-4f"/>
    <use x="148.193359" xlink:href="#DejaVuSans-43"/>
    <use x="218.017578" xlink:href="#DejaVuSans-20"/>
    <use x="249.804688" xlink:href="#DejaVuSans-43"/>
    <use x="319.628906" xlink:href="#DejaVuSans-75"/>
    <use x="383.007812" xlink:href="#DejaVuSans-72"/>
    <use x="424.121094" xlink:href="#DejaVuSans-76"/>
    <use x="483.300781" xlink:href="#DejaVuSans-65"/>
   </g>
  </g>
 </g>
 <defs>
  <clipPath id="pee3500ea08">
   <rect height="271.8" width="446.4" x="72" y="43.2"/>
  </clipPath>
 </defs>
</svg>
