<?xml version="1.0" encoding="utf-8" standalone="no"?>
<!DOCTYPE svg PUBLIC "-//W3C//DTD SVG 1.1//EN"
  "http://www.w3.org/Graphics/SVG/1.1/DTD/svg11.dtd">
<svg height="360pt" version="1.1" viewBox="0 0 576 360" width="576pt" xmlns="http://www.w3.org/2000/svg" xmlns:xlink="http://www.w3.org/1999/xlink">
 <metadata>
  <rdf:RDF xmlns:cc="http://creativecommons.org/ns#" xmlns:dc="http://purl.org/dc/elements/1.1/" xmlns:rdf="http://www.w3.org/1999/02/22-rdf-syntax-ns#">
   <cc:Work>
    <dc:type rdf:resource="http://purl.org/dc/dcmitype/StillImage"/>
    <dc:date>2022-01-04T19:32:58.007656</dc:date>
    <dc:format>image/svg+xml</dc:format>
    <dc:creator>
     <cc:Agent>
      <dc:title>Matplotlib v3.4.3, https://matplotlib.org/</dc:title>
     </cc:Agent>
    </dc:creator>
   </cc:Work>
  </rdf:RDF>
 </metadata>
 <defs>
  <style type="text/css">*{stroke-linecap:butt;stroke-linejoin:round;}</style>
 </defs>
 <g id="figure_1">
  <g id="patch_1">
   <path d="M 0 360 
L 576 360 
L 576 0 
L 0 0 
z
" style="fill:none;"/>
  </g>
  <g id="axes_1">
   <g id="patch_2">
    <path d="M 72 315 
L 518.4 315 
L 518.4 43.2 
L 72 43.2 
z
" style="fill:#ffffff;"/>
   </g>
   <g id="matplotlib.axis_1">
    <g id="xtick_1">
     <g id="line2d_1">
      <defs>
       <path d="M 0 0 
L 0 3.5 
" id="m8410301378" style="stroke:#000000;stroke-width:0.8;"/>
      </defs>
      <g>
       <use style="stroke:#000000;stroke-width:0.8;" x="92.290909" xlink:href="#m8410301378" y="315"/>
      </g>
     </g>
     <g id="text_1">
      <!-- 0.0 -->
      <g transform="translate(84.339347 329.598437)scale(0.1 -0.1)">
       <defs>
        <path d="M 2034 4250 
Q 1547 4250 1301 3770 
Q 1056 3291 1056 2328 
Q 1056 1369 1301 889 
Q 1547 409 2034 409 
Q 2525 409 2770 889 
Q 3016 1369 3016 2328 
Q 3016 3291 2770 3770 
Q 2525 4250 2034 4250 
z
M 2034 4750 
Q 2819 4750 3233 4129 
Q 3647 3509 3647 2328 
Q 3647 1150 3233 529 
Q 2819 -91 2034 -91 
Q 1250 -91 836 529 
Q 422 1150 422 2328 
Q 422 3509 836 4129 
Q 1250 4750 2034 4750 
z
" id="DejaVuSans-30" transform="scale(0.015625)"/>
        <path d="M 684 794 
L 1344 794 
L 1344 0 
L 684 0 
L 684 794 
z
" id="DejaVuSans-2e" transform="scale(0.015625)"/>
       </defs>
       <use xlink:href="#DejaVuSans-30"/>
       <use x="63.623047" xlink:href="#DejaVuSans-2e"/>
       <use x="95.410156" xlink:href="#DejaVuSans-30"/>
      </g>
     </g>
    </g>
    <g id="xtick_2">
     <g id="line2d_2">
      <g>
       <use style="stroke:#000000;stroke-width:0.8;" x="173.454545" xlink:href="#m8410301378" y="315"/>
      </g>
     </g>
     <g id="text_2">
      <!-- 0.2 -->
      <g transform="translate(165.502983 329.598437)scale(0.1 -0.1)">
       <defs>
        <path d="M 1228 531 
L 3431 531 
L 3431 0 
L 469 0 
L 469 531 
Q 828 903 1448 1529 
Q 2069 2156 2228 2338 
Q 2531 2678 2651 2914 
Q 2772 3150 2772 3378 
Q 2772 3750 2511 3984 
Q 2250 4219 1831 4219 
Q 1534 4219 1204 4116 
Q 875 4013 500 3803 
L 500 4441 
Q 881 4594 1212 4672 
Q 1544 4750 1819 4750 
Q 2544 4750 2975 4387 
Q 3406 4025 3406 3419 
Q 3406 3131 3298 2873 
Q 3191 2616 2906 2266 
Q 2828 2175 2409 1742 
Q 1991 1309 1228 531 
z
" id="DejaVuSans-32" transform="scale(0.015625)"/>
       </defs>
       <use xlink:href="#DejaVuSans-30"/>
       <use x="63.623047" xlink:href="#DejaVuSans-2e"/>
       <use x="95.410156" xlink:href="#DejaVuSans-32"/>
      </g>
     </g>
    </g>
    <g id="xtick_3">
     <g id="line2d_3">
      <g>
       <use style="stroke:#000000;stroke-width:0.8;" x="254.618182" xlink:href="#m8410301378" y="315"/>
      </g>
     </g>
     <g id="text_3">
      <!-- 0.4 -->
      <g transform="translate(246.666619 329.598437)scale(0.1 -0.1)">
       <defs>
        <path d="M 2419 4116 
L 825 1625 
L 2419 1625 
L 2419 4116 
z
M 2253 4666 
L 3047 4666 
L 3047 1625 
L 3713 1625 
L 3713 1100 
L 3047 1100 
L 3047 0 
L 2419 0 
L 2419 1100 
L 313 1100 
L 313 1709 
L 2253 4666 
z
" id="DejaVuSans-34" transform="scale(0.015625)"/>
       </defs>
       <use xlink:href="#DejaVuSans-30"/>
       <use x="63.623047" xlink:href="#DejaVuSans-2e"/>
       <use x="95.410156" xlink:href="#DejaVuSans-34"/>
      </g>
     </g>
    </g>
    <g id="xtick_4">
     <g id="line2d_4">
      <g>
       <use style="stroke:#000000;stroke-width:0.8;" x="335.781818" xlink:href="#m8410301378" y="315"/>
      </g>
     </g>
     <g id="text_4">
      <!-- 0.6 -->
      <g transform="translate(327.830256 329.598437)scale(0.1 -0.1)">
       <defs>
        <path d="M 2113 2584 
Q 1688 2584 1439 2293 
Q 1191 2003 1191 1497 
Q 1191 994 1439 701 
Q 1688 409 2113 409 
Q 2538 409 2786 701 
Q 3034 994 3034 1497 
Q 3034 2003 2786 2293 
Q 2538 2584 2113 2584 
z
M 3366 4563 
L 3366 3988 
Q 3128 4100 2886 4159 
Q 2644 4219 2406 4219 
Q 1781 4219 1451 3797 
Q 1122 3375 1075 2522 
Q 1259 2794 1537 2939 
Q 1816 3084 2150 3084 
Q 2853 3084 3261 2657 
Q 3669 2231 3669 1497 
Q 3669 778 3244 343 
Q 2819 -91 2113 -91 
Q 1303 -91 875 529 
Q 447 1150 447 2328 
Q 447 3434 972 4092 
Q 1497 4750 2381 4750 
Q 2619 4750 2861 4703 
Q 3103 4656 3366 4563 
z
" id="DejaVuSans-36" transform="scale(0.015625)"/>
       </defs>
       <use xlink:href="#DejaVuSans-30"/>
       <use x="63.623047" xlink:href="#DejaVuSans-2e"/>
       <use x="95.410156" xlink:href="#DejaVuSans-36"/>
      </g>
     </g>
    </g>
    <g id="xtick_5">
     <g id="line2d_5">
      <g>
       <use style="stroke:#000000;stroke-width:0.8;" x="416.945455" xlink:href="#m8410301378" y="315"/>
      </g>
     </g>
     <g id="text_5">
      <!-- 0.8 -->
      <g transform="translate(408.993892 329.598437)scale(0.1 -0.1)">
       <defs>
        <path d="M 2034 2216 
Q 1584 2216 1326 1975 
Q 1069 1734 1069 1313 
Q 1069 891 1326 650 
Q 1584 409 2034 409 
Q 2484 409 2743 651 
Q 3003 894 3003 1313 
Q 3003 1734 2745 1975 
Q 2488 2216 2034 2216 
z
M 1403 2484 
Q 997 2584 770 2862 
Q 544 3141 544 3541 
Q 544 4100 942 4425 
Q 1341 4750 2034 4750 
Q 2731 4750 3128 4425 
Q 3525 4100 3525 3541 
Q 3525 3141 3298 2862 
Q 3072 2584 2669 2484 
Q 3125 2378 3379 2068 
Q 3634 1759 3634 1313 
Q 3634 634 3220 271 
Q 2806 -91 2034 -91 
Q 1263 -91 848 271 
Q 434 634 434 1313 
Q 434 1759 690 2068 
Q 947 2378 1403 2484 
z
M 1172 3481 
Q 1172 3119 1398 2916 
Q 1625 2713 2034 2713 
Q 2441 2713 2670 2916 
Q 2900 3119 2900 3481 
Q 2900 3844 2670 4047 
Q 2441 4250 2034 4250 
Q 1625 4250 1398 4047 
Q 1172 3844 1172 3481 
z
" id="DejaVuSans-38" transform="scale(0.015625)"/>
       </defs>
       <use xlink:href="#DejaVuSans-30"/>
       <use x="63.623047" xlink:href="#DejaVuSans-2e"/>
       <use x="95.410156" xlink:href="#DejaVuSans-38"/>
      </g>
     </g>
    </g>
    <g id="xtick_6">
     <g id="line2d_6">
      <g>
       <use style="stroke:#000000;stroke-width:0.8;" x="498.109091" xlink:href="#m8410301378" y="315"/>
      </g>
     </g>
     <g id="text_6">
      <!-- 1.0 -->
      <g transform="translate(490.157528 329.598437)scale(0.1 -0.1)">
       <defs>
        <path d="M 794 531 
L 1825 531 
L 1825 4091 
L 703 3866 
L 703 4441 
L 1819 4666 
L 2450 4666 
L 2450 531 
L 3481 531 
L 3481 0 
L 794 0 
L 794 531 
z
" id="DejaVuSans-31" transform="scale(0.015625)"/>
       </defs>
       <use xlink:href="#DejaVuSans-31"/>
       <use x="63.623047" xlink:href="#DejaVuSans-2e"/>
       <use x="95.410156" xlink:href="#DejaVuSans-30"/>
      </g>
     </g>
    </g>
    <g id="text_7">
     <!-- False positive rate -->
     <g transform="translate(249.699219 343.276563)scale(0.1 -0.1)">
      <defs>
       <path d="M 628 4666 
L 3309 4666 
L 3309 4134 
L 1259 4134 
L 1259 2759 
L 3109 2759 
L 3109 2228 
L 1259 2228 
L 1259 0 
L 628 0 
L 628 4666 
z
" id="DejaVuSans-46" transform="scale(0.015625)"/>
       <path d="M 2194 1759 
Q 1497 1759 1228 1600 
Q 959 1441 959 1056 
Q 959 750 1161 570 
Q 1363 391 1709 391 
Q 2188 391 2477 730 
Q 2766 1069 2766 1631 
L 2766 1759 
L 2194 1759 
z
M 3341 1997 
L 3341 0 
L 2766 0 
L 2766 531 
Q 2569 213 2275 61 
Q 1981 -91 1556 -91 
Q 1019 -91 701 211 
Q 384 513 384 1019 
Q 384 1609 779 1909 
Q 1175 2209 1959 2209 
L 2766 2209 
L 2766 2266 
Q 2766 2663 2505 2880 
Q 2244 3097 1772 3097 
Q 1472 3097 1187 3025 
Q 903 2953 641 2809 
L 641 3341 
Q 956 3463 1253 3523 
Q 1550 3584 1831 3584 
Q 2591 3584 2966 3190 
Q 3341 2797 3341 1997 
z
" id="DejaVuSans-61" transform="scale(0.015625)"/>
       <path d="M 603 4863 
L 1178 4863 
L 1178 0 
L 603 0 
L 603 4863 
z
" id="DejaVuSans-6c" transform="scale(0.015625)"/>
       <path d="M 2834 3397 
L 2834 2853 
Q 2591 2978 2328 3040 
Q 2066 3103 1784 3103 
Q 1356 3103 1142 2972 
Q 928 2841 928 2578 
Q 928 2378 1081 2264 
Q 1234 2150 1697 2047 
L 1894 2003 
Q 2506 1872 2764 1633 
Q 3022 1394 3022 966 
Q 3022 478 2636 193 
Q 2250 -91 1575 -91 
Q 1294 -91 989 -36 
Q 684 19 347 128 
L 347 722 
Q 666 556 975 473 
Q 1284 391 1588 391 
Q 1994 391 2212 530 
Q 2431 669 2431 922 
Q 2431 1156 2273 1281 
Q 2116 1406 1581 1522 
L 1381 1569 
Q 847 1681 609 1914 
Q 372 2147 372 2553 
Q 372 3047 722 3315 
Q 1072 3584 1716 3584 
Q 2034 3584 2315 3537 
Q 2597 3491 2834 3397 
z
" id="DejaVuSans-73" transform="scale(0.015625)"/>
       <path d="M 3597 1894 
L 3597 1613 
L 953 1613 
Q 991 1019 1311 708 
Q 1631 397 2203 397 
Q 2534 397 2845 478 
Q 3156 559 3463 722 
L 3463 178 
Q 3153 47 2828 -22 
Q 2503 -91 2169 -91 
Q 1331 -91 842 396 
Q 353 884 353 1716 
Q 353 2575 817 3079 
Q 1281 3584 2069 3584 
Q 2775 3584 3186 3129 
Q 3597 2675 3597 1894 
z
M 3022 2063 
Q 3016 2534 2758 2815 
Q 2500 3097 2075 3097 
Q 1594 3097 1305 2825 
Q 1016 2553 972 2059 
L 3022 2063 
z
" id="DejaVuSans-65" transform="scale(0.015625)"/>
       <path id="DejaVuSans-20" transform="scale(0.015625)"/>
       <path d="M 1159 525 
L 1159 -1331 
L 581 -1331 
L 581 3500 
L 1159 3500 
L 1159 2969 
Q 1341 3281 1617 3432 
Q 1894 3584 2278 3584 
Q 2916 3584 3314 3078 
Q 3713 2572 3713 1747 
Q 3713 922 3314 415 
Q 2916 -91 2278 -91 
Q 1894 -91 1617 61 
Q 1341 213 1159 525 
z
M 3116 1747 
Q 3116 2381 2855 2742 
Q 2594 3103 2138 3103 
Q 1681 3103 1420 2742 
Q 1159 2381 1159 1747 
Q 1159 1113 1420 752 
Q 1681 391 2138 391 
Q 2594 391 2855 752 
Q 3116 1113 3116 1747 
z
" id="DejaVuSans-70" transform="scale(0.015625)"/>
       <path d="M 1959 3097 
Q 1497 3097 1228 2736 
Q 959 2375 959 1747 
Q 959 1119 1226 758 
Q 1494 397 1959 397 
Q 2419 397 2687 759 
Q 2956 1122 2956 1747 
Q 2956 2369 2687 2733 
Q 2419 3097 1959 3097 
z
M 1959 3584 
Q 2709 3584 3137 3096 
Q 3566 2609 3566 1747 
Q 3566 888 3137 398 
Q 2709 -91 1959 -91 
Q 1206 -91 779 398 
Q 353 888 353 1747 
Q 353 2609 779 3096 
Q 1206 3584 1959 3584 
z
" id="DejaVuSans-6f" transform="scale(0.015625)"/>
       <path d="M 603 3500 
L 1178 3500 
L 1178 0 
L 603 0 
L 603 3500 
z
M 603 4863 
L 1178 4863 
L 1178 4134 
L 603 4134 
L 603 4863 
z
" id="DejaVuSans-69" transform="scale(0.015625)"/>
       <path d="M 1172 4494 
L 1172 3500 
L 2356 3500 
L 2356 3053 
L 1172 3053 
L 1172 1153 
Q 1172 725 1289 603 
Q 1406 481 1766 481 
L 2356 481 
L 2356 0 
L 1766 0 
Q 1100 0 847 248 
Q 594 497 594 1153 
L 594 3053 
L 172 3053 
L 172 3500 
L 594 3500 
L 594 4494 
L 1172 4494 
z
" id="DejaVuSans-74" transform="scale(0.015625)"/>
       <path d="M 191 3500 
L 800 3500 
L 1894 563 
L 2988 3500 
L 3597 3500 
L 2284 0 
L 1503 0 
L 191 3500 
z
" id="DejaVuSans-76" transform="scale(0.015625)"/>
       <path d="M 2631 2963 
Q 2534 3019 2420 3045 
Q 2306 3072 2169 3072 
Q 1681 3072 1420 2755 
Q 1159 2438 1159 1844 
L 1159 0 
L 581 0 
L 581 3500 
L 1159 3500 
L 1159 2956 
Q 1341 3275 1631 3429 
Q 1922 3584 2338 3584 
Q 2397 3584 2469 3576 
Q 2541 3569 2628 3553 
L 2631 2963 
z
" id="DejaVuSans-72" transform="scale(0.015625)"/>
      </defs>
      <use xlink:href="#DejaVuSans-46"/>
      <use x="48.394531" xlink:href="#DejaVuSans-61"/>
      <use x="109.673828" xlink:href="#DejaVuSans-6c"/>
      <use x="137.457031" xlink:href="#DejaVuSans-73"/>
      <use x="189.556641" xlink:href="#DejaVuSans-65"/>
      <use x="251.080078" xlink:href="#DejaVuSans-20"/>
      <use x="282.867188" xlink:href="#DejaVuSans-70"/>
      <use x="346.34375" xlink:href="#DejaVuSans-6f"/>
      <use x="407.525391" xlink:href="#DejaVuSans-73"/>
      <use x="459.625" xlink:href="#DejaVuSans-69"/>
      <use x="487.408203" xlink:href="#DejaVuSans-74"/>
      <use x="526.617188" xlink:href="#DejaVuSans-69"/>
      <use x="554.400391" xlink:href="#DejaVuSans-76"/>
      <use x="613.580078" xlink:href="#DejaVuSans-65"/>
      <use x="675.103516" xlink:href="#DejaVuSans-20"/>
      <use x="706.890625" xlink:href="#DejaVuSans-72"/>
      <use x="748.003906" xlink:href="#DejaVuSans-61"/>
      <use x="809.283203" xlink:href="#DejaVuSans-74"/>
      <use x="848.492188" xlink:href="#DejaVuSans-65"/>
     </g>
    </g>
   </g>
   <g id="matplotlib.axis_2">
    <g id="ytick_1">
     <g id="line2d_7">
      <defs>
       <path d="M 0 0 
L -3.5 0 
" id="m50fbfebb8b" style="stroke:#000000;stroke-width:0.8;"/>
      </defs>
      <g>
       <use style="stroke:#000000;stroke-width:0.8;" x="72" xlink:href="#m50fbfebb8b" y="302.645455"/>
      </g>
     </g>
     <g id="text_8">
      <!-- 0.0 -->
      <g transform="translate(49.096875 306.444673)scale(0.1 -0.1)">
       <use xlink:href="#DejaVuSans-30"/>
       <use x="63.623047" xlink:href="#DejaVuSans-2e"/>
       <use x="95.410156" xlink:href="#DejaVuSans-30"/>
      </g>
     </g>
    </g>
    <g id="ytick_2">
     <g id="line2d_8">
      <g>
       <use style="stroke:#000000;stroke-width:0.8;" x="72" xlink:href="#m50fbfebb8b" y="253.227273"/>
      </g>
     </g>
     <g id="text_9">
      <!-- 0.2 -->
      <g transform="translate(49.096875 257.026491)scale(0.1 -0.1)">
       <use xlink:href="#DejaVuSans-30"/>
       <use x="63.623047" xlink:href="#DejaVuSans-2e"/>
       <use x="95.410156" xlink:href="#DejaVuSans-32"/>
      </g>
     </g>
    </g>
    <g id="ytick_3">
     <g id="line2d_9">
      <g>
       <use style="stroke:#000000;stroke-width:0.8;" x="72" xlink:href="#m50fbfebb8b" y="203.809091"/>
      </g>
     </g>
     <g id="text_10">
      <!-- 0.4 -->
      <g transform="translate(49.096875 207.60831)scale(0.1 -0.1)">
       <use xlink:href="#DejaVuSans-30"/>
       <use x="63.623047" xlink:href="#DejaVuSans-2e"/>
       <use x="95.410156" xlink:href="#DejaVuSans-34"/>
      </g>
     </g>
    </g>
    <g id="ytick_4">
     <g id="line2d_10">
      <g>
       <use style="stroke:#000000;stroke-width:0.8;" x="72" xlink:href="#m50fbfebb8b" y="154.390909"/>
      </g>
     </g>
     <g id="text_11">
      <!-- 0.6 -->
      <g transform="translate(49.096875 158.190128)scale(0.1 -0.1)">
       <use xlink:href="#DejaVuSans-30"/>
       <use x="63.623047" xlink:href="#DejaVuSans-2e"/>
       <use x="95.410156" xlink:href="#DejaVuSans-36"/>
      </g>
     </g>
    </g>
    <g id="ytick_5">
     <g id="line2d_11">
      <g>
       <use style="stroke:#000000;stroke-width:0.8;" x="72" xlink:href="#m50fbfebb8b" y="104.972727"/>
      </g>
     </g>
     <g id="text_12">
      <!-- 0.8 -->
      <g transform="translate(49.096875 108.771946)scale(0.1 -0.1)">
       <use xlink:href="#DejaVuSans-30"/>
       <use x="63.623047" xlink:href="#DejaVuSans-2e"/>
       <use x="95.410156" xlink:href="#DejaVuSans-38"/>
      </g>
     </g>
    </g>
    <g id="ytick_6">
     <g id="line2d_12">
      <g>
       <use style="stroke:#000000;stroke-width:0.8;" x="72" xlink:href="#m50fbfebb8b" y="55.554545"/>
      </g>
     </g>
     <g id="text_13">
      <!-- 1.0 -->
      <g transform="translate(49.096875 59.353764)scale(0.1 -0.1)">
       <use xlink:href="#DejaVuSans-31"/>
       <use x="63.623047" xlink:href="#DejaVuSans-2e"/>
       <use x="95.410156" xlink:href="#DejaVuSans-30"/>
      </g>
     </g>
    </g>
    <g id="text_14">
     <!-- True positive rate -->
     <g transform="translate(43.017187 222.664062)rotate(-90)scale(0.1 -0.1)">
      <defs>
       <path d="M -19 4666 
L 3928 4666 
L 3928 4134 
L 2272 4134 
L 2272 0 
L 1638 0 
L 1638 4134 
L -19 4134 
L -19 4666 
z
" id="DejaVuSans-54" transform="scale(0.015625)"/>
       <path d="M 544 1381 
L 544 3500 
L 1119 3500 
L 1119 1403 
Q 1119 906 1312 657 
Q 1506 409 1894 409 
Q 2359 409 2629 706 
Q 2900 1003 2900 1516 
L 2900 3500 
L 3475 3500 
L 3475 0 
L 2900 0 
L 2900 538 
Q 2691 219 2414 64 
Q 2138 -91 1772 -91 
Q 1169 -91 856 284 
Q 544 659 544 1381 
z
M 1991 3584 
L 1991 3584 
z
" id="DejaVuSans-75" transform="scale(0.015625)"/>
      </defs>
      <use xlink:href="#DejaVuSans-54"/>
      <use x="46.333984" xlink:href="#DejaVuSans-72"/>
      <use x="87.447266" xlink:href="#DejaVuSans-75"/>
      <use x="150.826172" xlink:href="#DejaVuSans-65"/>
      <use x="212.349609" xlink:href="#DejaVuSans-20"/>
      <use x="244.136719" xlink:href="#DejaVuSans-70"/>
      <use x="307.613281" xlink:href="#DejaVuSans-6f"/>
      <use x="368.794922" xlink:href="#DejaVuSans-73"/>
      <use x="420.894531" xlink:href="#DejaVuSans-69"/>
      <use x="448.677734" xlink:href="#DejaVuSans-74"/>
      <use x="487.886719" xlink:href="#DejaVuSans-69"/>
      <use x="515.669922" xlink:href="#DejaVuSans-76"/>
      <use x="574.849609" xlink:href="#DejaVuSans-65"/>
      <use x="636.373047" xlink:href="#DejaVuSans-20"/>
      <use x="668.160156" xlink:href="#DejaVuSans-72"/>
      <use x="709.273438" xlink:href="#DejaVuSans-61"/>
      <use x="770.552734" xlink:href="#DejaVuSans-74"/>
      <use x="809.761719" xlink:href="#DejaVuSans-65"/>
     </g>
    </g>
   </g>
   <g id="line2d_13">
    <path clip-path="url(#p59b1123bff)" d="M 92.290909 302.645455 
L 92.450717 300.540762 
L 92.619403 300.540762 
L 92.721502 299.698885 
L 92.903505 299.698885 
L 93.103265 298.015131 
L 93.329659 298.015131 
L 93.42288 297.173254 
L 93.91562 297.173254 
L 94.079867 296.331377 
L 94.448312 295.4895 
L 94.785684 295.4895 
L 94.927735 294.647623 
L 95.0032 294.647623 
L 95.127495 294.226684 
L 95.384963 294.226684 
L 95.504818 293.384807 
L 95.740091 293.384807 
L 96.068584 292.121992 
L 96.166244 291.280115 
L 96.170683 291.280115 
L 96.18844 291.280115 
L 96.539129 287.912606 
L 96.654545 287.912606 
L 96.876501 286.649791 
L 97.005234 286.649791 
L 97.196116 284.545098 
L 97.267141 284.12416 
L 97.440266 284.12416 
L 97.458023 283.703221 
L 97.662221 283.703221 
L 97.830907 283.282283 
L 98.132766 282.019467 
L 98.203792 281.598529 
L 99.171516 278.231021 
L 99.571035 278.231021 
L 99.602109 277.810082 
L 99.886211 277.389144 
L 100.09041 276.126328 
L 100.263535 276.126328 
L 100.48549 274.863512 
L 101.067012 272.337881 
L 101.204624 272.337881 
L 101.315602 271.496004 
L 101.368871 271.496004 
L 101.395505 271.075066 
L 101.608582 271.075066 
L 101.608582 270.654127 
L 101.715121 270.654127 
L 101.923758 270.654127 
L 101.994784 270.233189 
L 102.194544 269.391312 
L 102.40762 269.391312 
L 102.500842 268.970373 
L 102.722797 268.549435 
L 102.744992 268.549435 
L 102.962508 267.707558 
L 103.10012 266.865681 
L 103.291002 266.865681 
L 103.375344 266.444742 
L 103.570665 266.444742 
L 103.570665 266.023804 
L 103.663886 266.023804 
L 103.717155 266.023804 
L 103.730473 265.602865 
L 103.974623 264.760988 
L 104.019014 264.760988 
L 104.316434 263.498173 
L 104.458485 263.498173 
L 104.556145 262.656295 
L 105.057764 260.972541 
L 105.235328 260.972541 
L 105.399575 259.288787 
L 105.599334 259.288787 
L 105.861241 258.867849 
L 105.976658 258.867849 
L 105.989975 258.44691 
L 106.402811 258.44691 
L 106.402811 258.025972 
L 106.602571 258.025972 
L 106.664718 257.605033 
L 107.170776 256.763156 
L 107.272875 256.763156 
L 107.592491 255.921279 
L 107.801128 255.921279 
L 108.036401 254.237525 
L 108.391529 254.237525 
L 108.613484 253.816587 
L 108.702266 252.97471 
L 108.888708 252.553771 
L 108.950855 251.711894 
L 109.22608 250.870017 
L 109.390326 250.449079 
L 109.96297 248.765324 
L 110.020679 248.765324 
L 110.30922 248.344386 
L 110.349172 248.344386 
L 110.517858 246.239693 
L 110.833034 244.976878 
L 110.992842 244.976878 
L 111.308018 243.293124 
L 111.383483 242.872185 
L 111.529973 242.451247 
L 111.783002 242.030308 
L 112.444428 242.030308 
L 112.515454 241.188431 
L 112.861704 240.767493 
L 112.999316 239.925616 
L 113.052585 239.925616 
L 113.567521 238.241862 
L 113.691815 238.241862 
L 113.993674 236.979046 
L 114.384315 236.979046 
L 114.513049 236.558107 
L 114.659539 236.558107 
L 114.801591 236.137169 
L 114.921446 235.295292 
L 115.20111 234.453415 
L 115.236623 234.453415 
L 115.605068 233.611538 
L 115.89361 233.611538 
L 115.973513 232.769661 
L 116.226542 232.348722 
L 116.439619 231.506845 
L 116.6305 231.506845 
L 117.243096 229.823091 
L 117.327439 229.402153 
L 117.62042 229.402153 
L 117.655933 228.981214 
L 118.348432 228.981214 
L 118.486045 228.139337 
L 118.676926 228.139337 
L 118.801221 227.718399 
L 119.245131 227.718399 
L 119.533672 226.876522 
L 119.591381 226.876522 
L 119.928752 225.613706 
L 119.937631 225.613706 
L 120.208416 224.350891 
L 120.230611 224.350891 
L 120.492518 222.246198 
L 120.718912 222.246198 
L 120.838768 221.825259 
L 121.145066 219.720567 
L 121.180579 218.87869 
L 121.446925 218.457751 
L 121.57122 217.615874 
L 121.642245 217.615874 
L 122.010691 216.773997 
L 122.41021 216.773997 
L 122.716508 215.511182 
L 122.752021 215.511182 
L 122.960658 215.090243 
L 123.00061 215.090243 
L 123.045001 214.248366 
L 123.324665 213.827428 
L 123.426764 211.722735 
L 123.804088 210.880858 
L 124.114825 210.459919 
L 124.150338 210.459919 
L 124.412245 210.038981 
L 124.696347 208.776165 
L 124.825081 208.776165 
L 124.873911 208.355227 
L 125.237917 208.355227 
L 125.561972 207.934288 
L 125.708462 207.934288 
L 125.815 207.092411 
L 125.877148 207.092411 
L 126.116859 206.671473 
L 126.258911 206.250534 
L 126.334375 206.250534 
L 126.631795 205.408657 
L 127.066827 205.408657 
L 127.137853 204.987719 
L 127.377564 204.987719 
L 127.528493 203.724903 
L 127.568445 203.724903 
L 127.910256 203.303965 
L 128.229871 203.303965 
L 128.491778 201.620211 
L 128.824711 201.620211 
L 129.157644 201.199272 
L 129.193156 201.199272 
L 129.290817 200.778334 
L 129.344086 200.778334 
L 129.512772 199.936457 
L 130.089855 199.936457 
L 130.218589 199.09458 
L 130.626986 199.09458 
L 131.039822 197.831764 
L 131.155239 197.410825 
L 131.363877 197.410825 
L 131.457098 196.989887 
L 131.790031 195.306133 
L 131.963155 195.306133 
L 132.180671 194.885194 
L 132.442578 194.885194 
L 132.557995 194.464256 
L 132.637899 194.464256 
L 132.846537 194.043317 
L 132.92644 193.622379 
L 133.303764 193.622379 
L 133.32152 193.20144 
L 133.707722 193.20144 
L 133.991825 192.780502 
L 134.102802 192.359563 
L 134.124998 192.359563 
L 134.355831 191.938625 
L 135.159308 191.938625 
L 135.265847 191.517686 
L 135.483363 191.517686 
L 135.59434 190.254871 
L 135.980542 190.254871 
L 136.28684 188.992055 
L 136.415574 188.992055 
L 136.428891 188.571117 
L 136.908314 187.72924 
L 137.227929 186.887363 
L 137.494275 186.887363 
L 137.623009 186.466424 
L 137.680718 186.466424 
L 138.022528 184.78267 
L 138.097993 184.78267 
L 138.390974 183.940793 
L 138.999131 183.940793 
L 139.283233 181.8361 
L 139.336502 181.8361 
L 139.616166 181.415162 
L 140.162175 181.415162 
L 140.304226 180.994223 
L 140.38413 180.994223 
L 140.566133 180.573285 
L 140.690428 178.889531 
L 140.912383 178.889531 
L 141.014483 178.468592 
L 141.400684 178.468592 
L 141.675909 178.047654 
L 141.729178 177.626715 
L 141.880107 177.626715 
L 142.026598 175.522023 
L 142.426117 175.522023 
L 142.537094 174.680146 
L 142.972126 174.680146 
L 143.140812 174.259207 
L 143.291741 172.996392 
L 144.774401 172.996392 
L 144.960843 172.575453 
L 145.910811 172.575453 
L 146.021789 171.312637 
L 146.60775 171.312637 
L 146.749801 170.891699 
L 146.829705 170.891699 
L 147.118247 170.47076 
L 147.309128 170.47076 
L 147.433423 170.049822 
L 147.650939 170.049822 
L 147.806307 169.628883 
L 148.210265 168.366068 
L 148.538759 168.366068 
L 148.605345 167.945129 
L 148.871691 167.524191 
L 148.911643 167.524191 
L 149.155794 167.103252 
L 149.559752 167.103252 
L 149.830537 165.840437 
L 151.228854 165.840437 
L 151.242171 165.419498 
L 151.561787 165.419498 
L 151.952428 163.735744 
L 152.081162 163.735744 
L 152.409655 161.631052 
L 152.560584 161.631052 
L 152.68044 160.789175 
L 153.417331 160.789175 
L 153.736946 160.368236 
L 154.123148 160.368236 
L 154.41169 159.947298 
L 154.513789 159.947298 
L 154.780135 159.526359 
L 154.895552 159.526359 
L 155.15302 159.10542 
L 155.281753 159.10542 
L 155.579173 157.842605 
L 155.84108 157.842605 
L 156.28499 157.000728 
L 156.302747 156.579789 
L 156.458115 156.158851 
L 156.538019 155.737912 
L 156.702266 155.316974 
L 156.955295 154.896035 
L 158.300342 154.896035 
L 158.41132 154.475097 
L 158.735374 153.63322 
L 158.837473 153.212281 
L 159.117137 152.791343 
L 159.219236 152.791343 
L 159.49446 152.370404 
L 160.169204 152.370404 
L 160.240229 151.949466 
L 160.577601 151.949466 
L 160.888338 151.528527 
L 161.842745 151.528527 
L 162.002552 150.68665 
L 162.233386 150.68665 
L 162.446463 149.844773 
L 162.748321 149.002896 
L 162.961398 149.002896 
L 163.471895 147.319142 
L 163.769315 147.319142 
L 163.844779 146.898204 
L 164.768112 146.898204 
L 164.870212 146.477265 
L 165.518321 146.477265 
L 165.624859 146.056326 
L 166.601461 146.056326 
L 166.872246 145.635388 
L 167.9909 145.635388 
L 168.248368 145.214449 
L 168.656765 145.214449 
L 168.954185 144.372572 
L 170.237085 144.372572 
L 170.370258 143.951634 
L 171.013928 143.951634 
L 171.333543 143.530695 
L 172.381171 143.530695 
L 172.572052 143.109757 
L 172.625321 143.109757 
L 172.73186 142.26788 
L 173.153574 142.26788 
L 173.295626 141.846941 
L 173.450994 141.846941 
L 173.699584 141.005064 
L 173.961491 141.005064 
L 174.378766 140.584126 
L 175.235513 140.584126 
L 175.475224 140.163187 
L 175.812596 140.163187 
L 176.118894 139.32131 
L 176.465144 139.32131 
L 176.607195 138.479433 
L 176.957884 138.479433 
L 177.02891 138.058495 
L 177.259743 137.637556 
L 178.698012 137.637556 
L 178.782355 137.216618 
L 179.767835 137.216618 
L 179.887691 136.795679 
L 179.949838 136.795679 
L 180.247258 136.374741 
L 180.957514 136.374741 
L 181.232738 135.532864 
L 181.894164 135.532864 
L 182.169389 135.111925 
L 182.315879 135.111925 
L 182.564469 134.690987 
L 182.679885 134.690987 
L 182.710959 134.270048 
L 182.963988 133.849109 
L 184.411135 133.849109 
L 184.491039 133.428171 
L 185.623009 133.428171 
L 185.791695 133.007232 
L 185.960381 133.007232 
L 186.106871 132.165355 
L 186.124628 132.165355 
L 186.217849 131.744417 
L 186.50639 131.744417 
L 186.612929 130.90254 
L 186.763858 130.90254 
L 186.888153 130.481601 
L 186.999131 130.481601 
L 187.305429 130.060663 
L 187.820364 130.060663 
L 187.997928 129.639724 
L 188.3353 129.639724 
L 188.441839 129.218786 
L 188.58389 129.218786 
L 188.925701 128.797847 
L 189.480588 128.797847 
L 189.564931 128.376909 
L 190.363969 128.376909 
L 190.497142 127.95597 
L 190.532655 127.95597 
L 190.612559 127.535032 
L 191.118616 127.535032 
L 191.757847 126.272216 
L 191.930972 126.272216 
L 191.930972 125.851278 
L 193.600074 125.851278 
L 193.631148 125.430339 
L 193.813151 125.430339 
L 193.853103 125.009401 
L 194.026228 125.009401 
L 194.2615 124.588462 
L 194.647702 124.167524 
L 194.825266 124.167524 
L 195.10049 123.746585 
L 195.25142 123.325647 
L 195.255859 123.325647 
L 195.619865 122.904708 
L 195.868455 121.641893 
L 196.405586 121.641893 
L 196.720762 121.220954 
L 196.885009 121.220954 
L 197.284528 120.800015 
L 197.462092 120.800015 
L 197.475409 120.379077 
L 198.159031 120.379077 
L 198.243374 119.958138 
L 199.34871 119.958138 
L 199.393101 119.5372 
L 199.739351 119.116261 
L 200.613854 119.116261 
L 200.707075 118.695323 
L 202.01661 118.695323 
L 202.331786 118.274384 
L 202.456081 118.274384 
L 202.456081 117.853446 
L 202.820087 117.853446 
L 203.033164 117.011569 
L 204.733339 117.011569 
L 205.181689 116.59063 
L 205.261593 116.59063 
L 205.443596 115.748753 
L 205.794285 115.748753 
L 205.847554 115.327815 
L 206.011801 115.327815 
L 206.118339 114.906876 
L 208.755165 114.906876 
L 208.999316 114.485938 
L 210.513049 114.485938 
L 210.548562 113.644061 
L 210.885934 113.644061 
L 211.227744 113.223122 
L 211.320966 113.223122 
L 211.409748 112.802184 
L 214.055452 112.802184 
L 214.36175 112.381245 
L 216.496957 112.381245 
L 216.572422 111.960307 
L 217.686636 111.960307 
L 217.708832 111.539368 
L 218.419088 110.276553 
L 218.645482 110.276553 
L 218.991732 109.855614 
L 219.120466 109.855614 
L 219.480033 109.434676 
L 219.54662 109.434676 
L 219.812966 108.592799 
L 220.28795 108.592799 
L 220.616443 108.17186 
L 220.727421 108.17186 
L 220.913863 107.750921 
L 221.646315 107.750921 
L 221.681827 107.329983 
L 223.253269 107.329983 
L 223.501859 106.067167 
L 225.12657 106.067167 
L 225.330769 105.646229 
L 225.352964 105.646229 
L 225.632627 105.22529 
L 228.08745 105.22529 
L 228.167354 104.804352 
L 229.379229 104.804352 
L 229.543475 104.383413 
L 231.35019 104.383413 
L 231.634292 103.962475 
L 233.338907 103.962475 
L 233.396615 103.541536 
L 234.45756 103.541536 
L 234.861519 103.120598 
L 235.851438 103.120598 
L 235.993489 102.699659 
L 238.168649 102.699659 
L 238.168649 102.278721 
L 238.981004 102.278721 
L 239.047591 101.857782 
L 239.225155 101.436844 
L 239.633552 101.436844 
L 239.757847 101.015905 
L 240.441469 101.015905 
L 240.676741 100.594967 
L 240.836549 100.594967 
L 240.885379 100.174028 
L 241.76876 100.174028 
L 241.999593 99.75309 
L 244.019384 99.75309 
L 244.343438 99.332151 
L 245.271211 99.332151 
L 245.484287 98.911213 
L 245.5198 98.911213 
L 245.888246 98.490274 
L 245.972589 98.490274 
L 246.056931 97.648397 
L 246.554111 96.80652 
L 247.291002 96.80652 
L 247.415296 96.385582 
L 247.441931 96.385582 
L 247.508518 95.964643 
L 247.970184 95.964643 
L 248.307556 95.543705 
L 248.489559 95.543705 
L 248.791418 95.122766 
L 250.029927 95.122766 
L 250.118709 94.701827 
L 250.695792 94.701827 
L 251.015407 93.85995 
L 254.531175 93.85995 
L 254.819717 93.439012 
L 258.641783 93.439012 
L 258.690613 93.018073 
L 259.573994 93.018073 
L 259.738241 92.597135 
L 260.586109 92.597135 
L 260.697087 92.176196 
L 260.7326 92.176196 
L 260.745917 91.755258 
L 262.228577 91.755258 
L 262.25965 91.334319 
L 263.098641 91.334319 
L 263.227374 90.913381 
L 263.897679 90.913381 
L 264.23505 90.492442 
L 264.248368 90.071504 
L 264.474762 90.071504 
L 264.794377 89.650565 
L 265.76654 89.650565 
L 265.904152 89.229627 
L 266.840803 89.229627 
L 266.996171 88.38775 
L 267.417886 88.38775 
L 267.555498 87.966811 
L 269.082549 87.966811 
L 269.260113 87.545873 
L 271.34649 87.545873 
L 271.466346 87.124934 
L 271.706058 87.124934 
L 271.839231 86.283057 
L 274.103172 86.283057 
L 274.502691 85.862119 
L 275.430463 85.862119 
L 275.750079 85.020242 
L 276.28721 85.020242 
L 276.63346 84.599303 
L 276.708924 84.178365 
L 276.890928 84.178365 
L 276.904245 83.757426 
L 277.206104 83.336488 
L 285.800203 83.336488 
L 285.928937 82.915549 
L 286.639194 82.915549 
L 287.087543 82.494611 
L 287.886581 82.494611 
L 287.970924 82.073672 
L 290.394673 82.073672 
L 290.581115 81.652733 
L 290.669897 81.231795 
L 290.945122 81.231795 
L 291.264737 80.810856 
L 292.063775 80.810856 
L 292.414464 80.389918 
L 295.255489 80.389918 
L 295.623934 79.968979 
L 295.761546 79.127102 
L 296.209895 79.127102 
L 296.338629 78.706164 
L 296.826931 78.706164 
L 296.858004 78.285225 
L 297.417331 78.285225 
L 297.821289 77.864287 
L 300.231721 77.864287 
L 300.58241 77.443348 
L 301.585647 77.443348 
L 301.891945 77.02241 
L 304.147008 77.02241 
L 304.453306 76.601471 
L 305.66962 76.601471 
L 305.86494 76.180533 
L 305.944844 76.180533 
L 306.36212 75.759594 
L 307.88917 75.759594 
L 308.248738 75.338656 
L 313.793175 75.338656 
L 313.992934 74.917717 
L 314.028447 74.917717 
L 314.401332 74.496779 
L 315.315787 74.496779 
L 315.857357 74.07584 
L 316.754055 74.07584 
L 317.033719 73.654902 
L 320.220993 73.654902 
L 320.331971 73.233963 
L 321.974438 73.233963 
L 322.271858 72.813025 
L 324.220623 72.813025 
L 324.429261 72.392086 
L 325.170591 72.392086 
L 325.57011 71.971148 
L 326.187145 71.971148 
L 326.307001 71.550209 
L 328.03825 71.550209 
L 328.229132 71.129271 
L 330.666198 71.129271 
L 330.839323 70.287394 
L 333.334098 70.287394 
L 333.334098 69.866455 
L 333.400684 69.866455 
L 334.723536 69.866455 
L 335.278424 69.445516 
L 335.957607 69.445516 
L 336.210635 69.024578 
L 337.724369 69.024578 
L 338.208231 68.603639 
L 339.921724 68.603639 
L 340.489929 68.182701 
L 341.391066 68.182701 
L 341.901563 67.761762 
L 343.215537 67.761762 
L 343.393101 67.340824 
L 347.019846 67.340824 
L 347.539221 66.919885 
L 347.770055 66.919885 
L 347.770055 66.498947 
L 347.787811 66.498947 
L 352.351207 66.498947 
L 352.493258 66.078008 
L 356.67933 66.078008 
L 356.856894 65.65707 
L 357.380708 64.815193 
L 359.813336 64.815193 
L 359.973143 64.394254 
L 362.303672 64.394254 
L 362.938463 63.973316 
L 372.957514 63.973316 
L 373.015222 63.552377 
L 375.074965 63.552377 
L 375.19926 63.131439 
L 375.283603 63.131439 
L 375.909516 62.7105 
L 376.082641 62.7105 
L 376.801776 62.289562 
L 376.899436 62.289562 
L 377.551984 61.868623 
L 384.414834 61.868623 
L 384.521372 61.447685 
L 388.609785 61.447685 
L 389.306723 61.026746 
L 390.456451 61.026746 
L 391.060168 60.605808 
L 406.037695 60.605808 
L 406.832294 60.184869 
L 407.591381 60.184869 
L 408.221733 59.763931 
L 409.309313 59.763931 
L 409.42029 59.342992 
L 412.23912 59.342992 
L 413.086988 58.922054 
L 416.904615 58.922054 
L 417.064422 58.501115 
L 423.585462 58.501115 
L 424.295718 58.080177 
L 430.181966 58.080177 
L 431.136373 57.659238 
L 439.00246 57.659238 
L 440.072283 57.2383 
L 440.143309 57.2383 
L 441.079959 56.817361 
L 449.474299 56.817361 
L 450.526366 56.396422 
L 474.95474 56.396422 
L 476.566133 55.975484 
L 484.689688 55.975484 
L 485.901563 55.554545 
L 498.109091 55.554545 
L 498.109091 55.554545 
" style="fill:none;stroke:#2b667c;stroke-linecap:square;stroke-width:1.5;"/>
   </g>
   <g id="line2d_14">
    <path clip-path="url(#p59b1123bff)" d="M 92.290909 302.645455 
L 498.109091 55.554545 
" style="fill:none;stroke:#ff0000;stroke-linecap:square;stroke-width:1.5;"/>
   </g>
   <g id="patch_3">
    <path d="M 72 315 
L 72 43.2 
" style="fill:none;stroke:#000000;stroke-linecap:square;stroke-linejoin:miter;stroke-width:0.8;"/>
   </g>
   <g id="patch_4">
    <path d="M 518.4 315 
L 518.4 43.2 
" style="fill:none;stroke:#000000;stroke-linecap:square;stroke-linejoin:miter;stroke-width:0.8;"/>
   </g>
   <g id="patch_5">
    <path d="M 72 315 
L 518.4 315 
" style="fill:none;stroke:#000000;stroke-linecap:square;stroke-linejoin:miter;stroke-width:0.8;"/>
   </g>
   <g id="patch_6">
    <path d="M 72 43.2 
L 518.4 43.2 
" style="fill:none;stroke:#000000;stroke-linecap:square;stroke-linejoin:miter;stroke-width:0.8;"/>
   </g>
   <g id="text_15">
    <!-- ALVARO OBREGON -->
    <g transform="translate(257.8175 37.2)scale(0.08 -0.08)">
     <defs>
      <path d="M 2188 4044 
L 1331 1722 
L 3047 1722 
L 2188 4044 
z
M 1831 4666 
L 2547 4666 
L 4325 0 
L 3669 0 
L 3244 1197 
L 1141 1197 
L 716 0 
L 50 0 
L 1831 4666 
z
" id="DejaVuSans-41" transform="scale(0.015625)"/>
      <path d="M 628 4666 
L 1259 4666 
L 1259 531 
L 3531 531 
L 3531 0 
L 628 0 
L 628 4666 
z
" id="DejaVuSans-4c" transform="scale(0.015625)"/>
      <path d="M 1831 0 
L 50 4666 
L 709 4666 
L 2188 738 
L 3669 4666 
L 4325 4666 
L 2547 0 
L 1831 0 
z
" id="DejaVuSans-56" transform="scale(0.015625)"/>
      <path d="M 2841 2188 
Q 3044 2119 3236 1894 
Q 3428 1669 3622 1275 
L 4263 0 
L 3584 0 
L 2988 1197 
Q 2756 1666 2539 1819 
Q 2322 1972 1947 1972 
L 1259 1972 
L 1259 0 
L 628 0 
L 628 4666 
L 2053 4666 
Q 2853 4666 3247 4331 
Q 3641 3997 3641 3322 
Q 3641 2881 3436 2590 
Q 3231 2300 2841 2188 
z
M 1259 4147 
L 1259 2491 
L 2053 2491 
Q 2509 2491 2742 2702 
Q 2975 2913 2975 3322 
Q 2975 3731 2742 3939 
Q 2509 4147 2053 4147 
L 1259 4147 
z
" id="DejaVuSans-52" transform="scale(0.015625)"/>
      <path d="M 2522 4238 
Q 1834 4238 1429 3725 
Q 1025 3213 1025 2328 
Q 1025 1447 1429 934 
Q 1834 422 2522 422 
Q 3209 422 3611 934 
Q 4013 1447 4013 2328 
Q 4013 3213 3611 3725 
Q 3209 4238 2522 4238 
z
M 2522 4750 
Q 3503 4750 4090 4092 
Q 4678 3434 4678 2328 
Q 4678 1225 4090 567 
Q 3503 -91 2522 -91 
Q 1538 -91 948 565 
Q 359 1222 359 2328 
Q 359 3434 948 4092 
Q 1538 4750 2522 4750 
z
" id="DejaVuSans-4f" transform="scale(0.015625)"/>
      <path d="M 1259 2228 
L 1259 519 
L 2272 519 
Q 2781 519 3026 730 
Q 3272 941 3272 1375 
Q 3272 1813 3026 2020 
Q 2781 2228 2272 2228 
L 1259 2228 
z
M 1259 4147 
L 1259 2741 
L 2194 2741 
Q 2656 2741 2882 2914 
Q 3109 3088 3109 3444 
Q 3109 3797 2882 3972 
Q 2656 4147 2194 4147 
L 1259 4147 
z
M 628 4666 
L 2241 4666 
Q 2963 4666 3353 4366 
Q 3744 4066 3744 3513 
Q 3744 3084 3544 2831 
Q 3344 2578 2956 2516 
Q 3422 2416 3680 2098 
Q 3938 1781 3938 1306 
Q 3938 681 3513 340 
Q 3088 0 2303 0 
L 628 0 
L 628 4666 
z
" id="DejaVuSans-42" transform="scale(0.015625)"/>
      <path d="M 628 4666 
L 3578 4666 
L 3578 4134 
L 1259 4134 
L 1259 2753 
L 3481 2753 
L 3481 2222 
L 1259 2222 
L 1259 531 
L 3634 531 
L 3634 0 
L 628 0 
L 628 4666 
z
" id="DejaVuSans-45" transform="scale(0.015625)"/>
      <path d="M 3809 666 
L 3809 1919 
L 2778 1919 
L 2778 2438 
L 4434 2438 
L 4434 434 
Q 4069 175 3628 42 
Q 3188 -91 2688 -91 
Q 1594 -91 976 548 
Q 359 1188 359 2328 
Q 359 3472 976 4111 
Q 1594 4750 2688 4750 
Q 3144 4750 3555 4637 
Q 3966 4525 4313 4306 
L 4313 3634 
Q 3963 3931 3569 4081 
Q 3175 4231 2741 4231 
Q 1884 4231 1454 3753 
Q 1025 3275 1025 2328 
Q 1025 1384 1454 906 
Q 1884 428 2741 428 
Q 3075 428 3337 486 
Q 3600 544 3809 666 
z
" id="DejaVuSans-47" transform="scale(0.015625)"/>
      <path d="M 628 4666 
L 1478 4666 
L 3547 763 
L 3547 4666 
L 4159 4666 
L 4159 0 
L 3309 0 
L 1241 3903 
L 1241 0 
L 628 0 
L 628 4666 
z
" id="DejaVuSans-4e" transform="scale(0.015625)"/>
     </defs>
     <use xlink:href="#DejaVuSans-41"/>
     <use x="68.408203" xlink:href="#DejaVuSans-4c"/>
     <use x="113.121094" xlink:href="#DejaVuSans-56"/>
     <use x="175.154297" xlink:href="#DejaVuSans-41"/>
     <use x="243.5625" xlink:href="#DejaVuSans-52"/>
     <use x="313.044922" xlink:href="#DejaVuSans-4f"/>
     <use x="391.755859" xlink:href="#DejaVuSans-20"/>
     <use x="423.542969" xlink:href="#DejaVuSans-4f"/>
     <use x="502.253906" xlink:href="#DejaVuSans-42"/>
     <use x="570.857422" xlink:href="#DejaVuSans-52"/>
     <use x="640.339844" xlink:href="#DejaVuSans-45"/>
     <use x="703.523438" xlink:href="#DejaVuSans-47"/>
     <use x="781.013672" xlink:href="#DejaVuSans-4f"/>
     <use x="859.724609" xlink:href="#DejaVuSans-4e"/>
    </g>
   </g>
  </g>
  <g id="text_16">
   <!-- ROC Curve -->
   <g transform="translate(244.4125 19.3575)scale(0.16 -0.16)">
    <defs>
     <path d="M 4122 4306 
L 4122 3641 
Q 3803 3938 3442 4084 
Q 3081 4231 2675 4231 
Q 1875 4231 1450 3742 
Q 1025 3253 1025 2328 
Q 1025 1406 1450 917 
Q 1875 428 2675 428 
Q 3081 428 3442 575 
Q 3803 722 4122 1019 
L 4122 359 
Q 3791 134 3420 21 
Q 3050 -91 2638 -91 
Q 1578 -91 968 557 
Q 359 1206 359 2328 
Q 359 3453 968 4101 
Q 1578 4750 2638 4750 
Q 3056 4750 3426 4639 
Q 3797 4528 4122 4306 
z
" id="DejaVuSans-43" transform="scale(0.015625)"/>
    </defs>
    <use xlink:href="#DejaVuSans-52"/>
    <use x="69.482422" xlink:href="#DejaVuSans-4f"/>
    <use x="148.193359" xlink:href="#DejaVuSans-43"/>
    <use x="218.017578" xlink:href="#DejaVuSans-20"/>
    <use x="249.804688" xlink:href="#DejaVuSans-43"/>
    <use x="319.628906" xlink:href="#DejaVuSans-75"/>
    <use x="383.007812" xlink:href="#DejaVuSans-72"/>
    <use x="424.121094" xlink:href="#DejaVuSans-76"/>
    <use x="483.300781" xlink:href="#DejaVuSans-65"/>
   </g>
  </g>
 </g>
 <defs>
  <clipPath id="p59b1123bff">
   <rect height="271.8" width="446.4" x="72" y="43.2"/>
  </clipPath>
 </defs>
</svg>
