<?xml version="1.0" encoding="utf-8" standalone="no"?>
<!DOCTYPE svg PUBLIC "-//W3C//DTD SVG 1.1//EN"
  "http://www.w3.org/Graphics/SVG/1.1/DTD/svg11.dtd">
<svg height="360pt" version="1.1" viewBox="0 0 576 360" width="576pt" xmlns="http://www.w3.org/2000/svg" xmlns:xlink="http://www.w3.org/1999/xlink">
 <metadata>
  <rdf:RDF xmlns:cc="http://creativecommons.org/ns#" xmlns:dc="http://purl.org/dc/elements/1.1/" xmlns:rdf="http://www.w3.org/1999/02/22-rdf-syntax-ns#">
   <cc:Work>
    <dc:type rdf:resource="http://purl.org/dc/dcmitype/StillImage"/>
    <dc:date>2022-01-04T19:00:14.246744</dc:date>
    <dc:format>image/svg+xml</dc:format>
    <dc:creator>
     <cc:Agent>
      <dc:title>Matplotlib v3.4.3, https://matplotlib.org/</dc:title>
     </cc:Agent>
    </dc:creator>
   </cc:Work>
  </rdf:RDF>
 </metadata>
 <defs>
  <style type="text/css">*{stroke-linecap:butt;stroke-linejoin:round;}</style>
 </defs>
 <g id="figure_1">
  <g id="patch_1">
   <path d="M 0 360 
L 576 360 
L 576 0 
L 0 0 
z
" style="fill:none;"/>
  </g>
  <g id="axes_1">
   <g id="patch_2">
    <path d="M 72 315 
L 518.4 315 
L 518.4 43.2 
L 72 43.2 
z
" style="fill:#ffffff;"/>
   </g>
   <g id="matplotlib.axis_1">
    <g id="xtick_1">
     <g id="line2d_1">
      <defs>
       <path d="M 0 0 
L 0 3.5 
" id="mcffbc57170" style="stroke:#000000;stroke-width:0.8;"/>
      </defs>
      <g>
       <use style="stroke:#000000;stroke-width:0.8;" x="92.290909" xlink:href="#mcffbc57170" y="315"/>
      </g>
     </g>
     <g id="text_1">
      <!-- 0.0 -->
      <g transform="translate(84.339347 329.598437)scale(0.1 -0.1)">
       <defs>
        <path d="M 2034 4250 
Q 1547 4250 1301 3770 
Q 1056 3291 1056 2328 
Q 1056 1369 1301 889 
Q 1547 409 2034 409 
Q 2525 409 2770 889 
Q 3016 1369 3016 2328 
Q 3016 3291 2770 3770 
Q 2525 4250 2034 4250 
z
M 2034 4750 
Q 2819 4750 3233 4129 
Q 3647 3509 3647 2328 
Q 3647 1150 3233 529 
Q 2819 -91 2034 -91 
Q 1250 -91 836 529 
Q 422 1150 422 2328 
Q 422 3509 836 4129 
Q 1250 4750 2034 4750 
z
" id="DejaVuSans-30" transform="scale(0.015625)"/>
        <path d="M 684 794 
L 1344 794 
L 1344 0 
L 684 0 
L 684 794 
z
" id="DejaVuSans-2e" transform="scale(0.015625)"/>
       </defs>
       <use xlink:href="#DejaVuSans-30"/>
       <use x="63.623047" xlink:href="#DejaVuSans-2e"/>
       <use x="95.410156" xlink:href="#DejaVuSans-30"/>
      </g>
     </g>
    </g>
    <g id="xtick_2">
     <g id="line2d_2">
      <g>
       <use style="stroke:#000000;stroke-width:0.8;" x="173.454545" xlink:href="#mcffbc57170" y="315"/>
      </g>
     </g>
     <g id="text_2">
      <!-- 0.2 -->
      <g transform="translate(165.502983 329.598437)scale(0.1 -0.1)">
       <defs>
        <path d="M 1228 531 
L 3431 531 
L 3431 0 
L 469 0 
L 469 531 
Q 828 903 1448 1529 
Q 2069 2156 2228 2338 
Q 2531 2678 2651 2914 
Q 2772 3150 2772 3378 
Q 2772 3750 2511 3984 
Q 2250 4219 1831 4219 
Q 1534 4219 1204 4116 
Q 875 4013 500 3803 
L 500 4441 
Q 881 4594 1212 4672 
Q 1544 4750 1819 4750 
Q 2544 4750 2975 4387 
Q 3406 4025 3406 3419 
Q 3406 3131 3298 2873 
Q 3191 2616 2906 2266 
Q 2828 2175 2409 1742 
Q 1991 1309 1228 531 
z
" id="DejaVuSans-32" transform="scale(0.015625)"/>
       </defs>
       <use xlink:href="#DejaVuSans-30"/>
       <use x="63.623047" xlink:href="#DejaVuSans-2e"/>
       <use x="95.410156" xlink:href="#DejaVuSans-32"/>
      </g>
     </g>
    </g>
    <g id="xtick_3">
     <g id="line2d_3">
      <g>
       <use style="stroke:#000000;stroke-width:0.8;" x="254.618182" xlink:href="#mcffbc57170" y="315"/>
      </g>
     </g>
     <g id="text_3">
      <!-- 0.4 -->
      <g transform="translate(246.666619 329.598437)scale(0.1 -0.1)">
       <defs>
        <path d="M 2419 4116 
L 825 1625 
L 2419 1625 
L 2419 4116 
z
M 2253 4666 
L 3047 4666 
L 3047 1625 
L 3713 1625 
L 3713 1100 
L 3047 1100 
L 3047 0 
L 2419 0 
L 2419 1100 
L 313 1100 
L 313 1709 
L 2253 4666 
z
" id="DejaVuSans-34" transform="scale(0.015625)"/>
       </defs>
       <use xlink:href="#DejaVuSans-30"/>
       <use x="63.623047" xlink:href="#DejaVuSans-2e"/>
       <use x="95.410156" xlink:href="#DejaVuSans-34"/>
      </g>
     </g>
    </g>
    <g id="xtick_4">
     <g id="line2d_4">
      <g>
       <use style="stroke:#000000;stroke-width:0.8;" x="335.781818" xlink:href="#mcffbc57170" y="315"/>
      </g>
     </g>
     <g id="text_4">
      <!-- 0.6 -->
      <g transform="translate(327.830256 329.598437)scale(0.1 -0.1)">
       <defs>
        <path d="M 2113 2584 
Q 1688 2584 1439 2293 
Q 1191 2003 1191 1497 
Q 1191 994 1439 701 
Q 1688 409 2113 409 
Q 2538 409 2786 701 
Q 3034 994 3034 1497 
Q 3034 2003 2786 2293 
Q 2538 2584 2113 2584 
z
M 3366 4563 
L 3366 3988 
Q 3128 4100 2886 4159 
Q 2644 4219 2406 4219 
Q 1781 4219 1451 3797 
Q 1122 3375 1075 2522 
Q 1259 2794 1537 2939 
Q 1816 3084 2150 3084 
Q 2853 3084 3261 2657 
Q 3669 2231 3669 1497 
Q 3669 778 3244 343 
Q 2819 -91 2113 -91 
Q 1303 -91 875 529 
Q 447 1150 447 2328 
Q 447 3434 972 4092 
Q 1497 4750 2381 4750 
Q 2619 4750 2861 4703 
Q 3103 4656 3366 4563 
z
" id="DejaVuSans-36" transform="scale(0.015625)"/>
       </defs>
       <use xlink:href="#DejaVuSans-30"/>
       <use x="63.623047" xlink:href="#DejaVuSans-2e"/>
       <use x="95.410156" xlink:href="#DejaVuSans-36"/>
      </g>
     </g>
    </g>
    <g id="xtick_5">
     <g id="line2d_5">
      <g>
       <use style="stroke:#000000;stroke-width:0.8;" x="416.945455" xlink:href="#mcffbc57170" y="315"/>
      </g>
     </g>
     <g id="text_5">
      <!-- 0.8 -->
      <g transform="translate(408.993892 329.598437)scale(0.1 -0.1)">
       <defs>
        <path d="M 2034 2216 
Q 1584 2216 1326 1975 
Q 1069 1734 1069 1313 
Q 1069 891 1326 650 
Q 1584 409 2034 409 
Q 2484 409 2743 651 
Q 3003 894 3003 1313 
Q 3003 1734 2745 1975 
Q 2488 2216 2034 2216 
z
M 1403 2484 
Q 997 2584 770 2862 
Q 544 3141 544 3541 
Q 544 4100 942 4425 
Q 1341 4750 2034 4750 
Q 2731 4750 3128 4425 
Q 3525 4100 3525 3541 
Q 3525 3141 3298 2862 
Q 3072 2584 2669 2484 
Q 3125 2378 3379 2068 
Q 3634 1759 3634 1313 
Q 3634 634 3220 271 
Q 2806 -91 2034 -91 
Q 1263 -91 848 271 
Q 434 634 434 1313 
Q 434 1759 690 2068 
Q 947 2378 1403 2484 
z
M 1172 3481 
Q 1172 3119 1398 2916 
Q 1625 2713 2034 2713 
Q 2441 2713 2670 2916 
Q 2900 3119 2900 3481 
Q 2900 3844 2670 4047 
Q 2441 4250 2034 4250 
Q 1625 4250 1398 4047 
Q 1172 3844 1172 3481 
z
" id="DejaVuSans-38" transform="scale(0.015625)"/>
       </defs>
       <use xlink:href="#DejaVuSans-30"/>
       <use x="63.623047" xlink:href="#DejaVuSans-2e"/>
       <use x="95.410156" xlink:href="#DejaVuSans-38"/>
      </g>
     </g>
    </g>
    <g id="xtick_6">
     <g id="line2d_6">
      <g>
       <use style="stroke:#000000;stroke-width:0.8;" x="498.109091" xlink:href="#mcffbc57170" y="315"/>
      </g>
     </g>
     <g id="text_6">
      <!-- 1.0 -->
      <g transform="translate(490.157528 329.598437)scale(0.1 -0.1)">
       <defs>
        <path d="M 794 531 
L 1825 531 
L 1825 4091 
L 703 3866 
L 703 4441 
L 1819 4666 
L 2450 4666 
L 2450 531 
L 3481 531 
L 3481 0 
L 794 0 
L 794 531 
z
" id="DejaVuSans-31" transform="scale(0.015625)"/>
       </defs>
       <use xlink:href="#DejaVuSans-31"/>
       <use x="63.623047" xlink:href="#DejaVuSans-2e"/>
       <use x="95.410156" xlink:href="#DejaVuSans-30"/>
      </g>
     </g>
    </g>
    <g id="text_7">
     <!-- False positive rate -->
     <g transform="translate(249.699219 343.276563)scale(0.1 -0.1)">
      <defs>
       <path d="M 628 4666 
L 3309 4666 
L 3309 4134 
L 1259 4134 
L 1259 2759 
L 3109 2759 
L 3109 2228 
L 1259 2228 
L 1259 0 
L 628 0 
L 628 4666 
z
" id="DejaVuSans-46" transform="scale(0.015625)"/>
       <path d="M 2194 1759 
Q 1497 1759 1228 1600 
Q 959 1441 959 1056 
Q 959 750 1161 570 
Q 1363 391 1709 391 
Q 2188 391 2477 730 
Q 2766 1069 2766 1631 
L 2766 1759 
L 2194 1759 
z
M 3341 1997 
L 3341 0 
L 2766 0 
L 2766 531 
Q 2569 213 2275 61 
Q 1981 -91 1556 -91 
Q 1019 -91 701 211 
Q 384 513 384 1019 
Q 384 1609 779 1909 
Q 1175 2209 1959 2209 
L 2766 2209 
L 2766 2266 
Q 2766 2663 2505 2880 
Q 2244 3097 1772 3097 
Q 1472 3097 1187 3025 
Q 903 2953 641 2809 
L 641 3341 
Q 956 3463 1253 3523 
Q 1550 3584 1831 3584 
Q 2591 3584 2966 3190 
Q 3341 2797 3341 1997 
z
" id="DejaVuSans-61" transform="scale(0.015625)"/>
       <path d="M 603 4863 
L 1178 4863 
L 1178 0 
L 603 0 
L 603 4863 
z
" id="DejaVuSans-6c" transform="scale(0.015625)"/>
       <path d="M 2834 3397 
L 2834 2853 
Q 2591 2978 2328 3040 
Q 2066 3103 1784 3103 
Q 1356 3103 1142 2972 
Q 928 2841 928 2578 
Q 928 2378 1081 2264 
Q 1234 2150 1697 2047 
L 1894 2003 
Q 2506 1872 2764 1633 
Q 3022 1394 3022 966 
Q 3022 478 2636 193 
Q 2250 -91 1575 -91 
Q 1294 -91 989 -36 
Q 684 19 347 128 
L 347 722 
Q 666 556 975 473 
Q 1284 391 1588 391 
Q 1994 391 2212 530 
Q 2431 669 2431 922 
Q 2431 1156 2273 1281 
Q 2116 1406 1581 1522 
L 1381 1569 
Q 847 1681 609 1914 
Q 372 2147 372 2553 
Q 372 3047 722 3315 
Q 1072 3584 1716 3584 
Q 2034 3584 2315 3537 
Q 2597 3491 2834 3397 
z
" id="DejaVuSans-73" transform="scale(0.015625)"/>
       <path d="M 3597 1894 
L 3597 1613 
L 953 1613 
Q 991 1019 1311 708 
Q 1631 397 2203 397 
Q 2534 397 2845 478 
Q 3156 559 3463 722 
L 3463 178 
Q 3153 47 2828 -22 
Q 2503 -91 2169 -91 
Q 1331 -91 842 396 
Q 353 884 353 1716 
Q 353 2575 817 3079 
Q 1281 3584 2069 3584 
Q 2775 3584 3186 3129 
Q 3597 2675 3597 1894 
z
M 3022 2063 
Q 3016 2534 2758 2815 
Q 2500 3097 2075 3097 
Q 1594 3097 1305 2825 
Q 1016 2553 972 2059 
L 3022 2063 
z
" id="DejaVuSans-65" transform="scale(0.015625)"/>
       <path id="DejaVuSans-20" transform="scale(0.015625)"/>
       <path d="M 1159 525 
L 1159 -1331 
L 581 -1331 
L 581 3500 
L 1159 3500 
L 1159 2969 
Q 1341 3281 1617 3432 
Q 1894 3584 2278 3584 
Q 2916 3584 3314 3078 
Q 3713 2572 3713 1747 
Q 3713 922 3314 415 
Q 2916 -91 2278 -91 
Q 1894 -91 1617 61 
Q 1341 213 1159 525 
z
M 3116 1747 
Q 3116 2381 2855 2742 
Q 2594 3103 2138 3103 
Q 1681 3103 1420 2742 
Q 1159 2381 1159 1747 
Q 1159 1113 1420 752 
Q 1681 391 2138 391 
Q 2594 391 2855 752 
Q 3116 1113 3116 1747 
z
" id="DejaVuSans-70" transform="scale(0.015625)"/>
       <path d="M 1959 3097 
Q 1497 3097 1228 2736 
Q 959 2375 959 1747 
Q 959 1119 1226 758 
Q 1494 397 1959 397 
Q 2419 397 2687 759 
Q 2956 1122 2956 1747 
Q 2956 2369 2687 2733 
Q 2419 3097 1959 3097 
z
M 1959 3584 
Q 2709 3584 3137 3096 
Q 3566 2609 3566 1747 
Q 3566 888 3137 398 
Q 2709 -91 1959 -91 
Q 1206 -91 779 398 
Q 353 888 353 1747 
Q 353 2609 779 3096 
Q 1206 3584 1959 3584 
z
" id="DejaVuSans-6f" transform="scale(0.015625)"/>
       <path d="M 603 3500 
L 1178 3500 
L 1178 0 
L 603 0 
L 603 3500 
z
M 603 4863 
L 1178 4863 
L 1178 4134 
L 603 4134 
L 603 4863 
z
" id="DejaVuSans-69" transform="scale(0.015625)"/>
       <path d="M 1172 4494 
L 1172 3500 
L 2356 3500 
L 2356 3053 
L 1172 3053 
L 1172 1153 
Q 1172 725 1289 603 
Q 1406 481 1766 481 
L 2356 481 
L 2356 0 
L 1766 0 
Q 1100 0 847 248 
Q 594 497 594 1153 
L 594 3053 
L 172 3053 
L 172 3500 
L 594 3500 
L 594 4494 
L 1172 4494 
z
" id="DejaVuSans-74" transform="scale(0.015625)"/>
       <path d="M 191 3500 
L 800 3500 
L 1894 563 
L 2988 3500 
L 3597 3500 
L 2284 0 
L 1503 0 
L 191 3500 
z
" id="DejaVuSans-76" transform="scale(0.015625)"/>
       <path d="M 2631 2963 
Q 2534 3019 2420 3045 
Q 2306 3072 2169 3072 
Q 1681 3072 1420 2755 
Q 1159 2438 1159 1844 
L 1159 0 
L 581 0 
L 581 3500 
L 1159 3500 
L 1159 2956 
Q 1341 3275 1631 3429 
Q 1922 3584 2338 3584 
Q 2397 3584 2469 3576 
Q 2541 3569 2628 3553 
L 2631 2963 
z
" id="DejaVuSans-72" transform="scale(0.015625)"/>
      </defs>
      <use xlink:href="#DejaVuSans-46"/>
      <use x="48.394531" xlink:href="#DejaVuSans-61"/>
      <use x="109.673828" xlink:href="#DejaVuSans-6c"/>
      <use x="137.457031" xlink:href="#DejaVuSans-73"/>
      <use x="189.556641" xlink:href="#DejaVuSans-65"/>
      <use x="251.080078" xlink:href="#DejaVuSans-20"/>
      <use x="282.867188" xlink:href="#DejaVuSans-70"/>
      <use x="346.34375" xlink:href="#DejaVuSans-6f"/>
      <use x="407.525391" xlink:href="#DejaVuSans-73"/>
      <use x="459.625" xlink:href="#DejaVuSans-69"/>
      <use x="487.408203" xlink:href="#DejaVuSans-74"/>
      <use x="526.617188" xlink:href="#DejaVuSans-69"/>
      <use x="554.400391" xlink:href="#DejaVuSans-76"/>
      <use x="613.580078" xlink:href="#DejaVuSans-65"/>
      <use x="675.103516" xlink:href="#DejaVuSans-20"/>
      <use x="706.890625" xlink:href="#DejaVuSans-72"/>
      <use x="748.003906" xlink:href="#DejaVuSans-61"/>
      <use x="809.283203" xlink:href="#DejaVuSans-74"/>
      <use x="848.492188" xlink:href="#DejaVuSans-65"/>
     </g>
    </g>
   </g>
   <g id="matplotlib.axis_2">
    <g id="ytick_1">
     <g id="line2d_7">
      <defs>
       <path d="M 0 0 
L -3.5 0 
" id="m5f7242f3e2" style="stroke:#000000;stroke-width:0.8;"/>
      </defs>
      <g>
       <use style="stroke:#000000;stroke-width:0.8;" x="72" xlink:href="#m5f7242f3e2" y="302.645455"/>
      </g>
     </g>
     <g id="text_8">
      <!-- 0.0 -->
      <g transform="translate(49.096875 306.444673)scale(0.1 -0.1)">
       <use xlink:href="#DejaVuSans-30"/>
       <use x="63.623047" xlink:href="#DejaVuSans-2e"/>
       <use x="95.410156" xlink:href="#DejaVuSans-30"/>
      </g>
     </g>
    </g>
    <g id="ytick_2">
     <g id="line2d_8">
      <g>
       <use style="stroke:#000000;stroke-width:0.8;" x="72" xlink:href="#m5f7242f3e2" y="253.227273"/>
      </g>
     </g>
     <g id="text_9">
      <!-- 0.2 -->
      <g transform="translate(49.096875 257.026491)scale(0.1 -0.1)">
       <use xlink:href="#DejaVuSans-30"/>
       <use x="63.623047" xlink:href="#DejaVuSans-2e"/>
       <use x="95.410156" xlink:href="#DejaVuSans-32"/>
      </g>
     </g>
    </g>
    <g id="ytick_3">
     <g id="line2d_9">
      <g>
       <use style="stroke:#000000;stroke-width:0.8;" x="72" xlink:href="#m5f7242f3e2" y="203.809091"/>
      </g>
     </g>
     <g id="text_10">
      <!-- 0.4 -->
      <g transform="translate(49.096875 207.60831)scale(0.1 -0.1)">
       <use xlink:href="#DejaVuSans-30"/>
       <use x="63.623047" xlink:href="#DejaVuSans-2e"/>
       <use x="95.410156" xlink:href="#DejaVuSans-34"/>
      </g>
     </g>
    </g>
    <g id="ytick_4">
     <g id="line2d_10">
      <g>
       <use style="stroke:#000000;stroke-width:0.8;" x="72" xlink:href="#m5f7242f3e2" y="154.390909"/>
      </g>
     </g>
     <g id="text_11">
      <!-- 0.6 -->
      <g transform="translate(49.096875 158.190128)scale(0.1 -0.1)">
       <use xlink:href="#DejaVuSans-30"/>
       <use x="63.623047" xlink:href="#DejaVuSans-2e"/>
       <use x="95.410156" xlink:href="#DejaVuSans-36"/>
      </g>
     </g>
    </g>
    <g id="ytick_5">
     <g id="line2d_11">
      <g>
       <use style="stroke:#000000;stroke-width:0.8;" x="72" xlink:href="#m5f7242f3e2" y="104.972727"/>
      </g>
     </g>
     <g id="text_12">
      <!-- 0.8 -->
      <g transform="translate(49.096875 108.771946)scale(0.1 -0.1)">
       <use xlink:href="#DejaVuSans-30"/>
       <use x="63.623047" xlink:href="#DejaVuSans-2e"/>
       <use x="95.410156" xlink:href="#DejaVuSans-38"/>
      </g>
     </g>
    </g>
    <g id="ytick_6">
     <g id="line2d_12">
      <g>
       <use style="stroke:#000000;stroke-width:0.8;" x="72" xlink:href="#m5f7242f3e2" y="55.554545"/>
      </g>
     </g>
     <g id="text_13">
      <!-- 1.0 -->
      <g transform="translate(49.096875 59.353764)scale(0.1 -0.1)">
       <use xlink:href="#DejaVuSans-31"/>
       <use x="63.623047" xlink:href="#DejaVuSans-2e"/>
       <use x="95.410156" xlink:href="#DejaVuSans-30"/>
      </g>
     </g>
    </g>
    <g id="text_14">
     <!-- True positive rate -->
     <g transform="translate(43.017187 222.664062)rotate(-90)scale(0.1 -0.1)">
      <defs>
       <path d="M -19 4666 
L 3928 4666 
L 3928 4134 
L 2272 4134 
L 2272 0 
L 1638 0 
L 1638 4134 
L -19 4134 
L -19 4666 
z
" id="DejaVuSans-54" transform="scale(0.015625)"/>
       <path d="M 544 1381 
L 544 3500 
L 1119 3500 
L 1119 1403 
Q 1119 906 1312 657 
Q 1506 409 1894 409 
Q 2359 409 2629 706 
Q 2900 1003 2900 1516 
L 2900 3500 
L 3475 3500 
L 3475 0 
L 2900 0 
L 2900 538 
Q 2691 219 2414 64 
Q 2138 -91 1772 -91 
Q 1169 -91 856 284 
Q 544 659 544 1381 
z
M 1991 3584 
L 1991 3584 
z
" id="DejaVuSans-75" transform="scale(0.015625)"/>
      </defs>
      <use xlink:href="#DejaVuSans-54"/>
      <use x="46.333984" xlink:href="#DejaVuSans-72"/>
      <use x="87.447266" xlink:href="#DejaVuSans-75"/>
      <use x="150.826172" xlink:href="#DejaVuSans-65"/>
      <use x="212.349609" xlink:href="#DejaVuSans-20"/>
      <use x="244.136719" xlink:href="#DejaVuSans-70"/>
      <use x="307.613281" xlink:href="#DejaVuSans-6f"/>
      <use x="368.794922" xlink:href="#DejaVuSans-73"/>
      <use x="420.894531" xlink:href="#DejaVuSans-69"/>
      <use x="448.677734" xlink:href="#DejaVuSans-74"/>
      <use x="487.886719" xlink:href="#DejaVuSans-69"/>
      <use x="515.669922" xlink:href="#DejaVuSans-76"/>
      <use x="574.849609" xlink:href="#DejaVuSans-65"/>
      <use x="636.373047" xlink:href="#DejaVuSans-20"/>
      <use x="668.160156" xlink:href="#DejaVuSans-72"/>
      <use x="709.273438" xlink:href="#DejaVuSans-61"/>
      <use x="770.552734" xlink:href="#DejaVuSans-74"/>
      <use x="809.761719" xlink:href="#DejaVuSans-65"/>
     </g>
    </g>
   </g>
   <g id="line2d_13">
    <path clip-path="url(#p5e2dd58e56)" d="M 92.290909 302.645455 
L 92.544911 302.645455 
L 92.659931 301.947458 
L 92.73661 301.947458 
L 92.880385 300.900462 
L 93.124802 300.900462 
L 93.239821 300.551464 
L 93.268576 300.551464 
L 93.402766 300.202465 
L 93.426728 300.202465 
L 93.560918 299.504468 
L 93.819712 298.806471 
L 94.260621 298.806471 
L 94.342093 298.457473 
L 94.461906 298.457473 
L 94.648813 296.712481 
L 94.725492 296.712481 
L 94.893229 296.014484 
L 95.003457 296.014484 
L 95.171194 295.316487 
L 95.238288 295.316487 
L 95.37727 293.222496 
L 95.39644 293.222496 
L 95.51146 292.873498 
L 95.707952 292.873498 
L 95.914029 292.175501 
L 96.120106 291.826502 
L 96.3789 291.826502 
L 96.479542 291.477504 
L 96.561015 291.477504 
L 96.757507 290.430508 
L 96.800639 290.430508 
L 96.834186 290.08151 
L 97.040263 289.732512 
L 97.160075 289.732512 
L 97.34219 287.638521 
L 97.47638 287.638521 
L 97.644117 286.591525 
L 98.008346 286.591525 
L 98.156913 285.893529 
L 98.26714 285.54453 
L 98.329442 285.54453 
L 98.554689 284.148536 
L 98.636161 284.148536 
L 98.732011 283.799538 
L 99.024353 283.799538 
L 99.163335 283.450539 
L 99.23043 283.450539 
L 99.378997 283.101541 
L 99.417337 283.101541 
L 99.565904 282.054545 
L 99.743226 282.054545 
L 99.997228 280.658552 
L 100.141002 280.658552 
L 100.212889 280.309553 
L 100.524401 280.309553 
L 100.625043 279.611556 
L 101.037197 279.611556 
L 101.147424 279.262558 
L 101.411011 279.262558 
L 101.497276 278.913559 
L 101.760863 278.215562 
L 101.87109 278.215562 
L 102.125092 276.819569 
L 102.187394 276.819569 
L 102.316791 276.121572 
L 102.479736 275.074576 
L 102.66185 275.074576 
L 103.198609 274.027581 
L 103.342383 274.027581 
L 103.514913 272.282589 
L 103.75933 271.93359 
L 104.070841 271.93359 
L 104.123559 271.584592 
L 104.784922 268.443606 
L 104.861601 268.094607 
L 105.355228 268.094607 
L 105.561305 267.39661 
L 105.767381 267.39661 
L 105.863231 267.047612 
L 106.021383 267.047612 
L 106.122025 266.698613 
L 106.24663 266.698613 
L 106.376027 266.349615 
L 106.682746 266.349615 
L 106.821729 265.651618 
L 106.860068 265.651618 
L 106.979881 265.302619 
L 107.166788 265.302619 
L 107.243467 264.953621 
L 107.425582 264.604622 
L 107.703546 264.604622 
L 107.842528 263.906626 
L 107.94317 263.906626 
L 108.479929 261.463636 
L 108.523061 261.463636 
L 108.872913 260.416641 
L 109.424049 260.416641 
L 109.424049 260.067643 
L 109.462389 260.067643 
L 109.706805 259.369646 
L 109.884127 257.973652 
L 111.082249 257.973652 
L 111.221231 257.275655 
L 111.503988 257.275655 
L 111.518365 256.926656 
L 111.786745 256.926656 
L 111.853839 256.228659 
L 112.069501 256.228659 
L 112.194106 255.879661 
L 112.486448 255.879661 
L 112.668562 255.181664 
L 112.687732 255.181664 
L 112.989659 254.134669 
L 113.095093 254.134669 
L 113.095093 253.78567 
L 113.200528 253.78567 
L 113.219698 253.78567 
L 113.368265 252.738675 
L 113.536002 252.738675 
L 113.775627 252.389676 
L 113.905024 251.69168 
L 114.451367 251.69168 
L 114.575972 251.342681 
L 114.738916 251.342681 
L 114.858729 250.993683 
L 114.940201 250.993683 
L 115.184618 250.644684 
L 115.467374 250.644684 
L 115.572809 250.295686 
L 115.711791 250.295686 
L 115.802848 249.946687 
L 115.860358 249.946687 
L 116.023303 247.852696 
L 116.186247 247.852696 
L 116.464212 246.805701 
L 116.507344 246.805701 
L 116.94346 245.409707 
L 117.384369 245.409707 
L 117.676711 244.71171 
L 117.700673 244.71171 
L 117.719843 244.362712 
L 118.02177 244.362712 
L 118.07928 244.013713 
L 118.285357 244.013713 
L 118.414754 243.664715 
L 118.601661 243.664715 
L 118.81253 242.61772 
L 118.941927 242.61772 
L 118.956305 242.268721 
L 119.339704 241.570724 
L 119.651215 240.523729 
L 119.953142 240.17473 
L 119.972312 240.17473 
L 120.020237 239.825732 
L 120.571373 239.825732 
L 120.815789 239.476733 
L 120.964357 239.476733 
L 121.060206 238.778737 
L 121.37651 238.429738 
L 121.553832 238.429738 
L 121.68323 237.382743 
L 122.066628 237.382743 
L 122.402103 237.033744 
L 122.871766 237.033744 
L 123.010748 236.335747 
L 123.183278 236.335747 
L 123.32226 235.986749 
L 123.705659 235.986749 
L 124.103435 234.590755 
L 124.860648 234.590755 
L 124.894196 233.892758 
L 125.129027 233.54376 
L 125.291972 233.54376 
L 125.368652 233.194761 
L 125.617861 232.496764 
L 125.857485 232.496764 
L 125.991675 232.147766 
L 126.106695 232.147766 
L 126.327149 231.798767 
L 126.806398 231.798767 
L 126.897455 231.449769 
L 127.069984 231.449769 
L 127.189797 231.10077 
L 127.271269 231.10077 
L 127.65946 230.053775 
L 128.071614 230.053775 
L 128.181841 229.704777 
L 128.536485 229.704777 
L 128.613165 229.00678 
L 128.723392 229.00678 
L 128.77611 228.657781 
L 129.006149 228.657781 
L 129.193056 228.308783 
L 129.542908 227.959784 
L 129.56687 227.959784 
L 129.777739 227.261787 
L 129.878382 227.261787 
L 130.103629 226.912789 
L 130.367215 226.912789 
L 130.47265 226.56379 
L 130.573292 226.56379 
L 130.760199 226.214792 
L 130.856049 225.865794 
L 131.014201 225.865794 
L 131.517412 224.120801 
L 131.828924 224.120801 
L 131.977491 223.771803 
L 132.054171 223.771803 
L 132.068548 223.422804 
L 132.696364 223.422804 
L 132.816176 223.073806 
L 132.835346 223.073806 
L 132.955158 222.724807 
L 133.515879 222.724807 
L 133.582974 222.375809 
L 133.817806 222.375809 
L 134.15328 222.02681 
L 134.340187 222.02681 
L 134.570226 221.677812 
L 134.991965 221.677812 
L 135.255552 220.630817 
L 135.86899 220.630817 
L 135.86899 220.281818 
L 135.892952 220.281818 
L 136.127784 220.281818 
L 136.218841 219.93282 
L 137.182131 219.93282 
L 137.311528 219.583821 
L 137.977684 219.583821 
L 138.370668 218.885824 
L 139.171013 217.838829 
L 139.228523 217.838829 
L 139.295618 217.489831 
L 139.58796 216.791834 
L 140.254115 216.791834 
L 140.41706 215.39584 
L 141.107178 215.39584 
L 141.596011 214.697843 
L 141.864391 214.697843 
L 141.864391 214.348844 
L 141.955448 214.348844 
L 142.065675 214.348844 
L 142.080053 213.999846 
L 142.353224 213.650847 
L 143.03855 213.650847 
L 143.493836 212.952851 
L 143.513006 212.952851 
L 143.819725 212.603852 
L 143.920367 212.603852 
L 143.977877 212.254854 
L 144.308559 212.254854 
L 144.433163 211.905855 
L 145.516265 211.905855 
L 145.693587 211.207858 
L 145.73672 211.207858 
L 146.148874 210.509861 
L 146.230346 210.509861 
L 146.46997 210.160863 
L 146.930049 210.160863 
L 147.078616 209.811864 
L 147.193636 209.811864 
L 147.639337 209.113867 
L 147.850206 209.113867 
L 148.118586 208.764869 
L 148.367795 208.764869 
L 148.688892 208.415871 
L 148.827874 207.717874 
L 149.494029 207.717874 
L 149.676144 207.019877 
L 150.01641 207.019877 
L 150.107468 206.670878 
L 150.313545 206.32188 
L 150.696944 205.972881 
L 151.1714 205.972881 
L 151.296004 205.623883 
L 151.363099 205.623883 
L 151.415816 205.274884 
L 151.660233 205.274884 
L 151.799215 204.576888 
L 152.062802 204.576888 
L 152.369521 204.227889 
L 152.441409 203.878891 
L 152.704995 203.878891 
L 152.997337 203.529892 
L 153.653908 203.529892 
L 153.668285 203.180894 
L 153.83123 203.180894 
L 153.927079 202.831895 
L 154.248176 202.831895 
L 154.454253 201.7849 
L 154.6795 201.7849 
L 154.79452 201.435901 
L 154.957464 201.435901 
L 155.067691 201.086903 
L 155.360033 201.086903 
L 155.494223 200.737904 
L 155.594865 200.737904 
L 155.891999 200.039908 
L 156.040566 200.039908 
L 156.107661 199.690909 
L 156.380833 199.690909 
L 156.438342 199.341911 
L 156.562947 199.341911 
L 156.596495 198.992912 
L 157.209933 198.992912 
L 157.420802 197.945917 
L 157.823371 197.945917 
L 158.34096 196.898921 
L 158.441602 196.898921 
L 158.777076 196.549923 
L 158.887303 196.200924 
L 158.992738 195.851926 
L 159.069418 195.851926 
L 159.083795 195.502928 
L 159.438439 195.153929 
L 160.679693 195.153929 
L 160.80909 194.106934 
L 161.542341 194.106934 
L 161.556718 193.757935 
L 161.805927 193.408937 
L 162.012004 192.71094 
L 162.654198 192.71094 
L 163.013634 192.361941 
L 163.157409 192.361941 
L 163.540808 191.663945 
L 163.559978 191.663945 
L 163.71813 191.314946 
L 164.034434 190.965948 
L 164.154246 190.965948 
L 164.206963 190.616949 
L 164.556815 189.918952 
L 164.700589 189.918952 
L 164.834779 189.569954 
L 165.429047 189.569954 
L 165.812446 188.17396 
L 166.627169 188.17396 
L 166.679886 187.824961 
L 166.948266 187.824961 
L 167.326872 187.126965 
L 167.782158 187.126965 
L 168.136802 186.079969 
L 168.822128 186.079969 
L 168.985072 185.730971 
L 169.138432 185.730971 
L 169.320546 185.381972 
L 169.411604 184.683975 
L 169.665606 184.683975 
L 170.077759 183.985978 
L 170.164024 183.985978 
L 170.513876 183.287982 
L 170.590555 182.938983 
L 171.079389 181.891988 
L 171.170446 181.542989 
L 171.649695 181.542989 
L 171.711997 181.193991 
L 171.946829 181.193991 
L 172.018716 180.844992 
L 172.315851 180.146995 
L 172.46921 180.146995 
L 172.483588 179.797997 
L 172.804684 179.1 
L 172.852609 179.1 
L 172.953251 178.751002 
L 173.283933 178.053005 
L 173.442085 178.053005 
L 173.475632 177.704006 
L 174.347865 177.704006 
L 174.51081 177.355008 
L 176.09233 177.355008 
L 176.274445 176.657011 
L 176.653051 175.959014 
L 177.156262 175.959014 
L 177.645096 175.261017 
L 177.731361 175.261017 
L 177.832003 174.912018 
L 178.004532 174.56302 
L 178.109967 174.214022 
L 178.201024 174.214022 
L 178.426271 173.865023 
L 178.488573 173.865023 
L 178.88635 173.167026 
L 179.049294 172.818028 
L 179.494996 172.469029 
L 179.691488 172.469029 
L 179.940697 172.120031 
L 180.242623 172.120031 
L 180.276171 171.771032 
L 180.712287 170.724037 
L 180.937534 170.724037 
L 181.052554 170.375039 
L 181.45033 170.375039 
L 181.522217 170.02604 
L 181.675577 170.02604 
L 181.728294 169.677042 
L 182.164411 168.979045 
L 182.538225 168.979045 
L 182.931208 167.932049 
L 184.023895 167.932049 
L 184.134123 167.583051 
L 184.402502 167.234052 
L 185.145337 167.234052 
L 185.547906 166.536055 
L 185.619793 166.536055 
L 185.777946 166.187057 
L 186.09425 165.48906 
L 186.880217 165.48906 
L 187.139012 164.442065 
L 187.378636 164.442065 
L 187.757243 163.046071 
L 188.878684 163.046071 
L 189.036836 162.348074 
L 189.056006 162.348074 
L 189.415443 161.999076 
L 189.976164 161.999076 
L 190.091183 161.650077 
L 191.735006 161.650077 
L 191.854819 161.301079 
L 191.950668 161.301079 
L 192.228633 159.905085 
L 193.814946 159.905085 
L 193.968305 159.556086 
L 194.744688 159.556086 
L 194.969935 159.207088 
L 196.235151 159.207088 
L 196.700023 158.858089 
L 196.719192 158.858089 
L 197.040289 157.811094 
L 197.366178 156.066102 
L 197.433273 156.066102 
L 197.557878 155.717103 
L 198.099429 155.717103 
L 198.406148 154.670108 
L 198.636187 154.670108 
L 198.760792 154.321109 
L 199.25921 153.972111 
L 199.302343 153.972111 
L 199.575515 153.274114 
L 201.612321 153.274114 
L 201.808813 152.925116 
L 201.871116 152.576117 
L 202.067608 152.576117 
L 202.173042 152.227119 
L 202.465384 151.180123 
L 202.522894 151.180123 
L 202.642706 150.831125 
L 202.772103 150.482126 
L 202.982973 150.133128 
L 203.457429 147.690139 
L 205.604463 147.690139 
L 206.074126 147.34114 
L 207.291418 147.34114 
L 207.416023 146.992142 
L 207.722742 146.992142 
L 207.756289 146.643143 
L 208.312218 146.643143 
L 208.743541 146.294145 
L 209.654114 146.294145 
L 210.003965 145.247149 
L 210.751593 145.247149 
L 211.144577 144.898151 
L 211.18771 144.898151 
L 211.226049 144.549153 
L 211.417749 144.549153 
L 211.729261 144.200154 
L 212.304359 144.200154 
L 212.385831 143.851156 
L 213.277234 143.851156 
L 213.363499 143.502157 
L 213.473726 143.502157 
L 213.622293 142.455162 
L 213.684595 142.455162 
L 213.737312 142.106163 
L 214.020069 141.757165 
L 214.326788 141.757165 
L 214.417846 141.408166 
L 214.75332 140.710169 
L 215.860384 140.710169 
L 215.908309 140.361171 
L 216.286915 139.663174 
L 218.769423 139.663174 
L 218.961123 138.965177 
L 219.358899 138.965177 
L 219.464334 138.616179 
L 219.632071 138.26718 
L 219.694373 138.26718 
L 220.025055 137.569183 
L 220.854155 137.569183 
L 220.930835 137.220185 
L 222.186466 137.220185 
L 222.287109 136.871186 
L 222.445261 136.871186 
L 222.914924 136.522188 
L 223.183304 136.522188 
L 223.48523 135.824191 
L 223.576287 135.824191 
L 223.648175 135.475193 
L 223.863837 135.475193 
L 224.31433 135.126194 
L 224.975694 135.126194 
L 225.167393 134.428197 
L 226.111513 134.428197 
L 226.538044 134.079199 
L 226.724951 134.079199 
L 226.916651 133.7302 
L 226.974161 133.7302 
L 227.285672 133.381202 
L 227.453409 132.683205 
L 227.999753 132.683205 
L 228.095602 132.334206 
L 228.325642 132.334206 
L 228.694663 131.985208 
L 229.495008 131.985208 
L 230.046144 131.63621 
L 230.525393 131.63621 
L 230.645205 131.287211 
L 230.73147 131.287211 
L 231.335323 130.938213 
L 231.354493 130.938213 
L 231.531815 130.589214 
L 231.872082 130.589214 
L 231.991894 130.240216 
L 232.67722 130.240216 
L 232.773069 129.891217 
L 233.046241 129.891217 
L 233.166053 129.542219 
L 233.439225 129.542219 
L 233.52549 129.19322 
L 233.702812 129.19322 
L 233.846586 128.844222 
L 234.244363 128.495223 
L 234.939273 128.495223 
L 235.092633 127.797227 
L 235.361012 127.797227 
L 235.672524 127.448228 
L 235.878601 127.448228 
L 236.420152 126.401233 
L 237.03359 126.401233 
L 237.081515 126.052234 
L 237.297177 126.052234 
L 237.603896 125.703236 
L 237.886653 125.703236 
L 238.265259 125.005239 
L 238.437788 125.005239 
L 238.567186 124.65624 
L 239.290851 124.65624 
L 239.631118 124.307242 
L 240.69505 124.307242 
L 240.982599 123.260247 
L 241.078449 122.911248 
L 242.717479 122.911248 
L 242.822914 122.56225 
L 242.942726 122.56225 
L 243.211105 122.213251 
L 243.29737 121.864253 
L 243.460314 121.864253 
L 243.838921 121.166256 
L 243.915601 121.166256 
L 244.08813 120.817257 
L 244.854928 120.817257 
L 244.95557 120.468259 
L 245.487536 120.468259 
L 245.569009 120.11926 
L 246.340599 120.11926 
L 246.498751 119.421263 
L 246.99717 119.421263 
L 247.093019 119.072265 
L 247.6154 118.02527 
L 248.017969 118.02527 
L 248.123404 117.676271 
L 248.75122 117.676271 
L 249.048354 117.327273 
L 249.666585 117.327273 
L 249.810359 116.978274 
L 250.083531 116.978274 
L 250.529232 116.629276 
L 251.808826 116.629276 
L 251.971771 116.280277 
L 252.115545 116.280277 
L 252.211395 115.58228 
L 252.575624 114.535285 
L 254.229032 114.535285 
L 254.593261 114.186287 
L 255.407984 114.186287 
L 255.76742 113.48829 
L 256.074139 113.48829 
L 256.495878 113.139291 
L 256.898447 113.139291 
L 257.118901 112.790293 
L 258.269098 112.790293 
L 258.475175 112.092296 
L 258.801064 111.743297 
L 259.050273 111.743297 
L 259.443257 111.394299 
L 259.519937 111.394299 
L 259.639749 110.696302 
L 259.754769 109.998305 
L 260.550322 109.998305 
L 260.785154 109.300308 
L 261.777198 109.300308 
L 262.098295 108.602311 
L 262.155805 108.602311 
L 262.237277 108.253313 
L 262.553581 108.253313 
L 262.706941 107.555316 
L 262.8603 107.555316 
L 262.913018 107.206317 
L 264.005705 107.206317 
L 264.096762 106.857319 
L 264.460991 106.857319 
L 264.542463 106.50832 
L 264.705408 106.50832 
L 264.820427 106.159322 
L 265.103184 106.159322 
L 265.218204 105.810324 
L 265.328431 105.810324 
L 265.754962 105.461325 
L 265.975417 105.461325 
L 266.488213 104.763328 
L 267.245426 104.763328 
L 267.652787 104.41433 
L 267.729467 104.41433 
L 267.935544 103.716333 
L 269.924426 103.716333 
L 269.986728 103.367334 
L 271.74557 103.367334 
L 271.870175 103.018336 
L 272.023535 103.018336 
L 272.076252 102.669337 
L 272.397349 102.320339 
L 272.934107 102.320339 
L 273.077882 101.971341 
L 273.648188 101.971341 
L 273.926152 101.622342 
L 274.041172 101.622342 
L 274.247249 101.273344 
L 274.5971 100.924345 
L 274.831932 100.924345 
L 275.191368 100.575347 
L 275.325558 100.226348 
L 275.962959 100.226348 
L 276.097148 99.528351 
L 276.677039 99.528351 
L 276.796851 99.179353 
L 277.338402 99.179353 
L 277.678669 98.481356 
L 278.16271 98.481356 
L 278.344825 98.132357 
L 279.638796 98.132357 
L 279.84008 97.783359 
L 280.233064 97.434361 
L 280.525406 97.434361 
L 280.913597 96.736364 
L 280.980692 96.736364 
L 281.191562 96.387365 
L 281.704358 96.387365 
L 281.987114 96.038367 
L 282.279456 96.038367 
L 282.78746 95.689368 
L 283.932864 95.689368 
L 284.076639 95.34037 
L 285.384987 95.34037 
L 285.562309 94.991371 
L 289.123127 94.991371 
L 289.487356 94.642373 
L 290.776535 94.642373 
L 290.776535 94.293374 
L 291.159934 94.293374 
L 291.212651 93.944376 
L 292.286168 93.944376 
L 292.434735 93.595378 
L 293.345308 93.595378 
L 293.513045 93.246379 
L 293.537007 92.199384 
L 293.814971 92.199384 
L 293.858104 91.850385 
L 295.31502 91.850385 
L 295.866156 91.501387 
L 296.019515 91.501387 
L 296.359782 91.152388 
L 296.489179 91.152388 
L 296.81986 90.80339 
L 296.891748 90.80339 
L 297.001975 90.454391 
L 297.538733 90.454391 
L 297.869415 89.756394 
L 298.133002 89.756394 
L 298.190512 89.407396 
L 298.68893 89.407396 
L 298.866252 89.058398 
L 299.580333 89.058398 
L 300.558 87.662404 
L 301.468572 87.662404 
L 301.607555 87.313405 
L 302.086803 87.313405 
L 302.177861 86.964407 
L 303.227415 86.964407 
L 303.385567 86.615408 
L 303.893571 86.615408 
L 303.984628 86.26641 
L 306.289814 86.26641 
L 306.371286 85.917411 
L 306.630081 85.917411 
L 306.730723 85.568413 
L 307.047027 85.568413 
L 307.339369 85.219414 
L 307.588578 85.219414 
L 308.106166 84.521418 
L 309.57746 84.521418 
L 309.639762 84.172419 
L 311.321925 84.172419 
L 311.513624 83.823421 
L 312.270837 83.823421 
L 312.582349 83.125424 
L 314.432249 83.125424 
L 314.446626 82.776425 
L 316.718265 82.776425 
L 316.737435 82.427427 
L 317.887632 82.427427 
L 318.127256 82.078428 
L 319.263075 82.078428 
L 319.593757 81.72943 
L 320.724784 81.72943 
L 320.806256 81.380431 
L 321.060258 81.380431 
L 321.060258 81.031433 
L 321.117768 81.031433 
L 321.414902 81.031433 
L 321.827056 80.333436 
L 324.113072 80.333436 
L 324.414998 79.984438 
L 324.539603 79.984438 
L 324.635453 79.635439 
L 325.181796 79.635439 
L 325.200966 79.286441 
L 327.587625 79.286441 
L 327.947061 78.588444 
L 328.512574 78.588444 
L 328.661142 78.239445 
L 328.790539 78.239445 
L 329.054125 77.890447 
L 330.324134 77.890447 
L 330.650024 77.541448 
L 330.693156 77.541448 
L 330.717118 76.843451 
L 333.482383 76.843451 
L 333.817857 76.494453 
L 334.829072 76.494453 
L 335.102244 76.145455 
L 335.226848 76.145455 
L 335.605455 75.796456 
L 336.377045 75.796456 
L 336.645424 75.098459 
L 337.076748 75.098459 
L 337.172598 74.749461 
L 338.802043 74.749461 
L 338.907478 74.400462 
L 338.974573 74.400462 
L 339.425067 73.702465 
L 340.431489 73.702465 
L 340.469829 73.353467 
L 341.279759 73.353467 
L 341.461873 73.004468 
L 342.353276 73.004468 
L 342.434748 72.65547 
L 344.313403 72.65547 
L 344.739934 71.608475 
L 344.797444 71.259476 
L 345.21439 71.259476 
L 345.477977 70.910478 
L 346.297492 70.910478 
L 346.398135 70.561479 
L 348.387016 70.561479 
L 348.458904 70.212481 
L 348.871058 69.863482 
L 349.110682 69.863482 
L 349.268834 69.514484 
L 350.543635 69.514484 
L 350.864732 69.165485 
L 351.080394 69.165485 
L 351.181036 68.816487 
L 352.44146 68.816487 
L 352.527725 68.467488 
L 352.724217 68.467488 
L 352.738594 68.11849 
L 355.628464 68.11849 
L 355.844126 67.769492 
L 358.479993 67.769492 
L 358.537503 67.420493 
L 359.126979 67.420493 
L 359.285131 67.071495 
L 359.773965 67.071495 
L 360.095061 66.722496 
L 360.142986 66.373498 
L 360.334686 66.373498 
L 360.674952 66.024499 
L 363.636709 66.024499 
L 363.655879 65.675501 
L 364.940265 65.675501 
L 365.146342 65.326502 
L 367.959532 65.326502 
L 368.017042 64.977504 
L 368.525045 64.977504 
L 368.721537 64.628505 
L 373.06353 64.628505 
L 373.442137 63.930508 
L 375.383094 63.930508 
L 375.766493 63.58151 
L 375.847965 63.58151 
L 376.260119 63.232512 
L 376.456611 63.232512 
L 376.792085 62.883513 
L 380.391242 62.883513 
L 380.947171 62.534515 
L 385.528788 62.534515 
L 385.653392 62.185516 
L 389.295682 62.185516 
L 389.645534 61.836518 
L 397.418947 61.836518 
L 397.500419 61.487519 
L 398.104273 61.487519 
L 398.276802 61.138521 
L 399.326357 61.138521 
L 399.594736 60.789522 
L 400.327986 60.789522 
L 400.562818 60.091525 
L 403.040534 60.091525 
L 403.395178 59.742527 
L 405.551797 59.742527 
L 405.642854 59.393529 
L 406.620521 59.393529 
L 406.716371 59.04453 
L 410.732475 59.04453 
L 410.789985 58.695532 
L 417.192747 58.695532 
L 417.274219 58.346533 
L 425.886318 58.346533 
L 426.0253 57.997535 
L 427.256969 57.997535 
L 427.400743 57.648536 
L 430.252273 57.648536 
L 430.908844 57.299538 
L 440.757404 57.299538 
L 441.227067 56.950539 
L 446.49401 56.950539 
L 447.011599 56.601541 
L 456.481552 56.601541 
L 457.435257 56.252542 
L 461.508871 56.252542 
L 461.60472 55.903544 
L 466.818946 55.903544 
L 468.592166 55.554545 
L 498.109091 55.554545 
L 498.109091 55.554545 
" style="fill:none;stroke:#2b667c;stroke-linecap:square;stroke-width:1.5;"/>
   </g>
   <g id="line2d_14">
    <path clip-path="url(#p5e2dd58e56)" d="M 92.290909 302.645455 
L 498.109091 55.554545 
" style="fill:none;stroke:#ff0000;stroke-linecap:square;stroke-width:1.5;"/>
   </g>
   <g id="patch_3">
    <path d="M 72 315 
L 72 43.2 
" style="fill:none;stroke:#000000;stroke-linecap:square;stroke-linejoin:miter;stroke-width:0.8;"/>
   </g>
   <g id="patch_4">
    <path d="M 518.4 315 
L 518.4 43.2 
" style="fill:none;stroke:#000000;stroke-linecap:square;stroke-linejoin:miter;stroke-width:0.8;"/>
   </g>
   <g id="patch_5">
    <path d="M 72 315 
L 518.4 315 
" style="fill:none;stroke:#000000;stroke-linecap:square;stroke-linejoin:miter;stroke-width:0.8;"/>
   </g>
   <g id="patch_6">
    <path d="M 72 43.2 
L 518.4 43.2 
" style="fill:none;stroke:#000000;stroke-linecap:square;stroke-linejoin:miter;stroke-width:0.8;"/>
   </g>
   <g id="text_15">
    <!-- GUSTAVO A. MADERO -->
    <g transform="translate(252.00125 37.2)scale(0.08 -0.08)">
     <defs>
      <path d="M 3809 666 
L 3809 1919 
L 2778 1919 
L 2778 2438 
L 4434 2438 
L 4434 434 
Q 4069 175 3628 42 
Q 3188 -91 2688 -91 
Q 1594 -91 976 548 
Q 359 1188 359 2328 
Q 359 3472 976 4111 
Q 1594 4750 2688 4750 
Q 3144 4750 3555 4637 
Q 3966 4525 4313 4306 
L 4313 3634 
Q 3963 3931 3569 4081 
Q 3175 4231 2741 4231 
Q 1884 4231 1454 3753 
Q 1025 3275 1025 2328 
Q 1025 1384 1454 906 
Q 1884 428 2741 428 
Q 3075 428 3337 486 
Q 3600 544 3809 666 
z
" id="DejaVuSans-47" transform="scale(0.015625)"/>
      <path d="M 556 4666 
L 1191 4666 
L 1191 1831 
Q 1191 1081 1462 751 
Q 1734 422 2344 422 
Q 2950 422 3222 751 
Q 3494 1081 3494 1831 
L 3494 4666 
L 4128 4666 
L 4128 1753 
Q 4128 841 3676 375 
Q 3225 -91 2344 -91 
Q 1459 -91 1007 375 
Q 556 841 556 1753 
L 556 4666 
z
" id="DejaVuSans-55" transform="scale(0.015625)"/>
      <path d="M 3425 4513 
L 3425 3897 
Q 3066 4069 2747 4153 
Q 2428 4238 2131 4238 
Q 1616 4238 1336 4038 
Q 1056 3838 1056 3469 
Q 1056 3159 1242 3001 
Q 1428 2844 1947 2747 
L 2328 2669 
Q 3034 2534 3370 2195 
Q 3706 1856 3706 1288 
Q 3706 609 3251 259 
Q 2797 -91 1919 -91 
Q 1588 -91 1214 -16 
Q 841 59 441 206 
L 441 856 
Q 825 641 1194 531 
Q 1563 422 1919 422 
Q 2459 422 2753 634 
Q 3047 847 3047 1241 
Q 3047 1584 2836 1778 
Q 2625 1972 2144 2069 
L 1759 2144 
Q 1053 2284 737 2584 
Q 422 2884 422 3419 
Q 422 4038 858 4394 
Q 1294 4750 2059 4750 
Q 2388 4750 2728 4690 
Q 3069 4631 3425 4513 
z
" id="DejaVuSans-53" transform="scale(0.015625)"/>
      <path d="M 2188 4044 
L 1331 1722 
L 3047 1722 
L 2188 4044 
z
M 1831 4666 
L 2547 4666 
L 4325 0 
L 3669 0 
L 3244 1197 
L 1141 1197 
L 716 0 
L 50 0 
L 1831 4666 
z
" id="DejaVuSans-41" transform="scale(0.015625)"/>
      <path d="M 1831 0 
L 50 4666 
L 709 4666 
L 2188 738 
L 3669 4666 
L 4325 4666 
L 2547 0 
L 1831 0 
z
" id="DejaVuSans-56" transform="scale(0.015625)"/>
      <path d="M 2522 4238 
Q 1834 4238 1429 3725 
Q 1025 3213 1025 2328 
Q 1025 1447 1429 934 
Q 1834 422 2522 422 
Q 3209 422 3611 934 
Q 4013 1447 4013 2328 
Q 4013 3213 3611 3725 
Q 3209 4238 2522 4238 
z
M 2522 4750 
Q 3503 4750 4090 4092 
Q 4678 3434 4678 2328 
Q 4678 1225 4090 567 
Q 3503 -91 2522 -91 
Q 1538 -91 948 565 
Q 359 1222 359 2328 
Q 359 3434 948 4092 
Q 1538 4750 2522 4750 
z
" id="DejaVuSans-4f" transform="scale(0.015625)"/>
      <path d="M 628 4666 
L 1569 4666 
L 2759 1491 
L 3956 4666 
L 4897 4666 
L 4897 0 
L 4281 0 
L 4281 4097 
L 3078 897 
L 2444 897 
L 1241 4097 
L 1241 0 
L 628 0 
L 628 4666 
z
" id="DejaVuSans-4d" transform="scale(0.015625)"/>
      <path d="M 1259 4147 
L 1259 519 
L 2022 519 
Q 2988 519 3436 956 
Q 3884 1394 3884 2338 
Q 3884 3275 3436 3711 
Q 2988 4147 2022 4147 
L 1259 4147 
z
M 628 4666 
L 1925 4666 
Q 3281 4666 3915 4102 
Q 4550 3538 4550 2338 
Q 4550 1131 3912 565 
Q 3275 0 1925 0 
L 628 0 
L 628 4666 
z
" id="DejaVuSans-44" transform="scale(0.015625)"/>
      <path d="M 628 4666 
L 3578 4666 
L 3578 4134 
L 1259 4134 
L 1259 2753 
L 3481 2753 
L 3481 2222 
L 1259 2222 
L 1259 531 
L 3634 531 
L 3634 0 
L 628 0 
L 628 4666 
z
" id="DejaVuSans-45" transform="scale(0.015625)"/>
      <path d="M 2841 2188 
Q 3044 2119 3236 1894 
Q 3428 1669 3622 1275 
L 4263 0 
L 3584 0 
L 2988 1197 
Q 2756 1666 2539 1819 
Q 2322 1972 1947 1972 
L 1259 1972 
L 1259 0 
L 628 0 
L 628 4666 
L 2053 4666 
Q 2853 4666 3247 4331 
Q 3641 3997 3641 3322 
Q 3641 2881 3436 2590 
Q 3231 2300 2841 2188 
z
M 1259 4147 
L 1259 2491 
L 2053 2491 
Q 2509 2491 2742 2702 
Q 2975 2913 2975 3322 
Q 2975 3731 2742 3939 
Q 2509 4147 2053 4147 
L 1259 4147 
z
" id="DejaVuSans-52" transform="scale(0.015625)"/>
     </defs>
     <use xlink:href="#DejaVuSans-47"/>
     <use x="77.490234" xlink:href="#DejaVuSans-55"/>
     <use x="150.683594" xlink:href="#DejaVuSans-53"/>
     <use x="214.160156" xlink:href="#DejaVuSans-54"/>
     <use x="267.494141" xlink:href="#DejaVuSans-41"/>
     <use x="329.527344" xlink:href="#DejaVuSans-56"/>
     <use x="396.185547" xlink:href="#DejaVuSans-4f"/>
     <use x="474.896484" xlink:href="#DejaVuSans-20"/>
     <use x="506.683594" xlink:href="#DejaVuSans-41"/>
     <use x="573.341797" xlink:href="#DejaVuSans-2e"/>
     <use x="605.128906" xlink:href="#DejaVuSans-20"/>
     <use x="636.916016" xlink:href="#DejaVuSans-4d"/>
     <use x="723.195312" xlink:href="#DejaVuSans-41"/>
     <use x="791.603516" xlink:href="#DejaVuSans-44"/>
     <use x="868.605469" xlink:href="#DejaVuSans-45"/>
     <use x="931.789062" xlink:href="#DejaVuSans-52"/>
     <use x="1001.271484" xlink:href="#DejaVuSans-4f"/>
    </g>
   </g>
  </g>
  <g id="text_16">
   <!-- ROC Curve -->
   <g transform="translate(244.4125 19.3575)scale(0.16 -0.16)">
    <defs>
     <path d="M 4122 4306 
L 4122 3641 
Q 3803 3938 3442 4084 
Q 3081 4231 2675 4231 
Q 1875 4231 1450 3742 
Q 1025 3253 1025 2328 
Q 1025 1406 1450 917 
Q 1875 428 2675 428 
Q 3081 428 3442 575 
Q 3803 722 4122 1019 
L 4122 359 
Q 3791 134 3420 21 
Q 3050 -91 2638 -91 
Q 1578 -91 968 557 
Q 359 1206 359 2328 
Q 359 3453 968 4101 
Q 1578 4750 2638 4750 
Q 3056 4750 3426 4639 
Q 3797 4528 4122 4306 
z
" id="DejaVuSans-43" transform="scale(0.015625)"/>
    </defs>
    <use xlink:href="#DejaVuSans-52"/>
    <use x="69.482422" xlink:href="#DejaVuSans-4f"/>
    <use x="148.193359" xlink:href="#DejaVuSans-43"/>
    <use x="218.017578" xlink:href="#DejaVuSans-20"/>
    <use x="249.804688" xlink:href="#DejaVuSans-43"/>
    <use x="319.628906" xlink:href="#DejaVuSans-75"/>
    <use x="383.007812" xlink:href="#DejaVuSans-72"/>
    <use x="424.121094" xlink:href="#DejaVuSans-76"/>
    <use x="483.300781" xlink:href="#DejaVuSans-65"/>
   </g>
  </g>
 </g>
 <defs>
  <clipPath id="p5e2dd58e56">
   <rect height="271.8" width="446.4" x="72" y="43.2"/>
  </clipPath>
 </defs>
</svg>
