<?xml version="1.0" encoding="utf-8" standalone="no"?>
<!DOCTYPE svg PUBLIC "-//W3C//DTD SVG 1.1//EN"
  "http://www.w3.org/Graphics/SVG/1.1/DTD/svg11.dtd">
<svg height="360pt" version="1.1" viewBox="0 0 576 360" width="576pt" xmlns="http://www.w3.org/2000/svg" xmlns:xlink="http://www.w3.org/1999/xlink">
 <metadata>
  <rdf:RDF xmlns:cc="http://creativecommons.org/ns#" xmlns:dc="http://purl.org/dc/elements/1.1/" xmlns:rdf="http://www.w3.org/1999/02/22-rdf-syntax-ns#">
   <cc:Work>
    <dc:type rdf:resource="http://purl.org/dc/dcmitype/StillImage"/>
    <dc:date>2022-01-04T18:28:15.236443</dc:date>
    <dc:format>image/svg+xml</dc:format>
    <dc:creator>
     <cc:Agent>
      <dc:title>Matplotlib v3.4.3, https://matplotlib.org/</dc:title>
     </cc:Agent>
    </dc:creator>
   </cc:Work>
  </rdf:RDF>
 </metadata>
 <defs>
  <style type="text/css">*{stroke-linecap:butt;stroke-linejoin:round;}</style>
 </defs>
 <g id="figure_1">
  <g id="patch_1">
   <path d="M 0 360 
L 576 360 
L 576 0 
L 0 0 
z
" style="fill:none;"/>
  </g>
  <g id="axes_1">
   <g id="patch_2">
    <path d="M 72 315 
L 518.4 315 
L 518.4 43.2 
L 72 43.2 
z
" style="fill:#ffffff;"/>
   </g>
   <g id="matplotlib.axis_1">
    <g id="xtick_1">
     <g id="line2d_1">
      <defs>
       <path d="M 0 0 
L 0 3.5 
" id="me4ec0e8466" style="stroke:#000000;stroke-width:0.8;"/>
      </defs>
      <g>
       <use style="stroke:#000000;stroke-width:0.8;" x="92.290909" xlink:href="#me4ec0e8466" y="315"/>
      </g>
     </g>
     <g id="text_1">
      <!-- 0.0 -->
      <g transform="translate(84.339347 329.598437)scale(0.1 -0.1)">
       <defs>
        <path d="M 2034 4250 
Q 1547 4250 1301 3770 
Q 1056 3291 1056 2328 
Q 1056 1369 1301 889 
Q 1547 409 2034 409 
Q 2525 409 2770 889 
Q 3016 1369 3016 2328 
Q 3016 3291 2770 3770 
Q 2525 4250 2034 4250 
z
M 2034 4750 
Q 2819 4750 3233 4129 
Q 3647 3509 3647 2328 
Q 3647 1150 3233 529 
Q 2819 -91 2034 -91 
Q 1250 -91 836 529 
Q 422 1150 422 2328 
Q 422 3509 836 4129 
Q 1250 4750 2034 4750 
z
" id="DejaVuSans-30" transform="scale(0.015625)"/>
        <path d="M 684 794 
L 1344 794 
L 1344 0 
L 684 0 
L 684 794 
z
" id="DejaVuSans-2e" transform="scale(0.015625)"/>
       </defs>
       <use xlink:href="#DejaVuSans-30"/>
       <use x="63.623047" xlink:href="#DejaVuSans-2e"/>
       <use x="95.410156" xlink:href="#DejaVuSans-30"/>
      </g>
     </g>
    </g>
    <g id="xtick_2">
     <g id="line2d_2">
      <g>
       <use style="stroke:#000000;stroke-width:0.8;" x="173.454545" xlink:href="#me4ec0e8466" y="315"/>
      </g>
     </g>
     <g id="text_2">
      <!-- 0.2 -->
      <g transform="translate(165.502983 329.598437)scale(0.1 -0.1)">
       <defs>
        <path d="M 1228 531 
L 3431 531 
L 3431 0 
L 469 0 
L 469 531 
Q 828 903 1448 1529 
Q 2069 2156 2228 2338 
Q 2531 2678 2651 2914 
Q 2772 3150 2772 3378 
Q 2772 3750 2511 3984 
Q 2250 4219 1831 4219 
Q 1534 4219 1204 4116 
Q 875 4013 500 3803 
L 500 4441 
Q 881 4594 1212 4672 
Q 1544 4750 1819 4750 
Q 2544 4750 2975 4387 
Q 3406 4025 3406 3419 
Q 3406 3131 3298 2873 
Q 3191 2616 2906 2266 
Q 2828 2175 2409 1742 
Q 1991 1309 1228 531 
z
" id="DejaVuSans-32" transform="scale(0.015625)"/>
       </defs>
       <use xlink:href="#DejaVuSans-30"/>
       <use x="63.623047" xlink:href="#DejaVuSans-2e"/>
       <use x="95.410156" xlink:href="#DejaVuSans-32"/>
      </g>
     </g>
    </g>
    <g id="xtick_3">
     <g id="line2d_3">
      <g>
       <use style="stroke:#000000;stroke-width:0.8;" x="254.618182" xlink:href="#me4ec0e8466" y="315"/>
      </g>
     </g>
     <g id="text_3">
      <!-- 0.4 -->
      <g transform="translate(246.666619 329.598437)scale(0.1 -0.1)">
       <defs>
        <path d="M 2419 4116 
L 825 1625 
L 2419 1625 
L 2419 4116 
z
M 2253 4666 
L 3047 4666 
L 3047 1625 
L 3713 1625 
L 3713 1100 
L 3047 1100 
L 3047 0 
L 2419 0 
L 2419 1100 
L 313 1100 
L 313 1709 
L 2253 4666 
z
" id="DejaVuSans-34" transform="scale(0.015625)"/>
       </defs>
       <use xlink:href="#DejaVuSans-30"/>
       <use x="63.623047" xlink:href="#DejaVuSans-2e"/>
       <use x="95.410156" xlink:href="#DejaVuSans-34"/>
      </g>
     </g>
    </g>
    <g id="xtick_4">
     <g id="line2d_4">
      <g>
       <use style="stroke:#000000;stroke-width:0.8;" x="335.781818" xlink:href="#me4ec0e8466" y="315"/>
      </g>
     </g>
     <g id="text_4">
      <!-- 0.6 -->
      <g transform="translate(327.830256 329.598437)scale(0.1 -0.1)">
       <defs>
        <path d="M 2113 2584 
Q 1688 2584 1439 2293 
Q 1191 2003 1191 1497 
Q 1191 994 1439 701 
Q 1688 409 2113 409 
Q 2538 409 2786 701 
Q 3034 994 3034 1497 
Q 3034 2003 2786 2293 
Q 2538 2584 2113 2584 
z
M 3366 4563 
L 3366 3988 
Q 3128 4100 2886 4159 
Q 2644 4219 2406 4219 
Q 1781 4219 1451 3797 
Q 1122 3375 1075 2522 
Q 1259 2794 1537 2939 
Q 1816 3084 2150 3084 
Q 2853 3084 3261 2657 
Q 3669 2231 3669 1497 
Q 3669 778 3244 343 
Q 2819 -91 2113 -91 
Q 1303 -91 875 529 
Q 447 1150 447 2328 
Q 447 3434 972 4092 
Q 1497 4750 2381 4750 
Q 2619 4750 2861 4703 
Q 3103 4656 3366 4563 
z
" id="DejaVuSans-36" transform="scale(0.015625)"/>
       </defs>
       <use xlink:href="#DejaVuSans-30"/>
       <use x="63.623047" xlink:href="#DejaVuSans-2e"/>
       <use x="95.410156" xlink:href="#DejaVuSans-36"/>
      </g>
     </g>
    </g>
    <g id="xtick_5">
     <g id="line2d_5">
      <g>
       <use style="stroke:#000000;stroke-width:0.8;" x="416.945455" xlink:href="#me4ec0e8466" y="315"/>
      </g>
     </g>
     <g id="text_5">
      <!-- 0.8 -->
      <g transform="translate(408.993892 329.598437)scale(0.1 -0.1)">
       <defs>
        <path d="M 2034 2216 
Q 1584 2216 1326 1975 
Q 1069 1734 1069 1313 
Q 1069 891 1326 650 
Q 1584 409 2034 409 
Q 2484 409 2743 651 
Q 3003 894 3003 1313 
Q 3003 1734 2745 1975 
Q 2488 2216 2034 2216 
z
M 1403 2484 
Q 997 2584 770 2862 
Q 544 3141 544 3541 
Q 544 4100 942 4425 
Q 1341 4750 2034 4750 
Q 2731 4750 3128 4425 
Q 3525 4100 3525 3541 
Q 3525 3141 3298 2862 
Q 3072 2584 2669 2484 
Q 3125 2378 3379 2068 
Q 3634 1759 3634 1313 
Q 3634 634 3220 271 
Q 2806 -91 2034 -91 
Q 1263 -91 848 271 
Q 434 634 434 1313 
Q 434 1759 690 2068 
Q 947 2378 1403 2484 
z
M 1172 3481 
Q 1172 3119 1398 2916 
Q 1625 2713 2034 2713 
Q 2441 2713 2670 2916 
Q 2900 3119 2900 3481 
Q 2900 3844 2670 4047 
Q 2441 4250 2034 4250 
Q 1625 4250 1398 4047 
Q 1172 3844 1172 3481 
z
" id="DejaVuSans-38" transform="scale(0.015625)"/>
       </defs>
       <use xlink:href="#DejaVuSans-30"/>
       <use x="63.623047" xlink:href="#DejaVuSans-2e"/>
       <use x="95.410156" xlink:href="#DejaVuSans-38"/>
      </g>
     </g>
    </g>
    <g id="xtick_6">
     <g id="line2d_6">
      <g>
       <use style="stroke:#000000;stroke-width:0.8;" x="498.109091" xlink:href="#me4ec0e8466" y="315"/>
      </g>
     </g>
     <g id="text_6">
      <!-- 1.0 -->
      <g transform="translate(490.157528 329.598437)scale(0.1 -0.1)">
       <defs>
        <path d="M 794 531 
L 1825 531 
L 1825 4091 
L 703 3866 
L 703 4441 
L 1819 4666 
L 2450 4666 
L 2450 531 
L 3481 531 
L 3481 0 
L 794 0 
L 794 531 
z
" id="DejaVuSans-31" transform="scale(0.015625)"/>
       </defs>
       <use xlink:href="#DejaVuSans-31"/>
       <use x="63.623047" xlink:href="#DejaVuSans-2e"/>
       <use x="95.410156" xlink:href="#DejaVuSans-30"/>
      </g>
     </g>
    </g>
    <g id="text_7">
     <!-- False positive rate -->
     <g transform="translate(249.699219 343.276563)scale(0.1 -0.1)">
      <defs>
       <path d="M 628 4666 
L 3309 4666 
L 3309 4134 
L 1259 4134 
L 1259 2759 
L 3109 2759 
L 3109 2228 
L 1259 2228 
L 1259 0 
L 628 0 
L 628 4666 
z
" id="DejaVuSans-46" transform="scale(0.015625)"/>
       <path d="M 2194 1759 
Q 1497 1759 1228 1600 
Q 959 1441 959 1056 
Q 959 750 1161 570 
Q 1363 391 1709 391 
Q 2188 391 2477 730 
Q 2766 1069 2766 1631 
L 2766 1759 
L 2194 1759 
z
M 3341 1997 
L 3341 0 
L 2766 0 
L 2766 531 
Q 2569 213 2275 61 
Q 1981 -91 1556 -91 
Q 1019 -91 701 211 
Q 384 513 384 1019 
Q 384 1609 779 1909 
Q 1175 2209 1959 2209 
L 2766 2209 
L 2766 2266 
Q 2766 2663 2505 2880 
Q 2244 3097 1772 3097 
Q 1472 3097 1187 3025 
Q 903 2953 641 2809 
L 641 3341 
Q 956 3463 1253 3523 
Q 1550 3584 1831 3584 
Q 2591 3584 2966 3190 
Q 3341 2797 3341 1997 
z
" id="DejaVuSans-61" transform="scale(0.015625)"/>
       <path d="M 603 4863 
L 1178 4863 
L 1178 0 
L 603 0 
L 603 4863 
z
" id="DejaVuSans-6c" transform="scale(0.015625)"/>
       <path d="M 2834 3397 
L 2834 2853 
Q 2591 2978 2328 3040 
Q 2066 3103 1784 3103 
Q 1356 3103 1142 2972 
Q 928 2841 928 2578 
Q 928 2378 1081 2264 
Q 1234 2150 1697 2047 
L 1894 2003 
Q 2506 1872 2764 1633 
Q 3022 1394 3022 966 
Q 3022 478 2636 193 
Q 2250 -91 1575 -91 
Q 1294 -91 989 -36 
Q 684 19 347 128 
L 347 722 
Q 666 556 975 473 
Q 1284 391 1588 391 
Q 1994 391 2212 530 
Q 2431 669 2431 922 
Q 2431 1156 2273 1281 
Q 2116 1406 1581 1522 
L 1381 1569 
Q 847 1681 609 1914 
Q 372 2147 372 2553 
Q 372 3047 722 3315 
Q 1072 3584 1716 3584 
Q 2034 3584 2315 3537 
Q 2597 3491 2834 3397 
z
" id="DejaVuSans-73" transform="scale(0.015625)"/>
       <path d="M 3597 1894 
L 3597 1613 
L 953 1613 
Q 991 1019 1311 708 
Q 1631 397 2203 397 
Q 2534 397 2845 478 
Q 3156 559 3463 722 
L 3463 178 
Q 3153 47 2828 -22 
Q 2503 -91 2169 -91 
Q 1331 -91 842 396 
Q 353 884 353 1716 
Q 353 2575 817 3079 
Q 1281 3584 2069 3584 
Q 2775 3584 3186 3129 
Q 3597 2675 3597 1894 
z
M 3022 2063 
Q 3016 2534 2758 2815 
Q 2500 3097 2075 3097 
Q 1594 3097 1305 2825 
Q 1016 2553 972 2059 
L 3022 2063 
z
" id="DejaVuSans-65" transform="scale(0.015625)"/>
       <path id="DejaVuSans-20" transform="scale(0.015625)"/>
       <path d="M 1159 525 
L 1159 -1331 
L 581 -1331 
L 581 3500 
L 1159 3500 
L 1159 2969 
Q 1341 3281 1617 3432 
Q 1894 3584 2278 3584 
Q 2916 3584 3314 3078 
Q 3713 2572 3713 1747 
Q 3713 922 3314 415 
Q 2916 -91 2278 -91 
Q 1894 -91 1617 61 
Q 1341 213 1159 525 
z
M 3116 1747 
Q 3116 2381 2855 2742 
Q 2594 3103 2138 3103 
Q 1681 3103 1420 2742 
Q 1159 2381 1159 1747 
Q 1159 1113 1420 752 
Q 1681 391 2138 391 
Q 2594 391 2855 752 
Q 3116 1113 3116 1747 
z
" id="DejaVuSans-70" transform="scale(0.015625)"/>
       <path d="M 1959 3097 
Q 1497 3097 1228 2736 
Q 959 2375 959 1747 
Q 959 1119 1226 758 
Q 1494 397 1959 397 
Q 2419 397 2687 759 
Q 2956 1122 2956 1747 
Q 2956 2369 2687 2733 
Q 2419 3097 1959 3097 
z
M 1959 3584 
Q 2709 3584 3137 3096 
Q 3566 2609 3566 1747 
Q 3566 888 3137 398 
Q 2709 -91 1959 -91 
Q 1206 -91 779 398 
Q 353 888 353 1747 
Q 353 2609 779 3096 
Q 1206 3584 1959 3584 
z
" id="DejaVuSans-6f" transform="scale(0.015625)"/>
       <path d="M 603 3500 
L 1178 3500 
L 1178 0 
L 603 0 
L 603 3500 
z
M 603 4863 
L 1178 4863 
L 1178 4134 
L 603 4134 
L 603 4863 
z
" id="DejaVuSans-69" transform="scale(0.015625)"/>
       <path d="M 1172 4494 
L 1172 3500 
L 2356 3500 
L 2356 3053 
L 1172 3053 
L 1172 1153 
Q 1172 725 1289 603 
Q 1406 481 1766 481 
L 2356 481 
L 2356 0 
L 1766 0 
Q 1100 0 847 248 
Q 594 497 594 1153 
L 594 3053 
L 172 3053 
L 172 3500 
L 594 3500 
L 594 4494 
L 1172 4494 
z
" id="DejaVuSans-74" transform="scale(0.015625)"/>
       <path d="M 191 3500 
L 800 3500 
L 1894 563 
L 2988 3500 
L 3597 3500 
L 2284 0 
L 1503 0 
L 191 3500 
z
" id="DejaVuSans-76" transform="scale(0.015625)"/>
       <path d="M 2631 2963 
Q 2534 3019 2420 3045 
Q 2306 3072 2169 3072 
Q 1681 3072 1420 2755 
Q 1159 2438 1159 1844 
L 1159 0 
L 581 0 
L 581 3500 
L 1159 3500 
L 1159 2956 
Q 1341 3275 1631 3429 
Q 1922 3584 2338 3584 
Q 2397 3584 2469 3576 
Q 2541 3569 2628 3553 
L 2631 2963 
z
" id="DejaVuSans-72" transform="scale(0.015625)"/>
      </defs>
      <use xlink:href="#DejaVuSans-46"/>
      <use x="48.394531" xlink:href="#DejaVuSans-61"/>
      <use x="109.673828" xlink:href="#DejaVuSans-6c"/>
      <use x="137.457031" xlink:href="#DejaVuSans-73"/>
      <use x="189.556641" xlink:href="#DejaVuSans-65"/>
      <use x="251.080078" xlink:href="#DejaVuSans-20"/>
      <use x="282.867188" xlink:href="#DejaVuSans-70"/>
      <use x="346.34375" xlink:href="#DejaVuSans-6f"/>
      <use x="407.525391" xlink:href="#DejaVuSans-73"/>
      <use x="459.625" xlink:href="#DejaVuSans-69"/>
      <use x="487.408203" xlink:href="#DejaVuSans-74"/>
      <use x="526.617188" xlink:href="#DejaVuSans-69"/>
      <use x="554.400391" xlink:href="#DejaVuSans-76"/>
      <use x="613.580078" xlink:href="#DejaVuSans-65"/>
      <use x="675.103516" xlink:href="#DejaVuSans-20"/>
      <use x="706.890625" xlink:href="#DejaVuSans-72"/>
      <use x="748.003906" xlink:href="#DejaVuSans-61"/>
      <use x="809.283203" xlink:href="#DejaVuSans-74"/>
      <use x="848.492188" xlink:href="#DejaVuSans-65"/>
     </g>
    </g>
   </g>
   <g id="matplotlib.axis_2">
    <g id="ytick_1">
     <g id="line2d_7">
      <defs>
       <path d="M 0 0 
L -3.5 0 
" id="mfda32d09ce" style="stroke:#000000;stroke-width:0.8;"/>
      </defs>
      <g>
       <use style="stroke:#000000;stroke-width:0.8;" x="72" xlink:href="#mfda32d09ce" y="302.645455"/>
      </g>
     </g>
     <g id="text_8">
      <!-- 0.0 -->
      <g transform="translate(49.096875 306.444673)scale(0.1 -0.1)">
       <use xlink:href="#DejaVuSans-30"/>
       <use x="63.623047" xlink:href="#DejaVuSans-2e"/>
       <use x="95.410156" xlink:href="#DejaVuSans-30"/>
      </g>
     </g>
    </g>
    <g id="ytick_2">
     <g id="line2d_8">
      <g>
       <use style="stroke:#000000;stroke-width:0.8;" x="72" xlink:href="#mfda32d09ce" y="253.227273"/>
      </g>
     </g>
     <g id="text_9">
      <!-- 0.2 -->
      <g transform="translate(49.096875 257.026491)scale(0.1 -0.1)">
       <use xlink:href="#DejaVuSans-30"/>
       <use x="63.623047" xlink:href="#DejaVuSans-2e"/>
       <use x="95.410156" xlink:href="#DejaVuSans-32"/>
      </g>
     </g>
    </g>
    <g id="ytick_3">
     <g id="line2d_9">
      <g>
       <use style="stroke:#000000;stroke-width:0.8;" x="72" xlink:href="#mfda32d09ce" y="203.809091"/>
      </g>
     </g>
     <g id="text_10">
      <!-- 0.4 -->
      <g transform="translate(49.096875 207.60831)scale(0.1 -0.1)">
       <use xlink:href="#DejaVuSans-30"/>
       <use x="63.623047" xlink:href="#DejaVuSans-2e"/>
       <use x="95.410156" xlink:href="#DejaVuSans-34"/>
      </g>
     </g>
    </g>
    <g id="ytick_4">
     <g id="line2d_10">
      <g>
       <use style="stroke:#000000;stroke-width:0.8;" x="72" xlink:href="#mfda32d09ce" y="154.390909"/>
      </g>
     </g>
     <g id="text_11">
      <!-- 0.6 -->
      <g transform="translate(49.096875 158.190128)scale(0.1 -0.1)">
       <use xlink:href="#DejaVuSans-30"/>
       <use x="63.623047" xlink:href="#DejaVuSans-2e"/>
       <use x="95.410156" xlink:href="#DejaVuSans-36"/>
      </g>
     </g>
    </g>
    <g id="ytick_5">
     <g id="line2d_11">
      <g>
       <use style="stroke:#000000;stroke-width:0.8;" x="72" xlink:href="#mfda32d09ce" y="104.972727"/>
      </g>
     </g>
     <g id="text_12">
      <!-- 0.8 -->
      <g transform="translate(49.096875 108.771946)scale(0.1 -0.1)">
       <use xlink:href="#DejaVuSans-30"/>
       <use x="63.623047" xlink:href="#DejaVuSans-2e"/>
       <use x="95.410156" xlink:href="#DejaVuSans-38"/>
      </g>
     </g>
    </g>
    <g id="ytick_6">
     <g id="line2d_12">
      <g>
       <use style="stroke:#000000;stroke-width:0.8;" x="72" xlink:href="#mfda32d09ce" y="55.554545"/>
      </g>
     </g>
     <g id="text_13">
      <!-- 1.0 -->
      <g transform="translate(49.096875 59.353764)scale(0.1 -0.1)">
       <use xlink:href="#DejaVuSans-31"/>
       <use x="63.623047" xlink:href="#DejaVuSans-2e"/>
       <use x="95.410156" xlink:href="#DejaVuSans-30"/>
      </g>
     </g>
    </g>
    <g id="text_14">
     <!-- True positive rate -->
     <g transform="translate(43.017187 222.664062)rotate(-90)scale(0.1 -0.1)">
      <defs>
       <path d="M -19 4666 
L 3928 4666 
L 3928 4134 
L 2272 4134 
L 2272 0 
L 1638 0 
L 1638 4134 
L -19 4134 
L -19 4666 
z
" id="DejaVuSans-54" transform="scale(0.015625)"/>
       <path d="M 544 1381 
L 544 3500 
L 1119 3500 
L 1119 1403 
Q 1119 906 1312 657 
Q 1506 409 1894 409 
Q 2359 409 2629 706 
Q 2900 1003 2900 1516 
L 2900 3500 
L 3475 3500 
L 3475 0 
L 2900 0 
L 2900 538 
Q 2691 219 2414 64 
Q 2138 -91 1772 -91 
Q 1169 -91 856 284 
Q 544 659 544 1381 
z
M 1991 3584 
L 1991 3584 
z
" id="DejaVuSans-75" transform="scale(0.015625)"/>
      </defs>
      <use xlink:href="#DejaVuSans-54"/>
      <use x="46.333984" xlink:href="#DejaVuSans-72"/>
      <use x="87.447266" xlink:href="#DejaVuSans-75"/>
      <use x="150.826172" xlink:href="#DejaVuSans-65"/>
      <use x="212.349609" xlink:href="#DejaVuSans-20"/>
      <use x="244.136719" xlink:href="#DejaVuSans-70"/>
      <use x="307.613281" xlink:href="#DejaVuSans-6f"/>
      <use x="368.794922" xlink:href="#DejaVuSans-73"/>
      <use x="420.894531" xlink:href="#DejaVuSans-69"/>
      <use x="448.677734" xlink:href="#DejaVuSans-74"/>
      <use x="487.886719" xlink:href="#DejaVuSans-69"/>
      <use x="515.669922" xlink:href="#DejaVuSans-76"/>
      <use x="574.849609" xlink:href="#DejaVuSans-65"/>
      <use x="636.373047" xlink:href="#DejaVuSans-20"/>
      <use x="668.160156" xlink:href="#DejaVuSans-72"/>
      <use x="709.273438" xlink:href="#DejaVuSans-61"/>
      <use x="770.552734" xlink:href="#DejaVuSans-74"/>
      <use x="809.761719" xlink:href="#DejaVuSans-65"/>
     </g>
    </g>
   </g>
   <g id="line2d_13">
    <path clip-path="url(#p8299d3908a)" d="M 92.290909 302.645455 
L 92.34859 302.645455 
L 92.478371 301.384787 
L 92.507211 301.384787 
L 92.709093 300.124119 
L 92.889344 300.124119 
L 93.105646 298.233117 
L 93.63919 298.233117 
L 93.768971 297.602783 
L 93.797811 297.602783 
L 93.970853 296.342115 
L 94.057374 296.342115 
L 94.187155 295.081447 
L 94.215995 295.081447 
L 94.389036 293.190445 
L 94.619758 293.190445 
L 94.619758 292.560111 
L 94.691859 292.560111 
L 94.937001 291.299443 
L 95.052362 291.299443 
L 95.247033 290.038776 
L 95.506595 290.038776 
L 95.571486 289.408442 
L 95.787788 289.408442 
L 95.888729 286.887106 
L 96.126661 286.887106 
L 96.689045 283.735436 
L 96.725095 283.735436 
L 96.919767 281.2141 
L 97.085598 281.2141 
L 97.193749 280.583766 
L 97.619143 280.583766 
L 97.720084 278.692764 
L 98.022906 278.692764 
L 98.174317 278.06243 
L 99.154885 278.06243 
L 99.327927 277.432096 
L 99.500968 277.432096 
L 99.580279 276.801763 
L 99.825421 276.801763 
L 99.904732 276.171429 
L 100.438276 276.171429 
L 100.510377 274.280427 
L 101.022291 274.280427 
L 101.216962 273.650093 
L 101.418844 273.650093 
L 101.548625 273.019759 
L 101.606306 273.019759 
L 101.642356 272.389425 
L 101.937968 272.389425 
L 102.1038 271.128757 
L 102.320101 271.128757 
L 102.370572 270.498423 
L 103.069948 270.498423 
L 103.185309 269.868089 
L 103.271829 269.868089 
L 103.42324 269.237755 
L 103.610702 269.237755 
L 103.697223 268.607421 
L 103.848634 268.607421 
L 104.028885 267.977087 
L 104.331708 267.977087 
L 104.58406 267.346753 
L 105.160865 267.346753 
L 105.442057 265.455751 
L 105.84582 265.455751 
L 105.925131 264.825417 
L 106.090962 264.825417 
L 106.090962 264.195083 
L 106.199113 264.195083 
L 106.408205 264.195083 
L 106.530776 262.934416 
L 106.689397 262.304082 
L 106.97059 262.304082 
L 107.122001 261.673748 
L 107.251782 261.043414 
L 107.900687 261.043414 
L 108.073729 260.41308 
L 108.448652 260.41308 
L 108.535172 259.152412 
L 108.773104 259.152412 
L 109.155238 257.891744 
L 109.212918 257.891744 
L 109.321069 257.26141 
L 109.688782 257.26141 
L 109.869033 256.631076 
L 111.145214 256.631076 
L 111.318255 256.000742 
L 111.758069 256.000742 
L 111.967161 255.370408 
L 112.032051 255.370408 
L 112.486285 254.10974 
L 113.733625 254.10974 
L 113.928297 252.849072 
L 114.166229 252.849072 
L 114.28159 252.218738 
L 114.670933 252.218738 
L 114.959335 251.588404 
L 116.141785 251.588404 
L 116.221096 250.958071 
L 117.273764 250.958071 
L 117.446806 250.327737 
L 117.663107 250.327737 
L 117.814519 249.697403 
L 118.102921 248.436735 
L 118.686936 248.436735 
L 118.831137 247.806401 
L 119.15559 247.806401 
L 119.24211 247.176067 
L 119.804495 247.176067 
L 119.963116 246.545733 
L 120.35967 246.545733 
L 120.46061 245.915399 
L 120.554341 245.915399 
L 120.770643 244.654731 
L 120.950894 244.654731 
L 120.972525 244.024397 
L 121.095096 244.024397 
L 121.203246 243.394063 
L 121.289767 243.394063 
L 121.441178 242.763729 
L 121.823312 242.763729 
L 121.866572 242.133395 
L 122.176604 241.503061 
L 122.320806 241.503061 
L 122.558738 240.872727 
L 123.806078 240.872727 
L 123.964699 239.612059 
L 124.12332 239.612059 
L 124.202631 238.351391 
L 124.649655 238.351391 
L 124.772226 237.090724 
L 124.981317 237.090724 
L 125.132729 236.46039 
L 125.23367 236.46039 
L 125.442761 235.199722 
L 126.50264 235.199722 
L 126.769412 234.569388 
L 126.877563 233.939054 
L 127.079445 233.939054 
L 127.519258 230.787384 
L 128.211424 230.787384 
L 128.413306 228.896382 
L 129.119891 228.896382 
L 129.386664 227.635714 
L 130.554693 227.635714 
L 130.684474 227.00538 
L 131.059397 227.00538 
L 131.290119 226.375046 
L 131.37664 226.375046 
L 131.556891 225.744712 
L 132.407678 225.744712 
L 132.847492 225.114378 
L 133.215205 225.114378 
L 133.280096 224.484045 
L 135.04656 224.484045 
L 135.262862 223.853711 
L 135.421483 223.853711 
L 135.565684 223.223377 
L 136.315531 223.223377 
L 136.366001 222.593043 
L 136.539042 222.593043 
L 136.856285 221.962709 
L 136.978856 221.332375 
L 137.115847 221.332375 
L 137.404249 220.702041 
L 137.836853 220.702041 
L 137.836853 220.071707 
L 137.937794 220.071707 
L 138.384818 220.071707 
L 138.67322 219.441373 
L 139.372596 219.441373 
L 139.624948 217.550371 
L 139.639368 216.289703 
L 141.002069 216.289703 
L 141.17511 215.029035 
L 141.362572 215.029035 
L 141.492353 213.138033 
L 141.557244 213.138033 
L 141.838436 212.507699 
L 141.961007 211.877365 
L 142.047528 211.247032 
L 142.840634 211.247032 
L 142.941575 210.616698 
L 143.842832 210.616698 
L 144.239386 209.35603 
L 144.354747 209.35603 
L 144.354747 208.725696 
L 144.549418 207.465028 
L 144.650359 207.465028 
L 144.76572 206.20436 
L 145.515566 206.20436 
L 145.688607 205.574026 
L 146.02027 205.574026 
L 146.135631 204.943692 
L 146.373563 204.943692 
L 146.575445 203.683024 
L 147.022468 203.683024 
L 147.15946 203.05269 
L 147.2604 202.422356 
L 147.318081 202.422356 
L 147.693004 201.161688 
L 147.808365 201.161688 
L 147.873255 200.531354 
L 148.140028 200.531354 
L 148.37075 199.270686 
L 148.637522 199.270686 
L 148.824983 198.640353 
L 149.538779 198.640353 
L 149.70461 198.010019 
L 149.971383 197.379685 
L 150.598658 197.379685 
L 150.87985 195.488683 
L 151.348504 195.488683 
L 151.773897 194.858349 
L 151.975779 193.597681 
L 153.706193 193.597681 
L 153.814344 192.337013 
L 154.016226 191.706679 
L 154.073906 191.706679 
L 154.304628 191.076345 
L 154.369519 191.076345 
L 154.49209 190.446011 
L 154.53535 190.446011 
L 154.780492 189.815677 
L 155.097735 189.815677 
L 155.602439 189.185343 
L 156.92188 189.185343 
L 157.051661 188.555009 
L 157.203072 188.555009 
L 157.260753 187.924675 
L 157.585205 187.924675 
L 157.700566 187.294341 
L 157.924078 186.664007 
L 158.017809 186.664007 
L 158.16201 186.033673 
L 158.630664 186.033673 
L 158.897436 185.40334 
L 159.193048 185.40334 
L 159.243519 184.773006 
L 159.38772 184.773006 
L 159.43819 183.512338 
L 159.625652 183.512338 
L 159.748223 182.882004 
L 159.834744 182.882004 
L 159.978945 182.25167 
L 160.166406 182.25167 
L 160.382708 181.621336 
L 160.519699 180.991002 
L 160.844152 180.991002 
L 161.118134 180.360668 
L 161.334436 180.360668 
L 161.500267 179.730334 
L 161.593998 179.730334 
L 161.968921 178.469666 
L 162.221273 178.469666 
L 162.242903 177.839332 
L 162.855758 177.839332 
L 162.906229 177.208998 
L 164.21125 177.208998 
L 164.463602 175.94833 
L 164.989936 175.94833 
L 165.184608 175.317996 
L 166.778031 175.317996 
L 167.109693 174.687662 
L 167.174584 174.687662 
L 167.333205 173.426994 
L 168.551705 173.426994 
L 168.861738 172.79666 
L 169.510643 172.79666 
L 169.626004 172.166327 
L 169.972087 172.166327 
L 170.094658 171.535993 
L 170.433531 171.535993 
L 170.721933 170.905659 
L 170.931025 170.905659 
L 170.952655 170.275325 
L 171.846702 170.275325 
L 172.437927 169.014657 
L 172.80564 169.014657 
L 172.949841 167.753989 
L 174.514424 167.753989 
L 174.564895 167.123655 
L 174.759566 167.123655 
L 174.817247 166.493321 
L 175.17775 165.862987 
L 175.372421 164.602319 
L 176.042957 164.602319 
L 176.46835 163.341651 
L 176.590921 162.080983 
L 178.999081 162.080983 
L 179.056761 161.450649 
L 179.438895 160.189981 
L 179.561466 160.189981 
L 179.561466 159.559647 
L 179.619146 159.559647 
L 180.239211 159.559647 
L 180.318522 158.929314 
L 180.383412 158.929314 
L 180.743915 157.038312 
L 182.135457 157.038312 
L 182.221977 156.407978 
L 182.58969 156.407978 
L 182.654581 155.14731 
L 182.676211 155.14731 
L 183.152075 154.516976 
L 184.125433 154.516976 
L 184.255214 153.886642 
L 184.572457 153.886642 
L 184.687818 153.256308 
L 184.752708 153.256308 
L 184.868069 152.625974 
L 185.423244 152.625974 
L 185.863057 151.99564 
L 187.326699 151.99564 
L 187.478111 151.365306 
L 187.593472 151.365306 
L 187.651152 150.734972 
L 189.230155 150.734972 
L 189.410406 150.104638 
L 190.607276 150.104638 
L 190.974989 149.474304 
L 191.472483 149.474304 
L 191.695995 148.84397 
L 192.517942 148.84397 
L 192.842395 147.583302 
L 194.846791 147.583302 
L 195.019833 146.952968 
L 196.829557 146.952968 
L 197.09633 146.322635 
L 197.456833 146.322635 
L 197.564983 145.692301 
L 198.026427 145.692301 
L 198.35809 145.061967 
L 198.956525 145.061967 
L 199.122356 144.431633 
L 199.922673 144.431633 
L 200.059664 143.170965 
L 200.232705 143.170965 
L 200.600418 142.540631 
L 200.78067 141.279963 
L 203.022998 141.279963 
L 203.145569 140.019295 
L 203.628643 140.019295 
L 203.736794 139.388961 
L 203.888205 139.388961 
L 203.938676 138.758627 
L 205.207646 138.758627 
L 205.265327 138.128293 
L 205.907022 138.128293 
L 206.080063 137.497959 
L 206.137744 137.497959 
L 206.447776 136.867625 
L 207.738377 136.867625 
L 207.846528 136.237291 
L 208.473803 136.237291 
L 208.596374 135.606957 
L 209.38227 135.606957 
L 209.497631 134.976623 
L 210.038386 134.976623 
L 210.434939 134.346289 
L 210.744972 134.346289 
L 211.047794 133.085622 
L 213.095451 133.085622 
L 213.506424 132.455288 
L 214.681664 132.455288 
L 214.789815 131.824954 
L 216.440918 131.824954 
L 216.801421 131.19462 
L 217.118664 131.19462 
L 217.371016 130.564286 
L 217.457537 130.564286 
L 217.457537 129.933952 
L 217.536847 129.933952 
L 218.546256 129.933952 
L 218.567886 129.303618 
L 219.288892 129.303618 
L 219.353782 128.673284 
L 220.572282 128.673284 
L 220.896735 128.04295 
L 220.983256 127.412616 
L 221.134667 127.412616 
L 221.358179 126.782282 
L 221.423069 126.782282 
L 221.805202 126.151948 
L 221.949404 126.151948 
L 221.978244 125.521614 
L 222.353167 124.89128 
L 224.307093 124.89128 
L 224.393614 123.630612 
L 226.491741 123.630612 
L 226.491741 123.000278 
L 226.520581 123.000278 
L 227.493939 123.000278 
L 227.6093 122.369944 
L 228.395197 122.369944 
L 228.510557 121.73961 
L 228.84943 121.73961 
L 228.979211 121.109276 
L 229.584856 121.109276 
L 229.656957 120.478942 
L 230.02467 120.478942 
L 230.226552 119.848609 
L 230.587055 119.848609 
L 230.882667 119.218275 
L 231.949756 119.218275 
L 232.072327 118.587941 
L 232.108377 118.587941 
L 232.245368 117.957607 
L 234.350705 117.957607 
L 234.595847 117.327273 
L 238.58301 117.327273 
L 238.60464 116.696939 
L 239.008404 116.066605 
L 239.275176 116.066605 
L 239.693359 114.805937 
L 240.544146 114.805937 
L 240.558566 114.175603 
L 240.897439 113.545269 
L 243.226288 113.545269 
L 243.305599 112.914935 
L 246.470815 112.914935 
L 246.643856 112.284601 
L 248.30217 112.284601 
L 248.3238 111.654267 
L 248.604992 111.654267 
L 248.958285 111.023933 
L 249.816282 111.023933 
L 250.162365 110.393599 
L 250.407507 110.393599 
L 250.70312 109.763265 
L 251.654847 109.763265 
L 251.705318 109.132931 
L 253.089649 109.132931 
L 253.457362 107.872263 
L 253.515043 107.872263 
L 253.630404 107.241929 
L 254.236049 107.241929 
L 254.531661 106.611596 
L 255.209407 106.611596 
L 255.59875 105.981262 
L 256.240445 105.981262 
L 256.399066 105.350928 
L 258.590924 105.350928 
L 258.814436 104.720594 
L 263.169312 104.720594 
L 263.241413 104.09026 
L 263.500975 103.459926 
L 264.344552 103.459926 
L 264.632954 102.829592 
L 266.413839 102.829592 
L 266.500359 102.199258 
L 268.901309 102.199258 
L 269.434853 101.568924 
L 271.806963 101.568924 
L 272.044895 100.93859 
L 274.467475 100.93859 
L 274.546785 100.308256 
L 274.611676 100.308256 
L 274.741457 99.677922 
L 275.361522 99.677922 
L 275.505723 99.047588 
L 275.873436 99.047588 
L 275.902277 98.417254 
L 276.161839 97.78692 
L 276.241149 97.78692 
L 276.464661 97.156586 
L 277.106356 97.156586 
L 277.344288 96.526252 
L 279.168433 96.526252 
L 279.254954 95.895918 
L 279.99759 95.895918 
L 280.300413 95.265584 
L 280.444614 95.265584 
L 280.495084 94.63525 
L 281.381922 94.63525 
L 281.396342 94.004917 
L 281.677534 94.004917 
L 281.893836 93.374583 
L 283.68914 93.374583 
L 283.919862 92.113915 
L 284.684129 92.113915 
L 284.84996 91.483581 
L 286.681315 91.483581 
L 286.998558 90.853247 
L 287.063448 90.853247 
L 287.214859 90.222913 
L 288.404519 90.222913 
L 288.52709 89.592579 
L 290.351235 89.592579 
L 291.072241 87.701577 
L 299.291709 87.701577 
L 299.385439 87.071243 
L 302.319933 87.071243 
L 302.694857 86.440909 
L 303.14909 86.440909 
L 303.271661 85.810575 
L 304.475741 85.810575 
L 304.800194 85.180241 
L 309.1767 85.180241 
L 309.364161 84.549907 
L 311.909312 84.549907 
L 312.262605 83.919573 
L 312.334706 83.919573 
L 312.450067 83.289239 
L 313.892078 83.289239 
L 314.10838 82.658905 
L 315.370141 82.658905 
L 315.485502 82.028571 
L 316.148827 82.028571 
L 316.307448 81.398237 
L 317.936922 81.398237 
L 318.131593 80.13757 
L 319.811537 80.13757 
L 319.941318 79.507236 
L 323.488667 79.507236 
L 323.539138 78.876902 
L 324.159203 78.876902 
L 324.389925 78.246568 
L 326.156389 78.246568 
L 326.394321 77.616234 
L 326.776454 77.616234 
L 326.978336 76.9859 
L 329.95609 76.9859 
L 329.977721 76.355566 
L 330.367064 76.355566 
L 330.468005 75.725232 
L 333.020366 75.725232 
L 333.070836 75.094898 
L 333.53949 74.464564 
L 336.993108 74.464564 
L 337.360821 73.83423 
L 338.817253 73.83423 
L 339.192176 73.203896 
L 345.190945 73.203896 
L 345.378407 72.573562 
L 345.69565 71.943228 
L 348.810395 71.943228 
L 348.918546 71.312894 
L 349.639552 71.312894 
L 349.920744 70.68256 
L 353.381573 70.68256 
L 353.547404 70.052226 
L 365.018608 70.052226 
L 365.508892 69.421892 
L 373.901401 69.421892 
L 374.254694 68.791558 
L 374.622407 68.791558 
L 374.96849 68.161224 
L 376.302351 68.161224 
L 376.410502 67.530891 
L 381.0682 67.530891 
L 381.529644 66.900557 
L 381.724315 66.900557 
L 382.156919 66.270223 
L 386.497375 66.270223 
L 386.800197 65.639889 
L 403.916878 65.639889 
L 404.039449 65.009555 
L 407.637268 65.009555 
L 408.156392 64.379221 
L 412.266126 64.379221 
L 412.71315 63.748887 
L 418.610978 63.748887 
L 418.942641 63.118553 
L 420.615375 63.118553 
L 421.28591 62.488219 
L 422.951434 62.488219 
L 423.434508 61.857885 
L 426.073389 61.857885 
L 426.779975 61.227551 
L 426.960227 60.597217 
L 437.176881 60.597217 
L 437.854626 59.966883 
L 438.070928 59.966883 
L 439.001026 59.336549 
L 444.040857 59.336549 
L 444.992585 58.706215 
L 451.366277 58.706215 
L 451.474428 58.075881 
L 453.435564 58.075881 
L 454.509863 57.445547 
L 456.781032 57.445547 
L 456.831502 56.815213 
L 470.256632 56.815213 
L 471.842845 56.184879 
L 482.686774 56.184879 
L 482.715615 55.554545 
L 498.109091 55.554545 
L 498.109091 55.554545 
" style="fill:none;stroke:#2b667c;stroke-linecap:square;stroke-width:1.5;"/>
   </g>
   <g id="line2d_14">
    <path clip-path="url(#p8299d3908a)" d="M 92.290909 302.645455 
L 498.109091 55.554545 
" style="fill:none;stroke:#ff0000;stroke-linecap:square;stroke-width:1.5;"/>
   </g>
   <g id="patch_3">
    <path d="M 72 315 
L 72 43.2 
" style="fill:none;stroke:#000000;stroke-linecap:square;stroke-linejoin:miter;stroke-width:0.8;"/>
   </g>
   <g id="patch_4">
    <path d="M 518.4 315 
L 518.4 43.2 
" style="fill:none;stroke:#000000;stroke-linecap:square;stroke-linejoin:miter;stroke-width:0.8;"/>
   </g>
   <g id="patch_5">
    <path d="M 72 315 
L 518.4 315 
" style="fill:none;stroke:#000000;stroke-linecap:square;stroke-linejoin:miter;stroke-width:0.8;"/>
   </g>
   <g id="patch_6">
    <path d="M 72 43.2 
L 518.4 43.2 
" style="fill:none;stroke:#000000;stroke-linecap:square;stroke-linejoin:miter;stroke-width:0.8;"/>
   </g>
   <g id="text_15">
    <!-- COYOACAN -->
    <g transform="translate(272.988125 37.2)scale(0.08 -0.08)">
     <defs>
      <path d="M 4122 4306 
L 4122 3641 
Q 3803 3938 3442 4084 
Q 3081 4231 2675 4231 
Q 1875 4231 1450 3742 
Q 1025 3253 1025 2328 
Q 1025 1406 1450 917 
Q 1875 428 2675 428 
Q 3081 428 3442 575 
Q 3803 722 4122 1019 
L 4122 359 
Q 3791 134 3420 21 
Q 3050 -91 2638 -91 
Q 1578 -91 968 557 
Q 359 1206 359 2328 
Q 359 3453 968 4101 
Q 1578 4750 2638 4750 
Q 3056 4750 3426 4639 
Q 3797 4528 4122 4306 
z
" id="DejaVuSans-43" transform="scale(0.015625)"/>
      <path d="M 2522 4238 
Q 1834 4238 1429 3725 
Q 1025 3213 1025 2328 
Q 1025 1447 1429 934 
Q 1834 422 2522 422 
Q 3209 422 3611 934 
Q 4013 1447 4013 2328 
Q 4013 3213 3611 3725 
Q 3209 4238 2522 4238 
z
M 2522 4750 
Q 3503 4750 4090 4092 
Q 4678 3434 4678 2328 
Q 4678 1225 4090 567 
Q 3503 -91 2522 -91 
Q 1538 -91 948 565 
Q 359 1222 359 2328 
Q 359 3434 948 4092 
Q 1538 4750 2522 4750 
z
" id="DejaVuSans-4f" transform="scale(0.015625)"/>
      <path d="M -13 4666 
L 666 4666 
L 1959 2747 
L 3244 4666 
L 3922 4666 
L 2272 2222 
L 2272 0 
L 1638 0 
L 1638 2222 
L -13 4666 
z
" id="DejaVuSans-59" transform="scale(0.015625)"/>
      <path d="M 2188 4044 
L 1331 1722 
L 3047 1722 
L 2188 4044 
z
M 1831 4666 
L 2547 4666 
L 4325 0 
L 3669 0 
L 3244 1197 
L 1141 1197 
L 716 0 
L 50 0 
L 1831 4666 
z
" id="DejaVuSans-41" transform="scale(0.015625)"/>
      <path d="M 628 4666 
L 1478 4666 
L 3547 763 
L 3547 4666 
L 4159 4666 
L 4159 0 
L 3309 0 
L 1241 3903 
L 1241 0 
L 628 0 
L 628 4666 
z
" id="DejaVuSans-4e" transform="scale(0.015625)"/>
     </defs>
     <use xlink:href="#DejaVuSans-43"/>
     <use x="69.824219" xlink:href="#DejaVuSans-4f"/>
     <use x="143.035156" xlink:href="#DejaVuSans-59"/>
     <use x="198.619141" xlink:href="#DejaVuSans-4f"/>
     <use x="275.580078" xlink:href="#DejaVuSans-41"/>
     <use x="342.238281" xlink:href="#DejaVuSans-43"/>
     <use x="412.0625" xlink:href="#DejaVuSans-41"/>
     <use x="480.470703" xlink:href="#DejaVuSans-4e"/>
    </g>
   </g>
  </g>
  <g id="text_16">
   <!-- ROC Curve -->
   <g transform="translate(244.4125 19.3575)scale(0.16 -0.16)">
    <defs>
     <path d="M 2841 2188 
Q 3044 2119 3236 1894 
Q 3428 1669 3622 1275 
L 4263 0 
L 3584 0 
L 2988 1197 
Q 2756 1666 2539 1819 
Q 2322 1972 1947 1972 
L 1259 1972 
L 1259 0 
L 628 0 
L 628 4666 
L 2053 4666 
Q 2853 4666 3247 4331 
Q 3641 3997 3641 3322 
Q 3641 2881 3436 2590 
Q 3231 2300 2841 2188 
z
M 1259 4147 
L 1259 2491 
L 2053 2491 
Q 2509 2491 2742 2702 
Q 2975 2913 2975 3322 
Q 2975 3731 2742 3939 
Q 2509 4147 2053 4147 
L 1259 4147 
z
" id="DejaVuSans-52" transform="scale(0.015625)"/>
    </defs>
    <use xlink:href="#DejaVuSans-52"/>
    <use x="69.482422" xlink:href="#DejaVuSans-4f"/>
    <use x="148.193359" xlink:href="#DejaVuSans-43"/>
    <use x="218.017578" xlink:href="#DejaVuSans-20"/>
    <use x="249.804688" xlink:href="#DejaVuSans-43"/>
    <use x="319.628906" xlink:href="#DejaVuSans-75"/>
    <use x="383.007812" xlink:href="#DejaVuSans-72"/>
    <use x="424.121094" xlink:href="#DejaVuSans-76"/>
    <use x="483.300781" xlink:href="#DejaVuSans-65"/>
   </g>
  </g>
 </g>
 <defs>
  <clipPath id="p8299d3908a">
   <rect height="271.8" width="446.4" x="72" y="43.2"/>
  </clipPath>
 </defs>
</svg>
