<?xml version="1.0" encoding="utf-8" standalone="no"?>
<!DOCTYPE svg PUBLIC "-//W3C//DTD SVG 1.1//EN"
  "http://www.w3.org/Graphics/SVG/1.1/DTD/svg11.dtd">
<svg height="360pt" version="1.1" viewBox="0 0 576 360" width="576pt" xmlns="http://www.w3.org/2000/svg" xmlns:xlink="http://www.w3.org/1999/xlink">
 <metadata>
  <rdf:RDF xmlns:cc="http://creativecommons.org/ns#" xmlns:dc="http://purl.org/dc/elements/1.1/" xmlns:rdf="http://www.w3.org/1999/02/22-rdf-syntax-ns#">
   <cc:Work>
    <dc:type rdf:resource="http://purl.org/dc/dcmitype/StillImage"/>
    <dc:date>2022-01-04T18:42:23.811399</dc:date>
    <dc:format>image/svg+xml</dc:format>
    <dc:creator>
     <cc:Agent>
      <dc:title>Matplotlib v3.4.3, https://matplotlib.org/</dc:title>
     </cc:Agent>
    </dc:creator>
   </cc:Work>
  </rdf:RDF>
 </metadata>
 <defs>
  <style type="text/css">*{stroke-linecap:butt;stroke-linejoin:round;}</style>
 </defs>
 <g id="figure_1">
  <g id="patch_1">
   <path d="M 0 360 
L 576 360 
L 576 0 
L 0 0 
z
" style="fill:none;"/>
  </g>
  <g id="axes_1">
   <g id="patch_2">
    <path d="M 72 315 
L 518.4 315 
L 518.4 43.2 
L 72 43.2 
z
" style="fill:#ffffff;"/>
   </g>
   <g id="matplotlib.axis_1">
    <g id="xtick_1">
     <g id="line2d_1">
      <defs>
       <path d="M 0 0 
L 0 3.5 
" id="mf82db2561d" style="stroke:#000000;stroke-width:0.8;"/>
      </defs>
      <g>
       <use style="stroke:#000000;stroke-width:0.8;" x="92.290909" xlink:href="#mf82db2561d" y="315"/>
      </g>
     </g>
     <g id="text_1">
      <!-- 0.0 -->
      <g transform="translate(84.339347 329.598437)scale(0.1 -0.1)">
       <defs>
        <path d="M 2034 4250 
Q 1547 4250 1301 3770 
Q 1056 3291 1056 2328 
Q 1056 1369 1301 889 
Q 1547 409 2034 409 
Q 2525 409 2770 889 
Q 3016 1369 3016 2328 
Q 3016 3291 2770 3770 
Q 2525 4250 2034 4250 
z
M 2034 4750 
Q 2819 4750 3233 4129 
Q 3647 3509 3647 2328 
Q 3647 1150 3233 529 
Q 2819 -91 2034 -91 
Q 1250 -91 836 529 
Q 422 1150 422 2328 
Q 422 3509 836 4129 
Q 1250 4750 2034 4750 
z
" id="DejaVuSans-30" transform="scale(0.015625)"/>
        <path d="M 684 794 
L 1344 794 
L 1344 0 
L 684 0 
L 684 794 
z
" id="DejaVuSans-2e" transform="scale(0.015625)"/>
       </defs>
       <use xlink:href="#DejaVuSans-30"/>
       <use x="63.623047" xlink:href="#DejaVuSans-2e"/>
       <use x="95.410156" xlink:href="#DejaVuSans-30"/>
      </g>
     </g>
    </g>
    <g id="xtick_2">
     <g id="line2d_2">
      <g>
       <use style="stroke:#000000;stroke-width:0.8;" x="173.454545" xlink:href="#mf82db2561d" y="315"/>
      </g>
     </g>
     <g id="text_2">
      <!-- 0.2 -->
      <g transform="translate(165.502983 329.598437)scale(0.1 -0.1)">
       <defs>
        <path d="M 1228 531 
L 3431 531 
L 3431 0 
L 469 0 
L 469 531 
Q 828 903 1448 1529 
Q 2069 2156 2228 2338 
Q 2531 2678 2651 2914 
Q 2772 3150 2772 3378 
Q 2772 3750 2511 3984 
Q 2250 4219 1831 4219 
Q 1534 4219 1204 4116 
Q 875 4013 500 3803 
L 500 4441 
Q 881 4594 1212 4672 
Q 1544 4750 1819 4750 
Q 2544 4750 2975 4387 
Q 3406 4025 3406 3419 
Q 3406 3131 3298 2873 
Q 3191 2616 2906 2266 
Q 2828 2175 2409 1742 
Q 1991 1309 1228 531 
z
" id="DejaVuSans-32" transform="scale(0.015625)"/>
       </defs>
       <use xlink:href="#DejaVuSans-30"/>
       <use x="63.623047" xlink:href="#DejaVuSans-2e"/>
       <use x="95.410156" xlink:href="#DejaVuSans-32"/>
      </g>
     </g>
    </g>
    <g id="xtick_3">
     <g id="line2d_3">
      <g>
       <use style="stroke:#000000;stroke-width:0.8;" x="254.618182" xlink:href="#mf82db2561d" y="315"/>
      </g>
     </g>
     <g id="text_3">
      <!-- 0.4 -->
      <g transform="translate(246.666619 329.598437)scale(0.1 -0.1)">
       <defs>
        <path d="M 2419 4116 
L 825 1625 
L 2419 1625 
L 2419 4116 
z
M 2253 4666 
L 3047 4666 
L 3047 1625 
L 3713 1625 
L 3713 1100 
L 3047 1100 
L 3047 0 
L 2419 0 
L 2419 1100 
L 313 1100 
L 313 1709 
L 2253 4666 
z
" id="DejaVuSans-34" transform="scale(0.015625)"/>
       </defs>
       <use xlink:href="#DejaVuSans-30"/>
       <use x="63.623047" xlink:href="#DejaVuSans-2e"/>
       <use x="95.410156" xlink:href="#DejaVuSans-34"/>
      </g>
     </g>
    </g>
    <g id="xtick_4">
     <g id="line2d_4">
      <g>
       <use style="stroke:#000000;stroke-width:0.8;" x="335.781818" xlink:href="#mf82db2561d" y="315"/>
      </g>
     </g>
     <g id="text_4">
      <!-- 0.6 -->
      <g transform="translate(327.830256 329.598437)scale(0.1 -0.1)">
       <defs>
        <path d="M 2113 2584 
Q 1688 2584 1439 2293 
Q 1191 2003 1191 1497 
Q 1191 994 1439 701 
Q 1688 409 2113 409 
Q 2538 409 2786 701 
Q 3034 994 3034 1497 
Q 3034 2003 2786 2293 
Q 2538 2584 2113 2584 
z
M 3366 4563 
L 3366 3988 
Q 3128 4100 2886 4159 
Q 2644 4219 2406 4219 
Q 1781 4219 1451 3797 
Q 1122 3375 1075 2522 
Q 1259 2794 1537 2939 
Q 1816 3084 2150 3084 
Q 2853 3084 3261 2657 
Q 3669 2231 3669 1497 
Q 3669 778 3244 343 
Q 2819 -91 2113 -91 
Q 1303 -91 875 529 
Q 447 1150 447 2328 
Q 447 3434 972 4092 
Q 1497 4750 2381 4750 
Q 2619 4750 2861 4703 
Q 3103 4656 3366 4563 
z
" id="DejaVuSans-36" transform="scale(0.015625)"/>
       </defs>
       <use xlink:href="#DejaVuSans-30"/>
       <use x="63.623047" xlink:href="#DejaVuSans-2e"/>
       <use x="95.410156" xlink:href="#DejaVuSans-36"/>
      </g>
     </g>
    </g>
    <g id="xtick_5">
     <g id="line2d_5">
      <g>
       <use style="stroke:#000000;stroke-width:0.8;" x="416.945455" xlink:href="#mf82db2561d" y="315"/>
      </g>
     </g>
     <g id="text_5">
      <!-- 0.8 -->
      <g transform="translate(408.993892 329.598437)scale(0.1 -0.1)">
       <defs>
        <path d="M 2034 2216 
Q 1584 2216 1326 1975 
Q 1069 1734 1069 1313 
Q 1069 891 1326 650 
Q 1584 409 2034 409 
Q 2484 409 2743 651 
Q 3003 894 3003 1313 
Q 3003 1734 2745 1975 
Q 2488 2216 2034 2216 
z
M 1403 2484 
Q 997 2584 770 2862 
Q 544 3141 544 3541 
Q 544 4100 942 4425 
Q 1341 4750 2034 4750 
Q 2731 4750 3128 4425 
Q 3525 4100 3525 3541 
Q 3525 3141 3298 2862 
Q 3072 2584 2669 2484 
Q 3125 2378 3379 2068 
Q 3634 1759 3634 1313 
Q 3634 634 3220 271 
Q 2806 -91 2034 -91 
Q 1263 -91 848 271 
Q 434 634 434 1313 
Q 434 1759 690 2068 
Q 947 2378 1403 2484 
z
M 1172 3481 
Q 1172 3119 1398 2916 
Q 1625 2713 2034 2713 
Q 2441 2713 2670 2916 
Q 2900 3119 2900 3481 
Q 2900 3844 2670 4047 
Q 2441 4250 2034 4250 
Q 1625 4250 1398 4047 
Q 1172 3844 1172 3481 
z
" id="DejaVuSans-38" transform="scale(0.015625)"/>
       </defs>
       <use xlink:href="#DejaVuSans-30"/>
       <use x="63.623047" xlink:href="#DejaVuSans-2e"/>
       <use x="95.410156" xlink:href="#DejaVuSans-38"/>
      </g>
     </g>
    </g>
    <g id="xtick_6">
     <g id="line2d_6">
      <g>
       <use style="stroke:#000000;stroke-width:0.8;" x="498.109091" xlink:href="#mf82db2561d" y="315"/>
      </g>
     </g>
     <g id="text_6">
      <!-- 1.0 -->
      <g transform="translate(490.157528 329.598437)scale(0.1 -0.1)">
       <defs>
        <path d="M 794 531 
L 1825 531 
L 1825 4091 
L 703 3866 
L 703 4441 
L 1819 4666 
L 2450 4666 
L 2450 531 
L 3481 531 
L 3481 0 
L 794 0 
L 794 531 
z
" id="DejaVuSans-31" transform="scale(0.015625)"/>
       </defs>
       <use xlink:href="#DejaVuSans-31"/>
       <use x="63.623047" xlink:href="#DejaVuSans-2e"/>
       <use x="95.410156" xlink:href="#DejaVuSans-30"/>
      </g>
     </g>
    </g>
    <g id="text_7">
     <!-- False positive rate -->
     <g transform="translate(249.699219 343.276563)scale(0.1 -0.1)">
      <defs>
       <path d="M 628 4666 
L 3309 4666 
L 3309 4134 
L 1259 4134 
L 1259 2759 
L 3109 2759 
L 3109 2228 
L 1259 2228 
L 1259 0 
L 628 0 
L 628 4666 
z
" id="DejaVuSans-46" transform="scale(0.015625)"/>
       <path d="M 2194 1759 
Q 1497 1759 1228 1600 
Q 959 1441 959 1056 
Q 959 750 1161 570 
Q 1363 391 1709 391 
Q 2188 391 2477 730 
Q 2766 1069 2766 1631 
L 2766 1759 
L 2194 1759 
z
M 3341 1997 
L 3341 0 
L 2766 0 
L 2766 531 
Q 2569 213 2275 61 
Q 1981 -91 1556 -91 
Q 1019 -91 701 211 
Q 384 513 384 1019 
Q 384 1609 779 1909 
Q 1175 2209 1959 2209 
L 2766 2209 
L 2766 2266 
Q 2766 2663 2505 2880 
Q 2244 3097 1772 3097 
Q 1472 3097 1187 3025 
Q 903 2953 641 2809 
L 641 3341 
Q 956 3463 1253 3523 
Q 1550 3584 1831 3584 
Q 2591 3584 2966 3190 
Q 3341 2797 3341 1997 
z
" id="DejaVuSans-61" transform="scale(0.015625)"/>
       <path d="M 603 4863 
L 1178 4863 
L 1178 0 
L 603 0 
L 603 4863 
z
" id="DejaVuSans-6c" transform="scale(0.015625)"/>
       <path d="M 2834 3397 
L 2834 2853 
Q 2591 2978 2328 3040 
Q 2066 3103 1784 3103 
Q 1356 3103 1142 2972 
Q 928 2841 928 2578 
Q 928 2378 1081 2264 
Q 1234 2150 1697 2047 
L 1894 2003 
Q 2506 1872 2764 1633 
Q 3022 1394 3022 966 
Q 3022 478 2636 193 
Q 2250 -91 1575 -91 
Q 1294 -91 989 -36 
Q 684 19 347 128 
L 347 722 
Q 666 556 975 473 
Q 1284 391 1588 391 
Q 1994 391 2212 530 
Q 2431 669 2431 922 
Q 2431 1156 2273 1281 
Q 2116 1406 1581 1522 
L 1381 1569 
Q 847 1681 609 1914 
Q 372 2147 372 2553 
Q 372 3047 722 3315 
Q 1072 3584 1716 3584 
Q 2034 3584 2315 3537 
Q 2597 3491 2834 3397 
z
" id="DejaVuSans-73" transform="scale(0.015625)"/>
       <path d="M 3597 1894 
L 3597 1613 
L 953 1613 
Q 991 1019 1311 708 
Q 1631 397 2203 397 
Q 2534 397 2845 478 
Q 3156 559 3463 722 
L 3463 178 
Q 3153 47 2828 -22 
Q 2503 -91 2169 -91 
Q 1331 -91 842 396 
Q 353 884 353 1716 
Q 353 2575 817 3079 
Q 1281 3584 2069 3584 
Q 2775 3584 3186 3129 
Q 3597 2675 3597 1894 
z
M 3022 2063 
Q 3016 2534 2758 2815 
Q 2500 3097 2075 3097 
Q 1594 3097 1305 2825 
Q 1016 2553 972 2059 
L 3022 2063 
z
" id="DejaVuSans-65" transform="scale(0.015625)"/>
       <path id="DejaVuSans-20" transform="scale(0.015625)"/>
       <path d="M 1159 525 
L 1159 -1331 
L 581 -1331 
L 581 3500 
L 1159 3500 
L 1159 2969 
Q 1341 3281 1617 3432 
Q 1894 3584 2278 3584 
Q 2916 3584 3314 3078 
Q 3713 2572 3713 1747 
Q 3713 922 3314 415 
Q 2916 -91 2278 -91 
Q 1894 -91 1617 61 
Q 1341 213 1159 525 
z
M 3116 1747 
Q 3116 2381 2855 2742 
Q 2594 3103 2138 3103 
Q 1681 3103 1420 2742 
Q 1159 2381 1159 1747 
Q 1159 1113 1420 752 
Q 1681 391 2138 391 
Q 2594 391 2855 752 
Q 3116 1113 3116 1747 
z
" id="DejaVuSans-70" transform="scale(0.015625)"/>
       <path d="M 1959 3097 
Q 1497 3097 1228 2736 
Q 959 2375 959 1747 
Q 959 1119 1226 758 
Q 1494 397 1959 397 
Q 2419 397 2687 759 
Q 2956 1122 2956 1747 
Q 2956 2369 2687 2733 
Q 2419 3097 1959 3097 
z
M 1959 3584 
Q 2709 3584 3137 3096 
Q 3566 2609 3566 1747 
Q 3566 888 3137 398 
Q 2709 -91 1959 -91 
Q 1206 -91 779 398 
Q 353 888 353 1747 
Q 353 2609 779 3096 
Q 1206 3584 1959 3584 
z
" id="DejaVuSans-6f" transform="scale(0.015625)"/>
       <path d="M 603 3500 
L 1178 3500 
L 1178 0 
L 603 0 
L 603 3500 
z
M 603 4863 
L 1178 4863 
L 1178 4134 
L 603 4134 
L 603 4863 
z
" id="DejaVuSans-69" transform="scale(0.015625)"/>
       <path d="M 1172 4494 
L 1172 3500 
L 2356 3500 
L 2356 3053 
L 1172 3053 
L 1172 1153 
Q 1172 725 1289 603 
Q 1406 481 1766 481 
L 2356 481 
L 2356 0 
L 1766 0 
Q 1100 0 847 248 
Q 594 497 594 1153 
L 594 3053 
L 172 3053 
L 172 3500 
L 594 3500 
L 594 4494 
L 1172 4494 
z
" id="DejaVuSans-74" transform="scale(0.015625)"/>
       <path d="M 191 3500 
L 800 3500 
L 1894 563 
L 2988 3500 
L 3597 3500 
L 2284 0 
L 1503 0 
L 191 3500 
z
" id="DejaVuSans-76" transform="scale(0.015625)"/>
       <path d="M 2631 2963 
Q 2534 3019 2420 3045 
Q 2306 3072 2169 3072 
Q 1681 3072 1420 2755 
Q 1159 2438 1159 1844 
L 1159 0 
L 581 0 
L 581 3500 
L 1159 3500 
L 1159 2956 
Q 1341 3275 1631 3429 
Q 1922 3584 2338 3584 
Q 2397 3584 2469 3576 
Q 2541 3569 2628 3553 
L 2631 2963 
z
" id="DejaVuSans-72" transform="scale(0.015625)"/>
      </defs>
      <use xlink:href="#DejaVuSans-46"/>
      <use x="48.394531" xlink:href="#DejaVuSans-61"/>
      <use x="109.673828" xlink:href="#DejaVuSans-6c"/>
      <use x="137.457031" xlink:href="#DejaVuSans-73"/>
      <use x="189.556641" xlink:href="#DejaVuSans-65"/>
      <use x="251.080078" xlink:href="#DejaVuSans-20"/>
      <use x="282.867188" xlink:href="#DejaVuSans-70"/>
      <use x="346.34375" xlink:href="#DejaVuSans-6f"/>
      <use x="407.525391" xlink:href="#DejaVuSans-73"/>
      <use x="459.625" xlink:href="#DejaVuSans-69"/>
      <use x="487.408203" xlink:href="#DejaVuSans-74"/>
      <use x="526.617188" xlink:href="#DejaVuSans-69"/>
      <use x="554.400391" xlink:href="#DejaVuSans-76"/>
      <use x="613.580078" xlink:href="#DejaVuSans-65"/>
      <use x="675.103516" xlink:href="#DejaVuSans-20"/>
      <use x="706.890625" xlink:href="#DejaVuSans-72"/>
      <use x="748.003906" xlink:href="#DejaVuSans-61"/>
      <use x="809.283203" xlink:href="#DejaVuSans-74"/>
      <use x="848.492188" xlink:href="#DejaVuSans-65"/>
     </g>
    </g>
   </g>
   <g id="matplotlib.axis_2">
    <g id="ytick_1">
     <g id="line2d_7">
      <defs>
       <path d="M 0 0 
L -3.5 0 
" id="md8737072ad" style="stroke:#000000;stroke-width:0.8;"/>
      </defs>
      <g>
       <use style="stroke:#000000;stroke-width:0.8;" x="72" xlink:href="#md8737072ad" y="302.645455"/>
      </g>
     </g>
     <g id="text_8">
      <!-- 0.0 -->
      <g transform="translate(49.096875 306.444673)scale(0.1 -0.1)">
       <use xlink:href="#DejaVuSans-30"/>
       <use x="63.623047" xlink:href="#DejaVuSans-2e"/>
       <use x="95.410156" xlink:href="#DejaVuSans-30"/>
      </g>
     </g>
    </g>
    <g id="ytick_2">
     <g id="line2d_8">
      <g>
       <use style="stroke:#000000;stroke-width:0.8;" x="72" xlink:href="#md8737072ad" y="253.227273"/>
      </g>
     </g>
     <g id="text_9">
      <!-- 0.2 -->
      <g transform="translate(49.096875 257.026491)scale(0.1 -0.1)">
       <use xlink:href="#DejaVuSans-30"/>
       <use x="63.623047" xlink:href="#DejaVuSans-2e"/>
       <use x="95.410156" xlink:href="#DejaVuSans-32"/>
      </g>
     </g>
    </g>
    <g id="ytick_3">
     <g id="line2d_9">
      <g>
       <use style="stroke:#000000;stroke-width:0.8;" x="72" xlink:href="#md8737072ad" y="203.809091"/>
      </g>
     </g>
     <g id="text_10">
      <!-- 0.4 -->
      <g transform="translate(49.096875 207.60831)scale(0.1 -0.1)">
       <use xlink:href="#DejaVuSans-30"/>
       <use x="63.623047" xlink:href="#DejaVuSans-2e"/>
       <use x="95.410156" xlink:href="#DejaVuSans-34"/>
      </g>
     </g>
    </g>
    <g id="ytick_4">
     <g id="line2d_10">
      <g>
       <use style="stroke:#000000;stroke-width:0.8;" x="72" xlink:href="#md8737072ad" y="154.390909"/>
      </g>
     </g>
     <g id="text_11">
      <!-- 0.6 -->
      <g transform="translate(49.096875 158.190128)scale(0.1 -0.1)">
       <use xlink:href="#DejaVuSans-30"/>
       <use x="63.623047" xlink:href="#DejaVuSans-2e"/>
       <use x="95.410156" xlink:href="#DejaVuSans-36"/>
      </g>
     </g>
    </g>
    <g id="ytick_5">
     <g id="line2d_11">
      <g>
       <use style="stroke:#000000;stroke-width:0.8;" x="72" xlink:href="#md8737072ad" y="104.972727"/>
      </g>
     </g>
     <g id="text_12">
      <!-- 0.8 -->
      <g transform="translate(49.096875 108.771946)scale(0.1 -0.1)">
       <use xlink:href="#DejaVuSans-30"/>
       <use x="63.623047" xlink:href="#DejaVuSans-2e"/>
       <use x="95.410156" xlink:href="#DejaVuSans-38"/>
      </g>
     </g>
    </g>
    <g id="ytick_6">
     <g id="line2d_12">
      <g>
       <use style="stroke:#000000;stroke-width:0.8;" x="72" xlink:href="#md8737072ad" y="55.554545"/>
      </g>
     </g>
     <g id="text_13">
      <!-- 1.0 -->
      <g transform="translate(49.096875 59.353764)scale(0.1 -0.1)">
       <use xlink:href="#DejaVuSans-31"/>
       <use x="63.623047" xlink:href="#DejaVuSans-2e"/>
       <use x="95.410156" xlink:href="#DejaVuSans-30"/>
      </g>
     </g>
    </g>
    <g id="text_14">
     <!-- True positive rate -->
     <g transform="translate(43.017187 222.664062)rotate(-90)scale(0.1 -0.1)">
      <defs>
       <path d="M -19 4666 
L 3928 4666 
L 3928 4134 
L 2272 4134 
L 2272 0 
L 1638 0 
L 1638 4134 
L -19 4134 
L -19 4666 
z
" id="DejaVuSans-54" transform="scale(0.015625)"/>
       <path d="M 544 1381 
L 544 3500 
L 1119 3500 
L 1119 1403 
Q 1119 906 1312 657 
Q 1506 409 1894 409 
Q 2359 409 2629 706 
Q 2900 1003 2900 1516 
L 2900 3500 
L 3475 3500 
L 3475 0 
L 2900 0 
L 2900 538 
Q 2691 219 2414 64 
Q 2138 -91 1772 -91 
Q 1169 -91 856 284 
Q 544 659 544 1381 
z
M 1991 3584 
L 1991 3584 
z
" id="DejaVuSans-75" transform="scale(0.015625)"/>
      </defs>
      <use xlink:href="#DejaVuSans-54"/>
      <use x="46.333984" xlink:href="#DejaVuSans-72"/>
      <use x="87.447266" xlink:href="#DejaVuSans-75"/>
      <use x="150.826172" xlink:href="#DejaVuSans-65"/>
      <use x="212.349609" xlink:href="#DejaVuSans-20"/>
      <use x="244.136719" xlink:href="#DejaVuSans-70"/>
      <use x="307.613281" xlink:href="#DejaVuSans-6f"/>
      <use x="368.794922" xlink:href="#DejaVuSans-73"/>
      <use x="420.894531" xlink:href="#DejaVuSans-69"/>
      <use x="448.677734" xlink:href="#DejaVuSans-74"/>
      <use x="487.886719" xlink:href="#DejaVuSans-69"/>
      <use x="515.669922" xlink:href="#DejaVuSans-76"/>
      <use x="574.849609" xlink:href="#DejaVuSans-65"/>
      <use x="636.373047" xlink:href="#DejaVuSans-20"/>
      <use x="668.160156" xlink:href="#DejaVuSans-72"/>
      <use x="709.273438" xlink:href="#DejaVuSans-61"/>
      <use x="770.552734" xlink:href="#DejaVuSans-74"/>
      <use x="809.761719" xlink:href="#DejaVuSans-65"/>
     </g>
    </g>
   </g>
   <g id="line2d_13">
    <path clip-path="url(#pf7d21b756b)" d="M 92.290909 302.645455 
L 92.868723 302.645455 
L 93.061328 301.341545 
L 93.148876 301.341545 
L 93.201404 300.68959 
L 93.691671 300.68959 
L 93.831747 300.037635 
L 94.216956 300.037635 
L 94.251976 298.733725 
L 95.022394 298.733725 
L 95.022394 298.08177 
L 96.580742 298.08177 
L 96.63327 297.429815 
L 96.773347 297.429815 
L 96.808366 296.125905 
L 97.403689 296.125905 
L 97.526256 295.473951 
L 98.10407 295.473951 
L 98.156599 294.821996 
L 98.314185 294.821996 
L 98.436751 293.518086 
L 98.874489 293.518086 
L 98.909508 292.214176 
L 99.137132 291.562221 
L 99.347246 291.562221 
L 99.557361 290.258311 
L 99.57487 290.258311 
L 99.802494 288.954402 
L 99.94257 288.954402 
L 100.065137 288.302447 
L 100.205213 288.302447 
L 100.345289 286.998537 
L 101.448389 286.998537 
L 101.448389 286.346582 
L 101.956165 286.346582 
L 102.078732 285.694627 
L 102.358884 285.694627 
L 102.568998 284.390717 
L 102.639036 284.390717 
L 102.849151 283.738762 
L 103.041755 283.086807 
L 103.724627 283.086807 
L 103.777155 282.434852 
L 103.917231 282.434852 
L 104.127346 281.782898 
L 104.197384 281.782898 
L 104.425008 281.130943 
L 104.68765 281.130943 
L 104.740179 280.478988 
L 105.370522 280.478988 
L 105.475579 279.175078 
L 105.913317 279.175078 
L 106.035884 278.523123 
L 106.368564 277.219213 
L 106.701245 277.219213 
L 107.016417 275.915303 
L 108.242083 275.915303 
L 108.36465 275.263349 
L 108.872426 275.263349 
L 108.924955 274.611394 
L 109.152578 274.611394 
L 109.345183 273.307484 
L 110.448283 273.307484 
L 110.623378 272.003574 
L 110.956059 272.003574 
L 111.28874 271.351619 
L 111.411307 270.047709 
L 111.551383 270.047709 
L 111.743988 269.395754 
L 112.041649 269.395754 
L 112.094178 268.743799 
L 112.304292 268.743799 
L 112.584445 268.091845 
L 112.794559 268.091845 
L 113.12724 266.787935 
L 113.144749 265.484025 
L 113.389883 265.484025 
L 113.442411 264.83207 
L 114.475473 264.83207 
L 114.528002 263.52816 
L 115.946273 263.52816 
L 116.278954 262.22425 
L 116.524087 261.572296 
L 117.171939 261.572296 
L 117.312015 260.920341 
L 117.662206 260.920341 
L 117.837301 259.616431 
L 118.835344 259.616431 
L 119.045458 257.008611 
L 120.166067 257.008611 
L 120.323653 256.356656 
L 120.603805 256.356656 
L 120.603805 255.704701 
L 121.269167 255.704701 
L 121.409243 255.052746 
L 121.724415 254.400792 
L 122.004567 254.400792 
L 122.057096 253.748837 
L 122.792496 253.748837 
L 122.862534 253.096882 
L 123.597934 253.096882 
L 123.895596 252.444927 
L 124.385862 252.444927 
L 124.438391 251.792972 
L 124.595976 251.792972 
L 125.156281 250.489062 
L 125.243829 249.837107 
L 125.961719 249.837107 
L 126.014248 249.185152 
L 126.171833 249.185152 
L 126.451986 248.533197 
L 126.504514 248.533197 
L 126.627081 247.881243 
L 126.907233 247.881243 
L 127.187386 247.229288 
L 128.448071 247.229288 
L 128.605657 246.577333 
L 130.601742 246.577333 
L 131.599785 245.273423 
L 132.440242 245.273423 
L 132.440242 244.621468 
L 132.52779 244.621468 
L 132.912999 244.621468 
L 133.350737 243.969513 
L 133.403266 243.317558 
L 133.543342 243.317558 
L 133.63089 242.665603 
L 134.296251 242.665603 
L 134.34878 242.013648 
L 134.874066 242.013648 
L 134.996632 241.361693 
L 135.049161 240.057784 
L 135.364332 239.405829 
L 135.626975 238.101919 
L 135.872108 237.449964 
L 136.730075 237.449964 
L 136.90517 236.798009 
L 137.115284 236.798009 
L 137.167813 236.146054 
L 137.885703 236.146054 
L 138.305932 235.494099 
L 138.813708 235.494099 
L 139.09386 234.190189 
L 140.126922 234.190189 
L 140.302017 232.88628 
L 141.930403 232.88628 
L 141.982931 231.58237 
L 143.033503 231.58237 
L 143.348674 230.27846 
L 143.821431 230.27846 
L 144.066564 228.97455 
L 144.259169 228.97455 
L 144.381736 228.322595 
L 144.907021 228.322595 
L 145.152155 227.67064 
L 145.607402 227.67064 
L 145.764988 227.018686 
L 145.922574 227.018686 
L 146.325293 226.366731 
L 146.377821 225.714776 
L 147.253297 225.714776 
L 147.375864 224.410866 
L 147.51594 223.758911 
L 147.866131 223.758911 
L 148.338888 221.803046 
L 149.00425 221.803046 
L 149.371949 221.151091 
L 149.914745 221.151091 
L 149.914745 220.499136 
L 150.44003 219.195227 
L 151.262978 219.195227 
L 151.420563 217.891317 
L 152.103435 217.891317 
L 152.27853 216.587407 
L 153.01393 216.587407 
L 153.206535 215.283497 
L 153.574235 214.631542 
L 153.696801 213.979587 
L 155.903001 213.979587 
L 156.043077 213.327633 
L 156.200663 213.327633 
L 156.743458 212.023723 
L 157.02361 212.023723 
L 157.093648 211.371768 
L 157.706482 211.371768 
L 157.846558 210.719813 
L 158.476901 210.719813 
L 158.529429 210.067858 
L 159.072224 210.067858 
L 159.299848 209.415903 
L 159.895172 208.763948 
L 160.437967 208.763948 
L 160.648081 208.111993 
L 161.015781 208.111993 
L 161.523557 206.156129 
L 162.469072 206.156129 
L 162.801753 205.504174 
L 164.570214 205.504174 
L 165.007952 204.852219 
L 165.130519 204.200264 
L 166.321166 204.200264 
L 166.373695 203.548309 
L 169.420352 203.548309 
L 170.173261 202.896354 
L 170.418394 202.244399 
L 171.626551 202.244399 
L 172.116818 201.592444 
L 172.817199 201.592444 
L 173.237427 200.940489 
L 173.447542 200.940489 
L 173.605127 200.288534 
L 174.095394 198.984625 
L 174.323018 198.984625 
L 174.585661 197.680715 
L 175.286041 197.680715 
L 175.531175 196.376805 
L 175.776308 195.72485 
L 176.42416 195.72485 
L 176.651784 194.42094 
L 177.229598 194.42094 
L 177.334655 193.768985 
L 177.509751 193.768985 
L 177.579789 193.11703 
L 178.875493 193.11703 
L 179.01557 191.813121 
L 179.208174 191.813121 
L 179.383269 190.509211 
L 181.20426 190.509211 
L 181.729545 189.857256 
L 183.252874 189.857256 
L 183.883217 189.205301 
L 186.474626 189.205301 
L 186.614702 188.553346 
L 186.894854 188.553346 
L 186.929873 187.901391 
L 187.087459 187.901391 
L 187.210026 187.249436 
L 188.610787 187.249436 
L 188.733354 186.597481 
L 192.252768 186.597481 
L 192.672996 185.945527 
L 193.180772 185.945527 
L 193.460925 185.293572 
L 193.706058 185.293572 
L 193.828625 184.641617 
L 194.283872 184.641617 
L 194.564025 183.989662 
L 194.861687 183.989662 
L 195.562067 182.685752 
L 196.472563 182.685752 
L 196.472563 182.033797 
L 196.490072 182.033797 
L 196.647658 181.381842 
L 198.135967 181.381842 
L 198.783819 180.729887 
L 199.098991 180.729887 
L 199.169029 180.077932 
L 201.235152 180.077932 
L 201.777948 179.425977 
L 202.128138 179.425977 
L 202.355762 178.774023 
L 202.7935 178.122068 
L 203.423843 178.122068 
L 203.581428 177.470113 
L 203.581428 176.818158 
L 203.651466 176.818158 
L 203.703995 176.166203 
L 204.001657 176.166203 
L 204.054185 175.514248 
L 204.351847 174.862293 
L 204.877133 174.862293 
L 205.314871 174.210338 
L 206.978275 174.210338 
L 207.030804 173.558383 
L 207.18839 173.558383 
L 207.345975 172.906428 
L 207.748694 172.254473 
L 210.322594 172.254473 
L 210.567727 170.950564 
L 211.828413 170.950564 
L 212.336189 170.298609 
L 214.805032 170.298609 
L 215.627979 169.646654 
L 215.890622 169.646654 
L 215.995679 168.994699 
L 216.223303 168.342744 
L 216.468436 168.342744 
L 216.941193 167.690789 
L 218.692145 167.690789 
L 218.832222 167.038834 
L 220.180455 167.038834 
L 220.303021 166.386879 
L 220.35555 166.386879 
L 220.513136 165.734924 
L 220.583174 165.734924 
L 220.933364 165.08297 
L 220.968383 165.08297 
L 221.231026 164.431015 
L 223.052016 164.431015 
L 223.29715 163.77906 
L 224.925535 163.77906 
L 225.205687 163.127105 
L 226.693997 163.127105 
L 227.32434 161.823195 
L 228.690082 161.823195 
L 228.812649 161.17124 
L 229.267896 161.17124 
L 229.49552 160.519285 
L 230.283449 160.519285 
L 230.61613 159.86733 
L 230.896282 159.86733 
L 231.263982 159.215375 
L 232.78731 159.215375 
L 233.032444 157.259511 
L 235.676381 157.259511 
L 236.044081 155.955601 
L 236.271705 155.955601 
L 236.394272 155.303646 
L 236.867029 153.999736 
L 239.458438 153.999736 
L 239.510967 153.347781 
L 239.73859 153.347781 
L 239.948705 152.695826 
L 240.824181 152.043871 
L 241.034295 152.043871 
L 241.086824 151.391917 
L 241.524562 150.739962 
L 242.627661 150.739962 
L 243.41559 150.088007 
L 243.730761 149.436052 
L 244.746314 149.436052 
L 245.306618 148.784097 
L 245.691828 148.784097 
L 245.814394 148.132142 
L 246.479756 148.132142 
L 246.952513 147.480187 
L 247.215156 147.480187 
L 247.267685 146.828232 
L 247.670404 146.828232 
L 248.230708 146.176277 
L 250.296832 146.176277 
L 250.401889 145.524322 
L 250.997213 145.524322 
L 251.154798 144.872367 
L 251.46997 144.220413 
L 253.396017 144.220413 
L 253.798736 142.916503 
L 255.006893 142.916503 
L 255.12946 142.264548 
L 255.409612 141.612593 
L 255.549688 141.612593 
L 255.86486 140.960638 
L 256.092484 140.960638 
L 256.285088 140.308683 
L 258.438759 140.308683 
L 258.841478 139.656728 
L 263.18384 139.656728 
L 263.253878 139.004773 
L 263.516521 138.352818 
L 264.724678 138.352818 
L 264.864754 137.700864 
L 266.790801 137.700864 
L 267.088463 137.048909 
L 268.909453 137.048909 
L 269.04953 136.396954 
L 269.084549 136.396954 
L 269.154587 135.744999 
L 270.450291 135.744999 
L 270.975577 134.441089 
L 271.290748 134.441089 
L 271.97362 133.137179 
L 273.42691 133.137179 
L 273.934686 132.485224 
L 274.1448 132.485224 
L 274.179819 131.833269 
L 274.319896 131.833269 
L 274.845181 130.52936 
L 275.895752 130.52936 
L 276.491076 128.573495 
L 276.7187 128.573495 
L 276.911305 127.92154 
L 277.769271 127.92154 
L 278.101952 126.61763 
L 279.537733 126.61763 
L 279.590262 125.965675 
L 280.973514 125.965675 
L 281.586347 125.31372 
L 282.987109 125.31372 
L 283.214732 124.661765 
L 283.704999 124.661765 
L 284.352851 123.357856 
L 285.753613 123.357856 
L 285.753613 122.705901 
L 285.771123 122.705901 
L 286.331427 122.705901 
L 286.471503 122.053946 
L 288.274984 122.053946 
L 288.502608 121.401991 
L 288.712722 121.401991 
L 289.763294 120.750036 
L 290.918922 120.750036 
L 291.35666 118.794171 
L 291.811908 118.794171 
L 292.267155 118.142216 
L 293.387765 118.142216 
L 293.440293 117.490261 
L 293.878031 115.534397 
L 294.403317 115.534397 
L 294.473355 114.882442 
L 296.294345 114.882442 
L 296.46944 113.578532 
L 298.360469 113.578532 
L 298.710659 112.274622 
L 299.953835 112.274622 
L 300.041383 111.622667 
L 300.251497 110.970712 
L 303.578306 110.970712 
L 303.910987 110.318757 
L 303.963516 109.014848 
L 305.416806 109.014848 
L 305.469334 108.362893 
L 305.889563 108.362893 
L 306.73002 107.058983 
L 306.852587 107.058983 
L 306.992663 106.407028 
L 308.673577 106.407028 
L 308.848672 105.755073 
L 309.864224 105.755073 
L 309.916753 105.103118 
L 310.266943 105.103118 
L 310.336981 104.451163 
L 312.368086 104.451163 
L 312.508162 103.799208 
L 312.648238 103.799208 
L 312.96341 103.147254 
L 313.3136 103.147254 
L 313.926433 102.495299 
L 314.224095 102.495299 
L 314.556776 101.843344 
L 314.661833 101.843344 
L 315.13459 101.191389 
L 315.589838 101.191389 
L 315.642366 100.539434 
L 316.010066 100.539434 
L 316.447804 99.887479 
L 316.587881 99.235524 
L 318.846609 99.235524 
L 319.056723 98.583569 
L 319.617028 98.583569 
L 319.774614 97.931614 
L 321.402999 97.931614 
L 321.473037 97.279659 
L 321.823228 96.627704 
L 322.015832 96.627704 
L 322.47108 95.97575 
L 322.733723 95.97575 
L 323.346556 95.323795 
L 323.644218 95.323795 
L 324.169503 94.67184 
L 325.710341 94.67184 
L 326.218117 93.36793 
L 327.408765 93.36793 
L 327.531332 92.715975 
L 328.564393 92.715975 
L 328.879565 92.06402 
L 329.965155 92.06402 
L 330.490441 90.76011 
L 333.169398 90.76011 
L 333.239436 90.108155 
L 337.599307 90.108155 
L 338.054554 89.456201 
L 341.206268 89.456201 
L 341.48642 88.804246 
L 343.377449 88.804246 
L 343.780168 88.152291 
L 343.920244 88.152291 
L 344.200396 87.500336 
L 346.966901 87.500336 
L 347.439658 86.848381 
L 348.945477 86.848381 
L 349.103062 86.196426 
L 351.869567 86.196426 
L 351.922095 85.544471 
L 355.021281 85.544471 
L 355.073809 84.892516 
L 355.75668 84.892516 
L 355.879247 84.240561 
L 357.385066 84.240561 
L 357.682728 83.588606 
L 358.34809 83.588606 
L 358.400618 82.936651 
L 359.258585 82.936651 
L 359.398661 82.284697 
L 364.283817 82.284697 
L 364.651517 81.632742 
L 365.824655 81.632742 
L 366.052279 80.980787 
L 366.612584 80.980787 
L 366.665112 80.328832 
L 367.523079 80.328832 
L 367.85576 79.676877 
L 368.083384 79.676877 
L 368.608669 79.024922 
L 373.371259 79.024922 
L 373.70394 78.372967 
L 378.501549 78.372967 
L 378.554078 77.721012 
L 379.271968 77.721012 
L 379.324496 77.069057 
L 381.215525 77.069057 
L 381.74081 76.417102 
L 382.966477 76.417102 
L 383.246629 75.765148 
L 383.649348 75.113193 
L 384.594862 75.113193 
L 385.120148 74.461238 
L 385.260224 74.461238 
L 385.610415 73.809283 
L 389.182357 73.809283 
L 389.777681 73.157328 
L 390.933309 73.157328 
L 391.563652 72.505373 
L 392.841847 72.505373 
L 393.121999 71.853418 
L 393.349623 71.853418 
L 393.647285 71.201463 
L 394.662837 71.201463 
L 395.030537 70.549508 
L 396.501337 70.549508 
L 396.74647 69.897553 
L 399.740599 69.897553 
L 400.300903 69.245598 
L 400.511018 69.245598 
L 401.036303 68.593644 
L 401.999327 68.593644 
L 402.752236 67.941689 
L 402.962351 67.289734 
L 406.954522 67.289734 
L 407.199655 66.637779 
L 411.699602 66.637779 
L 411.804659 65.985824 
L 418.72092 65.985824 
L 419.298734 65.333869 
L 419.859039 65.333869 
L 420.051644 64.681914 
L 420.506891 64.681914 
L 420.769534 64.029959 
L 422.590524 64.029959 
L 422.660562 63.378004 
L 437.158446 63.378004 
L 437.543656 62.726049 
L 453.634906 62.726049 
L 453.985097 62.074095 
L 455.368349 62.074095 
L 455.420877 61.42214 
L 461.234038 61.42214 
L 461.356605 60.770185 
L 463.667862 60.770185 
L 464.263186 60.11823 
L 466.66199 60.11823 
L 466.889614 59.466275 
L 467.975204 59.466275 
L 468.237847 58.81432 
L 475.206637 58.81432 
L 475.329203 57.51041 
L 480.161831 57.51041 
L 480.406965 56.858455 
L 484.22404 56.858455 
L 484.276569 56.2065 
L 487.463302 56.2065 
L 487.918549 55.554545 
L 498.109091 55.554545 
L 498.109091 55.554545 
" style="fill:none;stroke:#2b667c;stroke-linecap:square;stroke-width:1.5;"/>
   </g>
   <g id="line2d_14">
    <path clip-path="url(#pf7d21b756b)" d="M 92.290909 302.645455 
L 498.109091 55.554545 
" style="fill:none;stroke:#ff0000;stroke-linecap:square;stroke-width:1.5;"/>
   </g>
   <g id="patch_3">
    <path d="M 72 315 
L 72 43.2 
" style="fill:none;stroke:#000000;stroke-linecap:square;stroke-linejoin:miter;stroke-width:0.8;"/>
   </g>
   <g id="patch_4">
    <path d="M 518.4 315 
L 518.4 43.2 
" style="fill:none;stroke:#000000;stroke-linecap:square;stroke-linejoin:miter;stroke-width:0.8;"/>
   </g>
   <g id="patch_5">
    <path d="M 72 315 
L 518.4 315 
" style="fill:none;stroke:#000000;stroke-linecap:square;stroke-linejoin:miter;stroke-width:0.8;"/>
   </g>
   <g id="patch_6">
    <path d="M 72 43.2 
L 518.4 43.2 
" style="fill:none;stroke:#000000;stroke-linecap:square;stroke-linejoin:miter;stroke-width:0.8;"/>
   </g>
   <g id="text_15">
    <!-- BENITO JUAREZ -->
    <g transform="translate(264.001875 37.2)scale(0.08 -0.08)">
     <defs>
      <path d="M 1259 2228 
L 1259 519 
L 2272 519 
Q 2781 519 3026 730 
Q 3272 941 3272 1375 
Q 3272 1813 3026 2020 
Q 2781 2228 2272 2228 
L 1259 2228 
z
M 1259 4147 
L 1259 2741 
L 2194 2741 
Q 2656 2741 2882 2914 
Q 3109 3088 3109 3444 
Q 3109 3797 2882 3972 
Q 2656 4147 2194 4147 
L 1259 4147 
z
M 628 4666 
L 2241 4666 
Q 2963 4666 3353 4366 
Q 3744 4066 3744 3513 
Q 3744 3084 3544 2831 
Q 3344 2578 2956 2516 
Q 3422 2416 3680 2098 
Q 3938 1781 3938 1306 
Q 3938 681 3513 340 
Q 3088 0 2303 0 
L 628 0 
L 628 4666 
z
" id="DejaVuSans-42" transform="scale(0.015625)"/>
      <path d="M 628 4666 
L 3578 4666 
L 3578 4134 
L 1259 4134 
L 1259 2753 
L 3481 2753 
L 3481 2222 
L 1259 2222 
L 1259 531 
L 3634 531 
L 3634 0 
L 628 0 
L 628 4666 
z
" id="DejaVuSans-45" transform="scale(0.015625)"/>
      <path d="M 628 4666 
L 1478 4666 
L 3547 763 
L 3547 4666 
L 4159 4666 
L 4159 0 
L 3309 0 
L 1241 3903 
L 1241 0 
L 628 0 
L 628 4666 
z
" id="DejaVuSans-4e" transform="scale(0.015625)"/>
      <path d="M 628 4666 
L 1259 4666 
L 1259 0 
L 628 0 
L 628 4666 
z
" id="DejaVuSans-49" transform="scale(0.015625)"/>
      <path d="M 2522 4238 
Q 1834 4238 1429 3725 
Q 1025 3213 1025 2328 
Q 1025 1447 1429 934 
Q 1834 422 2522 422 
Q 3209 422 3611 934 
Q 4013 1447 4013 2328 
Q 4013 3213 3611 3725 
Q 3209 4238 2522 4238 
z
M 2522 4750 
Q 3503 4750 4090 4092 
Q 4678 3434 4678 2328 
Q 4678 1225 4090 567 
Q 3503 -91 2522 -91 
Q 1538 -91 948 565 
Q 359 1222 359 2328 
Q 359 3434 948 4092 
Q 1538 4750 2522 4750 
z
" id="DejaVuSans-4f" transform="scale(0.015625)"/>
      <path d="M 628 4666 
L 1259 4666 
L 1259 325 
Q 1259 -519 939 -900 
Q 619 -1281 -91 -1281 
L -331 -1281 
L -331 -750 
L -134 -750 
Q 284 -750 456 -515 
Q 628 -281 628 325 
L 628 4666 
z
" id="DejaVuSans-4a" transform="scale(0.015625)"/>
      <path d="M 556 4666 
L 1191 4666 
L 1191 1831 
Q 1191 1081 1462 751 
Q 1734 422 2344 422 
Q 2950 422 3222 751 
Q 3494 1081 3494 1831 
L 3494 4666 
L 4128 4666 
L 4128 1753 
Q 4128 841 3676 375 
Q 3225 -91 2344 -91 
Q 1459 -91 1007 375 
Q 556 841 556 1753 
L 556 4666 
z
" id="DejaVuSans-55" transform="scale(0.015625)"/>
      <path d="M 2188 4044 
L 1331 1722 
L 3047 1722 
L 2188 4044 
z
M 1831 4666 
L 2547 4666 
L 4325 0 
L 3669 0 
L 3244 1197 
L 1141 1197 
L 716 0 
L 50 0 
L 1831 4666 
z
" id="DejaVuSans-41" transform="scale(0.015625)"/>
      <path d="M 2841 2188 
Q 3044 2119 3236 1894 
Q 3428 1669 3622 1275 
L 4263 0 
L 3584 0 
L 2988 1197 
Q 2756 1666 2539 1819 
Q 2322 1972 1947 1972 
L 1259 1972 
L 1259 0 
L 628 0 
L 628 4666 
L 2053 4666 
Q 2853 4666 3247 4331 
Q 3641 3997 3641 3322 
Q 3641 2881 3436 2590 
Q 3231 2300 2841 2188 
z
M 1259 4147 
L 1259 2491 
L 2053 2491 
Q 2509 2491 2742 2702 
Q 2975 2913 2975 3322 
Q 2975 3731 2742 3939 
Q 2509 4147 2053 4147 
L 1259 4147 
z
" id="DejaVuSans-52" transform="scale(0.015625)"/>
      <path d="M 359 4666 
L 4025 4666 
L 4025 4184 
L 1075 531 
L 4097 531 
L 4097 0 
L 288 0 
L 288 481 
L 3238 4134 
L 359 4134 
L 359 4666 
z
" id="DejaVuSans-5a" transform="scale(0.015625)"/>
     </defs>
     <use xlink:href="#DejaVuSans-42"/>
     <use x="68.603516" xlink:href="#DejaVuSans-45"/>
     <use x="131.787109" xlink:href="#DejaVuSans-4e"/>
     <use x="206.591797" xlink:href="#DejaVuSans-49"/>
     <use x="236.083984" xlink:href="#DejaVuSans-54"/>
     <use x="297.167969" xlink:href="#DejaVuSans-4f"/>
     <use x="375.878906" xlink:href="#DejaVuSans-20"/>
     <use x="407.666016" xlink:href="#DejaVuSans-4a"/>
     <use x="437.158203" xlink:href="#DejaVuSans-55"/>
     <use x="510.351562" xlink:href="#DejaVuSans-41"/>
     <use x="578.759766" xlink:href="#DejaVuSans-52"/>
     <use x="648.242188" xlink:href="#DejaVuSans-45"/>
     <use x="711.425781" xlink:href="#DejaVuSans-5a"/>
    </g>
   </g>
  </g>
  <g id="text_16">
   <!-- ROC Curve -->
   <g transform="translate(244.4125 19.3575)scale(0.16 -0.16)">
    <defs>
     <path d="M 4122 4306 
L 4122 3641 
Q 3803 3938 3442 4084 
Q 3081 4231 2675 4231 
Q 1875 4231 1450 3742 
Q 1025 3253 1025 2328 
Q 1025 1406 1450 917 
Q 1875 428 2675 428 
Q 3081 428 3442 575 
Q 3803 722 4122 1019 
L 4122 359 
Q 3791 134 3420 21 
Q 3050 -91 2638 -91 
Q 1578 -91 968 557 
Q 359 1206 359 2328 
Q 359 3453 968 4101 
Q 1578 4750 2638 4750 
Q 3056 4750 3426 4639 
Q 3797 4528 4122 4306 
z
" id="DejaVuSans-43" transform="scale(0.015625)"/>
    </defs>
    <use xlink:href="#DejaVuSans-52"/>
    <use x="69.482422" xlink:href="#DejaVuSans-4f"/>
    <use x="148.193359" xlink:href="#DejaVuSans-43"/>
    <use x="218.017578" xlink:href="#DejaVuSans-20"/>
    <use x="249.804688" xlink:href="#DejaVuSans-43"/>
    <use x="319.628906" xlink:href="#DejaVuSans-75"/>
    <use x="383.007812" xlink:href="#DejaVuSans-72"/>
    <use x="424.121094" xlink:href="#DejaVuSans-76"/>
    <use x="483.300781" xlink:href="#DejaVuSans-65"/>
   </g>
  </g>
 </g>
 <defs>
  <clipPath id="pf7d21b756b">
   <rect height="271.8" width="446.4" x="72" y="43.2"/>
  </clipPath>
 </defs>
</svg>
