<?xml version="1.0" encoding="utf-8" standalone="no"?>
<!DOCTYPE svg PUBLIC "-//W3C//DTD SVG 1.1//EN"
  "http://www.w3.org/Graphics/SVG/1.1/DTD/svg11.dtd">
<svg height="360pt" version="1.1" viewBox="0 0 576 360" width="576pt" xmlns="http://www.w3.org/2000/svg" xmlns:xlink="http://www.w3.org/1999/xlink">
 <metadata>
  <rdf:RDF xmlns:cc="http://creativecommons.org/ns#" xmlns:dc="http://purl.org/dc/elements/1.1/" xmlns:rdf="http://www.w3.org/1999/02/22-rdf-syntax-ns#">
   <cc:Work>
    <dc:type rdf:resource="http://purl.org/dc/dcmitype/StillImage"/>
    <dc:date>2022-01-08T16:58:42.279726</dc:date>
    <dc:format>image/svg+xml</dc:format>
    <dc:creator>
     <cc:Agent>
      <dc:title>Matplotlib v3.4.3, https://matplotlib.org/</dc:title>
     </cc:Agent>
    </dc:creator>
   </cc:Work>
  </rdf:RDF>
 </metadata>
 <defs>
  <style type="text/css">*{stroke-linecap:butt;stroke-linejoin:round;}</style>
 </defs>
 <g id="figure_1">
  <g id="patch_1">
   <path d="M 0 360 
L 576 360 
L 576 0 
L 0 0 
z
" style="fill:none;"/>
  </g>
  <g id="axes_1">
   <g id="patch_2">
    <path d="M 72 315 
L 518.4 315 
L 518.4 43.2 
L 72 43.2 
z
" style="fill:#ffffff;"/>
   </g>
   <g id="matplotlib.axis_1">
    <g id="xtick_1">
     <g id="line2d_1">
      <defs>
       <path d="M 0 0 
L 0 3.5 
" id="me7df7ce9e2" style="stroke:#000000;stroke-width:0.8;"/>
      </defs>
      <g>
       <use style="stroke:#000000;stroke-width:0.8;" x="92.290909" xlink:href="#me7df7ce9e2" y="315"/>
      </g>
     </g>
     <g id="text_1">
      <!-- 0.0 -->
      <g transform="translate(84.339347 329.598437)scale(0.1 -0.1)">
       <defs>
        <path d="M 2034 4250 
Q 1547 4250 1301 3770 
Q 1056 3291 1056 2328 
Q 1056 1369 1301 889 
Q 1547 409 2034 409 
Q 2525 409 2770 889 
Q 3016 1369 3016 2328 
Q 3016 3291 2770 3770 
Q 2525 4250 2034 4250 
z
M 2034 4750 
Q 2819 4750 3233 4129 
Q 3647 3509 3647 2328 
Q 3647 1150 3233 529 
Q 2819 -91 2034 -91 
Q 1250 -91 836 529 
Q 422 1150 422 2328 
Q 422 3509 836 4129 
Q 1250 4750 2034 4750 
z
" id="DejaVuSans-30" transform="scale(0.015625)"/>
        <path d="M 684 794 
L 1344 794 
L 1344 0 
L 684 0 
L 684 794 
z
" id="DejaVuSans-2e" transform="scale(0.015625)"/>
       </defs>
       <use xlink:href="#DejaVuSans-30"/>
       <use x="63.623047" xlink:href="#DejaVuSans-2e"/>
       <use x="95.410156" xlink:href="#DejaVuSans-30"/>
      </g>
     </g>
    </g>
    <g id="xtick_2">
     <g id="line2d_2">
      <g>
       <use style="stroke:#000000;stroke-width:0.8;" x="173.454545" xlink:href="#me7df7ce9e2" y="315"/>
      </g>
     </g>
     <g id="text_2">
      <!-- 0.2 -->
      <g transform="translate(165.502983 329.598437)scale(0.1 -0.1)">
       <defs>
        <path d="M 1228 531 
L 3431 531 
L 3431 0 
L 469 0 
L 469 531 
Q 828 903 1448 1529 
Q 2069 2156 2228 2338 
Q 2531 2678 2651 2914 
Q 2772 3150 2772 3378 
Q 2772 3750 2511 3984 
Q 2250 4219 1831 4219 
Q 1534 4219 1204 4116 
Q 875 4013 500 3803 
L 500 4441 
Q 881 4594 1212 4672 
Q 1544 4750 1819 4750 
Q 2544 4750 2975 4387 
Q 3406 4025 3406 3419 
Q 3406 3131 3298 2873 
Q 3191 2616 2906 2266 
Q 2828 2175 2409 1742 
Q 1991 1309 1228 531 
z
" id="DejaVuSans-32" transform="scale(0.015625)"/>
       </defs>
       <use xlink:href="#DejaVuSans-30"/>
       <use x="63.623047" xlink:href="#DejaVuSans-2e"/>
       <use x="95.410156" xlink:href="#DejaVuSans-32"/>
      </g>
     </g>
    </g>
    <g id="xtick_3">
     <g id="line2d_3">
      <g>
       <use style="stroke:#000000;stroke-width:0.8;" x="254.618182" xlink:href="#me7df7ce9e2" y="315"/>
      </g>
     </g>
     <g id="text_3">
      <!-- 0.4 -->
      <g transform="translate(246.666619 329.598437)scale(0.1 -0.1)">
       <defs>
        <path d="M 2419 4116 
L 825 1625 
L 2419 1625 
L 2419 4116 
z
M 2253 4666 
L 3047 4666 
L 3047 1625 
L 3713 1625 
L 3713 1100 
L 3047 1100 
L 3047 0 
L 2419 0 
L 2419 1100 
L 313 1100 
L 313 1709 
L 2253 4666 
z
" id="DejaVuSans-34" transform="scale(0.015625)"/>
       </defs>
       <use xlink:href="#DejaVuSans-30"/>
       <use x="63.623047" xlink:href="#DejaVuSans-2e"/>
       <use x="95.410156" xlink:href="#DejaVuSans-34"/>
      </g>
     </g>
    </g>
    <g id="xtick_4">
     <g id="line2d_4">
      <g>
       <use style="stroke:#000000;stroke-width:0.8;" x="335.781818" xlink:href="#me7df7ce9e2" y="315"/>
      </g>
     </g>
     <g id="text_4">
      <!-- 0.6 -->
      <g transform="translate(327.830256 329.598437)scale(0.1 -0.1)">
       <defs>
        <path d="M 2113 2584 
Q 1688 2584 1439 2293 
Q 1191 2003 1191 1497 
Q 1191 994 1439 701 
Q 1688 409 2113 409 
Q 2538 409 2786 701 
Q 3034 994 3034 1497 
Q 3034 2003 2786 2293 
Q 2538 2584 2113 2584 
z
M 3366 4563 
L 3366 3988 
Q 3128 4100 2886 4159 
Q 2644 4219 2406 4219 
Q 1781 4219 1451 3797 
Q 1122 3375 1075 2522 
Q 1259 2794 1537 2939 
Q 1816 3084 2150 3084 
Q 2853 3084 3261 2657 
Q 3669 2231 3669 1497 
Q 3669 778 3244 343 
Q 2819 -91 2113 -91 
Q 1303 -91 875 529 
Q 447 1150 447 2328 
Q 447 3434 972 4092 
Q 1497 4750 2381 4750 
Q 2619 4750 2861 4703 
Q 3103 4656 3366 4563 
z
" id="DejaVuSans-36" transform="scale(0.015625)"/>
       </defs>
       <use xlink:href="#DejaVuSans-30"/>
       <use x="63.623047" xlink:href="#DejaVuSans-2e"/>
       <use x="95.410156" xlink:href="#DejaVuSans-36"/>
      </g>
     </g>
    </g>
    <g id="xtick_5">
     <g id="line2d_5">
      <g>
       <use style="stroke:#000000;stroke-width:0.8;" x="416.945455" xlink:href="#me7df7ce9e2" y="315"/>
      </g>
     </g>
     <g id="text_5">
      <!-- 0.8 -->
      <g transform="translate(408.993892 329.598437)scale(0.1 -0.1)">
       <defs>
        <path d="M 2034 2216 
Q 1584 2216 1326 1975 
Q 1069 1734 1069 1313 
Q 1069 891 1326 650 
Q 1584 409 2034 409 
Q 2484 409 2743 651 
Q 3003 894 3003 1313 
Q 3003 1734 2745 1975 
Q 2488 2216 2034 2216 
z
M 1403 2484 
Q 997 2584 770 2862 
Q 544 3141 544 3541 
Q 544 4100 942 4425 
Q 1341 4750 2034 4750 
Q 2731 4750 3128 4425 
Q 3525 4100 3525 3541 
Q 3525 3141 3298 2862 
Q 3072 2584 2669 2484 
Q 3125 2378 3379 2068 
Q 3634 1759 3634 1313 
Q 3634 634 3220 271 
Q 2806 -91 2034 -91 
Q 1263 -91 848 271 
Q 434 634 434 1313 
Q 434 1759 690 2068 
Q 947 2378 1403 2484 
z
M 1172 3481 
Q 1172 3119 1398 2916 
Q 1625 2713 2034 2713 
Q 2441 2713 2670 2916 
Q 2900 3119 2900 3481 
Q 2900 3844 2670 4047 
Q 2441 4250 2034 4250 
Q 1625 4250 1398 4047 
Q 1172 3844 1172 3481 
z
" id="DejaVuSans-38" transform="scale(0.015625)"/>
       </defs>
       <use xlink:href="#DejaVuSans-30"/>
       <use x="63.623047" xlink:href="#DejaVuSans-2e"/>
       <use x="95.410156" xlink:href="#DejaVuSans-38"/>
      </g>
     </g>
    </g>
    <g id="xtick_6">
     <g id="line2d_6">
      <g>
       <use style="stroke:#000000;stroke-width:0.8;" x="498.109091" xlink:href="#me7df7ce9e2" y="315"/>
      </g>
     </g>
     <g id="text_6">
      <!-- 1.0 -->
      <g transform="translate(490.157528 329.598437)scale(0.1 -0.1)">
       <defs>
        <path d="M 794 531 
L 1825 531 
L 1825 4091 
L 703 3866 
L 703 4441 
L 1819 4666 
L 2450 4666 
L 2450 531 
L 3481 531 
L 3481 0 
L 794 0 
L 794 531 
z
" id="DejaVuSans-31" transform="scale(0.015625)"/>
       </defs>
       <use xlink:href="#DejaVuSans-31"/>
       <use x="63.623047" xlink:href="#DejaVuSans-2e"/>
       <use x="95.410156" xlink:href="#DejaVuSans-30"/>
      </g>
     </g>
    </g>
    <g id="text_7">
     <!-- False positive rate -->
     <g transform="translate(249.699219 343.276563)scale(0.1 -0.1)">
      <defs>
       <path d="M 628 4666 
L 3309 4666 
L 3309 4134 
L 1259 4134 
L 1259 2759 
L 3109 2759 
L 3109 2228 
L 1259 2228 
L 1259 0 
L 628 0 
L 628 4666 
z
" id="DejaVuSans-46" transform="scale(0.015625)"/>
       <path d="M 2194 1759 
Q 1497 1759 1228 1600 
Q 959 1441 959 1056 
Q 959 750 1161 570 
Q 1363 391 1709 391 
Q 2188 391 2477 730 
Q 2766 1069 2766 1631 
L 2766 1759 
L 2194 1759 
z
M 3341 1997 
L 3341 0 
L 2766 0 
L 2766 531 
Q 2569 213 2275 61 
Q 1981 -91 1556 -91 
Q 1019 -91 701 211 
Q 384 513 384 1019 
Q 384 1609 779 1909 
Q 1175 2209 1959 2209 
L 2766 2209 
L 2766 2266 
Q 2766 2663 2505 2880 
Q 2244 3097 1772 3097 
Q 1472 3097 1187 3025 
Q 903 2953 641 2809 
L 641 3341 
Q 956 3463 1253 3523 
Q 1550 3584 1831 3584 
Q 2591 3584 2966 3190 
Q 3341 2797 3341 1997 
z
" id="DejaVuSans-61" transform="scale(0.015625)"/>
       <path d="M 603 4863 
L 1178 4863 
L 1178 0 
L 603 0 
L 603 4863 
z
" id="DejaVuSans-6c" transform="scale(0.015625)"/>
       <path d="M 2834 3397 
L 2834 2853 
Q 2591 2978 2328 3040 
Q 2066 3103 1784 3103 
Q 1356 3103 1142 2972 
Q 928 2841 928 2578 
Q 928 2378 1081 2264 
Q 1234 2150 1697 2047 
L 1894 2003 
Q 2506 1872 2764 1633 
Q 3022 1394 3022 966 
Q 3022 478 2636 193 
Q 2250 -91 1575 -91 
Q 1294 -91 989 -36 
Q 684 19 347 128 
L 347 722 
Q 666 556 975 473 
Q 1284 391 1588 391 
Q 1994 391 2212 530 
Q 2431 669 2431 922 
Q 2431 1156 2273 1281 
Q 2116 1406 1581 1522 
L 1381 1569 
Q 847 1681 609 1914 
Q 372 2147 372 2553 
Q 372 3047 722 3315 
Q 1072 3584 1716 3584 
Q 2034 3584 2315 3537 
Q 2597 3491 2834 3397 
z
" id="DejaVuSans-73" transform="scale(0.015625)"/>
       <path d="M 3597 1894 
L 3597 1613 
L 953 1613 
Q 991 1019 1311 708 
Q 1631 397 2203 397 
Q 2534 397 2845 478 
Q 3156 559 3463 722 
L 3463 178 
Q 3153 47 2828 -22 
Q 2503 -91 2169 -91 
Q 1331 -91 842 396 
Q 353 884 353 1716 
Q 353 2575 817 3079 
Q 1281 3584 2069 3584 
Q 2775 3584 3186 3129 
Q 3597 2675 3597 1894 
z
M 3022 2063 
Q 3016 2534 2758 2815 
Q 2500 3097 2075 3097 
Q 1594 3097 1305 2825 
Q 1016 2553 972 2059 
L 3022 2063 
z
" id="DejaVuSans-65" transform="scale(0.015625)"/>
       <path id="DejaVuSans-20" transform="scale(0.015625)"/>
       <path d="M 1159 525 
L 1159 -1331 
L 581 -1331 
L 581 3500 
L 1159 3500 
L 1159 2969 
Q 1341 3281 1617 3432 
Q 1894 3584 2278 3584 
Q 2916 3584 3314 3078 
Q 3713 2572 3713 1747 
Q 3713 922 3314 415 
Q 2916 -91 2278 -91 
Q 1894 -91 1617 61 
Q 1341 213 1159 525 
z
M 3116 1747 
Q 3116 2381 2855 2742 
Q 2594 3103 2138 3103 
Q 1681 3103 1420 2742 
Q 1159 2381 1159 1747 
Q 1159 1113 1420 752 
Q 1681 391 2138 391 
Q 2594 391 2855 752 
Q 3116 1113 3116 1747 
z
" id="DejaVuSans-70" transform="scale(0.015625)"/>
       <path d="M 1959 3097 
Q 1497 3097 1228 2736 
Q 959 2375 959 1747 
Q 959 1119 1226 758 
Q 1494 397 1959 397 
Q 2419 397 2687 759 
Q 2956 1122 2956 1747 
Q 2956 2369 2687 2733 
Q 2419 3097 1959 3097 
z
M 1959 3584 
Q 2709 3584 3137 3096 
Q 3566 2609 3566 1747 
Q 3566 888 3137 398 
Q 2709 -91 1959 -91 
Q 1206 -91 779 398 
Q 353 888 353 1747 
Q 353 2609 779 3096 
Q 1206 3584 1959 3584 
z
" id="DejaVuSans-6f" transform="scale(0.015625)"/>
       <path d="M 603 3500 
L 1178 3500 
L 1178 0 
L 603 0 
L 603 3500 
z
M 603 4863 
L 1178 4863 
L 1178 4134 
L 603 4134 
L 603 4863 
z
" id="DejaVuSans-69" transform="scale(0.015625)"/>
       <path d="M 1172 4494 
L 1172 3500 
L 2356 3500 
L 2356 3053 
L 1172 3053 
L 1172 1153 
Q 1172 725 1289 603 
Q 1406 481 1766 481 
L 2356 481 
L 2356 0 
L 1766 0 
Q 1100 0 847 248 
Q 594 497 594 1153 
L 594 3053 
L 172 3053 
L 172 3500 
L 594 3500 
L 594 4494 
L 1172 4494 
z
" id="DejaVuSans-74" transform="scale(0.015625)"/>
       <path d="M 191 3500 
L 800 3500 
L 1894 563 
L 2988 3500 
L 3597 3500 
L 2284 0 
L 1503 0 
L 191 3500 
z
" id="DejaVuSans-76" transform="scale(0.015625)"/>
       <path d="M 2631 2963 
Q 2534 3019 2420 3045 
Q 2306 3072 2169 3072 
Q 1681 3072 1420 2755 
Q 1159 2438 1159 1844 
L 1159 0 
L 581 0 
L 581 3500 
L 1159 3500 
L 1159 2956 
Q 1341 3275 1631 3429 
Q 1922 3584 2338 3584 
Q 2397 3584 2469 3576 
Q 2541 3569 2628 3553 
L 2631 2963 
z
" id="DejaVuSans-72" transform="scale(0.015625)"/>
      </defs>
      <use xlink:href="#DejaVuSans-46"/>
      <use x="48.394531" xlink:href="#DejaVuSans-61"/>
      <use x="109.673828" xlink:href="#DejaVuSans-6c"/>
      <use x="137.457031" xlink:href="#DejaVuSans-73"/>
      <use x="189.556641" xlink:href="#DejaVuSans-65"/>
      <use x="251.080078" xlink:href="#DejaVuSans-20"/>
      <use x="282.867188" xlink:href="#DejaVuSans-70"/>
      <use x="346.34375" xlink:href="#DejaVuSans-6f"/>
      <use x="407.525391" xlink:href="#DejaVuSans-73"/>
      <use x="459.625" xlink:href="#DejaVuSans-69"/>
      <use x="487.408203" xlink:href="#DejaVuSans-74"/>
      <use x="526.617188" xlink:href="#DejaVuSans-69"/>
      <use x="554.400391" xlink:href="#DejaVuSans-76"/>
      <use x="613.580078" xlink:href="#DejaVuSans-65"/>
      <use x="675.103516" xlink:href="#DejaVuSans-20"/>
      <use x="706.890625" xlink:href="#DejaVuSans-72"/>
      <use x="748.003906" xlink:href="#DejaVuSans-61"/>
      <use x="809.283203" xlink:href="#DejaVuSans-74"/>
      <use x="848.492188" xlink:href="#DejaVuSans-65"/>
     </g>
    </g>
   </g>
   <g id="matplotlib.axis_2">
    <g id="ytick_1">
     <g id="line2d_7">
      <defs>
       <path d="M 0 0 
L -3.5 0 
" id="m9467597fa3" style="stroke:#000000;stroke-width:0.8;"/>
      </defs>
      <g>
       <use style="stroke:#000000;stroke-width:0.8;" x="72" xlink:href="#m9467597fa3" y="302.645455"/>
      </g>
     </g>
     <g id="text_8">
      <!-- 0.0 -->
      <g transform="translate(49.096875 306.444673)scale(0.1 -0.1)">
       <use xlink:href="#DejaVuSans-30"/>
       <use x="63.623047" xlink:href="#DejaVuSans-2e"/>
       <use x="95.410156" xlink:href="#DejaVuSans-30"/>
      </g>
     </g>
    </g>
    <g id="ytick_2">
     <g id="line2d_8">
      <g>
       <use style="stroke:#000000;stroke-width:0.8;" x="72" xlink:href="#m9467597fa3" y="253.227273"/>
      </g>
     </g>
     <g id="text_9">
      <!-- 0.2 -->
      <g transform="translate(49.096875 257.026491)scale(0.1 -0.1)">
       <use xlink:href="#DejaVuSans-30"/>
       <use x="63.623047" xlink:href="#DejaVuSans-2e"/>
       <use x="95.410156" xlink:href="#DejaVuSans-32"/>
      </g>
     </g>
    </g>
    <g id="ytick_3">
     <g id="line2d_9">
      <g>
       <use style="stroke:#000000;stroke-width:0.8;" x="72" xlink:href="#m9467597fa3" y="203.809091"/>
      </g>
     </g>
     <g id="text_10">
      <!-- 0.4 -->
      <g transform="translate(49.096875 207.60831)scale(0.1 -0.1)">
       <use xlink:href="#DejaVuSans-30"/>
       <use x="63.623047" xlink:href="#DejaVuSans-2e"/>
       <use x="95.410156" xlink:href="#DejaVuSans-34"/>
      </g>
     </g>
    </g>
    <g id="ytick_4">
     <g id="line2d_10">
      <g>
       <use style="stroke:#000000;stroke-width:0.8;" x="72" xlink:href="#m9467597fa3" y="154.390909"/>
      </g>
     </g>
     <g id="text_11">
      <!-- 0.6 -->
      <g transform="translate(49.096875 158.190128)scale(0.1 -0.1)">
       <use xlink:href="#DejaVuSans-30"/>
       <use x="63.623047" xlink:href="#DejaVuSans-2e"/>
       <use x="95.410156" xlink:href="#DejaVuSans-36"/>
      </g>
     </g>
    </g>
    <g id="ytick_5">
     <g id="line2d_11">
      <g>
       <use style="stroke:#000000;stroke-width:0.8;" x="72" xlink:href="#m9467597fa3" y="104.972727"/>
      </g>
     </g>
     <g id="text_12">
      <!-- 0.8 -->
      <g transform="translate(49.096875 108.771946)scale(0.1 -0.1)">
       <use xlink:href="#DejaVuSans-30"/>
       <use x="63.623047" xlink:href="#DejaVuSans-2e"/>
       <use x="95.410156" xlink:href="#DejaVuSans-38"/>
      </g>
     </g>
    </g>
    <g id="ytick_6">
     <g id="line2d_12">
      <g>
       <use style="stroke:#000000;stroke-width:0.8;" x="72" xlink:href="#m9467597fa3" y="55.554545"/>
      </g>
     </g>
     <g id="text_13">
      <!-- 1.0 -->
      <g transform="translate(49.096875 59.353764)scale(0.1 -0.1)">
       <use xlink:href="#DejaVuSans-31"/>
       <use x="63.623047" xlink:href="#DejaVuSans-2e"/>
       <use x="95.410156" xlink:href="#DejaVuSans-30"/>
      </g>
     </g>
    </g>
    <g id="text_14">
     <!-- True positive rate -->
     <g transform="translate(43.017187 222.664062)rotate(-90)scale(0.1 -0.1)">
      <defs>
       <path d="M -19 4666 
L 3928 4666 
L 3928 4134 
L 2272 4134 
L 2272 0 
L 1638 0 
L 1638 4134 
L -19 4134 
L -19 4666 
z
" id="DejaVuSans-54" transform="scale(0.015625)"/>
       <path d="M 544 1381 
L 544 3500 
L 1119 3500 
L 1119 1403 
Q 1119 906 1312 657 
Q 1506 409 1894 409 
Q 2359 409 2629 706 
Q 2900 1003 2900 1516 
L 2900 3500 
L 3475 3500 
L 3475 0 
L 2900 0 
L 2900 538 
Q 2691 219 2414 64 
Q 2138 -91 1772 -91 
Q 1169 -91 856 284 
Q 544 659 544 1381 
z
M 1991 3584 
L 1991 3584 
z
" id="DejaVuSans-75" transform="scale(0.015625)"/>
      </defs>
      <use xlink:href="#DejaVuSans-54"/>
      <use x="46.333984" xlink:href="#DejaVuSans-72"/>
      <use x="87.447266" xlink:href="#DejaVuSans-75"/>
      <use x="150.826172" xlink:href="#DejaVuSans-65"/>
      <use x="212.349609" xlink:href="#DejaVuSans-20"/>
      <use x="244.136719" xlink:href="#DejaVuSans-70"/>
      <use x="307.613281" xlink:href="#DejaVuSans-6f"/>
      <use x="368.794922" xlink:href="#DejaVuSans-73"/>
      <use x="420.894531" xlink:href="#DejaVuSans-69"/>
      <use x="448.677734" xlink:href="#DejaVuSans-74"/>
      <use x="487.886719" xlink:href="#DejaVuSans-69"/>
      <use x="515.669922" xlink:href="#DejaVuSans-76"/>
      <use x="574.849609" xlink:href="#DejaVuSans-65"/>
      <use x="636.373047" xlink:href="#DejaVuSans-20"/>
      <use x="668.160156" xlink:href="#DejaVuSans-72"/>
      <use x="709.273438" xlink:href="#DejaVuSans-61"/>
      <use x="770.552734" xlink:href="#DejaVuSans-74"/>
      <use x="809.761719" xlink:href="#DejaVuSans-65"/>
     </g>
    </g>
   </g>
   <g id="line2d_13">
    <path clip-path="url(#pb6fbc5aa91)" d="M 92.290909 302.645455 
L 92.299518 302.57051 
L 92.456318 301.633708 
L 92.4803 301.558764 
L 92.680758 300.921739 
L 92.795745 300.434602 
L 92.933484 299.797576 
L 92.962384 299.722632 
L 94.2998 295.825536 
L 94.433849 295.563231 
L 94.575892 295.113566 
L 97.609214 286.120266 
L 97.733424 286.00785 
L 97.999678 285.183464 
L 98.542023 283.572165 
L 98.572153 283.422276 
L 100.459909 279.112987 
L 100.759367 278.475962 
L 100.794416 278.475962 
L 100.881118 278.213657 
L 100.935844 278.101241 
L 105.250625 268.246083 
L 105.618953 267.871362 
L 105.730251 267.496642 
L 106.126249 266.784672 
L 106.426937 265.922814 
L 106.446614 265.922814 
L 106.69565 265.285789 
L 106.868438 265.098428 
L 107.071356 264.798652 
L 107.116859 264.76118 
L 107.182039 264.648763 
L 107.869502 263.674489 
L 108.089637 263.112408 
L 108.36081 262.887575 
L 108.789398 262.43791 
L 108.839205 262.362966 
L 109.015683 261.988246 
L 109.32006 261.426164 
L 109.560487 260.976499 
L 109.718518 260.714195 
L 109.807679 260.676723 
L 109.981697 260.152113 
L 110.008752 260.077169 
L 111.416883 257.791372 
L 111.507888 257.56654 
L 111.770452 257.004459 
L 112.166451 256.367433 
L 112.208264 256.367433 
L 112.606722 255.393159 
L 112.798572 255.018438 
L 112.918478 254.793606 
L 112.931391 254.793606 
L 113.466972 254.194052 
L 114.397937 252.058144 
L 114.446515 251.870783 
L 114.769339 251.233758 
L 114.771184 251.196286 
L 115.057729 250.746621 
L 115.078021 250.709149 
L 116.041575 248.685656 
L 116.317667 248.348408 
L 116.855708 247.411606 
L 116.915969 247.336661 
L 117.619419 246.249971 
L 119.429081 243.626925 
L 119.497951 243.551981 
L 119.730384 243.102316 
L 119.826924 243.102316 
L 119.861359 242.9899 
L 120.377263 242.053098 
L 120.409238 242.053098 
L 120.554971 241.453545 
L 120.590635 241.453545 
L 121.241818 240.142022 
L 121.564643 239.879717 
L 122.132199 238.905443 
L 122.25764 238.867971 
L 122.464862 238.49325 
L 122.566322 238.380834 
L 122.705905 238.30589 
L 122.83565 238.193473 
L 122.860861 238.193473 
L 123.203362 237.518976 
L 123.586447 237.106783 
L 123.795515 236.956895 
L 123.925874 236.769534 
L 124.274525 236.432286 
L 124.579517 235.79526 
L 124.635474 235.757788 
L 125.675891 234.558681 
L 126.407627 233.434519 
L 126.552129 233.359575 
L 126.981947 232.572661 
L 129.003751 230.324336 
L 129.052329 230.286864 
L 129.705357 229.425006 
L 130.13456 228.900397 
L 130.194206 228.825453 
L 131.16022 227.476458 
L 131.282586 227.064265 
L 131.540845 226.80196 
L 131.697646 226.577128 
L 132.11578 226.202407 
L 132.443524 225.602854 
L 132.46935 225.52791 
L 132.550518 225.378021 
L 133.118074 224.441219 
L 133.134061 224.366275 
L 133.324682 224.178915 
L 133.33452 224.178915 
L 133.766798 223.879138 
L 134.467173 222.867392 
L 134.606142 222.792448 
L 135.018742 222.417727 
L 136.250395 221.368509 
L 136.710343 220.694011 
L 137.129093 220.244346 
L 137.133397 220.206874 
L 138.23469 219.120184 
L 138.352752 218.857879 
L 138.377348 218.820407 
L 138.68603 218.52063 
L 138.839756 218.258326 
L 139.515535 217.321524 
L 139.631752 217.24658 
L 139.67787 217.134163 
L 140.782237 215.335503 
L 140.910137 215.260559 
L 140.955025 215.148143 
L 141.685531 214.061453 
L 141.78699 213.986508 
L 142.040946 213.686732 
L 142.171305 213.574315 
L 142.617111 213.199595 
L 143.414026 212.337737 
L 143.490274 212.150376 
L 143.763907 211.888072 
L 143.851838 211.813128 
L 144.73484 210.314244 
L 144.803709 210.2393 
L 144.818467 210.201828 
L 145.255049 209.414914 
L 146.6269 208.290752 
L 146.981699 207.766143 
L 147.037655 207.766143 
L 147.837646 206.679452 
L 147.991986 206.417148 
L 148.036874 206.417148 
L 148.814728 205.55529 
L 148.989361 205.517818 
L 149.413644 204.993209 
L 149.495427 204.880792 
L 149.901263 204.506072 
L 149.951071 204.431127 
L 150.444838 204.056407 
L 151.767497 202.66994 
L 152.474022 202.182803 
L 152.48263 202.070386 
L 154.387603 199.634701 
L 154.495826 199.447341 
L 154.942246 198.960203 
L 155.276754 198.622955 
L 155.424331 198.473066 
L 155.491355 198.398122 
L 155.513492 198.36065 
L 156.181893 197.873513 
L 156.434618 197.573736 
L 157.270888 196.636934 
L 157.350825 196.56199 
L 157.368657 196.524518 
L 157.869189 195.737604 
L 158.140362 195.587716 
L 158.626751 194.76333 
L 158.787241 194.426082 
L 159.084854 194.163777 
L 159.851025 193.414335 
L 160.1677 193.114559 
L 160.376768 192.889726 
L 160.848399 192.402589 
L 161.368608 191.840508 
L 162.406566 190.79129 
L 162.670359 190.379097 
L 162.786576 190.004376 
L 163.40394 189.36735 
L 163.600094 188.99263 
L 163.69233 188.767797 
L 164.390246 187.756051 
L 164.667568 187.681107 
L 165.149652 187.081553 
L 165.567172 186.519472 
L 165.64711 186.407056 
L 166.038803 185.957391 
L 166.117511 185.882447 
L 166.219585 185.770031 
L 166.332728 185.657614 
L 166.662931 185.357838 
L 166.870154 185.207949 
L 167.236636 184.533452 
L 167.414344 184.458508 
L 167.738398 184.121259 
L 168.001577 184.046315 
L 168.698878 183.184457 
L 168.834157 182.959624 
L 169.030311 182.88468 
L 169.053063 182.809736 
L 171.301767 179.849442 
L 171.850876 179.474721 
L 172.575233 178.537919 
L 172.681611 178.462975 
L 172.800903 178.38803 
L 172.821194 178.313086 
L 172.87838 178.275614 
L 173.327875 177.788477 
L 173.466844 177.788477 
L 174.277287 176.926619 
L 174.304343 176.926619 
L 174.437777 176.814203 
L 174.885427 176.21465 
L 174.99488 176.139706 
L 175.082196 175.989817 
L 175.680498 175.615096 
L 176.737518 174.453462 
L 177.340739 174.303573 
L 177.865867 173.816436 
L 177.885544 173.816436 
L 178.277237 173.254355 
L 178.440802 173.179411 
L 178.510286 173.066995 
L 179.058165 172.654802 
L 179.144252 172.542386 
L 179.878447 171.980304 
L 179.987285 171.830416 
L 180.181595 171.680528 
L 180.589891 171.418223 
L 180.790965 171.230863 
L 181.696104 170.369005 
L 181.948214 170.069228 
L 181.965431 170.069228 
L 182.388485 169.806924 
L 182.531143 169.769452 
L 182.928986 169.469675 
L 183.018762 169.394731 
L 184.626121 168.045736 
L 184.680233 167.970792 
L 185.021504 167.521127 
L 185.27177 167.446182 
L 185.273615 167.40871 
L 186.965831 165.684995 
L 187.412251 165.160385 
L 187.427624 165.160385 
L 187.465748 165.010497 
L 188.035764 164.748193 
L 188.116316 164.560832 
L 189.901382 163.43667 
L 189.937662 163.361726 
L 191.291065 161.712954 
L 191.51489 161.338233 
L 191.593598 161.338233 
L 191.964385 160.888568 
L 192.490128 160.626264 
L 192.726251 160.326487 
L 193.195423 159.876822 
L 193.339925 159.801878 
L 193.604334 159.464629 
L 193.697185 159.239797 
L 195.953882 157.591025 
L 196.009838 157.516081 
L 196.186931 157.441137 
L 196.284086 157.366192 
L 196.341272 157.291248 
L 196.673935 157.14136 
L 197.144951 156.654223 
L 197.315895 156.579279 
L 197.990444 156.092142 
L 200.914313 154.143593 
L 200.963505 153.993705 
L 201.550738 153.506568 
L 201.931979 152.869543 
L 202.086935 152.682182 
L 202.142891 152.607238 
L 202.726435 152.344933 
L 202.995763 151.895268 
L 203.247258 151.857796 
L 203.355481 151.74538 
L 203.87446 151.445603 
L 204.012814 151.370659 
L 206.348834 149.684416 
L 206.458902 149.609471 
L 206.478579 149.609471 
L 206.883801 149.309695 
L 207.482102 148.785086 
L 207.592785 148.672669 
L 210.030264 146.3494 
L 210.258394 146.16204 
L 210.749087 145.899735 
L 210.85608 145.787319 
L 211.27237 145.562487 
L 211.533704 145.225238 
L 211.548462 145.225238 
L 212.581501 144.475796 
L 212.805941 144.400852 
L 214.135363 142.714608 
L 215.763014 141.740334 
L 215.831268 141.702862 
L 215.872467 141.627918 
L 216.455396 141.028365 
L 218.819087 139.379593 
L 218.947602 139.229705 
L 219.34237 138.892456 
L 219.582798 138.854984 
L 220.392011 138.143014 
L 220.506998 138.030598 
L 221.108374 137.543461 
L 221.336504 137.505989 
L 223.233483 135.894689 
L 223.794275 135.707329 
L 224.141081 135.445024 
L 224.685886 135.18272 
L 224.78919 135.107776 
L 224.984114 134.920415 
L 225.032077 134.845471 
L 225.580571 134.170974 
L 225.637142 134.133502 
L 228.390067 132.709562 
L 228.655706 132.67209 
L 228.709817 132.597146 
L 229.362845 132.259897 
L 230.026327 131.697816 
L 230.029401 131.697816 
L 230.99603 131.060791 
L 231.138073 130.985847 
L 231.217396 130.87343 
L 231.812008 130.386293 
L 231.852592 130.348821 
L 232.365422 130.123989 
L 232.494551 129.899156 
L 233.070716 129.486963 
L 233.118679 129.412019 
L 237.408249 126.788973 
L 237.542913 126.714029 
L 237.674503 126.676557 
L 238.729063 126.00206 
L 239.935505 125.402506 
L 240.065864 125.327562 
L 240.185156 125.252618 
L 241.049096 124.690537 
L 241.323343 124.615593 
L 241.43464 124.353288 
L 242.603573 123.716263 
L 242.727783 123.641319 
L 243.255371 123.229126 
L 243.377737 123.079237 
L 243.762052 122.816933 
L 244.038759 122.704517 
L 244.573725 122.254852 
L 244.971568 122.179907 
L 244.99309 122.142435 
L 245.237207 121.955075 
L 245.820751 121.580354 
L 245.902533 121.355522 
L 246.460251 120.905857 
L 246.522356 120.830912 
L 246.931882 120.568608 
L 247.125577 120.493664 
L 247.497594 120.343775 
L 247.826567 120.081471 
L 247.833331 120.081471 
L 248.32341 119.744222 
L 248.462993 119.669278 
L 249.298647 119.257085 
L 249.438846 119.182141 
L 249.662056 118.99478 
L 250.214239 118.507643 
L 250.608393 118.357755 
L 250.815001 118.207867 
L 251.294011 118.057978 
L 251.415762 117.945562 
L 251.880014 117.72073 
L 251.987623 117.683258 
L 252.270478 117.608313 
L 252.366403 117.533369 
L 252.543496 117.458425 
L 252.648029 117.308537 
L 253.296753 116.971288 
L 253.296753 116.933816 
L 253.300443 116.933816 
L 254.446009 116.446679 
L 254.560381 116.409207 
L 254.948385 116.259318 
L 255.153148 115.959542 
L 256.920997 115.02274 
L 257.012003 114.985268 
L 257.618298 114.610547 
L 257.967564 114.348242 
L 258.204917 114.273298 
L 258.820436 113.861105 
L 259.206595 113.673745 
L 259.700363 113.336496 
L 259.787065 113.261552 
L 260.276528 112.961775 
L 260.395205 112.849359 
L 261.021177 112.362222 
L 261.316331 112.32475 
L 261.96567 112.062445 
L 261.972433 112.062445 
L 262.44099 111.762669 
L 262.681418 111.650252 
L 263.215154 111.050699 
L 263.311694 111.050699 
L 263.895238 110.825866 
L 263.94689 110.825866 
L 264.547036 110.226313 
L 265.19699 110.001481 
L 265.731956 109.739176 
L 265.811279 109.701704 
L 266.174687 109.439399 
L 266.357929 109.252039 
L 266.519034 109.252039 
L 267.730394 108.615014 
L 268.358826 108.090404 
L 268.824923 107.715684 
L 268.915314 107.64074 
L 268.953438 107.528323 
L 269.467498 107.228547 
L 269.594783 107.191075 
L 270.038129 106.92877 
L 270.263799 106.628993 
L 270.911908 106.254272 
L 270.936504 106.2168 
L 271.522507 105.917024 
L 272.641018 105.31747 
L 272.765228 105.31747 
L 273.23071 104.980222 
L 273.352461 104.980222 
L 274.240998 104.343196 
L 274.434692 104.305724 
L 274.467282 104.23078 
L 275.729065 103.481338 
L 275.777028 103.443866 
L 277.484001 102.544536 
L 277.58792 102.207288 
L 278.16347 102.019927 
L 279.115957 101.495318 
L 279.322564 101.195541 
L 279.370527 101.195541 
L 280.963743 100.371156 
L 281.183879 100.296211 
L 282.170185 99.958963 
L 282.42414 99.73413 
L 283.092541 99.359409 
L 283.781233 99.134577 
L 285.301891 97.897998 
L 285.574293 97.860526 
L 289.061414 95.874506 
L 293.353443 94.300678 
L 293.680572 94.225734 
L 294.509463 93.851013 
L 294.563574 93.813541 
L 294.651506 93.626181 
L 294.883324 93.43882 
L 296.207213 92.839267 
L 296.668391 92.614435 
L 296.792601 92.614435 
L 298.339085 91.827521 
L 298.463295 91.752577 
L 298.701263 91.565216 
L 299.58734 91.340384 
L 299.710321 91.302912 
L 299.964891 91.115551 
L 300.60931 90.928191 
L 301.019451 90.628414 
L 301.249425 90.590942 
L 302.899213 89.804028 
L 303.17592 89.804028 
L 304.241548 89.316891 
L 305.086426 89.241947 
L 305.097495 89.204475 
L 306.929908 88.529978 
L 306.971107 88.492506 
L 308.759248 87.892952 
L 308.87116 87.818008 
L 309.308357 87.780536 
L 309.557393 87.593176 
L 310.08867 87.405815 
L 310.588587 87.330871 
L 310.701115 87.255927 
L 310.806263 87.255927 
L 311.858979 86.581429 
L 311.972736 86.469013 
L 312.338604 86.394069 
L 312.530454 86.319125 
L 312.663888 86.319125 
L 313.267109 86.094292 
L 313.890007 85.906932 
L 313.951497 85.86946 
L 314.820356 85.457267 
L 314.878772 85.307379 
L 314.929194 85.307379 
L 315.156094 85.232434 
L 315.771613 85.082546 
L 315.793749 85.082546 
L 316.181139 84.782769 
L 316.456001 84.745297 
L 317.304568 84.370577 
L 317.431239 84.295632 
L 317.544996 84.220688 
L 317.673511 84.183216 
L 318.270583 83.920912 
L 318.292104 83.883439 
L 319.517608 83.433775 
L 319.536055 83.396302 
L 320.65395 82.98411 
L 320.746186 82.946637 
L 320.756639 82.871693 
L 321.277463 82.496972 
L 321.414587 82.496972 
L 321.857317 82.27214 
L 322.244092 82.197196 
L 322.35662 82.08478 
L 322.976443 81.859947 
L 323.250075 81.672587 
L 324.463895 81.073033 
L 324.837757 80.773257 
L 325.344438 80.698313 
L 325.436059 80.66084 
L 325.966721 80.585896 
L 326.688003 80.510952 
L 327.22297 80.28612 
L 327.519968 80.211175 
L 327.587608 80.173703 
L 328.413424 79.836455 
L 328.540709 79.76151 
L 328.850006 79.686566 
L 329.94515 79.311845 
L 330.158521 79.161957 
L 330.176353 79.161957 
L 330.671351 78.787236 
L 331.197709 78.712292 
L 332.480399 78.187683 
L 332.699305 78.112739 
L 333.135886 77.925378 
L 333.257637 77.925378 
L 333.97646 77.663074 
L 335.582589 77.325825 
L 335.689583 77.288353 
L 336.898484 77.213409 
L 337.066968 77.138465 
L 337.691095 76.988576 
L 338.363185 76.801216 
L 339.409752 76.351551 
L 339.537037 76.314079 
L 339.620664 76.239135 
L 340.055401 76.051774 
L 340.296443 76.051774 
L 340.883677 75.864414 
L 341.217569 75.78947 
L 341.330097 75.714526 
L 341.539164 75.677054 
L 341.601269 75.602109 
L 342.213714 75.339805 
L 342.245074 75.264861 
L 345.363252 74.253114 
L 345.419208 74.215642 
L 349.579034 73.016536 
L 349.665735 72.979064 
L 350.287403 72.904119 
L 350.516147 72.791703 
L 351.088623 72.716759 
L 351.190697 72.679287 
L 351.532584 72.641815 
L 351.707831 72.529399 
L 352.143798 72.454454 
L 352.274158 72.416982 
L 352.862006 72.342038 
L 353.25616 72.267094 
L 353.89074 71.967317 
L 353.962069 71.929845 
L 354.520402 71.817429 
L 356.849658 71.405236 
L 356.924677 71.330292 
L 357.232744 71.29282 
L 357.789847 71.10546 
L 357.901144 71.030515 
L 358.374005 70.880627 
L 358.497601 70.805683 
L 358.880686 70.730739 
L 359.012891 70.618322 
L 359.441479 70.543378 
L 359.597049 70.356018 
L 359.712651 70.356018 
L 360.162761 70.168657 
L 360.726628 70.093713 
L 360.819479 70.056241 
L 361.682189 69.906353 
L 361.830381 69.868881 
L 362.367192 69.756465 
L 362.421303 69.718992 
L 363.40269 69.344272 
L 363.592081 69.231855 
L 364.392071 69.156911 
L 364.868006 69.007023 
L 365.419575 68.932079 
L 365.64832 68.857135 
L 366.348695 68.78219 
L 366.726246 68.707246 
L 367.225548 68.59483 
L 367.533615 68.519886 
L 368.532219 68.369998 
L 369.544966 68.295053 
L 370.143883 68.182637 
L 370.908823 68.145165 
L 372.21242 67.807916 
L 372.834087 67.470668 
L 373.77981 67.358251 
L 374.383031 67.283307 
L 374.461123 67.208363 
L 374.683104 67.133419 
L 375.755496 66.908586 
L 376.352568 66.79617 
L 376.91705 66.721226 
L 376.994528 66.683754 
L 377.297061 66.683754 
L 379.098729 66.121673 
L 379.455988 66.046728 
L 379.570976 66.009256 
L 379.775124 65.934312 
L 380.411549 65.784424 
L 381.439054 65.70948 
L 381.614301 65.672008 
L 382.168945 65.597063 
L 382.8066 65.447175 
L 383.436262 65.372231 
L 383.680379 65.259815 
L 386.272199 64.81015 
L 387.193325 64.697733 
L 388.690617 64.622789 
L 388.919976 64.547845 
L 390.04525 64.397957 
L 390.881519 64.323013 
L 395.36171 63.685987 
L 395.991986 63.461155 
L 396.67207 63.311266 
L 397.24885 63.123906 
L 397.34539 63.086434 
L 397.997803 62.936546 
L 400.705225 62.486881 
L 402.071542 62.411936 
L 402.699974 62.336992 
L 403.26876 62.149632 
L 404.738381 62.074688 
L 404.769126 62.037216 
L 405.816922 61.812383 
L 407.223823 61.737439 
L 407.373859 61.699967 
L 408.168315 61.662495 
L 408.831796 61.475134 
L 412.115999 61.062942 
L 412.29801 60.987997 
L 412.97502 60.950525 
L 415.384828 60.575804 
L 416.705027 60.50086 
L 416.807101 60.463388 
L 417.698712 60.388444 
L 417.794022 60.350972 
L 422.344312 59.826363 
L 422.443926 59.788891 
L 422.533087 59.751419 
L 422.997954 59.713947 
L 423.212556 59.60153 
L 425.899686 59.264282 
L 425.920593 59.226809 
L 426.986222 59.151865 
L 427.202053 59.076921 
L 428.544388 59.001977 
L 428.645848 58.964505 
L 430.510236 58.889561 
L 431.174333 58.814617 
L 431.361264 58.777145 
L 434.147393 58.364952 
L 436.072043 58.290007 
L 436.325383 58.252535 
L 436.966728 58.177591 
L 437.167802 58.027703 
L 437.909991 57.990231 
L 438.634348 57.877815 
L 442.358206 57.652982 
L 444.590308 57.578038 
L 444.796301 57.540566 
L 446.435635 57.465622 
L 447.261451 57.390677 
L 448.917387 57.315733 
L 452.162235 56.941012 
L 453.76406 56.90354 
L 455.389866 56.753652 
L 457.99214 56.678708 
L 459.651151 56.52882 
L 473.061592 55.966738 
L 475.480009 55.929266 
L 478.083513 55.81685 
L 482.379232 55.741906 
L 492.665346 55.554545 
L 498.109091 55.554545 
L 498.109091 55.554545 
" style="fill:none;stroke:#2b667c;stroke-linecap:square;stroke-width:1.5;"/>
   </g>
   <g id="line2d_14">
    <path clip-path="url(#pb6fbc5aa91)" d="M 92.290909 302.645455 
L 498.109091 55.554545 
" style="fill:none;stroke:#ff0000;stroke-linecap:square;stroke-width:1.5;"/>
   </g>
   <g id="patch_3">
    <path d="M 72 315 
L 72 43.2 
" style="fill:none;stroke:#000000;stroke-linecap:square;stroke-linejoin:miter;stroke-width:0.8;"/>
   </g>
   <g id="patch_4">
    <path d="M 518.4 315 
L 518.4 43.2 
" style="fill:none;stroke:#000000;stroke-linecap:square;stroke-linejoin:miter;stroke-width:0.8;"/>
   </g>
   <g id="patch_5">
    <path d="M 72 315 
L 518.4 315 
" style="fill:none;stroke:#000000;stroke-linecap:square;stroke-linejoin:miter;stroke-width:0.8;"/>
   </g>
   <g id="patch_6">
    <path d="M 72 43.2 
L 518.4 43.2 
" style="fill:none;stroke:#000000;stroke-linecap:square;stroke-linejoin:miter;stroke-width:0.8;"/>
   </g>
  </g>
  <g id="text_15">
   <!-- ROC Curve -->
   <g transform="translate(244.4125 19.3575)scale(0.16 -0.16)">
    <defs>
     <path d="M 2841 2188 
Q 3044 2119 3236 1894 
Q 3428 1669 3622 1275 
L 4263 0 
L 3584 0 
L 2988 1197 
Q 2756 1666 2539 1819 
Q 2322 1972 1947 1972 
L 1259 1972 
L 1259 0 
L 628 0 
L 628 4666 
L 2053 4666 
Q 2853 4666 3247 4331 
Q 3641 3997 3641 3322 
Q 3641 2881 3436 2590 
Q 3231 2300 2841 2188 
z
M 1259 4147 
L 1259 2491 
L 2053 2491 
Q 2509 2491 2742 2702 
Q 2975 2913 2975 3322 
Q 2975 3731 2742 3939 
Q 2509 4147 2053 4147 
L 1259 4147 
z
" id="DejaVuSans-52" transform="scale(0.015625)"/>
     <path d="M 2522 4238 
Q 1834 4238 1429 3725 
Q 1025 3213 1025 2328 
Q 1025 1447 1429 934 
Q 1834 422 2522 422 
Q 3209 422 3611 934 
Q 4013 1447 4013 2328 
Q 4013 3213 3611 3725 
Q 3209 4238 2522 4238 
z
M 2522 4750 
Q 3503 4750 4090 4092 
Q 4678 3434 4678 2328 
Q 4678 1225 4090 567 
Q 3503 -91 2522 -91 
Q 1538 -91 948 565 
Q 359 1222 359 2328 
Q 359 3434 948 4092 
Q 1538 4750 2522 4750 
z
" id="DejaVuSans-4f" transform="scale(0.015625)"/>
     <path d="M 4122 4306 
L 4122 3641 
Q 3803 3938 3442 4084 
Q 3081 4231 2675 4231 
Q 1875 4231 1450 3742 
Q 1025 3253 1025 2328 
Q 1025 1406 1450 917 
Q 1875 428 2675 428 
Q 3081 428 3442 575 
Q 3803 722 4122 1019 
L 4122 359 
Q 3791 134 3420 21 
Q 3050 -91 2638 -91 
Q 1578 -91 968 557 
Q 359 1206 359 2328 
Q 359 3453 968 4101 
Q 1578 4750 2638 4750 
Q 3056 4750 3426 4639 
Q 3797 4528 4122 4306 
z
" id="DejaVuSans-43" transform="scale(0.015625)"/>
    </defs>
    <use xlink:href="#DejaVuSans-52"/>
    <use x="69.482422" xlink:href="#DejaVuSans-4f"/>
    <use x="148.193359" xlink:href="#DejaVuSans-43"/>
    <use x="218.017578" xlink:href="#DejaVuSans-20"/>
    <use x="249.804688" xlink:href="#DejaVuSans-43"/>
    <use x="319.628906" xlink:href="#DejaVuSans-75"/>
    <use x="383.007812" xlink:href="#DejaVuSans-72"/>
    <use x="424.121094" xlink:href="#DejaVuSans-76"/>
    <use x="483.300781" xlink:href="#DejaVuSans-65"/>
   </g>
  </g>
 </g>
 <defs>
  <clipPath id="pb6fbc5aa91">
   <rect height="271.8" width="446.4" x="72" y="43.2"/>
  </clipPath>
 </defs>
</svg>
