<?xml version="1.0" encoding="utf-8" standalone="no"?>
<!DOCTYPE svg PUBLIC "-//W3C//DTD SVG 1.1//EN"
  "http://www.w3.org/Graphics/SVG/1.1/DTD/svg11.dtd">
<svg height="360pt" version="1.1" viewBox="0 0 576 360" width="576pt" xmlns="http://www.w3.org/2000/svg" xmlns:xlink="http://www.w3.org/1999/xlink">
 <metadata>
  <rdf:RDF xmlns:cc="http://creativecommons.org/ns#" xmlns:dc="http://purl.org/dc/elements/1.1/" xmlns:rdf="http://www.w3.org/1999/02/22-rdf-syntax-ns#">
   <cc:Work>
    <dc:type rdf:resource="http://purl.org/dc/dcmitype/StillImage"/>
    <dc:date>2022-01-04T18:21:34.670865</dc:date>
    <dc:format>image/svg+xml</dc:format>
    <dc:creator>
     <cc:Agent>
      <dc:title>Matplotlib v3.4.3, https://matplotlib.org/</dc:title>
     </cc:Agent>
    </dc:creator>
   </cc:Work>
  </rdf:RDF>
 </metadata>
 <defs>
  <style type="text/css">*{stroke-linecap:butt;stroke-linejoin:round;}</style>
 </defs>
 <g id="figure_1">
  <g id="patch_1">
   <path d="M 0 360 
L 576 360 
L 576 0 
L 0 0 
z
" style="fill:none;"/>
  </g>
  <g id="axes_1">
   <g id="patch_2">
    <path d="M 72 315 
L 518.4 315 
L 518.4 43.2 
L 72 43.2 
z
" style="fill:#ffffff;"/>
   </g>
   <g id="matplotlib.axis_1">
    <g id="xtick_1">
     <g id="line2d_1">
      <defs>
       <path d="M 0 0 
L 0 3.5 
" id="m13d4bfef4d" style="stroke:#000000;stroke-width:0.8;"/>
      </defs>
      <g>
       <use style="stroke:#000000;stroke-width:0.8;" x="92.290909" xlink:href="#m13d4bfef4d" y="315"/>
      </g>
     </g>
     <g id="text_1">
      <!-- 0.0 -->
      <g transform="translate(84.339347 329.598437)scale(0.1 -0.1)">
       <defs>
        <path d="M 2034 4250 
Q 1547 4250 1301 3770 
Q 1056 3291 1056 2328 
Q 1056 1369 1301 889 
Q 1547 409 2034 409 
Q 2525 409 2770 889 
Q 3016 1369 3016 2328 
Q 3016 3291 2770 3770 
Q 2525 4250 2034 4250 
z
M 2034 4750 
Q 2819 4750 3233 4129 
Q 3647 3509 3647 2328 
Q 3647 1150 3233 529 
Q 2819 -91 2034 -91 
Q 1250 -91 836 529 
Q 422 1150 422 2328 
Q 422 3509 836 4129 
Q 1250 4750 2034 4750 
z
" id="DejaVuSans-30" transform="scale(0.015625)"/>
        <path d="M 684 794 
L 1344 794 
L 1344 0 
L 684 0 
L 684 794 
z
" id="DejaVuSans-2e" transform="scale(0.015625)"/>
       </defs>
       <use xlink:href="#DejaVuSans-30"/>
       <use x="63.623047" xlink:href="#DejaVuSans-2e"/>
       <use x="95.410156" xlink:href="#DejaVuSans-30"/>
      </g>
     </g>
    </g>
    <g id="xtick_2">
     <g id="line2d_2">
      <g>
       <use style="stroke:#000000;stroke-width:0.8;" x="173.454545" xlink:href="#m13d4bfef4d" y="315"/>
      </g>
     </g>
     <g id="text_2">
      <!-- 0.2 -->
      <g transform="translate(165.502983 329.598437)scale(0.1 -0.1)">
       <defs>
        <path d="M 1228 531 
L 3431 531 
L 3431 0 
L 469 0 
L 469 531 
Q 828 903 1448 1529 
Q 2069 2156 2228 2338 
Q 2531 2678 2651 2914 
Q 2772 3150 2772 3378 
Q 2772 3750 2511 3984 
Q 2250 4219 1831 4219 
Q 1534 4219 1204 4116 
Q 875 4013 500 3803 
L 500 4441 
Q 881 4594 1212 4672 
Q 1544 4750 1819 4750 
Q 2544 4750 2975 4387 
Q 3406 4025 3406 3419 
Q 3406 3131 3298 2873 
Q 3191 2616 2906 2266 
Q 2828 2175 2409 1742 
Q 1991 1309 1228 531 
z
" id="DejaVuSans-32" transform="scale(0.015625)"/>
       </defs>
       <use xlink:href="#DejaVuSans-30"/>
       <use x="63.623047" xlink:href="#DejaVuSans-2e"/>
       <use x="95.410156" xlink:href="#DejaVuSans-32"/>
      </g>
     </g>
    </g>
    <g id="xtick_3">
     <g id="line2d_3">
      <g>
       <use style="stroke:#000000;stroke-width:0.8;" x="254.618182" xlink:href="#m13d4bfef4d" y="315"/>
      </g>
     </g>
     <g id="text_3">
      <!-- 0.4 -->
      <g transform="translate(246.666619 329.598437)scale(0.1 -0.1)">
       <defs>
        <path d="M 2419 4116 
L 825 1625 
L 2419 1625 
L 2419 4116 
z
M 2253 4666 
L 3047 4666 
L 3047 1625 
L 3713 1625 
L 3713 1100 
L 3047 1100 
L 3047 0 
L 2419 0 
L 2419 1100 
L 313 1100 
L 313 1709 
L 2253 4666 
z
" id="DejaVuSans-34" transform="scale(0.015625)"/>
       </defs>
       <use xlink:href="#DejaVuSans-30"/>
       <use x="63.623047" xlink:href="#DejaVuSans-2e"/>
       <use x="95.410156" xlink:href="#DejaVuSans-34"/>
      </g>
     </g>
    </g>
    <g id="xtick_4">
     <g id="line2d_4">
      <g>
       <use style="stroke:#000000;stroke-width:0.8;" x="335.781818" xlink:href="#m13d4bfef4d" y="315"/>
      </g>
     </g>
     <g id="text_4">
      <!-- 0.6 -->
      <g transform="translate(327.830256 329.598437)scale(0.1 -0.1)">
       <defs>
        <path d="M 2113 2584 
Q 1688 2584 1439 2293 
Q 1191 2003 1191 1497 
Q 1191 994 1439 701 
Q 1688 409 2113 409 
Q 2538 409 2786 701 
Q 3034 994 3034 1497 
Q 3034 2003 2786 2293 
Q 2538 2584 2113 2584 
z
M 3366 4563 
L 3366 3988 
Q 3128 4100 2886 4159 
Q 2644 4219 2406 4219 
Q 1781 4219 1451 3797 
Q 1122 3375 1075 2522 
Q 1259 2794 1537 2939 
Q 1816 3084 2150 3084 
Q 2853 3084 3261 2657 
Q 3669 2231 3669 1497 
Q 3669 778 3244 343 
Q 2819 -91 2113 -91 
Q 1303 -91 875 529 
Q 447 1150 447 2328 
Q 447 3434 972 4092 
Q 1497 4750 2381 4750 
Q 2619 4750 2861 4703 
Q 3103 4656 3366 4563 
z
" id="DejaVuSans-36" transform="scale(0.015625)"/>
       </defs>
       <use xlink:href="#DejaVuSans-30"/>
       <use x="63.623047" xlink:href="#DejaVuSans-2e"/>
       <use x="95.410156" xlink:href="#DejaVuSans-36"/>
      </g>
     </g>
    </g>
    <g id="xtick_5">
     <g id="line2d_5">
      <g>
       <use style="stroke:#000000;stroke-width:0.8;" x="416.945455" xlink:href="#m13d4bfef4d" y="315"/>
      </g>
     </g>
     <g id="text_5">
      <!-- 0.8 -->
      <g transform="translate(408.993892 329.598437)scale(0.1 -0.1)">
       <defs>
        <path d="M 2034 2216 
Q 1584 2216 1326 1975 
Q 1069 1734 1069 1313 
Q 1069 891 1326 650 
Q 1584 409 2034 409 
Q 2484 409 2743 651 
Q 3003 894 3003 1313 
Q 3003 1734 2745 1975 
Q 2488 2216 2034 2216 
z
M 1403 2484 
Q 997 2584 770 2862 
Q 544 3141 544 3541 
Q 544 4100 942 4425 
Q 1341 4750 2034 4750 
Q 2731 4750 3128 4425 
Q 3525 4100 3525 3541 
Q 3525 3141 3298 2862 
Q 3072 2584 2669 2484 
Q 3125 2378 3379 2068 
Q 3634 1759 3634 1313 
Q 3634 634 3220 271 
Q 2806 -91 2034 -91 
Q 1263 -91 848 271 
Q 434 634 434 1313 
Q 434 1759 690 2068 
Q 947 2378 1403 2484 
z
M 1172 3481 
Q 1172 3119 1398 2916 
Q 1625 2713 2034 2713 
Q 2441 2713 2670 2916 
Q 2900 3119 2900 3481 
Q 2900 3844 2670 4047 
Q 2441 4250 2034 4250 
Q 1625 4250 1398 4047 
Q 1172 3844 1172 3481 
z
" id="DejaVuSans-38" transform="scale(0.015625)"/>
       </defs>
       <use xlink:href="#DejaVuSans-30"/>
       <use x="63.623047" xlink:href="#DejaVuSans-2e"/>
       <use x="95.410156" xlink:href="#DejaVuSans-38"/>
      </g>
     </g>
    </g>
    <g id="xtick_6">
     <g id="line2d_6">
      <g>
       <use style="stroke:#000000;stroke-width:0.8;" x="498.109091" xlink:href="#m13d4bfef4d" y="315"/>
      </g>
     </g>
     <g id="text_6">
      <!-- 1.0 -->
      <g transform="translate(490.157528 329.598437)scale(0.1 -0.1)">
       <defs>
        <path d="M 794 531 
L 1825 531 
L 1825 4091 
L 703 3866 
L 703 4441 
L 1819 4666 
L 2450 4666 
L 2450 531 
L 3481 531 
L 3481 0 
L 794 0 
L 794 531 
z
" id="DejaVuSans-31" transform="scale(0.015625)"/>
       </defs>
       <use xlink:href="#DejaVuSans-31"/>
       <use x="63.623047" xlink:href="#DejaVuSans-2e"/>
       <use x="95.410156" xlink:href="#DejaVuSans-30"/>
      </g>
     </g>
    </g>
    <g id="text_7">
     <!-- False positive rate -->
     <g transform="translate(249.699219 343.276563)scale(0.1 -0.1)">
      <defs>
       <path d="M 628 4666 
L 3309 4666 
L 3309 4134 
L 1259 4134 
L 1259 2759 
L 3109 2759 
L 3109 2228 
L 1259 2228 
L 1259 0 
L 628 0 
L 628 4666 
z
" id="DejaVuSans-46" transform="scale(0.015625)"/>
       <path d="M 2194 1759 
Q 1497 1759 1228 1600 
Q 959 1441 959 1056 
Q 959 750 1161 570 
Q 1363 391 1709 391 
Q 2188 391 2477 730 
Q 2766 1069 2766 1631 
L 2766 1759 
L 2194 1759 
z
M 3341 1997 
L 3341 0 
L 2766 0 
L 2766 531 
Q 2569 213 2275 61 
Q 1981 -91 1556 -91 
Q 1019 -91 701 211 
Q 384 513 384 1019 
Q 384 1609 779 1909 
Q 1175 2209 1959 2209 
L 2766 2209 
L 2766 2266 
Q 2766 2663 2505 2880 
Q 2244 3097 1772 3097 
Q 1472 3097 1187 3025 
Q 903 2953 641 2809 
L 641 3341 
Q 956 3463 1253 3523 
Q 1550 3584 1831 3584 
Q 2591 3584 2966 3190 
Q 3341 2797 3341 1997 
z
" id="DejaVuSans-61" transform="scale(0.015625)"/>
       <path d="M 603 4863 
L 1178 4863 
L 1178 0 
L 603 0 
L 603 4863 
z
" id="DejaVuSans-6c" transform="scale(0.015625)"/>
       <path d="M 2834 3397 
L 2834 2853 
Q 2591 2978 2328 3040 
Q 2066 3103 1784 3103 
Q 1356 3103 1142 2972 
Q 928 2841 928 2578 
Q 928 2378 1081 2264 
Q 1234 2150 1697 2047 
L 1894 2003 
Q 2506 1872 2764 1633 
Q 3022 1394 3022 966 
Q 3022 478 2636 193 
Q 2250 -91 1575 -91 
Q 1294 -91 989 -36 
Q 684 19 347 128 
L 347 722 
Q 666 556 975 473 
Q 1284 391 1588 391 
Q 1994 391 2212 530 
Q 2431 669 2431 922 
Q 2431 1156 2273 1281 
Q 2116 1406 1581 1522 
L 1381 1569 
Q 847 1681 609 1914 
Q 372 2147 372 2553 
Q 372 3047 722 3315 
Q 1072 3584 1716 3584 
Q 2034 3584 2315 3537 
Q 2597 3491 2834 3397 
z
" id="DejaVuSans-73" transform="scale(0.015625)"/>
       <path d="M 3597 1894 
L 3597 1613 
L 953 1613 
Q 991 1019 1311 708 
Q 1631 397 2203 397 
Q 2534 397 2845 478 
Q 3156 559 3463 722 
L 3463 178 
Q 3153 47 2828 -22 
Q 2503 -91 2169 -91 
Q 1331 -91 842 396 
Q 353 884 353 1716 
Q 353 2575 817 3079 
Q 1281 3584 2069 3584 
Q 2775 3584 3186 3129 
Q 3597 2675 3597 1894 
z
M 3022 2063 
Q 3016 2534 2758 2815 
Q 2500 3097 2075 3097 
Q 1594 3097 1305 2825 
Q 1016 2553 972 2059 
L 3022 2063 
z
" id="DejaVuSans-65" transform="scale(0.015625)"/>
       <path id="DejaVuSans-20" transform="scale(0.015625)"/>
       <path d="M 1159 525 
L 1159 -1331 
L 581 -1331 
L 581 3500 
L 1159 3500 
L 1159 2969 
Q 1341 3281 1617 3432 
Q 1894 3584 2278 3584 
Q 2916 3584 3314 3078 
Q 3713 2572 3713 1747 
Q 3713 922 3314 415 
Q 2916 -91 2278 -91 
Q 1894 -91 1617 61 
Q 1341 213 1159 525 
z
M 3116 1747 
Q 3116 2381 2855 2742 
Q 2594 3103 2138 3103 
Q 1681 3103 1420 2742 
Q 1159 2381 1159 1747 
Q 1159 1113 1420 752 
Q 1681 391 2138 391 
Q 2594 391 2855 752 
Q 3116 1113 3116 1747 
z
" id="DejaVuSans-70" transform="scale(0.015625)"/>
       <path d="M 1959 3097 
Q 1497 3097 1228 2736 
Q 959 2375 959 1747 
Q 959 1119 1226 758 
Q 1494 397 1959 397 
Q 2419 397 2687 759 
Q 2956 1122 2956 1747 
Q 2956 2369 2687 2733 
Q 2419 3097 1959 3097 
z
M 1959 3584 
Q 2709 3584 3137 3096 
Q 3566 2609 3566 1747 
Q 3566 888 3137 398 
Q 2709 -91 1959 -91 
Q 1206 -91 779 398 
Q 353 888 353 1747 
Q 353 2609 779 3096 
Q 1206 3584 1959 3584 
z
" id="DejaVuSans-6f" transform="scale(0.015625)"/>
       <path d="M 603 3500 
L 1178 3500 
L 1178 0 
L 603 0 
L 603 3500 
z
M 603 4863 
L 1178 4863 
L 1178 4134 
L 603 4134 
L 603 4863 
z
" id="DejaVuSans-69" transform="scale(0.015625)"/>
       <path d="M 1172 4494 
L 1172 3500 
L 2356 3500 
L 2356 3053 
L 1172 3053 
L 1172 1153 
Q 1172 725 1289 603 
Q 1406 481 1766 481 
L 2356 481 
L 2356 0 
L 1766 0 
Q 1100 0 847 248 
Q 594 497 594 1153 
L 594 3053 
L 172 3053 
L 172 3500 
L 594 3500 
L 594 4494 
L 1172 4494 
z
" id="DejaVuSans-74" transform="scale(0.015625)"/>
       <path d="M 191 3500 
L 800 3500 
L 1894 563 
L 2988 3500 
L 3597 3500 
L 2284 0 
L 1503 0 
L 191 3500 
z
" id="DejaVuSans-76" transform="scale(0.015625)"/>
       <path d="M 2631 2963 
Q 2534 3019 2420 3045 
Q 2306 3072 2169 3072 
Q 1681 3072 1420 2755 
Q 1159 2438 1159 1844 
L 1159 0 
L 581 0 
L 581 3500 
L 1159 3500 
L 1159 2956 
Q 1341 3275 1631 3429 
Q 1922 3584 2338 3584 
Q 2397 3584 2469 3576 
Q 2541 3569 2628 3553 
L 2631 2963 
z
" id="DejaVuSans-72" transform="scale(0.015625)"/>
      </defs>
      <use xlink:href="#DejaVuSans-46"/>
      <use x="48.394531" xlink:href="#DejaVuSans-61"/>
      <use x="109.673828" xlink:href="#DejaVuSans-6c"/>
      <use x="137.457031" xlink:href="#DejaVuSans-73"/>
      <use x="189.556641" xlink:href="#DejaVuSans-65"/>
      <use x="251.080078" xlink:href="#DejaVuSans-20"/>
      <use x="282.867188" xlink:href="#DejaVuSans-70"/>
      <use x="346.34375" xlink:href="#DejaVuSans-6f"/>
      <use x="407.525391" xlink:href="#DejaVuSans-73"/>
      <use x="459.625" xlink:href="#DejaVuSans-69"/>
      <use x="487.408203" xlink:href="#DejaVuSans-74"/>
      <use x="526.617188" xlink:href="#DejaVuSans-69"/>
      <use x="554.400391" xlink:href="#DejaVuSans-76"/>
      <use x="613.580078" xlink:href="#DejaVuSans-65"/>
      <use x="675.103516" xlink:href="#DejaVuSans-20"/>
      <use x="706.890625" xlink:href="#DejaVuSans-72"/>
      <use x="748.003906" xlink:href="#DejaVuSans-61"/>
      <use x="809.283203" xlink:href="#DejaVuSans-74"/>
      <use x="848.492188" xlink:href="#DejaVuSans-65"/>
     </g>
    </g>
   </g>
   <g id="matplotlib.axis_2">
    <g id="ytick_1">
     <g id="line2d_7">
      <defs>
       <path d="M 0 0 
L -3.5 0 
" id="mc29ca8210f" style="stroke:#000000;stroke-width:0.8;"/>
      </defs>
      <g>
       <use style="stroke:#000000;stroke-width:0.8;" x="72" xlink:href="#mc29ca8210f" y="302.645455"/>
      </g>
     </g>
     <g id="text_8">
      <!-- 0.0 -->
      <g transform="translate(49.096875 306.444673)scale(0.1 -0.1)">
       <use xlink:href="#DejaVuSans-30"/>
       <use x="63.623047" xlink:href="#DejaVuSans-2e"/>
       <use x="95.410156" xlink:href="#DejaVuSans-30"/>
      </g>
     </g>
    </g>
    <g id="ytick_2">
     <g id="line2d_8">
      <g>
       <use style="stroke:#000000;stroke-width:0.8;" x="72" xlink:href="#mc29ca8210f" y="253.227273"/>
      </g>
     </g>
     <g id="text_9">
      <!-- 0.2 -->
      <g transform="translate(49.096875 257.026491)scale(0.1 -0.1)">
       <use xlink:href="#DejaVuSans-30"/>
       <use x="63.623047" xlink:href="#DejaVuSans-2e"/>
       <use x="95.410156" xlink:href="#DejaVuSans-32"/>
      </g>
     </g>
    </g>
    <g id="ytick_3">
     <g id="line2d_9">
      <g>
       <use style="stroke:#000000;stroke-width:0.8;" x="72" xlink:href="#mc29ca8210f" y="203.809091"/>
      </g>
     </g>
     <g id="text_10">
      <!-- 0.4 -->
      <g transform="translate(49.096875 207.60831)scale(0.1 -0.1)">
       <use xlink:href="#DejaVuSans-30"/>
       <use x="63.623047" xlink:href="#DejaVuSans-2e"/>
       <use x="95.410156" xlink:href="#DejaVuSans-34"/>
      </g>
     </g>
    </g>
    <g id="ytick_4">
     <g id="line2d_10">
      <g>
       <use style="stroke:#000000;stroke-width:0.8;" x="72" xlink:href="#mc29ca8210f" y="154.390909"/>
      </g>
     </g>
     <g id="text_11">
      <!-- 0.6 -->
      <g transform="translate(49.096875 158.190128)scale(0.1 -0.1)">
       <use xlink:href="#DejaVuSans-30"/>
       <use x="63.623047" xlink:href="#DejaVuSans-2e"/>
       <use x="95.410156" xlink:href="#DejaVuSans-36"/>
      </g>
     </g>
    </g>
    <g id="ytick_5">
     <g id="line2d_11">
      <g>
       <use style="stroke:#000000;stroke-width:0.8;" x="72" xlink:href="#mc29ca8210f" y="104.972727"/>
      </g>
     </g>
     <g id="text_12">
      <!-- 0.8 -->
      <g transform="translate(49.096875 108.771946)scale(0.1 -0.1)">
       <use xlink:href="#DejaVuSans-30"/>
       <use x="63.623047" xlink:href="#DejaVuSans-2e"/>
       <use x="95.410156" xlink:href="#DejaVuSans-38"/>
      </g>
     </g>
    </g>
    <g id="ytick_6">
     <g id="line2d_12">
      <g>
       <use style="stroke:#000000;stroke-width:0.8;" x="72" xlink:href="#mc29ca8210f" y="55.554545"/>
      </g>
     </g>
     <g id="text_13">
      <!-- 1.0 -->
      <g transform="translate(49.096875 59.353764)scale(0.1 -0.1)">
       <use xlink:href="#DejaVuSans-31"/>
       <use x="63.623047" xlink:href="#DejaVuSans-2e"/>
       <use x="95.410156" xlink:href="#DejaVuSans-30"/>
      </g>
     </g>
    </g>
    <g id="text_14">
     <!-- True positive rate -->
     <g transform="translate(43.017187 222.664062)rotate(-90)scale(0.1 -0.1)">
      <defs>
       <path d="M -19 4666 
L 3928 4666 
L 3928 4134 
L 2272 4134 
L 2272 0 
L 1638 0 
L 1638 4134 
L -19 4134 
L -19 4666 
z
" id="DejaVuSans-54" transform="scale(0.015625)"/>
       <path d="M 544 1381 
L 544 3500 
L 1119 3500 
L 1119 1403 
Q 1119 906 1312 657 
Q 1506 409 1894 409 
Q 2359 409 2629 706 
Q 2900 1003 2900 1516 
L 2900 3500 
L 3475 3500 
L 3475 0 
L 2900 0 
L 2900 538 
Q 2691 219 2414 64 
Q 2138 -91 1772 -91 
Q 1169 -91 856 284 
Q 544 659 544 1381 
z
M 1991 3584 
L 1991 3584 
z
" id="DejaVuSans-75" transform="scale(0.015625)"/>
      </defs>
      <use xlink:href="#DejaVuSans-54"/>
      <use x="46.333984" xlink:href="#DejaVuSans-72"/>
      <use x="87.447266" xlink:href="#DejaVuSans-75"/>
      <use x="150.826172" xlink:href="#DejaVuSans-65"/>
      <use x="212.349609" xlink:href="#DejaVuSans-20"/>
      <use x="244.136719" xlink:href="#DejaVuSans-70"/>
      <use x="307.613281" xlink:href="#DejaVuSans-6f"/>
      <use x="368.794922" xlink:href="#DejaVuSans-73"/>
      <use x="420.894531" xlink:href="#DejaVuSans-69"/>
      <use x="448.677734" xlink:href="#DejaVuSans-74"/>
      <use x="487.886719" xlink:href="#DejaVuSans-69"/>
      <use x="515.669922" xlink:href="#DejaVuSans-76"/>
      <use x="574.849609" xlink:href="#DejaVuSans-65"/>
      <use x="636.373047" xlink:href="#DejaVuSans-20"/>
      <use x="668.160156" xlink:href="#DejaVuSans-72"/>
      <use x="709.273438" xlink:href="#DejaVuSans-61"/>
      <use x="770.552734" xlink:href="#DejaVuSans-74"/>
      <use x="809.761719" xlink:href="#DejaVuSans-65"/>
     </g>
    </g>
   </g>
   <g id="line2d_13">
    <path clip-path="url(#p3a37ee0c85)" d="M 92.290909 302.645455 
L 92.685278 296.233914 
L 92.825215 294.754328 
L 92.926988 294.754328 
L 93.181419 292.288351 
L 93.232306 292.288351 
L 93.321357 291.30196 
L 93.372243 288.342787 
L 93.626674 288.342787 
L 93.830219 285.87681 
L 93.931992 285.87681 
L 94.377247 282.917637 
L 94.491741 282.917637 
L 94.568071 282.424442 
L 94.695286 280.45166 
L 94.847945 279.465269 
L 94.962439 279.465269 
L 95.216871 277.492488 
L 95.407694 276.506097 
L 95.573075 276.506097 
L 95.751177 275.519706 
L 95.878393 274.533315 
L 96.107381 272.067338 
L 96.476307 272.067338 
L 96.616244 271.574143 
L 96.756181 271.574143 
L 96.997891 268.61497 
L 97.15055 268.61497 
L 97.443146 266.642188 
L 97.621248 264.176211 
L 97.87568 262.696625 
L 98.244605 262.696625 
L 98.44815 261.217039 
L 98.677139 261.217039 
L 99.071508 259.244257 
L 99.402268 259.244257 
L 99.605814 258.257866 
L 100.06379 258.257866 
L 100.356386 255.791889 
L 100.458159 255.791889 
L 100.636261 249.873544 
L 100.865249 248.887153 
L 101.348669 248.887153 
L 101.348669 248.393958 
L 101.399555 248.393958 
L 101.781203 246.421176 
L 101.933861 246.421176 
L 102.111964 245.92798 
L 102.748042 245.92798 
L 102.887979 244.94159 
L 103.193297 243.955199 
L 103.524058 243.955199 
L 103.625831 243.462003 
L 103.689439 243.462003 
L 104.020199 242.475612 
L 104.071086 242.475612 
L 104.172858 241.982417 
L 104.59267 240.502831 
L 104.694443 240.502831 
L 104.83438 240.009635 
L 104.936153 240.009635 
L 105.152419 238.036854 
L 105.72489 238.036854 
L 105.864828 237.050463 
L 106.030208 237.050463 
L 106.119259 236.557267 
L 106.399134 236.557267 
L 106.69173 234.584486 
L 106.793502 234.584486 
L 106.869832 233.104899 
L 107.658569 233.104899 
L 107.696734 231.625313 
L 107.913001 231.625313 
L 107.951166 230.638922 
L 108.052938 230.638922 
L 108.129268 230.145727 
L 108.256483 229.652531 
L 108.536358 229.652531 
L 108.650852 229.159336 
L 108.95617 229.159336 
L 109.236044 228.66614 
L 109.452311 228.66614 
L 109.490476 228.172945 
L 109.732186 227.67975 
L 110.024782 227.67975 
L 110.228327 227.186554 
L 111.093394 227.186554 
L 111.14428 226.693359 
L 111.373269 226.693359 
L 111.665865 225.706968 
L 111.831245 224.227382 
L 111.996626 224.227382 
L 112.136563 223.734186 
L 112.314665 222.747795 
L 112.429159 222.747795 
L 112.619983 222.2546 
L 112.75992 222.2546 
L 112.861693 221.761404 
L 113.090681 221.761404 
L 113.268783 220.775014 
L 113.663152 220.775014 
L 113.72676 220.281818 
L 114.960752 220.281818 
L 114.998917 219.295427 
L 115.138854 218.802232 
L 115.482337 218.802232 
L 115.736768 218.309036 
L 116.23291 218.309036 
L 116.47462 217.322646 
L 117.263357 217.322646 
L 117.352408 216.336255 
L 117.505067 216.336255 
L 117.60684 215.843059 
L 117.657726 215.843059 
L 117.759498 215.349864 
L 118.204753 214.363473 
L 118.586401 214.363473 
L 118.726338 213.870278 
L 118.968048 213.870278 
L 119.057099 213.377082 
L 119.655013 210.911105 
L 119.998495 210.41791 
L 120.023938 210.41791 
L 120.176597 209.431519 
L 120.405586 208.938323 
L 120.787233 208.938323 
L 121.041664 208.445128 
L 121.588692 208.445128 
L 121.677743 207.458737 
L 121.792237 207.458737 
L 121.830402 206.965542 
L 122.097555 206.965542 
L 122.339265 206.472346 
L 122.390151 205.979151 
L 122.606418 205.979151 
L 123.420598 204.006369 
L 123.853132 204.006369 
L 124.031234 203.019978 
L 124.527375 203.019978 
L 124.680034 202.033587 
L 124.845415 202.033587 
L 124.883579 201.540392 
L 125.150732 201.540392 
L 125.277948 201.047197 
L 125.646874 200.554001 
L 125.786811 200.060806 
L 126.168458 199.56761 
L 126.575549 199.56761 
L 126.740929 199.074415 
L 127.275235 199.074415 
L 127.377008 198.088024 
L 127.644161 197.101633 
L 127.860427 196.115242 
L 127.974922 196.115242 
L 128.089416 194.635656 
L 128.356569 194.142461 
L 128.890875 194.142461 
L 129.221636 193.649265 
L 129.399738 192.662874 
L 130.137589 192.662874 
L 130.22664 192.169679 
L 130.417464 192.169679 
L 130.531958 191.676483 
L 131.015378 191.676483 
L 131.269809 191.183288 
L 132.783676 191.183288 
L 133.050829 190.690093 
L 133.254374 190.690093 
L 133.292539 189.703702 
L 133.69963 189.210506 
L 134.043112 188.717311 
L 134.780963 188.717311 
L 134.819128 188.224115 
L 134.984508 187.73092 
L 135.251661 187.73092 
L 135.493371 187.237725 
L 135.582422 186.744529 
L 137.26167 186.744529 
L 137.363443 185.758138 
L 137.770533 185.758138 
L 137.961357 185.264943 
L 138.088572 185.264943 
L 138.22851 184.771747 
L 138.241231 184.771747 
L 138.55927 184.278552 
L 138.940918 184.278552 
L 139.04269 183.785357 
L 139.233514 183.785357 
L 139.513388 182.798966 
L 139.653326 182.798966 
L 139.704212 182.30577 
L 139.907757 182.30577 
L 140.276683 181.812575 
L 141.179915 181.812575 
L 141.332573 180.826184 
L 141.485232 180.826184 
L 141.587005 180.332989 
L 141.917766 180.332989 
L 142.286691 179.839793 
L 142.388464 179.839793 
L 142.706503 179.346598 
L 143.431633 179.346598 
L 143.724229 177.867011 
L 143.991382 176.880621 
L 144.093155 176.880621 
L 144.46208 175.401034 
L 144.563853 174.907839 
L 144.665626 174.907839 
L 144.767398 174.414643 
L 145.581579 174.414643 
L 145.657908 173.921448 
L 146.166771 173.921448 
L 146.306708 173.428253 
L 146.548418 173.428253 
L 146.586583 172.935057 
L 146.980952 172.441862 
L 147.337156 172.441862 
L 147.667917 171.948666 
L 147.706082 171.455471 
L 148.227666 171.455471 
L 148.227666 170.962275 
L 148.278552 170.962275 
L 148.532984 170.962275 
L 148.774694 169.975885 
L 149.525266 169.975885 
L 149.932357 168.496298 
L 151.382616 168.496298 
L 151.420781 168.003103 
L 152.336734 168.003103 
L 152.70566 167.509907 
L 152.807432 167.509907 
L 153.329017 167.016712 
L 153.392625 167.016712 
L 153.774272 166.030321 
L 154.219527 165.04393 
L 154.995543 165.04393 
L 155.046429 164.550735 
L 155.288139 164.550735 
L 155.936939 162.577953 
L 157.272704 162.577953 
L 157.310869 162.084758 
L 157.463528 162.084758 
L 157.921505 161.098367 
L 159.409929 161.098367 
L 160.020564 160.111976 
L 160.160502 159.618781 
L 160.860188 159.618781 
L 161.051012 158.63239 
L 161.216392 158.63239 
L 161.68709 158.139194 
L 161.76342 157.645999 
L 162.259561 157.645999 
L 162.590322 155.673217 
L 162.692095 155.673217 
L 162.832032 155.180022 
L 163.048299 154.686826 
L 163.442667 154.193631 
L 163.760707 154.193631 
L 164.066025 153.700435 
L 164.218683 153.700435 
L 164.51128 153.20724 
L 164.663938 153.20724 
L 164.727546 152.714045 
L 165.020142 152.220849 
L 165.08375 151.234458 
L 165.249131 151.234458 
L 165.338182 150.741263 
L 165.630778 150.741263 
L 165.745272 150.248068 
L 165.796158 150.248068 
L 165.796158 149.754872 
L 166.254135 149.261677 
L 166.53401 149.261677 
L 166.673947 148.768481 
L 167.755281 148.768481 
L 168.149649 147.288895 
L 168.72212 147.288895 
L 168.912944 146.7957 
L 169.536301 145.809309 
L 170.375925 145.809309 
L 170.414089 145.316113 
L 170.655799 144.822918 
L 173.136506 144.822918 
L 173.556318 143.836527 
L 174.001573 143.836527 
L 174.103346 143.343332 
L 175.299174 143.343332 
L 175.35006 142.850136 
L 176.266013 142.850136 
L 176.507723 142.356941 
L 177.741716 142.356941 
L 177.830767 141.863745 
L 178.390516 141.863745 
L 178.606783 141.37055 
L 178.644947 140.877354 
L 178.810328 140.877354 
L 179.281026 140.384159 
L 180.565905 140.384159 
L 180.705842 139.890964 
L 180.820336 139.890964 
L 180.858501 139.397768 
L 181.125654 139.397768 
L 181.49458 137.918182 
L 181.723568 137.918182 
L 182.232431 136.931791 
L 183.186549 136.931791 
L 183.224714 136.438596 
L 183.428259 135.9454 
L 183.530031 135.452205 
L 184.127945 134.959009 
L 184.280604 134.959009 
L 184.776746 133.972618 
L 184.967569 133.972618 
L 185.120228 133.479423 
L 185.196557 131.999837 
L 186.328777 131.999837 
L 186.417828 131.506641 
L 187.244731 131.506641 
L 187.282895 131.013446 
L 187.524605 131.013446 
L 187.689986 130.52025 
L 188.109798 130.52025 
L 188.21157 130.027055 
L 189.878096 130.027055 
L 190.107085 129.53386 
L 191.799054 129.53386 
L 191.888105 129.040664 
L 192.49874 129.040664 
L 192.791337 128.547469 
L 192.842223 128.547469 
L 192.880388 128.054273 
L 193.898113 128.054273 
L 194.012608 127.561078 
L 194.305204 127.561078 
L 194.432419 127.067882 
L 195.997173 127.067882 
L 196.493314 126.574687 
L 196.785911 126.574687 
L 196.925848 126.081492 
L 197.180279 126.081492 
L 197.34566 125.588296 
L 198.986743 125.588296 
L 199.12668 124.601905 
L 199.330225 124.10871 
L 200.818649 124.10871 
L 200.9077 123.615514 
L 204.393411 123.615514 
L 204.495184 123.122319 
L 204.673286 123.122319 
L 204.851388 122.135928 
L 205.004047 122.135928 
L 205.004047 121.642733 
L 205.334808 121.642733 
L 205.487467 121.149537 
L 205.818227 121.149537 
L 205.932722 120.656342 
L 206.632408 120.656342 
L 206.950447 119.669951 
L 207.026777 119.669951 
L 207.153993 119.176756 
L 208.120832 119.176756 
L 208.286213 118.68356 
L 208.578809 118.190365 
L 210.805084 118.190365 
L 210.919578 117.697169 
L 212.980473 117.697169 
L 213.082246 117.203974 
L 213.756489 117.203974 
L 214.354403 116.710778 
L 215.003203 116.710778 
L 215.104976 116.217583 
L 215.257635 116.217583 
L 215.601117 115.724388 
L 217.712898 115.724388 
L 217.852836 115.231192 
L 218.78151 115.231192 
L 219.074107 114.737997 
L 219.214044 114.737997 
L 219.214044 114.244801 
L 220.193605 114.244801 
L 220.422593 113.751606 
L 220.893292 113.751606 
L 220.995064 113.25841 
L 221.236774 112.765215 
L 222.203614 112.765215 
L 222.547096 112.27202 
L 222.776084 112.27202 
L 222.954186 111.778824 
L 223.946469 111.778824 
L 224.022799 110.792433 
L 224.607991 110.792433 
L 224.658877 110.299238 
L 225.371285 109.806042 
L 225.40945 109.312847 
L 228.055537 109.312847 
L 228.119145 108.819652 
L 228.220918 108.819652 
L 228.32269 108.326456 
L 228.907883 108.326456 
L 229.162314 107.340065 
L 229.340416 107.340065 
L 229.378581 106.84687 
L 229.734785 105.860479 
L 230.090989 105.367284 
L 231.922895 105.367284 
L 232.011946 104.874088 
L 232.329986 104.874088 
L 232.660747 104.380893 
L 232.915178 104.380893 
L 233.627586 103.887697 
L 235.205061 103.887697 
L 235.243226 103.394502 
L 235.866583 103.394502 
L 236.146458 102.901306 
L 236.362724 102.901306 
L 236.426332 102.408111 
L 237.062411 102.408111 
L 237.164184 101.914916 
L 239.784828 101.914916 
L 240.026537 101.42172 
L 241.146036 101.42172 
L 241.235087 100.928525 
L 241.794836 100.928525 
L 241.896609 100.435329 
L 245.204218 100.435329 
L 245.344155 99.942134 
L 246.807136 99.942134 
L 247.010681 99.448938 
L 247.57043 98.955743 
L 249.631325 98.955743 
L 249.847592 97.969352 
L 250.280125 97.969352 
L 250.458227 97.476157 
L 250.56 96.982961 
L 250.80171 96.982961 
L 251.183357 95.99657 
L 253.409632 95.99657 
L 253.689507 95.503375 
L 257.022559 95.503375 
L 257.416928 94.516984 
L 258.192944 94.516984 
L 258.714528 94.023789 
L 259.083454 94.023789 
L 259.528709 93.530593 
L 260.953525 93.530593 
L 261.093463 93.037398 
L 261.894922 93.037398 
L 262.238404 91.557812 
L 262.556443 91.557812 
L 262.594608 91.064616 
L 266.627347 91.064616 
L 266.843614 90.078225 
L 267.365198 90.078225 
L 267.505135 89.58503 
L 267.975834 89.091835 
L 268.293873 89.091835 
L 268.395645 88.598639 
L 269.718689 88.598639 
L 269.871348 88.105444 
L 270.621921 88.105444 
L 270.901795 87.612248 
L 273.306173 87.612248 
L 273.662377 87.119053 
L 275.977703 87.119053 
L 276.054032 86.625857 
L 280.837344 86.625857 
L 281.104497 86.132662 
L 284.450271 86.132662 
L 284.882804 85.639467 
L 285.099071 85.639467 
L 285.1754 85.146271 
L 285.455275 84.653076 
L 285.747871 84.653076 
L 285.786036 84.15988 
L 286.651103 84.15988 
L 287.020028 83.666685 
L 288.075919 83.666685 
L 288.432123 83.173489 
L 288.610225 83.173489 
L 289.309912 82.680294 
L 290.518461 82.680294 
L 291.15454 82.187099 
L 291.828783 82.187099 
L 291.828783 81.693903 
L 291.879669 81.693903 
L 294.016894 81.693903 
L 294.105945 81.200708 
L 294.831074 81.200708 
L 294.869239 80.707512 
L 295.085506 80.707512 
L 295.212722 80.214317 
L 295.912408 80.214317 
L 296.268612 79.721121 
L 297.006463 79.721121 
L 297.337224 79.227926 
L 297.731593 79.227926 
L 297.858809 78.734731 
L 298.634825 78.734731 
L 298.736597 78.241535 
L 300.13597 78.241535 
L 300.186857 77.74834 
L 300.339516 77.74834 
L 300.784771 77.255144 
L 302.654842 77.255144 
L 303.049211 76.761949 
L 303.837948 76.761949 
L 304.003329 76.268753 
L 304.66485 76.268753 
L 304.728458 75.775558 
L 306.344098 75.775558 
L 306.458592 75.282363 
L 308.392271 75.282363 
L 308.481322 74.789167 
L 309.053793 74.789167 
L 309.104679 74.295972 
L 310.033354 74.295972 
L 310.491331 73.309581 
L 312.793936 73.309581 
L 312.8321 72.816385 
L 317.11927 72.816385 
L 317.246486 72.32319 
L 317.411867 72.32319 
L 317.653577 71.829995 
L 318.645859 71.829995 
L 319.116557 71.336799 
L 323.594551 71.336799 
L 323.734488 70.843604 
L 323.823539 70.843604 
L 324.357846 70.350408 
L 325.375571 70.350408 
L 325.642724 69.857213 
L 326.953046 69.857213 
L 327.360137 69.364017 
L 330.476922 69.364017 
L 330.629581 68.870822 
L 334.560547 68.870822 
L 334.560547 68.377627 
L 334.611433 68.377627 
L 339.611012 68.377627 
L 339.661898 67.884431 
L 345.793696 67.884431 
L 345.959077 67.391236 
L 350.335298 67.391236 
L 350.424349 66.89804 
L 353.248538 66.89804 
L 353.273981 66.404845 
L 353.706515 66.404845 
L 353.871895 65.911649 
L 355.144052 65.911649 
L 355.322154 65.418454 
L 360.665215 65.418454 
L 360.779709 64.925259 
L 363.400353 64.925259 
L 363.591177 64.432063 
L 366.440809 64.432063 
L 366.580747 63.938868 
L 375.040593 63.938868 
L 375.116922 63.445672 
L 380.35821 63.445672 
L 380.879795 62.952477 
L 385.20513 62.952477 
L 385.395953 62.459281 
L 388.029319 62.459281 
L 388.589068 61.966086 
L 391.909399 61.966086 
L 392.049336 61.472891 
L 397.964867 61.472891 
L 398.092083 60.979695 
L 400.801778 60.979695 
L 401.310641 60.4865 
L 403.167991 60.4865 
L 403.473309 59.993304 
L 407.989467 59.993304 
L 408.650989 59.500109 
L 424.502069 59.500109 
L 424.921881 59.006913 
L 430.201334 59.006913 
L 430.328549 58.513718 
L 433.254511 58.513718 
L 433.394449 58.020523 
L 448.800274 58.020523 
L 448.85116 57.527327 
L 449.57629 57.034132 
L 459.804434 57.034132 
L 460.465956 56.540936 
L 467.882633 56.540936 
L 468.0989 56.047741 
L 477.945398 56.047741 
L 478.874072 55.554545 
L 498.109091 55.554545 
L 498.109091 55.554545 
" style="fill:none;stroke:#2b667c;stroke-linecap:square;stroke-width:1.5;"/>
   </g>
   <g id="line2d_14">
    <path clip-path="url(#p3a37ee0c85)" d="M 92.290909 302.645455 
L 498.109091 55.554545 
" style="fill:none;stroke:#ff0000;stroke-linecap:square;stroke-width:1.5;"/>
   </g>
   <g id="patch_3">
    <path d="M 72 315 
L 72 43.2 
" style="fill:none;stroke:#000000;stroke-linecap:square;stroke-linejoin:miter;stroke-width:0.8;"/>
   </g>
   <g id="patch_4">
    <path d="M 518.4 315 
L 518.4 43.2 
" style="fill:none;stroke:#000000;stroke-linecap:square;stroke-linejoin:miter;stroke-width:0.8;"/>
   </g>
   <g id="patch_5">
    <path d="M 72 315 
L 518.4 315 
" style="fill:none;stroke:#000000;stroke-linecap:square;stroke-linejoin:miter;stroke-width:0.8;"/>
   </g>
   <g id="patch_6">
    <path d="M 72 43.2 
L 518.4 43.2 
" style="fill:none;stroke:#000000;stroke-linecap:square;stroke-linejoin:miter;stroke-width:0.8;"/>
   </g>
   <g id="text_15">
    <!-- MIGUEL HIDALGO -->
    <g transform="translate(260.103125 37.2)scale(0.08 -0.08)">
     <defs>
      <path d="M 628 4666 
L 1569 4666 
L 2759 1491 
L 3956 4666 
L 4897 4666 
L 4897 0 
L 4281 0 
L 4281 4097 
L 3078 897 
L 2444 897 
L 1241 4097 
L 1241 0 
L 628 0 
L 628 4666 
z
" id="DejaVuSans-4d" transform="scale(0.015625)"/>
      <path d="M 628 4666 
L 1259 4666 
L 1259 0 
L 628 0 
L 628 4666 
z
" id="DejaVuSans-49" transform="scale(0.015625)"/>
      <path d="M 3809 666 
L 3809 1919 
L 2778 1919 
L 2778 2438 
L 4434 2438 
L 4434 434 
Q 4069 175 3628 42 
Q 3188 -91 2688 -91 
Q 1594 -91 976 548 
Q 359 1188 359 2328 
Q 359 3472 976 4111 
Q 1594 4750 2688 4750 
Q 3144 4750 3555 4637 
Q 3966 4525 4313 4306 
L 4313 3634 
Q 3963 3931 3569 4081 
Q 3175 4231 2741 4231 
Q 1884 4231 1454 3753 
Q 1025 3275 1025 2328 
Q 1025 1384 1454 906 
Q 1884 428 2741 428 
Q 3075 428 3337 486 
Q 3600 544 3809 666 
z
" id="DejaVuSans-47" transform="scale(0.015625)"/>
      <path d="M 556 4666 
L 1191 4666 
L 1191 1831 
Q 1191 1081 1462 751 
Q 1734 422 2344 422 
Q 2950 422 3222 751 
Q 3494 1081 3494 1831 
L 3494 4666 
L 4128 4666 
L 4128 1753 
Q 4128 841 3676 375 
Q 3225 -91 2344 -91 
Q 1459 -91 1007 375 
Q 556 841 556 1753 
L 556 4666 
z
" id="DejaVuSans-55" transform="scale(0.015625)"/>
      <path d="M 628 4666 
L 3578 4666 
L 3578 4134 
L 1259 4134 
L 1259 2753 
L 3481 2753 
L 3481 2222 
L 1259 2222 
L 1259 531 
L 3634 531 
L 3634 0 
L 628 0 
L 628 4666 
z
" id="DejaVuSans-45" transform="scale(0.015625)"/>
      <path d="M 628 4666 
L 1259 4666 
L 1259 531 
L 3531 531 
L 3531 0 
L 628 0 
L 628 4666 
z
" id="DejaVuSans-4c" transform="scale(0.015625)"/>
      <path d="M 628 4666 
L 1259 4666 
L 1259 2753 
L 3553 2753 
L 3553 4666 
L 4184 4666 
L 4184 0 
L 3553 0 
L 3553 2222 
L 1259 2222 
L 1259 0 
L 628 0 
L 628 4666 
z
" id="DejaVuSans-48" transform="scale(0.015625)"/>
      <path d="M 1259 4147 
L 1259 519 
L 2022 519 
Q 2988 519 3436 956 
Q 3884 1394 3884 2338 
Q 3884 3275 3436 3711 
Q 2988 4147 2022 4147 
L 1259 4147 
z
M 628 4666 
L 1925 4666 
Q 3281 4666 3915 4102 
Q 4550 3538 4550 2338 
Q 4550 1131 3912 565 
Q 3275 0 1925 0 
L 628 0 
L 628 4666 
z
" id="DejaVuSans-44" transform="scale(0.015625)"/>
      <path d="M 2188 4044 
L 1331 1722 
L 3047 1722 
L 2188 4044 
z
M 1831 4666 
L 2547 4666 
L 4325 0 
L 3669 0 
L 3244 1197 
L 1141 1197 
L 716 0 
L 50 0 
L 1831 4666 
z
" id="DejaVuSans-41" transform="scale(0.015625)"/>
      <path d="M 2522 4238 
Q 1834 4238 1429 3725 
Q 1025 3213 1025 2328 
Q 1025 1447 1429 934 
Q 1834 422 2522 422 
Q 3209 422 3611 934 
Q 4013 1447 4013 2328 
Q 4013 3213 3611 3725 
Q 3209 4238 2522 4238 
z
M 2522 4750 
Q 3503 4750 4090 4092 
Q 4678 3434 4678 2328 
Q 4678 1225 4090 567 
Q 3503 -91 2522 -91 
Q 1538 -91 948 565 
Q 359 1222 359 2328 
Q 359 3434 948 4092 
Q 1538 4750 2522 4750 
z
" id="DejaVuSans-4f" transform="scale(0.015625)"/>
     </defs>
     <use xlink:href="#DejaVuSans-4d"/>
     <use x="86.279297" xlink:href="#DejaVuSans-49"/>
     <use x="115.771484" xlink:href="#DejaVuSans-47"/>
     <use x="193.261719" xlink:href="#DejaVuSans-55"/>
     <use x="266.455078" xlink:href="#DejaVuSans-45"/>
     <use x="329.638672" xlink:href="#DejaVuSans-4c"/>
     <use x="385.351562" xlink:href="#DejaVuSans-20"/>
     <use x="417.138672" xlink:href="#DejaVuSans-48"/>
     <use x="492.333984" xlink:href="#DejaVuSans-49"/>
     <use x="521.826172" xlink:href="#DejaVuSans-44"/>
     <use x="597.078125" xlink:href="#DejaVuSans-41"/>
     <use x="665.486328" xlink:href="#DejaVuSans-4c"/>
     <use x="721.199219" xlink:href="#DejaVuSans-47"/>
     <use x="798.689453" xlink:href="#DejaVuSans-4f"/>
    </g>
   </g>
  </g>
  <g id="text_16">
   <!-- ROC Curve -->
   <g transform="translate(244.4125 19.3575)scale(0.16 -0.16)">
    <defs>
     <path d="M 2841 2188 
Q 3044 2119 3236 1894 
Q 3428 1669 3622 1275 
L 4263 0 
L 3584 0 
L 2988 1197 
Q 2756 1666 2539 1819 
Q 2322 1972 1947 1972 
L 1259 1972 
L 1259 0 
L 628 0 
L 628 4666 
L 2053 4666 
Q 2853 4666 3247 4331 
Q 3641 3997 3641 3322 
Q 3641 2881 3436 2590 
Q 3231 2300 2841 2188 
z
M 1259 4147 
L 1259 2491 
L 2053 2491 
Q 2509 2491 2742 2702 
Q 2975 2913 2975 3322 
Q 2975 3731 2742 3939 
Q 2509 4147 2053 4147 
L 1259 4147 
z
" id="DejaVuSans-52" transform="scale(0.015625)"/>
     <path d="M 4122 4306 
L 4122 3641 
Q 3803 3938 3442 4084 
Q 3081 4231 2675 4231 
Q 1875 4231 1450 3742 
Q 1025 3253 1025 2328 
Q 1025 1406 1450 917 
Q 1875 428 2675 428 
Q 3081 428 3442 575 
Q 3803 722 4122 1019 
L 4122 359 
Q 3791 134 3420 21 
Q 3050 -91 2638 -91 
Q 1578 -91 968 557 
Q 359 1206 359 2328 
Q 359 3453 968 4101 
Q 1578 4750 2638 4750 
Q 3056 4750 3426 4639 
Q 3797 4528 4122 4306 
z
" id="DejaVuSans-43" transform="scale(0.015625)"/>
    </defs>
    <use xlink:href="#DejaVuSans-52"/>
    <use x="69.482422" xlink:href="#DejaVuSans-4f"/>
    <use x="148.193359" xlink:href="#DejaVuSans-43"/>
    <use x="218.017578" xlink:href="#DejaVuSans-20"/>
    <use x="249.804688" xlink:href="#DejaVuSans-43"/>
    <use x="319.628906" xlink:href="#DejaVuSans-75"/>
    <use x="383.007812" xlink:href="#DejaVuSans-72"/>
    <use x="424.121094" xlink:href="#DejaVuSans-76"/>
    <use x="483.300781" xlink:href="#DejaVuSans-65"/>
   </g>
  </g>
 </g>
 <defs>
  <clipPath id="p3a37ee0c85">
   <rect height="271.8" width="446.4" x="72" y="43.2"/>
  </clipPath>
 </defs>
</svg>
