<?xml version="1.0" encoding="utf-8" standalone="no"?>
<!DOCTYPE svg PUBLIC "-//W3C//DTD SVG 1.1//EN"
  "http://www.w3.org/Graphics/SVG/1.1/DTD/svg11.dtd">
<svg height="360pt" version="1.1" viewBox="0 0 576 360" width="576pt" xmlns="http://www.w3.org/2000/svg" xmlns:xlink="http://www.w3.org/1999/xlink">
 <metadata>
  <rdf:RDF xmlns:cc="http://creativecommons.org/ns#" xmlns:dc="http://purl.org/dc/elements/1.1/" xmlns:rdf="http://www.w3.org/1999/02/22-rdf-syntax-ns#">
   <cc:Work>
    <dc:type rdf:resource="http://purl.org/dc/dcmitype/StillImage"/>
    <dc:date>2022-01-04T19:57:59.817556</dc:date>
    <dc:format>image/svg+xml</dc:format>
    <dc:creator>
     <cc:Agent>
      <dc:title>Matplotlib v3.4.3, https://matplotlib.org/</dc:title>
     </cc:Agent>
    </dc:creator>
   </cc:Work>
  </rdf:RDF>
 </metadata>
 <defs>
  <style type="text/css">*{stroke-linecap:butt;stroke-linejoin:round;}</style>
 </defs>
 <g id="figure_1">
  <g id="patch_1">
   <path d="M 0 360 
L 576 360 
L 576 0 
L 0 0 
z
" style="fill:none;"/>
  </g>
  <g id="axes_1">
   <g id="patch_2">
    <path d="M 72 315 
L 518.4 315 
L 518.4 43.2 
L 72 43.2 
z
" style="fill:#ffffff;"/>
   </g>
   <g id="matplotlib.axis_1">
    <g id="xtick_1">
     <g id="line2d_1">
      <defs>
       <path d="M 0 0 
L 0 3.5 
" id="m9fc5cbec9c" style="stroke:#000000;stroke-width:0.8;"/>
      </defs>
      <g>
       <use style="stroke:#000000;stroke-width:0.8;" x="92.290909" xlink:href="#m9fc5cbec9c" y="315"/>
      </g>
     </g>
     <g id="text_1">
      <!-- 0.0 -->
      <g transform="translate(84.339347 329.598437)scale(0.1 -0.1)">
       <defs>
        <path d="M 2034 4250 
Q 1547 4250 1301 3770 
Q 1056 3291 1056 2328 
Q 1056 1369 1301 889 
Q 1547 409 2034 409 
Q 2525 409 2770 889 
Q 3016 1369 3016 2328 
Q 3016 3291 2770 3770 
Q 2525 4250 2034 4250 
z
M 2034 4750 
Q 2819 4750 3233 4129 
Q 3647 3509 3647 2328 
Q 3647 1150 3233 529 
Q 2819 -91 2034 -91 
Q 1250 -91 836 529 
Q 422 1150 422 2328 
Q 422 3509 836 4129 
Q 1250 4750 2034 4750 
z
" id="DejaVuSans-30" transform="scale(0.015625)"/>
        <path d="M 684 794 
L 1344 794 
L 1344 0 
L 684 0 
L 684 794 
z
" id="DejaVuSans-2e" transform="scale(0.015625)"/>
       </defs>
       <use xlink:href="#DejaVuSans-30"/>
       <use x="63.623047" xlink:href="#DejaVuSans-2e"/>
       <use x="95.410156" xlink:href="#DejaVuSans-30"/>
      </g>
     </g>
    </g>
    <g id="xtick_2">
     <g id="line2d_2">
      <g>
       <use style="stroke:#000000;stroke-width:0.8;" x="173.454545" xlink:href="#m9fc5cbec9c" y="315"/>
      </g>
     </g>
     <g id="text_2">
      <!-- 0.2 -->
      <g transform="translate(165.502983 329.598437)scale(0.1 -0.1)">
       <defs>
        <path d="M 1228 531 
L 3431 531 
L 3431 0 
L 469 0 
L 469 531 
Q 828 903 1448 1529 
Q 2069 2156 2228 2338 
Q 2531 2678 2651 2914 
Q 2772 3150 2772 3378 
Q 2772 3750 2511 3984 
Q 2250 4219 1831 4219 
Q 1534 4219 1204 4116 
Q 875 4013 500 3803 
L 500 4441 
Q 881 4594 1212 4672 
Q 1544 4750 1819 4750 
Q 2544 4750 2975 4387 
Q 3406 4025 3406 3419 
Q 3406 3131 3298 2873 
Q 3191 2616 2906 2266 
Q 2828 2175 2409 1742 
Q 1991 1309 1228 531 
z
" id="DejaVuSans-32" transform="scale(0.015625)"/>
       </defs>
       <use xlink:href="#DejaVuSans-30"/>
       <use x="63.623047" xlink:href="#DejaVuSans-2e"/>
       <use x="95.410156" xlink:href="#DejaVuSans-32"/>
      </g>
     </g>
    </g>
    <g id="xtick_3">
     <g id="line2d_3">
      <g>
       <use style="stroke:#000000;stroke-width:0.8;" x="254.618182" xlink:href="#m9fc5cbec9c" y="315"/>
      </g>
     </g>
     <g id="text_3">
      <!-- 0.4 -->
      <g transform="translate(246.666619 329.598437)scale(0.1 -0.1)">
       <defs>
        <path d="M 2419 4116 
L 825 1625 
L 2419 1625 
L 2419 4116 
z
M 2253 4666 
L 3047 4666 
L 3047 1625 
L 3713 1625 
L 3713 1100 
L 3047 1100 
L 3047 0 
L 2419 0 
L 2419 1100 
L 313 1100 
L 313 1709 
L 2253 4666 
z
" id="DejaVuSans-34" transform="scale(0.015625)"/>
       </defs>
       <use xlink:href="#DejaVuSans-30"/>
       <use x="63.623047" xlink:href="#DejaVuSans-2e"/>
       <use x="95.410156" xlink:href="#DejaVuSans-34"/>
      </g>
     </g>
    </g>
    <g id="xtick_4">
     <g id="line2d_4">
      <g>
       <use style="stroke:#000000;stroke-width:0.8;" x="335.781818" xlink:href="#m9fc5cbec9c" y="315"/>
      </g>
     </g>
     <g id="text_4">
      <!-- 0.6 -->
      <g transform="translate(327.830256 329.598437)scale(0.1 -0.1)">
       <defs>
        <path d="M 2113 2584 
Q 1688 2584 1439 2293 
Q 1191 2003 1191 1497 
Q 1191 994 1439 701 
Q 1688 409 2113 409 
Q 2538 409 2786 701 
Q 3034 994 3034 1497 
Q 3034 2003 2786 2293 
Q 2538 2584 2113 2584 
z
M 3366 4563 
L 3366 3988 
Q 3128 4100 2886 4159 
Q 2644 4219 2406 4219 
Q 1781 4219 1451 3797 
Q 1122 3375 1075 2522 
Q 1259 2794 1537 2939 
Q 1816 3084 2150 3084 
Q 2853 3084 3261 2657 
Q 3669 2231 3669 1497 
Q 3669 778 3244 343 
Q 2819 -91 2113 -91 
Q 1303 -91 875 529 
Q 447 1150 447 2328 
Q 447 3434 972 4092 
Q 1497 4750 2381 4750 
Q 2619 4750 2861 4703 
Q 3103 4656 3366 4563 
z
" id="DejaVuSans-36" transform="scale(0.015625)"/>
       </defs>
       <use xlink:href="#DejaVuSans-30"/>
       <use x="63.623047" xlink:href="#DejaVuSans-2e"/>
       <use x="95.410156" xlink:href="#DejaVuSans-36"/>
      </g>
     </g>
    </g>
    <g id="xtick_5">
     <g id="line2d_5">
      <g>
       <use style="stroke:#000000;stroke-width:0.8;" x="416.945455" xlink:href="#m9fc5cbec9c" y="315"/>
      </g>
     </g>
     <g id="text_5">
      <!-- 0.8 -->
      <g transform="translate(408.993892 329.598437)scale(0.1 -0.1)">
       <defs>
        <path d="M 2034 2216 
Q 1584 2216 1326 1975 
Q 1069 1734 1069 1313 
Q 1069 891 1326 650 
Q 1584 409 2034 409 
Q 2484 409 2743 651 
Q 3003 894 3003 1313 
Q 3003 1734 2745 1975 
Q 2488 2216 2034 2216 
z
M 1403 2484 
Q 997 2584 770 2862 
Q 544 3141 544 3541 
Q 544 4100 942 4425 
Q 1341 4750 2034 4750 
Q 2731 4750 3128 4425 
Q 3525 4100 3525 3541 
Q 3525 3141 3298 2862 
Q 3072 2584 2669 2484 
Q 3125 2378 3379 2068 
Q 3634 1759 3634 1313 
Q 3634 634 3220 271 
Q 2806 -91 2034 -91 
Q 1263 -91 848 271 
Q 434 634 434 1313 
Q 434 1759 690 2068 
Q 947 2378 1403 2484 
z
M 1172 3481 
Q 1172 3119 1398 2916 
Q 1625 2713 2034 2713 
Q 2441 2713 2670 2916 
Q 2900 3119 2900 3481 
Q 2900 3844 2670 4047 
Q 2441 4250 2034 4250 
Q 1625 4250 1398 4047 
Q 1172 3844 1172 3481 
z
" id="DejaVuSans-38" transform="scale(0.015625)"/>
       </defs>
       <use xlink:href="#DejaVuSans-30"/>
       <use x="63.623047" xlink:href="#DejaVuSans-2e"/>
       <use x="95.410156" xlink:href="#DejaVuSans-38"/>
      </g>
     </g>
    </g>
    <g id="xtick_6">
     <g id="line2d_6">
      <g>
       <use style="stroke:#000000;stroke-width:0.8;" x="498.109091" xlink:href="#m9fc5cbec9c" y="315"/>
      </g>
     </g>
     <g id="text_6">
      <!-- 1.0 -->
      <g transform="translate(490.157528 329.598437)scale(0.1 -0.1)">
       <defs>
        <path d="M 794 531 
L 1825 531 
L 1825 4091 
L 703 3866 
L 703 4441 
L 1819 4666 
L 2450 4666 
L 2450 531 
L 3481 531 
L 3481 0 
L 794 0 
L 794 531 
z
" id="DejaVuSans-31" transform="scale(0.015625)"/>
       </defs>
       <use xlink:href="#DejaVuSans-31"/>
       <use x="63.623047" xlink:href="#DejaVuSans-2e"/>
       <use x="95.410156" xlink:href="#DejaVuSans-30"/>
      </g>
     </g>
    </g>
    <g id="text_7">
     <!-- False positive rate -->
     <g transform="translate(249.699219 343.276563)scale(0.1 -0.1)">
      <defs>
       <path d="M 628 4666 
L 3309 4666 
L 3309 4134 
L 1259 4134 
L 1259 2759 
L 3109 2759 
L 3109 2228 
L 1259 2228 
L 1259 0 
L 628 0 
L 628 4666 
z
" id="DejaVuSans-46" transform="scale(0.015625)"/>
       <path d="M 2194 1759 
Q 1497 1759 1228 1600 
Q 959 1441 959 1056 
Q 959 750 1161 570 
Q 1363 391 1709 391 
Q 2188 391 2477 730 
Q 2766 1069 2766 1631 
L 2766 1759 
L 2194 1759 
z
M 3341 1997 
L 3341 0 
L 2766 0 
L 2766 531 
Q 2569 213 2275 61 
Q 1981 -91 1556 -91 
Q 1019 -91 701 211 
Q 384 513 384 1019 
Q 384 1609 779 1909 
Q 1175 2209 1959 2209 
L 2766 2209 
L 2766 2266 
Q 2766 2663 2505 2880 
Q 2244 3097 1772 3097 
Q 1472 3097 1187 3025 
Q 903 2953 641 2809 
L 641 3341 
Q 956 3463 1253 3523 
Q 1550 3584 1831 3584 
Q 2591 3584 2966 3190 
Q 3341 2797 3341 1997 
z
" id="DejaVuSans-61" transform="scale(0.015625)"/>
       <path d="M 603 4863 
L 1178 4863 
L 1178 0 
L 603 0 
L 603 4863 
z
" id="DejaVuSans-6c" transform="scale(0.015625)"/>
       <path d="M 2834 3397 
L 2834 2853 
Q 2591 2978 2328 3040 
Q 2066 3103 1784 3103 
Q 1356 3103 1142 2972 
Q 928 2841 928 2578 
Q 928 2378 1081 2264 
Q 1234 2150 1697 2047 
L 1894 2003 
Q 2506 1872 2764 1633 
Q 3022 1394 3022 966 
Q 3022 478 2636 193 
Q 2250 -91 1575 -91 
Q 1294 -91 989 -36 
Q 684 19 347 128 
L 347 722 
Q 666 556 975 473 
Q 1284 391 1588 391 
Q 1994 391 2212 530 
Q 2431 669 2431 922 
Q 2431 1156 2273 1281 
Q 2116 1406 1581 1522 
L 1381 1569 
Q 847 1681 609 1914 
Q 372 2147 372 2553 
Q 372 3047 722 3315 
Q 1072 3584 1716 3584 
Q 2034 3584 2315 3537 
Q 2597 3491 2834 3397 
z
" id="DejaVuSans-73" transform="scale(0.015625)"/>
       <path d="M 3597 1894 
L 3597 1613 
L 953 1613 
Q 991 1019 1311 708 
Q 1631 397 2203 397 
Q 2534 397 2845 478 
Q 3156 559 3463 722 
L 3463 178 
Q 3153 47 2828 -22 
Q 2503 -91 2169 -91 
Q 1331 -91 842 396 
Q 353 884 353 1716 
Q 353 2575 817 3079 
Q 1281 3584 2069 3584 
Q 2775 3584 3186 3129 
Q 3597 2675 3597 1894 
z
M 3022 2063 
Q 3016 2534 2758 2815 
Q 2500 3097 2075 3097 
Q 1594 3097 1305 2825 
Q 1016 2553 972 2059 
L 3022 2063 
z
" id="DejaVuSans-65" transform="scale(0.015625)"/>
       <path id="DejaVuSans-20" transform="scale(0.015625)"/>
       <path d="M 1159 525 
L 1159 -1331 
L 581 -1331 
L 581 3500 
L 1159 3500 
L 1159 2969 
Q 1341 3281 1617 3432 
Q 1894 3584 2278 3584 
Q 2916 3584 3314 3078 
Q 3713 2572 3713 1747 
Q 3713 922 3314 415 
Q 2916 -91 2278 -91 
Q 1894 -91 1617 61 
Q 1341 213 1159 525 
z
M 3116 1747 
Q 3116 2381 2855 2742 
Q 2594 3103 2138 3103 
Q 1681 3103 1420 2742 
Q 1159 2381 1159 1747 
Q 1159 1113 1420 752 
Q 1681 391 2138 391 
Q 2594 391 2855 752 
Q 3116 1113 3116 1747 
z
" id="DejaVuSans-70" transform="scale(0.015625)"/>
       <path d="M 1959 3097 
Q 1497 3097 1228 2736 
Q 959 2375 959 1747 
Q 959 1119 1226 758 
Q 1494 397 1959 397 
Q 2419 397 2687 759 
Q 2956 1122 2956 1747 
Q 2956 2369 2687 2733 
Q 2419 3097 1959 3097 
z
M 1959 3584 
Q 2709 3584 3137 3096 
Q 3566 2609 3566 1747 
Q 3566 888 3137 398 
Q 2709 -91 1959 -91 
Q 1206 -91 779 398 
Q 353 888 353 1747 
Q 353 2609 779 3096 
Q 1206 3584 1959 3584 
z
" id="DejaVuSans-6f" transform="scale(0.015625)"/>
       <path d="M 603 3500 
L 1178 3500 
L 1178 0 
L 603 0 
L 603 3500 
z
M 603 4863 
L 1178 4863 
L 1178 4134 
L 603 4134 
L 603 4863 
z
" id="DejaVuSans-69" transform="scale(0.015625)"/>
       <path d="M 1172 4494 
L 1172 3500 
L 2356 3500 
L 2356 3053 
L 1172 3053 
L 1172 1153 
Q 1172 725 1289 603 
Q 1406 481 1766 481 
L 2356 481 
L 2356 0 
L 1766 0 
Q 1100 0 847 248 
Q 594 497 594 1153 
L 594 3053 
L 172 3053 
L 172 3500 
L 594 3500 
L 594 4494 
L 1172 4494 
z
" id="DejaVuSans-74" transform="scale(0.015625)"/>
       <path d="M 191 3500 
L 800 3500 
L 1894 563 
L 2988 3500 
L 3597 3500 
L 2284 0 
L 1503 0 
L 191 3500 
z
" id="DejaVuSans-76" transform="scale(0.015625)"/>
       <path d="M 2631 2963 
Q 2534 3019 2420 3045 
Q 2306 3072 2169 3072 
Q 1681 3072 1420 2755 
Q 1159 2438 1159 1844 
L 1159 0 
L 581 0 
L 581 3500 
L 1159 3500 
L 1159 2956 
Q 1341 3275 1631 3429 
Q 1922 3584 2338 3584 
Q 2397 3584 2469 3576 
Q 2541 3569 2628 3553 
L 2631 2963 
z
" id="DejaVuSans-72" transform="scale(0.015625)"/>
      </defs>
      <use xlink:href="#DejaVuSans-46"/>
      <use x="48.394531" xlink:href="#DejaVuSans-61"/>
      <use x="109.673828" xlink:href="#DejaVuSans-6c"/>
      <use x="137.457031" xlink:href="#DejaVuSans-73"/>
      <use x="189.556641" xlink:href="#DejaVuSans-65"/>
      <use x="251.080078" xlink:href="#DejaVuSans-20"/>
      <use x="282.867188" xlink:href="#DejaVuSans-70"/>
      <use x="346.34375" xlink:href="#DejaVuSans-6f"/>
      <use x="407.525391" xlink:href="#DejaVuSans-73"/>
      <use x="459.625" xlink:href="#DejaVuSans-69"/>
      <use x="487.408203" xlink:href="#DejaVuSans-74"/>
      <use x="526.617188" xlink:href="#DejaVuSans-69"/>
      <use x="554.400391" xlink:href="#DejaVuSans-76"/>
      <use x="613.580078" xlink:href="#DejaVuSans-65"/>
      <use x="675.103516" xlink:href="#DejaVuSans-20"/>
      <use x="706.890625" xlink:href="#DejaVuSans-72"/>
      <use x="748.003906" xlink:href="#DejaVuSans-61"/>
      <use x="809.283203" xlink:href="#DejaVuSans-74"/>
      <use x="848.492188" xlink:href="#DejaVuSans-65"/>
     </g>
    </g>
   </g>
   <g id="matplotlib.axis_2">
    <g id="ytick_1">
     <g id="line2d_7">
      <defs>
       <path d="M 0 0 
L -3.5 0 
" id="m034722b8ea" style="stroke:#000000;stroke-width:0.8;"/>
      </defs>
      <g>
       <use style="stroke:#000000;stroke-width:0.8;" x="72" xlink:href="#m034722b8ea" y="302.645455"/>
      </g>
     </g>
     <g id="text_8">
      <!-- 0.0 -->
      <g transform="translate(49.096875 306.444673)scale(0.1 -0.1)">
       <use xlink:href="#DejaVuSans-30"/>
       <use x="63.623047" xlink:href="#DejaVuSans-2e"/>
       <use x="95.410156" xlink:href="#DejaVuSans-30"/>
      </g>
     </g>
    </g>
    <g id="ytick_2">
     <g id="line2d_8">
      <g>
       <use style="stroke:#000000;stroke-width:0.8;" x="72" xlink:href="#m034722b8ea" y="253.227273"/>
      </g>
     </g>
     <g id="text_9">
      <!-- 0.2 -->
      <g transform="translate(49.096875 257.026491)scale(0.1 -0.1)">
       <use xlink:href="#DejaVuSans-30"/>
       <use x="63.623047" xlink:href="#DejaVuSans-2e"/>
       <use x="95.410156" xlink:href="#DejaVuSans-32"/>
      </g>
     </g>
    </g>
    <g id="ytick_3">
     <g id="line2d_9">
      <g>
       <use style="stroke:#000000;stroke-width:0.8;" x="72" xlink:href="#m034722b8ea" y="203.809091"/>
      </g>
     </g>
     <g id="text_10">
      <!-- 0.4 -->
      <g transform="translate(49.096875 207.60831)scale(0.1 -0.1)">
       <use xlink:href="#DejaVuSans-30"/>
       <use x="63.623047" xlink:href="#DejaVuSans-2e"/>
       <use x="95.410156" xlink:href="#DejaVuSans-34"/>
      </g>
     </g>
    </g>
    <g id="ytick_4">
     <g id="line2d_10">
      <g>
       <use style="stroke:#000000;stroke-width:0.8;" x="72" xlink:href="#m034722b8ea" y="154.390909"/>
      </g>
     </g>
     <g id="text_11">
      <!-- 0.6 -->
      <g transform="translate(49.096875 158.190128)scale(0.1 -0.1)">
       <use xlink:href="#DejaVuSans-30"/>
       <use x="63.623047" xlink:href="#DejaVuSans-2e"/>
       <use x="95.410156" xlink:href="#DejaVuSans-36"/>
      </g>
     </g>
    </g>
    <g id="ytick_5">
     <g id="line2d_11">
      <g>
       <use style="stroke:#000000;stroke-width:0.8;" x="72" xlink:href="#m034722b8ea" y="104.972727"/>
      </g>
     </g>
     <g id="text_12">
      <!-- 0.8 -->
      <g transform="translate(49.096875 108.771946)scale(0.1 -0.1)">
       <use xlink:href="#DejaVuSans-30"/>
       <use x="63.623047" xlink:href="#DejaVuSans-2e"/>
       <use x="95.410156" xlink:href="#DejaVuSans-38"/>
      </g>
     </g>
    </g>
    <g id="ytick_6">
     <g id="line2d_12">
      <g>
       <use style="stroke:#000000;stroke-width:0.8;" x="72" xlink:href="#m034722b8ea" y="55.554545"/>
      </g>
     </g>
     <g id="text_13">
      <!-- 1.0 -->
      <g transform="translate(49.096875 59.353764)scale(0.1 -0.1)">
       <use xlink:href="#DejaVuSans-31"/>
       <use x="63.623047" xlink:href="#DejaVuSans-2e"/>
       <use x="95.410156" xlink:href="#DejaVuSans-30"/>
      </g>
     </g>
    </g>
    <g id="text_14">
     <!-- True positive rate -->
     <g transform="translate(43.017187 222.664062)rotate(-90)scale(0.1 -0.1)">
      <defs>
       <path d="M -19 4666 
L 3928 4666 
L 3928 4134 
L 2272 4134 
L 2272 0 
L 1638 0 
L 1638 4134 
L -19 4134 
L -19 4666 
z
" id="DejaVuSans-54" transform="scale(0.015625)"/>
       <path d="M 544 1381 
L 544 3500 
L 1119 3500 
L 1119 1403 
Q 1119 906 1312 657 
Q 1506 409 1894 409 
Q 2359 409 2629 706 
Q 2900 1003 2900 1516 
L 2900 3500 
L 3475 3500 
L 3475 0 
L 2900 0 
L 2900 538 
Q 2691 219 2414 64 
Q 2138 -91 1772 -91 
Q 1169 -91 856 284 
Q 544 659 544 1381 
z
M 1991 3584 
L 1991 3584 
z
" id="DejaVuSans-75" transform="scale(0.015625)"/>
      </defs>
      <use xlink:href="#DejaVuSans-54"/>
      <use x="46.333984" xlink:href="#DejaVuSans-72"/>
      <use x="87.447266" xlink:href="#DejaVuSans-75"/>
      <use x="150.826172" xlink:href="#DejaVuSans-65"/>
      <use x="212.349609" xlink:href="#DejaVuSans-20"/>
      <use x="244.136719" xlink:href="#DejaVuSans-70"/>
      <use x="307.613281" xlink:href="#DejaVuSans-6f"/>
      <use x="368.794922" xlink:href="#DejaVuSans-73"/>
      <use x="420.894531" xlink:href="#DejaVuSans-69"/>
      <use x="448.677734" xlink:href="#DejaVuSans-74"/>
      <use x="487.886719" xlink:href="#DejaVuSans-69"/>
      <use x="515.669922" xlink:href="#DejaVuSans-76"/>
      <use x="574.849609" xlink:href="#DejaVuSans-65"/>
      <use x="636.373047" xlink:href="#DejaVuSans-20"/>
      <use x="668.160156" xlink:href="#DejaVuSans-72"/>
      <use x="709.273438" xlink:href="#DejaVuSans-61"/>
      <use x="770.552734" xlink:href="#DejaVuSans-74"/>
      <use x="809.761719" xlink:href="#DejaVuSans-65"/>
     </g>
    </g>
   </g>
   <g id="line2d_13">
    <path clip-path="url(#pfa5d81105e)" d="M 92.290909 302.645455 
L 92.444912 302.645455 
L 92.483413 301.723474 
L 92.714418 301.723474 
L 93.022425 298.03555 
L 94.061948 298.03555 
L 94.061948 297.113569 
L 94.485457 297.113569 
L 94.62021 295.269607 
L 95.274725 295.269607 
L 95.755985 293.425645 
L 97.238268 293.425645 
L 97.392271 289.73772 
L 98.027535 289.73772 
L 98.22004 287.893758 
L 98.836053 287.893758 
L 98.990057 286.971777 
L 99.086309 286.971777 
L 99.16331 286.049796 
L 99.894826 286.049796 
L 99.952578 285.127815 
L 100.087331 285.127815 
L 100.145082 282.361872 
L 100.241334 282.361872 
L 100.607092 281.439891 
L 103.68716 281.439891 
L 103.744911 280.51791 
L 103.975916 279.595929 
L 104.206921 279.595929 
L 104.59193 274.986024 
L 106.516972 274.986024 
L 106.651725 274.064043 
L 106.940482 274.064043 
L 107.152236 272.220081 
L 107.710498 272.220081 
L 107.826001 270.376119 
L 108.307262 270.376119 
L 108.403514 269.454138 
L 108.653769 269.454138 
L 109.000277 268.532157 
L 110.290055 268.532157 
L 110.694314 267.610176 
L 110.829067 266.688195 
L 111.098573 264.844233 
L 111.233326 264.844233 
L 111.387329 263.922252 
L 112.831111 263.922252 
L 113.004365 263.000271 
L 113.273871 263.000271 
L 113.408624 262.07829 
L 113.69738 262.07829 
L 113.966886 259.312347 
L 114.274893 259.312347 
L 114.409646 258.390366 
L 114.505898 258.390366 
L 114.563649 257.468385 
L 115.295165 257.468385 
L 115.429918 256.546404 
L 116.469441 256.546404 
L 116.565693 255.624423 
L 117.277959 255.624423 
L 117.431962 254.702442 
L 117.816971 253.780461 
L 118.432984 253.780461 
L 118.567737 252.85848 
L 118.721741 252.85848 
L 118.875744 251.936499 
L 118.914245 251.936499 
L 119.068248 251.014518 
L 119.280003 250.092537 
L 120.531281 250.092537 
L 120.800787 248.248575 
L 120.897039 248.248575 
L 121.089543 246.404613 
L 121.801809 246.404613 
L 121.87881 245.482632 
L 122.283069 242.716689 
L 122.533325 242.716689 
L 122.937584 240.872727 
L 123.168589 239.950746 
L 123.861604 239.950746 
L 123.996357 237.184803 
L 124.901127 237.184803 
L 125.151382 235.340841 
L 125.632643 235.340841 
L 125.786646 234.41886 
L 126.075403 233.496879 
L 126.903171 233.496879 
L 127.037924 231.652917 
L 128.019695 231.652917 
L 128.135198 229.808955 
L 128.308452 229.808955 
L 128.385454 228.886974 
L 128.539457 228.886974 
L 128.597208 227.964993 
L 128.808963 227.964993 
L 129.020717 227.043012 
L 129.771484 227.043012 
L 129.809985 225.19905 
L 130.445249 225.19905 
L 130.599252 224.277069 
L 132.77455 224.277069 
L 133.082557 222.433107 
L 135.758366 222.433107 
L 135.816117 221.511126 
L 137.067395 221.511126 
L 137.221398 220.589145 
L 137.2984 220.589145 
L 137.644907 217.823202 
L 138.799933 217.823202 
L 139.12719 215.97924 
L 139.492948 215.97924 
L 139.685452 215.057259 
L 140.686474 215.057259 
L 140.898229 213.213297 
L 142.727019 213.213297 
L 142.900273 211.369335 
L 143.285281 211.369335 
L 143.439285 210.447354 
L 145.094821 210.447354 
L 145.229574 209.525373 
L 147.154617 209.525373 
L 147.30862 208.603392 
L 147.32787 208.603392 
L 147.481874 207.681411 
L 147.828381 207.681411 
L 148.078637 206.75943 
L 148.925656 206.75943 
L 149.079659 205.837449 
L 151.428211 205.837449 
L 151.562964 204.915468 
L 151.890221 203.993487 
L 152.044224 203.993487 
L 152.371481 201.227544 
L 152.544735 201.227544 
L 152.679488 200.305563 
L 152.929744 200.305563 
L 153.083747 199.383582 
L 153.141498 199.383582 
L 153.526507 198.461601 
L 153.68051 198.461601 
L 153.68051 197.53962 
L 154.412026 197.53962 
L 154.527529 195.695658 
L 155.894309 195.695658 
L 156.279317 194.773677 
L 156.510323 194.773677 
L 156.799079 193.851696 
L 156.972333 193.851696 
L 157.126336 192.929715 
L 157.511345 192.929715 
L 157.819351 191.085753 
L 161.322928 191.085753 
L 161.457681 190.163772 
L 163.286472 190.163772 
L 163.324973 188.31981 
L 164.672502 188.31981 
L 164.826506 187.397829 
L 165.346267 187.397829 
L 165.712025 186.475848 
L 165.92378 184.631886 
L 166.616795 184.631886 
L 166.674546 183.709905 
L 168.041326 183.709905 
L 168.079827 181.865943 
L 168.541837 181.865943 
L 168.541837 180.943962 
L 168.638089 180.943962 
L 168.715091 180.021981 
L 168.946096 180.021981 
L 169.234853 179.1 
L 169.58136 179.1 
L 169.735364 177.256038 
L 172.565176 177.256038 
L 172.699929 176.334057 
L 173.142689 176.334057 
L 173.20044 175.412076 
L 173.604699 175.412076 
L 173.6817 174.490095 
L 174.644222 174.490095 
L 174.644222 173.568114 
L 175.818497 173.568114 
L 175.991751 172.646133 
L 176.973523 172.646133 
L 177.108276 171.724152 
L 177.185278 171.724152 
L 177.474034 170.802171 
L 178.455806 170.802171 
L 178.513557 169.88019 
L 179.57233 169.88019 
L 179.668582 168.958209 
L 180.303846 168.958209 
L 180.361597 168.036228 
L 180.708105 167.114247 
L 181.073863 167.114247 
L 181.516623 164.348304 
L 181.632125 164.348304 
L 181.766878 162.504342 
L 182.074885 161.582361 
L 183.268411 161.582361 
L 183.576418 159.738399 
L 184.943198 159.738399 
L 185.058701 157.894437 
L 187.965515 157.894437 
L 188.100268 156.972456 
L 188.851034 156.972456 
L 188.851034 156.050475 
L 189.005038 156.050475 
L 189.062789 155.128494 
L 189.370796 155.128494 
L 189.428547 154.206513 
L 190.179314 154.206513 
L 190.256315 153.284532 
L 191.411341 153.284532 
L 191.931102 151.44057 
L 192.335361 151.44057 
L 192.470114 149.596608 
L 194.048649 149.596608 
L 194.183402 148.674627 
L 195.93519 148.674627 
L 196.3587 147.752646 
L 197.879483 147.752646 
L 197.917984 145.908684 
L 198.379994 144.986703 
L 199.246263 144.986703 
L 199.304014 144.064722 
L 204.636382 144.064722 
L 204.694133 143.142741 
L 204.867387 143.142741 
L 205.4449 142.22076 
L 205.752906 142.22076 
L 205.92616 141.298779 
L 206.465172 141.298779 
L 206.522923 140.376798 
L 213.66483 140.376798 
L 214.049839 139.454817 
L 214.99311 139.454817 
L 215.204864 138.532836 
L 215.358868 138.532836 
L 215.512871 137.610855 
L 217.668919 137.610855 
L 217.861423 136.688874 
L 220.729736 136.688874 
L 220.960741 135.766893 
L 221.769259 135.766893 
L 221.942513 134.844912 
L 222.616277 134.844912 
L 222.770281 133.922931 
L 224.445068 133.922931 
L 224.676073 133.00095 
L 224.830076 133.00095 
L 225.138083 132.078969 
L 226.158355 132.078969 
L 226.293108 131.156988 
L 226.889872 131.156988 
L 227.005374 130.235007 
L 227.236379 130.235007 
L 227.525136 129.313026 
L 229.411677 129.313026 
L 229.758185 128.391045 
L 234.493789 128.391045 
L 234.647792 127.469064 
L 237.881863 127.469064 
L 237.939615 126.547083 
L 238.459376 126.547083 
L 238.517127 125.625102 
L 239.113891 125.625102 
L 239.787655 123.78114 
L 241.077434 123.78114 
L 241.077434 122.859159 
L 242.25171 122.859159 
L 242.501965 121.937178 
L 245.254776 121.937178 
L 245.389529 121.015197 
L 245.562783 121.015197 
L 245.870789 120.093216 
L 246.544554 120.093216 
L 246.81406 118.249254 
L 247.27607 118.249254 
L 247.69958 117.327273 
L 248.007586 117.327273 
L 248.16159 116.405292 
L 248.989358 116.405292 
L 249.124111 115.483311 
L 250.259886 115.483311 
L 250.336888 114.56133 
L 252.666189 114.56133 
L 252.743191 113.639349 
L 252.897194 113.639349 
L 252.954945 112.717368 
L 254.668233 112.717368 
L 254.97624 110.873406 
L 258.941827 110.873406 
L 259.172832 109.029444 
L 260.982372 109.029444 
L 261.078624 108.107463 
L 262.830413 108.107463 
L 263.022917 107.185482 
L 264.235693 107.185482 
L 264.235693 106.263501 
L 264.485949 106.263501 
L 264.5437 105.34152 
L 266.083734 105.34152 
L 266.141485 104.419539 
L 271.416102 104.419539 
L 271.512354 103.497558 
L 273.341144 103.497558 
L 273.552899 102.575577 
L 275.785948 102.575577 
L 275.959202 101.653596 
L 276.536714 101.653596 
L 276.78697 100.731615 
L 279.578281 100.731615 
L 279.96329 99.809634 
L 282.331092 99.809634 
L 282.485095 98.887653 
L 283.659371 98.887653 
L 283.967378 97.965672 
L 284.236884 97.965672 
L 284.294635 97.043691 
L 287.316951 97.043691 
L 287.740461 96.12171 
L 288.009967 96.12171 
L 288.260222 94.277748 
L 294.189353 94.277748 
L 294.266354 93.355767 
L 295.036371 93.355767 
L 295.113373 92.433786 
L 296.056644 92.433786 
L 296.191397 91.511805 
L 297.038415 91.511805 
L 297.481175 90.589824 
L 301.658517 90.589824 
L 301.851021 88.745862 
L 302.544037 88.745862 
L 303.025297 87.823881 
L 304.218823 87.823881 
L 304.392077 86.9019 
L 309.243184 86.9019 
L 309.320186 85.979919 
L 310.667715 85.979919 
L 310.744717 85.057938 
L 314.556301 85.057938 
L 314.748805 84.135957 
L 317.001105 84.135957 
L 317.69412 83.213976 
L 317.982876 83.213976 
L 317.982876 82.291995 
L 318.079129 82.291995 
L 321.524954 82.291995 
L 321.717459 80.448033 
L 325.067032 80.448033 
L 325.201785 79.526052 
L 326.279809 79.526052 
L 326.433812 78.604071 
L 329.610132 78.604071 
L 330.014391 77.68209 
L 330.668906 77.68209 
L 331.073165 76.760109 
L 332.824953 76.760109 
L 333.094459 75.838128 
L 333.479468 75.838128 
L 333.517968 74.916147 
L 334.095481 74.916147 
L 334.268735 73.994166 
L 334.422738 73.994166 
L 334.48049 73.072185 
L 336.386281 73.072185 
L 336.386281 72.150204 
L 336.482534 72.150204 
L 340.525123 72.150204 
L 340.967882 71.228223 
L 341.391392 71.228223 
L 341.795651 70.306242 
L 346.858512 70.306242 
L 347.012515 69.384261 
L 348.283043 69.384261 
L 348.5718 68.46228 
L 355.444201 68.46228 
L 355.521203 67.540299 
L 381.932784 67.540299 
L 381.990535 66.618318 
L 382.298542 66.618318 
L 382.452545 65.696336 
L 382.799053 65.696336 
L 382.933806 64.774355 
L 383.415067 64.774355 
L 383.646072 63.852374 
L 384.03108 62.930393 
L 396.794111 62.930393 
L 396.851862 62.008412 
L 412.348453 62.008412 
L 412.483206 61.086431 
L 415.274518 61.086431 
L 415.447772 60.16445 
L 416.968555 60.16445 
L 417.026306 59.242469 
L 418.316085 59.242469 
L 418.470088 58.320488 
L 421.319151 58.320488 
L 421.473154 57.398507 
L 428.961569 57.398507 
L 429.269576 56.476526 
L 456.566677 56.476526 
L 458.08746 55.554545 
L 498.109091 55.554545 
L 498.109091 55.554545 
" style="fill:none;stroke:#2b667c;stroke-linecap:square;stroke-width:1.5;"/>
   </g>
   <g id="line2d_14">
    <path clip-path="url(#pfa5d81105e)" d="M 92.290909 302.645455 
L 498.109091 55.554545 
" style="fill:none;stroke:#ff0000;stroke-linecap:square;stroke-width:1.5;"/>
   </g>
   <g id="patch_3">
    <path d="M 72 315 
L 72 43.2 
" style="fill:none;stroke:#000000;stroke-linecap:square;stroke-linejoin:miter;stroke-width:0.8;"/>
   </g>
   <g id="patch_4">
    <path d="M 518.4 315 
L 518.4 43.2 
" style="fill:none;stroke:#000000;stroke-linecap:square;stroke-linejoin:miter;stroke-width:0.8;"/>
   </g>
   <g id="patch_5">
    <path d="M 72 315 
L 518.4 315 
" style="fill:none;stroke:#000000;stroke-linecap:square;stroke-linejoin:miter;stroke-width:0.8;"/>
   </g>
   <g id="patch_6">
    <path d="M 72 43.2 
L 518.4 43.2 
" style="fill:none;stroke:#000000;stroke-linecap:square;stroke-linejoin:miter;stroke-width:0.8;"/>
   </g>
   <g id="text_15">
    <!-- TLAHUAC -->
    <g transform="translate(276.306875 37.2)scale(0.08 -0.08)">
     <defs>
      <path d="M 628 4666 
L 1259 4666 
L 1259 531 
L 3531 531 
L 3531 0 
L 628 0 
L 628 4666 
z
" id="DejaVuSans-4c" transform="scale(0.015625)"/>
      <path d="M 2188 4044 
L 1331 1722 
L 3047 1722 
L 2188 4044 
z
M 1831 4666 
L 2547 4666 
L 4325 0 
L 3669 0 
L 3244 1197 
L 1141 1197 
L 716 0 
L 50 0 
L 1831 4666 
z
" id="DejaVuSans-41" transform="scale(0.015625)"/>
      <path d="M 628 4666 
L 1259 4666 
L 1259 2753 
L 3553 2753 
L 3553 4666 
L 4184 4666 
L 4184 0 
L 3553 0 
L 3553 2222 
L 1259 2222 
L 1259 0 
L 628 0 
L 628 4666 
z
" id="DejaVuSans-48" transform="scale(0.015625)"/>
      <path d="M 556 4666 
L 1191 4666 
L 1191 1831 
Q 1191 1081 1462 751 
Q 1734 422 2344 422 
Q 2950 422 3222 751 
Q 3494 1081 3494 1831 
L 3494 4666 
L 4128 4666 
L 4128 1753 
Q 4128 841 3676 375 
Q 3225 -91 2344 -91 
Q 1459 -91 1007 375 
Q 556 841 556 1753 
L 556 4666 
z
" id="DejaVuSans-55" transform="scale(0.015625)"/>
      <path d="M 4122 4306 
L 4122 3641 
Q 3803 3938 3442 4084 
Q 3081 4231 2675 4231 
Q 1875 4231 1450 3742 
Q 1025 3253 1025 2328 
Q 1025 1406 1450 917 
Q 1875 428 2675 428 
Q 3081 428 3442 575 
Q 3803 722 4122 1019 
L 4122 359 
Q 3791 134 3420 21 
Q 3050 -91 2638 -91 
Q 1578 -91 968 557 
Q 359 1206 359 2328 
Q 359 3453 968 4101 
Q 1578 4750 2638 4750 
Q 3056 4750 3426 4639 
Q 3797 4528 4122 4306 
z
" id="DejaVuSans-43" transform="scale(0.015625)"/>
     </defs>
     <use xlink:href="#DejaVuSans-54"/>
     <use x="61.083984" xlink:href="#DejaVuSans-4c"/>
     <use x="119.046875" xlink:href="#DejaVuSans-41"/>
     <use x="187.455078" xlink:href="#DejaVuSans-48"/>
     <use x="262.650391" xlink:href="#DejaVuSans-55"/>
     <use x="335.84375" xlink:href="#DejaVuSans-41"/>
     <use x="402.501953" xlink:href="#DejaVuSans-43"/>
    </g>
   </g>
  </g>
  <g id="text_16">
   <!-- ROC Curve -->
   <g transform="translate(244.4125 19.3575)scale(0.16 -0.16)">
    <defs>
     <path d="M 2841 2188 
Q 3044 2119 3236 1894 
Q 3428 1669 3622 1275 
L 4263 0 
L 3584 0 
L 2988 1197 
Q 2756 1666 2539 1819 
Q 2322 1972 1947 1972 
L 1259 1972 
L 1259 0 
L 628 0 
L 628 4666 
L 2053 4666 
Q 2853 4666 3247 4331 
Q 3641 3997 3641 3322 
Q 3641 2881 3436 2590 
Q 3231 2300 2841 2188 
z
M 1259 4147 
L 1259 2491 
L 2053 2491 
Q 2509 2491 2742 2702 
Q 2975 2913 2975 3322 
Q 2975 3731 2742 3939 
Q 2509 4147 2053 4147 
L 1259 4147 
z
" id="DejaVuSans-52" transform="scale(0.015625)"/>
     <path d="M 2522 4238 
Q 1834 4238 1429 3725 
Q 1025 3213 1025 2328 
Q 1025 1447 1429 934 
Q 1834 422 2522 422 
Q 3209 422 3611 934 
Q 4013 1447 4013 2328 
Q 4013 3213 3611 3725 
Q 3209 4238 2522 4238 
z
M 2522 4750 
Q 3503 4750 4090 4092 
Q 4678 3434 4678 2328 
Q 4678 1225 4090 567 
Q 3503 -91 2522 -91 
Q 1538 -91 948 565 
Q 359 1222 359 2328 
Q 359 3434 948 4092 
Q 1538 4750 2522 4750 
z
" id="DejaVuSans-4f" transform="scale(0.015625)"/>
    </defs>
    <use xlink:href="#DejaVuSans-52"/>
    <use x="69.482422" xlink:href="#DejaVuSans-4f"/>
    <use x="148.193359" xlink:href="#DejaVuSans-43"/>
    <use x="218.017578" xlink:href="#DejaVuSans-20"/>
    <use x="249.804688" xlink:href="#DejaVuSans-43"/>
    <use x="319.628906" xlink:href="#DejaVuSans-75"/>
    <use x="383.007812" xlink:href="#DejaVuSans-72"/>
    <use x="424.121094" xlink:href="#DejaVuSans-76"/>
    <use x="483.300781" xlink:href="#DejaVuSans-65"/>
   </g>
  </g>
 </g>
 <defs>
  <clipPath id="pfa5d81105e">
   <rect height="271.8" width="446.4" x="72" y="43.2"/>
  </clipPath>
 </defs>
</svg>
