<?xml version="1.0" encoding="utf-8" standalone="no"?>
<!DOCTYPE svg PUBLIC "-//W3C//DTD SVG 1.1//EN"
  "http://www.w3.org/Graphics/SVG/1.1/DTD/svg11.dtd">
<svg height="288pt" version="1.1" viewBox="0 0 576 288" width="576pt" xmlns="http://www.w3.org/2000/svg" xmlns:xlink="http://www.w3.org/1999/xlink">
 <metadata>
  <rdf:RDF xmlns:cc="http://creativecommons.org/ns#" xmlns:dc="http://purl.org/dc/elements/1.1/" xmlns:rdf="http://www.w3.org/1999/02/22-rdf-syntax-ns#">
   <cc:Work>
    <dc:type rdf:resource="http://purl.org/dc/dcmitype/StillImage"/>
    <dc:date>2022-01-04T19:00:10.103351</dc:date>
    <dc:format>image/svg+xml</dc:format>
    <dc:creator>
     <cc:Agent>
      <dc:title>Matplotlib v3.4.3, https://matplotlib.org/</dc:title>
     </cc:Agent>
    </dc:creator>
   </cc:Work>
  </rdf:RDF>
 </metadata>
 <defs>
  <style type="text/css">*{stroke-linecap:butt;stroke-linejoin:round;}</style>
 </defs>
 <g id="figure_1">
  <g id="patch_1">
   <path d="M 0 288 
L 576 288 
L 576 0 
L 0 0 
z
" style="fill:none;"/>
  </g>
  <g id="axes_1">
   <g id="patch_2">
    <path d="M 72 252 
L 518.4 252 
L 518.4 34.56 
L 72 34.56 
z
" style="fill:#ffffff;"/>
   </g>
   <g id="matplotlib.axis_1">
    <g id="xtick_1">
     <g id="line2d_1">
      <defs>
       <path d="M 0 0 
L 0 3.5 
" id="m8a92055d9b" style="stroke:#000000;stroke-width:0.8;"/>
      </defs>
      <g>
       <use style="stroke:#000000;stroke-width:0.8;" x="91.884278" xlink:href="#m8a92055d9b" y="252"/>
      </g>
     </g>
     <g id="text_1">
      <!-- 0.0 -->
      <g transform="translate(83.932715 266.598437)scale(0.1 -0.1)">
       <defs>
        <path d="M 2034 4250 
Q 1547 4250 1301 3770 
Q 1056 3291 1056 2328 
Q 1056 1369 1301 889 
Q 1547 409 2034 409 
Q 2525 409 2770 889 
Q 3016 1369 3016 2328 
Q 3016 3291 2770 3770 
Q 2525 4250 2034 4250 
z
M 2034 4750 
Q 2819 4750 3233 4129 
Q 3647 3509 3647 2328 
Q 3647 1150 3233 529 
Q 2819 -91 2034 -91 
Q 1250 -91 836 529 
Q 422 1150 422 2328 
Q 422 3509 836 4129 
Q 1250 4750 2034 4750 
z
" id="DejaVuSans-30" transform="scale(0.015625)"/>
        <path d="M 684 794 
L 1344 794 
L 1344 0 
L 684 0 
L 684 794 
z
" id="DejaVuSans-2e" transform="scale(0.015625)"/>
       </defs>
       <use xlink:href="#DejaVuSans-30"/>
       <use x="63.623047" xlink:href="#DejaVuSans-2e"/>
       <use x="95.410156" xlink:href="#DejaVuSans-30"/>
      </g>
     </g>
    </g>
    <g id="xtick_2">
     <g id="line2d_2">
      <g>
       <use style="stroke:#000000;stroke-width:0.8;" x="173.210567" xlink:href="#m8a92055d9b" y="252"/>
      </g>
     </g>
     <g id="text_2">
      <!-- 0.2 -->
      <g transform="translate(165.259004 266.598437)scale(0.1 -0.1)">
       <defs>
        <path d="M 1228 531 
L 3431 531 
L 3431 0 
L 469 0 
L 469 531 
Q 828 903 1448 1529 
Q 2069 2156 2228 2338 
Q 2531 2678 2651 2914 
Q 2772 3150 2772 3378 
Q 2772 3750 2511 3984 
Q 2250 4219 1831 4219 
Q 1534 4219 1204 4116 
Q 875 4013 500 3803 
L 500 4441 
Q 881 4594 1212 4672 
Q 1544 4750 1819 4750 
Q 2544 4750 2975 4387 
Q 3406 4025 3406 3419 
Q 3406 3131 3298 2873 
Q 3191 2616 2906 2266 
Q 2828 2175 2409 1742 
Q 1991 1309 1228 531 
z
" id="DejaVuSans-32" transform="scale(0.015625)"/>
       </defs>
       <use xlink:href="#DejaVuSans-30"/>
       <use x="63.623047" xlink:href="#DejaVuSans-2e"/>
       <use x="95.410156" xlink:href="#DejaVuSans-32"/>
      </g>
     </g>
    </g>
    <g id="xtick_3">
     <g id="line2d_3">
      <g>
       <use style="stroke:#000000;stroke-width:0.8;" x="254.536856" xlink:href="#m8a92055d9b" y="252"/>
      </g>
     </g>
     <g id="text_3">
      <!-- 0.4 -->
      <g transform="translate(246.585293 266.598437)scale(0.1 -0.1)">
       <defs>
        <path d="M 2419 4116 
L 825 1625 
L 2419 1625 
L 2419 4116 
z
M 2253 4666 
L 3047 4666 
L 3047 1625 
L 3713 1625 
L 3713 1100 
L 3047 1100 
L 3047 0 
L 2419 0 
L 2419 1100 
L 313 1100 
L 313 1709 
L 2253 4666 
z
" id="DejaVuSans-34" transform="scale(0.015625)"/>
       </defs>
       <use xlink:href="#DejaVuSans-30"/>
       <use x="63.623047" xlink:href="#DejaVuSans-2e"/>
       <use x="95.410156" xlink:href="#DejaVuSans-34"/>
      </g>
     </g>
    </g>
    <g id="xtick_4">
     <g id="line2d_4">
      <g>
       <use style="stroke:#000000;stroke-width:0.8;" x="335.863144" xlink:href="#m8a92055d9b" y="252"/>
      </g>
     </g>
     <g id="text_4">
      <!-- 0.6 -->
      <g transform="translate(327.911582 266.598437)scale(0.1 -0.1)">
       <defs>
        <path d="M 2113 2584 
Q 1688 2584 1439 2293 
Q 1191 2003 1191 1497 
Q 1191 994 1439 701 
Q 1688 409 2113 409 
Q 2538 409 2786 701 
Q 3034 994 3034 1497 
Q 3034 2003 2786 2293 
Q 2538 2584 2113 2584 
z
M 3366 4563 
L 3366 3988 
Q 3128 4100 2886 4159 
Q 2644 4219 2406 4219 
Q 1781 4219 1451 3797 
Q 1122 3375 1075 2522 
Q 1259 2794 1537 2939 
Q 1816 3084 2150 3084 
Q 2853 3084 3261 2657 
Q 3669 2231 3669 1497 
Q 3669 778 3244 343 
Q 2819 -91 2113 -91 
Q 1303 -91 875 529 
Q 447 1150 447 2328 
Q 447 3434 972 4092 
Q 1497 4750 2381 4750 
Q 2619 4750 2861 4703 
Q 3103 4656 3366 4563 
z
" id="DejaVuSans-36" transform="scale(0.015625)"/>
       </defs>
       <use xlink:href="#DejaVuSans-30"/>
       <use x="63.623047" xlink:href="#DejaVuSans-2e"/>
       <use x="95.410156" xlink:href="#DejaVuSans-36"/>
      </g>
     </g>
    </g>
    <g id="xtick_5">
     <g id="line2d_5">
      <g>
       <use style="stroke:#000000;stroke-width:0.8;" x="417.189433" xlink:href="#m8a92055d9b" y="252"/>
      </g>
     </g>
     <g id="text_5">
      <!-- 0.8 -->
      <g transform="translate(409.237871 266.598437)scale(0.1 -0.1)">
       <defs>
        <path d="M 2034 2216 
Q 1584 2216 1326 1975 
Q 1069 1734 1069 1313 
Q 1069 891 1326 650 
Q 1584 409 2034 409 
Q 2484 409 2743 651 
Q 3003 894 3003 1313 
Q 3003 1734 2745 1975 
Q 2488 2216 2034 2216 
z
M 1403 2484 
Q 997 2584 770 2862 
Q 544 3141 544 3541 
Q 544 4100 942 4425 
Q 1341 4750 2034 4750 
Q 2731 4750 3128 4425 
Q 3525 4100 3525 3541 
Q 3525 3141 3298 2862 
Q 3072 2584 2669 2484 
Q 3125 2378 3379 2068 
Q 3634 1759 3634 1313 
Q 3634 634 3220 271 
Q 2806 -91 2034 -91 
Q 1263 -91 848 271 
Q 434 634 434 1313 
Q 434 1759 690 2068 
Q 947 2378 1403 2484 
z
M 1172 3481 
Q 1172 3119 1398 2916 
Q 1625 2713 2034 2713 
Q 2441 2713 2670 2916 
Q 2900 3119 2900 3481 
Q 2900 3844 2670 4047 
Q 2441 4250 2034 4250 
Q 1625 4250 1398 4047 
Q 1172 3844 1172 3481 
z
" id="DejaVuSans-38" transform="scale(0.015625)"/>
       </defs>
       <use xlink:href="#DejaVuSans-30"/>
       <use x="63.623047" xlink:href="#DejaVuSans-2e"/>
       <use x="95.410156" xlink:href="#DejaVuSans-38"/>
      </g>
     </g>
    </g>
    <g id="xtick_6">
     <g id="line2d_6">
      <g>
       <use style="stroke:#000000;stroke-width:0.8;" x="498.515722" xlink:href="#m8a92055d9b" y="252"/>
      </g>
     </g>
     <g id="text_6">
      <!-- 1.0 -->
      <g transform="translate(490.56416 266.598437)scale(0.1 -0.1)">
       <defs>
        <path d="M 794 531 
L 1825 531 
L 1825 4091 
L 703 3866 
L 703 4441 
L 1819 4666 
L 2450 4666 
L 2450 531 
L 3481 531 
L 3481 0 
L 794 0 
L 794 531 
z
" id="DejaVuSans-31" transform="scale(0.015625)"/>
       </defs>
       <use xlink:href="#DejaVuSans-31"/>
       <use x="63.623047" xlink:href="#DejaVuSans-2e"/>
       <use x="95.410156" xlink:href="#DejaVuSans-30"/>
      </g>
     </g>
    </g>
    <g id="text_7">
     <!-- Thresholds -->
     <g transform="translate(267.957031 280.276563)scale(0.1 -0.1)">
      <defs>
       <path d="M -19 4666 
L 3928 4666 
L 3928 4134 
L 2272 4134 
L 2272 0 
L 1638 0 
L 1638 4134 
L -19 4134 
L -19 4666 
z
" id="DejaVuSans-54" transform="scale(0.015625)"/>
       <path d="M 3513 2113 
L 3513 0 
L 2938 0 
L 2938 2094 
Q 2938 2591 2744 2837 
Q 2550 3084 2163 3084 
Q 1697 3084 1428 2787 
Q 1159 2491 1159 1978 
L 1159 0 
L 581 0 
L 581 4863 
L 1159 4863 
L 1159 2956 
Q 1366 3272 1645 3428 
Q 1925 3584 2291 3584 
Q 2894 3584 3203 3211 
Q 3513 2838 3513 2113 
z
" id="DejaVuSans-68" transform="scale(0.015625)"/>
       <path d="M 2631 2963 
Q 2534 3019 2420 3045 
Q 2306 3072 2169 3072 
Q 1681 3072 1420 2755 
Q 1159 2438 1159 1844 
L 1159 0 
L 581 0 
L 581 3500 
L 1159 3500 
L 1159 2956 
Q 1341 3275 1631 3429 
Q 1922 3584 2338 3584 
Q 2397 3584 2469 3576 
Q 2541 3569 2628 3553 
L 2631 2963 
z
" id="DejaVuSans-72" transform="scale(0.015625)"/>
       <path d="M 3597 1894 
L 3597 1613 
L 953 1613 
Q 991 1019 1311 708 
Q 1631 397 2203 397 
Q 2534 397 2845 478 
Q 3156 559 3463 722 
L 3463 178 
Q 3153 47 2828 -22 
Q 2503 -91 2169 -91 
Q 1331 -91 842 396 
Q 353 884 353 1716 
Q 353 2575 817 3079 
Q 1281 3584 2069 3584 
Q 2775 3584 3186 3129 
Q 3597 2675 3597 1894 
z
M 3022 2063 
Q 3016 2534 2758 2815 
Q 2500 3097 2075 3097 
Q 1594 3097 1305 2825 
Q 1016 2553 972 2059 
L 3022 2063 
z
" id="DejaVuSans-65" transform="scale(0.015625)"/>
       <path d="M 2834 3397 
L 2834 2853 
Q 2591 2978 2328 3040 
Q 2066 3103 1784 3103 
Q 1356 3103 1142 2972 
Q 928 2841 928 2578 
Q 928 2378 1081 2264 
Q 1234 2150 1697 2047 
L 1894 2003 
Q 2506 1872 2764 1633 
Q 3022 1394 3022 966 
Q 3022 478 2636 193 
Q 2250 -91 1575 -91 
Q 1294 -91 989 -36 
Q 684 19 347 128 
L 347 722 
Q 666 556 975 473 
Q 1284 391 1588 391 
Q 1994 391 2212 530 
Q 2431 669 2431 922 
Q 2431 1156 2273 1281 
Q 2116 1406 1581 1522 
L 1381 1569 
Q 847 1681 609 1914 
Q 372 2147 372 2553 
Q 372 3047 722 3315 
Q 1072 3584 1716 3584 
Q 2034 3584 2315 3537 
Q 2597 3491 2834 3397 
z
" id="DejaVuSans-73" transform="scale(0.015625)"/>
       <path d="M 1959 3097 
Q 1497 3097 1228 2736 
Q 959 2375 959 1747 
Q 959 1119 1226 758 
Q 1494 397 1959 397 
Q 2419 397 2687 759 
Q 2956 1122 2956 1747 
Q 2956 2369 2687 2733 
Q 2419 3097 1959 3097 
z
M 1959 3584 
Q 2709 3584 3137 3096 
Q 3566 2609 3566 1747 
Q 3566 888 3137 398 
Q 2709 -91 1959 -91 
Q 1206 -91 779 398 
Q 353 888 353 1747 
Q 353 2609 779 3096 
Q 1206 3584 1959 3584 
z
" id="DejaVuSans-6f" transform="scale(0.015625)"/>
       <path d="M 603 4863 
L 1178 4863 
L 1178 0 
L 603 0 
L 603 4863 
z
" id="DejaVuSans-6c" transform="scale(0.015625)"/>
       <path d="M 2906 2969 
L 2906 4863 
L 3481 4863 
L 3481 0 
L 2906 0 
L 2906 525 
Q 2725 213 2448 61 
Q 2172 -91 1784 -91 
Q 1150 -91 751 415 
Q 353 922 353 1747 
Q 353 2572 751 3078 
Q 1150 3584 1784 3584 
Q 2172 3584 2448 3432 
Q 2725 3281 2906 2969 
z
M 947 1747 
Q 947 1113 1208 752 
Q 1469 391 1925 391 
Q 2381 391 2643 752 
Q 2906 1113 2906 1747 
Q 2906 2381 2643 2742 
Q 2381 3103 1925 3103 
Q 1469 3103 1208 2742 
Q 947 2381 947 1747 
z
" id="DejaVuSans-64" transform="scale(0.015625)"/>
      </defs>
      <use xlink:href="#DejaVuSans-54"/>
      <use x="61.083984" xlink:href="#DejaVuSans-68"/>
      <use x="124.462891" xlink:href="#DejaVuSans-72"/>
      <use x="163.326172" xlink:href="#DejaVuSans-65"/>
      <use x="224.849609" xlink:href="#DejaVuSans-73"/>
      <use x="276.949219" xlink:href="#DejaVuSans-68"/>
      <use x="340.328125" xlink:href="#DejaVuSans-6f"/>
      <use x="401.509766" xlink:href="#DejaVuSans-6c"/>
      <use x="429.292969" xlink:href="#DejaVuSans-64"/>
      <use x="492.769531" xlink:href="#DejaVuSans-73"/>
     </g>
    </g>
   </g>
   <g id="matplotlib.axis_2">
    <g id="ytick_1">
     <g id="line2d_7">
      <defs>
       <path d="M 0 0 
L -3.5 0 
" id="mde886ba41b" style="stroke:#000000;stroke-width:0.8;"/>
      </defs>
      <g>
       <use style="stroke:#000000;stroke-width:0.8;" x="72" xlink:href="#mde886ba41b" y="242.116364"/>
      </g>
     </g>
     <g id="text_8">
      <!-- 0.00 -->
      <g transform="translate(42.734375 245.915582)scale(0.1 -0.1)">
       <use xlink:href="#DejaVuSans-30"/>
       <use x="63.623047" xlink:href="#DejaVuSans-2e"/>
       <use x="95.410156" xlink:href="#DejaVuSans-30"/>
       <use x="159.033203" xlink:href="#DejaVuSans-30"/>
      </g>
     </g>
    </g>
    <g id="ytick_2">
     <g id="line2d_8">
      <g>
       <use style="stroke:#000000;stroke-width:0.8;" x="72" xlink:href="#mde886ba41b" y="207.735429"/>
      </g>
     </g>
     <g id="text_9">
      <!-- 0.01 -->
      <g transform="translate(42.734375 211.534647)scale(0.1 -0.1)">
       <use xlink:href="#DejaVuSans-30"/>
       <use x="63.623047" xlink:href="#DejaVuSans-2e"/>
       <use x="95.410156" xlink:href="#DejaVuSans-30"/>
       <use x="159.033203" xlink:href="#DejaVuSans-31"/>
      </g>
     </g>
    </g>
    <g id="ytick_3">
     <g id="line2d_9">
      <g>
       <use style="stroke:#000000;stroke-width:0.8;" x="72" xlink:href="#mde886ba41b" y="173.354494"/>
      </g>
     </g>
     <g id="text_10">
      <!-- 0.02 -->
      <g transform="translate(42.734375 177.153712)scale(0.1 -0.1)">
       <use xlink:href="#DejaVuSans-30"/>
       <use x="63.623047" xlink:href="#DejaVuSans-2e"/>
       <use x="95.410156" xlink:href="#DejaVuSans-30"/>
       <use x="159.033203" xlink:href="#DejaVuSans-32"/>
      </g>
     </g>
    </g>
    <g id="ytick_4">
     <g id="line2d_10">
      <g>
       <use style="stroke:#000000;stroke-width:0.8;" x="72" xlink:href="#mde886ba41b" y="138.973558"/>
      </g>
     </g>
     <g id="text_11">
      <!-- 0.03 -->
      <g transform="translate(42.734375 142.772777)scale(0.1 -0.1)">
       <defs>
        <path d="M 2597 2516 
Q 3050 2419 3304 2112 
Q 3559 1806 3559 1356 
Q 3559 666 3084 287 
Q 2609 -91 1734 -91 
Q 1441 -91 1130 -33 
Q 819 25 488 141 
L 488 750 
Q 750 597 1062 519 
Q 1375 441 1716 441 
Q 2309 441 2620 675 
Q 2931 909 2931 1356 
Q 2931 1769 2642 2001 
Q 2353 2234 1838 2234 
L 1294 2234 
L 1294 2753 
L 1863 2753 
Q 2328 2753 2575 2939 
Q 2822 3125 2822 3475 
Q 2822 3834 2567 4026 
Q 2313 4219 1838 4219 
Q 1578 4219 1281 4162 
Q 984 4106 628 3988 
L 628 4550 
Q 988 4650 1302 4700 
Q 1616 4750 1894 4750 
Q 2613 4750 3031 4423 
Q 3450 4097 3450 3541 
Q 3450 3153 3228 2886 
Q 3006 2619 2597 2516 
z
" id="DejaVuSans-33" transform="scale(0.015625)"/>
       </defs>
       <use xlink:href="#DejaVuSans-30"/>
       <use x="63.623047" xlink:href="#DejaVuSans-2e"/>
       <use x="95.410156" xlink:href="#DejaVuSans-30"/>
       <use x="159.033203" xlink:href="#DejaVuSans-33"/>
      </g>
     </g>
    </g>
    <g id="ytick_5">
     <g id="line2d_11">
      <g>
       <use style="stroke:#000000;stroke-width:0.8;" x="72" xlink:href="#mde886ba41b" y="104.592623"/>
      </g>
     </g>
     <g id="text_12">
      <!-- 0.04 -->
      <g transform="translate(42.734375 108.391842)scale(0.1 -0.1)">
       <use xlink:href="#DejaVuSans-30"/>
       <use x="63.623047" xlink:href="#DejaVuSans-2e"/>
       <use x="95.410156" xlink:href="#DejaVuSans-30"/>
       <use x="159.033203" xlink:href="#DejaVuSans-34"/>
      </g>
     </g>
    </g>
    <g id="ytick_6">
     <g id="line2d_12">
      <g>
       <use style="stroke:#000000;stroke-width:0.8;" x="72" xlink:href="#mde886ba41b" y="70.211688"/>
      </g>
     </g>
     <g id="text_13">
      <!-- 0.05 -->
      <g transform="translate(42.734375 74.010907)scale(0.1 -0.1)">
       <defs>
        <path d="M 691 4666 
L 3169 4666 
L 3169 4134 
L 1269 4134 
L 1269 2991 
Q 1406 3038 1543 3061 
Q 1681 3084 1819 3084 
Q 2600 3084 3056 2656 
Q 3513 2228 3513 1497 
Q 3513 744 3044 326 
Q 2575 -91 1722 -91 
Q 1428 -91 1123 -41 
Q 819 9 494 109 
L 494 744 
Q 775 591 1075 516 
Q 1375 441 1709 441 
Q 2250 441 2565 725 
Q 2881 1009 2881 1497 
Q 2881 1984 2565 2268 
Q 2250 2553 1709 2553 
Q 1456 2553 1204 2497 
Q 953 2441 691 2322 
L 691 4666 
z
" id="DejaVuSans-35" transform="scale(0.015625)"/>
       </defs>
       <use xlink:href="#DejaVuSans-30"/>
       <use x="63.623047" xlink:href="#DejaVuSans-2e"/>
       <use x="95.410156" xlink:href="#DejaVuSans-30"/>
       <use x="159.033203" xlink:href="#DejaVuSans-35"/>
      </g>
     </g>
    </g>
    <g id="ytick_7">
     <g id="line2d_13">
      <g>
       <use style="stroke:#000000;stroke-width:0.8;" x="72" xlink:href="#mde886ba41b" y="35.830753"/>
      </g>
     </g>
     <g id="text_14">
      <!-- 0.06 -->
      <g transform="translate(42.734375 39.629972)scale(0.1 -0.1)">
       <use xlink:href="#DejaVuSans-30"/>
       <use x="63.623047" xlink:href="#DejaVuSans-2e"/>
       <use x="95.410156" xlink:href="#DejaVuSans-30"/>
       <use x="159.033203" xlink:href="#DejaVuSans-36"/>
      </g>
     </g>
    </g>
    <g id="text_15">
     <!-- F1 score -->
     <g transform="translate(36.654687 164.358906)rotate(-90)scale(0.1 -0.1)">
      <defs>
       <path d="M 628 4666 
L 3309 4666 
L 3309 4134 
L 1259 4134 
L 1259 2759 
L 3109 2759 
L 3109 2228 
L 1259 2228 
L 1259 0 
L 628 0 
L 628 4666 
z
" id="DejaVuSans-46" transform="scale(0.015625)"/>
       <path id="DejaVuSans-20" transform="scale(0.015625)"/>
       <path d="M 3122 3366 
L 3122 2828 
Q 2878 2963 2633 3030 
Q 2388 3097 2138 3097 
Q 1578 3097 1268 2742 
Q 959 2388 959 1747 
Q 959 1106 1268 751 
Q 1578 397 2138 397 
Q 2388 397 2633 464 
Q 2878 531 3122 666 
L 3122 134 
Q 2881 22 2623 -34 
Q 2366 -91 2075 -91 
Q 1284 -91 818 406 
Q 353 903 353 1747 
Q 353 2603 823 3093 
Q 1294 3584 2113 3584 
Q 2378 3584 2631 3529 
Q 2884 3475 3122 3366 
z
" id="DejaVuSans-63" transform="scale(0.015625)"/>
      </defs>
      <use xlink:href="#DejaVuSans-46"/>
      <use x="57.519531" xlink:href="#DejaVuSans-31"/>
      <use x="121.142578" xlink:href="#DejaVuSans-20"/>
      <use x="152.929688" xlink:href="#DejaVuSans-73"/>
      <use x="205.029297" xlink:href="#DejaVuSans-63"/>
      <use x="260.009766" xlink:href="#DejaVuSans-6f"/>
      <use x="321.191406" xlink:href="#DejaVuSans-72"/>
      <use x="360.054688" xlink:href="#DejaVuSans-65"/>
     </g>
    </g>
   </g>
   <g id="line2d_14">
    <path clip-path="url(#p2c8acf51e2)" d="M 92.290909 185.457684 
L 93.104172 184.818177 
L 93.917435 183.984844 
L 94.324066 183.973041 
L 95.950592 182.329308 
L 96.357224 182.319027 
L 97.170486 181.530202 
L 97.983749 181.015059 
L 98.390381 180.973561 
L 99.610275 180.167944 
L 104.083221 178.541482 
L 104.489852 178.523969 
L 106.116378 178.004216 
L 107.336273 177.825622 
L 108.962798 177.394983 
L 118.315322 175.235344 
L 119.941847 175.002698 
L 122.381636 174.456141 
L 122.788267 174.506087 
L 123.60153 174.263394 
L 124.008162 174.276151 
L 128.481108 173.259077 
L 129.294371 173.083292 
L 130.920896 172.653915 
L 131.734159 172.585577 
L 133.360685 172.121829 
L 136.207105 171.345783 
L 137.426999 171.180691 
L 139.866788 170.533215 
L 140.27342 170.525793 
L 141.086682 170.340311 
L 141.899945 170.229048 
L 143.11984 169.94502 
L 144.339734 169.729966 
L 145.559628 169.420552 
L 145.96626 169.546956 
L 146.779523 169.432506 
L 148.406048 169.154151 
L 149.219311 169.045426 
L 150.845837 168.561715 
L 152.472363 168.212268 
L 153.285626 168.026463 
L 155.725414 167.328075 
L 156.538677 167.208576 
L 158.571835 166.668186 
L 159.385097 166.518903 
L 160.19836 166.42693 
L 164.264675 165.337334 
L 164.671306 165.311816 
L 165.484569 165.146629 
L 167.924358 164.473609 
L 168.330989 164.362426 
L 169.144252 164.339149 
L 170.364146 164.107475 
L 171.584041 163.785274 
L 171.990672 163.863134 
L 176.463618 162.672098 
L 176.87025 162.686341 
L 179.310038 161.961959 
L 179.71667 161.985052 
L 180.936564 161.63143 
L 182.156458 161.406311 
L 183.782984 160.849175 
L 184.189616 160.833016 
L 184.596247 160.932808 
L 185.40951 160.792774 
L 185.816141 160.806425 
L 187.849299 160.111936 
L 188.25593 160.082603 
L 189.475824 159.683081 
L 189.882456 159.637468 
L 190.695719 159.310821 
L 191.915613 159.211104 
L 192.322244 159.048166 
L 193.135507 158.993381 
L 194.762033 158.61158 
L 195.981927 158.461393 
L 197.608453 158.069015 
L 199.234979 157.770166 
L 199.64161 158.129871 
L 200.454873 157.903551 
L 201.268136 157.586223 
L 201.674768 157.575714 
L 203.301293 157.110157 
L 204.114556 156.95913 
L 204.521188 156.825485 
L 204.927819 156.966376 
L 205.334451 156.970822 
L 206.554345 156.521219 
L 206.960976 156.508689 
L 207.367608 156.612919 
L 208.180871 156.353693 
L 208.587502 156.36253 
L 209.807397 156.034304 
L 210.214028 155.949274 
L 211.027291 155.590643 
L 212.247185 155.155984 
L 212.653817 155.285622 
L 213.060448 155.250178 
L 214.280343 154.854763 
L 215.500237 154.862028 
L 216.720131 154.345174 
L 217.940026 153.935351 
L 218.753288 153.979633 
L 220.786446 153.188719 
L 221.599709 153.190479 
L 223.226234 152.828077 
L 224.039497 152.444858 
L 224.446129 152.446122 
L 224.85276 152.178466 
L 225.259392 152.151298 
L 226.479286 151.621318 
L 228.919075 150.701285 
L 229.325706 150.806682 
L 229.732337 150.527358 
L 230.5456 150.31068 
L 231.358863 149.96477 
L 231.765495 149.942275 
L 232.172126 149.672627 
L 232.985389 149.343354 
L 233.39202 149.470231 
L 235.018546 149.136146 
L 236.238441 148.41887 
L 236.645072 148.427918 
L 237.458335 148.115798 
L 237.864966 147.91158 
L 238.271598 147.838295 
L 238.678229 147.903165 
L 239.491492 147.473727 
L 240.304755 147.704355 
L 240.711386 147.515463 
L 241.931281 147.397036 
L 242.337912 147.166858 
L 243.557807 147.152245 
L 244.777701 146.624745 
L 245.184332 146.347301 
L 245.590964 146.801307 
L 246.810858 146.53607 
L 247.624121 146.145682 
L 248.030752 146.184541 
L 248.844015 145.767299 
L 249.250647 145.567551 
L 249.657278 145.531584 
L 250.470541 145.011214 
L 250.877173 144.884288 
L 252.503698 143.840289 
L 252.91033 143.89457 
L 253.723593 143.226329 
L 254.130224 143.198822 
L 254.536856 142.905198 
L 256.163381 142.304832 
L 256.570013 142.463936 
L 256.976644 142.279385 
L 257.383276 142.31091 
L 258.60317 141.584801 
L 259.009801 141.479167 
L 259.823064 141.474053 
L 260.229696 141.143945 
L 261.042959 141.1959 
L 261.856222 141.001121 
L 262.262853 141.050247 
L 262.669484 140.752278 
L 263.076116 140.814291 
L 263.482747 140.598029 
L 263.889379 140.659481 
L 264.29601 140.514491 
L 264.702642 140.134473 
L 265.515905 139.773449 
L 266.735799 138.777759 
L 267.14243 138.930867 
L 267.549062 138.820528 
L 267.955693 138.471787 
L 268.362325 138.506857 
L 269.175588 138.241461 
L 269.98885 138.229126 
L 270.802113 137.677396 
L 271.208745 138.008175 
L 271.615376 137.792659 
L 272.022008 138.037032 
L 272.428639 137.643128 
L 272.835271 137.751239 
L 273.241902 137.5615 
L 273.648533 137.879836 
L 274.055165 137.732208 
L 274.461796 137.757636 
L 275.275059 137.39797 
L 276.494954 136.875538 
L 276.901585 136.880535 
L 277.308216 136.701278 
L 277.714848 136.359001 
L 278.121479 136.241234 
L 278.934742 135.488877 
L 279.341374 135.255227 
L 279.748005 135.802047 
L 280.154637 135.745512 
L 280.561268 135.295971 
L 282.594425 134.00857 
L 283.001057 134.262648 
L 283.81432 134.279673 
L 284.627582 133.758035 
L 285.847477 133.309315 
L 286.66074 133.388619 
L 287.474003 132.872894 
L 287.880634 132.37524 
L 288.287265 132.821158 
L 289.100528 132.152569 
L 289.913791 131.665114 
L 290.727054 131.559005 
L 291.133686 131.31275 
L 292.760211 131.059356 
L 293.166843 130.73032 
L 293.573474 130.80472 
L 294.386737 130.370973 
L 294.793369 130.044154 
L 295.2 129.897796 
L 295.606631 129.962325 
L 296.826526 128.871872 
L 298.04642 128.20715 
L 298.453052 128.540058 
L 298.859683 128.226046 
L 299.266314 127.734733 
L 299.672946 127.7079 
L 300.486209 126.936143 
L 300.89284 127.203432 
L 301.299472 126.870295 
L 301.706103 126.889303 
L 302.925997 125.520685 
L 304.552523 125.227192 
L 305.365786 124.140709 
L 306.179049 123.412411 
L 306.58568 123.693426 
L 306.992312 123.083728 
L 307.805575 122.86566 
L 308.618838 123.390457 
L 309.432101 122.667773 
L 309.838732 122.356172 
L 310.651995 122.097774 
L 311.058626 121.729704 
L 311.465258 121.994243 
L 313.905046 119.871818 
L 314.311678 119.184251 
L 314.718309 118.85636 
L 315.938204 117.064056 
L 316.344835 117.249225 
L 316.751467 118.290343 
L 317.158098 118.9036 
L 317.564729 119.219632 
L 317.971361 118.921251 
L 318.784624 117.565683 
L 319.191255 116.956542 
L 320.004518 116.874588 
L 320.41115 117.202675 
L 320.817781 116.67221 
L 321.224412 117.911027 
L 321.631044 118.207522 
L 322.444307 117.370707 
L 322.850938 116.622897 
L 323.664201 115.797621 
L 324.070833 115.558876 
L 324.477464 114.693026 
L 324.884095 114.251439 
L 325.290727 114.732855 
L 325.697358 114.087073 
L 326.10399 113.714258 
L 326.510621 112.932047 
L 327.323884 112.291679 
L 328.137147 111.309553 
L 328.543778 111.89925 
L 328.95041 112.289724 
L 329.357041 111.656699 
L 330.170304 111.613033 
L 330.576936 111.462076 
L 330.983567 110.702682 
L 331.390199 110.648327 
L 331.79683 109.776506 
L 332.203461 109.445755 
L 332.610093 109.482418 
L 333.016724 109.654077 
L 333.423356 109.119432 
L 333.829987 109.487512 
L 335.049882 108.887547 
L 336.269776 109.082956 
L 337.083039 108.493954 
L 337.48967 108.543985 
L 338.302933 107.104816 
L 338.709565 106.710701 
L 339.522827 105.685598 
L 340.33609 105.755924 
L 340.742722 106.346001 
L 341.149353 106.584589 
L 341.555985 105.818129 
L 342.369248 106.986132 
L 342.775879 106.538564 
L 343.18251 106.715769 
L 343.589142 107.178595 
L 344.402405 105.857303 
L 344.809036 105.909428 
L 345.215668 105.720275 
L 345.622299 104.877144 
L 346.028931 105.377605 
L 346.842193 104.251162 
L 347.248825 104.79003 
L 347.655456 104.342125 
L 348.062088 104.688301 
L 348.875351 103.94343 
L 349.281982 102.823829 
L 349.688614 103.792032 
L 350.095245 102.963959 
L 350.501876 103.430908 
L 350.908508 102.203197 
L 351.315139 101.525179 
L 351.721771 101.278798 
L 352.128402 101.473413 
L 352.941665 101.114579 
L 353.348297 101.50582 
L 354.161559 100.453177 
L 354.974822 100.429354 
L 355.381454 100.429975 
L 355.788085 99.826657 
L 356.194717 100.175585 
L 356.601348 100.339312 
L 357.00798 99.14564 
L 357.821242 98.318749 
L 358.227874 98.131361 
L 358.634505 98.506034 
L 359.041137 97.458978 
L 359.447768 96.967024 
L 359.8544 96.650394 
L 360.261031 96.122853 
L 360.667663 96.434435 
L 361.480925 95.219742 
L 361.887557 94.777412 
L 362.70082 93.463275 
L 363.107451 93.112557 
L 363.514083 93.73399 
L 363.920714 92.871133 
L 364.327346 91.22097 
L 364.733977 91.24103 
L 365.54724 90.179294 
L 365.953871 90.17289 
L 366.360503 89.045417 
L 366.767134 88.293424 
L 367.173766 88.285316 
L 367.987029 87.734078 
L 368.39366 86.207897 
L 368.800291 87.623533 
L 369.206923 85.824947 
L 369.613554 86.552315 
L 370.020186 86.117746 
L 370.426817 85.88377 
L 370.833449 85.943343 
L 371.24008 85.420413 
L 371.646712 83.844361 
L 372.053343 83.125503 
L 372.459974 81.685538 
L 373.273237 80.751879 
L 373.679869 79.025533 
L 374.0865 79.432763 
L 374.899763 77.532466 
L 375.306395 76.51186 
L 375.713026 76.451258 
L 376.119657 74.920905 
L 376.526289 75.032821 
L 376.93292 74.133749 
L 377.339552 73.637427 
L 377.746183 72.119432 
L 378.152815 74.106463 
L 378.966078 73.875008 
L 379.372709 72.844375 
L 379.77934 72.54719 
L 380.185972 72.958527 
L 380.592603 72.225651 
L 380.999235 72.056675 
L 381.812498 70.744663 
L 382.219129 69.714375 
L 382.625761 70.462889 
L 383.032392 70.190619 
L 383.439024 69.765954 
L 383.845655 68.17668 
L 384.252286 67.576306 
L 384.658918 66.453732 
L 385.065549 65.961178 
L 385.472181 66.622032 
L 385.878812 67.933918 
L 387.098707 63.83469 
L 387.505338 65.162481 
L 387.911969 63.696078 
L 388.318601 63.869299 
L 388.725232 63.068835 
L 389.131864 61.492756 
L 389.538495 60.653342 
L 389.945127 59.415743 
L 390.351758 60.25372 
L 390.75839 59.589206 
L 391.165021 60.052313 
L 391.571652 59.130902 
L 391.978284 56.885346 
L 392.384915 56.49894 
L 392.791547 57.754064 
L 393.198178 57.790907 
L 393.60481 57.951903 
L 394.011441 59.198749 
L 394.418073 57.373133 
L 394.824704 56.333605 
L 395.231335 56.545392 
L 395.637967 56.487611 
L 396.044598 54.38627 
L 396.857861 57.6075 
L 397.264493 57.58425 
L 397.671124 61.510304 
L 398.077756 61.322665 
L 399.704281 58.717879 
L 400.110913 56.92483 
L 400.517544 55.961189 
L 400.924176 56.027275 
L 401.330807 55.284758 
L 402.14407 57.885447 
L 402.957333 59.875648 
L 403.363964 58.78786 
L 403.770596 57.280043 
L 404.177227 58.095833 
L 404.583859 56.426712 
L 405.397122 54.400213 
L 405.803753 54.330586 
L 407.023647 46.830822 
L 407.430279 46.091433 
L 407.83691 50.639339 
L 408.243542 53.021221 
L 409.056805 48.127409 
L 409.463436 49.447125 
L 409.870067 48.513389 
L 410.68333 54.462137 
L 411.089962 54.307122 
L 411.496593 55.950347 
L 411.903225 53.751351 
L 412.309856 52.86351 
L 412.716488 53.025639 
L 413.123119 51.802859 
L 413.52975 52.354368 
L 413.936382 54.518397 
L 414.343013 53.130251 
L 414.749645 51.264095 
L 415.156276 50.542855 
L 415.562908 51.059138 
L 415.969539 50.319929 
L 416.376171 48.014942 
L 416.782802 47.507297 
L 417.189433 44.570654 
L 417.596065 44.443636 
L 418.002696 49.517562 
L 418.815959 54.507337 
L 419.222591 54.487075 
L 419.629222 53.375111 
L 420.035854 51.171442 
L 420.442485 51.111169 
L 420.849116 59.759528 
L 421.662379 56.701258 
L 422.069011 58.261096 
L 422.475642 56.717465 
L 422.882274 58.656073 
L 423.288905 63.388637 
L 423.695537 62.568785 
L 424.102168 63.291407 
L 424.508799 68.537896 
L 424.915431 67.340368 
L 425.322062 68.745686 
L 425.728694 68.03568 
L 426.135325 68.984259 
L 426.541957 66.207799 
L 426.948588 67.499841 
L 427.35522 64.492746 
L 428.168482 61.811102 
L 428.575114 64.236021 
L 428.981745 60.341903 
L 429.388377 60.023139 
L 429.795008 64.082659 
L 430.20164 66.414747 
L 430.608271 64.569303 
L 431.421534 71.066935 
L 431.828165 69.662973 
L 432.234797 68.952313 
L 432.641428 70.766987 
L 433.04806 66.885548 
L 433.454691 64.369069 
L 433.861323 66.990025 
L 434.267954 67.86601 
L 435.081217 75.069679 
L 435.487848 72.718091 
L 435.89448 78.231582 
L 436.301111 77.887598 
L 436.707743 76.164316 
L 437.114374 73.869235 
L 437.521006 75.488245 
L 437.927637 74.404485 
L 438.334269 80.102094 
L 438.7409 81.761086 
L 439.554163 97.642247 
L 439.960794 97.230874 
L 440.367426 94.541584 
L 440.774057 99.202738 
L 441.180689 98.00466 
L 441.58732 100.339312 
L 441.993952 99.994565 
L 442.400583 106.457927 
L 442.807214 104.247952 
L 443.213846 106.689555 
L 443.620477 104.94661 
L 444.027109 104.592623 
L 444.43374 102.06262 
L 445.247003 106.371351 
L 445.653635 109.243185 
L 446.060266 108.87537 
L 446.873529 106.146564 
L 447.28016 103.702822 
L 447.686792 103.303648 
L 448.093423 112.093918 
L 448.500055 125.312596 
L 448.906686 133.951624 
L 449.719949 139.244274 
L 450.12658 138.919244 
L 450.533212 143.336343 
L 450.939843 142.381177 
L 451.346475 147.002304 
L 451.753106 162.094237 
L 452.159738 161.287969 
L 452.566369 171.771739 
L 452.973001 171.288686 
L 453.379632 170.239844 
L 453.786263 174.096528 
L 454.192895 173.789302 
L 454.599526 173.291926 
L 455.006158 172.532134 
L 456.226052 170.894088 
L 456.632684 174.9661 
L 457.039315 173.832481 
L 457.852578 185.347018 
L 458.259209 184.874432 
L 458.665841 191.073618 
L 459.479104 190.581771 
L 459.885735 190.136548 
L 460.292367 197.173965 
L 461.105629 196.628908 
L 461.512261 195.760047 
L 461.918892 203.179857 
L 462.325524 203.002672 
L 463.545418 200.990843 
L 463.95205 200.793124 
L 464.358681 200.793124 
L 464.765312 200.391928 
L 465.171944 208.573988 
L 466.391838 208.573988 
L 466.79847 216.928865 
L 467.611733 216.55433 
L 468.018364 224.641937 
L 468.424995 224.641937 
L 468.831627 233.243864 
L 470.864784 233.139618 
L 471.678047 233.127884 
L 472.084678 242.116364 
L 498.109091 242.116364 
L 498.109091 242.116364 
" style="fill:none;stroke:#1f77b4;stroke-linecap:square;stroke-width:1.5;"/>
   </g>
   <g id="patch_3">
    <path d="M 72 252 
L 72 34.56 
" style="fill:none;stroke:#000000;stroke-linecap:square;stroke-linejoin:miter;stroke-width:0.8;"/>
   </g>
   <g id="patch_4">
    <path d="M 518.4 252 
L 518.4 34.56 
" style="fill:none;stroke:#000000;stroke-linecap:square;stroke-linejoin:miter;stroke-width:0.8;"/>
   </g>
   <g id="patch_5">
    <path d="M 72 252 
L 518.4 252 
" style="fill:none;stroke:#000000;stroke-linecap:square;stroke-linejoin:miter;stroke-width:0.8;"/>
   </g>
   <g id="patch_6">
    <path d="M 72 34.56 
L 518.4 34.56 
" style="fill:none;stroke:#000000;stroke-linecap:square;stroke-linejoin:miter;stroke-width:0.8;"/>
   </g>
   <g id="text_16">
    <!-- GUSTAVO A. MADERO -->
    <g transform="translate(252.00125 28.56)scale(0.08 -0.08)">
     <defs>
      <path d="M 3809 666 
L 3809 1919 
L 2778 1919 
L 2778 2438 
L 4434 2438 
L 4434 434 
Q 4069 175 3628 42 
Q 3188 -91 2688 -91 
Q 1594 -91 976 548 
Q 359 1188 359 2328 
Q 359 3472 976 4111 
Q 1594 4750 2688 4750 
Q 3144 4750 3555 4637 
Q 3966 4525 4313 4306 
L 4313 3634 
Q 3963 3931 3569 4081 
Q 3175 4231 2741 4231 
Q 1884 4231 1454 3753 
Q 1025 3275 1025 2328 
Q 1025 1384 1454 906 
Q 1884 428 2741 428 
Q 3075 428 3337 486 
Q 3600 544 3809 666 
z
" id="DejaVuSans-47" transform="scale(0.015625)"/>
      <path d="M 556 4666 
L 1191 4666 
L 1191 1831 
Q 1191 1081 1462 751 
Q 1734 422 2344 422 
Q 2950 422 3222 751 
Q 3494 1081 3494 1831 
L 3494 4666 
L 4128 4666 
L 4128 1753 
Q 4128 841 3676 375 
Q 3225 -91 2344 -91 
Q 1459 -91 1007 375 
Q 556 841 556 1753 
L 556 4666 
z
" id="DejaVuSans-55" transform="scale(0.015625)"/>
      <path d="M 3425 4513 
L 3425 3897 
Q 3066 4069 2747 4153 
Q 2428 4238 2131 4238 
Q 1616 4238 1336 4038 
Q 1056 3838 1056 3469 
Q 1056 3159 1242 3001 
Q 1428 2844 1947 2747 
L 2328 2669 
Q 3034 2534 3370 2195 
Q 3706 1856 3706 1288 
Q 3706 609 3251 259 
Q 2797 -91 1919 -91 
Q 1588 -91 1214 -16 
Q 841 59 441 206 
L 441 856 
Q 825 641 1194 531 
Q 1563 422 1919 422 
Q 2459 422 2753 634 
Q 3047 847 3047 1241 
Q 3047 1584 2836 1778 
Q 2625 1972 2144 2069 
L 1759 2144 
Q 1053 2284 737 2584 
Q 422 2884 422 3419 
Q 422 4038 858 4394 
Q 1294 4750 2059 4750 
Q 2388 4750 2728 4690 
Q 3069 4631 3425 4513 
z
" id="DejaVuSans-53" transform="scale(0.015625)"/>
      <path d="M 2188 4044 
L 1331 1722 
L 3047 1722 
L 2188 4044 
z
M 1831 4666 
L 2547 4666 
L 4325 0 
L 3669 0 
L 3244 1197 
L 1141 1197 
L 716 0 
L 50 0 
L 1831 4666 
z
" id="DejaVuSans-41" transform="scale(0.015625)"/>
      <path d="M 1831 0 
L 50 4666 
L 709 4666 
L 2188 738 
L 3669 4666 
L 4325 4666 
L 2547 0 
L 1831 0 
z
" id="DejaVuSans-56" transform="scale(0.015625)"/>
      <path d="M 2522 4238 
Q 1834 4238 1429 3725 
Q 1025 3213 1025 2328 
Q 1025 1447 1429 934 
Q 1834 422 2522 422 
Q 3209 422 3611 934 
Q 4013 1447 4013 2328 
Q 4013 3213 3611 3725 
Q 3209 4238 2522 4238 
z
M 2522 4750 
Q 3503 4750 4090 4092 
Q 4678 3434 4678 2328 
Q 4678 1225 4090 567 
Q 3503 -91 2522 -91 
Q 1538 -91 948 565 
Q 359 1222 359 2328 
Q 359 3434 948 4092 
Q 1538 4750 2522 4750 
z
" id="DejaVuSans-4f" transform="scale(0.015625)"/>
      <path d="M 628 4666 
L 1569 4666 
L 2759 1491 
L 3956 4666 
L 4897 4666 
L 4897 0 
L 4281 0 
L 4281 4097 
L 3078 897 
L 2444 897 
L 1241 4097 
L 1241 0 
L 628 0 
L 628 4666 
z
" id="DejaVuSans-4d" transform="scale(0.015625)"/>
      <path d="M 1259 4147 
L 1259 519 
L 2022 519 
Q 2988 519 3436 956 
Q 3884 1394 3884 2338 
Q 3884 3275 3436 3711 
Q 2988 4147 2022 4147 
L 1259 4147 
z
M 628 4666 
L 1925 4666 
Q 3281 4666 3915 4102 
Q 4550 3538 4550 2338 
Q 4550 1131 3912 565 
Q 3275 0 1925 0 
L 628 0 
L 628 4666 
z
" id="DejaVuSans-44" transform="scale(0.015625)"/>
      <path d="M 628 4666 
L 3578 4666 
L 3578 4134 
L 1259 4134 
L 1259 2753 
L 3481 2753 
L 3481 2222 
L 1259 2222 
L 1259 531 
L 3634 531 
L 3634 0 
L 628 0 
L 628 4666 
z
" id="DejaVuSans-45" transform="scale(0.015625)"/>
      <path d="M 2841 2188 
Q 3044 2119 3236 1894 
Q 3428 1669 3622 1275 
L 4263 0 
L 3584 0 
L 2988 1197 
Q 2756 1666 2539 1819 
Q 2322 1972 1947 1972 
L 1259 1972 
L 1259 0 
L 628 0 
L 628 4666 
L 2053 4666 
Q 2853 4666 3247 4331 
Q 3641 3997 3641 3322 
Q 3641 2881 3436 2590 
Q 3231 2300 2841 2188 
z
M 1259 4147 
L 1259 2491 
L 2053 2491 
Q 2509 2491 2742 2702 
Q 2975 2913 2975 3322 
Q 2975 3731 2742 3939 
Q 2509 4147 2053 4147 
L 1259 4147 
z
" id="DejaVuSans-52" transform="scale(0.015625)"/>
     </defs>
     <use xlink:href="#DejaVuSans-47"/>
     <use x="77.490234" xlink:href="#DejaVuSans-55"/>
     <use x="150.683594" xlink:href="#DejaVuSans-53"/>
     <use x="214.160156" xlink:href="#DejaVuSans-54"/>
     <use x="267.494141" xlink:href="#DejaVuSans-41"/>
     <use x="329.527344" xlink:href="#DejaVuSans-56"/>
     <use x="396.185547" xlink:href="#DejaVuSans-4f"/>
     <use x="474.896484" xlink:href="#DejaVuSans-20"/>
     <use x="506.683594" xlink:href="#DejaVuSans-41"/>
     <use x="573.341797" xlink:href="#DejaVuSans-2e"/>
     <use x="605.128906" xlink:href="#DejaVuSans-20"/>
     <use x="636.916016" xlink:href="#DejaVuSans-4d"/>
     <use x="723.195312" xlink:href="#DejaVuSans-41"/>
     <use x="791.603516" xlink:href="#DejaVuSans-44"/>
     <use x="868.605469" xlink:href="#DejaVuSans-45"/>
     <use x="931.789062" xlink:href="#DejaVuSans-52"/>
     <use x="1001.271484" xlink:href="#DejaVuSans-4f"/>
    </g>
   </g>
  </g>
  <g id="text_17">
   <!-- F1 score curve -->
   <g transform="translate(229.31625 17.9175)scale(0.16 -0.16)">
    <defs>
     <path d="M 544 1381 
L 544 3500 
L 1119 3500 
L 1119 1403 
Q 1119 906 1312 657 
Q 1506 409 1894 409 
Q 2359 409 2629 706 
Q 2900 1003 2900 1516 
L 2900 3500 
L 3475 3500 
L 3475 0 
L 2900 0 
L 2900 538 
Q 2691 219 2414 64 
Q 2138 -91 1772 -91 
Q 1169 -91 856 284 
Q 544 659 544 1381 
z
M 1991 3584 
L 1991 3584 
z
" id="DejaVuSans-75" transform="scale(0.015625)"/>
     <path d="M 191 3500 
L 800 3500 
L 1894 563 
L 2988 3500 
L 3597 3500 
L 2284 0 
L 1503 0 
L 191 3500 
z
" id="DejaVuSans-76" transform="scale(0.015625)"/>
    </defs>
    <use xlink:href="#DejaVuSans-46"/>
    <use x="57.519531" xlink:href="#DejaVuSans-31"/>
    <use x="121.142578" xlink:href="#DejaVuSans-20"/>
    <use x="152.929688" xlink:href="#DejaVuSans-73"/>
    <use x="205.029297" xlink:href="#DejaVuSans-63"/>
    <use x="260.009766" xlink:href="#DejaVuSans-6f"/>
    <use x="321.191406" xlink:href="#DejaVuSans-72"/>
    <use x="360.054688" xlink:href="#DejaVuSans-65"/>
    <use x="421.578125" xlink:href="#DejaVuSans-20"/>
    <use x="453.365234" xlink:href="#DejaVuSans-63"/>
    <use x="508.345703" xlink:href="#DejaVuSans-75"/>
    <use x="571.724609" xlink:href="#DejaVuSans-72"/>
    <use x="612.837891" xlink:href="#DejaVuSans-76"/>
    <use x="672.017578" xlink:href="#DejaVuSans-65"/>
   </g>
  </g>
 </g>
 <defs>
  <clipPath id="p2c8acf51e2">
   <rect height="217.44" width="446.4" x="72" y="34.56"/>
  </clipPath>
 </defs>
</svg>
