<?xml version="1.0" encoding="utf-8" standalone="no"?>
<!DOCTYPE svg PUBLIC "-//W3C//DTD SVG 1.1//EN"
  "http://www.w3.org/Graphics/SVG/1.1/DTD/svg11.dtd">
<svg height="288pt" version="1.1" viewBox="0 0 576 288" width="576pt" xmlns="http://www.w3.org/2000/svg" xmlns:xlink="http://www.w3.org/1999/xlink">
 <metadata>
  <rdf:RDF xmlns:cc="http://creativecommons.org/ns#" xmlns:dc="http://purl.org/dc/elements/1.1/" xmlns:rdf="http://www.w3.org/1999/02/22-rdf-syntax-ns#">
   <cc:Work>
    <dc:type rdf:resource="http://purl.org/dc/dcmitype/StillImage"/>
    <dc:date>2022-01-04T18:28:12.252292</dc:date>
    <dc:format>image/svg+xml</dc:format>
    <dc:creator>
     <cc:Agent>
      <dc:title>Matplotlib v3.4.3, https://matplotlib.org/</dc:title>
     </cc:Agent>
    </dc:creator>
   </cc:Work>
  </rdf:RDF>
 </metadata>
 <defs>
  <style type="text/css">*{stroke-linecap:butt;stroke-linejoin:round;}</style>
 </defs>
 <g id="figure_1">
  <g id="patch_1">
   <path d="M 0 288 
L 576 288 
L 576 0 
L 0 0 
z
" style="fill:none;"/>
  </g>
  <g id="axes_1">
   <g id="patch_2">
    <path d="M 72 252 
L 518.4 252 
L 518.4 34.56 
L 72 34.56 
z
" style="fill:#ffffff;"/>
   </g>
   <g id="matplotlib.axis_1">
    <g id="xtick_1">
     <g id="line2d_1">
      <defs>
       <path d="M 0 0 
L 0 3.5 
" id="m482ac1e37b" style="stroke:#000000;stroke-width:0.8;"/>
      </defs>
      <g>
       <use style="stroke:#000000;stroke-width:0.8;" x="91.884278" xlink:href="#m482ac1e37b" y="252"/>
      </g>
     </g>
     <g id="text_1">
      <!-- 0.0 -->
      <g transform="translate(83.932715 266.598437)scale(0.1 -0.1)">
       <defs>
        <path d="M 2034 4250 
Q 1547 4250 1301 3770 
Q 1056 3291 1056 2328 
Q 1056 1369 1301 889 
Q 1547 409 2034 409 
Q 2525 409 2770 889 
Q 3016 1369 3016 2328 
Q 3016 3291 2770 3770 
Q 2525 4250 2034 4250 
z
M 2034 4750 
Q 2819 4750 3233 4129 
Q 3647 3509 3647 2328 
Q 3647 1150 3233 529 
Q 2819 -91 2034 -91 
Q 1250 -91 836 529 
Q 422 1150 422 2328 
Q 422 3509 836 4129 
Q 1250 4750 2034 4750 
z
" id="DejaVuSans-30" transform="scale(0.015625)"/>
        <path d="M 684 794 
L 1344 794 
L 1344 0 
L 684 0 
L 684 794 
z
" id="DejaVuSans-2e" transform="scale(0.015625)"/>
       </defs>
       <use xlink:href="#DejaVuSans-30"/>
       <use x="63.623047" xlink:href="#DejaVuSans-2e"/>
       <use x="95.410156" xlink:href="#DejaVuSans-30"/>
      </g>
     </g>
    </g>
    <g id="xtick_2">
     <g id="line2d_2">
      <g>
       <use style="stroke:#000000;stroke-width:0.8;" x="173.210567" xlink:href="#m482ac1e37b" y="252"/>
      </g>
     </g>
     <g id="text_2">
      <!-- 0.2 -->
      <g transform="translate(165.259004 266.598437)scale(0.1 -0.1)">
       <defs>
        <path d="M 1228 531 
L 3431 531 
L 3431 0 
L 469 0 
L 469 531 
Q 828 903 1448 1529 
Q 2069 2156 2228 2338 
Q 2531 2678 2651 2914 
Q 2772 3150 2772 3378 
Q 2772 3750 2511 3984 
Q 2250 4219 1831 4219 
Q 1534 4219 1204 4116 
Q 875 4013 500 3803 
L 500 4441 
Q 881 4594 1212 4672 
Q 1544 4750 1819 4750 
Q 2544 4750 2975 4387 
Q 3406 4025 3406 3419 
Q 3406 3131 3298 2873 
Q 3191 2616 2906 2266 
Q 2828 2175 2409 1742 
Q 1991 1309 1228 531 
z
" id="DejaVuSans-32" transform="scale(0.015625)"/>
       </defs>
       <use xlink:href="#DejaVuSans-30"/>
       <use x="63.623047" xlink:href="#DejaVuSans-2e"/>
       <use x="95.410156" xlink:href="#DejaVuSans-32"/>
      </g>
     </g>
    </g>
    <g id="xtick_3">
     <g id="line2d_3">
      <g>
       <use style="stroke:#000000;stroke-width:0.8;" x="254.536856" xlink:href="#m482ac1e37b" y="252"/>
      </g>
     </g>
     <g id="text_3">
      <!-- 0.4 -->
      <g transform="translate(246.585293 266.598437)scale(0.1 -0.1)">
       <defs>
        <path d="M 2419 4116 
L 825 1625 
L 2419 1625 
L 2419 4116 
z
M 2253 4666 
L 3047 4666 
L 3047 1625 
L 3713 1625 
L 3713 1100 
L 3047 1100 
L 3047 0 
L 2419 0 
L 2419 1100 
L 313 1100 
L 313 1709 
L 2253 4666 
z
" id="DejaVuSans-34" transform="scale(0.015625)"/>
       </defs>
       <use xlink:href="#DejaVuSans-30"/>
       <use x="63.623047" xlink:href="#DejaVuSans-2e"/>
       <use x="95.410156" xlink:href="#DejaVuSans-34"/>
      </g>
     </g>
    </g>
    <g id="xtick_4">
     <g id="line2d_4">
      <g>
       <use style="stroke:#000000;stroke-width:0.8;" x="335.863144" xlink:href="#m482ac1e37b" y="252"/>
      </g>
     </g>
     <g id="text_4">
      <!-- 0.6 -->
      <g transform="translate(327.911582 266.598437)scale(0.1 -0.1)">
       <defs>
        <path d="M 2113 2584 
Q 1688 2584 1439 2293 
Q 1191 2003 1191 1497 
Q 1191 994 1439 701 
Q 1688 409 2113 409 
Q 2538 409 2786 701 
Q 3034 994 3034 1497 
Q 3034 2003 2786 2293 
Q 2538 2584 2113 2584 
z
M 3366 4563 
L 3366 3988 
Q 3128 4100 2886 4159 
Q 2644 4219 2406 4219 
Q 1781 4219 1451 3797 
Q 1122 3375 1075 2522 
Q 1259 2794 1537 2939 
Q 1816 3084 2150 3084 
Q 2853 3084 3261 2657 
Q 3669 2231 3669 1497 
Q 3669 778 3244 343 
Q 2819 -91 2113 -91 
Q 1303 -91 875 529 
Q 447 1150 447 2328 
Q 447 3434 972 4092 
Q 1497 4750 2381 4750 
Q 2619 4750 2861 4703 
Q 3103 4656 3366 4563 
z
" id="DejaVuSans-36" transform="scale(0.015625)"/>
       </defs>
       <use xlink:href="#DejaVuSans-30"/>
       <use x="63.623047" xlink:href="#DejaVuSans-2e"/>
       <use x="95.410156" xlink:href="#DejaVuSans-36"/>
      </g>
     </g>
    </g>
    <g id="xtick_5">
     <g id="line2d_5">
      <g>
       <use style="stroke:#000000;stroke-width:0.8;" x="417.189433" xlink:href="#m482ac1e37b" y="252"/>
      </g>
     </g>
     <g id="text_5">
      <!-- 0.8 -->
      <g transform="translate(409.237871 266.598437)scale(0.1 -0.1)">
       <defs>
        <path d="M 2034 2216 
Q 1584 2216 1326 1975 
Q 1069 1734 1069 1313 
Q 1069 891 1326 650 
Q 1584 409 2034 409 
Q 2484 409 2743 651 
Q 3003 894 3003 1313 
Q 3003 1734 2745 1975 
Q 2488 2216 2034 2216 
z
M 1403 2484 
Q 997 2584 770 2862 
Q 544 3141 544 3541 
Q 544 4100 942 4425 
Q 1341 4750 2034 4750 
Q 2731 4750 3128 4425 
Q 3525 4100 3525 3541 
Q 3525 3141 3298 2862 
Q 3072 2584 2669 2484 
Q 3125 2378 3379 2068 
Q 3634 1759 3634 1313 
Q 3634 634 3220 271 
Q 2806 -91 2034 -91 
Q 1263 -91 848 271 
Q 434 634 434 1313 
Q 434 1759 690 2068 
Q 947 2378 1403 2484 
z
M 1172 3481 
Q 1172 3119 1398 2916 
Q 1625 2713 2034 2713 
Q 2441 2713 2670 2916 
Q 2900 3119 2900 3481 
Q 2900 3844 2670 4047 
Q 2441 4250 2034 4250 
Q 1625 4250 1398 4047 
Q 1172 3844 1172 3481 
z
" id="DejaVuSans-38" transform="scale(0.015625)"/>
       </defs>
       <use xlink:href="#DejaVuSans-30"/>
       <use x="63.623047" xlink:href="#DejaVuSans-2e"/>
       <use x="95.410156" xlink:href="#DejaVuSans-38"/>
      </g>
     </g>
    </g>
    <g id="xtick_6">
     <g id="line2d_6">
      <g>
       <use style="stroke:#000000;stroke-width:0.8;" x="498.515722" xlink:href="#m482ac1e37b" y="252"/>
      </g>
     </g>
     <g id="text_6">
      <!-- 1.0 -->
      <g transform="translate(490.56416 266.598437)scale(0.1 -0.1)">
       <defs>
        <path d="M 794 531 
L 1825 531 
L 1825 4091 
L 703 3866 
L 703 4441 
L 1819 4666 
L 2450 4666 
L 2450 531 
L 3481 531 
L 3481 0 
L 794 0 
L 794 531 
z
" id="DejaVuSans-31" transform="scale(0.015625)"/>
       </defs>
       <use xlink:href="#DejaVuSans-31"/>
       <use x="63.623047" xlink:href="#DejaVuSans-2e"/>
       <use x="95.410156" xlink:href="#DejaVuSans-30"/>
      </g>
     </g>
    </g>
    <g id="text_7">
     <!-- Thresholds -->
     <g transform="translate(267.957031 280.276563)scale(0.1 -0.1)">
      <defs>
       <path d="M -19 4666 
L 3928 4666 
L 3928 4134 
L 2272 4134 
L 2272 0 
L 1638 0 
L 1638 4134 
L -19 4134 
L -19 4666 
z
" id="DejaVuSans-54" transform="scale(0.015625)"/>
       <path d="M 3513 2113 
L 3513 0 
L 2938 0 
L 2938 2094 
Q 2938 2591 2744 2837 
Q 2550 3084 2163 3084 
Q 1697 3084 1428 2787 
Q 1159 2491 1159 1978 
L 1159 0 
L 581 0 
L 581 4863 
L 1159 4863 
L 1159 2956 
Q 1366 3272 1645 3428 
Q 1925 3584 2291 3584 
Q 2894 3584 3203 3211 
Q 3513 2838 3513 2113 
z
" id="DejaVuSans-68" transform="scale(0.015625)"/>
       <path d="M 2631 2963 
Q 2534 3019 2420 3045 
Q 2306 3072 2169 3072 
Q 1681 3072 1420 2755 
Q 1159 2438 1159 1844 
L 1159 0 
L 581 0 
L 581 3500 
L 1159 3500 
L 1159 2956 
Q 1341 3275 1631 3429 
Q 1922 3584 2338 3584 
Q 2397 3584 2469 3576 
Q 2541 3569 2628 3553 
L 2631 2963 
z
" id="DejaVuSans-72" transform="scale(0.015625)"/>
       <path d="M 3597 1894 
L 3597 1613 
L 953 1613 
Q 991 1019 1311 708 
Q 1631 397 2203 397 
Q 2534 397 2845 478 
Q 3156 559 3463 722 
L 3463 178 
Q 3153 47 2828 -22 
Q 2503 -91 2169 -91 
Q 1331 -91 842 396 
Q 353 884 353 1716 
Q 353 2575 817 3079 
Q 1281 3584 2069 3584 
Q 2775 3584 3186 3129 
Q 3597 2675 3597 1894 
z
M 3022 2063 
Q 3016 2534 2758 2815 
Q 2500 3097 2075 3097 
Q 1594 3097 1305 2825 
Q 1016 2553 972 2059 
L 3022 2063 
z
" id="DejaVuSans-65" transform="scale(0.015625)"/>
       <path d="M 2834 3397 
L 2834 2853 
Q 2591 2978 2328 3040 
Q 2066 3103 1784 3103 
Q 1356 3103 1142 2972 
Q 928 2841 928 2578 
Q 928 2378 1081 2264 
Q 1234 2150 1697 2047 
L 1894 2003 
Q 2506 1872 2764 1633 
Q 3022 1394 3022 966 
Q 3022 478 2636 193 
Q 2250 -91 1575 -91 
Q 1294 -91 989 -36 
Q 684 19 347 128 
L 347 722 
Q 666 556 975 473 
Q 1284 391 1588 391 
Q 1994 391 2212 530 
Q 2431 669 2431 922 
Q 2431 1156 2273 1281 
Q 2116 1406 1581 1522 
L 1381 1569 
Q 847 1681 609 1914 
Q 372 2147 372 2553 
Q 372 3047 722 3315 
Q 1072 3584 1716 3584 
Q 2034 3584 2315 3537 
Q 2597 3491 2834 3397 
z
" id="DejaVuSans-73" transform="scale(0.015625)"/>
       <path d="M 1959 3097 
Q 1497 3097 1228 2736 
Q 959 2375 959 1747 
Q 959 1119 1226 758 
Q 1494 397 1959 397 
Q 2419 397 2687 759 
Q 2956 1122 2956 1747 
Q 2956 2369 2687 2733 
Q 2419 3097 1959 3097 
z
M 1959 3584 
Q 2709 3584 3137 3096 
Q 3566 2609 3566 1747 
Q 3566 888 3137 398 
Q 2709 -91 1959 -91 
Q 1206 -91 779 398 
Q 353 888 353 1747 
Q 353 2609 779 3096 
Q 1206 3584 1959 3584 
z
" id="DejaVuSans-6f" transform="scale(0.015625)"/>
       <path d="M 603 4863 
L 1178 4863 
L 1178 0 
L 603 0 
L 603 4863 
z
" id="DejaVuSans-6c" transform="scale(0.015625)"/>
       <path d="M 2906 2969 
L 2906 4863 
L 3481 4863 
L 3481 0 
L 2906 0 
L 2906 525 
Q 2725 213 2448 61 
Q 2172 -91 1784 -91 
Q 1150 -91 751 415 
Q 353 922 353 1747 
Q 353 2572 751 3078 
Q 1150 3584 1784 3584 
Q 2172 3584 2448 3432 
Q 2725 3281 2906 2969 
z
M 947 1747 
Q 947 1113 1208 752 
Q 1469 391 1925 391 
Q 2381 391 2643 752 
Q 2906 1113 2906 1747 
Q 2906 2381 2643 2742 
Q 2381 3103 1925 3103 
Q 1469 3103 1208 2742 
Q 947 2381 947 1747 
z
" id="DejaVuSans-64" transform="scale(0.015625)"/>
      </defs>
      <use xlink:href="#DejaVuSans-54"/>
      <use x="61.083984" xlink:href="#DejaVuSans-68"/>
      <use x="124.462891" xlink:href="#DejaVuSans-72"/>
      <use x="163.326172" xlink:href="#DejaVuSans-65"/>
      <use x="224.849609" xlink:href="#DejaVuSans-73"/>
      <use x="276.949219" xlink:href="#DejaVuSans-68"/>
      <use x="340.328125" xlink:href="#DejaVuSans-6f"/>
      <use x="401.509766" xlink:href="#DejaVuSans-6c"/>
      <use x="429.292969" xlink:href="#DejaVuSans-64"/>
      <use x="492.769531" xlink:href="#DejaVuSans-73"/>
     </g>
    </g>
   </g>
   <g id="matplotlib.axis_2">
    <g id="ytick_1">
     <g id="line2d_7">
      <defs>
       <path d="M 0 0 
L -3.5 0 
" id="m0e1a75f84f" style="stroke:#000000;stroke-width:0.8;"/>
      </defs>
      <g>
       <use style="stroke:#000000;stroke-width:0.8;" x="72" xlink:href="#m0e1a75f84f" y="242.116364"/>
      </g>
     </g>
     <g id="text_8">
      <!-- 0.00 -->
      <g transform="translate(42.734375 245.915582)scale(0.1 -0.1)">
       <use xlink:href="#DejaVuSans-30"/>
       <use x="63.623047" xlink:href="#DejaVuSans-2e"/>
       <use x="95.410156" xlink:href="#DejaVuSans-30"/>
       <use x="159.033203" xlink:href="#DejaVuSans-30"/>
      </g>
     </g>
    </g>
    <g id="ytick_2">
     <g id="line2d_8">
      <g>
       <use style="stroke:#000000;stroke-width:0.8;" x="72" xlink:href="#m0e1a75f84f" y="211.581129"/>
      </g>
     </g>
     <g id="text_9">
      <!-- 0.01 -->
      <g transform="translate(42.734375 215.380348)scale(0.1 -0.1)">
       <use xlink:href="#DejaVuSans-30"/>
       <use x="63.623047" xlink:href="#DejaVuSans-2e"/>
       <use x="95.410156" xlink:href="#DejaVuSans-30"/>
       <use x="159.033203" xlink:href="#DejaVuSans-31"/>
      </g>
     </g>
    </g>
    <g id="ytick_3">
     <g id="line2d_9">
      <g>
       <use style="stroke:#000000;stroke-width:0.8;" x="72" xlink:href="#m0e1a75f84f" y="181.045895"/>
      </g>
     </g>
     <g id="text_10">
      <!-- 0.02 -->
      <g transform="translate(42.734375 184.845113)scale(0.1 -0.1)">
       <use xlink:href="#DejaVuSans-30"/>
       <use x="63.623047" xlink:href="#DejaVuSans-2e"/>
       <use x="95.410156" xlink:href="#DejaVuSans-30"/>
       <use x="159.033203" xlink:href="#DejaVuSans-32"/>
      </g>
     </g>
    </g>
    <g id="ytick_4">
     <g id="line2d_10">
      <g>
       <use style="stroke:#000000;stroke-width:0.8;" x="72" xlink:href="#m0e1a75f84f" y="150.51066"/>
      </g>
     </g>
     <g id="text_11">
      <!-- 0.03 -->
      <g transform="translate(42.734375 154.309879)scale(0.1 -0.1)">
       <defs>
        <path d="M 2597 2516 
Q 3050 2419 3304 2112 
Q 3559 1806 3559 1356 
Q 3559 666 3084 287 
Q 2609 -91 1734 -91 
Q 1441 -91 1130 -33 
Q 819 25 488 141 
L 488 750 
Q 750 597 1062 519 
Q 1375 441 1716 441 
Q 2309 441 2620 675 
Q 2931 909 2931 1356 
Q 2931 1769 2642 2001 
Q 2353 2234 1838 2234 
L 1294 2234 
L 1294 2753 
L 1863 2753 
Q 2328 2753 2575 2939 
Q 2822 3125 2822 3475 
Q 2822 3834 2567 4026 
Q 2313 4219 1838 4219 
Q 1578 4219 1281 4162 
Q 984 4106 628 3988 
L 628 4550 
Q 988 4650 1302 4700 
Q 1616 4750 1894 4750 
Q 2613 4750 3031 4423 
Q 3450 4097 3450 3541 
Q 3450 3153 3228 2886 
Q 3006 2619 2597 2516 
z
" id="DejaVuSans-33" transform="scale(0.015625)"/>
       </defs>
       <use xlink:href="#DejaVuSans-30"/>
       <use x="63.623047" xlink:href="#DejaVuSans-2e"/>
       <use x="95.410156" xlink:href="#DejaVuSans-30"/>
       <use x="159.033203" xlink:href="#DejaVuSans-33"/>
      </g>
     </g>
    </g>
    <g id="ytick_5">
     <g id="line2d_11">
      <g>
       <use style="stroke:#000000;stroke-width:0.8;" x="72" xlink:href="#m0e1a75f84f" y="119.975426"/>
      </g>
     </g>
     <g id="text_12">
      <!-- 0.04 -->
      <g transform="translate(42.734375 123.774645)scale(0.1 -0.1)">
       <use xlink:href="#DejaVuSans-30"/>
       <use x="63.623047" xlink:href="#DejaVuSans-2e"/>
       <use x="95.410156" xlink:href="#DejaVuSans-30"/>
       <use x="159.033203" xlink:href="#DejaVuSans-34"/>
      </g>
     </g>
    </g>
    <g id="ytick_6">
     <g id="line2d_12">
      <g>
       <use style="stroke:#000000;stroke-width:0.8;" x="72" xlink:href="#m0e1a75f84f" y="89.440191"/>
      </g>
     </g>
     <g id="text_13">
      <!-- 0.05 -->
      <g transform="translate(42.734375 93.23941)scale(0.1 -0.1)">
       <defs>
        <path d="M 691 4666 
L 3169 4666 
L 3169 4134 
L 1269 4134 
L 1269 2991 
Q 1406 3038 1543 3061 
Q 1681 3084 1819 3084 
Q 2600 3084 3056 2656 
Q 3513 2228 3513 1497 
Q 3513 744 3044 326 
Q 2575 -91 1722 -91 
Q 1428 -91 1123 -41 
Q 819 9 494 109 
L 494 744 
Q 775 591 1075 516 
Q 1375 441 1709 441 
Q 2250 441 2565 725 
Q 2881 1009 2881 1497 
Q 2881 1984 2565 2268 
Q 2250 2553 1709 2553 
Q 1456 2553 1204 2497 
Q 953 2441 691 2322 
L 691 4666 
z
" id="DejaVuSans-35" transform="scale(0.015625)"/>
       </defs>
       <use xlink:href="#DejaVuSans-30"/>
       <use x="63.623047" xlink:href="#DejaVuSans-2e"/>
       <use x="95.410156" xlink:href="#DejaVuSans-30"/>
       <use x="159.033203" xlink:href="#DejaVuSans-35"/>
      </g>
     </g>
    </g>
    <g id="ytick_7">
     <g id="line2d_13">
      <g>
       <use style="stroke:#000000;stroke-width:0.8;" x="72" xlink:href="#m0e1a75f84f" y="58.904957"/>
      </g>
     </g>
     <g id="text_14">
      <!-- 0.06 -->
      <g transform="translate(42.734375 62.704176)scale(0.1 -0.1)">
       <use xlink:href="#DejaVuSans-30"/>
       <use x="63.623047" xlink:href="#DejaVuSans-2e"/>
       <use x="95.410156" xlink:href="#DejaVuSans-30"/>
       <use x="159.033203" xlink:href="#DejaVuSans-36"/>
      </g>
     </g>
    </g>
    <g id="text_15">
     <!-- F1 score -->
     <g transform="translate(36.654687 164.358906)rotate(-90)scale(0.1 -0.1)">
      <defs>
       <path d="M 628 4666 
L 3309 4666 
L 3309 4134 
L 1259 4134 
L 1259 2759 
L 3109 2759 
L 3109 2228 
L 1259 2228 
L 1259 0 
L 628 0 
L 628 4666 
z
" id="DejaVuSans-46" transform="scale(0.015625)"/>
       <path id="DejaVuSans-20" transform="scale(0.015625)"/>
       <path d="M 3122 3366 
L 3122 2828 
Q 2878 2963 2633 3030 
Q 2388 3097 2138 3097 
Q 1578 3097 1268 2742 
Q 959 2388 959 1747 
Q 959 1106 1268 751 
Q 1578 397 2138 397 
Q 2388 397 2633 464 
Q 2878 531 3122 666 
L 3122 134 
Q 2881 22 2623 -34 
Q 2366 -91 2075 -91 
Q 1284 -91 818 406 
Q 353 903 353 1747 
Q 353 2603 823 3093 
Q 1294 3584 2113 3584 
Q 2378 3584 2631 3529 
Q 2884 3475 3122 3366 
z
" id="DejaVuSans-63" transform="scale(0.015625)"/>
      </defs>
      <use xlink:href="#DejaVuSans-46"/>
      <use x="57.519531" xlink:href="#DejaVuSans-31"/>
      <use x="121.142578" xlink:href="#DejaVuSans-20"/>
      <use x="152.929688" xlink:href="#DejaVuSans-73"/>
      <use x="205.029297" xlink:href="#DejaVuSans-63"/>
      <use x="260.009766" xlink:href="#DejaVuSans-6f"/>
      <use x="321.191406" xlink:href="#DejaVuSans-72"/>
      <use x="360.054688" xlink:href="#DejaVuSans-65"/>
     </g>
    </g>
   </g>
   <g id="line2d_14">
    <path clip-path="url(#p7731d504a5)" d="M 92.290909 200.108917 
L 93.104172 199.889592 
L 95.137329 198.814942 
L 95.950592 198.382749 
L 96.357224 198.352291 
L 97.983749 197.420896 
L 98.797012 197.3374 
L 99.610275 196.988691 
L 100.016907 196.767006 
L 100.423538 196.733305 
L 102.863327 195.846363 
L 103.67659 195.725275 
L 104.489852 195.537903 
L 106.52301 195.191312 
L 107.742904 194.90919 
L 108.149535 194.722701 
L 108.556167 194.690366 
L 108.962798 194.541438 
L 109.776061 194.455221 
L 110.995956 194.142899 
L 112.21585 193.871508 
L 113.842376 193.595591 
L 114.249007 193.466749 
L 114.655639 193.454635 
L 116.282164 193.013451 
L 117.095427 192.871157 
L 118.721953 192.52752 
L 119.941847 192.428563 
L 121.161742 192.163644 
L 121.568373 192.208919 
L 122.788267 191.963653 
L 123.60153 191.870016 
L 124.008162 191.78174 
L 124.821425 191.778816 
L 128.887739 190.916975 
L 129.294371 190.966074 
L 132.140791 190.377968 
L 132.954054 190.325639 
L 134.987211 189.896888 
L 135.800474 189.806419 
L 136.613737 189.577819 
L 137.426999 189.427127 
L 140.680051 188.650553 
L 142.306577 188.288341 
L 144.339734 187.754393 
L 147.999417 186.97108 
L 148.406048 187.022479 
L 151.6591 186.212868 
L 152.472363 186.302567 
L 154.912152 185.840646 
L 155.725414 185.718035 
L 156.945309 185.410569 
L 157.35194 185.494938 
L 158.165203 185.319408 
L 159.385097 185.335176 
L 165.484569 183.770791 
L 165.891201 183.668165 
L 166.297832 183.688603 
L 169.144252 182.986446 
L 170.770778 182.607007 
L 171.990672 182.303743 
L 177.276881 181.115515 
L 178.090144 180.976115 
L 179.310038 180.577666 
L 180.123301 180.557787 
L 180.529933 180.602186 
L 181.749827 180.249742 
L 182.56309 179.995267 
L 183.376353 179.954225 
L 183.782984 180.060502 
L 186.629404 179.116078 
L 187.442667 178.818289 
L 192.322244 177.788637 
L 193.135507 177.55381 
L 194.355402 177.483929 
L 195.575296 177.043941 
L 196.388559 177.207573 
L 198.015085 176.786692 
L 199.234979 176.476794 
L 200.454873 176.526455 
L 202.081399 176.194329 
L 202.488031 176.112274 
L 202.894662 176.215651 
L 203.301293 176.087197 
L 203.707925 176.144603 
L 204.521188 175.971014 
L 204.927819 175.778194 
L 206.147714 175.489928 
L 206.960976 175.234338 
L 207.367608 175.307527 
L 208.994134 174.890857 
L 209.400765 175.142251 
L 211.433922 174.735939 
L 212.247185 174.771255 
L 212.653817 174.84073 
L 214.280343 174.44342 
L 214.686974 174.480557 
L 215.906868 174.162652 
L 216.720131 174.321246 
L 217.940026 173.956039 
L 218.346657 173.918641 
L 219.15992 173.586876 
L 219.566551 173.689512 
L 221.599709 173.045711 
L 222.819603 172.722675 
L 224.039497 172.471937 
L 224.446129 172.400291 
L 224.85276 172.200758 
L 225.259392 172.224899 
L 225.666023 172.117464 
L 226.479286 172.148522 
L 228.919075 171.267991 
L 229.325706 171.386377 
L 234.205283 169.524932 
L 235.018546 169.316846 
L 235.831809 168.925382 
L 237.458335 168.521884 
L 237.864966 168.659826 
L 238.271598 168.918426 
L 240.304755 168.279554 
L 240.711386 168.33702 
L 241.524649 167.951506 
L 241.931281 168.205211 
L 242.744544 167.826785 
L 243.557807 167.542451 
L 243.964438 167.566689 
L 244.371069 167.411058 
L 244.777701 167.754904 
L 245.590964 167.371117 
L 245.997595 167.213723 
L 248.030752 167.211294 
L 248.437384 167.059732 
L 248.844015 167.145296 
L 250.470541 166.457931 
L 250.877173 166.517454 
L 251.283804 166.295765 
L 251.690435 166.389914 
L 252.097067 166.639947 
L 252.503698 166.69759 
L 252.91033 166.613615 
L 253.723593 166.717814 
L 254.943487 166.220018 
L 255.75675 165.867631 
L 256.163381 165.903706 
L 259.416433 164.475101 
L 260.229696 164.019251 
L 260.636327 164.054514 
L 262.669484 163.40575 
L 263.482747 163.330281 
L 263.889379 163.409553 
L 264.29601 163.309282 
L 265.922536 162.547371 
L 267.955693 161.517308 
L 268.362325 161.591228 
L 268.768956 161.329175 
L 269.175588 161.223191 
L 269.98885 160.623113 
L 270.802113 160.598205 
L 271.615376 160.23623 
L 272.022008 160.340866 
L 272.428639 160.099965 
L 272.835271 160.604108 
L 274.868428 159.7966 
L 275.275059 159.650817 
L 275.681691 159.647358 
L 276.088322 159.423287 
L 276.901585 159.366536 
L 277.714848 158.956107 
L 278.121479 158.621042 
L 278.528111 158.64433 
L 278.934742 158.202317 
L 279.341374 158.094921 
L 280.561268 157.28844 
L 280.967899 157.296268 
L 281.374531 157.19011 
L 283.407688 156.081423 
L 283.81432 156.397369 
L 284.220951 156.085354 
L 284.627582 156.277251 
L 285.034214 156.245113 
L 285.440845 156.335857 
L 286.66074 155.353448 
L 288.287265 154.378297 
L 288.693897 154.253785 
L 289.100528 154.350779 
L 289.50716 154.182571 
L 290.320423 153.498855 
L 290.727054 153.075523 
L 291.133686 153.285481 
L 291.540317 153.156528 
L 291.946948 152.875094 
L 293.166843 152.71769 
L 293.573474 152.503611 
L 293.980106 152.651865 
L 294.386737 152.357619 
L 294.793369 152.367054 
L 295.2 152.097829 
L 295.606631 152.199763 
L 297.233157 150.822474 
L 297.639789 151.202188 
L 298.453052 150.325125 
L 298.859683 150.453371 
L 299.672946 150.395184 
L 300.079577 150.669698 
L 301.299472 149.743123 
L 301.706103 149.779378 
L 302.112735 149.621285 
L 302.519366 149.626567 
L 302.925997 149.502502 
L 303.332629 148.965595 
L 304.552523 148.135021 
L 304.959155 147.753158 
L 305.365786 147.78956 
L 306.179049 147.21742 
L 306.992312 146.415815 
L 307.398943 146.693756 
L 307.805575 146.413727 
L 308.212206 146.299773 
L 308.618838 146.337975 
L 309.025469 145.916671 
L 309.432101 145.68354 
L 309.838732 145.749091 
L 310.651995 144.779637 
L 311.058626 144.766261 
L 311.465258 144.53223 
L 311.871889 144.601643 
L 312.278521 144.17458 
L 313.091784 143.694979 
L 313.905046 144.083194 
L 314.311678 144.072716 
L 315.531572 142.612545 
L 315.938204 143.112668 
L 316.344835 143.305717 
L 316.751467 143.304479 
L 317.158098 142.952903 
L 317.564729 142.937351 
L 317.971361 142.659539 
L 319.191255 142.351775 
L 319.597887 141.587168 
L 320.004518 141.412673 
L 320.41115 140.824356 
L 320.817781 140.867305 
L 321.631044 139.895942 
L 322.037675 139.700825 
L 322.444307 139.139221 
L 322.850938 139.505192 
L 323.25757 138.986774 
L 323.664201 138.995497 
L 324.477464 138.469737 
L 324.884095 138.257941 
L 325.697358 137.419187 
L 326.10399 137.488632 
L 327.323884 135.94899 
L 327.730516 136.188197 
L 328.137147 135.825641 
L 328.543778 134.959458 
L 328.95041 134.698053 
L 329.357041 134.171532 
L 329.763673 134.527302 
L 330.170304 134.565703 
L 330.576936 133.769993 
L 330.983567 134.355877 
L 331.79683 133.540374 
L 332.203461 133.32267 
L 332.610093 132.681267 
L 333.016724 133.820165 
L 333.423356 133.190486 
L 333.829987 133.97577 
L 334.236619 134.270984 
L 335.049882 132.702733 
L 335.456513 132.261443 
L 335.863144 131.458083 
L 336.269776 132.61756 
L 336.676407 132.417933 
L 337.083039 131.884494 
L 337.48967 133.071012 
L 338.302933 132.430419 
L 338.709565 131.791525 
L 339.116196 132.126223 
L 339.522827 131.581578 
L 339.929459 131.899808 
L 340.742722 131.136799 
L 341.555985 131.059732 
L 341.962616 130.569668 
L 342.369248 130.517707 
L 342.775879 129.960559 
L 343.18251 129.985185 
L 343.995773 128.550996 
L 344.402405 129.053845 
L 344.809036 128.929514 
L 346.028931 126.964355 
L 346.435562 126.834956 
L 346.842193 126.126906 
L 347.248825 126.472408 
L 348.062088 125.091585 
L 348.875351 124.913418 
L 349.688614 125.058061 
L 350.095245 125.436764 
L 350.908508 125.456584 
L 351.315139 126.643077 
L 351.721771 126.5236 
L 352.128402 125.941179 
L 352.535034 126.008012 
L 352.941665 126.637659 
L 353.754928 126.306372 
L 354.568191 125.023432 
L 355.381454 124.166278 
L 355.788085 123.9968 
L 356.194717 124.48035 
L 356.601348 125.177202 
L 357.00798 125.011607 
L 357.821242 122.856954 
L 358.227874 123.505833 
L 358.634505 122.563396 
L 359.041137 123.842349 
L 359.447768 122.957954 
L 360.261031 123.19004 
L 360.667663 122.61177 
L 361.074294 122.242138 
L 361.480925 122.126464 
L 361.887557 122.979741 
L 362.294188 123.453226 
L 362.70082 123.177062 
L 363.107451 124.065839 
L 363.514083 123.59889 
L 363.920714 124.013773 
L 364.733977 124.124423 
L 365.140608 123.238733 
L 365.54724 123.244405 
L 366.360503 126.139667 
L 366.767134 125.700533 
L 367.173766 124.564769 
L 367.580397 124.719864 
L 368.39366 123.27033 
L 368.800291 123.516937 
L 369.206923 125.649048 
L 369.613554 126.636442 
L 370.020186 126.634594 
L 370.833449 125.181993 
L 371.24008 125.865471 
L 371.646712 127.478965 
L 372.053343 126.823144 
L 372.459974 126.439218 
L 372.866606 125.698561 
L 373.273237 125.222275 
L 373.679869 125.432634 
L 374.0865 124.970037 
L 374.493132 125.590679 
L 374.899763 125.809243 
L 375.306395 124.691076 
L 375.713026 124.006171 
L 376.119657 124.237911 
L 376.526289 123.866236 
L 376.93292 122.973221 
L 377.339552 122.351408 
L 377.746183 121.3583 
L 378.152815 120.784306 
L 378.559446 119.776499 
L 378.966078 119.516924 
L 380.185972 117.085365 
L 380.592603 117.673228 
L 380.999235 117.334203 
L 381.405866 116.241127 
L 381.812498 116.383045 
L 382.219129 115.130765 
L 383.032392 113.626516 
L 383.439024 114.248703 
L 383.845655 113.257124 
L 384.252286 115.164623 
L 384.658918 113.689257 
L 385.065549 112.87869 
L 385.472181 116.471194 
L 385.878812 117.411399 
L 386.285444 116.331182 
L 386.692075 114.836656 
L 387.098707 113.786824 
L 387.505338 114.860971 
L 387.911969 115.089788 
L 388.318601 116.856202 
L 388.725232 115.506855 
L 389.538495 118.512358 
L 391.165021 114.315681 
L 391.571652 114.529987 
L 391.978284 115.414146 
L 392.384915 114.522466 
L 392.791547 114.773327 
L 393.198178 115.340613 
L 393.60481 115.402716 
L 394.011441 117.227879 
L 394.418073 117.625486 
L 394.824704 116.270757 
L 395.231335 116.697431 
L 395.637967 115.306518 
L 396.044598 115.763669 
L 396.45123 114.642016 
L 396.857861 114.110994 
L 397.264493 113.798252 
L 397.671124 112.691516 
L 398.077756 113.932471 
L 398.891018 114.98312 
L 399.29765 113.744704 
L 399.704281 113.049909 
L 400.110913 110.850873 
L 400.517544 111.285684 
L 400.924176 109.780677 
L 401.330807 108.997204 
L 401.737439 107.291943 
L 402.14407 106.849533 
L 402.550701 105.50471 
L 402.957333 105.493391 
L 403.363964 104.763608 
L 403.770596 104.468231 
L 404.177227 103.15994 
L 404.583859 104.41721 
L 404.99049 102.743924 
L 405.397122 101.996396 
L 405.803753 100.306167 
L 406.210384 99.359044 
L 406.617016 97.958604 
L 407.023647 99.20575 
L 407.430279 98.217992 
L 407.83691 98.64923 
L 408.243542 97.316149 
L 408.650173 97.371421 
L 409.463436 95.079944 
L 410.68333 88.546118 
L 411.089962 89.280988 
L 411.496593 88.533627 
L 411.903225 86.522812 
L 412.309856 87.810197 
L 412.716488 88.717661 
L 413.123119 86.85246 
L 413.52975 89.894585 
L 413.936382 88.407821 
L 414.343013 87.361393 
L 414.749645 87.980572 
L 415.156276 86.552838 
L 415.562908 86.010595 
L 415.969539 84.484336 
L 416.376171 83.491769 
L 416.782802 83.713312 
L 417.189433 84.642149 
L 418.002696 82.259104 
L 418.409328 87.603771 
L 418.815959 85.656952 
L 419.222591 84.731547 
L 419.629222 86.654839 
L 420.035854 85.190105 
L 420.442485 86.673841 
L 420.849116 83.666158 
L 421.255748 88.961583 
L 421.662379 87.995306 
L 422.069011 86.310156 
L 422.882274 82.156295 
L 423.288905 82.398066 
L 423.695537 81.941076 
L 424.102168 80.242832 
L 424.508799 80.617572 
L 424.915431 79.502689 
L 425.322062 80.683204 
L 425.728694 78.809863 
L 426.135325 80.340287 
L 426.541957 81.072211 
L 426.948588 79.644068 
L 427.761851 74.755057 
L 428.168482 72.936901 
L 428.575114 74.34035 
L 428.981745 72.758435 
L 429.388377 77.246706 
L 429.795008 76.87496 
L 430.20164 73.355137 
L 430.608271 76.010343 
L 431.014903 74.065308 
L 431.421534 74.500518 
L 431.828165 74.099523 
L 432.234797 74.952671 
L 432.641428 73.309785 
L 433.04806 72.476172 
L 433.454691 69.384051 
L 433.861323 68.401376 
L 434.267954 78.116383 
L 435.081217 73.59076 
L 435.89448 70.89075 
L 436.301111 72.245996 
L 436.707743 69.672202 
L 437.114374 71.528462 
L 437.927637 68.002411 
L 438.334269 67.757045 
L 439.554163 59.186388 
L 439.960794 59.186388 
L 440.774057 52.486723 
L 441.180689 51.118105 
L 441.58732 52.673276 
L 441.993952 50.641296 
L 442.400583 47.428627 
L 443.213846 44.443636 
L 443.620477 58.800205 
L 444.027109 57.374236 
L 444.43374 54.61931 
L 444.840372 49.725147 
L 445.247003 51.795929 
L 445.653635 48.963253 
L 446.060266 47.332504 
L 446.466897 56.703175 
L 446.873529 55.106315 
L 447.28016 64.585931 
L 447.686792 65.188931 
L 448.093423 65.188931 
L 448.500055 74.715078 
L 448.906686 71.77518 
L 449.313318 81.235255 
L 450.12658 75.43932 
L 450.533212 99.301236 
L 450.939843 97.855413 
L 451.753106 96.380017 
L 452.159738 95.042987 
L 452.566369 98.926519 
L 453.379632 95.135692 
L 453.786263 93.526415 
L 454.192895 93.526415 
L 454.599526 98.687574 
L 455.006158 97.255077 
L 455.412789 100.640374 
L 455.819421 99.168582 
L 456.226052 98.608734 
L 456.632684 110.250304 
L 457.039315 109.354475 
L 457.445946 116.629099 
L 457.852578 115.414146 
L 458.259209 115.414146 
L 458.665841 113.456668 
L 459.072472 113.456668 
L 459.479104 111.623909 
L 459.885735 118.025425 
L 460.292367 118.025425 
L 461.918892 145.942397 
L 462.325524 145.942397 
L 462.732155 154.174888 
L 463.138787 153.608438 
L 463.545418 161.892431 
L 463.95205 159.727873 
L 464.358681 159.308948 
L 464.765312 169.165292 
L 465.171944 168.155588 
L 465.578575 167.510206 
L 465.985207 165.504664 
L 466.391838 164.951511 
L 466.79847 163.097273 
L 467.205101 162.360154 
L 467.611733 161.151727 
L 468.018364 159.268828 
L 468.424995 158.621582 
L 468.831627 157.12764 
L 469.238258 168.091553 
L 469.64489 167.488499 
L 470.051521 191.11806 
L 470.458153 191.11806 
L 470.864784 190.796642 
L 471.678047 189.69536 
L 472.084678 188.77971 
L 472.49131 188.77971 
L 473.711204 187.22156 
L 474.117836 187.097923 
L 474.931099 187.097923 
L 475.744361 213.309539 
L 476.557624 213.309539 
L 476.964256 213.035188 
L 477.370887 212.470505 
L 478.590782 212.470505 
L 478.997413 227.148111 
L 479.404044 227.148111 
L 479.810676 226.999911 
L 483.87699 226.999911 
L 484.283622 242.116364 
L 498.109091 242.116364 
L 498.109091 242.116364 
" style="fill:none;stroke:#1f77b4;stroke-linecap:square;stroke-width:1.5;"/>
   </g>
   <g id="patch_3">
    <path d="M 72 252 
L 72 34.56 
" style="fill:none;stroke:#000000;stroke-linecap:square;stroke-linejoin:miter;stroke-width:0.8;"/>
   </g>
   <g id="patch_4">
    <path d="M 518.4 252 
L 518.4 34.56 
" style="fill:none;stroke:#000000;stroke-linecap:square;stroke-linejoin:miter;stroke-width:0.8;"/>
   </g>
   <g id="patch_5">
    <path d="M 72 252 
L 518.4 252 
" style="fill:none;stroke:#000000;stroke-linecap:square;stroke-linejoin:miter;stroke-width:0.8;"/>
   </g>
   <g id="patch_6">
    <path d="M 72 34.56 
L 518.4 34.56 
" style="fill:none;stroke:#000000;stroke-linecap:square;stroke-linejoin:miter;stroke-width:0.8;"/>
   </g>
   <g id="text_16">
    <!-- COYOACAN -->
    <g transform="translate(272.988125 28.56)scale(0.08 -0.08)">
     <defs>
      <path d="M 4122 4306 
L 4122 3641 
Q 3803 3938 3442 4084 
Q 3081 4231 2675 4231 
Q 1875 4231 1450 3742 
Q 1025 3253 1025 2328 
Q 1025 1406 1450 917 
Q 1875 428 2675 428 
Q 3081 428 3442 575 
Q 3803 722 4122 1019 
L 4122 359 
Q 3791 134 3420 21 
Q 3050 -91 2638 -91 
Q 1578 -91 968 557 
Q 359 1206 359 2328 
Q 359 3453 968 4101 
Q 1578 4750 2638 4750 
Q 3056 4750 3426 4639 
Q 3797 4528 4122 4306 
z
" id="DejaVuSans-43" transform="scale(0.015625)"/>
      <path d="M 2522 4238 
Q 1834 4238 1429 3725 
Q 1025 3213 1025 2328 
Q 1025 1447 1429 934 
Q 1834 422 2522 422 
Q 3209 422 3611 934 
Q 4013 1447 4013 2328 
Q 4013 3213 3611 3725 
Q 3209 4238 2522 4238 
z
M 2522 4750 
Q 3503 4750 4090 4092 
Q 4678 3434 4678 2328 
Q 4678 1225 4090 567 
Q 3503 -91 2522 -91 
Q 1538 -91 948 565 
Q 359 1222 359 2328 
Q 359 3434 948 4092 
Q 1538 4750 2522 4750 
z
" id="DejaVuSans-4f" transform="scale(0.015625)"/>
      <path d="M -13 4666 
L 666 4666 
L 1959 2747 
L 3244 4666 
L 3922 4666 
L 2272 2222 
L 2272 0 
L 1638 0 
L 1638 2222 
L -13 4666 
z
" id="DejaVuSans-59" transform="scale(0.015625)"/>
      <path d="M 2188 4044 
L 1331 1722 
L 3047 1722 
L 2188 4044 
z
M 1831 4666 
L 2547 4666 
L 4325 0 
L 3669 0 
L 3244 1197 
L 1141 1197 
L 716 0 
L 50 0 
L 1831 4666 
z
" id="DejaVuSans-41" transform="scale(0.015625)"/>
      <path d="M 628 4666 
L 1478 4666 
L 3547 763 
L 3547 4666 
L 4159 4666 
L 4159 0 
L 3309 0 
L 1241 3903 
L 1241 0 
L 628 0 
L 628 4666 
z
" id="DejaVuSans-4e" transform="scale(0.015625)"/>
     </defs>
     <use xlink:href="#DejaVuSans-43"/>
     <use x="69.824219" xlink:href="#DejaVuSans-4f"/>
     <use x="143.035156" xlink:href="#DejaVuSans-59"/>
     <use x="198.619141" xlink:href="#DejaVuSans-4f"/>
     <use x="275.580078" xlink:href="#DejaVuSans-41"/>
     <use x="342.238281" xlink:href="#DejaVuSans-43"/>
     <use x="412.0625" xlink:href="#DejaVuSans-41"/>
     <use x="480.470703" xlink:href="#DejaVuSans-4e"/>
    </g>
   </g>
  </g>
  <g id="text_17">
   <!-- F1 score curve -->
   <g transform="translate(229.31625 17.9175)scale(0.16 -0.16)">
    <defs>
     <path d="M 544 1381 
L 544 3500 
L 1119 3500 
L 1119 1403 
Q 1119 906 1312 657 
Q 1506 409 1894 409 
Q 2359 409 2629 706 
Q 2900 1003 2900 1516 
L 2900 3500 
L 3475 3500 
L 3475 0 
L 2900 0 
L 2900 538 
Q 2691 219 2414 64 
Q 2138 -91 1772 -91 
Q 1169 -91 856 284 
Q 544 659 544 1381 
z
M 1991 3584 
L 1991 3584 
z
" id="DejaVuSans-75" transform="scale(0.015625)"/>
     <path d="M 191 3500 
L 800 3500 
L 1894 563 
L 2988 3500 
L 3597 3500 
L 2284 0 
L 1503 0 
L 191 3500 
z
" id="DejaVuSans-76" transform="scale(0.015625)"/>
    </defs>
    <use xlink:href="#DejaVuSans-46"/>
    <use x="57.519531" xlink:href="#DejaVuSans-31"/>
    <use x="121.142578" xlink:href="#DejaVuSans-20"/>
    <use x="152.929688" xlink:href="#DejaVuSans-73"/>
    <use x="205.029297" xlink:href="#DejaVuSans-63"/>
    <use x="260.009766" xlink:href="#DejaVuSans-6f"/>
    <use x="321.191406" xlink:href="#DejaVuSans-72"/>
    <use x="360.054688" xlink:href="#DejaVuSans-65"/>
    <use x="421.578125" xlink:href="#DejaVuSans-20"/>
    <use x="453.365234" xlink:href="#DejaVuSans-63"/>
    <use x="508.345703" xlink:href="#DejaVuSans-75"/>
    <use x="571.724609" xlink:href="#DejaVuSans-72"/>
    <use x="612.837891" xlink:href="#DejaVuSans-76"/>
    <use x="672.017578" xlink:href="#DejaVuSans-65"/>
   </g>
  </g>
 </g>
 <defs>
  <clipPath id="p7731d504a5">
   <rect height="217.44" width="446.4" x="72" y="34.56"/>
  </clipPath>
 </defs>
</svg>
