<?xml version="1.0" encoding="utf-8" standalone="no"?>
<!DOCTYPE svg PUBLIC "-//W3C//DTD SVG 1.1//EN"
  "http://www.w3.org/Graphics/SVG/1.1/DTD/svg11.dtd">
<svg height="288pt" version="1.1" viewBox="0 0 576 288" width="576pt" xmlns="http://www.w3.org/2000/svg" xmlns:xlink="http://www.w3.org/1999/xlink">
 <metadata>
  <rdf:RDF xmlns:cc="http://creativecommons.org/ns#" xmlns:dc="http://purl.org/dc/elements/1.1/" xmlns:rdf="http://www.w3.org/1999/02/22-rdf-syntax-ns#">
   <cc:Work>
    <dc:type rdf:resource="http://purl.org/dc/dcmitype/StillImage"/>
    <dc:date>2022-01-04T19:54:25.619848</dc:date>
    <dc:format>image/svg+xml</dc:format>
    <dc:creator>
     <cc:Agent>
      <dc:title>Matplotlib v3.4.3, https://matplotlib.org/</dc:title>
     </cc:Agent>
    </dc:creator>
   </cc:Work>
  </rdf:RDF>
 </metadata>
 <defs>
  <style type="text/css">*{stroke-linecap:butt;stroke-linejoin:round;}</style>
 </defs>
 <g id="figure_1">
  <g id="patch_1">
   <path d="M 0 288 
L 576 288 
L 576 0 
L 0 0 
z
" style="fill:none;"/>
  </g>
  <g id="axes_1">
   <g id="patch_2">
    <path d="M 72 252 
L 518.4 252 
L 518.4 34.56 
L 72 34.56 
z
" style="fill:#ffffff;"/>
   </g>
   <g id="matplotlib.axis_1">
    <g id="xtick_1">
     <g id="line2d_1">
      <defs>
       <path d="M 0 0 
L 0 3.5 
" id="m58b955e712" style="stroke:#000000;stroke-width:0.8;"/>
      </defs>
      <g>
       <use style="stroke:#000000;stroke-width:0.8;" x="91.884278" xlink:href="#m58b955e712" y="252"/>
      </g>
     </g>
     <g id="text_1">
      <!-- 0.0 -->
      <g transform="translate(83.932715 266.598437)scale(0.1 -0.1)">
       <defs>
        <path d="M 2034 4250 
Q 1547 4250 1301 3770 
Q 1056 3291 1056 2328 
Q 1056 1369 1301 889 
Q 1547 409 2034 409 
Q 2525 409 2770 889 
Q 3016 1369 3016 2328 
Q 3016 3291 2770 3770 
Q 2525 4250 2034 4250 
z
M 2034 4750 
Q 2819 4750 3233 4129 
Q 3647 3509 3647 2328 
Q 3647 1150 3233 529 
Q 2819 -91 2034 -91 
Q 1250 -91 836 529 
Q 422 1150 422 2328 
Q 422 3509 836 4129 
Q 1250 4750 2034 4750 
z
" id="DejaVuSans-30" transform="scale(0.015625)"/>
        <path d="M 684 794 
L 1344 794 
L 1344 0 
L 684 0 
L 684 794 
z
" id="DejaVuSans-2e" transform="scale(0.015625)"/>
       </defs>
       <use xlink:href="#DejaVuSans-30"/>
       <use x="63.623047" xlink:href="#DejaVuSans-2e"/>
       <use x="95.410156" xlink:href="#DejaVuSans-30"/>
      </g>
     </g>
    </g>
    <g id="xtick_2">
     <g id="line2d_2">
      <g>
       <use style="stroke:#000000;stroke-width:0.8;" x="173.210567" xlink:href="#m58b955e712" y="252"/>
      </g>
     </g>
     <g id="text_2">
      <!-- 0.2 -->
      <g transform="translate(165.259004 266.598437)scale(0.1 -0.1)">
       <defs>
        <path d="M 1228 531 
L 3431 531 
L 3431 0 
L 469 0 
L 469 531 
Q 828 903 1448 1529 
Q 2069 2156 2228 2338 
Q 2531 2678 2651 2914 
Q 2772 3150 2772 3378 
Q 2772 3750 2511 3984 
Q 2250 4219 1831 4219 
Q 1534 4219 1204 4116 
Q 875 4013 500 3803 
L 500 4441 
Q 881 4594 1212 4672 
Q 1544 4750 1819 4750 
Q 2544 4750 2975 4387 
Q 3406 4025 3406 3419 
Q 3406 3131 3298 2873 
Q 3191 2616 2906 2266 
Q 2828 2175 2409 1742 
Q 1991 1309 1228 531 
z
" id="DejaVuSans-32" transform="scale(0.015625)"/>
       </defs>
       <use xlink:href="#DejaVuSans-30"/>
       <use x="63.623047" xlink:href="#DejaVuSans-2e"/>
       <use x="95.410156" xlink:href="#DejaVuSans-32"/>
      </g>
     </g>
    </g>
    <g id="xtick_3">
     <g id="line2d_3">
      <g>
       <use style="stroke:#000000;stroke-width:0.8;" x="254.536856" xlink:href="#m58b955e712" y="252"/>
      </g>
     </g>
     <g id="text_3">
      <!-- 0.4 -->
      <g transform="translate(246.585293 266.598437)scale(0.1 -0.1)">
       <defs>
        <path d="M 2419 4116 
L 825 1625 
L 2419 1625 
L 2419 4116 
z
M 2253 4666 
L 3047 4666 
L 3047 1625 
L 3713 1625 
L 3713 1100 
L 3047 1100 
L 3047 0 
L 2419 0 
L 2419 1100 
L 313 1100 
L 313 1709 
L 2253 4666 
z
" id="DejaVuSans-34" transform="scale(0.015625)"/>
       </defs>
       <use xlink:href="#DejaVuSans-30"/>
       <use x="63.623047" xlink:href="#DejaVuSans-2e"/>
       <use x="95.410156" xlink:href="#DejaVuSans-34"/>
      </g>
     </g>
    </g>
    <g id="xtick_4">
     <g id="line2d_4">
      <g>
       <use style="stroke:#000000;stroke-width:0.8;" x="335.863144" xlink:href="#m58b955e712" y="252"/>
      </g>
     </g>
     <g id="text_4">
      <!-- 0.6 -->
      <g transform="translate(327.911582 266.598437)scale(0.1 -0.1)">
       <defs>
        <path d="M 2113 2584 
Q 1688 2584 1439 2293 
Q 1191 2003 1191 1497 
Q 1191 994 1439 701 
Q 1688 409 2113 409 
Q 2538 409 2786 701 
Q 3034 994 3034 1497 
Q 3034 2003 2786 2293 
Q 2538 2584 2113 2584 
z
M 3366 4563 
L 3366 3988 
Q 3128 4100 2886 4159 
Q 2644 4219 2406 4219 
Q 1781 4219 1451 3797 
Q 1122 3375 1075 2522 
Q 1259 2794 1537 2939 
Q 1816 3084 2150 3084 
Q 2853 3084 3261 2657 
Q 3669 2231 3669 1497 
Q 3669 778 3244 343 
Q 2819 -91 2113 -91 
Q 1303 -91 875 529 
Q 447 1150 447 2328 
Q 447 3434 972 4092 
Q 1497 4750 2381 4750 
Q 2619 4750 2861 4703 
Q 3103 4656 3366 4563 
z
" id="DejaVuSans-36" transform="scale(0.015625)"/>
       </defs>
       <use xlink:href="#DejaVuSans-30"/>
       <use x="63.623047" xlink:href="#DejaVuSans-2e"/>
       <use x="95.410156" xlink:href="#DejaVuSans-36"/>
      </g>
     </g>
    </g>
    <g id="xtick_5">
     <g id="line2d_5">
      <g>
       <use style="stroke:#000000;stroke-width:0.8;" x="417.189433" xlink:href="#m58b955e712" y="252"/>
      </g>
     </g>
     <g id="text_5">
      <!-- 0.8 -->
      <g transform="translate(409.237871 266.598437)scale(0.1 -0.1)">
       <defs>
        <path d="M 2034 2216 
Q 1584 2216 1326 1975 
Q 1069 1734 1069 1313 
Q 1069 891 1326 650 
Q 1584 409 2034 409 
Q 2484 409 2743 651 
Q 3003 894 3003 1313 
Q 3003 1734 2745 1975 
Q 2488 2216 2034 2216 
z
M 1403 2484 
Q 997 2584 770 2862 
Q 544 3141 544 3541 
Q 544 4100 942 4425 
Q 1341 4750 2034 4750 
Q 2731 4750 3128 4425 
Q 3525 4100 3525 3541 
Q 3525 3141 3298 2862 
Q 3072 2584 2669 2484 
Q 3125 2378 3379 2068 
Q 3634 1759 3634 1313 
Q 3634 634 3220 271 
Q 2806 -91 2034 -91 
Q 1263 -91 848 271 
Q 434 634 434 1313 
Q 434 1759 690 2068 
Q 947 2378 1403 2484 
z
M 1172 3481 
Q 1172 3119 1398 2916 
Q 1625 2713 2034 2713 
Q 2441 2713 2670 2916 
Q 2900 3119 2900 3481 
Q 2900 3844 2670 4047 
Q 2441 4250 2034 4250 
Q 1625 4250 1398 4047 
Q 1172 3844 1172 3481 
z
" id="DejaVuSans-38" transform="scale(0.015625)"/>
       </defs>
       <use xlink:href="#DejaVuSans-30"/>
       <use x="63.623047" xlink:href="#DejaVuSans-2e"/>
       <use x="95.410156" xlink:href="#DejaVuSans-38"/>
      </g>
     </g>
    </g>
    <g id="xtick_6">
     <g id="line2d_6">
      <g>
       <use style="stroke:#000000;stroke-width:0.8;" x="498.515722" xlink:href="#m58b955e712" y="252"/>
      </g>
     </g>
     <g id="text_6">
      <!-- 1.0 -->
      <g transform="translate(490.56416 266.598437)scale(0.1 -0.1)">
       <defs>
        <path d="M 794 531 
L 1825 531 
L 1825 4091 
L 703 3866 
L 703 4441 
L 1819 4666 
L 2450 4666 
L 2450 531 
L 3481 531 
L 3481 0 
L 794 0 
L 794 531 
z
" id="DejaVuSans-31" transform="scale(0.015625)"/>
       </defs>
       <use xlink:href="#DejaVuSans-31"/>
       <use x="63.623047" xlink:href="#DejaVuSans-2e"/>
       <use x="95.410156" xlink:href="#DejaVuSans-30"/>
      </g>
     </g>
    </g>
    <g id="text_7">
     <!-- Thresholds -->
     <g transform="translate(267.957031 280.276563)scale(0.1 -0.1)">
      <defs>
       <path d="M -19 4666 
L 3928 4666 
L 3928 4134 
L 2272 4134 
L 2272 0 
L 1638 0 
L 1638 4134 
L -19 4134 
L -19 4666 
z
" id="DejaVuSans-54" transform="scale(0.015625)"/>
       <path d="M 3513 2113 
L 3513 0 
L 2938 0 
L 2938 2094 
Q 2938 2591 2744 2837 
Q 2550 3084 2163 3084 
Q 1697 3084 1428 2787 
Q 1159 2491 1159 1978 
L 1159 0 
L 581 0 
L 581 4863 
L 1159 4863 
L 1159 2956 
Q 1366 3272 1645 3428 
Q 1925 3584 2291 3584 
Q 2894 3584 3203 3211 
Q 3513 2838 3513 2113 
z
" id="DejaVuSans-68" transform="scale(0.015625)"/>
       <path d="M 2631 2963 
Q 2534 3019 2420 3045 
Q 2306 3072 2169 3072 
Q 1681 3072 1420 2755 
Q 1159 2438 1159 1844 
L 1159 0 
L 581 0 
L 581 3500 
L 1159 3500 
L 1159 2956 
Q 1341 3275 1631 3429 
Q 1922 3584 2338 3584 
Q 2397 3584 2469 3576 
Q 2541 3569 2628 3553 
L 2631 2963 
z
" id="DejaVuSans-72" transform="scale(0.015625)"/>
       <path d="M 3597 1894 
L 3597 1613 
L 953 1613 
Q 991 1019 1311 708 
Q 1631 397 2203 397 
Q 2534 397 2845 478 
Q 3156 559 3463 722 
L 3463 178 
Q 3153 47 2828 -22 
Q 2503 -91 2169 -91 
Q 1331 -91 842 396 
Q 353 884 353 1716 
Q 353 2575 817 3079 
Q 1281 3584 2069 3584 
Q 2775 3584 3186 3129 
Q 3597 2675 3597 1894 
z
M 3022 2063 
Q 3016 2534 2758 2815 
Q 2500 3097 2075 3097 
Q 1594 3097 1305 2825 
Q 1016 2553 972 2059 
L 3022 2063 
z
" id="DejaVuSans-65" transform="scale(0.015625)"/>
       <path d="M 2834 3397 
L 2834 2853 
Q 2591 2978 2328 3040 
Q 2066 3103 1784 3103 
Q 1356 3103 1142 2972 
Q 928 2841 928 2578 
Q 928 2378 1081 2264 
Q 1234 2150 1697 2047 
L 1894 2003 
Q 2506 1872 2764 1633 
Q 3022 1394 3022 966 
Q 3022 478 2636 193 
Q 2250 -91 1575 -91 
Q 1294 -91 989 -36 
Q 684 19 347 128 
L 347 722 
Q 666 556 975 473 
Q 1284 391 1588 391 
Q 1994 391 2212 530 
Q 2431 669 2431 922 
Q 2431 1156 2273 1281 
Q 2116 1406 1581 1522 
L 1381 1569 
Q 847 1681 609 1914 
Q 372 2147 372 2553 
Q 372 3047 722 3315 
Q 1072 3584 1716 3584 
Q 2034 3584 2315 3537 
Q 2597 3491 2834 3397 
z
" id="DejaVuSans-73" transform="scale(0.015625)"/>
       <path d="M 1959 3097 
Q 1497 3097 1228 2736 
Q 959 2375 959 1747 
Q 959 1119 1226 758 
Q 1494 397 1959 397 
Q 2419 397 2687 759 
Q 2956 1122 2956 1747 
Q 2956 2369 2687 2733 
Q 2419 3097 1959 3097 
z
M 1959 3584 
Q 2709 3584 3137 3096 
Q 3566 2609 3566 1747 
Q 3566 888 3137 398 
Q 2709 -91 1959 -91 
Q 1206 -91 779 398 
Q 353 888 353 1747 
Q 353 2609 779 3096 
Q 1206 3584 1959 3584 
z
" id="DejaVuSans-6f" transform="scale(0.015625)"/>
       <path d="M 603 4863 
L 1178 4863 
L 1178 0 
L 603 0 
L 603 4863 
z
" id="DejaVuSans-6c" transform="scale(0.015625)"/>
       <path d="M 2906 2969 
L 2906 4863 
L 3481 4863 
L 3481 0 
L 2906 0 
L 2906 525 
Q 2725 213 2448 61 
Q 2172 -91 1784 -91 
Q 1150 -91 751 415 
Q 353 922 353 1747 
Q 353 2572 751 3078 
Q 1150 3584 1784 3584 
Q 2172 3584 2448 3432 
Q 2725 3281 2906 2969 
z
M 947 1747 
Q 947 1113 1208 752 
Q 1469 391 1925 391 
Q 2381 391 2643 752 
Q 2906 1113 2906 1747 
Q 2906 2381 2643 2742 
Q 2381 3103 1925 3103 
Q 1469 3103 1208 2742 
Q 947 2381 947 1747 
z
" id="DejaVuSans-64" transform="scale(0.015625)"/>
      </defs>
      <use xlink:href="#DejaVuSans-54"/>
      <use x="61.083984" xlink:href="#DejaVuSans-68"/>
      <use x="124.462891" xlink:href="#DejaVuSans-72"/>
      <use x="163.326172" xlink:href="#DejaVuSans-65"/>
      <use x="224.849609" xlink:href="#DejaVuSans-73"/>
      <use x="276.949219" xlink:href="#DejaVuSans-68"/>
      <use x="340.328125" xlink:href="#DejaVuSans-6f"/>
      <use x="401.509766" xlink:href="#DejaVuSans-6c"/>
      <use x="429.292969" xlink:href="#DejaVuSans-64"/>
      <use x="492.769531" xlink:href="#DejaVuSans-73"/>
     </g>
    </g>
   </g>
   <g id="matplotlib.axis_2">
    <g id="ytick_1">
     <g id="line2d_7">
      <defs>
       <path d="M 0 0 
L -3.5 0 
" id="m72093a564a" style="stroke:#000000;stroke-width:0.8;"/>
      </defs>
      <g>
       <use style="stroke:#000000;stroke-width:0.8;" x="72" xlink:href="#m72093a564a" y="242.116364"/>
      </g>
     </g>
     <g id="text_8">
      <!-- 0.00 -->
      <g transform="translate(42.734375 245.915582)scale(0.1 -0.1)">
       <use xlink:href="#DejaVuSans-30"/>
       <use x="63.623047" xlink:href="#DejaVuSans-2e"/>
       <use x="95.410156" xlink:href="#DejaVuSans-30"/>
       <use x="159.033203" xlink:href="#DejaVuSans-30"/>
      </g>
     </g>
    </g>
    <g id="ytick_2">
     <g id="line2d_8">
      <g>
       <use style="stroke:#000000;stroke-width:0.8;" x="72" xlink:href="#m72093a564a" y="211.358487"/>
      </g>
     </g>
     <g id="text_9">
      <!-- 0.02 -->
      <g transform="translate(42.734375 215.157706)scale(0.1 -0.1)">
       <use xlink:href="#DejaVuSans-30"/>
       <use x="63.623047" xlink:href="#DejaVuSans-2e"/>
       <use x="95.410156" xlink:href="#DejaVuSans-30"/>
       <use x="159.033203" xlink:href="#DejaVuSans-32"/>
      </g>
     </g>
    </g>
    <g id="ytick_3">
     <g id="line2d_9">
      <g>
       <use style="stroke:#000000;stroke-width:0.8;" x="72" xlink:href="#m72093a564a" y="180.600611"/>
      </g>
     </g>
     <g id="text_10">
      <!-- 0.04 -->
      <g transform="translate(42.734375 184.39983)scale(0.1 -0.1)">
       <use xlink:href="#DejaVuSans-30"/>
       <use x="63.623047" xlink:href="#DejaVuSans-2e"/>
       <use x="95.410156" xlink:href="#DejaVuSans-30"/>
       <use x="159.033203" xlink:href="#DejaVuSans-34"/>
      </g>
     </g>
    </g>
    <g id="ytick_4">
     <g id="line2d_10">
      <g>
       <use style="stroke:#000000;stroke-width:0.8;" x="72" xlink:href="#m72093a564a" y="149.842735"/>
      </g>
     </g>
     <g id="text_11">
      <!-- 0.06 -->
      <g transform="translate(42.734375 153.641953)scale(0.1 -0.1)">
       <use xlink:href="#DejaVuSans-30"/>
       <use x="63.623047" xlink:href="#DejaVuSans-2e"/>
       <use x="95.410156" xlink:href="#DejaVuSans-30"/>
       <use x="159.033203" xlink:href="#DejaVuSans-36"/>
      </g>
     </g>
    </g>
    <g id="ytick_5">
     <g id="line2d_11">
      <g>
       <use style="stroke:#000000;stroke-width:0.8;" x="72" xlink:href="#m72093a564a" y="119.084858"/>
      </g>
     </g>
     <g id="text_12">
      <!-- 0.08 -->
      <g transform="translate(42.734375 122.884077)scale(0.1 -0.1)">
       <use xlink:href="#DejaVuSans-30"/>
       <use x="63.623047" xlink:href="#DejaVuSans-2e"/>
       <use x="95.410156" xlink:href="#DejaVuSans-30"/>
       <use x="159.033203" xlink:href="#DejaVuSans-38"/>
      </g>
     </g>
    </g>
    <g id="ytick_6">
     <g id="line2d_12">
      <g>
       <use style="stroke:#000000;stroke-width:0.8;" x="72" xlink:href="#m72093a564a" y="88.326982"/>
      </g>
     </g>
     <g id="text_13">
      <!-- 0.10 -->
      <g transform="translate(42.734375 92.126201)scale(0.1 -0.1)">
       <use xlink:href="#DejaVuSans-30"/>
       <use x="63.623047" xlink:href="#DejaVuSans-2e"/>
       <use x="95.410156" xlink:href="#DejaVuSans-31"/>
       <use x="159.033203" xlink:href="#DejaVuSans-30"/>
      </g>
     </g>
    </g>
    <g id="ytick_7">
     <g id="line2d_13">
      <g>
       <use style="stroke:#000000;stroke-width:0.8;" x="72" xlink:href="#m72093a564a" y="57.569105"/>
      </g>
     </g>
     <g id="text_14">
      <!-- 0.12 -->
      <g transform="translate(42.734375 61.368324)scale(0.1 -0.1)">
       <use xlink:href="#DejaVuSans-30"/>
       <use x="63.623047" xlink:href="#DejaVuSans-2e"/>
       <use x="95.410156" xlink:href="#DejaVuSans-31"/>
       <use x="159.033203" xlink:href="#DejaVuSans-32"/>
      </g>
     </g>
    </g>
    <g id="text_15">
     <!-- F1 score -->
     <g transform="translate(36.654687 164.358906)rotate(-90)scale(0.1 -0.1)">
      <defs>
       <path d="M 628 4666 
L 3309 4666 
L 3309 4134 
L 1259 4134 
L 1259 2759 
L 3109 2759 
L 3109 2228 
L 1259 2228 
L 1259 0 
L 628 0 
L 628 4666 
z
" id="DejaVuSans-46" transform="scale(0.015625)"/>
       <path id="DejaVuSans-20" transform="scale(0.015625)"/>
       <path d="M 3122 3366 
L 3122 2828 
Q 2878 2963 2633 3030 
Q 2388 3097 2138 3097 
Q 1578 3097 1268 2742 
Q 959 2388 959 1747 
Q 959 1106 1268 751 
Q 1578 397 2138 397 
Q 2388 397 2633 464 
Q 2878 531 3122 666 
L 3122 134 
Q 2881 22 2623 -34 
Q 2366 -91 2075 -91 
Q 1284 -91 818 406 
Q 353 903 353 1747 
Q 353 2603 823 3093 
Q 1294 3584 2113 3584 
Q 2378 3584 2631 3529 
Q 2884 3475 3122 3366 
z
" id="DejaVuSans-63" transform="scale(0.015625)"/>
      </defs>
      <use xlink:href="#DejaVuSans-46"/>
      <use x="57.519531" xlink:href="#DejaVuSans-31"/>
      <use x="121.142578" xlink:href="#DejaVuSans-20"/>
      <use x="152.929688" xlink:href="#DejaVuSans-73"/>
      <use x="205.029297" xlink:href="#DejaVuSans-63"/>
      <use x="260.009766" xlink:href="#DejaVuSans-6f"/>
      <use x="321.191406" xlink:href="#DejaVuSans-72"/>
      <use x="360.054688" xlink:href="#DejaVuSans-65"/>
     </g>
    </g>
   </g>
   <g id="line2d_14">
    <path clip-path="url(#p2e2a004762)" d="M 92.290909 155.94695 
L 92.697541 155.293363 
L 93.510803 155.08332 
L 96.357224 155.019355 
L 104.896484 154.911044 
L 113.029113 154.524156 
L 113.842376 154.409406 
L 116.688796 154.121212 
L 120.348479 153.718435 
L 122.788267 153.530201 
L 124.008162 153.356323 
L 129.294371 152.446066 
L 130.920896 152.217449 
L 134.987211 151.578166 
L 135.800474 151.41737 
L 136.207105 151.309931 
L 136.613737 151.350817 
L 138.240262 150.939116 
L 138.646894 150.780096 
L 139.053525 150.854247 
L 141.493314 149.952589 
L 141.899945 150.007215 
L 143.526471 149.434011 
L 143.933103 149.212314 
L 144.339734 149.134161 
L 144.746365 148.919462 
L 146.372891 148.694269 
L 146.779523 148.392278 
L 147.592786 148.088327 
L 148.406048 147.69204 
L 149.625943 147.599818 
L 150.439206 147.588963 
L 151.6591 147.188349 
L 153.285626 146.574351 
L 154.098889 146.400923 
L 154.50552 146.244896 
L 154.912152 145.96943 
L 155.318783 146.078984 
L 156.132046 145.470667 
L 156.538677 145.502817 
L 157.35194 145.294577 
L 157.758572 145.090312 
L 158.165203 145.098613 
L 158.571835 145.324217 
L 158.978466 145.079532 
L 159.791729 144.804013 
L 160.19836 144.551729 
L 160.604992 144.432554 
L 161.011623 144.551985 
L 162.231518 144.206607 
L 163.858043 143.477335 
L 164.264675 143.457821 
L 164.671306 143.237499 
L 165.077938 143.160834 
L 165.484569 143.25405 
L 166.704463 142.7097 
L 167.111095 142.76147 
L 167.924358 142.529969 
L 168.330989 142.650189 
L 168.737621 142.449407 
L 169.144252 142.08275 
L 169.550884 141.997342 
L 169.957515 142.063992 
L 170.364146 141.897774 
L 170.770778 142.018232 
L 171.177409 141.67301 
L 171.584041 141.597175 
L 172.803935 140.613526 
L 174.023829 140.237762 
L 174.837092 139.578773 
L 175.243724 139.63558 
L 175.650355 139.436345 
L 176.056987 139.464436 
L 176.463618 139.240894 
L 176.87025 139.148161 
L 177.683512 138.795332 
L 178.090144 139.000878 
L 178.496775 138.941648 
L 178.903407 138.596739 
L 180.936564 138.382532 
L 181.343195 138.591496 
L 181.749827 138.535946 
L 182.156458 138.193779 
L 182.56309 137.636716 
L 183.782984 137.01824 
L 184.189616 136.634941 
L 184.596247 136.461615 
L 185.002878 136.142624 
L 185.40951 135.96652 
L 185.816141 135.985313 
L 186.222773 135.516015 
L 186.629404 135.48955 
L 187.036036 135.634725 
L 187.442667 135.121159 
L 187.849299 135.004923 
L 188.25593 135.219893 
L 189.069193 134.723376 
L 189.475824 134.764607 
L 189.882456 134.4883 
L 190.289087 134.353197 
L 191.10235 134.310739 
L 191.915613 133.871894 
L 193.135507 133.447686 
L 194.355402 132.956019 
L 194.762033 132.930697 
L 195.168665 132.673811 
L 195.575296 132.731375 
L 195.981927 132.450288 
L 196.388559 132.025938 
L 196.79519 131.841032 
L 197.201822 132.281044 
L 198.015085 131.959224 
L 198.828348 131.548834 
L 200.048242 130.654148 
L 200.454873 130.150665 
L 200.861505 130.299329 
L 201.674768 129.658007 
L 202.081399 129.660656 
L 202.488031 129.098567 
L 202.894662 128.908698 
L 203.301293 129.174345 
L 203.707925 128.727142 
L 204.114556 128.478889 
L 204.521188 128.010474 
L 204.927819 127.884328 
L 205.334451 127.883155 
L 206.147714 127.477453 
L 206.554345 127.085511 
L 206.960976 126.924764 
L 207.367608 126.598892 
L 208.180871 127.119427 
L 208.994134 126.998654 
L 209.807397 126.377508 
L 210.214028 126.382289 
L 210.62066 126.765993 
L 211.433922 126.547557 
L 211.840554 126.206029 
L 212.247185 126.138136 
L 213.46708 125.421049 
L 213.873711 125.824304 
L 214.686974 125.631928 
L 215.093605 125.29969 
L 215.500237 125.440558 
L 215.906868 125.411607 
L 216.3135 125.128085 
L 216.720131 124.655459 
L 217.126763 124.585311 
L 217.533394 124.270999 
L 218.346657 124.036149 
L 219.15992 123.124813 
L 219.973183 122.280482 
L 220.379814 122.595334 
L 221.193077 121.704011 
L 221.599709 121.458615 
L 222.00634 121.769146 
L 222.819603 121.296974 
L 223.226234 120.977034 
L 224.039497 120.125443 
L 224.446129 119.773827 
L 224.85276 119.726071 
L 225.259392 119.115544 
L 225.666023 119.023183 
L 226.479286 118.483541 
L 227.69918 118.179673 
L 228.105812 117.475911 
L 229.325706 117.288622 
L 229.732337 116.831337 
L 230.138969 117.393148 
L 230.5456 116.998662 
L 230.952232 116.812537 
L 231.358863 116.819669 
L 231.765495 117.173647 
L 232.172126 117.035068 
L 232.578758 116.731827 
L 233.39202 115.65677 
L 233.798652 115.453097 
L 234.205283 115.413285 
L 235.018546 114.632873 
L 235.425178 113.684424 
L 235.831809 113.51501 
L 236.238441 113.645789 
L 236.645072 113.379955 
L 237.051703 112.966949 
L 237.458335 112.901198 
L 237.864966 112.572326 
L 238.271598 111.698463 
L 239.084861 110.710736 
L 239.491492 110.618561 
L 239.898124 110.003213 
L 240.711386 109.431748 
L 241.524649 107.890077 
L 242.337912 107.05744 
L 242.744544 106.892884 
L 243.151175 106.558288 
L 243.557807 106.044653 
L 243.964438 106.019566 
L 244.371069 106.433902 
L 245.590964 106.609185 
L 245.997595 106.93823 
L 246.404227 107.43883 
L 246.810858 107.365086 
L 247.21749 107.845396 
L 247.624121 107.311698 
L 248.030752 107.175589 
L 249.657278 106.049297 
L 250.06391 106.127069 
L 250.470541 105.701246 
L 251.283804 105.710977 
L 251.690435 106.162362 
L 252.097067 105.391615 
L 252.91033 104.832486 
L 253.316961 105.406881 
L 253.723593 106.23251 
L 254.130224 105.944052 
L 254.536856 106.630135 
L 254.943487 107.090543 
L 255.350118 106.940738 
L 256.570013 105.740559 
L 256.976644 105.651736 
L 257.789907 105.811935 
L 258.60317 106.236679 
L 259.009801 105.902371 
L 259.416433 104.923507 
L 260.229696 103.870039 
L 260.636327 104.267025 
L 261.042959 103.848083 
L 261.44959 102.96891 
L 261.856222 102.61235 
L 262.262853 102.830922 
L 263.076116 102.325989 
L 263.482747 102.709583 
L 263.889379 101.848482 
L 264.29601 101.699089 
L 264.702642 101.231242 
L 265.109273 101.321826 
L 265.515905 101.558392 
L 265.922536 103.118811 
L 266.735799 102.288805 
L 267.14243 102.575301 
L 267.549062 102.211773 
L 267.955693 102.500727 
L 268.362325 102.307835 
L 269.175588 101.722372 
L 269.582219 101.602523 
L 270.395482 100.190423 
L 270.802113 100.595081 
L 271.208745 100.508754 
L 272.022008 100.772365 
L 272.835271 100.032025 
L 273.241902 99.488201 
L 273.648533 100.192038 
L 274.055165 100.637482 
L 274.461796 100.498696 
L 274.868428 99.86993 
L 275.275059 99.818473 
L 276.494954 97.804866 
L 276.901585 96.56527 
L 277.308216 96.636667 
L 277.714848 95.857843 
L 278.528111 93.399126 
L 278.934742 93.152232 
L 279.341374 92.478077 
L 279.748005 91.185148 
L 280.154637 90.375484 
L 280.561268 89.980631 
L 280.967899 88.967237 
L 281.374531 89.020537 
L 281.781162 88.171482 
L 282.187794 88.614146 
L 282.594425 88.064094 
L 283.001057 87.903028 
L 283.407688 87.343028 
L 283.81432 87.259 
L 284.220951 86.066956 
L 284.627582 85.858322 
L 285.034214 86.304157 
L 285.847477 84.951252 
L 286.254108 84.09833 
L 286.66074 83.535948 
L 287.067371 83.529882 
L 287.474003 84.107756 
L 288.287265 83.013997 
L 289.100528 82.493491 
L 289.50716 82.01006 
L 289.913791 82.983403 
L 290.320423 82.962921 
L 290.727054 84.398925 
L 291.133686 84.876098 
L 291.540317 84.537881 
L 291.946948 83.995313 
L 292.35358 83.646302 
L 293.166843 81.44089 
L 293.573474 81.548128 
L 293.980106 82.817639 
L 294.386737 82.294168 
L 294.793369 80.232804 
L 295.2 79.621922 
L 295.606631 80.232804 
L 296.013263 80.301486 
L 296.419894 79.265097 
L 297.233157 79.288366 
L 297.639789 79.531402 
L 298.04642 80.409378 
L 298.453052 80.553013 
L 298.859683 78.939173 
L 299.672946 78.267933 
L 300.079577 77.329557 
L 300.486209 75.55237 
L 300.89284 74.436557 
L 301.299472 74.294192 
L 301.706103 73.914843 
L 302.112735 74.33298 
L 302.519366 74.108101 
L 302.925997 73.600128 
L 303.332629 72.525935 
L 303.73926 72.820697 
L 304.145892 72.572948 
L 304.552523 72.078964 
L 304.959155 70.216057 
L 305.365786 71.368042 
L 305.772418 70.808635 
L 306.179049 71.369813 
L 306.58568 73.915397 
L 306.992312 73.011857 
L 307.398943 76.838129 
L 307.805575 76.490815 
L 308.212206 75.460141 
L 308.618838 75.257761 
L 309.025469 74.918005 
L 309.432101 73.994602 
L 309.838732 73.580055 
L 310.245363 72.136389 
L 310.651995 71.620057 
L 311.058626 71.526461 
L 311.465258 71.143328 
L 311.871889 71.143328 
L 312.278521 69.788703 
L 312.685152 67.815862 
L 313.091784 69.209148 
L 313.498415 67.386407 
L 313.905046 66.718715 
L 314.311678 67.293621 
L 315.124941 66.095134 
L 315.531572 64.773653 
L 315.938204 64.560373 
L 316.344835 63.823363 
L 316.751467 65.28209 
L 317.564729 65.182062 
L 317.971361 65.644607 
L 318.377992 65.723654 
L 318.784624 64.778891 
L 319.191255 65.459767 
L 319.597887 64.325171 
L 320.004518 63.867241 
L 320.41115 65.81636 
L 320.817781 65.759249 
L 321.224412 64.203157 
L 321.631044 64.295803 
L 322.037675 64.060513 
L 322.444307 63.958225 
L 322.850938 65.062992 
L 323.25757 64.667077 
L 323.664201 63.400874 
L 324.477464 61.869727 
L 325.697358 60.365276 
L 326.10399 59.855455 
L 326.510621 59.847467 
L 326.917253 62.53216 
L 327.323884 60.929302 
L 327.730516 60.019141 
L 328.137147 60.926127 
L 328.543778 61.450085 
L 328.95041 62.245742 
L 329.357041 61.320617 
L 329.763673 60.049763 
L 330.170304 60.049763 
L 330.576936 58.829205 
L 330.983567 56.478483 
L 331.390199 55.634355 
L 331.79683 56.094974 
L 332.203461 55.953351 
L 332.610093 54.19121 
L 333.016724 53.315102 
L 333.829987 50.938375 
L 334.236619 50.63707 
L 334.64325 51.256033 
L 335.049882 49.725477 
L 336.676407 47.047999 
L 337.083039 48.136352 
L 337.896302 45.54347 
L 338.302933 45.461325 
L 338.709565 46.538515 
L 339.116196 45.118863 
L 339.522827 44.443636 
L 340.33609 48.460607 
L 340.742722 49.125767 
L 341.149353 48.026346 
L 341.555985 50.812413 
L 341.962616 51.762632 
L 342.369248 51.423018 
L 342.775879 49.966035 
L 343.18251 52.235692 
L 343.589142 52.880577 
L 343.995773 53.977361 
L 344.402405 53.977361 
L 345.215668 52.483497 
L 345.622299 52.483497 
L 346.435562 51.696619 
L 346.842193 56.546278 
L 347.248825 56.062959 
L 347.655456 55.255591 
L 348.062088 58.375771 
L 348.468719 59.158737 
L 348.875351 58.352362 
L 349.281982 59.14178 
L 350.095245 57.845512 
L 350.501876 57.845512 
L 350.908508 58.094881 
L 351.315139 59.349907 
L 351.721771 61.372583 
L 352.128402 60.154874 
L 353.348297 58.823216 
L 353.754928 58.053481 
L 354.161559 59.266992 
L 354.568191 59.835302 
L 354.974822 58.856875 
L 355.381454 62.459758 
L 355.788085 61.581002 
L 356.194717 62.765259 
L 356.601348 62.275229 
L 357.00798 62.681312 
L 357.414611 62.285426 
L 358.227874 60.178032 
L 358.634505 60.178032 
L 359.041137 61.086262 
L 359.447768 60.577464 
L 359.8544 59.44798 
L 360.261031 59.847467 
L 360.667663 59.43109 
L 361.074294 61.291961 
L 361.887557 62.979052 
L 362.294188 62.140493 
L 362.70082 62.140493 
L 363.107451 62.680314 
L 363.514083 62.574515 
L 363.920714 59.560623 
L 364.327346 60.095115 
L 364.733977 60.095115 
L 365.140608 60.967972 
L 365.54724 63.728192 
L 365.953871 63.181994 
L 366.360503 65.54337 
L 366.767134 64.667077 
L 367.173766 65.369042 
L 367.580397 69.7328 
L 367.987029 69.934867 
L 368.39366 71.239273 
L 368.800291 70.801687 
L 369.206923 70.801687 
L 369.613554 69.808879 
L 370.020186 69.697856 
L 370.426817 69.140588 
L 370.833449 69.140588 
L 371.24008 71.684845 
L 372.053343 69.661252 
L 372.459974 68.861262 
L 372.866606 68.861262 
L 373.679869 68.053814 
L 374.0865 67.004542 
L 374.493132 67.897779 
L 374.899763 67.897779 
L 375.306395 65.997644 
L 375.713026 67.140096 
L 376.119657 70.296503 
L 376.526289 72.432549 
L 377.339552 69.907134 
L 377.746183 69.417555 
L 378.152815 68.056748 
L 378.966078 67.053523 
L 379.77934 65.011973 
L 380.185972 64.364189 
L 381.405866 63.186155 
L 381.812498 63.186155 
L 382.219129 62.125828 
L 382.625761 59.830375 
L 383.032392 59.830375 
L 383.439024 58.313623 
L 383.845655 62.423156 
L 384.252286 60.77207 
L 384.658918 62.024021 
L 385.065549 62.024021 
L 385.472181 60.90717 
L 385.878812 60.766588 
L 386.285444 61.187679 
L 386.692075 62.472887 
L 387.098707 61.187679 
L 387.505338 63.348452 
L 387.911969 63.348452 
L 388.318601 61.478795 
L 388.725232 61.478795 
L 389.131864 60.895623 
L 389.538495 60.895623 
L 389.945127 60.749241 
L 390.351758 66.213476 
L 390.75839 64.618314 
L 391.165021 64.618314 
L 391.571652 64.325171 
L 391.978284 62.993956 
L 392.384915 62.993956 
L 392.791547 67.238806 
L 393.198178 66.651968 
L 393.60481 66.880163 
L 394.011441 67.716034 
L 394.824704 65.131199 
L 395.637967 63.731492 
L 396.044598 61.83041 
L 396.45123 61.83041 
L 396.857861 62.326619 
L 397.264493 62.326619 
L 397.671124 61.840262 
L 398.077756 65.957617 
L 398.484387 65.957617 
L 398.891018 67.163305 
L 399.29765 67.163305 
L 399.704281 68.71244 
L 400.924176 82.221921 
L 401.330807 82.221921 
L 401.737439 82.56542 
L 402.14407 82.452559 
L 402.957333 87.111255 
L 403.363964 87.111255 
L 403.770596 85.876155 
L 404.177227 88.326982 
L 404.99049 86.930307 
L 405.397122 86.930307 
L 405.803753 89.726481 
L 406.617016 88.640198 
L 407.023647 97.150963 
L 407.430279 97.150963 
L 407.83691 96.554397 
L 408.243542 95.194005 
L 408.650173 97.183962 
L 409.056805 99.808629 
L 409.463436 99.808629 
L 410.276699 103.359027 
L 410.68333 112.294158 
L 411.089962 111.729714 
L 411.496593 111.729714 
L 411.903225 111.017218 
L 412.309856 111.017218 
L 412.716488 123.031665 
L 413.52975 123.031665 
L 413.936382 125.401208 
L 414.343013 124.746241 
L 414.749645 127.68458 
L 415.156276 127.68458 
L 415.562908 127.166203 
L 415.969539 133.517939 
L 416.376171 132.393214 
L 416.782802 132.393214 
L 417.189433 134.821446 
L 418.002696 133.813982 
L 418.409328 136.93023 
L 419.629222 136.93023 
L 420.035854 140.437434 
L 420.442485 140.437434 
L 420.849116 146.343335 
L 421.662379 146.2285 
L 422.475642 146.2285 
L 422.882274 145.766389 
L 423.288905 148.570511 
L 423.695537 148.570511 
L 424.102168 151.318205 
L 424.508799 150.869264 
L 424.915431 150.869264 
L 425.322062 150.415863 
L 425.728694 150.415863 
L 426.135325 153.797867 
L 426.541957 153.354613 
L 427.35522 153.354613 
L 428.168482 153.243103 
L 428.575114 155.915946 
L 428.981745 155.915946 
L 429.388377 161.808592 
L 430.20164 161.808592 
L 430.608271 165.423496 
L 431.014903 165.018784 
L 431.828165 164.916938 
L 432.641428 164.092378 
L 433.04806 164.092378 
L 433.454691 180.104516 
L 433.861323 180.104516 
L 434.267954 196.27129 
L 434.674586 195.958568 
L 435.081217 195.832282 
L 435.487848 199.574349 
L 435.89448 199.574349 
L 436.301111 207.893414 
L 436.707743 211.876878 
L 437.114374 211.706034 
L 437.521006 215.790079 
L 438.7409 215.790079 
L 439.147531 220.05189 
L 439.960794 220.05189 
L 440.367426 224.3629 
L 440.774057 224.3629 
L 441.180689 228.645761 
L 448.093423 228.546712 
L 448.500055 233.0164 
L 450.939843 233.0164 
L 451.346475 237.532477 
L 453.379632 237.504988 
L 453.786263 242.116364 
L 498.109091 242.116364 
L 498.109091 242.116364 
" style="fill:none;stroke:#1f77b4;stroke-linecap:square;stroke-width:1.5;"/>
   </g>
   <g id="patch_3">
    <path d="M 72 252 
L 72 34.56 
" style="fill:none;stroke:#000000;stroke-linecap:square;stroke-linejoin:miter;stroke-width:0.8;"/>
   </g>
   <g id="patch_4">
    <path d="M 518.4 252 
L 518.4 34.56 
" style="fill:none;stroke:#000000;stroke-linecap:square;stroke-linejoin:miter;stroke-width:0.8;"/>
   </g>
   <g id="patch_5">
    <path d="M 72 252 
L 518.4 252 
" style="fill:none;stroke:#000000;stroke-linecap:square;stroke-linejoin:miter;stroke-width:0.8;"/>
   </g>
   <g id="patch_6">
    <path d="M 72 34.56 
L 518.4 34.56 
" style="fill:none;stroke:#000000;stroke-linecap:square;stroke-linejoin:miter;stroke-width:0.8;"/>
   </g>
   <g id="text_16">
    <!-- CUAUHTEMOC -->
    <g transform="translate(266.44375 28.56)scale(0.08 -0.08)">
     <defs>
      <path d="M 4122 4306 
L 4122 3641 
Q 3803 3938 3442 4084 
Q 3081 4231 2675 4231 
Q 1875 4231 1450 3742 
Q 1025 3253 1025 2328 
Q 1025 1406 1450 917 
Q 1875 428 2675 428 
Q 3081 428 3442 575 
Q 3803 722 4122 1019 
L 4122 359 
Q 3791 134 3420 21 
Q 3050 -91 2638 -91 
Q 1578 -91 968 557 
Q 359 1206 359 2328 
Q 359 3453 968 4101 
Q 1578 4750 2638 4750 
Q 3056 4750 3426 4639 
Q 3797 4528 4122 4306 
z
" id="DejaVuSans-43" transform="scale(0.015625)"/>
      <path d="M 556 4666 
L 1191 4666 
L 1191 1831 
Q 1191 1081 1462 751 
Q 1734 422 2344 422 
Q 2950 422 3222 751 
Q 3494 1081 3494 1831 
L 3494 4666 
L 4128 4666 
L 4128 1753 
Q 4128 841 3676 375 
Q 3225 -91 2344 -91 
Q 1459 -91 1007 375 
Q 556 841 556 1753 
L 556 4666 
z
" id="DejaVuSans-55" transform="scale(0.015625)"/>
      <path d="M 2188 4044 
L 1331 1722 
L 3047 1722 
L 2188 4044 
z
M 1831 4666 
L 2547 4666 
L 4325 0 
L 3669 0 
L 3244 1197 
L 1141 1197 
L 716 0 
L 50 0 
L 1831 4666 
z
" id="DejaVuSans-41" transform="scale(0.015625)"/>
      <path d="M 628 4666 
L 1259 4666 
L 1259 2753 
L 3553 2753 
L 3553 4666 
L 4184 4666 
L 4184 0 
L 3553 0 
L 3553 2222 
L 1259 2222 
L 1259 0 
L 628 0 
L 628 4666 
z
" id="DejaVuSans-48" transform="scale(0.015625)"/>
      <path d="M 628 4666 
L 3578 4666 
L 3578 4134 
L 1259 4134 
L 1259 2753 
L 3481 2753 
L 3481 2222 
L 1259 2222 
L 1259 531 
L 3634 531 
L 3634 0 
L 628 0 
L 628 4666 
z
" id="DejaVuSans-45" transform="scale(0.015625)"/>
      <path d="M 628 4666 
L 1569 4666 
L 2759 1491 
L 3956 4666 
L 4897 4666 
L 4897 0 
L 4281 0 
L 4281 4097 
L 3078 897 
L 2444 897 
L 1241 4097 
L 1241 0 
L 628 0 
L 628 4666 
z
" id="DejaVuSans-4d" transform="scale(0.015625)"/>
      <path d="M 2522 4238 
Q 1834 4238 1429 3725 
Q 1025 3213 1025 2328 
Q 1025 1447 1429 934 
Q 1834 422 2522 422 
Q 3209 422 3611 934 
Q 4013 1447 4013 2328 
Q 4013 3213 3611 3725 
Q 3209 4238 2522 4238 
z
M 2522 4750 
Q 3503 4750 4090 4092 
Q 4678 3434 4678 2328 
Q 4678 1225 4090 567 
Q 3503 -91 2522 -91 
Q 1538 -91 948 565 
Q 359 1222 359 2328 
Q 359 3434 948 4092 
Q 1538 4750 2522 4750 
z
" id="DejaVuSans-4f" transform="scale(0.015625)"/>
     </defs>
     <use xlink:href="#DejaVuSans-43"/>
     <use x="69.824219" xlink:href="#DejaVuSans-55"/>
     <use x="143.017578" xlink:href="#DejaVuSans-41"/>
     <use x="211.425781" xlink:href="#DejaVuSans-55"/>
     <use x="284.619141" xlink:href="#DejaVuSans-48"/>
     <use x="359.814453" xlink:href="#DejaVuSans-54"/>
     <use x="420.898438" xlink:href="#DejaVuSans-45"/>
     <use x="484.082031" xlink:href="#DejaVuSans-4d"/>
     <use x="570.361328" xlink:href="#DejaVuSans-4f"/>
     <use x="649.072266" xlink:href="#DejaVuSans-43"/>
    </g>
   </g>
  </g>
  <g id="text_17">
   <!-- F1 score curve -->
   <g transform="translate(229.31625 17.9175)scale(0.16 -0.16)">
    <defs>
     <path d="M 544 1381 
L 544 3500 
L 1119 3500 
L 1119 1403 
Q 1119 906 1312 657 
Q 1506 409 1894 409 
Q 2359 409 2629 706 
Q 2900 1003 2900 1516 
L 2900 3500 
L 3475 3500 
L 3475 0 
L 2900 0 
L 2900 538 
Q 2691 219 2414 64 
Q 2138 -91 1772 -91 
Q 1169 -91 856 284 
Q 544 659 544 1381 
z
M 1991 3584 
L 1991 3584 
z
" id="DejaVuSans-75" transform="scale(0.015625)"/>
     <path d="M 191 3500 
L 800 3500 
L 1894 563 
L 2988 3500 
L 3597 3500 
L 2284 0 
L 1503 0 
L 191 3500 
z
" id="DejaVuSans-76" transform="scale(0.015625)"/>
    </defs>
    <use xlink:href="#DejaVuSans-46"/>
    <use x="57.519531" xlink:href="#DejaVuSans-31"/>
    <use x="121.142578" xlink:href="#DejaVuSans-20"/>
    <use x="152.929688" xlink:href="#DejaVuSans-73"/>
    <use x="205.029297" xlink:href="#DejaVuSans-63"/>
    <use x="260.009766" xlink:href="#DejaVuSans-6f"/>
    <use x="321.191406" xlink:href="#DejaVuSans-72"/>
    <use x="360.054688" xlink:href="#DejaVuSans-65"/>
    <use x="421.578125" xlink:href="#DejaVuSans-20"/>
    <use x="453.365234" xlink:href="#DejaVuSans-63"/>
    <use x="508.345703" xlink:href="#DejaVuSans-75"/>
    <use x="571.724609" xlink:href="#DejaVuSans-72"/>
    <use x="612.837891" xlink:href="#DejaVuSans-76"/>
    <use x="672.017578" xlink:href="#DejaVuSans-65"/>
   </g>
  </g>
 </g>
 <defs>
  <clipPath id="p2e2a004762">
   <rect height="217.44" width="446.4" x="72" y="34.56"/>
  </clipPath>
 </defs>
</svg>
