<?xml version="1.0" encoding="utf-8" standalone="no"?>
<!DOCTYPE svg PUBLIC "-//W3C//DTD SVG 1.1//EN"
  "http://www.w3.org/Graphics/SVG/1.1/DTD/svg11.dtd">
<svg height="288pt" version="1.1" viewBox="0 0 576 288" width="576pt" xmlns="http://www.w3.org/2000/svg" xmlns:xlink="http://www.w3.org/1999/xlink">
 <metadata>
  <rdf:RDF xmlns:cc="http://creativecommons.org/ns#" xmlns:dc="http://purl.org/dc/elements/1.1/" xmlns:rdf="http://www.w3.org/1999/02/22-rdf-syntax-ns#">
   <cc:Work>
    <dc:type rdf:resource="http://purl.org/dc/dcmitype/StillImage"/>
    <dc:date>2022-01-04T20:34:50.047419</dc:date>
    <dc:format>image/svg+xml</dc:format>
    <dc:creator>
     <cc:Agent>
      <dc:title>Matplotlib v3.4.3, https://matplotlib.org/</dc:title>
     </cc:Agent>
    </dc:creator>
   </cc:Work>
  </rdf:RDF>
 </metadata>
 <defs>
  <style type="text/css">*{stroke-linecap:butt;stroke-linejoin:round;}</style>
 </defs>
 <g id="figure_1">
  <g id="patch_1">
   <path d="M 0 288 
L 576 288 
L 576 0 
L 0 0 
z
" style="fill:none;"/>
  </g>
  <g id="axes_1">
   <g id="patch_2">
    <path d="M 72 252 
L 518.4 252 
L 518.4 34.56 
L 72 34.56 
z
" style="fill:#ffffff;"/>
   </g>
   <g id="matplotlib.axis_1">
    <g id="xtick_1">
     <g id="line2d_1">
      <defs>
       <path d="M 0 0 
L 0 3.5 
" id="mb789426c6a" style="stroke:#000000;stroke-width:0.8;"/>
      </defs>
      <g>
       <use style="stroke:#000000;stroke-width:0.8;" x="91.884278" xlink:href="#mb789426c6a" y="252"/>
      </g>
     </g>
     <g id="text_1">
      <!-- 0.0 -->
      <g transform="translate(83.932715 266.598437)scale(0.1 -0.1)">
       <defs>
        <path d="M 2034 4250 
Q 1547 4250 1301 3770 
Q 1056 3291 1056 2328 
Q 1056 1369 1301 889 
Q 1547 409 2034 409 
Q 2525 409 2770 889 
Q 3016 1369 3016 2328 
Q 3016 3291 2770 3770 
Q 2525 4250 2034 4250 
z
M 2034 4750 
Q 2819 4750 3233 4129 
Q 3647 3509 3647 2328 
Q 3647 1150 3233 529 
Q 2819 -91 2034 -91 
Q 1250 -91 836 529 
Q 422 1150 422 2328 
Q 422 3509 836 4129 
Q 1250 4750 2034 4750 
z
" id="DejaVuSans-30" transform="scale(0.015625)"/>
        <path d="M 684 794 
L 1344 794 
L 1344 0 
L 684 0 
L 684 794 
z
" id="DejaVuSans-2e" transform="scale(0.015625)"/>
       </defs>
       <use xlink:href="#DejaVuSans-30"/>
       <use x="63.623047" xlink:href="#DejaVuSans-2e"/>
       <use x="95.410156" xlink:href="#DejaVuSans-30"/>
      </g>
     </g>
    </g>
    <g id="xtick_2">
     <g id="line2d_2">
      <g>
       <use style="stroke:#000000;stroke-width:0.8;" x="173.210567" xlink:href="#mb789426c6a" y="252"/>
      </g>
     </g>
     <g id="text_2">
      <!-- 0.2 -->
      <g transform="translate(165.259004 266.598437)scale(0.1 -0.1)">
       <defs>
        <path d="M 1228 531 
L 3431 531 
L 3431 0 
L 469 0 
L 469 531 
Q 828 903 1448 1529 
Q 2069 2156 2228 2338 
Q 2531 2678 2651 2914 
Q 2772 3150 2772 3378 
Q 2772 3750 2511 3984 
Q 2250 4219 1831 4219 
Q 1534 4219 1204 4116 
Q 875 4013 500 3803 
L 500 4441 
Q 881 4594 1212 4672 
Q 1544 4750 1819 4750 
Q 2544 4750 2975 4387 
Q 3406 4025 3406 3419 
Q 3406 3131 3298 2873 
Q 3191 2616 2906 2266 
Q 2828 2175 2409 1742 
Q 1991 1309 1228 531 
z
" id="DejaVuSans-32" transform="scale(0.015625)"/>
       </defs>
       <use xlink:href="#DejaVuSans-30"/>
       <use x="63.623047" xlink:href="#DejaVuSans-2e"/>
       <use x="95.410156" xlink:href="#DejaVuSans-32"/>
      </g>
     </g>
    </g>
    <g id="xtick_3">
     <g id="line2d_3">
      <g>
       <use style="stroke:#000000;stroke-width:0.8;" x="254.536856" xlink:href="#mb789426c6a" y="252"/>
      </g>
     </g>
     <g id="text_3">
      <!-- 0.4 -->
      <g transform="translate(246.585293 266.598437)scale(0.1 -0.1)">
       <defs>
        <path d="M 2419 4116 
L 825 1625 
L 2419 1625 
L 2419 4116 
z
M 2253 4666 
L 3047 4666 
L 3047 1625 
L 3713 1625 
L 3713 1100 
L 3047 1100 
L 3047 0 
L 2419 0 
L 2419 1100 
L 313 1100 
L 313 1709 
L 2253 4666 
z
" id="DejaVuSans-34" transform="scale(0.015625)"/>
       </defs>
       <use xlink:href="#DejaVuSans-30"/>
       <use x="63.623047" xlink:href="#DejaVuSans-2e"/>
       <use x="95.410156" xlink:href="#DejaVuSans-34"/>
      </g>
     </g>
    </g>
    <g id="xtick_4">
     <g id="line2d_4">
      <g>
       <use style="stroke:#000000;stroke-width:0.8;" x="335.863144" xlink:href="#mb789426c6a" y="252"/>
      </g>
     </g>
     <g id="text_4">
      <!-- 0.6 -->
      <g transform="translate(327.911582 266.598437)scale(0.1 -0.1)">
       <defs>
        <path d="M 2113 2584 
Q 1688 2584 1439 2293 
Q 1191 2003 1191 1497 
Q 1191 994 1439 701 
Q 1688 409 2113 409 
Q 2538 409 2786 701 
Q 3034 994 3034 1497 
Q 3034 2003 2786 2293 
Q 2538 2584 2113 2584 
z
M 3366 4563 
L 3366 3988 
Q 3128 4100 2886 4159 
Q 2644 4219 2406 4219 
Q 1781 4219 1451 3797 
Q 1122 3375 1075 2522 
Q 1259 2794 1537 2939 
Q 1816 3084 2150 3084 
Q 2853 3084 3261 2657 
Q 3669 2231 3669 1497 
Q 3669 778 3244 343 
Q 2819 -91 2113 -91 
Q 1303 -91 875 529 
Q 447 1150 447 2328 
Q 447 3434 972 4092 
Q 1497 4750 2381 4750 
Q 2619 4750 2861 4703 
Q 3103 4656 3366 4563 
z
" id="DejaVuSans-36" transform="scale(0.015625)"/>
       </defs>
       <use xlink:href="#DejaVuSans-30"/>
       <use x="63.623047" xlink:href="#DejaVuSans-2e"/>
       <use x="95.410156" xlink:href="#DejaVuSans-36"/>
      </g>
     </g>
    </g>
    <g id="xtick_5">
     <g id="line2d_5">
      <g>
       <use style="stroke:#000000;stroke-width:0.8;" x="417.189433" xlink:href="#mb789426c6a" y="252"/>
      </g>
     </g>
     <g id="text_5">
      <!-- 0.8 -->
      <g transform="translate(409.237871 266.598437)scale(0.1 -0.1)">
       <defs>
        <path d="M 2034 2216 
Q 1584 2216 1326 1975 
Q 1069 1734 1069 1313 
Q 1069 891 1326 650 
Q 1584 409 2034 409 
Q 2484 409 2743 651 
Q 3003 894 3003 1313 
Q 3003 1734 2745 1975 
Q 2488 2216 2034 2216 
z
M 1403 2484 
Q 997 2584 770 2862 
Q 544 3141 544 3541 
Q 544 4100 942 4425 
Q 1341 4750 2034 4750 
Q 2731 4750 3128 4425 
Q 3525 4100 3525 3541 
Q 3525 3141 3298 2862 
Q 3072 2584 2669 2484 
Q 3125 2378 3379 2068 
Q 3634 1759 3634 1313 
Q 3634 634 3220 271 
Q 2806 -91 2034 -91 
Q 1263 -91 848 271 
Q 434 634 434 1313 
Q 434 1759 690 2068 
Q 947 2378 1403 2484 
z
M 1172 3481 
Q 1172 3119 1398 2916 
Q 1625 2713 2034 2713 
Q 2441 2713 2670 2916 
Q 2900 3119 2900 3481 
Q 2900 3844 2670 4047 
Q 2441 4250 2034 4250 
Q 1625 4250 1398 4047 
Q 1172 3844 1172 3481 
z
" id="DejaVuSans-38" transform="scale(0.015625)"/>
       </defs>
       <use xlink:href="#DejaVuSans-30"/>
       <use x="63.623047" xlink:href="#DejaVuSans-2e"/>
       <use x="95.410156" xlink:href="#DejaVuSans-38"/>
      </g>
     </g>
    </g>
    <g id="xtick_6">
     <g id="line2d_6">
      <g>
       <use style="stroke:#000000;stroke-width:0.8;" x="498.515722" xlink:href="#mb789426c6a" y="252"/>
      </g>
     </g>
     <g id="text_6">
      <!-- 1.0 -->
      <g transform="translate(490.56416 266.598437)scale(0.1 -0.1)">
       <defs>
        <path d="M 794 531 
L 1825 531 
L 1825 4091 
L 703 3866 
L 703 4441 
L 1819 4666 
L 2450 4666 
L 2450 531 
L 3481 531 
L 3481 0 
L 794 0 
L 794 531 
z
" id="DejaVuSans-31" transform="scale(0.015625)"/>
       </defs>
       <use xlink:href="#DejaVuSans-31"/>
       <use x="63.623047" xlink:href="#DejaVuSans-2e"/>
       <use x="95.410156" xlink:href="#DejaVuSans-30"/>
      </g>
     </g>
    </g>
    <g id="text_7">
     <!-- Thresholds -->
     <g transform="translate(267.957031 280.276563)scale(0.1 -0.1)">
      <defs>
       <path d="M -19 4666 
L 3928 4666 
L 3928 4134 
L 2272 4134 
L 2272 0 
L 1638 0 
L 1638 4134 
L -19 4134 
L -19 4666 
z
" id="DejaVuSans-54" transform="scale(0.015625)"/>
       <path d="M 3513 2113 
L 3513 0 
L 2938 0 
L 2938 2094 
Q 2938 2591 2744 2837 
Q 2550 3084 2163 3084 
Q 1697 3084 1428 2787 
Q 1159 2491 1159 1978 
L 1159 0 
L 581 0 
L 581 4863 
L 1159 4863 
L 1159 2956 
Q 1366 3272 1645 3428 
Q 1925 3584 2291 3584 
Q 2894 3584 3203 3211 
Q 3513 2838 3513 2113 
z
" id="DejaVuSans-68" transform="scale(0.015625)"/>
       <path d="M 2631 2963 
Q 2534 3019 2420 3045 
Q 2306 3072 2169 3072 
Q 1681 3072 1420 2755 
Q 1159 2438 1159 1844 
L 1159 0 
L 581 0 
L 581 3500 
L 1159 3500 
L 1159 2956 
Q 1341 3275 1631 3429 
Q 1922 3584 2338 3584 
Q 2397 3584 2469 3576 
Q 2541 3569 2628 3553 
L 2631 2963 
z
" id="DejaVuSans-72" transform="scale(0.015625)"/>
       <path d="M 3597 1894 
L 3597 1613 
L 953 1613 
Q 991 1019 1311 708 
Q 1631 397 2203 397 
Q 2534 397 2845 478 
Q 3156 559 3463 722 
L 3463 178 
Q 3153 47 2828 -22 
Q 2503 -91 2169 -91 
Q 1331 -91 842 396 
Q 353 884 353 1716 
Q 353 2575 817 3079 
Q 1281 3584 2069 3584 
Q 2775 3584 3186 3129 
Q 3597 2675 3597 1894 
z
M 3022 2063 
Q 3016 2534 2758 2815 
Q 2500 3097 2075 3097 
Q 1594 3097 1305 2825 
Q 1016 2553 972 2059 
L 3022 2063 
z
" id="DejaVuSans-65" transform="scale(0.015625)"/>
       <path d="M 2834 3397 
L 2834 2853 
Q 2591 2978 2328 3040 
Q 2066 3103 1784 3103 
Q 1356 3103 1142 2972 
Q 928 2841 928 2578 
Q 928 2378 1081 2264 
Q 1234 2150 1697 2047 
L 1894 2003 
Q 2506 1872 2764 1633 
Q 3022 1394 3022 966 
Q 3022 478 2636 193 
Q 2250 -91 1575 -91 
Q 1294 -91 989 -36 
Q 684 19 347 128 
L 347 722 
Q 666 556 975 473 
Q 1284 391 1588 391 
Q 1994 391 2212 530 
Q 2431 669 2431 922 
Q 2431 1156 2273 1281 
Q 2116 1406 1581 1522 
L 1381 1569 
Q 847 1681 609 1914 
Q 372 2147 372 2553 
Q 372 3047 722 3315 
Q 1072 3584 1716 3584 
Q 2034 3584 2315 3537 
Q 2597 3491 2834 3397 
z
" id="DejaVuSans-73" transform="scale(0.015625)"/>
       <path d="M 1959 3097 
Q 1497 3097 1228 2736 
Q 959 2375 959 1747 
Q 959 1119 1226 758 
Q 1494 397 1959 397 
Q 2419 397 2687 759 
Q 2956 1122 2956 1747 
Q 2956 2369 2687 2733 
Q 2419 3097 1959 3097 
z
M 1959 3584 
Q 2709 3584 3137 3096 
Q 3566 2609 3566 1747 
Q 3566 888 3137 398 
Q 2709 -91 1959 -91 
Q 1206 -91 779 398 
Q 353 888 353 1747 
Q 353 2609 779 3096 
Q 1206 3584 1959 3584 
z
" id="DejaVuSans-6f" transform="scale(0.015625)"/>
       <path d="M 603 4863 
L 1178 4863 
L 1178 0 
L 603 0 
L 603 4863 
z
" id="DejaVuSans-6c" transform="scale(0.015625)"/>
       <path d="M 2906 2969 
L 2906 4863 
L 3481 4863 
L 3481 0 
L 2906 0 
L 2906 525 
Q 2725 213 2448 61 
Q 2172 -91 1784 -91 
Q 1150 -91 751 415 
Q 353 922 353 1747 
Q 353 2572 751 3078 
Q 1150 3584 1784 3584 
Q 2172 3584 2448 3432 
Q 2725 3281 2906 2969 
z
M 947 1747 
Q 947 1113 1208 752 
Q 1469 391 1925 391 
Q 2381 391 2643 752 
Q 2906 1113 2906 1747 
Q 2906 2381 2643 2742 
Q 2381 3103 1925 3103 
Q 1469 3103 1208 2742 
Q 947 2381 947 1747 
z
" id="DejaVuSans-64" transform="scale(0.015625)"/>
      </defs>
      <use xlink:href="#DejaVuSans-54"/>
      <use x="61.083984" xlink:href="#DejaVuSans-68"/>
      <use x="124.462891" xlink:href="#DejaVuSans-72"/>
      <use x="163.326172" xlink:href="#DejaVuSans-65"/>
      <use x="224.849609" xlink:href="#DejaVuSans-73"/>
      <use x="276.949219" xlink:href="#DejaVuSans-68"/>
      <use x="340.328125" xlink:href="#DejaVuSans-6f"/>
      <use x="401.509766" xlink:href="#DejaVuSans-6c"/>
      <use x="429.292969" xlink:href="#DejaVuSans-64"/>
      <use x="492.769531" xlink:href="#DejaVuSans-73"/>
     </g>
    </g>
   </g>
   <g id="matplotlib.axis_2">
    <g id="ytick_1">
     <g id="line2d_7">
      <defs>
       <path d="M 0 0 
L -3.5 0 
" id="m6d4f624b83" style="stroke:#000000;stroke-width:0.8;"/>
      </defs>
      <g>
       <use style="stroke:#000000;stroke-width:0.8;" x="72" xlink:href="#m6d4f624b83" y="242.116364"/>
      </g>
     </g>
     <g id="text_8">
      <!-- 0.00 -->
      <g transform="translate(42.734375 245.915582)scale(0.1 -0.1)">
       <use xlink:href="#DejaVuSans-30"/>
       <use x="63.623047" xlink:href="#DejaVuSans-2e"/>
       <use x="95.410156" xlink:href="#DejaVuSans-30"/>
       <use x="159.033203" xlink:href="#DejaVuSans-30"/>
      </g>
     </g>
    </g>
    <g id="ytick_2">
     <g id="line2d_8">
      <g>
       <use style="stroke:#000000;stroke-width:0.8;" x="72" xlink:href="#m6d4f624b83" y="207.343934"/>
      </g>
     </g>
     <g id="text_9">
      <!-- 0.01 -->
      <g transform="translate(42.734375 211.143153)scale(0.1 -0.1)">
       <use xlink:href="#DejaVuSans-30"/>
       <use x="63.623047" xlink:href="#DejaVuSans-2e"/>
       <use x="95.410156" xlink:href="#DejaVuSans-30"/>
       <use x="159.033203" xlink:href="#DejaVuSans-31"/>
      </g>
     </g>
    </g>
    <g id="ytick_3">
     <g id="line2d_9">
      <g>
       <use style="stroke:#000000;stroke-width:0.8;" x="72" xlink:href="#m6d4f624b83" y="172.571504"/>
      </g>
     </g>
     <g id="text_10">
      <!-- 0.02 -->
      <g transform="translate(42.734375 176.370723)scale(0.1 -0.1)">
       <use xlink:href="#DejaVuSans-30"/>
       <use x="63.623047" xlink:href="#DejaVuSans-2e"/>
       <use x="95.410156" xlink:href="#DejaVuSans-30"/>
       <use x="159.033203" xlink:href="#DejaVuSans-32"/>
      </g>
     </g>
    </g>
    <g id="ytick_4">
     <g id="line2d_10">
      <g>
       <use style="stroke:#000000;stroke-width:0.8;" x="72" xlink:href="#m6d4f624b83" y="137.799074"/>
      </g>
     </g>
     <g id="text_11">
      <!-- 0.03 -->
      <g transform="translate(42.734375 141.598293)scale(0.1 -0.1)">
       <defs>
        <path d="M 2597 2516 
Q 3050 2419 3304 2112 
Q 3559 1806 3559 1356 
Q 3559 666 3084 287 
Q 2609 -91 1734 -91 
Q 1441 -91 1130 -33 
Q 819 25 488 141 
L 488 750 
Q 750 597 1062 519 
Q 1375 441 1716 441 
Q 2309 441 2620 675 
Q 2931 909 2931 1356 
Q 2931 1769 2642 2001 
Q 2353 2234 1838 2234 
L 1294 2234 
L 1294 2753 
L 1863 2753 
Q 2328 2753 2575 2939 
Q 2822 3125 2822 3475 
Q 2822 3834 2567 4026 
Q 2313 4219 1838 4219 
Q 1578 4219 1281 4162 
Q 984 4106 628 3988 
L 628 4550 
Q 988 4650 1302 4700 
Q 1616 4750 1894 4750 
Q 2613 4750 3031 4423 
Q 3450 4097 3450 3541 
Q 3450 3153 3228 2886 
Q 3006 2619 2597 2516 
z
" id="DejaVuSans-33" transform="scale(0.015625)"/>
       </defs>
       <use xlink:href="#DejaVuSans-30"/>
       <use x="63.623047" xlink:href="#DejaVuSans-2e"/>
       <use x="95.410156" xlink:href="#DejaVuSans-30"/>
       <use x="159.033203" xlink:href="#DejaVuSans-33"/>
      </g>
     </g>
    </g>
    <g id="ytick_5">
     <g id="line2d_11">
      <g>
       <use style="stroke:#000000;stroke-width:0.8;" x="72" xlink:href="#m6d4f624b83" y="103.026645"/>
      </g>
     </g>
     <g id="text_12">
      <!-- 0.04 -->
      <g transform="translate(42.734375 106.825863)scale(0.1 -0.1)">
       <use xlink:href="#DejaVuSans-30"/>
       <use x="63.623047" xlink:href="#DejaVuSans-2e"/>
       <use x="95.410156" xlink:href="#DejaVuSans-30"/>
       <use x="159.033203" xlink:href="#DejaVuSans-34"/>
      </g>
     </g>
    </g>
    <g id="ytick_6">
     <g id="line2d_12">
      <g>
       <use style="stroke:#000000;stroke-width:0.8;" x="72" xlink:href="#m6d4f624b83" y="68.254215"/>
      </g>
     </g>
     <g id="text_13">
      <!-- 0.05 -->
      <g transform="translate(42.734375 72.053434)scale(0.1 -0.1)">
       <defs>
        <path d="M 691 4666 
L 3169 4666 
L 3169 4134 
L 1269 4134 
L 1269 2991 
Q 1406 3038 1543 3061 
Q 1681 3084 1819 3084 
Q 2600 3084 3056 2656 
Q 3513 2228 3513 1497 
Q 3513 744 3044 326 
Q 2575 -91 1722 -91 
Q 1428 -91 1123 -41 
Q 819 9 494 109 
L 494 744 
Q 775 591 1075 516 
Q 1375 441 1709 441 
Q 2250 441 2565 725 
Q 2881 1009 2881 1497 
Q 2881 1984 2565 2268 
Q 2250 2553 1709 2553 
Q 1456 2553 1204 2497 
Q 953 2441 691 2322 
L 691 4666 
z
" id="DejaVuSans-35" transform="scale(0.015625)"/>
       </defs>
       <use xlink:href="#DejaVuSans-30"/>
       <use x="63.623047" xlink:href="#DejaVuSans-2e"/>
       <use x="95.410156" xlink:href="#DejaVuSans-30"/>
       <use x="159.033203" xlink:href="#DejaVuSans-35"/>
      </g>
     </g>
    </g>
    <g id="text_14">
     <!-- F1 score -->
     <g transform="translate(36.654687 164.358906)rotate(-90)scale(0.1 -0.1)">
      <defs>
       <path d="M 628 4666 
L 3309 4666 
L 3309 4134 
L 1259 4134 
L 1259 2759 
L 3109 2759 
L 3109 2228 
L 1259 2228 
L 1259 0 
L 628 0 
L 628 4666 
z
" id="DejaVuSans-46" transform="scale(0.015625)"/>
       <path id="DejaVuSans-20" transform="scale(0.015625)"/>
       <path d="M 3122 3366 
L 3122 2828 
Q 2878 2963 2633 3030 
Q 2388 3097 2138 3097 
Q 1578 3097 1268 2742 
Q 959 2388 959 1747 
Q 959 1106 1268 751 
Q 1578 397 2138 397 
Q 2388 397 2633 464 
Q 2878 531 3122 666 
L 3122 134 
Q 2881 22 2623 -34 
Q 2366 -91 2075 -91 
Q 1284 -91 818 406 
Q 353 903 353 1747 
Q 353 2603 823 3093 
Q 1294 3584 2113 3584 
Q 2378 3584 2631 3529 
Q 2884 3475 3122 3366 
z
" id="DejaVuSans-63" transform="scale(0.015625)"/>
      </defs>
      <use xlink:href="#DejaVuSans-46"/>
      <use x="57.519531" xlink:href="#DejaVuSans-31"/>
      <use x="121.142578" xlink:href="#DejaVuSans-20"/>
      <use x="152.929688" xlink:href="#DejaVuSans-73"/>
      <use x="205.029297" xlink:href="#DejaVuSans-63"/>
      <use x="260.009766" xlink:href="#DejaVuSans-6f"/>
      <use x="321.191406" xlink:href="#DejaVuSans-72"/>
      <use x="360.054688" xlink:href="#DejaVuSans-65"/>
     </g>
    </g>
   </g>
   <g id="line2d_13">
    <path clip-path="url(#p110c09d26f)" d="M 92.290909 216.253479 
L 93.510803 216.100977 
L 102.050064 214.307846 
L 104.489852 214.029933 
L 105.709747 213.849991 
L 111.809218 212.958129 
L 113.435744 212.686248 
L 119.128584 211.899509 
L 121.161742 211.493581 
L 126.041319 210.565831 
L 127.667845 210.286818 
L 128.074476 210.702019 
L 129.294371 210.443008 
L 129.701002 210.353218 
L 130.107633 210.767554 
L 130.514265 210.590541 
L 131.734159 210.439386 
L 142.306577 208.278916 
L 144.746365 207.916924 
L 146.372891 207.640307 
L 147.186154 207.456427 
L 148.81268 207.141448 
L 150.032574 206.920972 
L 150.845837 206.669194 
L 152.472363 206.359039 
L 153.285626 206.148148 
L 157.35194 205.435907 
L 158.165203 205.183009 
L 161.418255 204.496007 
L 169.144252 203.01153 
L 169.550884 202.806001 
L 169.957515 203.384269 
L 172.803935 202.658287 
L 174.430461 202.278883 
L 175.243724 201.962614 
L 176.056987 201.783802 
L 176.87025 201.480803 
L 178.903407 200.878412 
L 179.71667 200.614742 
L 180.529933 200.48609 
L 180.936564 201.168207 
L 181.343195 201.106743 
L 181.749827 201.800503 
L 183.376353 201.504031 
L 184.189616 201.358578 
L 187.036036 200.449633 
L 187.442667 201.180362 
L 188.25593 200.956369 
L 188.662561 201.619917 
L 191.10235 201.193735 
L 191.508982 201.142732 
L 191.915613 201.862274 
L 193.94877 201.53991 
L 195.981927 201.117776 
L 196.388559 201.861178 
L 200.454873 201.159438 
L 205.741082 199.906568 
L 206.554345 199.788391 
L 208.587502 199.293174 
L 208.994134 199.245657 
L 209.807397 198.979743 
L 211.433922 198.618203 
L 213.873711 198.106201 
L 215.093605 197.932844 
L 216.3135 197.684432 
L 217.533394 197.404483 
L 217.940026 198.202728 
L 224.85276 196.716708 
L 225.259392 196.686446 
L 225.666023 196.504021 
L 228.512443 196.060165 
L 231.358863 195.242937 
L 231.765495 196.085569 
L 232.578758 195.8431 
L 235.018546 195.212426 
L 235.425178 195.186049 
L 236.238441 194.840436 
L 239.084861 194.126811 
L 240.711386 193.702248 
L 241.118018 193.688201 
L 241.931281 193.497761 
L 242.744544 193.355726 
L 244.371069 192.888326 
L 245.997595 192.50053 
L 247.624121 192.091588 
L 248.030752 191.963821 
L 248.437384 191.956285 
L 250.06391 191.461534 
L 250.877173 191.299599 
L 251.690435 190.917694 
L 252.097067 190.870535 
L 252.91033 190.569834 
L 255.350118 190.047213 
L 259.416433 188.611743 
L 260.229696 188.257808 
L 263.889379 186.949395 
L 265.515905 186.415492 
L 265.922536 187.420775 
L 267.549062 186.72561 
L 267.955693 186.641 
L 268.362325 187.747507 
L 268.768956 187.431517 
L 269.582219 187.215668 
L 270.802113 186.730915 
L 271.208745 187.840979 
L 274.868428 186.172161 
L 276.088322 185.951276 
L 277.308216 185.45298 
L 278.121479 185.278029 
L 278.934742 184.799172 
L 279.341374 185.877183 
L 280.154637 185.460674 
L 280.561268 185.133611 
L 281.781162 184.738268 
L 282.187794 184.6952 
L 283.001057 184.184258 
L 283.81432 183.76446 
L 284.220951 183.652974 
L 285.034214 183.191391 
L 285.440845 183.12323 
L 285.847477 184.252026 
L 287.067371 183.675305 
L 287.474003 183.606699 
L 287.880634 183.422959 
L 288.287265 184.58467 
L 289.50716 184.162314 
L 290.320423 183.487618 
L 291.946948 182.905253 
L 292.35358 182.893247 
L 292.760211 182.640002 
L 293.166843 183.985085 
L 296.419894 182.824635 
L 296.826526 182.514791 
L 297.639789 182.352389 
L 298.04642 184.907979 
L 298.453052 184.859671 
L 299.266314 184.359772 
L 299.672946 184.285883 
L 301.299472 183.32058 
L 302.519366 182.741374 
L 302.925997 182.427774 
L 304.145892 182.08428 
L 304.552523 181.89768 
L 304.959155 183.23257 
L 305.772418 182.783075 
L 309.025469 181.083923 
L 309.838732 180.84336 
L 310.245363 180.543562 
L 311.058626 180.110154 
L 314.718309 178.004169 
L 315.124941 177.770012 
L 316.751467 176.295575 
L 317.158098 176.131229 
L 317.564729 175.683366 
L 318.377992 175.347676 
L 320.004518 173.98786 
L 320.817781 173.741081 
L 321.224412 173.367543 
L 321.631044 174.791408 
L 322.037675 174.667876 
L 322.850938 174.151234 
L 323.25757 174.061357 
L 323.664201 175.424437 
L 324.477464 175.246306 
L 324.884095 175.049261 
L 325.290727 176.543355 
L 325.697358 176.20599 
L 326.510621 175.955176 
L 326.917253 175.792928 
L 327.730516 175.117462 
L 328.137147 174.727934 
L 328.543778 174.559603 
L 329.357041 173.570318 
L 329.763673 173.357322 
L 330.170304 173.337893 
L 330.983567 172.749875 
L 331.390199 174.519874 
L 332.203461 174.345506 
L 333.016724 173.836686 
L 333.423356 173.380165 
L 334.64325 172.734755 
L 335.456513 172.180687 
L 335.863144 172.014815 
L 336.269776 171.659712 
L 336.676407 170.960022 
L 337.083039 172.948782 
L 337.48967 172.69772 
L 337.896302 174.391607 
L 338.302933 174.143379 
L 338.709565 174.039413 
L 339.929459 173.387658 
L 340.33609 175.246306 
L 340.742722 175.038248 
L 341.555985 174.278395 
L 341.962616 173.697111 
L 342.369248 173.566582 
L 343.18251 172.795121 
L 343.589142 172.526608 
L 343.995773 171.983291 
L 344.402405 174.046354 
L 344.809036 173.576752 
L 345.215668 173.486568 
L 345.622299 173.032066 
L 346.028931 172.80255 
L 346.435562 172.315568 
L 346.842193 172.151716 
L 347.248825 171.845371 
L 348.062088 171.584052 
L 348.468719 171.344797 
L 348.875351 171.344797 
L 349.281982 171.22456 
L 350.501876 169.899479 
L 350.908508 169.749184 
L 351.315139 169.370695 
L 351.721771 171.227052 
L 352.128402 170.800914 
L 352.535034 170.036273 
L 352.941665 169.647771 
L 353.754928 169.281372 
L 354.161559 168.884667 
L 354.568191 168.75147 
L 355.381454 167.640702 
L 355.788085 167.364661 
L 356.194717 166.862598 
L 356.601348 166.609028 
L 357.00798 165.693441 
L 357.414611 165.080423 
L 358.227874 164.725691 
L 359.447768 164.367677 
L 359.8544 166.670565 
L 360.261031 166.406563 
L 360.667663 165.813226 
L 361.480925 165.54318 
L 361.887557 164.874949 
L 362.294188 163.976072 
L 362.70082 163.944703 
L 363.920714 162.895206 
L 364.327346 164.65303 
L 365.140608 163.715061 
L 365.54724 162.888043 
L 365.953871 162.6197 
L 366.360503 165.173115 
L 368.39366 164.043551 
L 369.206923 163.260439 
L 369.613554 162.28562 
L 370.020186 161.896029 
L 370.426817 161.105327 
L 370.833449 160.81392 
L 371.24008 160.224772 
L 371.646712 159.926984 
L 372.053343 159.324864 
L 372.459974 159.134888 
L 372.866606 158.790726 
L 373.273237 158.093764 
L 374.0865 157.701501 
L 374.493132 156.865711 
L 374.899763 156.502427 
L 375.713026 156.258512 
L 376.119657 159.127271 
L 376.526289 158.246538 
L 377.339552 158.20606 
L 377.746183 157.676272 
L 378.152815 157.594172 
L 378.559446 156.173631 
L 379.372709 155.832419 
L 379.77934 154.528379 
L 380.185972 153.99566 
L 380.592603 153.04764 
L 382.219129 150.898027 
L 382.625761 149.930707 
L 383.439024 149.53801 
L 383.845655 152.621638 
L 384.252286 151.944747 
L 384.658918 150.509523 
L 385.065549 150.509523 
L 385.878812 149.646744 
L 386.285444 148.975927 
L 386.692075 147.818249 
L 387.098707 147.551116 
L 387.505338 147.12054 
L 387.911969 147.066442 
L 388.318601 146.412429 
L 388.725232 144.907474 
L 389.538495 143.529439 
L 389.945127 142.410472 
L 390.75839 141.326712 
L 391.165021 139.844511 
L 391.978284 138.253475 
L 392.384915 136.6788 
L 392.791547 136.008504 
L 393.198178 134.364483 
L 393.60481 137.708285 
L 394.011441 136.88401 
L 395.231335 135.052658 
L 395.637967 133.820374 
L 396.044598 133.747003 
L 396.45123 131.727698 
L 397.264493 130.883278 
L 398.077756 127.945645 
L 398.484387 127.618742 
L 399.29765 125.78678 
L 399.704281 125.702116 
L 400.110913 125.020334 
L 400.517544 129.202201 
L 400.924176 127.252482 
L 401.330807 131.644196 
L 402.14407 130.033321 
L 402.550701 133.706606 
L 402.957333 132.683068 
L 403.363964 131.199522 
L 404.177227 130.037621 
L 404.99049 126.689211 
L 405.397122 125.917768 
L 405.803753 125.430358 
L 406.617016 123.134568 
L 407.023647 122.726047 
L 408.243542 118.590858 
L 408.650173 118.481058 
L 409.056805 123.715617 
L 409.463436 123.715617 
L 410.276699 121.113403 
L 410.68333 121.113403 
L 411.903225 116.033126 
L 412.309856 121.750261 
L 412.716488 119.750042 
L 413.123119 116.684753 
L 413.52975 115.158202 
L 414.343013 109.929725 
L 414.749645 108.518981 
L 415.562908 107.223317 
L 415.969539 104.856773 
L 416.376171 104.856773 
L 416.782802 104.100104 
L 417.189433 101.779203 
L 418.002696 100.348813 
L 418.409328 98.230447 
L 418.815959 98.064871 
L 419.222591 95.534693 
L 419.629222 95.534693 
L 420.035854 103.515823 
L 420.442485 103.515823 
L 420.849116 102.203629 
L 421.255748 109.807475 
L 421.662379 109.807475 
L 422.069011 108.536802 
L 422.475642 123.381238 
L 422.882274 121.01835 
L 423.288905 120.26054 
L 423.695537 117.6115 
L 424.508799 115.998743 
L 424.915431 115.998743 
L 425.728694 113.159008 
L 426.135325 112.299293 
L 426.541957 110.188446 
L 426.948588 108.74266 
L 427.761851 104.985655 
L 428.575114 101.82414 
L 428.981745 101.82414 
L 429.388377 100.600661 
L 430.20164 98.724901 
L 430.608271 97.23124 
L 431.014903 93.697456 
L 431.421534 93.470862 
L 431.828165 92.557526 
L 432.234797 102.165408 
L 432.641428 101.293439 
L 433.04806 101.293439 
L 433.454691 99.516494 
L 433.861323 98.611098 
L 434.267954 95.587486 
L 435.081217 92.927721 
L 435.487848 91.435835 
L 435.89448 90.424556 
L 436.301111 87.307601 
L 436.707743 87.307601 
L 437.114374 86.239954 
L 438.334269 86.239954 
L 438.7409 85.157479 
L 439.554163 80.67294 
L 439.960794 79.511476 
L 440.367426 89.549944 
L 440.774057 88.426066 
L 441.180689 86.127894 
L 441.58732 85.248259 
L 441.993952 85.248259 
L 442.400583 84.059865 
L 442.807214 84.059865 
L 443.213846 82.853327 
L 443.620477 82.548808 
L 444.43374 79.754824 
L 444.840372 78.4814 
L 445.247003 78.159917 
L 445.653635 73.862671 
L 446.060266 73.862671 
L 446.466897 72.149294 
L 446.873529 71.802422 
L 447.28016 70.75326 
L 447.686792 69.334104 
L 448.093423 68.975635 
L 449.719949 56.663405 
L 450.12658 56.663405 
L 450.533212 55.00015 
L 450.939843 68.64846 
L 451.346475 66.659149 
L 451.753106 65.850591 
L 452.159738 65.850591 
L 452.566369 65.44351 
L 452.973001 63.796211 
L 453.379632 58.664696 
L 454.599526 52.291685 
L 455.006158 52.291685 
L 455.412789 50.388681 
L 456.226052 44.443636 
L 456.632684 56.663405 
L 457.039315 89.689274 
L 457.445946 102.227278 
L 457.852578 98.935771 
L 458.259209 97.23124 
L 458.665841 91.865124 
L 459.479104 91.865124 
L 459.885735 89.986983 
L 460.292367 89.986983 
L 461.105629 86.08623 
L 461.512261 80.919669 
L 461.918892 102.093157 
L 462.325524 98.230447 
L 462.732155 98.230447 
L 463.138787 95.706133 
L 464.765312 79.120599 
L 465.171944 96.625026 
L 465.578575 96.625026 
L 465.985207 90.931886 
L 466.391838 88.256055 
L 466.79847 84.775053 
L 467.205101 78.86552 
L 467.611733 78.86552 
L 468.018364 71.663277 
L 468.424995 68.254215 
L 469.238258 68.254215 
L 469.64489 61.009959 
L 470.458153 52.103086 
L 470.864784 82.243123 
L 471.271416 82.243123 
L 471.678047 74.538389 
L 472.084678 70.400661 
L 472.49131 61.480365 
L 472.897941 149.389884 
L 473.304573 146.849433 
L 473.711204 146.849433 
L 474.117836 143.471173 
L 474.524467 143.471173 
L 474.931099 137.537628 
L 475.33773 136.745364 
L 476.557624 126.208264 
L 476.964256 182.163899 
L 478.18415 182.163899 
L 478.590782 180.022739 
L 478.997413 180.022739 
L 479.404044 177.722975 
L 480.623939 177.722975 
L 481.03057 175.246306 
L 481.437202 175.246306 
L 481.843833 172.571504 
L 482.657096 172.571504 
L 483.063727 163.088114 
L 483.470359 163.088114 
L 483.87699 149.389884 
L 484.283622 149.389884 
L 484.690253 144.165857 
L 485.096885 242.116364 
L 498.109091 242.116364 
L 498.109091 242.116364 
" style="fill:none;stroke:#1f77b4;stroke-linecap:square;stroke-width:1.5;"/>
   </g>
   <g id="patch_3">
    <path d="M 72 252 
L 72 34.56 
" style="fill:none;stroke:#000000;stroke-linecap:square;stroke-linejoin:miter;stroke-width:0.8;"/>
   </g>
   <g id="patch_4">
    <path d="M 518.4 252 
L 518.4 34.56 
" style="fill:none;stroke:#000000;stroke-linecap:square;stroke-linejoin:miter;stroke-width:0.8;"/>
   </g>
   <g id="patch_5">
    <path d="M 72 252 
L 518.4 252 
" style="fill:none;stroke:#000000;stroke-linecap:square;stroke-linejoin:miter;stroke-width:0.8;"/>
   </g>
   <g id="patch_6">
    <path d="M 72 34.56 
L 518.4 34.56 
" style="fill:none;stroke:#000000;stroke-linecap:square;stroke-linejoin:miter;stroke-width:0.8;"/>
   </g>
   <g id="text_15">
    <!-- CUAJIMALPA DE MORELOS -->
    <g transform="translate(243.245 28.56)scale(0.08 -0.08)">
     <defs>
      <path d="M 4122 4306 
L 4122 3641 
Q 3803 3938 3442 4084 
Q 3081 4231 2675 4231 
Q 1875 4231 1450 3742 
Q 1025 3253 1025 2328 
Q 1025 1406 1450 917 
Q 1875 428 2675 428 
Q 3081 428 3442 575 
Q 3803 722 4122 1019 
L 4122 359 
Q 3791 134 3420 21 
Q 3050 -91 2638 -91 
Q 1578 -91 968 557 
Q 359 1206 359 2328 
Q 359 3453 968 4101 
Q 1578 4750 2638 4750 
Q 3056 4750 3426 4639 
Q 3797 4528 4122 4306 
z
" id="DejaVuSans-43" transform="scale(0.015625)"/>
      <path d="M 556 4666 
L 1191 4666 
L 1191 1831 
Q 1191 1081 1462 751 
Q 1734 422 2344 422 
Q 2950 422 3222 751 
Q 3494 1081 3494 1831 
L 3494 4666 
L 4128 4666 
L 4128 1753 
Q 4128 841 3676 375 
Q 3225 -91 2344 -91 
Q 1459 -91 1007 375 
Q 556 841 556 1753 
L 556 4666 
z
" id="DejaVuSans-55" transform="scale(0.015625)"/>
      <path d="M 2188 4044 
L 1331 1722 
L 3047 1722 
L 2188 4044 
z
M 1831 4666 
L 2547 4666 
L 4325 0 
L 3669 0 
L 3244 1197 
L 1141 1197 
L 716 0 
L 50 0 
L 1831 4666 
z
" id="DejaVuSans-41" transform="scale(0.015625)"/>
      <path d="M 628 4666 
L 1259 4666 
L 1259 325 
Q 1259 -519 939 -900 
Q 619 -1281 -91 -1281 
L -331 -1281 
L -331 -750 
L -134 -750 
Q 284 -750 456 -515 
Q 628 -281 628 325 
L 628 4666 
z
" id="DejaVuSans-4a" transform="scale(0.015625)"/>
      <path d="M 628 4666 
L 1259 4666 
L 1259 0 
L 628 0 
L 628 4666 
z
" id="DejaVuSans-49" transform="scale(0.015625)"/>
      <path d="M 628 4666 
L 1569 4666 
L 2759 1491 
L 3956 4666 
L 4897 4666 
L 4897 0 
L 4281 0 
L 4281 4097 
L 3078 897 
L 2444 897 
L 1241 4097 
L 1241 0 
L 628 0 
L 628 4666 
z
" id="DejaVuSans-4d" transform="scale(0.015625)"/>
      <path d="M 628 4666 
L 1259 4666 
L 1259 531 
L 3531 531 
L 3531 0 
L 628 0 
L 628 4666 
z
" id="DejaVuSans-4c" transform="scale(0.015625)"/>
      <path d="M 1259 4147 
L 1259 2394 
L 2053 2394 
Q 2494 2394 2734 2622 
Q 2975 2850 2975 3272 
Q 2975 3691 2734 3919 
Q 2494 4147 2053 4147 
L 1259 4147 
z
M 628 4666 
L 2053 4666 
Q 2838 4666 3239 4311 
Q 3641 3956 3641 3272 
Q 3641 2581 3239 2228 
Q 2838 1875 2053 1875 
L 1259 1875 
L 1259 0 
L 628 0 
L 628 4666 
z
" id="DejaVuSans-50" transform="scale(0.015625)"/>
      <path d="M 1259 4147 
L 1259 519 
L 2022 519 
Q 2988 519 3436 956 
Q 3884 1394 3884 2338 
Q 3884 3275 3436 3711 
Q 2988 4147 2022 4147 
L 1259 4147 
z
M 628 4666 
L 1925 4666 
Q 3281 4666 3915 4102 
Q 4550 3538 4550 2338 
Q 4550 1131 3912 565 
Q 3275 0 1925 0 
L 628 0 
L 628 4666 
z
" id="DejaVuSans-44" transform="scale(0.015625)"/>
      <path d="M 628 4666 
L 3578 4666 
L 3578 4134 
L 1259 4134 
L 1259 2753 
L 3481 2753 
L 3481 2222 
L 1259 2222 
L 1259 531 
L 3634 531 
L 3634 0 
L 628 0 
L 628 4666 
z
" id="DejaVuSans-45" transform="scale(0.015625)"/>
      <path d="M 2522 4238 
Q 1834 4238 1429 3725 
Q 1025 3213 1025 2328 
Q 1025 1447 1429 934 
Q 1834 422 2522 422 
Q 3209 422 3611 934 
Q 4013 1447 4013 2328 
Q 4013 3213 3611 3725 
Q 3209 4238 2522 4238 
z
M 2522 4750 
Q 3503 4750 4090 4092 
Q 4678 3434 4678 2328 
Q 4678 1225 4090 567 
Q 3503 -91 2522 -91 
Q 1538 -91 948 565 
Q 359 1222 359 2328 
Q 359 3434 948 4092 
Q 1538 4750 2522 4750 
z
" id="DejaVuSans-4f" transform="scale(0.015625)"/>
      <path d="M 2841 2188 
Q 3044 2119 3236 1894 
Q 3428 1669 3622 1275 
L 4263 0 
L 3584 0 
L 2988 1197 
Q 2756 1666 2539 1819 
Q 2322 1972 1947 1972 
L 1259 1972 
L 1259 0 
L 628 0 
L 628 4666 
L 2053 4666 
Q 2853 4666 3247 4331 
Q 3641 3997 3641 3322 
Q 3641 2881 3436 2590 
Q 3231 2300 2841 2188 
z
M 1259 4147 
L 1259 2491 
L 2053 2491 
Q 2509 2491 2742 2702 
Q 2975 2913 2975 3322 
Q 2975 3731 2742 3939 
Q 2509 4147 2053 4147 
L 1259 4147 
z
" id="DejaVuSans-52" transform="scale(0.015625)"/>
      <path d="M 3425 4513 
L 3425 3897 
Q 3066 4069 2747 4153 
Q 2428 4238 2131 4238 
Q 1616 4238 1336 4038 
Q 1056 3838 1056 3469 
Q 1056 3159 1242 3001 
Q 1428 2844 1947 2747 
L 2328 2669 
Q 3034 2534 3370 2195 
Q 3706 1856 3706 1288 
Q 3706 609 3251 259 
Q 2797 -91 1919 -91 
Q 1588 -91 1214 -16 
Q 841 59 441 206 
L 441 856 
Q 825 641 1194 531 
Q 1563 422 1919 422 
Q 2459 422 2753 634 
Q 3047 847 3047 1241 
Q 3047 1584 2836 1778 
Q 2625 1972 2144 2069 
L 1759 2144 
Q 1053 2284 737 2584 
Q 422 2884 422 3419 
Q 422 4038 858 4394 
Q 1294 4750 2059 4750 
Q 2388 4750 2728 4690 
Q 3069 4631 3425 4513 
z
" id="DejaVuSans-53" transform="scale(0.015625)"/>
     </defs>
     <use xlink:href="#DejaVuSans-43"/>
     <use x="69.824219" xlink:href="#DejaVuSans-55"/>
     <use x="143.017578" xlink:href="#DejaVuSans-41"/>
     <use x="211.425781" xlink:href="#DejaVuSans-4a"/>
     <use x="240.917969" xlink:href="#DejaVuSans-49"/>
     <use x="270.410156" xlink:href="#DejaVuSans-4d"/>
     <use x="356.689453" xlink:href="#DejaVuSans-41"/>
     <use x="425.097656" xlink:href="#DejaVuSans-4c"/>
     <use x="480.810547" xlink:href="#DejaVuSans-50"/>
     <use x="534.738281" xlink:href="#DejaVuSans-41"/>
     <use x="603.146484" xlink:href="#DejaVuSans-20"/>
     <use x="634.933594" xlink:href="#DejaVuSans-44"/>
     <use x="711.935547" xlink:href="#DejaVuSans-45"/>
     <use x="775.119141" xlink:href="#DejaVuSans-20"/>
     <use x="806.90625" xlink:href="#DejaVuSans-4d"/>
     <use x="893.185547" xlink:href="#DejaVuSans-4f"/>
     <use x="971.896484" xlink:href="#DejaVuSans-52"/>
     <use x="1041.378906" xlink:href="#DejaVuSans-45"/>
     <use x="1104.5625" xlink:href="#DejaVuSans-4c"/>
     <use x="1156.650391" xlink:href="#DejaVuSans-4f"/>
     <use x="1235.361328" xlink:href="#DejaVuSans-53"/>
    </g>
   </g>
  </g>
  <g id="text_16">
   <!-- F1 score curve -->
   <g transform="translate(229.31625 17.9175)scale(0.16 -0.16)">
    <defs>
     <path d="M 544 1381 
L 544 3500 
L 1119 3500 
L 1119 1403 
Q 1119 906 1312 657 
Q 1506 409 1894 409 
Q 2359 409 2629 706 
Q 2900 1003 2900 1516 
L 2900 3500 
L 3475 3500 
L 3475 0 
L 2900 0 
L 2900 538 
Q 2691 219 2414 64 
Q 2138 -91 1772 -91 
Q 1169 -91 856 284 
Q 544 659 544 1381 
z
M 1991 3584 
L 1991 3584 
z
" id="DejaVuSans-75" transform="scale(0.015625)"/>
     <path d="M 191 3500 
L 800 3500 
L 1894 563 
L 2988 3500 
L 3597 3500 
L 2284 0 
L 1503 0 
L 191 3500 
z
" id="DejaVuSans-76" transform="scale(0.015625)"/>
    </defs>
    <use xlink:href="#DejaVuSans-46"/>
    <use x="57.519531" xlink:href="#DejaVuSans-31"/>
    <use x="121.142578" xlink:href="#DejaVuSans-20"/>
    <use x="152.929688" xlink:href="#DejaVuSans-73"/>
    <use x="205.029297" xlink:href="#DejaVuSans-63"/>
    <use x="260.009766" xlink:href="#DejaVuSans-6f"/>
    <use x="321.191406" xlink:href="#DejaVuSans-72"/>
    <use x="360.054688" xlink:href="#DejaVuSans-65"/>
    <use x="421.578125" xlink:href="#DejaVuSans-20"/>
    <use x="453.365234" xlink:href="#DejaVuSans-63"/>
    <use x="508.345703" xlink:href="#DejaVuSans-75"/>
    <use x="571.724609" xlink:href="#DejaVuSans-72"/>
    <use x="612.837891" xlink:href="#DejaVuSans-76"/>
    <use x="672.017578" xlink:href="#DejaVuSans-65"/>
   </g>
  </g>
 </g>
 <defs>
  <clipPath id="p110c09d26f">
   <rect height="217.44" width="446.4" x="72" y="34.56"/>
  </clipPath>
 </defs>
</svg>
