<?xml version="1.0" encoding="utf-8" standalone="no"?>
<!DOCTYPE svg PUBLIC "-//W3C//DTD SVG 1.1//EN"
  "http://www.w3.org/Graphics/SVG/1.1/DTD/svg11.dtd">
<svg height="288pt" version="1.1" viewBox="0 0 576 288" width="576pt" xmlns="http://www.w3.org/2000/svg" xmlns:xlink="http://www.w3.org/1999/xlink">
 <metadata>
  <rdf:RDF xmlns:cc="http://creativecommons.org/ns#" xmlns:dc="http://purl.org/dc/elements/1.1/" xmlns:rdf="http://www.w3.org/1999/02/22-rdf-syntax-ns#">
   <cc:Work>
    <dc:type rdf:resource="http://purl.org/dc/dcmitype/StillImage"/>
    <dc:date>2022-01-04T18:35:57.577605</dc:date>
    <dc:format>image/svg+xml</dc:format>
    <dc:creator>
     <cc:Agent>
      <dc:title>Matplotlib v3.4.3, https://matplotlib.org/</dc:title>
     </cc:Agent>
    </dc:creator>
   </cc:Work>
  </rdf:RDF>
 </metadata>
 <defs>
  <style type="text/css">*{stroke-linecap:butt;stroke-linejoin:round;}</style>
 </defs>
 <g id="figure_1">
  <g id="patch_1">
   <path d="M 0 288 
L 576 288 
L 576 0 
L 0 0 
z
" style="fill:none;"/>
  </g>
  <g id="axes_1">
   <g id="patch_2">
    <path d="M 72 252 
L 518.4 252 
L 518.4 34.56 
L 72 34.56 
z
" style="fill:#ffffff;"/>
   </g>
   <g id="matplotlib.axis_1">
    <g id="xtick_1">
     <g id="line2d_1">
      <defs>
       <path d="M 0 0 
L 0 3.5 
" id="m71294ed2c7" style="stroke:#000000;stroke-width:0.8;"/>
      </defs>
      <g>
       <use style="stroke:#000000;stroke-width:0.8;" x="91.884278" xlink:href="#m71294ed2c7" y="252"/>
      </g>
     </g>
     <g id="text_1">
      <!-- 0.0 -->
      <g transform="translate(83.932715 266.598437)scale(0.1 -0.1)">
       <defs>
        <path d="M 2034 4250 
Q 1547 4250 1301 3770 
Q 1056 3291 1056 2328 
Q 1056 1369 1301 889 
Q 1547 409 2034 409 
Q 2525 409 2770 889 
Q 3016 1369 3016 2328 
Q 3016 3291 2770 3770 
Q 2525 4250 2034 4250 
z
M 2034 4750 
Q 2819 4750 3233 4129 
Q 3647 3509 3647 2328 
Q 3647 1150 3233 529 
Q 2819 -91 2034 -91 
Q 1250 -91 836 529 
Q 422 1150 422 2328 
Q 422 3509 836 4129 
Q 1250 4750 2034 4750 
z
" id="DejaVuSans-30" transform="scale(0.015625)"/>
        <path d="M 684 794 
L 1344 794 
L 1344 0 
L 684 0 
L 684 794 
z
" id="DejaVuSans-2e" transform="scale(0.015625)"/>
       </defs>
       <use xlink:href="#DejaVuSans-30"/>
       <use x="63.623047" xlink:href="#DejaVuSans-2e"/>
       <use x="95.410156" xlink:href="#DejaVuSans-30"/>
      </g>
     </g>
    </g>
    <g id="xtick_2">
     <g id="line2d_2">
      <g>
       <use style="stroke:#000000;stroke-width:0.8;" x="173.210567" xlink:href="#m71294ed2c7" y="252"/>
      </g>
     </g>
     <g id="text_2">
      <!-- 0.2 -->
      <g transform="translate(165.259004 266.598437)scale(0.1 -0.1)">
       <defs>
        <path d="M 1228 531 
L 3431 531 
L 3431 0 
L 469 0 
L 469 531 
Q 828 903 1448 1529 
Q 2069 2156 2228 2338 
Q 2531 2678 2651 2914 
Q 2772 3150 2772 3378 
Q 2772 3750 2511 3984 
Q 2250 4219 1831 4219 
Q 1534 4219 1204 4116 
Q 875 4013 500 3803 
L 500 4441 
Q 881 4594 1212 4672 
Q 1544 4750 1819 4750 
Q 2544 4750 2975 4387 
Q 3406 4025 3406 3419 
Q 3406 3131 3298 2873 
Q 3191 2616 2906 2266 
Q 2828 2175 2409 1742 
Q 1991 1309 1228 531 
z
" id="DejaVuSans-32" transform="scale(0.015625)"/>
       </defs>
       <use xlink:href="#DejaVuSans-30"/>
       <use x="63.623047" xlink:href="#DejaVuSans-2e"/>
       <use x="95.410156" xlink:href="#DejaVuSans-32"/>
      </g>
     </g>
    </g>
    <g id="xtick_3">
     <g id="line2d_3">
      <g>
       <use style="stroke:#000000;stroke-width:0.8;" x="254.536856" xlink:href="#m71294ed2c7" y="252"/>
      </g>
     </g>
     <g id="text_3">
      <!-- 0.4 -->
      <g transform="translate(246.585293 266.598437)scale(0.1 -0.1)">
       <defs>
        <path d="M 2419 4116 
L 825 1625 
L 2419 1625 
L 2419 4116 
z
M 2253 4666 
L 3047 4666 
L 3047 1625 
L 3713 1625 
L 3713 1100 
L 3047 1100 
L 3047 0 
L 2419 0 
L 2419 1100 
L 313 1100 
L 313 1709 
L 2253 4666 
z
" id="DejaVuSans-34" transform="scale(0.015625)"/>
       </defs>
       <use xlink:href="#DejaVuSans-30"/>
       <use x="63.623047" xlink:href="#DejaVuSans-2e"/>
       <use x="95.410156" xlink:href="#DejaVuSans-34"/>
      </g>
     </g>
    </g>
    <g id="xtick_4">
     <g id="line2d_4">
      <g>
       <use style="stroke:#000000;stroke-width:0.8;" x="335.863144" xlink:href="#m71294ed2c7" y="252"/>
      </g>
     </g>
     <g id="text_4">
      <!-- 0.6 -->
      <g transform="translate(327.911582 266.598437)scale(0.1 -0.1)">
       <defs>
        <path d="M 2113 2584 
Q 1688 2584 1439 2293 
Q 1191 2003 1191 1497 
Q 1191 994 1439 701 
Q 1688 409 2113 409 
Q 2538 409 2786 701 
Q 3034 994 3034 1497 
Q 3034 2003 2786 2293 
Q 2538 2584 2113 2584 
z
M 3366 4563 
L 3366 3988 
Q 3128 4100 2886 4159 
Q 2644 4219 2406 4219 
Q 1781 4219 1451 3797 
Q 1122 3375 1075 2522 
Q 1259 2794 1537 2939 
Q 1816 3084 2150 3084 
Q 2853 3084 3261 2657 
Q 3669 2231 3669 1497 
Q 3669 778 3244 343 
Q 2819 -91 2113 -91 
Q 1303 -91 875 529 
Q 447 1150 447 2328 
Q 447 3434 972 4092 
Q 1497 4750 2381 4750 
Q 2619 4750 2861 4703 
Q 3103 4656 3366 4563 
z
" id="DejaVuSans-36" transform="scale(0.015625)"/>
       </defs>
       <use xlink:href="#DejaVuSans-30"/>
       <use x="63.623047" xlink:href="#DejaVuSans-2e"/>
       <use x="95.410156" xlink:href="#DejaVuSans-36"/>
      </g>
     </g>
    </g>
    <g id="xtick_5">
     <g id="line2d_5">
      <g>
       <use style="stroke:#000000;stroke-width:0.8;" x="417.189433" xlink:href="#m71294ed2c7" y="252"/>
      </g>
     </g>
     <g id="text_5">
      <!-- 0.8 -->
      <g transform="translate(409.237871 266.598437)scale(0.1 -0.1)">
       <defs>
        <path d="M 2034 2216 
Q 1584 2216 1326 1975 
Q 1069 1734 1069 1313 
Q 1069 891 1326 650 
Q 1584 409 2034 409 
Q 2484 409 2743 651 
Q 3003 894 3003 1313 
Q 3003 1734 2745 1975 
Q 2488 2216 2034 2216 
z
M 1403 2484 
Q 997 2584 770 2862 
Q 544 3141 544 3541 
Q 544 4100 942 4425 
Q 1341 4750 2034 4750 
Q 2731 4750 3128 4425 
Q 3525 4100 3525 3541 
Q 3525 3141 3298 2862 
Q 3072 2584 2669 2484 
Q 3125 2378 3379 2068 
Q 3634 1759 3634 1313 
Q 3634 634 3220 271 
Q 2806 -91 2034 -91 
Q 1263 -91 848 271 
Q 434 634 434 1313 
Q 434 1759 690 2068 
Q 947 2378 1403 2484 
z
M 1172 3481 
Q 1172 3119 1398 2916 
Q 1625 2713 2034 2713 
Q 2441 2713 2670 2916 
Q 2900 3119 2900 3481 
Q 2900 3844 2670 4047 
Q 2441 4250 2034 4250 
Q 1625 4250 1398 4047 
Q 1172 3844 1172 3481 
z
" id="DejaVuSans-38" transform="scale(0.015625)"/>
       </defs>
       <use xlink:href="#DejaVuSans-30"/>
       <use x="63.623047" xlink:href="#DejaVuSans-2e"/>
       <use x="95.410156" xlink:href="#DejaVuSans-38"/>
      </g>
     </g>
    </g>
    <g id="xtick_6">
     <g id="line2d_6">
      <g>
       <use style="stroke:#000000;stroke-width:0.8;" x="498.515722" xlink:href="#m71294ed2c7" y="252"/>
      </g>
     </g>
     <g id="text_6">
      <!-- 1.0 -->
      <g transform="translate(490.56416 266.598437)scale(0.1 -0.1)">
       <defs>
        <path d="M 794 531 
L 1825 531 
L 1825 4091 
L 703 3866 
L 703 4441 
L 1819 4666 
L 2450 4666 
L 2450 531 
L 3481 531 
L 3481 0 
L 794 0 
L 794 531 
z
" id="DejaVuSans-31" transform="scale(0.015625)"/>
       </defs>
       <use xlink:href="#DejaVuSans-31"/>
       <use x="63.623047" xlink:href="#DejaVuSans-2e"/>
       <use x="95.410156" xlink:href="#DejaVuSans-30"/>
      </g>
     </g>
    </g>
    <g id="text_7">
     <!-- Thresholds -->
     <g transform="translate(267.957031 280.276563)scale(0.1 -0.1)">
      <defs>
       <path d="M -19 4666 
L 3928 4666 
L 3928 4134 
L 2272 4134 
L 2272 0 
L 1638 0 
L 1638 4134 
L -19 4134 
L -19 4666 
z
" id="DejaVuSans-54" transform="scale(0.015625)"/>
       <path d="M 3513 2113 
L 3513 0 
L 2938 0 
L 2938 2094 
Q 2938 2591 2744 2837 
Q 2550 3084 2163 3084 
Q 1697 3084 1428 2787 
Q 1159 2491 1159 1978 
L 1159 0 
L 581 0 
L 581 4863 
L 1159 4863 
L 1159 2956 
Q 1366 3272 1645 3428 
Q 1925 3584 2291 3584 
Q 2894 3584 3203 3211 
Q 3513 2838 3513 2113 
z
" id="DejaVuSans-68" transform="scale(0.015625)"/>
       <path d="M 2631 2963 
Q 2534 3019 2420 3045 
Q 2306 3072 2169 3072 
Q 1681 3072 1420 2755 
Q 1159 2438 1159 1844 
L 1159 0 
L 581 0 
L 581 3500 
L 1159 3500 
L 1159 2956 
Q 1341 3275 1631 3429 
Q 1922 3584 2338 3584 
Q 2397 3584 2469 3576 
Q 2541 3569 2628 3553 
L 2631 2963 
z
" id="DejaVuSans-72" transform="scale(0.015625)"/>
       <path d="M 3597 1894 
L 3597 1613 
L 953 1613 
Q 991 1019 1311 708 
Q 1631 397 2203 397 
Q 2534 397 2845 478 
Q 3156 559 3463 722 
L 3463 178 
Q 3153 47 2828 -22 
Q 2503 -91 2169 -91 
Q 1331 -91 842 396 
Q 353 884 353 1716 
Q 353 2575 817 3079 
Q 1281 3584 2069 3584 
Q 2775 3584 3186 3129 
Q 3597 2675 3597 1894 
z
M 3022 2063 
Q 3016 2534 2758 2815 
Q 2500 3097 2075 3097 
Q 1594 3097 1305 2825 
Q 1016 2553 972 2059 
L 3022 2063 
z
" id="DejaVuSans-65" transform="scale(0.015625)"/>
       <path d="M 2834 3397 
L 2834 2853 
Q 2591 2978 2328 3040 
Q 2066 3103 1784 3103 
Q 1356 3103 1142 2972 
Q 928 2841 928 2578 
Q 928 2378 1081 2264 
Q 1234 2150 1697 2047 
L 1894 2003 
Q 2506 1872 2764 1633 
Q 3022 1394 3022 966 
Q 3022 478 2636 193 
Q 2250 -91 1575 -91 
Q 1294 -91 989 -36 
Q 684 19 347 128 
L 347 722 
Q 666 556 975 473 
Q 1284 391 1588 391 
Q 1994 391 2212 530 
Q 2431 669 2431 922 
Q 2431 1156 2273 1281 
Q 2116 1406 1581 1522 
L 1381 1569 
Q 847 1681 609 1914 
Q 372 2147 372 2553 
Q 372 3047 722 3315 
Q 1072 3584 1716 3584 
Q 2034 3584 2315 3537 
Q 2597 3491 2834 3397 
z
" id="DejaVuSans-73" transform="scale(0.015625)"/>
       <path d="M 1959 3097 
Q 1497 3097 1228 2736 
Q 959 2375 959 1747 
Q 959 1119 1226 758 
Q 1494 397 1959 397 
Q 2419 397 2687 759 
Q 2956 1122 2956 1747 
Q 2956 2369 2687 2733 
Q 2419 3097 1959 3097 
z
M 1959 3584 
Q 2709 3584 3137 3096 
Q 3566 2609 3566 1747 
Q 3566 888 3137 398 
Q 2709 -91 1959 -91 
Q 1206 -91 779 398 
Q 353 888 353 1747 
Q 353 2609 779 3096 
Q 1206 3584 1959 3584 
z
" id="DejaVuSans-6f" transform="scale(0.015625)"/>
       <path d="M 603 4863 
L 1178 4863 
L 1178 0 
L 603 0 
L 603 4863 
z
" id="DejaVuSans-6c" transform="scale(0.015625)"/>
       <path d="M 2906 2969 
L 2906 4863 
L 3481 4863 
L 3481 0 
L 2906 0 
L 2906 525 
Q 2725 213 2448 61 
Q 2172 -91 1784 -91 
Q 1150 -91 751 415 
Q 353 922 353 1747 
Q 353 2572 751 3078 
Q 1150 3584 1784 3584 
Q 2172 3584 2448 3432 
Q 2725 3281 2906 2969 
z
M 947 1747 
Q 947 1113 1208 752 
Q 1469 391 1925 391 
Q 2381 391 2643 752 
Q 2906 1113 2906 1747 
Q 2906 2381 2643 2742 
Q 2381 3103 1925 3103 
Q 1469 3103 1208 2742 
Q 947 2381 947 1747 
z
" id="DejaVuSans-64" transform="scale(0.015625)"/>
      </defs>
      <use xlink:href="#DejaVuSans-54"/>
      <use x="61.083984" xlink:href="#DejaVuSans-68"/>
      <use x="124.462891" xlink:href="#DejaVuSans-72"/>
      <use x="163.326172" xlink:href="#DejaVuSans-65"/>
      <use x="224.849609" xlink:href="#DejaVuSans-73"/>
      <use x="276.949219" xlink:href="#DejaVuSans-68"/>
      <use x="340.328125" xlink:href="#DejaVuSans-6f"/>
      <use x="401.509766" xlink:href="#DejaVuSans-6c"/>
      <use x="429.292969" xlink:href="#DejaVuSans-64"/>
      <use x="492.769531" xlink:href="#DejaVuSans-73"/>
     </g>
    </g>
   </g>
   <g id="matplotlib.axis_2">
    <g id="ytick_1">
     <g id="line2d_7">
      <defs>
       <path d="M 0 0 
L -3.5 0 
" id="m6cedf72775" style="stroke:#000000;stroke-width:0.8;"/>
      </defs>
      <g>
       <use style="stroke:#000000;stroke-width:0.8;" x="72" xlink:href="#m6cedf72775" y="242.116364"/>
      </g>
     </g>
     <g id="text_8">
      <!-- 0.00 -->
      <g transform="translate(42.734375 245.915582)scale(0.1 -0.1)">
       <use xlink:href="#DejaVuSans-30"/>
       <use x="63.623047" xlink:href="#DejaVuSans-2e"/>
       <use x="95.410156" xlink:href="#DejaVuSans-30"/>
       <use x="159.033203" xlink:href="#DejaVuSans-30"/>
      </g>
     </g>
    </g>
    <g id="ytick_2">
     <g id="line2d_8">
      <g>
       <use style="stroke:#000000;stroke-width:0.8;" x="72" xlink:href="#m6cedf72775" y="216.951105"/>
      </g>
     </g>
     <g id="text_9">
      <!-- 0.01 -->
      <g transform="translate(42.734375 220.750324)scale(0.1 -0.1)">
       <use xlink:href="#DejaVuSans-30"/>
       <use x="63.623047" xlink:href="#DejaVuSans-2e"/>
       <use x="95.410156" xlink:href="#DejaVuSans-30"/>
       <use x="159.033203" xlink:href="#DejaVuSans-31"/>
      </g>
     </g>
    </g>
    <g id="ytick_3">
     <g id="line2d_9">
      <g>
       <use style="stroke:#000000;stroke-width:0.8;" x="72" xlink:href="#m6cedf72775" y="191.785846"/>
      </g>
     </g>
     <g id="text_10">
      <!-- 0.02 -->
      <g transform="translate(42.734375 195.585065)scale(0.1 -0.1)">
       <use xlink:href="#DejaVuSans-30"/>
       <use x="63.623047" xlink:href="#DejaVuSans-2e"/>
       <use x="95.410156" xlink:href="#DejaVuSans-30"/>
       <use x="159.033203" xlink:href="#DejaVuSans-32"/>
      </g>
     </g>
    </g>
    <g id="ytick_4">
     <g id="line2d_10">
      <g>
       <use style="stroke:#000000;stroke-width:0.8;" x="72" xlink:href="#m6cedf72775" y="166.620587"/>
      </g>
     </g>
     <g id="text_11">
      <!-- 0.03 -->
      <g transform="translate(42.734375 170.419806)scale(0.1 -0.1)">
       <defs>
        <path d="M 2597 2516 
Q 3050 2419 3304 2112 
Q 3559 1806 3559 1356 
Q 3559 666 3084 287 
Q 2609 -91 1734 -91 
Q 1441 -91 1130 -33 
Q 819 25 488 141 
L 488 750 
Q 750 597 1062 519 
Q 1375 441 1716 441 
Q 2309 441 2620 675 
Q 2931 909 2931 1356 
Q 2931 1769 2642 2001 
Q 2353 2234 1838 2234 
L 1294 2234 
L 1294 2753 
L 1863 2753 
Q 2328 2753 2575 2939 
Q 2822 3125 2822 3475 
Q 2822 3834 2567 4026 
Q 2313 4219 1838 4219 
Q 1578 4219 1281 4162 
Q 984 4106 628 3988 
L 628 4550 
Q 988 4650 1302 4700 
Q 1616 4750 1894 4750 
Q 2613 4750 3031 4423 
Q 3450 4097 3450 3541 
Q 3450 3153 3228 2886 
Q 3006 2619 2597 2516 
z
" id="DejaVuSans-33" transform="scale(0.015625)"/>
       </defs>
       <use xlink:href="#DejaVuSans-30"/>
       <use x="63.623047" xlink:href="#DejaVuSans-2e"/>
       <use x="95.410156" xlink:href="#DejaVuSans-30"/>
       <use x="159.033203" xlink:href="#DejaVuSans-33"/>
      </g>
     </g>
    </g>
    <g id="ytick_5">
     <g id="line2d_11">
      <g>
       <use style="stroke:#000000;stroke-width:0.8;" x="72" xlink:href="#m6cedf72775" y="141.455329"/>
      </g>
     </g>
     <g id="text_12">
      <!-- 0.04 -->
      <g transform="translate(42.734375 145.254547)scale(0.1 -0.1)">
       <use xlink:href="#DejaVuSans-30"/>
       <use x="63.623047" xlink:href="#DejaVuSans-2e"/>
       <use x="95.410156" xlink:href="#DejaVuSans-30"/>
       <use x="159.033203" xlink:href="#DejaVuSans-34"/>
      </g>
     </g>
    </g>
    <g id="ytick_6">
     <g id="line2d_12">
      <g>
       <use style="stroke:#000000;stroke-width:0.8;" x="72" xlink:href="#m6cedf72775" y="116.29007"/>
      </g>
     </g>
     <g id="text_13">
      <!-- 0.05 -->
      <g transform="translate(42.734375 120.089289)scale(0.1 -0.1)">
       <defs>
        <path d="M 691 4666 
L 3169 4666 
L 3169 4134 
L 1269 4134 
L 1269 2991 
Q 1406 3038 1543 3061 
Q 1681 3084 1819 3084 
Q 2600 3084 3056 2656 
Q 3513 2228 3513 1497 
Q 3513 744 3044 326 
Q 2575 -91 1722 -91 
Q 1428 -91 1123 -41 
Q 819 9 494 109 
L 494 744 
Q 775 591 1075 516 
Q 1375 441 1709 441 
Q 2250 441 2565 725 
Q 2881 1009 2881 1497 
Q 2881 1984 2565 2268 
Q 2250 2553 1709 2553 
Q 1456 2553 1204 2497 
Q 953 2441 691 2322 
L 691 4666 
z
" id="DejaVuSans-35" transform="scale(0.015625)"/>
       </defs>
       <use xlink:href="#DejaVuSans-30"/>
       <use x="63.623047" xlink:href="#DejaVuSans-2e"/>
       <use x="95.410156" xlink:href="#DejaVuSans-30"/>
       <use x="159.033203" xlink:href="#DejaVuSans-35"/>
      </g>
     </g>
    </g>
    <g id="ytick_7">
     <g id="line2d_13">
      <g>
       <use style="stroke:#000000;stroke-width:0.8;" x="72" xlink:href="#m6cedf72775" y="91.124811"/>
      </g>
     </g>
     <g id="text_14">
      <!-- 0.06 -->
      <g transform="translate(42.734375 94.92403)scale(0.1 -0.1)">
       <use xlink:href="#DejaVuSans-30"/>
       <use x="63.623047" xlink:href="#DejaVuSans-2e"/>
       <use x="95.410156" xlink:href="#DejaVuSans-30"/>
       <use x="159.033203" xlink:href="#DejaVuSans-36"/>
      </g>
     </g>
    </g>
    <g id="ytick_8">
     <g id="line2d_14">
      <g>
       <use style="stroke:#000000;stroke-width:0.8;" x="72" xlink:href="#m6cedf72775" y="65.959552"/>
      </g>
     </g>
     <g id="text_15">
      <!-- 0.07 -->
      <g transform="translate(42.734375 69.758771)scale(0.1 -0.1)">
       <defs>
        <path d="M 525 4666 
L 3525 4666 
L 3525 4397 
L 1831 0 
L 1172 0 
L 2766 4134 
L 525 4134 
L 525 4666 
z
" id="DejaVuSans-37" transform="scale(0.015625)"/>
       </defs>
       <use xlink:href="#DejaVuSans-30"/>
       <use x="63.623047" xlink:href="#DejaVuSans-2e"/>
       <use x="95.410156" xlink:href="#DejaVuSans-30"/>
       <use x="159.033203" xlink:href="#DejaVuSans-37"/>
      </g>
     </g>
    </g>
    <g id="ytick_9">
     <g id="line2d_15">
      <g>
       <use style="stroke:#000000;stroke-width:0.8;" x="72" xlink:href="#m6cedf72775" y="40.794294"/>
      </g>
     </g>
     <g id="text_16">
      <!-- 0.08 -->
      <g transform="translate(42.734375 44.593512)scale(0.1 -0.1)">
       <use xlink:href="#DejaVuSans-30"/>
       <use x="63.623047" xlink:href="#DejaVuSans-2e"/>
       <use x="95.410156" xlink:href="#DejaVuSans-30"/>
       <use x="159.033203" xlink:href="#DejaVuSans-38"/>
      </g>
     </g>
    </g>
    <g id="text_17">
     <!-- F1 score -->
     <g transform="translate(36.654687 164.358906)rotate(-90)scale(0.1 -0.1)">
      <defs>
       <path d="M 628 4666 
L 3309 4666 
L 3309 4134 
L 1259 4134 
L 1259 2759 
L 3109 2759 
L 3109 2228 
L 1259 2228 
L 1259 0 
L 628 0 
L 628 4666 
z
" id="DejaVuSans-46" transform="scale(0.015625)"/>
       <path id="DejaVuSans-20" transform="scale(0.015625)"/>
       <path d="M 3122 3366 
L 3122 2828 
Q 2878 2963 2633 3030 
Q 2388 3097 2138 3097 
Q 1578 3097 1268 2742 
Q 959 2388 959 1747 
Q 959 1106 1268 751 
Q 1578 397 2138 397 
Q 2388 397 2633 464 
Q 2878 531 3122 666 
L 3122 134 
Q 2881 22 2623 -34 
Q 2366 -91 2075 -91 
Q 1284 -91 818 406 
Q 353 903 353 1747 
Q 353 2603 823 3093 
Q 1294 3584 2113 3584 
Q 2378 3584 2631 3529 
Q 2884 3475 3122 3366 
z
" id="DejaVuSans-63" transform="scale(0.015625)"/>
      </defs>
      <use xlink:href="#DejaVuSans-46"/>
      <use x="57.519531" xlink:href="#DejaVuSans-31"/>
      <use x="121.142578" xlink:href="#DejaVuSans-20"/>
      <use x="152.929688" xlink:href="#DejaVuSans-73"/>
      <use x="205.029297" xlink:href="#DejaVuSans-63"/>
      <use x="260.009766" xlink:href="#DejaVuSans-6f"/>
      <use x="321.191406" xlink:href="#DejaVuSans-72"/>
      <use x="360.054688" xlink:href="#DejaVuSans-65"/>
     </g>
    </g>
   </g>
   <g id="line2d_16">
    <path clip-path="url(#pc3548bdc54)" d="M 92.290909 214.114256 
L 93.510803 213.973777 
L 97.170486 213.352996 
L 97.983749 213.150328 
L 98.390381 213.144095 
L 100.016907 212.705816 
L 100.830169 212.623673 
L 104.083221 212.1827 
L 105.303115 212.069132 
L 106.116378 211.971581 
L 107.742904 211.864901 
L 122.381636 210.911326 
L 124.008162 210.827929 
L 126.854582 210.720308 
L 144.339734 209.695887 
L 145.152997 209.625472 
L 157.35194 208.768383 
L 158.978466 208.639859 
L 162.638149 208.428353 
L 163.451412 208.333255 
L 163.858043 208.604838 
L 165.891201 208.39514 
L 167.517726 208.266767 
L 170.364146 208.007068 
L 173.617198 207.741139 
L 174.023829 207.986266 
L 174.837092 207.877916 
L 175.650355 207.742067 
L 181.749827 206.934256 
L 182.156458 207.239139 
L 184.596247 206.934391 
L 185.002878 206.832415 
L 185.40951 207.110331 
L 188.25593 206.805123 
L 191.508982 206.428333 
L 193.542139 206.188418 
L 193.94877 206.487848 
L 195.575296 206.160958 
L 198.015085 205.907358 
L 199.64161 205.61645 
L 200.048242 205.930556 
L 203.301293 205.415892 
L 203.707925 205.652901 
L 204.114556 205.602639 
L 204.521188 205.91525 
L 216.3135 204.089032 
L 217.533394 203.787739 
L 219.15992 203.487623 
L 219.566551 203.812483 
L 221.599709 203.370168 
L 222.00634 203.638588 
L 224.039497 203.172042 
L 224.85276 203.757766 
L 225.259392 203.680679 
L 225.666023 204.008682 
L 226.479286 203.891684 
L 226.885917 204.224854 
L 227.69918 204.055393 
L 228.512443 203.83438 
L 231.358863 203.355697 
L 234.611915 202.549685 
L 235.425178 202.43564 
L 235.831809 202.755537 
L 236.238441 202.617877 
L 236.645072 202.96706 
L 237.864966 202.758479 
L 238.271598 202.605692 
L 238.678229 202.578405 
L 239.491492 202.306915 
L 239.898124 202.223697 
L 240.304755 202.510291 
L 240.711386 202.388714 
L 241.118018 202.719565 
L 245.184332 201.779434 
L 246.810858 201.51988 
L 248.030752 201.092313 
L 248.437384 201.900024 
L 249.250647 201.788909 
L 250.470541 201.417832 
L 251.283804 201.239263 
L 254.536856 200.37418 
L 254.943487 200.715842 
L 255.75675 200.291796 
L 259.009801 199.605811 
L 259.416433 199.884439 
L 261.856222 199.266865 
L 263.889379 198.59557 
L 264.702642 198.368598 
L 265.922536 198.035024 
L 266.329167 197.797561 
L 267.549062 197.450525 
L 268.768956 197.093274 
L 269.98885 196.624084 
L 270.395482 196.429755 
L 270.802113 196.361348 
L 271.208745 196.797857 
L 271.615376 197.0475 
L 274.868428 196.002742 
L 275.275059 197.546501 
L 276.901585 196.793971 
L 277.714848 196.594132 
L 278.121479 196.371744 
L 278.528111 196.789062 
L 279.341374 196.392917 
L 279.748005 196.721124 
L 280.561268 196.414613 
L 280.967899 196.141655 
L 281.781162 195.892646 
L 282.594425 196.714354 
L 283.001057 196.833388 
L 283.407688 196.751758 
L 284.220951 196.355801 
L 285.440845 195.918973 
L 285.847477 195.873698 
L 287.067371 195.300181 
L 287.474003 195.855548 
L 287.880634 195.711451 
L 288.287265 196.109254 
L 288.693897 195.993745 
L 289.50716 195.590749 
L 291.133686 194.945639 
L 291.946948 195.803938 
L 293.573474 195.29421 
L 294.793369 194.615809 
L 295.2 194.527247 
L 295.606631 195.084776 
L 296.013263 194.889337 
L 296.419894 195.438868 
L 297.233157 195.072125 
L 298.04642 196.029926 
L 299.266314 195.462453 
L 299.672946 196.018471 
L 300.079577 195.767624 
L 300.486209 196.207247 
L 301.299472 195.810863 
L 301.706103 195.480816 
L 302.112735 195.987864 
L 303.332629 195.256411 
L 303.73926 195.772859 
L 304.145892 195.602903 
L 304.959155 195.050569 
L 305.365786 195.409402 
L 305.772418 195.353407 
L 306.58568 194.620289 
L 308.212206 196.927973 
L 309.432101 196.123453 
L 309.838732 196.0145 
L 310.245363 195.647564 
L 310.651995 196.207586 
L 311.465258 195.619775 
L 311.871889 195.430611 
L 312.278521 195.941577 
L 313.905046 194.626743 
L 314.311678 195.070503 
L 315.124941 194.405601 
L 315.531572 193.97413 
L 315.938204 193.86504 
L 316.344835 193.543308 
L 317.158098 193.18268 
L 317.564729 193.833401 
L 318.784624 193.06659 
L 319.597887 192.538692 
L 320.004518 192.457165 
L 320.41115 193.108143 
L 320.817781 192.882007 
L 321.224412 192.30278 
L 321.631044 192.856305 
L 322.037675 192.735479 
L 323.664201 191.444787 
L 324.070833 192.13863 
L 324.884095 191.617517 
L 325.697358 190.779236 
L 326.10399 190.604094 
L 327.323884 189.58144 
L 328.137147 188.839975 
L 328.543778 189.347945 
L 328.95041 189.148023 
L 329.357041 189.688741 
L 330.170304 188.827786 
L 330.576936 189.448719 
L 331.390199 188.856557 
L 331.79683 189.125003 
L 332.203461 188.898494 
L 332.610093 189.748035 
L 333.016724 189.450217 
L 333.829987 188.58564 
L 334.236619 188.461583 
L 335.049882 187.499619 
L 335.456513 187.0711 
L 335.863144 186.422262 
L 336.269776 186.247546 
L 336.676407 186.956274 
L 337.083039 186.645551 
L 337.48967 187.557537 
L 338.709565 186.390577 
L 339.116196 185.737984 
L 339.522827 185.36232 
L 340.33609 184.037613 
L 341.149353 185.640763 
L 341.962616 184.548778 
L 342.369248 184.438827 
L 342.775879 183.962808 
L 343.18251 184.619813 
L 343.589142 186.808103 
L 343.995773 186.033787 
L 344.402405 185.743871 
L 345.215668 184.972545 
L 345.622299 187.18335 
L 346.435562 186.344302 
L 346.842193 185.616693 
L 347.248825 185.219659 
L 347.655456 184.408612 
L 348.468719 183.389491 
L 348.875351 184.486 
L 349.281982 184.228229 
L 349.688614 183.837218 
L 350.095245 183.173663 
L 350.501876 182.826487 
L 350.908508 181.900391 
L 351.315139 181.334793 
L 351.721771 181.994585 
L 352.128402 181.372636 
L 352.535034 181.035639 
L 352.941665 183.757014 
L 353.348297 182.670871 
L 353.754928 185.110662 
L 354.161559 184.179266 
L 357.821242 178.30262 
L 358.227874 177.882274 
L 358.634505 177.776321 
L 359.447768 176.532251 
L 359.8544 176.116108 
L 360.261031 175.124262 
L 361.074294 174.250072 
L 361.887557 172.802901 
L 362.294188 171.228311 
L 362.70082 170.41388 
L 363.107451 170.016269 
L 363.514083 169.275745 
L 363.920714 167.641612 
L 364.327346 167.068454 
L 364.733977 166.923783 
L 365.140608 166.33948 
L 365.54724 165.558658 
L 366.360503 163.316058 
L 366.767134 165.079857 
L 367.173766 164.285666 
L 367.580397 166.607569 
L 367.987029 167.631454 
L 368.800291 165.568048 
L 369.613554 164.514244 
L 370.020186 165.815186 
L 370.426817 164.860879 
L 370.833449 164.816934 
L 371.24008 163.65655 
L 372.459974 161.849147 
L 372.866606 161.228032 
L 373.679869 158.541704 
L 374.0865 164.301711 
L 374.493132 166.241212 
L 376.119657 162.279456 
L 376.526289 160.444124 
L 376.93292 159.888153 
L 377.339552 158.406563 
L 378.152815 156.870604 
L 378.559446 156.689743 
L 378.966078 155.026788 
L 379.372709 157.619874 
L 379.77934 156.747492 
L 380.592603 153.95171 
L 381.405866 152.657175 
L 381.812498 151.252792 
L 382.219129 150.388796 
L 382.625761 148.761372 
L 383.032392 148.686024 
L 383.439024 147.308673 
L 383.845655 146.367654 
L 384.252286 144.92057 
L 384.658918 144.92057 
L 385.065549 143.429074 
L 385.472181 143.006612 
L 385.878812 141.977791 
L 386.285444 145.242227 
L 387.098707 142.898498 
L 387.505338 142.091848 
L 387.911969 140.995689 
L 388.318601 140.438551 
L 388.725232 138.536253 
L 389.131864 138.049504 
L 389.538495 137.261119 
L 390.351758 136.460697 
L 390.75839 135.545489 
L 391.165021 139.500745 
L 392.384915 135.569905 
L 392.791547 135.138543 
L 393.198178 135.138543 
L 393.60481 134.594404 
L 394.418073 131.325916 
L 394.824704 129.795336 
L 395.231335 128.832241 
L 395.637967 126.223725 
L 396.044598 126.09651 
L 396.45123 125.068649 
L 396.857861 124.547858 
L 397.671124 124.285721 
L 398.077756 123.757924 
L 398.484387 122.688017 
L 398.891018 126.679397 
L 399.29765 126.28088 
L 399.704281 125.068649 
L 400.110913 125.068649 
L 400.517544 123.969609 
L 401.737439 122.281798 
L 402.14407 122.138968 
L 402.550701 121.564226 
L 402.957333 119.806479 
L 403.363964 119.806479 
L 403.770596 119.058864 
L 404.177227 117.535875 
L 404.583859 117.3815 
L 404.99049 116.603851 
L 405.397122 121.068284 
L 405.803753 120.606855 
L 406.210384 120.606855 
L 406.617016 119.359004 
L 407.023647 119.043026 
L 407.430279 117.112464 
L 408.243542 115.791419 
L 408.650173 113.928719 
L 409.463436 113.928719 
L 409.870067 112.539151 
L 410.276699 112.363333 
L 410.68333 111.655268 
L 411.089962 110.215697 
L 411.903225 106.28116 
L 412.716488 106.28116 
L 413.52975 102.919882 
L 413.936382 102.104675 
L 414.343013 102.104675 
L 414.749645 101.279864 
L 415.156276 101.279864 
L 415.562908 100.445277 
L 415.969539 100.235083 
L 416.376171 97.444679 
L 416.782802 95.447678 
L 417.189433 94.996389 
L 417.596065 94.996389 
L 418.002696 94.08543 
L 418.409328 94.08543 
L 418.815959 93.625706 
L 420.035854 90.566469 
L 420.442485 87.628507 
L 420.849116 86.116391 
L 421.255748 86.116391 
L 421.662379 85.091761 
L 422.069011 82.736392 
L 422.475642 82.470315 
L 422.882274 81.397064 
L 423.288905 79.759856 
L 424.508799 79.759856 
L 424.915431 78.369817 
L 425.322062 76.095559 
L 426.135325 76.095559 
L 426.541957 82.336943 
L 427.35522 77.69725 
L 428.168482 77.69725 
L 428.981745 75.274869 
L 429.388377 78.830334 
L 429.795008 77.890107 
L 430.20164 77.890107 
L 431.014903 75.653563 
L 431.421534 75.003317 
L 432.234797 72.013223 
L 432.641428 72.013223 
L 433.454691 66.424619 
L 433.861323 66.063113 
L 434.267954 64.60209 
L 434.674586 64.233038 
L 435.081217 63.49031 
L 435.89448 63.49031 
L 436.301111 71.142207 
L 436.707743 69.30772 
L 437.114374 68.936088 
L 437.521006 66.289228 
L 437.927637 66.289228 
L 438.334269 63.163413 
L 439.147531 59.511312 
L 440.367426 59.511312 
L 440.774057 56.992621 
L 441.180689 56.992621 
L 441.58732 54.403478 
L 441.993952 52.636768 
L 442.400583 52.636768 
L 442.807214 60.636132 
L 443.213846 54.781931 
L 443.620477 61.442711 
L 444.027109 61.442711 
L 444.43374 60.978254 
L 444.840372 57.17483 
L 445.247003 51.160471 
L 445.653635 59.861008 
L 446.060266 57.807426 
L 446.466897 57.807426 
L 446.873529 54.638791 
L 447.28016 52.465138 
L 447.686792 52.465138 
L 448.093423 50.240491 
L 448.500055 45.039036 
L 448.906686 44.443636 
L 449.313318 52.785263 
L 450.12658 52.785263 
L 450.533212 52.189883 
L 450.939843 65.799264 
L 451.346475 64.098456 
L 451.753106 78.17331 
L 452.159738 107.452772 
L 452.566369 107.452772 
L 453.786263 101.822238 
L 454.192895 152.877857 
L 454.599526 151.59385 
L 455.006158 146.065758 
L 455.412789 145.697748 
L 456.226052 145.697748 
L 456.632684 140.643546 
L 457.039315 157.881188 
L 457.445946 155.712042 
L 457.852578 154.202796 
L 458.259209 154.202796 
L 459.072472 151.020404 
L 459.479104 150.606332 
L 459.885735 150.606332 
L 460.698998 147.153123 
L 461.105629 144.387203 
L 461.512261 167.36807 
L 461.918892 167.36807 
L 462.325524 165.858004 
L 462.732155 165.858004 
L 463.138787 162.226653 
L 463.545418 160.499308 
L 464.765312 160.499308 
L 465.171944 156.810402 
L 466.391838 156.810402 
L 466.79847 154.83801 
L 467.205101 182.553621 
L 467.611733 181.109676 
L 468.018364 180.737684 
L 468.424995 180.737684 
L 468.831627 177.590059 
L 469.64489 177.590059 
L 470.051521 177.17376 
L 470.458153 177.17376 
L 470.864784 208.784895 
L 472.084678 205.907358 
L 472.897941 205.907358 
L 473.304573 204.834499 
L 474.524467 204.834499 
L 474.931099 202.486035 
L 475.33773 202.486035 
L 475.744361 201.197244 
L 476.557624 201.197244 
L 476.964256 199.821811 
L 479.810676 199.821811 
L 480.217307 198.350696 
L 480.623939 198.350696 
L 481.03057 196.773555 
L 487.943305 196.773555 
L 488.349936 242.116364 
L 498.109091 242.116364 
L 498.109091 242.116364 
" style="fill:none;stroke:#1f77b4;stroke-linecap:square;stroke-width:1.5;"/>
   </g>
   <g id="patch_3">
    <path d="M 72 252 
L 72 34.56 
" style="fill:none;stroke:#000000;stroke-linecap:square;stroke-linejoin:miter;stroke-width:0.8;"/>
   </g>
   <g id="patch_4">
    <path d="M 518.4 252 
L 518.4 34.56 
" style="fill:none;stroke:#000000;stroke-linecap:square;stroke-linejoin:miter;stroke-width:0.8;"/>
   </g>
   <g id="patch_5">
    <path d="M 72 252 
L 518.4 252 
" style="fill:none;stroke:#000000;stroke-linecap:square;stroke-linejoin:miter;stroke-width:0.8;"/>
   </g>
   <g id="patch_6">
    <path d="M 72 34.56 
L 518.4 34.56 
" style="fill:none;stroke:#000000;stroke-linecap:square;stroke-linejoin:miter;stroke-width:0.8;"/>
   </g>
   <g id="text_18">
    <!-- LA MAGDALENA CONTRERAS -->
    <g transform="translate(237.575 28.56)scale(0.08 -0.08)">
     <defs>
      <path d="M 628 4666 
L 1259 4666 
L 1259 531 
L 3531 531 
L 3531 0 
L 628 0 
L 628 4666 
z
" id="DejaVuSans-4c" transform="scale(0.015625)"/>
      <path d="M 2188 4044 
L 1331 1722 
L 3047 1722 
L 2188 4044 
z
M 1831 4666 
L 2547 4666 
L 4325 0 
L 3669 0 
L 3244 1197 
L 1141 1197 
L 716 0 
L 50 0 
L 1831 4666 
z
" id="DejaVuSans-41" transform="scale(0.015625)"/>
      <path d="M 628 4666 
L 1569 4666 
L 2759 1491 
L 3956 4666 
L 4897 4666 
L 4897 0 
L 4281 0 
L 4281 4097 
L 3078 897 
L 2444 897 
L 1241 4097 
L 1241 0 
L 628 0 
L 628 4666 
z
" id="DejaVuSans-4d" transform="scale(0.015625)"/>
      <path d="M 3809 666 
L 3809 1919 
L 2778 1919 
L 2778 2438 
L 4434 2438 
L 4434 434 
Q 4069 175 3628 42 
Q 3188 -91 2688 -91 
Q 1594 -91 976 548 
Q 359 1188 359 2328 
Q 359 3472 976 4111 
Q 1594 4750 2688 4750 
Q 3144 4750 3555 4637 
Q 3966 4525 4313 4306 
L 4313 3634 
Q 3963 3931 3569 4081 
Q 3175 4231 2741 4231 
Q 1884 4231 1454 3753 
Q 1025 3275 1025 2328 
Q 1025 1384 1454 906 
Q 1884 428 2741 428 
Q 3075 428 3337 486 
Q 3600 544 3809 666 
z
" id="DejaVuSans-47" transform="scale(0.015625)"/>
      <path d="M 1259 4147 
L 1259 519 
L 2022 519 
Q 2988 519 3436 956 
Q 3884 1394 3884 2338 
Q 3884 3275 3436 3711 
Q 2988 4147 2022 4147 
L 1259 4147 
z
M 628 4666 
L 1925 4666 
Q 3281 4666 3915 4102 
Q 4550 3538 4550 2338 
Q 4550 1131 3912 565 
Q 3275 0 1925 0 
L 628 0 
L 628 4666 
z
" id="DejaVuSans-44" transform="scale(0.015625)"/>
      <path d="M 628 4666 
L 3578 4666 
L 3578 4134 
L 1259 4134 
L 1259 2753 
L 3481 2753 
L 3481 2222 
L 1259 2222 
L 1259 531 
L 3634 531 
L 3634 0 
L 628 0 
L 628 4666 
z
" id="DejaVuSans-45" transform="scale(0.015625)"/>
      <path d="M 628 4666 
L 1478 4666 
L 3547 763 
L 3547 4666 
L 4159 4666 
L 4159 0 
L 3309 0 
L 1241 3903 
L 1241 0 
L 628 0 
L 628 4666 
z
" id="DejaVuSans-4e" transform="scale(0.015625)"/>
      <path d="M 4122 4306 
L 4122 3641 
Q 3803 3938 3442 4084 
Q 3081 4231 2675 4231 
Q 1875 4231 1450 3742 
Q 1025 3253 1025 2328 
Q 1025 1406 1450 917 
Q 1875 428 2675 428 
Q 3081 428 3442 575 
Q 3803 722 4122 1019 
L 4122 359 
Q 3791 134 3420 21 
Q 3050 -91 2638 -91 
Q 1578 -91 968 557 
Q 359 1206 359 2328 
Q 359 3453 968 4101 
Q 1578 4750 2638 4750 
Q 3056 4750 3426 4639 
Q 3797 4528 4122 4306 
z
" id="DejaVuSans-43" transform="scale(0.015625)"/>
      <path d="M 2522 4238 
Q 1834 4238 1429 3725 
Q 1025 3213 1025 2328 
Q 1025 1447 1429 934 
Q 1834 422 2522 422 
Q 3209 422 3611 934 
Q 4013 1447 4013 2328 
Q 4013 3213 3611 3725 
Q 3209 4238 2522 4238 
z
M 2522 4750 
Q 3503 4750 4090 4092 
Q 4678 3434 4678 2328 
Q 4678 1225 4090 567 
Q 3503 -91 2522 -91 
Q 1538 -91 948 565 
Q 359 1222 359 2328 
Q 359 3434 948 4092 
Q 1538 4750 2522 4750 
z
" id="DejaVuSans-4f" transform="scale(0.015625)"/>
      <path d="M 2841 2188 
Q 3044 2119 3236 1894 
Q 3428 1669 3622 1275 
L 4263 0 
L 3584 0 
L 2988 1197 
Q 2756 1666 2539 1819 
Q 2322 1972 1947 1972 
L 1259 1972 
L 1259 0 
L 628 0 
L 628 4666 
L 2053 4666 
Q 2853 4666 3247 4331 
Q 3641 3997 3641 3322 
Q 3641 2881 3436 2590 
Q 3231 2300 2841 2188 
z
M 1259 4147 
L 1259 2491 
L 2053 2491 
Q 2509 2491 2742 2702 
Q 2975 2913 2975 3322 
Q 2975 3731 2742 3939 
Q 2509 4147 2053 4147 
L 1259 4147 
z
" id="DejaVuSans-52" transform="scale(0.015625)"/>
      <path d="M 3425 4513 
L 3425 3897 
Q 3066 4069 2747 4153 
Q 2428 4238 2131 4238 
Q 1616 4238 1336 4038 
Q 1056 3838 1056 3469 
Q 1056 3159 1242 3001 
Q 1428 2844 1947 2747 
L 2328 2669 
Q 3034 2534 3370 2195 
Q 3706 1856 3706 1288 
Q 3706 609 3251 259 
Q 2797 -91 1919 -91 
Q 1588 -91 1214 -16 
Q 841 59 441 206 
L 441 856 
Q 825 641 1194 531 
Q 1563 422 1919 422 
Q 2459 422 2753 634 
Q 3047 847 3047 1241 
Q 3047 1584 2836 1778 
Q 2625 1972 2144 2069 
L 1759 2144 
Q 1053 2284 737 2584 
Q 422 2884 422 3419 
Q 422 4038 858 4394 
Q 1294 4750 2059 4750 
Q 2388 4750 2728 4690 
Q 3069 4631 3425 4513 
z
" id="DejaVuSans-53" transform="scale(0.015625)"/>
     </defs>
     <use xlink:href="#DejaVuSans-4c"/>
     <use x="57.962891" xlink:href="#DejaVuSans-41"/>
     <use x="126.371094" xlink:href="#DejaVuSans-20"/>
     <use x="158.158203" xlink:href="#DejaVuSans-4d"/>
     <use x="244.4375" xlink:href="#DejaVuSans-41"/>
     <use x="311.095703" xlink:href="#DejaVuSans-47"/>
     <use x="388.585938" xlink:href="#DejaVuSans-44"/>
     <use x="463.837891" xlink:href="#DejaVuSans-41"/>
     <use x="532.246094" xlink:href="#DejaVuSans-4c"/>
     <use x="587.958984" xlink:href="#DejaVuSans-45"/>
     <use x="651.142578" xlink:href="#DejaVuSans-4e"/>
     <use x="725.947266" xlink:href="#DejaVuSans-41"/>
     <use x="794.355469" xlink:href="#DejaVuSans-20"/>
     <use x="826.142578" xlink:href="#DejaVuSans-43"/>
     <use x="895.966797" xlink:href="#DejaVuSans-4f"/>
     <use x="974.677734" xlink:href="#DejaVuSans-4e"/>
     <use x="1049.482422" xlink:href="#DejaVuSans-54"/>
     <use x="1110.566406" xlink:href="#DejaVuSans-52"/>
     <use x="1180.048828" xlink:href="#DejaVuSans-45"/>
     <use x="1243.232422" xlink:href="#DejaVuSans-52"/>
     <use x="1308.714844" xlink:href="#DejaVuSans-41"/>
     <use x="1377.123047" xlink:href="#DejaVuSans-53"/>
    </g>
   </g>
  </g>
  <g id="text_19">
   <!-- F1 score curve -->
   <g transform="translate(229.31625 17.9175)scale(0.16 -0.16)">
    <defs>
     <path d="M 544 1381 
L 544 3500 
L 1119 3500 
L 1119 1403 
Q 1119 906 1312 657 
Q 1506 409 1894 409 
Q 2359 409 2629 706 
Q 2900 1003 2900 1516 
L 2900 3500 
L 3475 3500 
L 3475 0 
L 2900 0 
L 2900 538 
Q 2691 219 2414 64 
Q 2138 -91 1772 -91 
Q 1169 -91 856 284 
Q 544 659 544 1381 
z
M 1991 3584 
L 1991 3584 
z
" id="DejaVuSans-75" transform="scale(0.015625)"/>
     <path d="M 191 3500 
L 800 3500 
L 1894 563 
L 2988 3500 
L 3597 3500 
L 2284 0 
L 1503 0 
L 191 3500 
z
" id="DejaVuSans-76" transform="scale(0.015625)"/>
    </defs>
    <use xlink:href="#DejaVuSans-46"/>
    <use x="57.519531" xlink:href="#DejaVuSans-31"/>
    <use x="121.142578" xlink:href="#DejaVuSans-20"/>
    <use x="152.929688" xlink:href="#DejaVuSans-73"/>
    <use x="205.029297" xlink:href="#DejaVuSans-63"/>
    <use x="260.009766" xlink:href="#DejaVuSans-6f"/>
    <use x="321.191406" xlink:href="#DejaVuSans-72"/>
    <use x="360.054688" xlink:href="#DejaVuSans-65"/>
    <use x="421.578125" xlink:href="#DejaVuSans-20"/>
    <use x="453.365234" xlink:href="#DejaVuSans-63"/>
    <use x="508.345703" xlink:href="#DejaVuSans-75"/>
    <use x="571.724609" xlink:href="#DejaVuSans-72"/>
    <use x="612.837891" xlink:href="#DejaVuSans-76"/>
    <use x="672.017578" xlink:href="#DejaVuSans-65"/>
   </g>
  </g>
 </g>
 <defs>
  <clipPath id="pc3548bdc54">
   <rect height="217.44" width="446.4" x="72" y="34.56"/>
  </clipPath>
 </defs>
</svg>
