<?xml version="1.0" encoding="utf-8" standalone="no"?>
<!DOCTYPE svg PUBLIC "-//W3C//DTD SVG 1.1//EN"
  "http://www.w3.org/Graphics/SVG/1.1/DTD/svg11.dtd">
<svg height="288pt" version="1.1" viewBox="0 0 576 288" width="576pt" xmlns="http://www.w3.org/2000/svg" xmlns:xlink="http://www.w3.org/1999/xlink">
 <metadata>
  <rdf:RDF xmlns:cc="http://creativecommons.org/ns#" xmlns:dc="http://purl.org/dc/elements/1.1/" xmlns:rdf="http://www.w3.org/1999/02/22-rdf-syntax-ns#">
   <cc:Work>
    <dc:type rdf:resource="http://purl.org/dc/dcmitype/StillImage"/>
    <dc:date>2022-01-04T19:57:56.255447</dc:date>
    <dc:format>image/svg+xml</dc:format>
    <dc:creator>
     <cc:Agent>
      <dc:title>Matplotlib v3.4.3, https://matplotlib.org/</dc:title>
     </cc:Agent>
    </dc:creator>
   </cc:Work>
  </rdf:RDF>
 </metadata>
 <defs>
  <style type="text/css">*{stroke-linecap:butt;stroke-linejoin:round;}</style>
 </defs>
 <g id="figure_1">
  <g id="patch_1">
   <path d="M 0 288 
L 576 288 
L 576 0 
L 0 0 
z
" style="fill:none;"/>
  </g>
  <g id="axes_1">
   <g id="patch_2">
    <path d="M 72 252 
L 518.4 252 
L 518.4 34.56 
L 72 34.56 
z
" style="fill:#ffffff;"/>
   </g>
   <g id="matplotlib.axis_1">
    <g id="xtick_1">
     <g id="line2d_1">
      <defs>
       <path d="M 0 0 
L 0 3.5 
" id="m14af485592" style="stroke:#000000;stroke-width:0.8;"/>
      </defs>
      <g>
       <use style="stroke:#000000;stroke-width:0.8;" x="91.884278" xlink:href="#m14af485592" y="252"/>
      </g>
     </g>
     <g id="text_1">
      <!-- 0.0 -->
      <g transform="translate(83.932715 266.598437)scale(0.1 -0.1)">
       <defs>
        <path d="M 2034 4250 
Q 1547 4250 1301 3770 
Q 1056 3291 1056 2328 
Q 1056 1369 1301 889 
Q 1547 409 2034 409 
Q 2525 409 2770 889 
Q 3016 1369 3016 2328 
Q 3016 3291 2770 3770 
Q 2525 4250 2034 4250 
z
M 2034 4750 
Q 2819 4750 3233 4129 
Q 3647 3509 3647 2328 
Q 3647 1150 3233 529 
Q 2819 -91 2034 -91 
Q 1250 -91 836 529 
Q 422 1150 422 2328 
Q 422 3509 836 4129 
Q 1250 4750 2034 4750 
z
" id="DejaVuSans-30" transform="scale(0.015625)"/>
        <path d="M 684 794 
L 1344 794 
L 1344 0 
L 684 0 
L 684 794 
z
" id="DejaVuSans-2e" transform="scale(0.015625)"/>
       </defs>
       <use xlink:href="#DejaVuSans-30"/>
       <use x="63.623047" xlink:href="#DejaVuSans-2e"/>
       <use x="95.410156" xlink:href="#DejaVuSans-30"/>
      </g>
     </g>
    </g>
    <g id="xtick_2">
     <g id="line2d_2">
      <g>
       <use style="stroke:#000000;stroke-width:0.8;" x="173.210567" xlink:href="#m14af485592" y="252"/>
      </g>
     </g>
     <g id="text_2">
      <!-- 0.2 -->
      <g transform="translate(165.259004 266.598437)scale(0.1 -0.1)">
       <defs>
        <path d="M 1228 531 
L 3431 531 
L 3431 0 
L 469 0 
L 469 531 
Q 828 903 1448 1529 
Q 2069 2156 2228 2338 
Q 2531 2678 2651 2914 
Q 2772 3150 2772 3378 
Q 2772 3750 2511 3984 
Q 2250 4219 1831 4219 
Q 1534 4219 1204 4116 
Q 875 4013 500 3803 
L 500 4441 
Q 881 4594 1212 4672 
Q 1544 4750 1819 4750 
Q 2544 4750 2975 4387 
Q 3406 4025 3406 3419 
Q 3406 3131 3298 2873 
Q 3191 2616 2906 2266 
Q 2828 2175 2409 1742 
Q 1991 1309 1228 531 
z
" id="DejaVuSans-32" transform="scale(0.015625)"/>
       </defs>
       <use xlink:href="#DejaVuSans-30"/>
       <use x="63.623047" xlink:href="#DejaVuSans-2e"/>
       <use x="95.410156" xlink:href="#DejaVuSans-32"/>
      </g>
     </g>
    </g>
    <g id="xtick_3">
     <g id="line2d_3">
      <g>
       <use style="stroke:#000000;stroke-width:0.8;" x="254.536856" xlink:href="#m14af485592" y="252"/>
      </g>
     </g>
     <g id="text_3">
      <!-- 0.4 -->
      <g transform="translate(246.585293 266.598437)scale(0.1 -0.1)">
       <defs>
        <path d="M 2419 4116 
L 825 1625 
L 2419 1625 
L 2419 4116 
z
M 2253 4666 
L 3047 4666 
L 3047 1625 
L 3713 1625 
L 3713 1100 
L 3047 1100 
L 3047 0 
L 2419 0 
L 2419 1100 
L 313 1100 
L 313 1709 
L 2253 4666 
z
" id="DejaVuSans-34" transform="scale(0.015625)"/>
       </defs>
       <use xlink:href="#DejaVuSans-30"/>
       <use x="63.623047" xlink:href="#DejaVuSans-2e"/>
       <use x="95.410156" xlink:href="#DejaVuSans-34"/>
      </g>
     </g>
    </g>
    <g id="xtick_4">
     <g id="line2d_4">
      <g>
       <use style="stroke:#000000;stroke-width:0.8;" x="335.863144" xlink:href="#m14af485592" y="252"/>
      </g>
     </g>
     <g id="text_4">
      <!-- 0.6 -->
      <g transform="translate(327.911582 266.598437)scale(0.1 -0.1)">
       <defs>
        <path d="M 2113 2584 
Q 1688 2584 1439 2293 
Q 1191 2003 1191 1497 
Q 1191 994 1439 701 
Q 1688 409 2113 409 
Q 2538 409 2786 701 
Q 3034 994 3034 1497 
Q 3034 2003 2786 2293 
Q 2538 2584 2113 2584 
z
M 3366 4563 
L 3366 3988 
Q 3128 4100 2886 4159 
Q 2644 4219 2406 4219 
Q 1781 4219 1451 3797 
Q 1122 3375 1075 2522 
Q 1259 2794 1537 2939 
Q 1816 3084 2150 3084 
Q 2853 3084 3261 2657 
Q 3669 2231 3669 1497 
Q 3669 778 3244 343 
Q 2819 -91 2113 -91 
Q 1303 -91 875 529 
Q 447 1150 447 2328 
Q 447 3434 972 4092 
Q 1497 4750 2381 4750 
Q 2619 4750 2861 4703 
Q 3103 4656 3366 4563 
z
" id="DejaVuSans-36" transform="scale(0.015625)"/>
       </defs>
       <use xlink:href="#DejaVuSans-30"/>
       <use x="63.623047" xlink:href="#DejaVuSans-2e"/>
       <use x="95.410156" xlink:href="#DejaVuSans-36"/>
      </g>
     </g>
    </g>
    <g id="xtick_5">
     <g id="line2d_5">
      <g>
       <use style="stroke:#000000;stroke-width:0.8;" x="417.189433" xlink:href="#m14af485592" y="252"/>
      </g>
     </g>
     <g id="text_5">
      <!-- 0.8 -->
      <g transform="translate(409.237871 266.598437)scale(0.1 -0.1)">
       <defs>
        <path d="M 2034 2216 
Q 1584 2216 1326 1975 
Q 1069 1734 1069 1313 
Q 1069 891 1326 650 
Q 1584 409 2034 409 
Q 2484 409 2743 651 
Q 3003 894 3003 1313 
Q 3003 1734 2745 1975 
Q 2488 2216 2034 2216 
z
M 1403 2484 
Q 997 2584 770 2862 
Q 544 3141 544 3541 
Q 544 4100 942 4425 
Q 1341 4750 2034 4750 
Q 2731 4750 3128 4425 
Q 3525 4100 3525 3541 
Q 3525 3141 3298 2862 
Q 3072 2584 2669 2484 
Q 3125 2378 3379 2068 
Q 3634 1759 3634 1313 
Q 3634 634 3220 271 
Q 2806 -91 2034 -91 
Q 1263 -91 848 271 
Q 434 634 434 1313 
Q 434 1759 690 2068 
Q 947 2378 1403 2484 
z
M 1172 3481 
Q 1172 3119 1398 2916 
Q 1625 2713 2034 2713 
Q 2441 2713 2670 2916 
Q 2900 3119 2900 3481 
Q 2900 3844 2670 4047 
Q 2441 4250 2034 4250 
Q 1625 4250 1398 4047 
Q 1172 3844 1172 3481 
z
" id="DejaVuSans-38" transform="scale(0.015625)"/>
       </defs>
       <use xlink:href="#DejaVuSans-30"/>
       <use x="63.623047" xlink:href="#DejaVuSans-2e"/>
       <use x="95.410156" xlink:href="#DejaVuSans-38"/>
      </g>
     </g>
    </g>
    <g id="xtick_6">
     <g id="line2d_6">
      <g>
       <use style="stroke:#000000;stroke-width:0.8;" x="498.515722" xlink:href="#m14af485592" y="252"/>
      </g>
     </g>
     <g id="text_6">
      <!-- 1.0 -->
      <g transform="translate(490.56416 266.598437)scale(0.1 -0.1)">
       <defs>
        <path d="M 794 531 
L 1825 531 
L 1825 4091 
L 703 3866 
L 703 4441 
L 1819 4666 
L 2450 4666 
L 2450 531 
L 3481 531 
L 3481 0 
L 794 0 
L 794 531 
z
" id="DejaVuSans-31" transform="scale(0.015625)"/>
       </defs>
       <use xlink:href="#DejaVuSans-31"/>
       <use x="63.623047" xlink:href="#DejaVuSans-2e"/>
       <use x="95.410156" xlink:href="#DejaVuSans-30"/>
      </g>
     </g>
    </g>
    <g id="text_7">
     <!-- Thresholds -->
     <g transform="translate(267.957031 280.276563)scale(0.1 -0.1)">
      <defs>
       <path d="M -19 4666 
L 3928 4666 
L 3928 4134 
L 2272 4134 
L 2272 0 
L 1638 0 
L 1638 4134 
L -19 4134 
L -19 4666 
z
" id="DejaVuSans-54" transform="scale(0.015625)"/>
       <path d="M 3513 2113 
L 3513 0 
L 2938 0 
L 2938 2094 
Q 2938 2591 2744 2837 
Q 2550 3084 2163 3084 
Q 1697 3084 1428 2787 
Q 1159 2491 1159 1978 
L 1159 0 
L 581 0 
L 581 4863 
L 1159 4863 
L 1159 2956 
Q 1366 3272 1645 3428 
Q 1925 3584 2291 3584 
Q 2894 3584 3203 3211 
Q 3513 2838 3513 2113 
z
" id="DejaVuSans-68" transform="scale(0.015625)"/>
       <path d="M 2631 2963 
Q 2534 3019 2420 3045 
Q 2306 3072 2169 3072 
Q 1681 3072 1420 2755 
Q 1159 2438 1159 1844 
L 1159 0 
L 581 0 
L 581 3500 
L 1159 3500 
L 1159 2956 
Q 1341 3275 1631 3429 
Q 1922 3584 2338 3584 
Q 2397 3584 2469 3576 
Q 2541 3569 2628 3553 
L 2631 2963 
z
" id="DejaVuSans-72" transform="scale(0.015625)"/>
       <path d="M 3597 1894 
L 3597 1613 
L 953 1613 
Q 991 1019 1311 708 
Q 1631 397 2203 397 
Q 2534 397 2845 478 
Q 3156 559 3463 722 
L 3463 178 
Q 3153 47 2828 -22 
Q 2503 -91 2169 -91 
Q 1331 -91 842 396 
Q 353 884 353 1716 
Q 353 2575 817 3079 
Q 1281 3584 2069 3584 
Q 2775 3584 3186 3129 
Q 3597 2675 3597 1894 
z
M 3022 2063 
Q 3016 2534 2758 2815 
Q 2500 3097 2075 3097 
Q 1594 3097 1305 2825 
Q 1016 2553 972 2059 
L 3022 2063 
z
" id="DejaVuSans-65" transform="scale(0.015625)"/>
       <path d="M 2834 3397 
L 2834 2853 
Q 2591 2978 2328 3040 
Q 2066 3103 1784 3103 
Q 1356 3103 1142 2972 
Q 928 2841 928 2578 
Q 928 2378 1081 2264 
Q 1234 2150 1697 2047 
L 1894 2003 
Q 2506 1872 2764 1633 
Q 3022 1394 3022 966 
Q 3022 478 2636 193 
Q 2250 -91 1575 -91 
Q 1294 -91 989 -36 
Q 684 19 347 128 
L 347 722 
Q 666 556 975 473 
Q 1284 391 1588 391 
Q 1994 391 2212 530 
Q 2431 669 2431 922 
Q 2431 1156 2273 1281 
Q 2116 1406 1581 1522 
L 1381 1569 
Q 847 1681 609 1914 
Q 372 2147 372 2553 
Q 372 3047 722 3315 
Q 1072 3584 1716 3584 
Q 2034 3584 2315 3537 
Q 2597 3491 2834 3397 
z
" id="DejaVuSans-73" transform="scale(0.015625)"/>
       <path d="M 1959 3097 
Q 1497 3097 1228 2736 
Q 959 2375 959 1747 
Q 959 1119 1226 758 
Q 1494 397 1959 397 
Q 2419 397 2687 759 
Q 2956 1122 2956 1747 
Q 2956 2369 2687 2733 
Q 2419 3097 1959 3097 
z
M 1959 3584 
Q 2709 3584 3137 3096 
Q 3566 2609 3566 1747 
Q 3566 888 3137 398 
Q 2709 -91 1959 -91 
Q 1206 -91 779 398 
Q 353 888 353 1747 
Q 353 2609 779 3096 
Q 1206 3584 1959 3584 
z
" id="DejaVuSans-6f" transform="scale(0.015625)"/>
       <path d="M 603 4863 
L 1178 4863 
L 1178 0 
L 603 0 
L 603 4863 
z
" id="DejaVuSans-6c" transform="scale(0.015625)"/>
       <path d="M 2906 2969 
L 2906 4863 
L 3481 4863 
L 3481 0 
L 2906 0 
L 2906 525 
Q 2725 213 2448 61 
Q 2172 -91 1784 -91 
Q 1150 -91 751 415 
Q 353 922 353 1747 
Q 353 2572 751 3078 
Q 1150 3584 1784 3584 
Q 2172 3584 2448 3432 
Q 2725 3281 2906 2969 
z
M 947 1747 
Q 947 1113 1208 752 
Q 1469 391 1925 391 
Q 2381 391 2643 752 
Q 2906 1113 2906 1747 
Q 2906 2381 2643 2742 
Q 2381 3103 1925 3103 
Q 1469 3103 1208 2742 
Q 947 2381 947 1747 
z
" id="DejaVuSans-64" transform="scale(0.015625)"/>
      </defs>
      <use xlink:href="#DejaVuSans-54"/>
      <use x="61.083984" xlink:href="#DejaVuSans-68"/>
      <use x="124.462891" xlink:href="#DejaVuSans-72"/>
      <use x="163.326172" xlink:href="#DejaVuSans-65"/>
      <use x="224.849609" xlink:href="#DejaVuSans-73"/>
      <use x="276.949219" xlink:href="#DejaVuSans-68"/>
      <use x="340.328125" xlink:href="#DejaVuSans-6f"/>
      <use x="401.509766" xlink:href="#DejaVuSans-6c"/>
      <use x="429.292969" xlink:href="#DejaVuSans-64"/>
      <use x="492.769531" xlink:href="#DejaVuSans-73"/>
     </g>
    </g>
   </g>
   <g id="matplotlib.axis_2">
    <g id="ytick_1">
     <g id="line2d_7">
      <defs>
       <path d="M 0 0 
L -3.5 0 
" id="m47f49a00f6" style="stroke:#000000;stroke-width:0.8;"/>
      </defs>
      <g>
       <use style="stroke:#000000;stroke-width:0.8;" x="72" xlink:href="#m47f49a00f6" y="242.116364"/>
      </g>
     </g>
     <g id="text_8">
      <!-- 0.00 -->
      <g transform="translate(42.734375 245.915582)scale(0.1 -0.1)">
       <use xlink:href="#DejaVuSans-30"/>
       <use x="63.623047" xlink:href="#DejaVuSans-2e"/>
       <use x="95.410156" xlink:href="#DejaVuSans-30"/>
       <use x="159.033203" xlink:href="#DejaVuSans-30"/>
      </g>
     </g>
    </g>
    <g id="ytick_2">
     <g id="line2d_8">
      <g>
       <use style="stroke:#000000;stroke-width:0.8;" x="72" xlink:href="#m47f49a00f6" y="214.93055"/>
      </g>
     </g>
     <g id="text_9">
      <!-- 0.01 -->
      <g transform="translate(42.734375 218.729768)scale(0.1 -0.1)">
       <use xlink:href="#DejaVuSans-30"/>
       <use x="63.623047" xlink:href="#DejaVuSans-2e"/>
       <use x="95.410156" xlink:href="#DejaVuSans-30"/>
       <use x="159.033203" xlink:href="#DejaVuSans-31"/>
      </g>
     </g>
    </g>
    <g id="ytick_3">
     <g id="line2d_9">
      <g>
       <use style="stroke:#000000;stroke-width:0.8;" x="72" xlink:href="#m47f49a00f6" y="187.744736"/>
      </g>
     </g>
     <g id="text_10">
      <!-- 0.02 -->
      <g transform="translate(42.734375 191.543955)scale(0.1 -0.1)">
       <use xlink:href="#DejaVuSans-30"/>
       <use x="63.623047" xlink:href="#DejaVuSans-2e"/>
       <use x="95.410156" xlink:href="#DejaVuSans-30"/>
       <use x="159.033203" xlink:href="#DejaVuSans-32"/>
      </g>
     </g>
    </g>
    <g id="ytick_4">
     <g id="line2d_10">
      <g>
       <use style="stroke:#000000;stroke-width:0.8;" x="72" xlink:href="#m47f49a00f6" y="160.558922"/>
      </g>
     </g>
     <g id="text_11">
      <!-- 0.03 -->
      <g transform="translate(42.734375 164.358141)scale(0.1 -0.1)">
       <defs>
        <path d="M 2597 2516 
Q 3050 2419 3304 2112 
Q 3559 1806 3559 1356 
Q 3559 666 3084 287 
Q 2609 -91 1734 -91 
Q 1441 -91 1130 -33 
Q 819 25 488 141 
L 488 750 
Q 750 597 1062 519 
Q 1375 441 1716 441 
Q 2309 441 2620 675 
Q 2931 909 2931 1356 
Q 2931 1769 2642 2001 
Q 2353 2234 1838 2234 
L 1294 2234 
L 1294 2753 
L 1863 2753 
Q 2328 2753 2575 2939 
Q 2822 3125 2822 3475 
Q 2822 3834 2567 4026 
Q 2313 4219 1838 4219 
Q 1578 4219 1281 4162 
Q 984 4106 628 3988 
L 628 4550 
Q 988 4650 1302 4700 
Q 1616 4750 1894 4750 
Q 2613 4750 3031 4423 
Q 3450 4097 3450 3541 
Q 3450 3153 3228 2886 
Q 3006 2619 2597 2516 
z
" id="DejaVuSans-33" transform="scale(0.015625)"/>
       </defs>
       <use xlink:href="#DejaVuSans-30"/>
       <use x="63.623047" xlink:href="#DejaVuSans-2e"/>
       <use x="95.410156" xlink:href="#DejaVuSans-30"/>
       <use x="159.033203" xlink:href="#DejaVuSans-33"/>
      </g>
     </g>
    </g>
    <g id="ytick_5">
     <g id="line2d_11">
      <g>
       <use style="stroke:#000000;stroke-width:0.8;" x="72" xlink:href="#m47f49a00f6" y="133.373108"/>
      </g>
     </g>
     <g id="text_12">
      <!-- 0.04 -->
      <g transform="translate(42.734375 137.172327)scale(0.1 -0.1)">
       <use xlink:href="#DejaVuSans-30"/>
       <use x="63.623047" xlink:href="#DejaVuSans-2e"/>
       <use x="95.410156" xlink:href="#DejaVuSans-30"/>
       <use x="159.033203" xlink:href="#DejaVuSans-34"/>
      </g>
     </g>
    </g>
    <g id="ytick_6">
     <g id="line2d_12">
      <g>
       <use style="stroke:#000000;stroke-width:0.8;" x="72" xlink:href="#m47f49a00f6" y="106.187294"/>
      </g>
     </g>
     <g id="text_13">
      <!-- 0.05 -->
      <g transform="translate(42.734375 109.986513)scale(0.1 -0.1)">
       <defs>
        <path d="M 691 4666 
L 3169 4666 
L 3169 4134 
L 1269 4134 
L 1269 2991 
Q 1406 3038 1543 3061 
Q 1681 3084 1819 3084 
Q 2600 3084 3056 2656 
Q 3513 2228 3513 1497 
Q 3513 744 3044 326 
Q 2575 -91 1722 -91 
Q 1428 -91 1123 -41 
Q 819 9 494 109 
L 494 744 
Q 775 591 1075 516 
Q 1375 441 1709 441 
Q 2250 441 2565 725 
Q 2881 1009 2881 1497 
Q 2881 1984 2565 2268 
Q 2250 2553 1709 2553 
Q 1456 2553 1204 2497 
Q 953 2441 691 2322 
L 691 4666 
z
" id="DejaVuSans-35" transform="scale(0.015625)"/>
       </defs>
       <use xlink:href="#DejaVuSans-30"/>
       <use x="63.623047" xlink:href="#DejaVuSans-2e"/>
       <use x="95.410156" xlink:href="#DejaVuSans-30"/>
       <use x="159.033203" xlink:href="#DejaVuSans-35"/>
      </g>
     </g>
    </g>
    <g id="ytick_7">
     <g id="line2d_13">
      <g>
       <use style="stroke:#000000;stroke-width:0.8;" x="72" xlink:href="#m47f49a00f6" y="79.00148"/>
      </g>
     </g>
     <g id="text_14">
      <!-- 0.06 -->
      <g transform="translate(42.734375 82.800699)scale(0.1 -0.1)">
       <use xlink:href="#DejaVuSans-30"/>
       <use x="63.623047" xlink:href="#DejaVuSans-2e"/>
       <use x="95.410156" xlink:href="#DejaVuSans-30"/>
       <use x="159.033203" xlink:href="#DejaVuSans-36"/>
      </g>
     </g>
    </g>
    <g id="ytick_8">
     <g id="line2d_14">
      <g>
       <use style="stroke:#000000;stroke-width:0.8;" x="72" xlink:href="#m47f49a00f6" y="51.815666"/>
      </g>
     </g>
     <g id="text_15">
      <!-- 0.07 -->
      <g transform="translate(42.734375 55.614885)scale(0.1 -0.1)">
       <defs>
        <path d="M 525 4666 
L 3525 4666 
L 3525 4397 
L 1831 0 
L 1172 0 
L 2766 4134 
L 525 4134 
L 525 4666 
z
" id="DejaVuSans-37" transform="scale(0.015625)"/>
       </defs>
       <use xlink:href="#DejaVuSans-30"/>
       <use x="63.623047" xlink:href="#DejaVuSans-2e"/>
       <use x="95.410156" xlink:href="#DejaVuSans-30"/>
       <use x="159.033203" xlink:href="#DejaVuSans-37"/>
      </g>
     </g>
    </g>
    <g id="text_16">
     <!-- F1 score -->
     <g transform="translate(36.654687 164.358906)rotate(-90)scale(0.1 -0.1)">
      <defs>
       <path d="M 628 4666 
L 3309 4666 
L 3309 4134 
L 1259 4134 
L 1259 2759 
L 3109 2759 
L 3109 2228 
L 1259 2228 
L 1259 0 
L 628 0 
L 628 4666 
z
" id="DejaVuSans-46" transform="scale(0.015625)"/>
       <path id="DejaVuSans-20" transform="scale(0.015625)"/>
       <path d="M 3122 3366 
L 3122 2828 
Q 2878 2963 2633 3030 
Q 2388 3097 2138 3097 
Q 1578 3097 1268 2742 
Q 959 2388 959 1747 
Q 959 1106 1268 751 
Q 1578 397 2138 397 
Q 2388 397 2633 464 
Q 2878 531 3122 666 
L 3122 134 
Q 2881 22 2623 -34 
Q 2366 -91 2075 -91 
Q 1284 -91 818 406 
Q 353 903 353 1747 
Q 353 2603 823 3093 
Q 1294 3584 2113 3584 
Q 2378 3584 2631 3529 
Q 2884 3475 3122 3366 
z
" id="DejaVuSans-63" transform="scale(0.015625)"/>
      </defs>
      <use xlink:href="#DejaVuSans-46"/>
      <use x="57.519531" xlink:href="#DejaVuSans-31"/>
      <use x="121.142578" xlink:href="#DejaVuSans-20"/>
      <use x="152.929688" xlink:href="#DejaVuSans-73"/>
      <use x="205.029297" xlink:href="#DejaVuSans-63"/>
      <use x="260.009766" xlink:href="#DejaVuSans-6f"/>
      <use x="321.191406" xlink:href="#DejaVuSans-72"/>
      <use x="360.054688" xlink:href="#DejaVuSans-65"/>
     </g>
    </g>
   </g>
   <g id="line2d_15">
    <path clip-path="url(#p48235a7561)" d="M 92.290909 173.456908 
L 93.510803 170.441025 
L 93.917435 169.818689 
L 94.324066 169.76125 
L 95.543961 168.013453 
L 95.950592 167.581344 
L 96.763855 167.504529 
L 97.577118 166.917065 
L 97.983749 166.721793 
L 98.390381 166.70221 
L 98.797012 166.430922 
L 99.610275 166.137798 
L 101.643432 165.403065 
L 104.896484 164.612629 
L 105.709747 164.446765 
L 106.116378 164.255143 
L 106.929641 164.150603 
L 110.182693 163.291231 
L 110.995956 163.196958 
L 113.842376 162.487026 
L 116.282164 161.830861 
L 117.095427 161.652864 
L 117.502059 161.847449 
L 121.568373 160.713465 
L 122.381636 160.46069 
L 123.194899 160.155279 
L 123.60153 160.080896 
L 124.008162 160.333634 
L 126.854582 159.697411 
L 127.261213 159.937914 
L 128.481108 159.626221 
L 128.887739 159.900885 
L 130.514265 159.54483 
L 130.920896 159.792239 
L 131.734159 159.611056 
L 132.547422 159.481834 
L 134.173948 159.16908 
L 134.580579 159.394155 
L 135.800474 159.137795 
L 136.207105 158.923757 
L 137.426999 158.679188 
L 138.240262 158.35909 
L 141.899945 157.404121 
L 142.713208 157.140347 
L 144.339734 156.885163 
L 147.592786 156.125969 
L 148.406048 155.906566 
L 150.845837 155.4538 
L 151.252469 155.632678 
L 152.878994 155.030654 
L 153.692257 154.885565 
L 156.538677 154.212973 
L 160.19836 152.993786 
L 161.418255 152.644065 
L 163.451412 151.947827 
L 164.264675 152.469891 
L 164.671306 152.337932 
L 165.484569 152.822441 
L 165.891201 152.782324 
L 166.297832 152.896511 
L 167.924358 152.388399 
L 169.144252 152.050331 
L 169.957515 151.909694 
L 171.584041 151.431786 
L 176.87025 149.740022 
L 177.683512 149.449841 
L 178.496775 149.164063 
L 178.903407 149.001756 
L 179.310038 148.681731 
L 179.71667 148.675434 
L 181.749827 147.682601 
L 182.56309 147.482789 
L 182.969721 147.217219 
L 184.596247 146.80623 
L 185.002878 146.747227 
L 185.40951 146.398275 
L 188.662561 145.322416 
L 189.069193 144.976554 
L 190.289087 144.539018 
L 190.695719 144.798391 
L 191.10235 144.674795 
L 191.915613 144.302117 
L 194.355402 143.336638 
L 194.762033 143.315437 
L 195.981927 142.868117 
L 196.79519 142.710955 
L 197.608453 142.438316 
L 198.015085 142.323073 
L 198.421716 142.492799 
L 199.234979 142.239635 
L 199.64161 142.094391 
L 200.048242 142.293763 
L 202.894662 141.30222 
L 203.707925 140.765301 
L 204.114556 140.441904 
L 204.927819 140.729723 
L 206.147714 140.27395 
L 207.367608 139.505154 
L 208.180871 139.396595 
L 208.587502 139.163194 
L 208.994134 139.325875 
L 209.807397 138.942036 
L 211.433922 139.678277 
L 212.247185 139.362207 
L 213.060448 139.099978 
L 213.46708 139.202104 
L 213.873711 138.994116 
L 214.280343 138.921924 
L 214.686974 139.144611 
L 215.500237 138.822598 
L 215.906868 138.50669 
L 216.3135 138.335784 
L 216.720131 137.984069 
L 217.126763 137.860816 
L 217.533394 138.092852 
L 218.753288 137.721458 
L 219.15992 137.995884 
L 219.973183 137.421874 
L 220.379814 137.338159 
L 221.193077 136.858413 
L 221.599709 137.446053 
L 222.00634 137.141656 
L 222.412971 137.048292 
L 223.226234 136.681726 
L 224.85276 136.027548 
L 225.259392 136.272691 
L 225.666023 136.301979 
L 226.072654 135.996988 
L 226.479286 135.90077 
L 227.292549 135.355172 
L 227.69918 135.593832 
L 228.512443 135.265634 
L 229.325706 134.621146 
L 230.5456 134.132654 
L 230.952232 134.227041 
L 231.358863 134.071948 
L 231.765495 133.723655 
L 232.172126 133.835845 
L 233.39202 133.046832 
L 233.798652 132.577311 
L 235.018546 131.750638 
L 235.425178 132.031299 
L 236.238441 131.541263 
L 236.645072 131.405979 
L 237.458335 131.729248 
L 237.864966 132.07171 
L 238.271598 131.692749 
L 238.678229 131.634215 
L 240.304755 130.400494 
L 241.118018 130.150437 
L 241.931281 130.196339 
L 242.337912 129.832995 
L 242.744544 130.131439 
L 243.151175 129.867802 
L 243.557807 130.045543 
L 243.964438 129.841648 
L 244.371069 130.163121 
L 245.997595 128.998552 
L 247.21749 127.979378 
L 248.030752 127.350436 
L 248.437384 127.071069 
L 248.844015 127.843098 
L 249.250647 127.692795 
L 249.657278 127.806257 
L 250.470541 127.101442 
L 251.283804 126.839001 
L 251.690435 126.299447 
L 252.097067 126.875837 
L 253.316961 126.17532 
L 253.723593 126.454421 
L 254.130224 126.207855 
L 254.943487 125.35933 
L 255.350118 125.423042 
L 255.75675 125.11345 
L 256.163381 124.454442 
L 256.976644 123.823233 
L 257.383276 124.046687 
L 257.789907 124.129931 
L 259.009801 123.142448 
L 259.416433 123.355401 
L 260.229696 123.030259 
L 260.636327 122.557455 
L 261.042959 122.264628 
L 261.44959 122.673225 
L 262.262853 122.059878 
L 262.669484 121.614354 
L 263.889379 121.040237 
L 265.515905 119.387755 
L 265.922536 119.391668 
L 266.735799 118.93694 
L 267.14243 119.569212 
L 267.549062 119.321167 
L 267.955693 118.874782 
L 268.362325 119.245918 
L 268.768956 118.79686 
L 269.582219 118.451241 
L 269.98885 118.184059 
L 270.395482 118.195788 
L 270.802113 117.492462 
L 271.208745 117.383549 
L 271.615376 118.287407 
L 272.835271 117.165545 
L 273.648533 116.652656 
L 274.055165 116.205669 
L 274.461796 115.93876 
L 274.868428 116.394562 
L 275.681691 115.527809 
L 276.494954 115.958356 
L 277.308216 115.425192 
L 278.121479 114.594956 
L 278.528111 114.912947 
L 278.934742 114.397775 
L 279.341374 114.116358 
L 279.748005 114.027232 
L 280.154637 114.414831 
L 280.561268 114.408489 
L 280.967899 115.14877 
L 281.781162 114.622495 
L 282.187794 115.400085 
L 282.594425 115.143421 
L 283.001057 114.611709 
L 283.407688 114.382466 
L 284.220951 113.301677 
L 284.627582 113.570444 
L 285.034214 112.944002 
L 285.440845 113.323985 
L 286.254108 112.691875 
L 286.66074 112.325595 
L 287.067371 113.02829 
L 287.474003 112.820444 
L 287.880634 112.90172 
L 288.287265 113.225418 
L 288.693897 113.032154 
L 289.50716 112.138894 
L 289.913791 111.810999 
L 290.727054 110.867357 
L 291.133686 111.108744 
L 291.540317 111.041904 
L 292.760211 109.090633 
L 293.573474 108.728024 
L 294.386737 107.645837 
L 294.793369 107.275297 
L 295.606631 107.120774 
L 296.013263 106.331746 
L 296.419894 105.788462 
L 296.826526 105.768041 
L 297.233157 105.949368 
L 297.639789 105.911203 
L 298.453052 105.318442 
L 299.266314 105.945461 
L 300.89284 104.380928 
L 301.299472 104.562343 
L 301.706103 104.37087 
L 302.112735 104.802779 
L 302.519366 104.61092 
L 302.925997 104.07085 
L 303.332629 103.766166 
L 304.145892 102.801161 
L 304.552523 102.203669 
L 305.772418 101.106202 
L 306.58568 99.890419 
L 306.992312 100.901718 
L 307.805575 99.963068 
L 308.212206 99.841512 
L 309.025469 98.431581 
L 309.432101 97.716085 
L 309.838732 97.541556 
L 310.245363 97.081406 
L 310.651995 96.263498 
L 311.058626 95.92928 
L 311.465258 95.166018 
L 311.871889 94.872072 
L 312.278521 93.868393 
L 313.091784 92.734433 
L 313.498415 92.078632 
L 314.311678 92.80034 
L 314.718309 92.398636 
L 315.124941 92.525212 
L 315.531572 92.79623 
L 316.344835 91.812282 
L 317.564729 89.332178 
L 317.971361 89.032062 
L 318.377992 88.554459 
L 319.597887 86.225049 
L 320.004518 86.612962 
L 320.41115 85.855047 
L 320.817781 87.661959 
L 322.037675 85.73161 
L 322.444307 85.752288 
L 322.850938 84.476401 
L 323.25757 83.623401 
L 323.664201 83.854217 
L 324.884095 82.369634 
L 325.290727 83.592862 
L 325.697358 84.234956 
L 326.10399 83.58138 
L 326.510621 83.180894 
L 326.917253 82.48962 
L 327.323884 82.926837 
L 327.730516 82.22902 
L 328.137147 82.989595 
L 328.95041 83.586797 
L 329.357041 83.117341 
L 329.763673 83.477717 
L 330.170304 82.974947 
L 330.576936 81.959786 
L 330.983567 81.538005 
L 331.390199 80.870697 
L 331.79683 79.951744 
L 332.203461 81.161392 
L 333.016724 79.201183 
L 333.423356 80.490969 
L 334.236619 79.065422 
L 334.64325 78.915585 
L 335.049882 80.712363 
L 335.456513 81.470467 
L 335.863144 83.122346 
L 336.269776 82.519133 
L 336.676407 83.837182 
L 337.083039 82.910264 
L 337.48967 83.463589 
L 337.896302 82.428124 
L 338.302933 82.593533 
L 338.709565 81.870222 
L 339.116196 81.801348 
L 339.522827 82.266499 
L 340.33609 80.922093 
L 340.742722 80.981142 
L 341.149353 80.261635 
L 341.555985 80.089376 
L 341.962616 80.48984 
L 342.369248 79.865263 
L 342.775879 79.024947 
L 343.18251 79.918252 
L 343.589142 79.461158 
L 343.995773 79.759934 
L 344.402405 79.405289 
L 344.809036 79.634681 
L 345.622299 77.902698 
L 346.028931 77.6836 
L 346.435562 76.838282 
L 347.248825 75.872178 
L 347.655456 75.234364 
L 348.062088 76.755535 
L 348.468719 76.341662 
L 348.875351 77.693572 
L 349.281982 78.150359 
L 349.688614 79.68144 
L 350.501876 78.354048 
L 350.908508 77.662906 
L 351.315139 78.631084 
L 351.721771 77.548656 
L 352.128402 77.197682 
L 352.535034 79.311585 
L 352.941665 79.677227 
L 353.348297 79.734816 
L 353.754928 78.314569 
L 354.161559 77.434345 
L 354.568191 79.454799 
L 354.974822 78.249304 
L 355.381454 77.884163 
L 356.194717 75.575098 
L 356.601348 75.770802 
L 357.00798 74.925335 
L 358.227874 71.145289 
L 359.447768 70.117227 
L 359.8544 69.303993 
L 360.261031 70.719709 
L 360.667663 69.990168 
L 361.074294 70.431802 
L 361.480925 70.201785 
L 361.887557 71.154782 
L 362.294188 71.099313 
L 363.514083 68.366809 
L 363.920714 70.368911 
L 364.327346 69.170896 
L 364.733977 68.541299 
L 365.953871 71.097642 
L 366.360503 71.38045 
L 366.767134 74.69869 
L 367.173766 76.397324 
L 367.987029 75.137103 
L 368.800291 73.75833 
L 369.613554 72.709215 
L 370.020186 71.238755 
L 370.426817 70.7772 
L 370.833449 71.487236 
L 371.24008 69.508021 
L 371.646712 70.117664 
L 372.053343 69.800128 
L 372.459974 69.108095 
L 372.866606 71.093803 
L 373.273237 70.021898 
L 373.679869 69.317924 
L 374.0865 68.936471 
L 374.493132 68.22357 
L 374.899763 67.892556 
L 375.306395 66.105645 
L 375.713026 67.119171 
L 376.526289 64.779026 
L 376.93292 64.256933 
L 377.339552 62.553524 
L 377.746183 62.450437 
L 378.152815 65.431342 
L 378.559446 63.93907 
L 378.966078 63.213789 
L 379.372709 63.092335 
L 379.77934 62.604863 
L 380.185972 60.315333 
L 380.592603 62.578489 
L 380.999235 62.516063 
L 381.812498 59.532248 
L 382.219129 60.491168 
L 382.625761 59.517828 
L 383.032392 60.42174 
L 383.439024 60.350747 
L 384.252286 58.077005 
L 384.658918 62.558854 
L 385.065549 63.182061 
L 385.878812 60.946229 
L 386.285444 61.085686 
L 386.692075 59.195574 
L 387.505338 56.903693 
L 387.911969 56.248717 
L 388.318601 54.702274 
L 389.131864 50.837285 
L 389.538495 52.707004 
L 391.165021 49.71052 
L 391.571652 48.257791 
L 391.978284 45.870573 
L 392.384915 44.443636 
L 392.791547 45.338391 
L 393.198178 45.338391 
L 393.60481 48.016517 
L 394.011441 46.053326 
L 394.418073 45.534641 
L 394.824704 46.029905 
L 395.231335 45.680063 
L 396.044598 51.815666 
L 396.45123 50.069788 
L 397.264493 47.390069 
L 397.671124 51.561593 
L 398.484387 47.839466 
L 398.891018 48.864661 
L 399.29765 48.399442 
L 399.704281 49.906735 
L 400.110913 48.311245 
L 400.517544 52.230207 
L 400.924176 50.248293 
L 401.330807 49.193546 
L 401.737439 55.007523 
L 402.550701 51.633587 
L 402.957333 53.071264 
L 403.770596 56.498937 
L 404.177227 54.826708 
L 404.583859 61.557128 
L 404.99049 61.666456 
L 405.397122 60.38106 
L 405.803753 65.078503 
L 406.210384 66.724016 
L 406.617016 67.416094 
L 407.023647 64.00241 
L 407.430279 63.59201 
L 407.83691 64.161299 
L 408.243542 66.10462 
L 408.650173 68.833365 
L 409.463436 67.043686 
L 409.870067 67.697817 
L 410.276699 67.056198 
L 410.68333 69.398359 
L 411.089962 67.736544 
L 411.496593 67.287978 
L 412.309856 62.790414 
L 412.716488 62.829031 
L 413.123119 61.858599 
L 413.936382 65.755666 
L 414.343013 64.776564 
L 414.749645 74.114143 
L 415.156276 74.158031 
L 415.969539 72.960188 
L 416.376171 71.059557 
L 416.782802 67.261205 
L 417.189433 66.04787 
L 417.596065 68.904496 
L 418.002696 68.228942 
L 418.815959 79.878442 
L 419.222591 78.6923 
L 419.629222 78.025807 
L 420.035854 73.061723 
L 420.442485 71.194509 
L 420.849116 72.4995 
L 421.255748 70.26574 
L 421.662379 73.857568 
L 422.069011 70.05425 
L 422.475642 77.202419 
L 422.882274 74.897005 
L 423.288905 74.741017 
L 423.695537 74.114143 
L 424.102168 81.895787 
L 424.508799 80.97674 
L 424.915431 80.82254 
L 425.322062 84.821394 
L 425.728694 82.356439 
L 426.135325 80.616479 
L 426.541957 80.45642 
L 426.948588 76.180572 
L 427.35522 75.332229 
L 428.168482 72.381834 
L 428.575114 70.597033 
L 428.981745 68.219899 
L 429.388377 68.034311 
L 429.795008 87.786416 
L 430.608271 95.000347 
L 431.014903 99.033133 
L 431.421534 97.544405 
L 431.828165 97.544405 
L 432.234797 94.819845 
L 432.641428 94.122584 
L 433.04806 92.708067 
L 433.454691 92.529349 
L 434.267954 89.424369 
L 434.674586 88.67496 
L 435.081217 87.536952 
L 435.487848 84.21896 
L 435.89448 82.404047 
L 436.301111 79.072369 
L 436.707743 78.64611 
L 437.521006 71.509619 
L 438.334269 71.042842 
L 438.7409 71.042842 
L 439.147531 71.963332 
L 439.960794 71.963332 
L 440.367426 77.591265 
L 440.774057 98.40281 
L 441.58732 94.723397 
L 442.400583 92.69815 
L 442.807214 89.672547 
L 443.213846 96.094614 
L 443.620477 94.932021 
L 444.027109 101.575807 
L 444.43374 97.607054 
L 444.840372 103.413231 
L 445.247003 110.874503 
L 446.466897 110.874503 
L 446.873529 107.865431 
L 447.28016 107.865431 
L 447.686792 106.911605 
L 448.093423 106.911605 
L 448.500055 102.956804 
L 449.313318 139.721584 
L 450.12658 137.956157 
L 450.533212 133.806348 
L 450.939843 131.153858 
L 451.346475 130.240586 
L 451.753106 130.240586 
L 452.159738 129.312157 
L 452.566369 126.922237 
L 452.973001 125.937672 
L 453.379632 125.937672 
L 453.786263 124.428858 
L 454.192895 124.428858 
L 454.599526 140.249145 
L 455.006158 140.249145 
L 455.819421 133.644288 
L 456.226052 132.274691 
L 456.632684 158.036527 
L 457.039315 155.121759 
L 457.445946 154.889153 
L 457.852578 167.634682 
L 458.259209 167.634682 
L 458.665841 166.389863 
L 459.072472 166.389863 
L 459.479104 165.536606 
L 459.885735 165.320279 
L 460.292367 164.44261 
L 460.698998 164.44261 
L 461.512261 162.392569 
L 461.918892 162.392569 
L 462.325524 162.158087 
L 462.732155 160.231382 
L 463.545418 157.949757 
L 464.358681 157.949757 
L 464.765312 156.894376 
L 465.171944 154.702171 
L 465.578575 170.100963 
L 465.985207 170.100963 
L 466.391838 205.625338 
L 466.79847 205.625338 
L 467.205101 205.254243 
L 467.611733 205.254243 
L 468.018364 223.431955 
L 468.831627 223.431955 
L 469.238258 223.171546 
L 471.271416 223.171546 
L 471.678047 222.903774 
L 474.524467 222.903774 
L 474.931099 222.628325 
L 477.777519 222.628325 
L 478.18415 242.116364 
L 498.109091 242.116364 
L 498.109091 242.116364 
" style="fill:none;stroke:#1f77b4;stroke-linecap:square;stroke-width:1.5;"/>
   </g>
   <g id="patch_3">
    <path d="M 72 252 
L 72 34.56 
" style="fill:none;stroke:#000000;stroke-linecap:square;stroke-linejoin:miter;stroke-width:0.8;"/>
   </g>
   <g id="patch_4">
    <path d="M 518.4 252 
L 518.4 34.56 
" style="fill:none;stroke:#000000;stroke-linecap:square;stroke-linejoin:miter;stroke-width:0.8;"/>
   </g>
   <g id="patch_5">
    <path d="M 72 252 
L 518.4 252 
" style="fill:none;stroke:#000000;stroke-linecap:square;stroke-linejoin:miter;stroke-width:0.8;"/>
   </g>
   <g id="patch_6">
    <path d="M 72 34.56 
L 518.4 34.56 
" style="fill:none;stroke:#000000;stroke-linecap:square;stroke-linejoin:miter;stroke-width:0.8;"/>
   </g>
   <g id="text_17">
    <!-- TLAHUAC -->
    <g transform="translate(276.306875 28.56)scale(0.08 -0.08)">
     <defs>
      <path d="M 628 4666 
L 1259 4666 
L 1259 531 
L 3531 531 
L 3531 0 
L 628 0 
L 628 4666 
z
" id="DejaVuSans-4c" transform="scale(0.015625)"/>
      <path d="M 2188 4044 
L 1331 1722 
L 3047 1722 
L 2188 4044 
z
M 1831 4666 
L 2547 4666 
L 4325 0 
L 3669 0 
L 3244 1197 
L 1141 1197 
L 716 0 
L 50 0 
L 1831 4666 
z
" id="DejaVuSans-41" transform="scale(0.015625)"/>
      <path d="M 628 4666 
L 1259 4666 
L 1259 2753 
L 3553 2753 
L 3553 4666 
L 4184 4666 
L 4184 0 
L 3553 0 
L 3553 2222 
L 1259 2222 
L 1259 0 
L 628 0 
L 628 4666 
z
" id="DejaVuSans-48" transform="scale(0.015625)"/>
      <path d="M 556 4666 
L 1191 4666 
L 1191 1831 
Q 1191 1081 1462 751 
Q 1734 422 2344 422 
Q 2950 422 3222 751 
Q 3494 1081 3494 1831 
L 3494 4666 
L 4128 4666 
L 4128 1753 
Q 4128 841 3676 375 
Q 3225 -91 2344 -91 
Q 1459 -91 1007 375 
Q 556 841 556 1753 
L 556 4666 
z
" id="DejaVuSans-55" transform="scale(0.015625)"/>
      <path d="M 4122 4306 
L 4122 3641 
Q 3803 3938 3442 4084 
Q 3081 4231 2675 4231 
Q 1875 4231 1450 3742 
Q 1025 3253 1025 2328 
Q 1025 1406 1450 917 
Q 1875 428 2675 428 
Q 3081 428 3442 575 
Q 3803 722 4122 1019 
L 4122 359 
Q 3791 134 3420 21 
Q 3050 -91 2638 -91 
Q 1578 -91 968 557 
Q 359 1206 359 2328 
Q 359 3453 968 4101 
Q 1578 4750 2638 4750 
Q 3056 4750 3426 4639 
Q 3797 4528 4122 4306 
z
" id="DejaVuSans-43" transform="scale(0.015625)"/>
     </defs>
     <use xlink:href="#DejaVuSans-54"/>
     <use x="61.083984" xlink:href="#DejaVuSans-4c"/>
     <use x="119.046875" xlink:href="#DejaVuSans-41"/>
     <use x="187.455078" xlink:href="#DejaVuSans-48"/>
     <use x="262.650391" xlink:href="#DejaVuSans-55"/>
     <use x="335.84375" xlink:href="#DejaVuSans-41"/>
     <use x="402.501953" xlink:href="#DejaVuSans-43"/>
    </g>
   </g>
  </g>
  <g id="text_18">
   <!-- F1 score curve -->
   <g transform="translate(229.31625 17.9175)scale(0.16 -0.16)">
    <defs>
     <path d="M 544 1381 
L 544 3500 
L 1119 3500 
L 1119 1403 
Q 1119 906 1312 657 
Q 1506 409 1894 409 
Q 2359 409 2629 706 
Q 2900 1003 2900 1516 
L 2900 3500 
L 3475 3500 
L 3475 0 
L 2900 0 
L 2900 538 
Q 2691 219 2414 64 
Q 2138 -91 1772 -91 
Q 1169 -91 856 284 
Q 544 659 544 1381 
z
M 1991 3584 
L 1991 3584 
z
" id="DejaVuSans-75" transform="scale(0.015625)"/>
     <path d="M 191 3500 
L 800 3500 
L 1894 563 
L 2988 3500 
L 3597 3500 
L 2284 0 
L 1503 0 
L 191 3500 
z
" id="DejaVuSans-76" transform="scale(0.015625)"/>
    </defs>
    <use xlink:href="#DejaVuSans-46"/>
    <use x="57.519531" xlink:href="#DejaVuSans-31"/>
    <use x="121.142578" xlink:href="#DejaVuSans-20"/>
    <use x="152.929688" xlink:href="#DejaVuSans-73"/>
    <use x="205.029297" xlink:href="#DejaVuSans-63"/>
    <use x="260.009766" xlink:href="#DejaVuSans-6f"/>
    <use x="321.191406" xlink:href="#DejaVuSans-72"/>
    <use x="360.054688" xlink:href="#DejaVuSans-65"/>
    <use x="421.578125" xlink:href="#DejaVuSans-20"/>
    <use x="453.365234" xlink:href="#DejaVuSans-63"/>
    <use x="508.345703" xlink:href="#DejaVuSans-75"/>
    <use x="571.724609" xlink:href="#DejaVuSans-72"/>
    <use x="612.837891" xlink:href="#DejaVuSans-76"/>
    <use x="672.017578" xlink:href="#DejaVuSans-65"/>
   </g>
  </g>
 </g>
 <defs>
  <clipPath id="p48235a7561">
   <rect height="217.44" width="446.4" x="72" y="34.56"/>
  </clipPath>
 </defs>
</svg>
