<?xml version="1.0" encoding="utf-8" standalone="no"?>
<!DOCTYPE svg PUBLIC "-//W3C//DTD SVG 1.1//EN"
  "http://www.w3.org/Graphics/SVG/1.1/DTD/svg11.dtd">
<svg height="288pt" version="1.1" viewBox="0 0 576 288" width="576pt" xmlns="http://www.w3.org/2000/svg" xmlns:xlink="http://www.w3.org/1999/xlink">
 <metadata>
  <rdf:RDF xmlns:cc="http://creativecommons.org/ns#" xmlns:dc="http://purl.org/dc/elements/1.1/" xmlns:rdf="http://www.w3.org/1999/02/22-rdf-syntax-ns#">
   <cc:Work>
    <dc:type rdf:resource="http://purl.org/dc/dcmitype/StillImage"/>
    <dc:date>2022-01-04T18:33:47.534381</dc:date>
    <dc:format>image/svg+xml</dc:format>
    <dc:creator>
     <cc:Agent>
      <dc:title>Matplotlib v3.4.3, https://matplotlib.org/</dc:title>
     </cc:Agent>
    </dc:creator>
   </cc:Work>
  </rdf:RDF>
 </metadata>
 <defs>
  <style type="text/css">*{stroke-linecap:butt;stroke-linejoin:round;}</style>
 </defs>
 <g id="figure_1">
  <g id="patch_1">
   <path d="M 0 288 
L 576 288 
L 576 0 
L 0 0 
z
" style="fill:none;"/>
  </g>
  <g id="axes_1">
   <g id="patch_2">
    <path d="M 72 252 
L 518.4 252 
L 518.4 34.56 
L 72 34.56 
z
" style="fill:#ffffff;"/>
   </g>
   <g id="matplotlib.axis_1">
    <g id="xtick_1">
     <g id="line2d_1">
      <defs>
       <path d="M 0 0 
L 0 3.5 
" id="m75081e2920" style="stroke:#000000;stroke-width:0.8;"/>
      </defs>
      <g>
       <use style="stroke:#000000;stroke-width:0.8;" x="91.884278" xlink:href="#m75081e2920" y="252"/>
      </g>
     </g>
     <g id="text_1">
      <!-- 0.0 -->
      <g transform="translate(83.932715 266.598437)scale(0.1 -0.1)">
       <defs>
        <path d="M 2034 4250 
Q 1547 4250 1301 3770 
Q 1056 3291 1056 2328 
Q 1056 1369 1301 889 
Q 1547 409 2034 409 
Q 2525 409 2770 889 
Q 3016 1369 3016 2328 
Q 3016 3291 2770 3770 
Q 2525 4250 2034 4250 
z
M 2034 4750 
Q 2819 4750 3233 4129 
Q 3647 3509 3647 2328 
Q 3647 1150 3233 529 
Q 2819 -91 2034 -91 
Q 1250 -91 836 529 
Q 422 1150 422 2328 
Q 422 3509 836 4129 
Q 1250 4750 2034 4750 
z
" id="DejaVuSans-30" transform="scale(0.015625)"/>
        <path d="M 684 794 
L 1344 794 
L 1344 0 
L 684 0 
L 684 794 
z
" id="DejaVuSans-2e" transform="scale(0.015625)"/>
       </defs>
       <use xlink:href="#DejaVuSans-30"/>
       <use x="63.623047" xlink:href="#DejaVuSans-2e"/>
       <use x="95.410156" xlink:href="#DejaVuSans-30"/>
      </g>
     </g>
    </g>
    <g id="xtick_2">
     <g id="line2d_2">
      <g>
       <use style="stroke:#000000;stroke-width:0.8;" x="173.210567" xlink:href="#m75081e2920" y="252"/>
      </g>
     </g>
     <g id="text_2">
      <!-- 0.2 -->
      <g transform="translate(165.259004 266.598437)scale(0.1 -0.1)">
       <defs>
        <path d="M 1228 531 
L 3431 531 
L 3431 0 
L 469 0 
L 469 531 
Q 828 903 1448 1529 
Q 2069 2156 2228 2338 
Q 2531 2678 2651 2914 
Q 2772 3150 2772 3378 
Q 2772 3750 2511 3984 
Q 2250 4219 1831 4219 
Q 1534 4219 1204 4116 
Q 875 4013 500 3803 
L 500 4441 
Q 881 4594 1212 4672 
Q 1544 4750 1819 4750 
Q 2544 4750 2975 4387 
Q 3406 4025 3406 3419 
Q 3406 3131 3298 2873 
Q 3191 2616 2906 2266 
Q 2828 2175 2409 1742 
Q 1991 1309 1228 531 
z
" id="DejaVuSans-32" transform="scale(0.015625)"/>
       </defs>
       <use xlink:href="#DejaVuSans-30"/>
       <use x="63.623047" xlink:href="#DejaVuSans-2e"/>
       <use x="95.410156" xlink:href="#DejaVuSans-32"/>
      </g>
     </g>
    </g>
    <g id="xtick_3">
     <g id="line2d_3">
      <g>
       <use style="stroke:#000000;stroke-width:0.8;" x="254.536856" xlink:href="#m75081e2920" y="252"/>
      </g>
     </g>
     <g id="text_3">
      <!-- 0.4 -->
      <g transform="translate(246.585293 266.598437)scale(0.1 -0.1)">
       <defs>
        <path d="M 2419 4116 
L 825 1625 
L 2419 1625 
L 2419 4116 
z
M 2253 4666 
L 3047 4666 
L 3047 1625 
L 3713 1625 
L 3713 1100 
L 3047 1100 
L 3047 0 
L 2419 0 
L 2419 1100 
L 313 1100 
L 313 1709 
L 2253 4666 
z
" id="DejaVuSans-34" transform="scale(0.015625)"/>
       </defs>
       <use xlink:href="#DejaVuSans-30"/>
       <use x="63.623047" xlink:href="#DejaVuSans-2e"/>
       <use x="95.410156" xlink:href="#DejaVuSans-34"/>
      </g>
     </g>
    </g>
    <g id="xtick_4">
     <g id="line2d_4">
      <g>
       <use style="stroke:#000000;stroke-width:0.8;" x="335.863144" xlink:href="#m75081e2920" y="252"/>
      </g>
     </g>
     <g id="text_4">
      <!-- 0.6 -->
      <g transform="translate(327.911582 266.598437)scale(0.1 -0.1)">
       <defs>
        <path d="M 2113 2584 
Q 1688 2584 1439 2293 
Q 1191 2003 1191 1497 
Q 1191 994 1439 701 
Q 1688 409 2113 409 
Q 2538 409 2786 701 
Q 3034 994 3034 1497 
Q 3034 2003 2786 2293 
Q 2538 2584 2113 2584 
z
M 3366 4563 
L 3366 3988 
Q 3128 4100 2886 4159 
Q 2644 4219 2406 4219 
Q 1781 4219 1451 3797 
Q 1122 3375 1075 2522 
Q 1259 2794 1537 2939 
Q 1816 3084 2150 3084 
Q 2853 3084 3261 2657 
Q 3669 2231 3669 1497 
Q 3669 778 3244 343 
Q 2819 -91 2113 -91 
Q 1303 -91 875 529 
Q 447 1150 447 2328 
Q 447 3434 972 4092 
Q 1497 4750 2381 4750 
Q 2619 4750 2861 4703 
Q 3103 4656 3366 4563 
z
" id="DejaVuSans-36" transform="scale(0.015625)"/>
       </defs>
       <use xlink:href="#DejaVuSans-30"/>
       <use x="63.623047" xlink:href="#DejaVuSans-2e"/>
       <use x="95.410156" xlink:href="#DejaVuSans-36"/>
      </g>
     </g>
    </g>
    <g id="xtick_5">
     <g id="line2d_5">
      <g>
       <use style="stroke:#000000;stroke-width:0.8;" x="417.189433" xlink:href="#m75081e2920" y="252"/>
      </g>
     </g>
     <g id="text_5">
      <!-- 0.8 -->
      <g transform="translate(409.237871 266.598437)scale(0.1 -0.1)">
       <defs>
        <path d="M 2034 2216 
Q 1584 2216 1326 1975 
Q 1069 1734 1069 1313 
Q 1069 891 1326 650 
Q 1584 409 2034 409 
Q 2484 409 2743 651 
Q 3003 894 3003 1313 
Q 3003 1734 2745 1975 
Q 2488 2216 2034 2216 
z
M 1403 2484 
Q 997 2584 770 2862 
Q 544 3141 544 3541 
Q 544 4100 942 4425 
Q 1341 4750 2034 4750 
Q 2731 4750 3128 4425 
Q 3525 4100 3525 3541 
Q 3525 3141 3298 2862 
Q 3072 2584 2669 2484 
Q 3125 2378 3379 2068 
Q 3634 1759 3634 1313 
Q 3634 634 3220 271 
Q 2806 -91 2034 -91 
Q 1263 -91 848 271 
Q 434 634 434 1313 
Q 434 1759 690 2068 
Q 947 2378 1403 2484 
z
M 1172 3481 
Q 1172 3119 1398 2916 
Q 1625 2713 2034 2713 
Q 2441 2713 2670 2916 
Q 2900 3119 2900 3481 
Q 2900 3844 2670 4047 
Q 2441 4250 2034 4250 
Q 1625 4250 1398 4047 
Q 1172 3844 1172 3481 
z
" id="DejaVuSans-38" transform="scale(0.015625)"/>
       </defs>
       <use xlink:href="#DejaVuSans-30"/>
       <use x="63.623047" xlink:href="#DejaVuSans-2e"/>
       <use x="95.410156" xlink:href="#DejaVuSans-38"/>
      </g>
     </g>
    </g>
    <g id="xtick_6">
     <g id="line2d_6">
      <g>
       <use style="stroke:#000000;stroke-width:0.8;" x="498.515722" xlink:href="#m75081e2920" y="252"/>
      </g>
     </g>
     <g id="text_6">
      <!-- 1.0 -->
      <g transform="translate(490.56416 266.598437)scale(0.1 -0.1)">
       <defs>
        <path d="M 794 531 
L 1825 531 
L 1825 4091 
L 703 3866 
L 703 4441 
L 1819 4666 
L 2450 4666 
L 2450 531 
L 3481 531 
L 3481 0 
L 794 0 
L 794 531 
z
" id="DejaVuSans-31" transform="scale(0.015625)"/>
       </defs>
       <use xlink:href="#DejaVuSans-31"/>
       <use x="63.623047" xlink:href="#DejaVuSans-2e"/>
       <use x="95.410156" xlink:href="#DejaVuSans-30"/>
      </g>
     </g>
    </g>
    <g id="text_7">
     <!-- Thresholds -->
     <g transform="translate(267.957031 280.276563)scale(0.1 -0.1)">
      <defs>
       <path d="M -19 4666 
L 3928 4666 
L 3928 4134 
L 2272 4134 
L 2272 0 
L 1638 0 
L 1638 4134 
L -19 4134 
L -19 4666 
z
" id="DejaVuSans-54" transform="scale(0.015625)"/>
       <path d="M 3513 2113 
L 3513 0 
L 2938 0 
L 2938 2094 
Q 2938 2591 2744 2837 
Q 2550 3084 2163 3084 
Q 1697 3084 1428 2787 
Q 1159 2491 1159 1978 
L 1159 0 
L 581 0 
L 581 4863 
L 1159 4863 
L 1159 2956 
Q 1366 3272 1645 3428 
Q 1925 3584 2291 3584 
Q 2894 3584 3203 3211 
Q 3513 2838 3513 2113 
z
" id="DejaVuSans-68" transform="scale(0.015625)"/>
       <path d="M 2631 2963 
Q 2534 3019 2420 3045 
Q 2306 3072 2169 3072 
Q 1681 3072 1420 2755 
Q 1159 2438 1159 1844 
L 1159 0 
L 581 0 
L 581 3500 
L 1159 3500 
L 1159 2956 
Q 1341 3275 1631 3429 
Q 1922 3584 2338 3584 
Q 2397 3584 2469 3576 
Q 2541 3569 2628 3553 
L 2631 2963 
z
" id="DejaVuSans-72" transform="scale(0.015625)"/>
       <path d="M 3597 1894 
L 3597 1613 
L 953 1613 
Q 991 1019 1311 708 
Q 1631 397 2203 397 
Q 2534 397 2845 478 
Q 3156 559 3463 722 
L 3463 178 
Q 3153 47 2828 -22 
Q 2503 -91 2169 -91 
Q 1331 -91 842 396 
Q 353 884 353 1716 
Q 353 2575 817 3079 
Q 1281 3584 2069 3584 
Q 2775 3584 3186 3129 
Q 3597 2675 3597 1894 
z
M 3022 2063 
Q 3016 2534 2758 2815 
Q 2500 3097 2075 3097 
Q 1594 3097 1305 2825 
Q 1016 2553 972 2059 
L 3022 2063 
z
" id="DejaVuSans-65" transform="scale(0.015625)"/>
       <path d="M 2834 3397 
L 2834 2853 
Q 2591 2978 2328 3040 
Q 2066 3103 1784 3103 
Q 1356 3103 1142 2972 
Q 928 2841 928 2578 
Q 928 2378 1081 2264 
Q 1234 2150 1697 2047 
L 1894 2003 
Q 2506 1872 2764 1633 
Q 3022 1394 3022 966 
Q 3022 478 2636 193 
Q 2250 -91 1575 -91 
Q 1294 -91 989 -36 
Q 684 19 347 128 
L 347 722 
Q 666 556 975 473 
Q 1284 391 1588 391 
Q 1994 391 2212 530 
Q 2431 669 2431 922 
Q 2431 1156 2273 1281 
Q 2116 1406 1581 1522 
L 1381 1569 
Q 847 1681 609 1914 
Q 372 2147 372 2553 
Q 372 3047 722 3315 
Q 1072 3584 1716 3584 
Q 2034 3584 2315 3537 
Q 2597 3491 2834 3397 
z
" id="DejaVuSans-73" transform="scale(0.015625)"/>
       <path d="M 1959 3097 
Q 1497 3097 1228 2736 
Q 959 2375 959 1747 
Q 959 1119 1226 758 
Q 1494 397 1959 397 
Q 2419 397 2687 759 
Q 2956 1122 2956 1747 
Q 2956 2369 2687 2733 
Q 2419 3097 1959 3097 
z
M 1959 3584 
Q 2709 3584 3137 3096 
Q 3566 2609 3566 1747 
Q 3566 888 3137 398 
Q 2709 -91 1959 -91 
Q 1206 -91 779 398 
Q 353 888 353 1747 
Q 353 2609 779 3096 
Q 1206 3584 1959 3584 
z
" id="DejaVuSans-6f" transform="scale(0.015625)"/>
       <path d="M 603 4863 
L 1178 4863 
L 1178 0 
L 603 0 
L 603 4863 
z
" id="DejaVuSans-6c" transform="scale(0.015625)"/>
       <path d="M 2906 2969 
L 2906 4863 
L 3481 4863 
L 3481 0 
L 2906 0 
L 2906 525 
Q 2725 213 2448 61 
Q 2172 -91 1784 -91 
Q 1150 -91 751 415 
Q 353 922 353 1747 
Q 353 2572 751 3078 
Q 1150 3584 1784 3584 
Q 2172 3584 2448 3432 
Q 2725 3281 2906 2969 
z
M 947 1747 
Q 947 1113 1208 752 
Q 1469 391 1925 391 
Q 2381 391 2643 752 
Q 2906 1113 2906 1747 
Q 2906 2381 2643 2742 
Q 2381 3103 1925 3103 
Q 1469 3103 1208 2742 
Q 947 2381 947 1747 
z
" id="DejaVuSans-64" transform="scale(0.015625)"/>
      </defs>
      <use xlink:href="#DejaVuSans-54"/>
      <use x="61.083984" xlink:href="#DejaVuSans-68"/>
      <use x="124.462891" xlink:href="#DejaVuSans-72"/>
      <use x="163.326172" xlink:href="#DejaVuSans-65"/>
      <use x="224.849609" xlink:href="#DejaVuSans-73"/>
      <use x="276.949219" xlink:href="#DejaVuSans-68"/>
      <use x="340.328125" xlink:href="#DejaVuSans-6f"/>
      <use x="401.509766" xlink:href="#DejaVuSans-6c"/>
      <use x="429.292969" xlink:href="#DejaVuSans-64"/>
      <use x="492.769531" xlink:href="#DejaVuSans-73"/>
     </g>
    </g>
   </g>
   <g id="matplotlib.axis_2">
    <g id="ytick_1">
     <g id="line2d_7">
      <defs>
       <path d="M 0 0 
L -3.5 0 
" id="m317629f302" style="stroke:#000000;stroke-width:0.8;"/>
      </defs>
      <g>
       <use style="stroke:#000000;stroke-width:0.8;" x="72" xlink:href="#m317629f302" y="242.116364"/>
      </g>
     </g>
     <g id="text_8">
      <!-- 0.00 -->
      <g transform="translate(42.734375 245.915582)scale(0.1 -0.1)">
       <use xlink:href="#DejaVuSans-30"/>
       <use x="63.623047" xlink:href="#DejaVuSans-2e"/>
       <use x="95.410156" xlink:href="#DejaVuSans-30"/>
       <use x="159.033203" xlink:href="#DejaVuSans-30"/>
      </g>
     </g>
    </g>
    <g id="ytick_2">
     <g id="line2d_8">
      <g>
       <use style="stroke:#000000;stroke-width:0.8;" x="72" xlink:href="#m317629f302" y="194.734211"/>
      </g>
     </g>
     <g id="text_9">
      <!-- 0.02 -->
      <g transform="translate(42.734375 198.53343)scale(0.1 -0.1)">
       <use xlink:href="#DejaVuSans-30"/>
       <use x="63.623047" xlink:href="#DejaVuSans-2e"/>
       <use x="95.410156" xlink:href="#DejaVuSans-30"/>
       <use x="159.033203" xlink:href="#DejaVuSans-32"/>
      </g>
     </g>
    </g>
    <g id="ytick_3">
     <g id="line2d_9">
      <g>
       <use style="stroke:#000000;stroke-width:0.8;" x="72" xlink:href="#m317629f302" y="147.352058"/>
      </g>
     </g>
     <g id="text_10">
      <!-- 0.04 -->
      <g transform="translate(42.734375 151.151277)scale(0.1 -0.1)">
       <use xlink:href="#DejaVuSans-30"/>
       <use x="63.623047" xlink:href="#DejaVuSans-2e"/>
       <use x="95.410156" xlink:href="#DejaVuSans-30"/>
       <use x="159.033203" xlink:href="#DejaVuSans-34"/>
      </g>
     </g>
    </g>
    <g id="ytick_4">
     <g id="line2d_10">
      <g>
       <use style="stroke:#000000;stroke-width:0.8;" x="72" xlink:href="#m317629f302" y="99.969905"/>
      </g>
     </g>
     <g id="text_11">
      <!-- 0.06 -->
      <g transform="translate(42.734375 103.769124)scale(0.1 -0.1)">
       <use xlink:href="#DejaVuSans-30"/>
       <use x="63.623047" xlink:href="#DejaVuSans-2e"/>
       <use x="95.410156" xlink:href="#DejaVuSans-30"/>
       <use x="159.033203" xlink:href="#DejaVuSans-36"/>
      </g>
     </g>
    </g>
    <g id="ytick_5">
     <g id="line2d_11">
      <g>
       <use style="stroke:#000000;stroke-width:0.8;" x="72" xlink:href="#m317629f302" y="52.587753"/>
      </g>
     </g>
     <g id="text_12">
      <!-- 0.08 -->
      <g transform="translate(42.734375 56.386971)scale(0.1 -0.1)">
       <use xlink:href="#DejaVuSans-30"/>
       <use x="63.623047" xlink:href="#DejaVuSans-2e"/>
       <use x="95.410156" xlink:href="#DejaVuSans-30"/>
       <use x="159.033203" xlink:href="#DejaVuSans-38"/>
      </g>
     </g>
    </g>
    <g id="text_13">
     <!-- F1 score -->
     <g transform="translate(36.654687 164.358906)rotate(-90)scale(0.1 -0.1)">
      <defs>
       <path d="M 628 4666 
L 3309 4666 
L 3309 4134 
L 1259 4134 
L 1259 2759 
L 3109 2759 
L 3109 2228 
L 1259 2228 
L 1259 0 
L 628 0 
L 628 4666 
z
" id="DejaVuSans-46" transform="scale(0.015625)"/>
       <path id="DejaVuSans-20" transform="scale(0.015625)"/>
       <path d="M 3122 3366 
L 3122 2828 
Q 2878 2963 2633 3030 
Q 2388 3097 2138 3097 
Q 1578 3097 1268 2742 
Q 959 2388 959 1747 
Q 959 1106 1268 751 
Q 1578 397 2138 397 
Q 2388 397 2633 464 
Q 2878 531 3122 666 
L 3122 134 
Q 2881 22 2623 -34 
Q 2366 -91 2075 -91 
Q 1284 -91 818 406 
Q 353 903 353 1747 
Q 353 2603 823 3093 
Q 1294 3584 2113 3584 
Q 2378 3584 2631 3529 
Q 2884 3475 3122 3366 
z
" id="DejaVuSans-63" transform="scale(0.015625)"/>
      </defs>
      <use xlink:href="#DejaVuSans-46"/>
      <use x="57.519531" xlink:href="#DejaVuSans-31"/>
      <use x="121.142578" xlink:href="#DejaVuSans-20"/>
      <use x="152.929688" xlink:href="#DejaVuSans-73"/>
      <use x="205.029297" xlink:href="#DejaVuSans-63"/>
      <use x="260.009766" xlink:href="#DejaVuSans-6f"/>
      <use x="321.191406" xlink:href="#DejaVuSans-72"/>
      <use x="360.054688" xlink:href="#DejaVuSans-65"/>
     </g>
    </g>
   </g>
   <g id="line2d_12">
    <path clip-path="url(#p94b216e366)" d="M 92.290909 176.046269 
L 93.104172 174.35509 
L 93.510803 173.97376 
L 94.324066 173.906147 
L 95.543961 173.258103 
L 96.357224 173.119716 
L 100.830169 171.843698 
L 101.643432 171.648848 
L 102.050064 171.460568 
L 102.863327 171.281537 
L 105.709747 170.485524 
L 106.116378 170.325223 
L 106.929641 170.174784 
L 109.36943 169.561289 
L 109.776061 169.453525 
L 110.182693 169.548627 
L 110.589324 169.50544 
L 110.995956 169.33489 
L 111.402587 169.370511 
L 112.21585 168.999052 
L 113.029113 168.886323 
L 114.249007 168.476489 
L 115.06227 168.300638 
L 116.282164 167.977464 
L 117.095427 167.86156 
L 118.721953 167.402898 
L 119.941847 167.109374 
L 120.75511 167.232093 
L 121.568373 166.996973 
L 125.228056 165.921898 
L 130.107633 165.026128 
L 130.514265 165.061438 
L 132.140791 164.643536 
L 134.173948 164.173852 
L 138.646894 162.967847 
L 139.460157 163.360543 
L 141.086682 163.009042 
L 141.899945 163.008701 
L 142.713208 162.722544 
L 143.526471 162.577031 
L 146.372891 161.821138 
L 147.186154 161.628219 
L 147.999417 161.349053 
L 150.845837 160.405518 
L 151.252469 160.384533 
L 151.6591 160.489514 
L 152.472363 160.275574 
L 152.878994 160.081714 
L 153.692257 159.933055 
L 155.318783 159.422844 
L 156.945309 159.040538 
L 159.385097 158.353719 
L 160.19836 158.4762 
L 163.04478 157.558225 
L 163.451412 157.671666 
L 164.671306 157.243282 
L 167.111095 156.322758 
L 169.144252 155.809681 
L 169.550884 155.691317 
L 169.957515 156.006432 
L 171.177409 155.768768 
L 171.990672 155.545668 
L 174.430461 154.976265 
L 175.650355 154.539974 
L 176.056987 154.437406 
L 176.463618 154.20678 
L 176.87025 154.388172 
L 179.310038 153.359519 
L 179.71667 153.467052 
L 180.123301 153.40354 
L 180.529933 153.212458 
L 180.936564 153.230782 
L 182.156458 152.720389 
L 182.56309 152.590792 
L 182.969721 152.269508 
L 184.189616 151.884425 
L 184.596247 151.913105 
L 186.222773 151.068672 
L 187.036036 150.906658 
L 187.442667 151.105379 
L 188.25593 150.874422 
L 189.069193 150.454813 
L 190.289087 150.34592 
L 191.10235 150.003009 
L 191.915613 149.62002 
L 192.728876 149.442057 
L 193.94877 148.900796 
L 194.762033 148.517173 
L 195.575296 148.716383 
L 195.981927 149.037279 
L 197.608453 148.197329 
L 198.828348 147.948373 
L 200.048242 147.116438 
L 200.861505 146.687328 
L 201.268136 146.741457 
L 201.674768 146.425528 
L 202.081399 146.307795 
L 202.488031 145.963179 
L 202.894662 146.08867 
L 203.707925 145.772738 
L 204.114556 145.699936 
L 204.521188 145.768468 
L 205.334451 145.223508 
L 206.554345 144.709642 
L 206.960976 144.77711 
L 207.774239 144.402399 
L 208.587502 144.367314 
L 209.400765 143.890516 
L 210.62066 143.568232 
L 211.027291 143.414542 
L 211.433922 143.083587 
L 212.247185 142.822784 
L 213.060448 142.173184 
L 213.46708 142.096313 
L 213.873711 142.293657 
L 215.093605 141.977011 
L 216.720131 141.094141 
L 217.533394 140.620407 
L 217.940026 140.618544 
L 218.346657 140.423731 
L 219.15992 140.466454 
L 219.566551 140.198358 
L 219.973183 140.414007 
L 220.379814 140.360152 
L 221.599709 139.679085 
L 222.412971 139.405319 
L 222.819603 139.461143 
L 224.039497 138.455445 
L 224.446129 138.572197 
L 224.85276 138.221942 
L 225.666023 137.919832 
L 226.072654 137.815121 
L 226.479286 137.900455 
L 226.885917 137.722362 
L 227.69918 136.945698 
L 228.512443 136.82919 
L 230.5456 135.519845 
L 230.952232 135.892989 
L 231.358863 135.606187 
L 231.765495 135.629561 
L 232.172126 135.834174 
L 232.578758 135.700072 
L 232.985389 135.703608 
L 234.205283 134.711573 
L 235.018546 134.498745 
L 235.425178 134.609615 
L 236.238441 133.837087 
L 236.645072 133.71779 
L 238.271598 133.711648 
L 238.678229 133.837348 
L 239.084861 133.417413 
L 239.491492 133.812517 
L 239.898124 133.590905 
L 240.304755 133.823269 
L 240.711386 133.665208 
L 241.118018 133.325982 
L 241.524649 133.144677 
L 241.931281 133.126323 
L 242.744544 132.62113 
L 243.151175 132.615768 
L 243.557807 132.431013 
L 243.964438 132.469593 
L 244.371069 132.149641 
L 245.184332 131.805293 
L 245.590964 131.511652 
L 245.997595 131.510435 
L 246.404227 131.069531 
L 247.624121 130.192603 
L 248.030752 130.392431 
L 248.844015 129.885021 
L 249.250647 129.689775 
L 249.657278 129.365254 
L 250.470541 128.990005 
L 251.283804 129.229505 
L 251.690435 129.671546 
L 252.097067 129.220994 
L 252.503698 128.994361 
L 252.91033 129.504225 
L 253.723593 129.521721 
L 254.536856 129.195154 
L 254.943487 129.613947 
L 255.75675 128.888231 
L 256.163381 129.069824 
L 256.976644 128.603172 
L 257.383276 128.376799 
L 257.789907 128.441299 
L 258.60317 127.704249 
L 259.416433 127.381861 
L 259.823064 127.487865 
L 260.636327 127.11634 
L 261.042959 127.257045 
L 261.44959 127.25924 
L 262.669484 126.294128 
L 263.889379 125.749386 
L 264.29601 125.42597 
L 265.109273 125.322901 
L 265.922536 124.758901 
L 266.329167 124.679754 
L 266.735799 124.331906 
L 267.14243 124.202044 
L 268.362325 123.266068 
L 268.768956 123.105472 
L 269.175588 123.21747 
L 269.582219 123.528375 
L 269.98885 123.385967 
L 271.208745 122.476046 
L 271.615376 122.336493 
L 272.022008 121.829694 
L 272.428639 121.931636 
L 272.835271 122.489881 
L 273.241902 122.486041 
L 273.648533 121.983807 
L 274.055165 121.928634 
L 274.461796 122.062222 
L 275.275059 121.342197 
L 275.681691 121.150748 
L 276.494954 120.419715 
L 276.901585 120.470264 
L 278.934742 118.961658 
L 279.341374 118.761269 
L 279.748005 118.188166 
L 280.154637 118.578333 
L 280.561268 118.592823 
L 281.781162 117.676716 
L 282.187794 117.240889 
L 282.594425 117.207349 
L 283.001057 116.855121 
L 283.407688 116.678261 
L 284.220951 116.728907 
L 284.627582 117.081887 
L 285.034214 116.55578 
L 285.440845 116.319277 
L 287.880634 113.797856 
L 288.287265 113.573647 
L 288.693897 113.182363 
L 289.50716 112.728832 
L 290.320423 111.617483 
L 290.727054 111.731181 
L 291.540317 110.536569 
L 292.35358 109.861993 
L 292.760211 110.637328 
L 293.166843 110.764401 
L 293.573474 110.549856 
L 293.980106 109.927522 
L 295.2 109.65013 
L 295.606631 109.260524 
L 296.013263 109.112192 
L 296.826526 108.05587 
L 298.04642 107.648361 
L 298.453052 107.912302 
L 298.859683 107.384945 
L 299.266314 107.678331 
L 299.672946 107.362006 
L 300.486209 106.473912 
L 300.89284 106.836813 
L 301.299472 106.809074 
L 301.706103 106.456895 
L 302.112735 107.05091 
L 302.925997 106.996156 
L 303.332629 106.192211 
L 303.73926 105.989728 
L 304.552523 107.028983 
L 304.959155 106.884587 
L 305.365786 107.076201 
L 305.772418 106.95903 
L 306.179049 106.370109 
L 306.58568 106.857238 
L 307.398943 106.693967 
L 307.805575 107.397775 
L 308.212206 107.205552 
L 308.618838 107.342812 
L 309.025469 107.101849 
L 309.432101 106.297468 
L 309.838732 106.357009 
L 311.058626 104.619885 
L 311.465258 104.642916 
L 311.871889 104.83995 
L 313.091784 103.47192 
L 313.498415 103.458536 
L 314.311678 102.510728 
L 314.718309 102.823169 
L 315.124941 103.469884 
L 315.531572 102.57357 
L 315.938204 102.940876 
L 316.344835 103.982633 
L 316.751467 103.498364 
L 317.158098 103.2129 
L 317.564729 103.470708 
L 317.971361 104.01996 
L 318.377992 104.268878 
L 318.784624 103.740073 
L 319.191255 104.041348 
L 319.597887 103.263217 
L 320.004518 103.509439 
L 320.41115 102.792265 
L 320.817781 102.544761 
L 321.224412 103.327505 
L 321.631044 102.001268 
L 322.037675 101.620274 
L 322.444307 100.55716 
L 322.850938 100.305773 
L 323.25757 100.201221 
L 323.664201 100.733625 
L 324.070833 100.412729 
L 324.477464 101.389905 
L 324.884095 101.421619 
L 325.697358 100.079661 
L 326.10399 99.88586 
L 326.510621 99.066088 
L 327.323884 98.753292 
L 327.730516 98.413678 
L 328.137147 98.695049 
L 329.357041 96.179603 
L 329.763673 96.597123 
L 330.170304 96.220239 
L 330.576936 95.672391 
L 330.983567 95.658687 
L 331.390199 95.430961 
L 331.79683 94.308589 
L 332.203461 95.775741 
L 332.610093 94.905572 
L 333.016724 94.598564 
L 333.423356 94.069273 
L 333.829987 92.976756 
L 334.236619 93.106872 
L 334.64325 92.168258 
L 335.456513 93.221983 
L 335.863144 91.896514 
L 336.269776 91.023417 
L 336.676407 91.12733 
L 337.083039 91.660828 
L 337.48967 91.091472 
L 337.896302 89.791859 
L 338.302933 89.844193 
L 339.116196 88.737881 
L 339.522827 88.53392 
L 339.929459 88.504438 
L 340.33609 88.118414 
L 341.555985 86.248706 
L 341.962616 86.232653 
L 342.369248 86.698346 
L 342.775879 85.90243 
L 343.18251 86.941888 
L 343.589142 85.598742 
L 343.995773 84.988104 
L 344.402405 85.24416 
L 344.809036 84.655574 
L 345.215668 84.516611 
L 345.622299 85.552242 
L 346.028931 84.58202 
L 346.435562 84.175855 
L 346.842193 83.357207 
L 347.248825 84.647671 
L 347.655456 84.323601 
L 348.062088 85.783846 
L 348.468719 85.340475 
L 348.875351 86.099759 
L 349.688614 83.380647 
L 350.095245 83.004098 
L 350.501876 82.25504 
L 350.908508 80.703603 
L 351.315139 80.650678 
L 351.721771 80.272563 
L 352.128402 80.520715 
L 352.535034 80.126098 
L 352.941665 79.430861 
L 353.348297 79.535318 
L 353.754928 77.984036 
L 354.161559 77.876703 
L 354.568191 77.429652 
L 354.974822 78.521979 
L 355.381454 77.440652 
L 355.788085 76.735402 
L 356.194717 75.234538 
L 356.601348 74.909373 
L 357.00798 75.212499 
L 357.414611 74.860793 
L 357.821242 75.070637 
L 358.227874 75.844616 
L 359.447768 74.516325 
L 361.074294 71.109766 
L 361.480925 74.569855 
L 361.887557 74.991516 
L 362.294188 75.982975 
L 363.514083 73.595187 
L 363.920714 72.521014 
L 364.327346 70.629148 
L 364.733977 69.688789 
L 365.140608 68.389736 
L 365.54724 68.621107 
L 365.953871 69.224099 
L 366.360503 68.573271 
L 366.767134 69.036479 
L 367.173766 72.407738 
L 367.580397 71.731044 
L 367.987029 71.631539 
L 368.39366 70.48796 
L 368.800291 69.887214 
L 370.020186 64.728937 
L 370.426817 65.64405 
L 370.833449 64.500064 
L 371.24008 63.796434 
L 371.646712 62.321034 
L 372.053343 61.76907 
L 372.459974 61.678515 
L 372.866606 62.481489 
L 373.273237 61.055815 
L 373.679869 60.58094 
L 374.0865 60.701429 
L 375.306395 58.975699 
L 375.713026 60.275341 
L 376.119657 57.62745 
L 376.526289 60.691401 
L 376.93292 59.467526 
L 377.339552 58.760726 
L 377.746183 57.809773 
L 378.152815 60.6528 
L 378.559446 58.792558 
L 378.966078 58.549745 
L 379.372709 58.783151 
L 379.77934 58.588322 
L 380.185972 59.012451 
L 380.592603 57.067874 
L 380.999235 58.123812 
L 381.405866 56.786379 
L 381.812498 56.013365 
L 382.219129 55.978128 
L 382.625761 53.530681 
L 383.032392 53.262232 
L 383.439024 54.700441 
L 383.845655 53.820236 
L 384.252286 53.634872 
L 384.658918 50.887945 
L 385.065549 50.529973 
L 385.878812 47.986148 
L 386.285444 48.164935 
L 386.692075 45.84797 
L 387.098707 46.936841 
L 387.505338 48.758133 
L 387.911969 48.487374 
L 388.318601 46.369925 
L 389.131864 47.528467 
L 389.538495 46.806583 
L 389.945127 44.443636 
L 390.351758 44.607601 
L 390.75839 45.025915 
L 391.571652 47.311796 
L 391.978284 45.203521 
L 392.384915 45.638646 
L 393.198178 51.918927 
L 393.60481 50.821958 
L 394.011441 57.096288 
L 394.418073 60.28869 
L 395.231335 58.380826 
L 396.044598 54.179687 
L 396.857861 51.240393 
L 397.264493 51.589756 
L 397.671124 51.20769 
L 398.077756 49.052118 
L 398.484387 51.363164 
L 398.891018 51.155547 
L 399.704281 49.267829 
L 400.110913 51.796814 
L 400.517544 52.087677 
L 400.924176 51.584956 
L 401.330807 51.484092 
L 401.737439 56.154151 
L 402.14407 55.286408 
L 402.957333 51.528934 
L 403.363964 52.907542 
L 403.770596 53.019973 
L 404.177227 54.573501 
L 404.583859 53.696107 
L 404.99049 54.857556 
L 405.397122 55.572455 
L 405.803753 54.091948 
L 406.210384 51.296046 
L 406.617016 53.413329 
L 407.023647 53.783517 
L 407.430279 55.832694 
L 407.83691 62.569349 
L 408.650173 60.351278 
L 409.056805 60.838998 
L 409.463436 59.877315 
L 409.870067 62.832543 
L 410.276699 61.612925 
L 410.68333 61.76907 
L 411.089962 61.0171 
L 411.496593 67.373673 
L 411.903225 76.041579 
L 412.309856 75.445475 
L 412.716488 74.482755 
L 413.123119 76.949818 
L 413.52975 76.105902 
L 414.343013 71.881084 
L 415.156276 69.556172 
L 415.562908 71.598662 
L 415.969539 70.811658 
L 416.376171 71.570274 
L 416.782802 70.360727 
L 417.189433 70.225273 
L 418.002696 75.331186 
L 418.409328 75.795338 
L 419.222591 71.619914 
L 419.629222 71.47712 
L 420.442485 69.159439 
L 420.849116 67.079201 
L 421.255748 71.407378 
L 421.662379 74.391929 
L 422.069011 75.93795 
L 422.475642 71.959462 
L 422.882274 71.330416 
L 423.288905 72.735197 
L 423.695537 72.735197 
L 424.102168 73.220444 
L 424.508799 74.885236 
L 424.915431 77.431622 
L 425.322062 80.855784 
L 425.728694 80.855784 
L 426.135325 80.6942 
L 426.948588 77.896874 
L 427.35522 76.716652 
L 427.761851 76.546662 
L 428.168482 84.831209 
L 428.575114 88.471308 
L 428.981745 86.847153 
L 429.388377 89.762175 
L 429.795008 89.762175 
L 430.20164 89.598705 
L 430.608271 88.941301 
L 431.014903 92.434182 
L 431.421534 90.451636 
L 431.828165 90.451636 
L 432.234797 93.715885 
L 432.641428 92.375926 
L 433.454691 88.206819 
L 433.861323 87.489292 
L 434.267954 90.717769 
L 434.674586 95.631706 
L 435.081217 94.755602 
L 435.487848 93.151917 
L 436.301111 91.696831 
L 436.707743 88.124367 
L 437.114374 86.568893 
L 437.521006 89.27071 
L 437.927637 89.27071 
L 438.7409 84.386161 
L 439.147531 83.735909 
L 439.554163 86.875692 
L 440.367426 85.086174 
L 440.774057 85.086174 
L 441.180689 91.042833 
L 441.58732 89.046267 
L 442.807214 89.046267 
L 443.213846 94.26715 
L 444.027109 94.26715 
L 444.43374 92.488513 
L 444.840372 99.183776 
L 445.653635 93.58297 
L 446.466897 91.696831 
L 446.873529 91.45769 
L 447.28016 88.527538 
L 447.686792 88.278205 
L 448.093423 88.278205 
L 448.500055 100.911273 
L 449.313318 100.911273 
L 449.719949 106.965928 
L 451.346475 103.476674 
L 451.753106 102.029999 
L 452.159738 102.029999 
L 452.566369 108.880082 
L 452.973001 108.645511 
L 453.379632 108.645511 
L 453.786263 116.1 
L 455.819421 116.1 
L 456.226052 114.286815 
L 456.632684 114.286815 
L 457.039315 113.360514 
L 457.852578 112.892311 
L 458.259209 112.892311 
L 459.072472 110.742558 
L 460.292367 110.742558 
L 460.698998 126.550137 
L 461.512261 125.012184 
L 462.325524 125.012184 
L 462.732155 123.203625 
L 463.545418 123.203625 
L 463.95205 140.714869 
L 464.358681 140.714869 
L 464.765312 184.91457 
L 465.171944 193.268784 
L 465.985207 193.268784 
L 466.391838 202.713326 
L 467.205101 202.631236 
L 467.611733 222.03918 
L 468.018364 221.693022 
L 468.424995 221.693022 
L 470.051521 220.579021 
L 470.458153 220.381431 
L 472.49131 220.381431 
L 472.897941 220.129286 
L 473.304573 220.129286 
L 473.711204 219.871222 
L 474.524467 219.871222 
L 474.931099 230.888365 
L 479.404044 230.78092 
L 479.810676 242.116364 
L 498.109091 242.116364 
L 498.109091 242.116364 
" style="fill:none;stroke:#1f77b4;stroke-linecap:square;stroke-width:1.5;"/>
   </g>
   <g id="patch_3">
    <path d="M 72 252 
L 72 34.56 
" style="fill:none;stroke:#000000;stroke-linecap:square;stroke-linejoin:miter;stroke-width:0.8;"/>
   </g>
   <g id="patch_4">
    <path d="M 518.4 252 
L 518.4 34.56 
" style="fill:none;stroke:#000000;stroke-linecap:square;stroke-linejoin:miter;stroke-width:0.8;"/>
   </g>
   <g id="patch_5">
    <path d="M 72 252 
L 518.4 252 
" style="fill:none;stroke:#000000;stroke-linecap:square;stroke-linejoin:miter;stroke-width:0.8;"/>
   </g>
   <g id="patch_6">
    <path d="M 72 34.56 
L 518.4 34.56 
" style="fill:none;stroke:#000000;stroke-linecap:square;stroke-linejoin:miter;stroke-width:0.8;"/>
   </g>
   <g id="text_14">
    <!-- VENUSTIANO CARRANZA -->
    <g transform="translate(245.571875 28.56)scale(0.08 -0.08)">
     <defs>
      <path d="M 1831 0 
L 50 4666 
L 709 4666 
L 2188 738 
L 3669 4666 
L 4325 4666 
L 2547 0 
L 1831 0 
z
" id="DejaVuSans-56" transform="scale(0.015625)"/>
      <path d="M 628 4666 
L 3578 4666 
L 3578 4134 
L 1259 4134 
L 1259 2753 
L 3481 2753 
L 3481 2222 
L 1259 2222 
L 1259 531 
L 3634 531 
L 3634 0 
L 628 0 
L 628 4666 
z
" id="DejaVuSans-45" transform="scale(0.015625)"/>
      <path d="M 628 4666 
L 1478 4666 
L 3547 763 
L 3547 4666 
L 4159 4666 
L 4159 0 
L 3309 0 
L 1241 3903 
L 1241 0 
L 628 0 
L 628 4666 
z
" id="DejaVuSans-4e" transform="scale(0.015625)"/>
      <path d="M 556 4666 
L 1191 4666 
L 1191 1831 
Q 1191 1081 1462 751 
Q 1734 422 2344 422 
Q 2950 422 3222 751 
Q 3494 1081 3494 1831 
L 3494 4666 
L 4128 4666 
L 4128 1753 
Q 4128 841 3676 375 
Q 3225 -91 2344 -91 
Q 1459 -91 1007 375 
Q 556 841 556 1753 
L 556 4666 
z
" id="DejaVuSans-55" transform="scale(0.015625)"/>
      <path d="M 3425 4513 
L 3425 3897 
Q 3066 4069 2747 4153 
Q 2428 4238 2131 4238 
Q 1616 4238 1336 4038 
Q 1056 3838 1056 3469 
Q 1056 3159 1242 3001 
Q 1428 2844 1947 2747 
L 2328 2669 
Q 3034 2534 3370 2195 
Q 3706 1856 3706 1288 
Q 3706 609 3251 259 
Q 2797 -91 1919 -91 
Q 1588 -91 1214 -16 
Q 841 59 441 206 
L 441 856 
Q 825 641 1194 531 
Q 1563 422 1919 422 
Q 2459 422 2753 634 
Q 3047 847 3047 1241 
Q 3047 1584 2836 1778 
Q 2625 1972 2144 2069 
L 1759 2144 
Q 1053 2284 737 2584 
Q 422 2884 422 3419 
Q 422 4038 858 4394 
Q 1294 4750 2059 4750 
Q 2388 4750 2728 4690 
Q 3069 4631 3425 4513 
z
" id="DejaVuSans-53" transform="scale(0.015625)"/>
      <path d="M 628 4666 
L 1259 4666 
L 1259 0 
L 628 0 
L 628 4666 
z
" id="DejaVuSans-49" transform="scale(0.015625)"/>
      <path d="M 2188 4044 
L 1331 1722 
L 3047 1722 
L 2188 4044 
z
M 1831 4666 
L 2547 4666 
L 4325 0 
L 3669 0 
L 3244 1197 
L 1141 1197 
L 716 0 
L 50 0 
L 1831 4666 
z
" id="DejaVuSans-41" transform="scale(0.015625)"/>
      <path d="M 2522 4238 
Q 1834 4238 1429 3725 
Q 1025 3213 1025 2328 
Q 1025 1447 1429 934 
Q 1834 422 2522 422 
Q 3209 422 3611 934 
Q 4013 1447 4013 2328 
Q 4013 3213 3611 3725 
Q 3209 4238 2522 4238 
z
M 2522 4750 
Q 3503 4750 4090 4092 
Q 4678 3434 4678 2328 
Q 4678 1225 4090 567 
Q 3503 -91 2522 -91 
Q 1538 -91 948 565 
Q 359 1222 359 2328 
Q 359 3434 948 4092 
Q 1538 4750 2522 4750 
z
" id="DejaVuSans-4f" transform="scale(0.015625)"/>
      <path d="M 4122 4306 
L 4122 3641 
Q 3803 3938 3442 4084 
Q 3081 4231 2675 4231 
Q 1875 4231 1450 3742 
Q 1025 3253 1025 2328 
Q 1025 1406 1450 917 
Q 1875 428 2675 428 
Q 3081 428 3442 575 
Q 3803 722 4122 1019 
L 4122 359 
Q 3791 134 3420 21 
Q 3050 -91 2638 -91 
Q 1578 -91 968 557 
Q 359 1206 359 2328 
Q 359 3453 968 4101 
Q 1578 4750 2638 4750 
Q 3056 4750 3426 4639 
Q 3797 4528 4122 4306 
z
" id="DejaVuSans-43" transform="scale(0.015625)"/>
      <path d="M 2841 2188 
Q 3044 2119 3236 1894 
Q 3428 1669 3622 1275 
L 4263 0 
L 3584 0 
L 2988 1197 
Q 2756 1666 2539 1819 
Q 2322 1972 1947 1972 
L 1259 1972 
L 1259 0 
L 628 0 
L 628 4666 
L 2053 4666 
Q 2853 4666 3247 4331 
Q 3641 3997 3641 3322 
Q 3641 2881 3436 2590 
Q 3231 2300 2841 2188 
z
M 1259 4147 
L 1259 2491 
L 2053 2491 
Q 2509 2491 2742 2702 
Q 2975 2913 2975 3322 
Q 2975 3731 2742 3939 
Q 2509 4147 2053 4147 
L 1259 4147 
z
" id="DejaVuSans-52" transform="scale(0.015625)"/>
      <path d="M 359 4666 
L 4025 4666 
L 4025 4184 
L 1075 531 
L 4097 531 
L 4097 0 
L 288 0 
L 288 481 
L 3238 4134 
L 359 4134 
L 359 4666 
z
" id="DejaVuSans-5a" transform="scale(0.015625)"/>
     </defs>
     <use xlink:href="#DejaVuSans-56"/>
     <use x="68.408203" xlink:href="#DejaVuSans-45"/>
     <use x="131.591797" xlink:href="#DejaVuSans-4e"/>
     <use x="206.396484" xlink:href="#DejaVuSans-55"/>
     <use x="279.589844" xlink:href="#DejaVuSans-53"/>
     <use x="343.066406" xlink:href="#DejaVuSans-54"/>
     <use x="404.150391" xlink:href="#DejaVuSans-49"/>
     <use x="433.642578" xlink:href="#DejaVuSans-41"/>
     <use x="502.050781" xlink:href="#DejaVuSans-4e"/>
     <use x="576.855469" xlink:href="#DejaVuSans-4f"/>
     <use x="655.566406" xlink:href="#DejaVuSans-20"/>
     <use x="687.353516" xlink:href="#DejaVuSans-43"/>
     <use x="757.177734" xlink:href="#DejaVuSans-41"/>
     <use x="825.585938" xlink:href="#DejaVuSans-52"/>
     <use x="895.068359" xlink:href="#DejaVuSans-52"/>
     <use x="960.550781" xlink:href="#DejaVuSans-41"/>
     <use x="1028.958984" xlink:href="#DejaVuSans-4e"/>
     <use x="1103.763672" xlink:href="#DejaVuSans-5a"/>
     <use x="1172.269531" xlink:href="#DejaVuSans-41"/>
    </g>
   </g>
  </g>
  <g id="text_15">
   <!-- F1 score curve -->
   <g transform="translate(229.31625 17.9175)scale(0.16 -0.16)">
    <defs>
     <path d="M 544 1381 
L 544 3500 
L 1119 3500 
L 1119 1403 
Q 1119 906 1312 657 
Q 1506 409 1894 409 
Q 2359 409 2629 706 
Q 2900 1003 2900 1516 
L 2900 3500 
L 3475 3500 
L 3475 0 
L 2900 0 
L 2900 538 
Q 2691 219 2414 64 
Q 2138 -91 1772 -91 
Q 1169 -91 856 284 
Q 544 659 544 1381 
z
M 1991 3584 
L 1991 3584 
z
" id="DejaVuSans-75" transform="scale(0.015625)"/>
     <path d="M 191 3500 
L 800 3500 
L 1894 563 
L 2988 3500 
L 3597 3500 
L 2284 0 
L 1503 0 
L 191 3500 
z
" id="DejaVuSans-76" transform="scale(0.015625)"/>
    </defs>
    <use xlink:href="#DejaVuSans-46"/>
    <use x="57.519531" xlink:href="#DejaVuSans-31"/>
    <use x="121.142578" xlink:href="#DejaVuSans-20"/>
    <use x="152.929688" xlink:href="#DejaVuSans-73"/>
    <use x="205.029297" xlink:href="#DejaVuSans-63"/>
    <use x="260.009766" xlink:href="#DejaVuSans-6f"/>
    <use x="321.191406" xlink:href="#DejaVuSans-72"/>
    <use x="360.054688" xlink:href="#DejaVuSans-65"/>
    <use x="421.578125" xlink:href="#DejaVuSans-20"/>
    <use x="453.365234" xlink:href="#DejaVuSans-63"/>
    <use x="508.345703" xlink:href="#DejaVuSans-75"/>
    <use x="571.724609" xlink:href="#DejaVuSans-72"/>
    <use x="612.837891" xlink:href="#DejaVuSans-76"/>
    <use x="672.017578" xlink:href="#DejaVuSans-65"/>
   </g>
  </g>
 </g>
 <defs>
  <clipPath id="p94b216e366">
   <rect height="217.44" width="446.4" x="72" y="34.56"/>
  </clipPath>
 </defs>
</svg>
