<?xml version="1.0" encoding="utf-8" standalone="no"?>
<!DOCTYPE svg PUBLIC "-//W3C//DTD SVG 1.1//EN"
  "http://www.w3.org/Graphics/SVG/1.1/DTD/svg11.dtd">
<svg height="288pt" version="1.1" viewBox="0 0 576 288" width="576pt" xmlns="http://www.w3.org/2000/svg" xmlns:xlink="http://www.w3.org/1999/xlink">
 <metadata>
  <rdf:RDF xmlns:cc="http://creativecommons.org/ns#" xmlns:dc="http://purl.org/dc/elements/1.1/" xmlns:rdf="http://www.w3.org/1999/02/22-rdf-syntax-ns#">
   <cc:Work>
    <dc:type rdf:resource="http://purl.org/dc/dcmitype/StillImage"/>
    <dc:date>2022-01-04T18:42:20.494744</dc:date>
    <dc:format>image/svg+xml</dc:format>
    <dc:creator>
     <cc:Agent>
      <dc:title>Matplotlib v3.4.3, https://matplotlib.org/</dc:title>
     </cc:Agent>
    </dc:creator>
   </cc:Work>
  </rdf:RDF>
 </metadata>
 <defs>
  <style type="text/css">*{stroke-linecap:butt;stroke-linejoin:round;}</style>
 </defs>
 <g id="figure_1">
  <g id="patch_1">
   <path d="M 0 288 
L 576 288 
L 576 0 
L 0 0 
z
" style="fill:none;"/>
  </g>
  <g id="axes_1">
   <g id="patch_2">
    <path d="M 72 252 
L 518.4 252 
L 518.4 34.56 
L 72 34.56 
z
" style="fill:#ffffff;"/>
   </g>
   <g id="matplotlib.axis_1">
    <g id="xtick_1">
     <g id="line2d_1">
      <defs>
       <path d="M 0 0 
L 0 3.5 
" id="mc5dc17ab42" style="stroke:#000000;stroke-width:0.8;"/>
      </defs>
      <g>
       <use style="stroke:#000000;stroke-width:0.8;" x="91.884278" xlink:href="#mc5dc17ab42" y="252"/>
      </g>
     </g>
     <g id="text_1">
      <!-- 0.0 -->
      <g transform="translate(83.932715 266.598437)scale(0.1 -0.1)">
       <defs>
        <path d="M 2034 4250 
Q 1547 4250 1301 3770 
Q 1056 3291 1056 2328 
Q 1056 1369 1301 889 
Q 1547 409 2034 409 
Q 2525 409 2770 889 
Q 3016 1369 3016 2328 
Q 3016 3291 2770 3770 
Q 2525 4250 2034 4250 
z
M 2034 4750 
Q 2819 4750 3233 4129 
Q 3647 3509 3647 2328 
Q 3647 1150 3233 529 
Q 2819 -91 2034 -91 
Q 1250 -91 836 529 
Q 422 1150 422 2328 
Q 422 3509 836 4129 
Q 1250 4750 2034 4750 
z
" id="DejaVuSans-30" transform="scale(0.015625)"/>
        <path d="M 684 794 
L 1344 794 
L 1344 0 
L 684 0 
L 684 794 
z
" id="DejaVuSans-2e" transform="scale(0.015625)"/>
       </defs>
       <use xlink:href="#DejaVuSans-30"/>
       <use x="63.623047" xlink:href="#DejaVuSans-2e"/>
       <use x="95.410156" xlink:href="#DejaVuSans-30"/>
      </g>
     </g>
    </g>
    <g id="xtick_2">
     <g id="line2d_2">
      <g>
       <use style="stroke:#000000;stroke-width:0.8;" x="173.210567" xlink:href="#mc5dc17ab42" y="252"/>
      </g>
     </g>
     <g id="text_2">
      <!-- 0.2 -->
      <g transform="translate(165.259004 266.598437)scale(0.1 -0.1)">
       <defs>
        <path d="M 1228 531 
L 3431 531 
L 3431 0 
L 469 0 
L 469 531 
Q 828 903 1448 1529 
Q 2069 2156 2228 2338 
Q 2531 2678 2651 2914 
Q 2772 3150 2772 3378 
Q 2772 3750 2511 3984 
Q 2250 4219 1831 4219 
Q 1534 4219 1204 4116 
Q 875 4013 500 3803 
L 500 4441 
Q 881 4594 1212 4672 
Q 1544 4750 1819 4750 
Q 2544 4750 2975 4387 
Q 3406 4025 3406 3419 
Q 3406 3131 3298 2873 
Q 3191 2616 2906 2266 
Q 2828 2175 2409 1742 
Q 1991 1309 1228 531 
z
" id="DejaVuSans-32" transform="scale(0.015625)"/>
       </defs>
       <use xlink:href="#DejaVuSans-30"/>
       <use x="63.623047" xlink:href="#DejaVuSans-2e"/>
       <use x="95.410156" xlink:href="#DejaVuSans-32"/>
      </g>
     </g>
    </g>
    <g id="xtick_3">
     <g id="line2d_3">
      <g>
       <use style="stroke:#000000;stroke-width:0.8;" x="254.536856" xlink:href="#mc5dc17ab42" y="252"/>
      </g>
     </g>
     <g id="text_3">
      <!-- 0.4 -->
      <g transform="translate(246.585293 266.598437)scale(0.1 -0.1)">
       <defs>
        <path d="M 2419 4116 
L 825 1625 
L 2419 1625 
L 2419 4116 
z
M 2253 4666 
L 3047 4666 
L 3047 1625 
L 3713 1625 
L 3713 1100 
L 3047 1100 
L 3047 0 
L 2419 0 
L 2419 1100 
L 313 1100 
L 313 1709 
L 2253 4666 
z
" id="DejaVuSans-34" transform="scale(0.015625)"/>
       </defs>
       <use xlink:href="#DejaVuSans-30"/>
       <use x="63.623047" xlink:href="#DejaVuSans-2e"/>
       <use x="95.410156" xlink:href="#DejaVuSans-34"/>
      </g>
     </g>
    </g>
    <g id="xtick_4">
     <g id="line2d_4">
      <g>
       <use style="stroke:#000000;stroke-width:0.8;" x="335.863144" xlink:href="#mc5dc17ab42" y="252"/>
      </g>
     </g>
     <g id="text_4">
      <!-- 0.6 -->
      <g transform="translate(327.911582 266.598437)scale(0.1 -0.1)">
       <defs>
        <path d="M 2113 2584 
Q 1688 2584 1439 2293 
Q 1191 2003 1191 1497 
Q 1191 994 1439 701 
Q 1688 409 2113 409 
Q 2538 409 2786 701 
Q 3034 994 3034 1497 
Q 3034 2003 2786 2293 
Q 2538 2584 2113 2584 
z
M 3366 4563 
L 3366 3988 
Q 3128 4100 2886 4159 
Q 2644 4219 2406 4219 
Q 1781 4219 1451 3797 
Q 1122 3375 1075 2522 
Q 1259 2794 1537 2939 
Q 1816 3084 2150 3084 
Q 2853 3084 3261 2657 
Q 3669 2231 3669 1497 
Q 3669 778 3244 343 
Q 2819 -91 2113 -91 
Q 1303 -91 875 529 
Q 447 1150 447 2328 
Q 447 3434 972 4092 
Q 1497 4750 2381 4750 
Q 2619 4750 2861 4703 
Q 3103 4656 3366 4563 
z
" id="DejaVuSans-36" transform="scale(0.015625)"/>
       </defs>
       <use xlink:href="#DejaVuSans-30"/>
       <use x="63.623047" xlink:href="#DejaVuSans-2e"/>
       <use x="95.410156" xlink:href="#DejaVuSans-36"/>
      </g>
     </g>
    </g>
    <g id="xtick_5">
     <g id="line2d_5">
      <g>
       <use style="stroke:#000000;stroke-width:0.8;" x="417.189433" xlink:href="#mc5dc17ab42" y="252"/>
      </g>
     </g>
     <g id="text_5">
      <!-- 0.8 -->
      <g transform="translate(409.237871 266.598437)scale(0.1 -0.1)">
       <defs>
        <path d="M 2034 2216 
Q 1584 2216 1326 1975 
Q 1069 1734 1069 1313 
Q 1069 891 1326 650 
Q 1584 409 2034 409 
Q 2484 409 2743 651 
Q 3003 894 3003 1313 
Q 3003 1734 2745 1975 
Q 2488 2216 2034 2216 
z
M 1403 2484 
Q 997 2584 770 2862 
Q 544 3141 544 3541 
Q 544 4100 942 4425 
Q 1341 4750 2034 4750 
Q 2731 4750 3128 4425 
Q 3525 4100 3525 3541 
Q 3525 3141 3298 2862 
Q 3072 2584 2669 2484 
Q 3125 2378 3379 2068 
Q 3634 1759 3634 1313 
Q 3634 634 3220 271 
Q 2806 -91 2034 -91 
Q 1263 -91 848 271 
Q 434 634 434 1313 
Q 434 1759 690 2068 
Q 947 2378 1403 2484 
z
M 1172 3481 
Q 1172 3119 1398 2916 
Q 1625 2713 2034 2713 
Q 2441 2713 2670 2916 
Q 2900 3119 2900 3481 
Q 2900 3844 2670 4047 
Q 2441 4250 2034 4250 
Q 1625 4250 1398 4047 
Q 1172 3844 1172 3481 
z
" id="DejaVuSans-38" transform="scale(0.015625)"/>
       </defs>
       <use xlink:href="#DejaVuSans-30"/>
       <use x="63.623047" xlink:href="#DejaVuSans-2e"/>
       <use x="95.410156" xlink:href="#DejaVuSans-38"/>
      </g>
     </g>
    </g>
    <g id="xtick_6">
     <g id="line2d_6">
      <g>
       <use style="stroke:#000000;stroke-width:0.8;" x="498.515722" xlink:href="#mc5dc17ab42" y="252"/>
      </g>
     </g>
     <g id="text_6">
      <!-- 1.0 -->
      <g transform="translate(490.56416 266.598437)scale(0.1 -0.1)">
       <defs>
        <path d="M 794 531 
L 1825 531 
L 1825 4091 
L 703 3866 
L 703 4441 
L 1819 4666 
L 2450 4666 
L 2450 531 
L 3481 531 
L 3481 0 
L 794 0 
L 794 531 
z
" id="DejaVuSans-31" transform="scale(0.015625)"/>
       </defs>
       <use xlink:href="#DejaVuSans-31"/>
       <use x="63.623047" xlink:href="#DejaVuSans-2e"/>
       <use x="95.410156" xlink:href="#DejaVuSans-30"/>
      </g>
     </g>
    </g>
    <g id="text_7">
     <!-- Thresholds -->
     <g transform="translate(267.957031 280.276563)scale(0.1 -0.1)">
      <defs>
       <path d="M -19 4666 
L 3928 4666 
L 3928 4134 
L 2272 4134 
L 2272 0 
L 1638 0 
L 1638 4134 
L -19 4134 
L -19 4666 
z
" id="DejaVuSans-54" transform="scale(0.015625)"/>
       <path d="M 3513 2113 
L 3513 0 
L 2938 0 
L 2938 2094 
Q 2938 2591 2744 2837 
Q 2550 3084 2163 3084 
Q 1697 3084 1428 2787 
Q 1159 2491 1159 1978 
L 1159 0 
L 581 0 
L 581 4863 
L 1159 4863 
L 1159 2956 
Q 1366 3272 1645 3428 
Q 1925 3584 2291 3584 
Q 2894 3584 3203 3211 
Q 3513 2838 3513 2113 
z
" id="DejaVuSans-68" transform="scale(0.015625)"/>
       <path d="M 2631 2963 
Q 2534 3019 2420 3045 
Q 2306 3072 2169 3072 
Q 1681 3072 1420 2755 
Q 1159 2438 1159 1844 
L 1159 0 
L 581 0 
L 581 3500 
L 1159 3500 
L 1159 2956 
Q 1341 3275 1631 3429 
Q 1922 3584 2338 3584 
Q 2397 3584 2469 3576 
Q 2541 3569 2628 3553 
L 2631 2963 
z
" id="DejaVuSans-72" transform="scale(0.015625)"/>
       <path d="M 3597 1894 
L 3597 1613 
L 953 1613 
Q 991 1019 1311 708 
Q 1631 397 2203 397 
Q 2534 397 2845 478 
Q 3156 559 3463 722 
L 3463 178 
Q 3153 47 2828 -22 
Q 2503 -91 2169 -91 
Q 1331 -91 842 396 
Q 353 884 353 1716 
Q 353 2575 817 3079 
Q 1281 3584 2069 3584 
Q 2775 3584 3186 3129 
Q 3597 2675 3597 1894 
z
M 3022 2063 
Q 3016 2534 2758 2815 
Q 2500 3097 2075 3097 
Q 1594 3097 1305 2825 
Q 1016 2553 972 2059 
L 3022 2063 
z
" id="DejaVuSans-65" transform="scale(0.015625)"/>
       <path d="M 2834 3397 
L 2834 2853 
Q 2591 2978 2328 3040 
Q 2066 3103 1784 3103 
Q 1356 3103 1142 2972 
Q 928 2841 928 2578 
Q 928 2378 1081 2264 
Q 1234 2150 1697 2047 
L 1894 2003 
Q 2506 1872 2764 1633 
Q 3022 1394 3022 966 
Q 3022 478 2636 193 
Q 2250 -91 1575 -91 
Q 1294 -91 989 -36 
Q 684 19 347 128 
L 347 722 
Q 666 556 975 473 
Q 1284 391 1588 391 
Q 1994 391 2212 530 
Q 2431 669 2431 922 
Q 2431 1156 2273 1281 
Q 2116 1406 1581 1522 
L 1381 1569 
Q 847 1681 609 1914 
Q 372 2147 372 2553 
Q 372 3047 722 3315 
Q 1072 3584 1716 3584 
Q 2034 3584 2315 3537 
Q 2597 3491 2834 3397 
z
" id="DejaVuSans-73" transform="scale(0.015625)"/>
       <path d="M 1959 3097 
Q 1497 3097 1228 2736 
Q 959 2375 959 1747 
Q 959 1119 1226 758 
Q 1494 397 1959 397 
Q 2419 397 2687 759 
Q 2956 1122 2956 1747 
Q 2956 2369 2687 2733 
Q 2419 3097 1959 3097 
z
M 1959 3584 
Q 2709 3584 3137 3096 
Q 3566 2609 3566 1747 
Q 3566 888 3137 398 
Q 2709 -91 1959 -91 
Q 1206 -91 779 398 
Q 353 888 353 1747 
Q 353 2609 779 3096 
Q 1206 3584 1959 3584 
z
" id="DejaVuSans-6f" transform="scale(0.015625)"/>
       <path d="M 603 4863 
L 1178 4863 
L 1178 0 
L 603 0 
L 603 4863 
z
" id="DejaVuSans-6c" transform="scale(0.015625)"/>
       <path d="M 2906 2969 
L 2906 4863 
L 3481 4863 
L 3481 0 
L 2906 0 
L 2906 525 
Q 2725 213 2448 61 
Q 2172 -91 1784 -91 
Q 1150 -91 751 415 
Q 353 922 353 1747 
Q 353 2572 751 3078 
Q 1150 3584 1784 3584 
Q 2172 3584 2448 3432 
Q 2725 3281 2906 2969 
z
M 947 1747 
Q 947 1113 1208 752 
Q 1469 391 1925 391 
Q 2381 391 2643 752 
Q 2906 1113 2906 1747 
Q 2906 2381 2643 2742 
Q 2381 3103 1925 3103 
Q 1469 3103 1208 2742 
Q 947 2381 947 1747 
z
" id="DejaVuSans-64" transform="scale(0.015625)"/>
      </defs>
      <use xlink:href="#DejaVuSans-54"/>
      <use x="61.083984" xlink:href="#DejaVuSans-68"/>
      <use x="124.462891" xlink:href="#DejaVuSans-72"/>
      <use x="163.326172" xlink:href="#DejaVuSans-65"/>
      <use x="224.849609" xlink:href="#DejaVuSans-73"/>
      <use x="276.949219" xlink:href="#DejaVuSans-68"/>
      <use x="340.328125" xlink:href="#DejaVuSans-6f"/>
      <use x="401.509766" xlink:href="#DejaVuSans-6c"/>
      <use x="429.292969" xlink:href="#DejaVuSans-64"/>
      <use x="492.769531" xlink:href="#DejaVuSans-73"/>
     </g>
    </g>
   </g>
   <g id="matplotlib.axis_2">
    <g id="ytick_1">
     <g id="line2d_7">
      <defs>
       <path d="M 0 0 
L -3.5 0 
" id="m64afe0e3e0" style="stroke:#000000;stroke-width:0.8;"/>
      </defs>
      <g>
       <use style="stroke:#000000;stroke-width:0.8;" x="72" xlink:href="#m64afe0e3e0" y="242.116364"/>
      </g>
     </g>
     <g id="text_8">
      <!-- 0.00 -->
      <g transform="translate(42.734375 245.915582)scale(0.1 -0.1)">
       <use xlink:href="#DejaVuSans-30"/>
       <use x="63.623047" xlink:href="#DejaVuSans-2e"/>
       <use x="95.410156" xlink:href="#DejaVuSans-30"/>
       <use x="159.033203" xlink:href="#DejaVuSans-30"/>
      </g>
     </g>
    </g>
    <g id="ytick_2">
     <g id="line2d_8">
      <g>
       <use style="stroke:#000000;stroke-width:0.8;" x="72" xlink:href="#m64afe0e3e0" y="214.103314"/>
      </g>
     </g>
     <g id="text_9">
      <!-- 0.01 -->
      <g transform="translate(42.734375 217.902533)scale(0.1 -0.1)">
       <use xlink:href="#DejaVuSans-30"/>
       <use x="63.623047" xlink:href="#DejaVuSans-2e"/>
       <use x="95.410156" xlink:href="#DejaVuSans-30"/>
       <use x="159.033203" xlink:href="#DejaVuSans-31"/>
      </g>
     </g>
    </g>
    <g id="ytick_3">
     <g id="line2d_9">
      <g>
       <use style="stroke:#000000;stroke-width:0.8;" x="72" xlink:href="#m64afe0e3e0" y="186.090265"/>
      </g>
     </g>
     <g id="text_10">
      <!-- 0.02 -->
      <g transform="translate(42.734375 189.889484)scale(0.1 -0.1)">
       <use xlink:href="#DejaVuSans-30"/>
       <use x="63.623047" xlink:href="#DejaVuSans-2e"/>
       <use x="95.410156" xlink:href="#DejaVuSans-30"/>
       <use x="159.033203" xlink:href="#DejaVuSans-32"/>
      </g>
     </g>
    </g>
    <g id="ytick_4">
     <g id="line2d_10">
      <g>
       <use style="stroke:#000000;stroke-width:0.8;" x="72" xlink:href="#m64afe0e3e0" y="158.077216"/>
      </g>
     </g>
     <g id="text_11">
      <!-- 0.03 -->
      <g transform="translate(42.734375 161.876434)scale(0.1 -0.1)">
       <defs>
        <path d="M 2597 2516 
Q 3050 2419 3304 2112 
Q 3559 1806 3559 1356 
Q 3559 666 3084 287 
Q 2609 -91 1734 -91 
Q 1441 -91 1130 -33 
Q 819 25 488 141 
L 488 750 
Q 750 597 1062 519 
Q 1375 441 1716 441 
Q 2309 441 2620 675 
Q 2931 909 2931 1356 
Q 2931 1769 2642 2001 
Q 2353 2234 1838 2234 
L 1294 2234 
L 1294 2753 
L 1863 2753 
Q 2328 2753 2575 2939 
Q 2822 3125 2822 3475 
Q 2822 3834 2567 4026 
Q 2313 4219 1838 4219 
Q 1578 4219 1281 4162 
Q 984 4106 628 3988 
L 628 4550 
Q 988 4650 1302 4700 
Q 1616 4750 1894 4750 
Q 2613 4750 3031 4423 
Q 3450 4097 3450 3541 
Q 3450 3153 3228 2886 
Q 3006 2619 2597 2516 
z
" id="DejaVuSans-33" transform="scale(0.015625)"/>
       </defs>
       <use xlink:href="#DejaVuSans-30"/>
       <use x="63.623047" xlink:href="#DejaVuSans-2e"/>
       <use x="95.410156" xlink:href="#DejaVuSans-30"/>
       <use x="159.033203" xlink:href="#DejaVuSans-33"/>
      </g>
     </g>
    </g>
    <g id="ytick_5">
     <g id="line2d_11">
      <g>
       <use style="stroke:#000000;stroke-width:0.8;" x="72" xlink:href="#m64afe0e3e0" y="130.064166"/>
      </g>
     </g>
     <g id="text_12">
      <!-- 0.04 -->
      <g transform="translate(42.734375 133.863385)scale(0.1 -0.1)">
       <use xlink:href="#DejaVuSans-30"/>
       <use x="63.623047" xlink:href="#DejaVuSans-2e"/>
       <use x="95.410156" xlink:href="#DejaVuSans-30"/>
       <use x="159.033203" xlink:href="#DejaVuSans-34"/>
      </g>
     </g>
    </g>
    <g id="ytick_6">
     <g id="line2d_12">
      <g>
       <use style="stroke:#000000;stroke-width:0.8;" x="72" xlink:href="#m64afe0e3e0" y="102.051117"/>
      </g>
     </g>
     <g id="text_13">
      <!-- 0.05 -->
      <g transform="translate(42.734375 105.850336)scale(0.1 -0.1)">
       <defs>
        <path d="M 691 4666 
L 3169 4666 
L 3169 4134 
L 1269 4134 
L 1269 2991 
Q 1406 3038 1543 3061 
Q 1681 3084 1819 3084 
Q 2600 3084 3056 2656 
Q 3513 2228 3513 1497 
Q 3513 744 3044 326 
Q 2575 -91 1722 -91 
Q 1428 -91 1123 -41 
Q 819 9 494 109 
L 494 744 
Q 775 591 1075 516 
Q 1375 441 1709 441 
Q 2250 441 2565 725 
Q 2881 1009 2881 1497 
Q 2881 1984 2565 2268 
Q 2250 2553 1709 2553 
Q 1456 2553 1204 2497 
Q 953 2441 691 2322 
L 691 4666 
z
" id="DejaVuSans-35" transform="scale(0.015625)"/>
       </defs>
       <use xlink:href="#DejaVuSans-30"/>
       <use x="63.623047" xlink:href="#DejaVuSans-2e"/>
       <use x="95.410156" xlink:href="#DejaVuSans-30"/>
       <use x="159.033203" xlink:href="#DejaVuSans-35"/>
      </g>
     </g>
    </g>
    <g id="ytick_7">
     <g id="line2d_13">
      <g>
       <use style="stroke:#000000;stroke-width:0.8;" x="72" xlink:href="#m64afe0e3e0" y="74.038068"/>
      </g>
     </g>
     <g id="text_14">
      <!-- 0.06 -->
      <g transform="translate(42.734375 77.837286)scale(0.1 -0.1)">
       <use xlink:href="#DejaVuSans-30"/>
       <use x="63.623047" xlink:href="#DejaVuSans-2e"/>
       <use x="95.410156" xlink:href="#DejaVuSans-30"/>
       <use x="159.033203" xlink:href="#DejaVuSans-36"/>
      </g>
     </g>
    </g>
    <g id="ytick_8">
     <g id="line2d_14">
      <g>
       <use style="stroke:#000000;stroke-width:0.8;" x="72" xlink:href="#m64afe0e3e0" y="46.025018"/>
      </g>
     </g>
     <g id="text_15">
      <!-- 0.07 -->
      <g transform="translate(42.734375 49.824237)scale(0.1 -0.1)">
       <defs>
        <path d="M 525 4666 
L 3525 4666 
L 3525 4397 
L 1831 0 
L 1172 0 
L 2766 4134 
L 525 4134 
L 525 4666 
z
" id="DejaVuSans-37" transform="scale(0.015625)"/>
       </defs>
       <use xlink:href="#DejaVuSans-30"/>
       <use x="63.623047" xlink:href="#DejaVuSans-2e"/>
       <use x="95.410156" xlink:href="#DejaVuSans-30"/>
       <use x="159.033203" xlink:href="#DejaVuSans-37"/>
      </g>
     </g>
    </g>
    <g id="text_16">
     <!-- F1 score -->
     <g transform="translate(36.654687 164.358906)rotate(-90)scale(0.1 -0.1)">
      <defs>
       <path d="M 628 4666 
L 3309 4666 
L 3309 4134 
L 1259 4134 
L 1259 2759 
L 3109 2759 
L 3109 2228 
L 1259 2228 
L 1259 0 
L 628 0 
L 628 4666 
z
" id="DejaVuSans-46" transform="scale(0.015625)"/>
       <path id="DejaVuSans-20" transform="scale(0.015625)"/>
       <path d="M 3122 3366 
L 3122 2828 
Q 2878 2963 2633 3030 
Q 2388 3097 2138 3097 
Q 1578 3097 1268 2742 
Q 959 2388 959 1747 
Q 959 1106 1268 751 
Q 1578 397 2138 397 
Q 2388 397 2633 464 
Q 2878 531 3122 666 
L 3122 134 
Q 2881 22 2623 -34 
Q 2366 -91 2075 -91 
Q 1284 -91 818 406 
Q 353 903 353 1747 
Q 353 2603 823 3093 
Q 1294 3584 2113 3584 
Q 2378 3584 2631 3529 
Q 2884 3475 3122 3366 
z
" id="DejaVuSans-63" transform="scale(0.015625)"/>
      </defs>
      <use xlink:href="#DejaVuSans-46"/>
      <use x="57.519531" xlink:href="#DejaVuSans-31"/>
      <use x="121.142578" xlink:href="#DejaVuSans-20"/>
      <use x="152.929688" xlink:href="#DejaVuSans-73"/>
      <use x="205.029297" xlink:href="#DejaVuSans-63"/>
      <use x="260.009766" xlink:href="#DejaVuSans-6f"/>
      <use x="321.191406" xlink:href="#DejaVuSans-72"/>
      <use x="360.054688" xlink:href="#DejaVuSans-65"/>
     </g>
    </g>
   </g>
   <g id="line2d_15">
    <path clip-path="url(#p94591c63ab)" d="M 92.290909 153.107765 
L 93.917435 152.328671 
L 95.137329 152.226044 
L 97.170486 152.077389 
L 100.016907 151.732456 
L 101.236801 151.655445 
L 104.083221 151.256751 
L 106.929641 151.146152 
L 109.36943 150.832461 
L 110.995956 150.611588 
L 111.402587 150.810268 
L 114.249007 150.198355 
L 117.502059 149.831731 
L 118.315322 149.641328 
L 119.128584 149.450138 
L 120.348479 149.065376 
L 120.75511 149.486679 
L 121.975005 149.112542 
L 123.194899 148.843446 
L 124.008162 148.593664 
L 124.414793 148.405447 
L 125.228056 148.224887 
L 126.44795 147.831982 
L 126.854582 147.999381 
L 127.667845 147.769931 
L 128.074476 147.946344 
L 130.107633 147.411457 
L 130.920896 147.425085 
L 132.547422 146.891503 
L 132.954054 147.05672 
L 133.767316 146.825123 
L 134.580579 146.460157 
L 135.393842 146.265545 
L 136.207105 145.873936 
L 136.613737 145.645512 
L 137.020368 145.84352 
L 137.833631 145.573773 
L 138.240262 145.695822 
L 141.493314 144.757888 
L 147.999417 142.268408 
L 148.406048 142.22003 
L 148.81268 142.011468 
L 149.625943 141.767856 
L 150.439206 141.410046 
L 150.845837 141.5314 
L 151.6591 141.368761 
L 152.472363 141.09156 
L 152.878994 140.847755 
L 153.692257 140.567676 
L 154.50552 140.154754 
L 157.35194 139.262188 
L 158.165203 138.900771 
L 161.824886 137.285232 
L 162.231518 137.469504 
L 163.04478 137.201797 
L 163.451412 137.196428 
L 163.858043 136.986642 
L 164.264675 137.166269 
L 164.671306 137.047638 
L 165.077938 137.130521 
L 166.297832 136.926161 
L 168.737621 135.793309 
L 169.144252 135.514656 
L 169.957515 135.189582 
L 170.364146 135.020662 
L 170.770778 135.135418 
L 171.584041 134.761675 
L 171.990672 134.350967 
L 173.210567 133.902471 
L 173.617198 133.85626 
L 174.023829 134.022613 
L 174.837092 133.546813 
L 175.243724 133.213598 
L 176.056987 133.037399 
L 176.87025 132.760205 
L 177.276881 132.958818 
L 178.090144 132.679673 
L 178.903407 132.789677 
L 179.310038 132.502086 
L 180.123301 132.297458 
L 180.529933 132.164644 
L 180.936564 131.843361 
L 181.343195 131.976151 
L 182.156458 131.68955 
L 182.56309 131.536494 
L 182.969721 131.632723 
L 183.782984 131.306485 
L 184.189616 131.396557 
L 184.596247 131.610621 
L 185.002878 131.288609 
L 185.40951 131.242204 
L 186.222773 130.860656 
L 186.629404 130.850319 
L 187.442667 130.147106 
L 187.849299 130.083317 
L 188.662561 129.654047 
L 189.475824 129.88408 
L 190.695719 129.676442 
L 191.915613 129.523983 
L 192.728876 129.070935 
L 193.135507 129.17372 
L 193.542139 128.902493 
L 193.94877 128.978835 
L 194.762033 128.277155 
L 195.168665 128.176204 
L 195.575296 127.818072 
L 195.981927 127.695929 
L 196.388559 127.362104 
L 196.79519 127.490942 
L 198.015085 126.837708 
L 198.421716 126.372511 
L 200.048242 125.628809 
L 200.861505 125.864084 
L 201.268136 125.608865 
L 201.674768 125.64511 
L 202.081399 125.881067 
L 202.894662 125.509982 
L 203.301293 125.582078 
L 203.707925 125.193535 
L 204.521188 124.809659 
L 206.147714 123.790812 
L 206.554345 123.837874 
L 206.960976 123.592853 
L 208.180871 123.656738 
L 208.994134 123.176294 
L 209.807397 123.170295 
L 210.62066 122.614116 
L 211.027291 122.430125 
L 211.433922 122.390149 
L 211.840554 121.964792 
L 212.247185 121.817148 
L 213.060448 121.191485 
L 214.280343 120.766811 
L 214.686974 120.871609 
L 215.093605 120.464748 
L 215.500237 120.336542 
L 215.906868 119.93415 
L 216.3135 119.79673 
L 217.126763 119.923662 
L 217.940026 119.179781 
L 218.346657 119.275179 
L 218.753288 119.159758 
L 219.15992 118.928263 
L 219.973183 118.102729 
L 220.379814 117.875659 
L 220.786446 117.859556 
L 223.632866 115.927969 
L 224.446129 115.756321 
L 225.259392 114.988792 
L 225.666023 115.31963 
L 226.072654 114.954324 
L 226.479286 114.802238 
L 226.885917 114.883105 
L 227.292549 114.459954 
L 227.69918 114.558539 
L 228.105812 114.241096 
L 228.512443 114.639006 
L 228.919075 114.026881 
L 229.732337 113.938872 
L 230.138969 113.964013 
L 230.5456 114.340398 
L 231.358863 113.527847 
L 231.765495 113.552076 
L 232.578758 113.320734 
L 232.985389 112.700929 
L 233.39202 113.100685 
L 235.018546 113.219389 
L 236.238441 113.349946 
L 236.645072 113.233019 
L 237.458335 112.566398 
L 237.864966 113.02594 
L 238.271598 112.491896 
L 238.678229 112.732784 
L 239.898124 111.813043 
L 240.304755 112.450494 
L 240.711386 112.563644 
L 241.118018 112.158918 
L 241.524649 112.588941 
L 241.931281 112.428363 
L 243.151175 111.097647 
L 243.557807 111.168319 
L 243.964438 110.945575 
L 244.371069 111.214264 
L 244.777701 110.82288 
L 245.184332 110.5997 
L 245.590964 111.082448 
L 245.997595 110.86928 
L 246.404227 110.516034 
L 247.21749 110.090004 
L 247.624121 111.544133 
L 248.030752 111.199132 
L 248.844015 110.870643 
L 249.250647 111.638221 
L 249.657278 111.091372 
L 250.06391 110.867898 
L 250.470541 110.820007 
L 251.283804 109.936572 
L 251.690435 110.352256 
L 252.097067 109.775038 
L 252.503698 110.079719 
L 252.91033 109.805594 
L 253.316961 109.77508 
L 253.723593 109.26745 
L 254.130224 109.234579 
L 254.536856 108.509599 
L 254.943487 108.30943 
L 255.350118 108.33157 
L 255.75675 108.175548 
L 256.163381 108.209341 
L 256.570013 109.212329 
L 256.976644 108.973056 
L 257.383276 108.588422 
L 258.196539 109.437744 
L 258.60317 108.733105 
L 259.009801 108.537403 
L 259.416433 108.794712 
L 259.823064 109.227628 
L 260.636327 108.52209 
L 261.042959 109.318407 
L 261.856222 108.054856 
L 262.262853 108.05221 
L 263.076116 107.287076 
L 263.482747 107.087893 
L 263.889379 106.478196 
L 264.29601 106.839904 
L 264.702642 106.288933 
L 265.109273 106.011761 
L 266.329167 104.473629 
L 267.14243 103.978938 
L 267.549062 103.153334 
L 267.955693 102.921087 
L 268.362325 102.924588 
L 268.768956 103.171185 
L 269.175588 102.790398 
L 269.582219 103.251186 
L 270.395482 102.295659 
L 270.802113 102.253398 
L 271.208745 102.687514 
L 271.615376 102.61783 
L 272.428639 101.229276 
L 272.835271 101.0477 
L 273.241902 101.177652 
L 273.648533 100.949179 
L 274.055165 100.557884 
L 274.461796 100.863996 
L 274.868428 99.979548 
L 275.275059 100.232088 
L 275.681691 100.100687 
L 276.088322 99.214546 
L 276.901585 99.946631 
L 277.308216 99.518122 
L 278.121479 98.070914 
L 278.528111 98.736245 
L 278.934742 99.995786 
L 279.748005 98.772857 
L 280.154637 97.962446 
L 280.561268 97.478484 
L 280.967899 98.860416 
L 281.374531 98.560089 
L 281.781162 97.800725 
L 282.187794 97.831786 
L 282.594425 97.284281 
L 283.001057 97.347807 
L 283.407688 97.532883 
L 283.81432 96.663992 
L 284.220951 96.981572 
L 284.627582 96.204411 
L 285.034214 95.997115 
L 285.440845 95.566455 
L 286.254108 94.222461 
L 286.66074 94.422594 
L 287.067371 93.795523 
L 287.474003 93.610076 
L 287.880634 93.212134 
L 288.287265 93.487249 
L 288.693897 94.042304 
L 289.100528 93.133641 
L 289.50716 93.126096 
L 289.913791 91.9104 
L 290.320423 91.543939 
L 290.727054 91.961438 
L 291.133686 92.053057 
L 291.540317 91.69581 
L 292.35358 90.148191 
L 292.760211 89.454645 
L 293.166843 89.345414 
L 293.573474 88.724226 
L 293.980106 87.846026 
L 294.386737 88.872111 
L 294.793369 88.240784 
L 295.2 86.401804 
L 295.606631 85.815349 
L 296.013263 86.728108 
L 296.826526 85.450055 
L 297.233157 85.355259 
L 297.639789 84.861382 
L 298.04642 85.411301 
L 298.453052 87.164368 
L 298.859683 86.738189 
L 299.266314 86.969706 
L 299.672946 86.557265 
L 300.486209 84.461723 
L 300.89284 84.521892 
L 301.299472 84.463499 
L 301.706103 83.310293 
L 302.112735 83.000179 
L 302.519366 82.857872 
L 302.925997 83.040701 
L 303.73926 82.951311 
L 304.145892 82.703366 
L 304.552523 82.758013 
L 304.959155 80.955317 
L 306.179049 78.549928 
L 306.58568 77.578407 
L 306.992312 77.607082 
L 307.805575 76.092264 
L 308.212206 77.778178 
L 308.618838 76.914852 
L 309.432101 74.327359 
L 309.838732 73.689598 
L 310.245363 72.63717 
L 310.651995 71.112216 
L 311.058626 70.557009 
L 311.465258 69.419429 
L 311.871889 69.10938 
L 312.278521 69.007734 
L 312.685152 70.043519 
L 313.091784 69.126388 
L 313.498415 68.946671 
L 313.905046 69.536434 
L 314.311678 68.570322 
L 314.718309 69.793029 
L 315.124941 69.679542 
L 315.531572 70.597027 
L 315.938204 69.8436 
L 316.751467 72.307532 
L 317.158098 72.935664 
L 317.564729 71.740745 
L 317.971361 71.506436 
L 318.377992 70.619262 
L 318.784624 69.279441 
L 319.191255 69.588669 
L 319.597887 68.392027 
L 320.004518 68.001316 
L 320.41115 66.275624 
L 321.631044 63.032094 
L 322.037675 62.232441 
L 322.444307 62.823221 
L 323.25757 59.249141 
L 323.664201 59.274851 
L 324.070833 58.911268 
L 324.477464 57.236484 
L 324.884095 59.354062 
L 325.290727 59.215475 
L 325.697358 57.896264 
L 326.10399 58.254427 
L 326.510621 57.271893 
L 326.917253 57.414939 
L 327.323884 56.24779 
L 327.730516 57.873072 
L 328.137147 58.069276 
L 328.543778 55.819312 
L 328.95041 54.903847 
L 329.357041 52.669585 
L 329.763673 54.052806 
L 330.170304 55.880024 
L 330.576936 55.315169 
L 330.983567 56.078233 
L 331.390199 54.689888 
L 331.79683 56.041101 
L 332.610093 55.656339 
L 333.016724 57.284948 
L 333.423356 56.057322 
L 333.829987 56.460665 
L 334.236619 55.663432 
L 334.64325 54.55599 
L 335.049882 57.599272 
L 335.456513 57.668302 
L 335.863144 59.034679 
L 336.269776 57.758314 
L 336.676407 58.683469 
L 337.083039 59.23242 
L 337.48967 59.265655 
L 337.896302 58.557386 
L 338.302933 58.450882 
L 338.709565 60.807414 
L 339.116196 60.748769 
L 339.522827 58.727632 
L 339.929459 60.566014 
L 340.33609 60.345819 
L 340.742722 58.901432 
L 341.149353 58.001113 
L 341.555985 56.691292 
L 341.962616 58.853424 
L 342.369248 58.338158 
L 342.775879 57.240802 
L 343.18251 56.482398 
L 343.589142 58.043376 
L 343.995773 57.513415 
L 344.402405 56.563689 
L 344.809036 55.910366 
L 345.215668 54.381079 
L 345.622299 55.23935 
L 346.028931 55.487121 
L 346.435562 53.603246 
L 347.248825 61.262886 
L 347.655456 61.574881 
L 348.062088 61.387013 
L 348.468719 60.110676 
L 348.875351 61.194611 
L 349.281982 63.009942 
L 350.095245 61.517929 
L 350.501876 62.375325 
L 350.908508 59.850312 
L 351.315139 60.172706 
L 351.721771 60.227179 
L 352.128402 59.39947 
L 352.535034 57.367725 
L 352.941665 56.29899 
L 353.348297 55.796004 
L 353.754928 55.000073 
L 354.161559 52.346986 
L 354.568191 53.214405 
L 354.974822 51.703793 
L 355.381454 50.631909 
L 355.788085 48.293881 
L 356.194717 49.23963 
L 356.601348 49.403301 
L 357.00798 51.679352 
L 357.821242 48.345484 
L 358.227874 52.279887 
L 358.634505 52.656126 
L 359.041137 51.230983 
L 359.447768 52.282057 
L 359.8544 49.795519 
L 360.261031 50.333735 
L 360.667663 48.92292 
L 361.074294 47.039418 
L 361.480925 48.200026 
L 361.887557 48.740231 
L 362.294188 49.476483 
L 362.70082 49.107794 
L 363.107451 47.054511 
L 363.514083 49.577496 
L 363.920714 48.641023 
L 364.327346 49.302848 
L 365.54724 44.443636 
L 365.953871 51.0859 
L 366.767134 47.908248 
L 367.173766 52.656126 
L 367.580397 51.941567 
L 367.987029 48.817118 
L 368.800291 52.1446 
L 369.206923 53.898787 
L 369.613554 52.625613 
L 370.020186 49.476483 
L 370.426817 48.366166 
L 371.24008 47.242977 
L 371.646712 45.877839 
L 372.053343 45.303371 
L 372.459974 51.417201 
L 372.866606 50.517677 
L 373.679869 47.534703 
L 374.0865 44.577535 
L 374.493132 45.835624 
L 374.899763 49.16055 
L 375.306395 55.362701 
L 375.713026 56.413848 
L 376.119657 57.023789 
L 376.526289 58.718993 
L 376.93292 57.175844 
L 377.339552 57.819986 
L 377.746183 65.626643 
L 378.152815 63.954886 
L 378.559446 69.551378 
L 378.966078 68.48176 
L 379.372709 66.547113 
L 379.77934 65.439809 
L 380.185972 62.289371 
L 380.592603 68.172519 
L 380.999235 66.524363 
L 381.405866 68.456131 
L 381.812498 67.812945 
L 382.219129 66.381028 
L 382.625761 69.534091 
L 383.032392 68.49051 
L 383.845655 65.690093 
L 384.252286 62.937733 
L 384.658918 61.244706 
L 385.065549 61.244706 
L 385.472181 59.953791 
L 386.285444 65.048467 
L 386.692075 63.309666 
L 387.098707 66.746368 
L 387.505338 66.166632 
L 387.911969 66.021099 
L 388.318601 73.051858 
L 388.725232 71.766739 
L 389.131864 71.189283 
L 389.538495 70.022545 
L 390.351758 77.191051 
L 390.75839 75.313618 
L 391.571652 73.840095 
L 392.384915 77.786835 
L 392.791547 77.030253 
L 393.198178 83.850548 
L 393.60481 80.035075 
L 394.011441 79.091828 
L 394.418073 81.408464 
L 394.824704 84.928912 
L 395.231335 84.928912 
L 395.637967 84.296367 
L 396.044598 93.475694 
L 396.45123 92.252314 
L 396.857861 91.633041 
L 397.264493 95.604599 
L 397.671124 94.834296 
L 398.077756 92.313961 
L 398.484387 92.313961 
L 398.891018 91.670341 
L 399.29765 96.908332 
L 400.110913 93.538864 
L 400.924176 86.307978 
L 401.330807 85.582444 
L 401.737439 97.617633 
L 402.14407 96.249598 
L 402.550701 95.55582 
L 402.957333 105.633785 
L 403.363964 105.467342 
L 403.770596 111.182062 
L 404.177227 111.182062 
L 404.583859 116.684799 
L 404.99049 116.528596 
L 405.397122 122.911898 
L 405.803753 122.312127 
L 406.210384 140.118265 
L 407.430279 138.364329 
L 407.83691 138.364329 
L 408.243542 137.812456 
L 408.650173 136.690909 
L 409.870067 156.758042 
L 410.276699 156.758042 
L 410.68333 156.042748 
L 411.089962 153.569369 
L 411.496593 153.569369 
L 411.903225 153.057536 
L 412.309856 152.928652 
L 412.716488 152.928652 
L 413.123119 152.669762 
L 413.52975 152.147446 
L 413.936382 159.237519 
L 414.343013 158.744193 
L 414.749645 158.619942 
L 415.156276 157.612444 
L 415.562908 157.099522 
L 415.969539 157.099522 
L 416.376171 155.522703 
L 416.782802 171.532302 
L 417.189433 179.963798 
L 417.596065 179.56729 
L 418.002696 177.929344 
L 418.815959 176.203306 
L 419.222591 174.381875 
L 419.629222 174.381875 
L 420.035854 172.948341 
L 420.442485 171.958458 
L 420.849116 171.958458 
L 421.662379 170.939832 
L 422.069011 179.98021 
L 422.475642 179.98021 
L 422.882274 179.517371 
L 423.288905 179.400582 
L 423.695537 179.400582 
L 424.102168 178.929034 
L 424.915431 178.929034 
L 425.322062 177.841681 
L 425.728694 177.841681 
L 426.135325 177.346307 
L 426.541957 177.221269 
L 427.35522 176.073811 
L 427.761851 175.550702 
L 428.168482 175.550702 
L 428.575114 175.019239 
L 428.981745 196.659083 
L 429.388377 196.56669 
L 429.795008 196.193332 
L 430.20164 196.099034 
L 430.608271 195.717938 
L 431.014903 194.936491 
L 431.421534 194.936491 
L 432.234797 194.025292 
L 432.641428 205.73578 
L 433.04806 205.418046 
L 434.267954 205.418046 
L 435.487848 204.430647 
L 435.89448 204.430647 
L 436.707743 203.742323 
L 437.114374 216.057713 
L 437.927637 215.99697 
L 441.180689 215.99697 
L 441.58732 215.751141 
L 443.213846 215.688959 
L 443.620477 215.437269 
L 446.466897 215.437269 
L 446.873529 228.648551 
L 448.906686 228.648551 
L 449.313318 242.116364 
L 498.109091 242.116364 
L 498.109091 242.116364 
" style="fill:none;stroke:#1f77b4;stroke-linecap:square;stroke-width:1.5;"/>
   </g>
   <g id="patch_3">
    <path d="M 72 252 
L 72 34.56 
" style="fill:none;stroke:#000000;stroke-linecap:square;stroke-linejoin:miter;stroke-width:0.8;"/>
   </g>
   <g id="patch_4">
    <path d="M 518.4 252 
L 518.4 34.56 
" style="fill:none;stroke:#000000;stroke-linecap:square;stroke-linejoin:miter;stroke-width:0.8;"/>
   </g>
   <g id="patch_5">
    <path d="M 72 252 
L 518.4 252 
" style="fill:none;stroke:#000000;stroke-linecap:square;stroke-linejoin:miter;stroke-width:0.8;"/>
   </g>
   <g id="patch_6">
    <path d="M 72 34.56 
L 518.4 34.56 
" style="fill:none;stroke:#000000;stroke-linecap:square;stroke-linejoin:miter;stroke-width:0.8;"/>
   </g>
   <g id="text_17">
    <!-- BENITO JUAREZ -->
    <g transform="translate(264.001875 28.56)scale(0.08 -0.08)">
     <defs>
      <path d="M 1259 2228 
L 1259 519 
L 2272 519 
Q 2781 519 3026 730 
Q 3272 941 3272 1375 
Q 3272 1813 3026 2020 
Q 2781 2228 2272 2228 
L 1259 2228 
z
M 1259 4147 
L 1259 2741 
L 2194 2741 
Q 2656 2741 2882 2914 
Q 3109 3088 3109 3444 
Q 3109 3797 2882 3972 
Q 2656 4147 2194 4147 
L 1259 4147 
z
M 628 4666 
L 2241 4666 
Q 2963 4666 3353 4366 
Q 3744 4066 3744 3513 
Q 3744 3084 3544 2831 
Q 3344 2578 2956 2516 
Q 3422 2416 3680 2098 
Q 3938 1781 3938 1306 
Q 3938 681 3513 340 
Q 3088 0 2303 0 
L 628 0 
L 628 4666 
z
" id="DejaVuSans-42" transform="scale(0.015625)"/>
      <path d="M 628 4666 
L 3578 4666 
L 3578 4134 
L 1259 4134 
L 1259 2753 
L 3481 2753 
L 3481 2222 
L 1259 2222 
L 1259 531 
L 3634 531 
L 3634 0 
L 628 0 
L 628 4666 
z
" id="DejaVuSans-45" transform="scale(0.015625)"/>
      <path d="M 628 4666 
L 1478 4666 
L 3547 763 
L 3547 4666 
L 4159 4666 
L 4159 0 
L 3309 0 
L 1241 3903 
L 1241 0 
L 628 0 
L 628 4666 
z
" id="DejaVuSans-4e" transform="scale(0.015625)"/>
      <path d="M 628 4666 
L 1259 4666 
L 1259 0 
L 628 0 
L 628 4666 
z
" id="DejaVuSans-49" transform="scale(0.015625)"/>
      <path d="M 2522 4238 
Q 1834 4238 1429 3725 
Q 1025 3213 1025 2328 
Q 1025 1447 1429 934 
Q 1834 422 2522 422 
Q 3209 422 3611 934 
Q 4013 1447 4013 2328 
Q 4013 3213 3611 3725 
Q 3209 4238 2522 4238 
z
M 2522 4750 
Q 3503 4750 4090 4092 
Q 4678 3434 4678 2328 
Q 4678 1225 4090 567 
Q 3503 -91 2522 -91 
Q 1538 -91 948 565 
Q 359 1222 359 2328 
Q 359 3434 948 4092 
Q 1538 4750 2522 4750 
z
" id="DejaVuSans-4f" transform="scale(0.015625)"/>
      <path d="M 628 4666 
L 1259 4666 
L 1259 325 
Q 1259 -519 939 -900 
Q 619 -1281 -91 -1281 
L -331 -1281 
L -331 -750 
L -134 -750 
Q 284 -750 456 -515 
Q 628 -281 628 325 
L 628 4666 
z
" id="DejaVuSans-4a" transform="scale(0.015625)"/>
      <path d="M 556 4666 
L 1191 4666 
L 1191 1831 
Q 1191 1081 1462 751 
Q 1734 422 2344 422 
Q 2950 422 3222 751 
Q 3494 1081 3494 1831 
L 3494 4666 
L 4128 4666 
L 4128 1753 
Q 4128 841 3676 375 
Q 3225 -91 2344 -91 
Q 1459 -91 1007 375 
Q 556 841 556 1753 
L 556 4666 
z
" id="DejaVuSans-55" transform="scale(0.015625)"/>
      <path d="M 2188 4044 
L 1331 1722 
L 3047 1722 
L 2188 4044 
z
M 1831 4666 
L 2547 4666 
L 4325 0 
L 3669 0 
L 3244 1197 
L 1141 1197 
L 716 0 
L 50 0 
L 1831 4666 
z
" id="DejaVuSans-41" transform="scale(0.015625)"/>
      <path d="M 2841 2188 
Q 3044 2119 3236 1894 
Q 3428 1669 3622 1275 
L 4263 0 
L 3584 0 
L 2988 1197 
Q 2756 1666 2539 1819 
Q 2322 1972 1947 1972 
L 1259 1972 
L 1259 0 
L 628 0 
L 628 4666 
L 2053 4666 
Q 2853 4666 3247 4331 
Q 3641 3997 3641 3322 
Q 3641 2881 3436 2590 
Q 3231 2300 2841 2188 
z
M 1259 4147 
L 1259 2491 
L 2053 2491 
Q 2509 2491 2742 2702 
Q 2975 2913 2975 3322 
Q 2975 3731 2742 3939 
Q 2509 4147 2053 4147 
L 1259 4147 
z
" id="DejaVuSans-52" transform="scale(0.015625)"/>
      <path d="M 359 4666 
L 4025 4666 
L 4025 4184 
L 1075 531 
L 4097 531 
L 4097 0 
L 288 0 
L 288 481 
L 3238 4134 
L 359 4134 
L 359 4666 
z
" id="DejaVuSans-5a" transform="scale(0.015625)"/>
     </defs>
     <use xlink:href="#DejaVuSans-42"/>
     <use x="68.603516" xlink:href="#DejaVuSans-45"/>
     <use x="131.787109" xlink:href="#DejaVuSans-4e"/>
     <use x="206.591797" xlink:href="#DejaVuSans-49"/>
     <use x="236.083984" xlink:href="#DejaVuSans-54"/>
     <use x="297.167969" xlink:href="#DejaVuSans-4f"/>
     <use x="375.878906" xlink:href="#DejaVuSans-20"/>
     <use x="407.666016" xlink:href="#DejaVuSans-4a"/>
     <use x="437.158203" xlink:href="#DejaVuSans-55"/>
     <use x="510.351562" xlink:href="#DejaVuSans-41"/>
     <use x="578.759766" xlink:href="#DejaVuSans-52"/>
     <use x="648.242188" xlink:href="#DejaVuSans-45"/>
     <use x="711.425781" xlink:href="#DejaVuSans-5a"/>
    </g>
   </g>
  </g>
  <g id="text_18">
   <!-- F1 score curve -->
   <g transform="translate(229.31625 17.9175)scale(0.16 -0.16)">
    <defs>
     <path d="M 544 1381 
L 544 3500 
L 1119 3500 
L 1119 1403 
Q 1119 906 1312 657 
Q 1506 409 1894 409 
Q 2359 409 2629 706 
Q 2900 1003 2900 1516 
L 2900 3500 
L 3475 3500 
L 3475 0 
L 2900 0 
L 2900 538 
Q 2691 219 2414 64 
Q 2138 -91 1772 -91 
Q 1169 -91 856 284 
Q 544 659 544 1381 
z
M 1991 3584 
L 1991 3584 
z
" id="DejaVuSans-75" transform="scale(0.015625)"/>
     <path d="M 191 3500 
L 800 3500 
L 1894 563 
L 2988 3500 
L 3597 3500 
L 2284 0 
L 1503 0 
L 191 3500 
z
" id="DejaVuSans-76" transform="scale(0.015625)"/>
    </defs>
    <use xlink:href="#DejaVuSans-46"/>
    <use x="57.519531" xlink:href="#DejaVuSans-31"/>
    <use x="121.142578" xlink:href="#DejaVuSans-20"/>
    <use x="152.929688" xlink:href="#DejaVuSans-73"/>
    <use x="205.029297" xlink:href="#DejaVuSans-63"/>
    <use x="260.009766" xlink:href="#DejaVuSans-6f"/>
    <use x="321.191406" xlink:href="#DejaVuSans-72"/>
    <use x="360.054688" xlink:href="#DejaVuSans-65"/>
    <use x="421.578125" xlink:href="#DejaVuSans-20"/>
    <use x="453.365234" xlink:href="#DejaVuSans-63"/>
    <use x="508.345703" xlink:href="#DejaVuSans-75"/>
    <use x="571.724609" xlink:href="#DejaVuSans-72"/>
    <use x="612.837891" xlink:href="#DejaVuSans-76"/>
    <use x="672.017578" xlink:href="#DejaVuSans-65"/>
   </g>
  </g>
 </g>
 <defs>
  <clipPath id="p94591c63ab">
   <rect height="217.44" width="446.4" x="72" y="34.56"/>
  </clipPath>
 </defs>
</svg>
