<?xml version="1.0" encoding="utf-8" standalone="no"?>
<!DOCTYPE svg PUBLIC "-//W3C//DTD SVG 1.1//EN"
  "http://www.w3.org/Graphics/SVG/1.1/DTD/svg11.dtd">
<svg height="288pt" version="1.1" viewBox="0 0 576 288" width="576pt" xmlns="http://www.w3.org/2000/svg" xmlns:xlink="http://www.w3.org/1999/xlink">
 <metadata>
  <rdf:RDF xmlns:cc="http://creativecommons.org/ns#" xmlns:dc="http://purl.org/dc/elements/1.1/" xmlns:rdf="http://www.w3.org/1999/02/22-rdf-syntax-ns#">
   <cc:Work>
    <dc:type rdf:resource="http://purl.org/dc/dcmitype/StillImage"/>
    <dc:date>2022-01-04T19:19:46.083698</dc:date>
    <dc:format>image/svg+xml</dc:format>
    <dc:creator>
     <cc:Agent>
      <dc:title>Matplotlib v3.4.3, https://matplotlib.org/</dc:title>
     </cc:Agent>
    </dc:creator>
   </cc:Work>
  </rdf:RDF>
 </metadata>
 <defs>
  <style type="text/css">*{stroke-linecap:butt;stroke-linejoin:round;}</style>
 </defs>
 <g id="figure_1">
  <g id="patch_1">
   <path d="M 0 288 
L 576 288 
L 576 0 
L 0 0 
z
" style="fill:none;"/>
  </g>
  <g id="axes_1">
   <g id="patch_2">
    <path d="M 72 252 
L 518.4 252 
L 518.4 34.56 
L 72 34.56 
z
" style="fill:#ffffff;"/>
   </g>
   <g id="matplotlib.axis_1">
    <g id="xtick_1">
     <g id="line2d_1">
      <defs>
       <path d="M 0 0 
L 0 3.5 
" id="m1f951cd789" style="stroke:#000000;stroke-width:0.8;"/>
      </defs>
      <g>
       <use style="stroke:#000000;stroke-width:0.8;" x="91.884278" xlink:href="#m1f951cd789" y="252"/>
      </g>
     </g>
     <g id="text_1">
      <!-- 0.0 -->
      <g transform="translate(83.932715 266.598437)scale(0.1 -0.1)">
       <defs>
        <path d="M 2034 4250 
Q 1547 4250 1301 3770 
Q 1056 3291 1056 2328 
Q 1056 1369 1301 889 
Q 1547 409 2034 409 
Q 2525 409 2770 889 
Q 3016 1369 3016 2328 
Q 3016 3291 2770 3770 
Q 2525 4250 2034 4250 
z
M 2034 4750 
Q 2819 4750 3233 4129 
Q 3647 3509 3647 2328 
Q 3647 1150 3233 529 
Q 2819 -91 2034 -91 
Q 1250 -91 836 529 
Q 422 1150 422 2328 
Q 422 3509 836 4129 
Q 1250 4750 2034 4750 
z
" id="DejaVuSans-30" transform="scale(0.015625)"/>
        <path d="M 684 794 
L 1344 794 
L 1344 0 
L 684 0 
L 684 794 
z
" id="DejaVuSans-2e" transform="scale(0.015625)"/>
       </defs>
       <use xlink:href="#DejaVuSans-30"/>
       <use x="63.623047" xlink:href="#DejaVuSans-2e"/>
       <use x="95.410156" xlink:href="#DejaVuSans-30"/>
      </g>
     </g>
    </g>
    <g id="xtick_2">
     <g id="line2d_2">
      <g>
       <use style="stroke:#000000;stroke-width:0.8;" x="173.210567" xlink:href="#m1f951cd789" y="252"/>
      </g>
     </g>
     <g id="text_2">
      <!-- 0.2 -->
      <g transform="translate(165.259004 266.598437)scale(0.1 -0.1)">
       <defs>
        <path d="M 1228 531 
L 3431 531 
L 3431 0 
L 469 0 
L 469 531 
Q 828 903 1448 1529 
Q 2069 2156 2228 2338 
Q 2531 2678 2651 2914 
Q 2772 3150 2772 3378 
Q 2772 3750 2511 3984 
Q 2250 4219 1831 4219 
Q 1534 4219 1204 4116 
Q 875 4013 500 3803 
L 500 4441 
Q 881 4594 1212 4672 
Q 1544 4750 1819 4750 
Q 2544 4750 2975 4387 
Q 3406 4025 3406 3419 
Q 3406 3131 3298 2873 
Q 3191 2616 2906 2266 
Q 2828 2175 2409 1742 
Q 1991 1309 1228 531 
z
" id="DejaVuSans-32" transform="scale(0.015625)"/>
       </defs>
       <use xlink:href="#DejaVuSans-30"/>
       <use x="63.623047" xlink:href="#DejaVuSans-2e"/>
       <use x="95.410156" xlink:href="#DejaVuSans-32"/>
      </g>
     </g>
    </g>
    <g id="xtick_3">
     <g id="line2d_3">
      <g>
       <use style="stroke:#000000;stroke-width:0.8;" x="254.536856" xlink:href="#m1f951cd789" y="252"/>
      </g>
     </g>
     <g id="text_3">
      <!-- 0.4 -->
      <g transform="translate(246.585293 266.598437)scale(0.1 -0.1)">
       <defs>
        <path d="M 2419 4116 
L 825 1625 
L 2419 1625 
L 2419 4116 
z
M 2253 4666 
L 3047 4666 
L 3047 1625 
L 3713 1625 
L 3713 1100 
L 3047 1100 
L 3047 0 
L 2419 0 
L 2419 1100 
L 313 1100 
L 313 1709 
L 2253 4666 
z
" id="DejaVuSans-34" transform="scale(0.015625)"/>
       </defs>
       <use xlink:href="#DejaVuSans-30"/>
       <use x="63.623047" xlink:href="#DejaVuSans-2e"/>
       <use x="95.410156" xlink:href="#DejaVuSans-34"/>
      </g>
     </g>
    </g>
    <g id="xtick_4">
     <g id="line2d_4">
      <g>
       <use style="stroke:#000000;stroke-width:0.8;" x="335.863144" xlink:href="#m1f951cd789" y="252"/>
      </g>
     </g>
     <g id="text_4">
      <!-- 0.6 -->
      <g transform="translate(327.911582 266.598437)scale(0.1 -0.1)">
       <defs>
        <path d="M 2113 2584 
Q 1688 2584 1439 2293 
Q 1191 2003 1191 1497 
Q 1191 994 1439 701 
Q 1688 409 2113 409 
Q 2538 409 2786 701 
Q 3034 994 3034 1497 
Q 3034 2003 2786 2293 
Q 2538 2584 2113 2584 
z
M 3366 4563 
L 3366 3988 
Q 3128 4100 2886 4159 
Q 2644 4219 2406 4219 
Q 1781 4219 1451 3797 
Q 1122 3375 1075 2522 
Q 1259 2794 1537 2939 
Q 1816 3084 2150 3084 
Q 2853 3084 3261 2657 
Q 3669 2231 3669 1497 
Q 3669 778 3244 343 
Q 2819 -91 2113 -91 
Q 1303 -91 875 529 
Q 447 1150 447 2328 
Q 447 3434 972 4092 
Q 1497 4750 2381 4750 
Q 2619 4750 2861 4703 
Q 3103 4656 3366 4563 
z
" id="DejaVuSans-36" transform="scale(0.015625)"/>
       </defs>
       <use xlink:href="#DejaVuSans-30"/>
       <use x="63.623047" xlink:href="#DejaVuSans-2e"/>
       <use x="95.410156" xlink:href="#DejaVuSans-36"/>
      </g>
     </g>
    </g>
    <g id="xtick_5">
     <g id="line2d_5">
      <g>
       <use style="stroke:#000000;stroke-width:0.8;" x="417.189433" xlink:href="#m1f951cd789" y="252"/>
      </g>
     </g>
     <g id="text_5">
      <!-- 0.8 -->
      <g transform="translate(409.237871 266.598437)scale(0.1 -0.1)">
       <defs>
        <path d="M 2034 2216 
Q 1584 2216 1326 1975 
Q 1069 1734 1069 1313 
Q 1069 891 1326 650 
Q 1584 409 2034 409 
Q 2484 409 2743 651 
Q 3003 894 3003 1313 
Q 3003 1734 2745 1975 
Q 2488 2216 2034 2216 
z
M 1403 2484 
Q 997 2584 770 2862 
Q 544 3141 544 3541 
Q 544 4100 942 4425 
Q 1341 4750 2034 4750 
Q 2731 4750 3128 4425 
Q 3525 4100 3525 3541 
Q 3525 3141 3298 2862 
Q 3072 2584 2669 2484 
Q 3125 2378 3379 2068 
Q 3634 1759 3634 1313 
Q 3634 634 3220 271 
Q 2806 -91 2034 -91 
Q 1263 -91 848 271 
Q 434 634 434 1313 
Q 434 1759 690 2068 
Q 947 2378 1403 2484 
z
M 1172 3481 
Q 1172 3119 1398 2916 
Q 1625 2713 2034 2713 
Q 2441 2713 2670 2916 
Q 2900 3119 2900 3481 
Q 2900 3844 2670 4047 
Q 2441 4250 2034 4250 
Q 1625 4250 1398 4047 
Q 1172 3844 1172 3481 
z
" id="DejaVuSans-38" transform="scale(0.015625)"/>
       </defs>
       <use xlink:href="#DejaVuSans-30"/>
       <use x="63.623047" xlink:href="#DejaVuSans-2e"/>
       <use x="95.410156" xlink:href="#DejaVuSans-38"/>
      </g>
     </g>
    </g>
    <g id="xtick_6">
     <g id="line2d_6">
      <g>
       <use style="stroke:#000000;stroke-width:0.8;" x="498.515722" xlink:href="#m1f951cd789" y="252"/>
      </g>
     </g>
     <g id="text_6">
      <!-- 1.0 -->
      <g transform="translate(490.56416 266.598437)scale(0.1 -0.1)">
       <defs>
        <path d="M 794 531 
L 1825 531 
L 1825 4091 
L 703 3866 
L 703 4441 
L 1819 4666 
L 2450 4666 
L 2450 531 
L 3481 531 
L 3481 0 
L 794 0 
L 794 531 
z
" id="DejaVuSans-31" transform="scale(0.015625)"/>
       </defs>
       <use xlink:href="#DejaVuSans-31"/>
       <use x="63.623047" xlink:href="#DejaVuSans-2e"/>
       <use x="95.410156" xlink:href="#DejaVuSans-30"/>
      </g>
     </g>
    </g>
    <g id="text_7">
     <!-- Thresholds -->
     <g transform="translate(267.957031 280.276563)scale(0.1 -0.1)">
      <defs>
       <path d="M -19 4666 
L 3928 4666 
L 3928 4134 
L 2272 4134 
L 2272 0 
L 1638 0 
L 1638 4134 
L -19 4134 
L -19 4666 
z
" id="DejaVuSans-54" transform="scale(0.015625)"/>
       <path d="M 3513 2113 
L 3513 0 
L 2938 0 
L 2938 2094 
Q 2938 2591 2744 2837 
Q 2550 3084 2163 3084 
Q 1697 3084 1428 2787 
Q 1159 2491 1159 1978 
L 1159 0 
L 581 0 
L 581 4863 
L 1159 4863 
L 1159 2956 
Q 1366 3272 1645 3428 
Q 1925 3584 2291 3584 
Q 2894 3584 3203 3211 
Q 3513 2838 3513 2113 
z
" id="DejaVuSans-68" transform="scale(0.015625)"/>
       <path d="M 2631 2963 
Q 2534 3019 2420 3045 
Q 2306 3072 2169 3072 
Q 1681 3072 1420 2755 
Q 1159 2438 1159 1844 
L 1159 0 
L 581 0 
L 581 3500 
L 1159 3500 
L 1159 2956 
Q 1341 3275 1631 3429 
Q 1922 3584 2338 3584 
Q 2397 3584 2469 3576 
Q 2541 3569 2628 3553 
L 2631 2963 
z
" id="DejaVuSans-72" transform="scale(0.015625)"/>
       <path d="M 3597 1894 
L 3597 1613 
L 953 1613 
Q 991 1019 1311 708 
Q 1631 397 2203 397 
Q 2534 397 2845 478 
Q 3156 559 3463 722 
L 3463 178 
Q 3153 47 2828 -22 
Q 2503 -91 2169 -91 
Q 1331 -91 842 396 
Q 353 884 353 1716 
Q 353 2575 817 3079 
Q 1281 3584 2069 3584 
Q 2775 3584 3186 3129 
Q 3597 2675 3597 1894 
z
M 3022 2063 
Q 3016 2534 2758 2815 
Q 2500 3097 2075 3097 
Q 1594 3097 1305 2825 
Q 1016 2553 972 2059 
L 3022 2063 
z
" id="DejaVuSans-65" transform="scale(0.015625)"/>
       <path d="M 2834 3397 
L 2834 2853 
Q 2591 2978 2328 3040 
Q 2066 3103 1784 3103 
Q 1356 3103 1142 2972 
Q 928 2841 928 2578 
Q 928 2378 1081 2264 
Q 1234 2150 1697 2047 
L 1894 2003 
Q 2506 1872 2764 1633 
Q 3022 1394 3022 966 
Q 3022 478 2636 193 
Q 2250 -91 1575 -91 
Q 1294 -91 989 -36 
Q 684 19 347 128 
L 347 722 
Q 666 556 975 473 
Q 1284 391 1588 391 
Q 1994 391 2212 530 
Q 2431 669 2431 922 
Q 2431 1156 2273 1281 
Q 2116 1406 1581 1522 
L 1381 1569 
Q 847 1681 609 1914 
Q 372 2147 372 2553 
Q 372 3047 722 3315 
Q 1072 3584 1716 3584 
Q 2034 3584 2315 3537 
Q 2597 3491 2834 3397 
z
" id="DejaVuSans-73" transform="scale(0.015625)"/>
       <path d="M 1959 3097 
Q 1497 3097 1228 2736 
Q 959 2375 959 1747 
Q 959 1119 1226 758 
Q 1494 397 1959 397 
Q 2419 397 2687 759 
Q 2956 1122 2956 1747 
Q 2956 2369 2687 2733 
Q 2419 3097 1959 3097 
z
M 1959 3584 
Q 2709 3584 3137 3096 
Q 3566 2609 3566 1747 
Q 3566 888 3137 398 
Q 2709 -91 1959 -91 
Q 1206 -91 779 398 
Q 353 888 353 1747 
Q 353 2609 779 3096 
Q 1206 3584 1959 3584 
z
" id="DejaVuSans-6f" transform="scale(0.015625)"/>
       <path d="M 603 4863 
L 1178 4863 
L 1178 0 
L 603 0 
L 603 4863 
z
" id="DejaVuSans-6c" transform="scale(0.015625)"/>
       <path d="M 2906 2969 
L 2906 4863 
L 3481 4863 
L 3481 0 
L 2906 0 
L 2906 525 
Q 2725 213 2448 61 
Q 2172 -91 1784 -91 
Q 1150 -91 751 415 
Q 353 922 353 1747 
Q 353 2572 751 3078 
Q 1150 3584 1784 3584 
Q 2172 3584 2448 3432 
Q 2725 3281 2906 2969 
z
M 947 1747 
Q 947 1113 1208 752 
Q 1469 391 1925 391 
Q 2381 391 2643 752 
Q 2906 1113 2906 1747 
Q 2906 2381 2643 2742 
Q 2381 3103 1925 3103 
Q 1469 3103 1208 2742 
Q 947 2381 947 1747 
z
" id="DejaVuSans-64" transform="scale(0.015625)"/>
      </defs>
      <use xlink:href="#DejaVuSans-54"/>
      <use x="61.083984" xlink:href="#DejaVuSans-68"/>
      <use x="124.462891" xlink:href="#DejaVuSans-72"/>
      <use x="163.326172" xlink:href="#DejaVuSans-65"/>
      <use x="224.849609" xlink:href="#DejaVuSans-73"/>
      <use x="276.949219" xlink:href="#DejaVuSans-68"/>
      <use x="340.328125" xlink:href="#DejaVuSans-6f"/>
      <use x="401.509766" xlink:href="#DejaVuSans-6c"/>
      <use x="429.292969" xlink:href="#DejaVuSans-64"/>
      <use x="492.769531" xlink:href="#DejaVuSans-73"/>
     </g>
    </g>
   </g>
   <g id="matplotlib.axis_2">
    <g id="ytick_1">
     <g id="line2d_7">
      <defs>
       <path d="M 0 0 
L -3.5 0 
" id="m2636b3755f" style="stroke:#000000;stroke-width:0.8;"/>
      </defs>
      <g>
       <use style="stroke:#000000;stroke-width:0.8;" x="72" xlink:href="#m2636b3755f" y="242.116364"/>
      </g>
     </g>
     <g id="text_8">
      <!-- 0.00 -->
      <g transform="translate(42.734375 245.915582)scale(0.1 -0.1)">
       <use xlink:href="#DejaVuSans-30"/>
       <use x="63.623047" xlink:href="#DejaVuSans-2e"/>
       <use x="95.410156" xlink:href="#DejaVuSans-30"/>
       <use x="159.033203" xlink:href="#DejaVuSans-30"/>
      </g>
     </g>
    </g>
    <g id="ytick_2">
     <g id="line2d_8">
      <g>
       <use style="stroke:#000000;stroke-width:0.8;" x="72" xlink:href="#m2636b3755f" y="216.748364"/>
      </g>
     </g>
     <g id="text_9">
      <!-- 0.01 -->
      <g transform="translate(42.734375 220.547582)scale(0.1 -0.1)">
       <use xlink:href="#DejaVuSans-30"/>
       <use x="63.623047" xlink:href="#DejaVuSans-2e"/>
       <use x="95.410156" xlink:href="#DejaVuSans-30"/>
       <use x="159.033203" xlink:href="#DejaVuSans-31"/>
      </g>
     </g>
    </g>
    <g id="ytick_3">
     <g id="line2d_9">
      <g>
       <use style="stroke:#000000;stroke-width:0.8;" x="72" xlink:href="#m2636b3755f" y="191.380364"/>
      </g>
     </g>
     <g id="text_10">
      <!-- 0.02 -->
      <g transform="translate(42.734375 195.179582)scale(0.1 -0.1)">
       <use xlink:href="#DejaVuSans-30"/>
       <use x="63.623047" xlink:href="#DejaVuSans-2e"/>
       <use x="95.410156" xlink:href="#DejaVuSans-30"/>
       <use x="159.033203" xlink:href="#DejaVuSans-32"/>
      </g>
     </g>
    </g>
    <g id="ytick_4">
     <g id="line2d_10">
      <g>
       <use style="stroke:#000000;stroke-width:0.8;" x="72" xlink:href="#m2636b3755f" y="166.012364"/>
      </g>
     </g>
     <g id="text_11">
      <!-- 0.03 -->
      <g transform="translate(42.734375 169.811582)scale(0.1 -0.1)">
       <defs>
        <path d="M 2597 2516 
Q 3050 2419 3304 2112 
Q 3559 1806 3559 1356 
Q 3559 666 3084 287 
Q 2609 -91 1734 -91 
Q 1441 -91 1130 -33 
Q 819 25 488 141 
L 488 750 
Q 750 597 1062 519 
Q 1375 441 1716 441 
Q 2309 441 2620 675 
Q 2931 909 2931 1356 
Q 2931 1769 2642 2001 
Q 2353 2234 1838 2234 
L 1294 2234 
L 1294 2753 
L 1863 2753 
Q 2328 2753 2575 2939 
Q 2822 3125 2822 3475 
Q 2822 3834 2567 4026 
Q 2313 4219 1838 4219 
Q 1578 4219 1281 4162 
Q 984 4106 628 3988 
L 628 4550 
Q 988 4650 1302 4700 
Q 1616 4750 1894 4750 
Q 2613 4750 3031 4423 
Q 3450 4097 3450 3541 
Q 3450 3153 3228 2886 
Q 3006 2619 2597 2516 
z
" id="DejaVuSans-33" transform="scale(0.015625)"/>
       </defs>
       <use xlink:href="#DejaVuSans-30"/>
       <use x="63.623047" xlink:href="#DejaVuSans-2e"/>
       <use x="95.410156" xlink:href="#DejaVuSans-30"/>
       <use x="159.033203" xlink:href="#DejaVuSans-33"/>
      </g>
     </g>
    </g>
    <g id="ytick_5">
     <g id="line2d_11">
      <g>
       <use style="stroke:#000000;stroke-width:0.8;" x="72" xlink:href="#m2636b3755f" y="140.644364"/>
      </g>
     </g>
     <g id="text_12">
      <!-- 0.04 -->
      <g transform="translate(42.734375 144.443582)scale(0.1 -0.1)">
       <use xlink:href="#DejaVuSans-30"/>
       <use x="63.623047" xlink:href="#DejaVuSans-2e"/>
       <use x="95.410156" xlink:href="#DejaVuSans-30"/>
       <use x="159.033203" xlink:href="#DejaVuSans-34"/>
      </g>
     </g>
    </g>
    <g id="ytick_6">
     <g id="line2d_12">
      <g>
       <use style="stroke:#000000;stroke-width:0.8;" x="72" xlink:href="#m2636b3755f" y="115.276364"/>
      </g>
     </g>
     <g id="text_13">
      <!-- 0.05 -->
      <g transform="translate(42.734375 119.075582)scale(0.1 -0.1)">
       <defs>
        <path d="M 691 4666 
L 3169 4666 
L 3169 4134 
L 1269 4134 
L 1269 2991 
Q 1406 3038 1543 3061 
Q 1681 3084 1819 3084 
Q 2600 3084 3056 2656 
Q 3513 2228 3513 1497 
Q 3513 744 3044 326 
Q 2575 -91 1722 -91 
Q 1428 -91 1123 -41 
Q 819 9 494 109 
L 494 744 
Q 775 591 1075 516 
Q 1375 441 1709 441 
Q 2250 441 2565 725 
Q 2881 1009 2881 1497 
Q 2881 1984 2565 2268 
Q 2250 2553 1709 2553 
Q 1456 2553 1204 2497 
Q 953 2441 691 2322 
L 691 4666 
z
" id="DejaVuSans-35" transform="scale(0.015625)"/>
       </defs>
       <use xlink:href="#DejaVuSans-30"/>
       <use x="63.623047" xlink:href="#DejaVuSans-2e"/>
       <use x="95.410156" xlink:href="#DejaVuSans-30"/>
       <use x="159.033203" xlink:href="#DejaVuSans-35"/>
      </g>
     </g>
    </g>
    <g id="ytick_7">
     <g id="line2d_13">
      <g>
       <use style="stroke:#000000;stroke-width:0.8;" x="72" xlink:href="#m2636b3755f" y="89.908364"/>
      </g>
     </g>
     <g id="text_14">
      <!-- 0.06 -->
      <g transform="translate(42.734375 93.707582)scale(0.1 -0.1)">
       <use xlink:href="#DejaVuSans-30"/>
       <use x="63.623047" xlink:href="#DejaVuSans-2e"/>
       <use x="95.410156" xlink:href="#DejaVuSans-30"/>
       <use x="159.033203" xlink:href="#DejaVuSans-36"/>
      </g>
     </g>
    </g>
    <g id="ytick_8">
     <g id="line2d_14">
      <g>
       <use style="stroke:#000000;stroke-width:0.8;" x="72" xlink:href="#m2636b3755f" y="64.540364"/>
      </g>
     </g>
     <g id="text_15">
      <!-- 0.07 -->
      <g transform="translate(42.734375 68.339582)scale(0.1 -0.1)">
       <defs>
        <path d="M 525 4666 
L 3525 4666 
L 3525 4397 
L 1831 0 
L 1172 0 
L 2766 4134 
L 525 4134 
L 525 4666 
z
" id="DejaVuSans-37" transform="scale(0.015625)"/>
       </defs>
       <use xlink:href="#DejaVuSans-30"/>
       <use x="63.623047" xlink:href="#DejaVuSans-2e"/>
       <use x="95.410156" xlink:href="#DejaVuSans-30"/>
       <use x="159.033203" xlink:href="#DejaVuSans-37"/>
      </g>
     </g>
    </g>
    <g id="ytick_9">
     <g id="line2d_15">
      <g>
       <use style="stroke:#000000;stroke-width:0.8;" x="72" xlink:href="#m2636b3755f" y="39.172364"/>
      </g>
     </g>
     <g id="text_16">
      <!-- 0.08 -->
      <g transform="translate(42.734375 42.971582)scale(0.1 -0.1)">
       <use xlink:href="#DejaVuSans-30"/>
       <use x="63.623047" xlink:href="#DejaVuSans-2e"/>
       <use x="95.410156" xlink:href="#DejaVuSans-30"/>
       <use x="159.033203" xlink:href="#DejaVuSans-38"/>
      </g>
     </g>
    </g>
    <g id="text_17">
     <!-- F1 score -->
     <g transform="translate(36.654687 164.358906)rotate(-90)scale(0.1 -0.1)">
      <defs>
       <path d="M 628 4666 
L 3309 4666 
L 3309 4134 
L 1259 4134 
L 1259 2759 
L 3109 2759 
L 3109 2228 
L 1259 2228 
L 1259 0 
L 628 0 
L 628 4666 
z
" id="DejaVuSans-46" transform="scale(0.015625)"/>
       <path id="DejaVuSans-20" transform="scale(0.015625)"/>
       <path d="M 3122 3366 
L 3122 2828 
Q 2878 2963 2633 3030 
Q 2388 3097 2138 3097 
Q 1578 3097 1268 2742 
Q 959 2388 959 1747 
Q 959 1106 1268 751 
Q 1578 397 2138 397 
Q 2388 397 2633 464 
Q 2878 531 3122 666 
L 3122 134 
Q 2881 22 2623 -34 
Q 2366 -91 2075 -91 
Q 1284 -91 818 406 
Q 353 903 353 1747 
Q 353 2603 823 3093 
Q 1294 3584 2113 3584 
Q 2378 3584 2631 3529 
Q 2884 3475 3122 3366 
z
" id="DejaVuSans-63" transform="scale(0.015625)"/>
      </defs>
      <use xlink:href="#DejaVuSans-46"/>
      <use x="57.519531" xlink:href="#DejaVuSans-31"/>
      <use x="121.142578" xlink:href="#DejaVuSans-20"/>
      <use x="152.929688" xlink:href="#DejaVuSans-73"/>
      <use x="205.029297" xlink:href="#DejaVuSans-63"/>
      <use x="260.009766" xlink:href="#DejaVuSans-6f"/>
      <use x="321.191406" xlink:href="#DejaVuSans-72"/>
      <use x="360.054688" xlink:href="#DejaVuSans-65"/>
     </g>
    </g>
   </g>
   <g id="line2d_16">
    <path clip-path="url(#pa633221b88)" d="M 92.290909 194.131278 
L 95.950592 192.865041 
L 96.357224 192.852912 
L 99.203644 191.725432 
L 100.830169 191.234724 
L 104.896484 189.881449 
L 124.414793 185.255984 
L 125.228056 185.135232 
L 129.294371 184.053942 
L 130.107633 183.857564 
L 130.920896 183.652504 
L 132.954054 182.975977 
L 134.580579 182.457579 
L 134.987211 182.38351 
L 135.800474 182.046617 
L 138.646894 181.215447 
L 139.053525 181.375926 
L 140.680051 180.899824 
L 141.086682 180.829656 
L 141.899945 180.539184 
L 143.933103 180.002678 
L 144.339734 180.085247 
L 146.372891 179.589603 
L 147.186154 179.320299 
L 148.81268 178.939352 
L 149.219311 179.110419 
L 150.032574 178.905517 
L 150.439206 179.059927 
L 156.538677 177.033262 
L 158.165203 176.492767 
L 158.571835 176.373531 
L 159.385097 176.620711 
L 160.19836 176.228636 
L 160.604992 176.375185 
L 165.077938 174.83989 
L 165.484569 175.007912 
L 167.517726 174.48525 
L 168.330989 174.780059 
L 168.737621 174.573713 
L 169.144252 174.706681 
L 171.990672 173.732721 
L 172.803935 173.33945 
L 174.837092 172.766131 
L 175.650355 172.488542 
L 176.463618 172.277978 
L 176.87025 172.291309 
L 178.496775 171.735183 
L 179.310038 171.87397 
L 179.71667 171.762012 
L 180.936564 171.17403 
L 181.749827 170.85717 
L 182.156458 170.907943 
L 183.782984 170.29929 
L 184.189616 170.403724 
L 184.596247 170.262558 
L 185.002878 170.249185 
L 187.036036 169.435142 
L 188.662561 168.808299 
L 189.069193 168.788549 
L 191.508982 167.882649 
L 191.915613 167.810733 
L 192.728876 167.324853 
L 193.135507 167.457422 
L 193.94877 166.999736 
L 194.355402 167.163116 
L 195.168665 166.664798 
L 196.388559 166.137505 
L 197.201822 165.88932 
L 200.861505 164.306051 
L 201.268136 164.023139 
L 201.674768 163.914143 
L 202.081399 164.041989 
L 202.488031 163.741666 
L 202.894662 163.740394 
L 204.114556 163.135192 
L 204.521188 163.22443 
L 204.927819 163.087345 
L 205.741082 162.549128 
L 206.147714 162.68747 
L 206.554345 162.572904 
L 206.960976 162.671866 
L 208.994134 161.767423 
L 211.433922 160.674486 
L 211.840554 160.40584 
L 213.060448 160.727019 
L 214.280343 160.321646 
L 214.686974 160.009555 
L 215.093605 159.879716 
L 215.906868 159.400107 
L 216.720131 159.723126 
L 217.940026 158.925825 
L 219.566551 158.371981 
L 220.379814 158.358181 
L 221.193077 157.875458 
L 222.00634 157.181997 
L 222.412971 157.093775 
L 222.819603 157.274732 
L 224.039497 156.747544 
L 225.259392 156.358361 
L 225.666023 156.650449 
L 226.072654 156.670793 
L 226.479286 156.416094 
L 226.885917 156.453957 
L 227.292549 156.368435 
L 228.919075 155.23463 
L 229.325706 155.268638 
L 231.358863 154.755871 
L 232.172126 154.150007 
L 232.578758 153.987455 
L 233.39202 153.423661 
L 234.205283 153.079249 
L 234.611915 153.052645 
L 235.831809 152.443078 
L 236.238441 152.45377 
L 236.645072 152.168458 
L 237.051703 152.342002 
L 237.864966 151.765645 
L 238.271598 151.939761 
L 238.678229 151.725087 
L 239.084861 151.355688 
L 239.898124 150.841922 
L 240.304755 150.515181 
L 240.711386 150.358085 
L 241.118018 149.984617 
L 241.524649 149.890774 
L 242.337912 149.330994 
L 242.744544 149.235814 
L 243.151175 148.734753 
L 244.371069 147.882499 
L 245.997595 146.937646 
L 246.404227 146.473624 
L 246.810858 146.692035 
L 247.21749 146.39588 
L 247.624121 146.537037 
L 248.437384 146.017541 
L 248.844015 146.633012 
L 250.877173 145.306522 
L 251.283804 145.833418 
L 251.690435 145.427469 
L 252.097067 146.040077 
L 252.91033 145.402348 
L 253.316961 145.21268 
L 253.723593 145.472236 
L 254.130224 145.356524 
L 255.350118 144.563958 
L 255.75675 144.951146 
L 256.570013 144.071517 
L 256.976644 143.849115 
L 257.383276 144.035048 
L 258.60317 143.221885 
L 259.416433 142.862969 
L 260.229696 142.350762 
L 260.636327 141.887026 
L 261.44959 141.283126 
L 261.856222 141.80776 
L 262.669484 141.215673 
L 263.076116 141.511961 
L 263.482747 141.070794 
L 263.889379 140.83021 
L 264.29601 140.961347 
L 264.702642 140.56949 
L 265.109273 140.485126 
L 266.735799 138.903539 
L 267.14243 138.835763 
L 267.549062 138.368606 
L 267.955693 138.182521 
L 268.362325 138.308691 
L 269.175588 137.72528 
L 269.582219 137.671323 
L 269.98885 137.73736 
L 270.395482 137.35465 
L 271.208745 136.979305 
L 272.022008 136.127453 
L 272.428639 136.105298 
L 273.241902 135.477642 
L 273.648533 135.610452 
L 274.461796 135.13375 
L 274.868428 134.609797 
L 275.275059 134.275658 
L 275.681691 134.449704 
L 276.901585 133.411083 
L 277.308216 133.145517 
L 277.714848 132.73355 
L 278.121479 132.487116 
L 278.528111 131.775238 
L 278.934742 131.717856 
L 279.341374 131.843651 
L 279.748005 131.659864 
L 280.154637 131.13966 
L 280.561268 130.895218 
L 281.374531 130.119912 
L 281.781162 129.85907 
L 283.001057 128.133519 
L 283.407688 127.92485 
L 284.220951 127.094951 
L 284.627582 127.449348 
L 285.440845 126.629757 
L 286.254108 125.939903 
L 286.66074 126.025994 
L 287.067371 125.689762 
L 287.474003 125.879439 
L 287.880634 125.540708 
L 288.287265 126.197309 
L 288.693897 125.791448 
L 289.100528 125.984103 
L 289.50716 125.746749 
L 289.913791 125.900569 
L 290.320423 125.421822 
L 291.133686 125.218552 
L 291.540317 125.468338 
L 291.946948 126.161886 
L 293.166843 124.835364 
L 293.573474 125.171683 
L 293.980106 124.838981 
L 294.386737 124.842636 
L 294.793369 124.281047 
L 295.2 125.159802 
L 296.013263 124.33965 
L 296.826526 123.565652 
L 297.233157 123.707566 
L 297.639789 123.461092 
L 298.04642 123.53056 
L 298.453052 123.105993 
L 299.266314 122.619153 
L 299.672946 122.997059 
L 300.079577 123.080197 
L 300.486209 122.197229 
L 300.89284 121.985784 
L 301.706103 120.809382 
L 302.112735 120.282566 
L 302.519366 120.57355 
L 302.925997 121.409574 
L 303.332629 121.56595 
L 305.365786 119.627076 
L 305.772418 119.02624 
L 306.179049 118.997004 
L 306.992312 118.303652 
L 307.398943 118.652852 
L 307.805575 118.453342 
L 308.618838 118.873807 
L 309.025469 118.437431 
L 309.432101 118.691353 
L 309.838732 118.55626 
L 310.245363 118.896386 
L 311.465258 117.821941 
L 312.685152 118.733219 
L 313.091784 118.352674 
L 313.498415 118.544239 
L 313.905046 118.247778 
L 314.718309 120.251895 
L 315.124941 119.467472 
L 316.751467 117.957893 
L 317.564729 116.906317 
L 319.597887 114.426356 
L 320.004518 114.235916 
L 320.41115 114.497738 
L 320.817781 114.229672 
L 321.224412 114.377603 
L 321.631044 113.913731 
L 322.037675 114.430251 
L 322.850938 113.553152 
L 324.070833 114.296147 
L 324.884095 113.139944 
L 325.290727 114.103576 
L 325.697358 113.417829 
L 326.10399 112.970182 
L 326.917253 113.885176 
L 327.323884 113.681019 
L 327.730516 114.040185 
L 328.137147 113.54719 
L 328.543778 113.382013 
L 329.357041 112.066266 
L 329.763673 111.152665 
L 330.170304 110.873927 
L 330.576936 111.357798 
L 330.983567 111.076364 
L 331.390199 111.070205 
L 332.203461 112.439686 
L 332.610093 111.539459 
L 333.016724 111.073509 
L 333.423356 111.357941 
L 333.829987 110.662417 
L 334.236619 110.345879 
L 334.64325 109.36405 
L 335.049882 108.971838 
L 335.456513 109.090669 
L 336.269776 108.506813 
L 337.083039 106.916506 
L 337.896302 105.900147 
L 338.302933 105.164771 
L 338.709565 105.561739 
L 339.116196 105.041767 
L 339.522827 104.742858 
L 340.33609 104.615393 
L 340.742722 104.337868 
L 341.149353 104.612824 
L 341.555985 104.307938 
L 341.962616 105.65337 
L 342.369248 105.221686 
L 342.775879 104.195104 
L 343.18251 104.267609 
L 343.589142 103.82403 
L 343.995773 103.614297 
L 344.809036 102.582674 
L 345.215668 102.672812 
L 346.435562 100.716091 
L 346.842193 99.744935 
L 347.248825 100.351074 
L 348.062088 99.650237 
L 348.468719 99.922446 
L 348.875351 99.554068 
L 349.281982 98.811556 
L 349.688614 98.639107 
L 350.501876 97.712326 
L 351.315139 96.329202 
L 351.721771 96.442861 
L 352.128402 96.947488 
L 352.535034 96.467789 
L 352.941665 96.945972 
L 353.348297 96.189561 
L 354.568191 94.869928 
L 354.974822 94.029054 
L 355.381454 92.733645 
L 355.788085 92.54217 
L 356.194717 91.739044 
L 356.601348 92.02282 
L 357.00798 91.109803 
L 357.414611 90.649116 
L 357.821242 92.174157 
L 358.227874 91.812216 
L 358.634505 91.116364 
L 359.041137 91.43764 
L 359.447768 92.163297 
L 360.261031 90.64862 
L 360.667663 91.143595 
L 361.887557 90.115637 
L 362.294188 88.968593 
L 362.70082 88.793287 
L 363.107451 87.98168 
L 363.514083 87.483438 
L 363.920714 86.51339 
L 364.327346 85.969196 
L 364.733977 85.713935 
L 365.140608 84.610437 
L 365.54724 84.313536 
L 366.360503 82.470309 
L 366.767134 81.974039 
L 367.173766 80.700312 
L 367.987029 79.168626 
L 368.39366 78.651585 
L 368.800291 78.773626 
L 369.206923 79.018441 
L 369.613554 78.695155 
L 370.426817 76.562147 
L 370.833449 76.187307 
L 371.24008 75.221627 
L 371.646712 75.663057 
L 372.053343 75.408671 
L 372.459974 74.854825 
L 372.866606 73.736019 
L 373.273237 73.872633 
L 373.679869 72.820013 
L 374.0865 72.288749 
L 375.306395 69.627439 
L 376.119657 67.023131 
L 376.526289 66.264536 
L 376.93292 66.640547 
L 377.339552 65.534506 
L 377.746183 63.972266 
L 378.152815 63.379276 
L 378.559446 62.131112 
L 378.966078 61.475153 
L 379.372709 61.272356 
L 379.77934 61.937784 
L 380.592603 59.987133 
L 380.999235 59.727319 
L 381.405866 58.68061 
L 381.812498 57.248347 
L 382.219129 57.379981 
L 382.625761 58.517423 
L 383.032392 58.084279 
L 383.439024 57.376044 
L 383.845655 57.346453 
L 385.472181 52.070555 
L 385.878812 51.343958 
L 386.285444 53.264815 
L 387.098707 51.573779 
L 387.505338 51.917325 
L 387.911969 52.693255 
L 388.318601 52.326747 
L 388.725232 52.433659 
L 389.131864 52.186676 
L 389.538495 50.25053 
L 389.945127 49.681007 
L 390.351758 48.467509 
L 390.75839 47.693171 
L 391.571652 45.000147 
L 391.978284 45.585477 
L 392.384915 44.443636 
L 393.198178 49.536653 
L 393.60481 48.668877 
L 394.011441 50.59284 
L 394.418073 49.718611 
L 394.824704 51.030408 
L 395.231335 50.152007 
L 395.637967 54.405798 
L 396.044598 54.004278 
L 396.45123 54.002325 
L 397.264493 51.602036 
L 398.077756 52.326141 
L 398.484387 52.944104 
L 399.704281 48.762705 
L 400.110913 50.037434 
L 400.517544 50.216402 
L 400.924176 51.733694 
L 401.330807 52.227241 
L 401.737439 50.584472 
L 402.14407 50.849697 
L 402.550701 48.778217 
L 402.957333 50.19749 
L 403.363964 47.773087 
L 403.770596 48.101232 
L 404.177227 49.155967 
L 404.99049 46.977902 
L 405.397122 48.981034 
L 405.803753 51.938337 
L 406.210384 52.490288 
L 406.617016 52.469926 
L 407.023647 51.295125 
L 407.430279 53.121951 
L 408.243542 51.137316 
L 408.650173 50.395073 
L 409.463436 52.449074 
L 409.870067 50.116364 
L 410.276699 49.295461 
L 410.68333 51.673245 
L 411.496593 51.029546 
L 411.903225 51.546998 
L 412.309856 52.542322 
L 412.716488 51.699771 
L 413.123119 50.087678 
L 413.52975 48.933197 
L 413.936382 45.78561 
L 414.343013 46.274881 
L 414.749645 49.914599 
L 415.156276 50.358253 
L 415.562908 49.853627 
L 415.969539 50.608868 
L 416.376171 51.890333 
L 416.782802 50.556493 
L 417.189433 51.752905 
L 418.002696 59.511712 
L 418.409328 62.746667 
L 418.815959 61.530601 
L 419.222591 59.571075 
L 419.629222 61.228957 
L 420.035854 64.30328 
L 420.442485 64.465088 
L 420.849116 63.190841 
L 421.662379 59.59051 
L 422.069011 60.804719 
L 422.475642 62.937181 
L 422.882274 66.504029 
L 423.288905 64.94303 
L 423.695537 67.610376 
L 424.102168 68.631977 
L 424.508799 67.164639 
L 424.915431 67.164639 
L 425.728694 64.034051 
L 426.135325 64.965526 
L 426.541957 63.845106 
L 427.761851 58.290277 
L 428.575114 56.813223 
L 429.388377 59.694791 
L 430.20164 58.733231 
L 430.608271 55.644082 
L 431.014903 54.927432 
L 431.421534 53.184789 
L 431.828165 53.038103 
L 432.234797 52.596675 
L 432.641428 50.65976 
L 433.04806 54.65805 
L 433.454691 56.798182 
L 433.861323 53.740126 
L 434.267954 56.393901 
L 434.674586 53.570418 
L 435.081217 57.141364 
L 435.487848 55.194258 
L 435.89448 54.536082 
L 436.301111 55.720665 
L 436.707743 57.285763 
L 437.114374 54.725782 
L 437.927637 51.915801 
L 438.334269 49.752383 
L 438.7409 53.128398 
L 439.147531 54.205253 
L 439.554163 58.613724 
L 439.960794 61.095947 
L 440.367426 68.222815 
L 441.180689 62.613346 
L 441.58732 71.575187 
L 441.993952 69.398066 
L 442.400583 78.451848 
L 442.807214 78.996186 
L 443.213846 82.317938 
L 443.620477 81.414101 
L 444.027109 79.946501 
L 444.43374 87.831451 
L 444.840372 86.374215 
L 445.247003 89.297087 
L 445.653635 99.285519 
L 446.060266 99.110481 
L 446.466897 101.360752 
L 446.873529 104.992039 
L 447.28016 102.84107 
L 447.686792 107.180193 
L 448.093423 113.068974 
L 448.500055 109.882619 
L 448.906686 113.851195 
L 449.313318 112.393636 
L 449.719949 112.209109 
L 450.12658 117.114625 
L 450.939843 115.648328 
L 451.753106 127.846093 
L 452.159738 127.155639 
L 452.566369 131.649179 
L 452.973001 152.390319 
L 453.379632 149.716364 
L 453.786263 148.789273 
L 454.192895 148.160808 
L 454.599526 146.058532 
L 455.006158 142.456364 
L 455.819421 140.644364 
L 456.226052 140.644364 
L 457.039315 155.798027 
L 457.852578 153.27901 
L 458.259209 152.582246 
L 458.665841 151.155407 
L 459.072472 161.100795 
L 459.479104 160.448758 
L 459.885735 168.280189 
L 460.292367 187.911235 
L 461.105629 186.84839 
L 461.512261 186.84839 
L 461.918892 185.868027 
L 462.325524 185.868027 
L 463.545418 184.06602 
L 463.95205 182.983497 
L 465.171944 181.716364 
L 465.578575 181.716364 
L 466.79847 179.939893 
L 467.205101 177.893579 
L 467.611733 177.236568 
L 468.018364 189.540198 
L 468.424995 189.540198 
L 469.238258 187.853262 
L 469.64489 187.266634 
L 470.051521 186.054485 
L 470.864784 213.451957 
L 471.271416 213.451957 
L 471.678047 212.18362 
L 472.49131 212.095062 
L 472.897941 226.925944 
L 473.304573 226.741818 
L 473.711204 226.741818 
L 474.117836 242.116364 
L 498.109091 242.116364 
L 498.109091 242.116364 
" style="fill:none;stroke:#1f77b4;stroke-linecap:square;stroke-width:1.5;"/>
   </g>
   <g id="patch_3">
    <path d="M 72 252 
L 72 34.56 
" style="fill:none;stroke:#000000;stroke-linecap:square;stroke-linejoin:miter;stroke-width:0.8;"/>
   </g>
   <g id="patch_4">
    <path d="M 518.4 252 
L 518.4 34.56 
" style="fill:none;stroke:#000000;stroke-linecap:square;stroke-linejoin:miter;stroke-width:0.8;"/>
   </g>
   <g id="patch_5">
    <path d="M 72 252 
L 518.4 252 
" style="fill:none;stroke:#000000;stroke-linecap:square;stroke-linejoin:miter;stroke-width:0.8;"/>
   </g>
   <g id="patch_6">
    <path d="M 72 34.56 
L 518.4 34.56 
" style="fill:none;stroke:#000000;stroke-linecap:square;stroke-linejoin:miter;stroke-width:0.8;"/>
   </g>
   <g id="text_18">
    <!-- XOCHIMILCO -->
    <g transform="translate(269.783125 28.56)scale(0.08 -0.08)">
     <defs>
      <path d="M 403 4666 
L 1081 4666 
L 2241 2931 
L 3406 4666 
L 4084 4666 
L 2584 2425 
L 4184 0 
L 3506 0 
L 2194 1984 
L 872 0 
L 191 0 
L 1856 2491 
L 403 4666 
z
" id="DejaVuSans-58" transform="scale(0.015625)"/>
      <path d="M 2522 4238 
Q 1834 4238 1429 3725 
Q 1025 3213 1025 2328 
Q 1025 1447 1429 934 
Q 1834 422 2522 422 
Q 3209 422 3611 934 
Q 4013 1447 4013 2328 
Q 4013 3213 3611 3725 
Q 3209 4238 2522 4238 
z
M 2522 4750 
Q 3503 4750 4090 4092 
Q 4678 3434 4678 2328 
Q 4678 1225 4090 567 
Q 3503 -91 2522 -91 
Q 1538 -91 948 565 
Q 359 1222 359 2328 
Q 359 3434 948 4092 
Q 1538 4750 2522 4750 
z
" id="DejaVuSans-4f" transform="scale(0.015625)"/>
      <path d="M 4122 4306 
L 4122 3641 
Q 3803 3938 3442 4084 
Q 3081 4231 2675 4231 
Q 1875 4231 1450 3742 
Q 1025 3253 1025 2328 
Q 1025 1406 1450 917 
Q 1875 428 2675 428 
Q 3081 428 3442 575 
Q 3803 722 4122 1019 
L 4122 359 
Q 3791 134 3420 21 
Q 3050 -91 2638 -91 
Q 1578 -91 968 557 
Q 359 1206 359 2328 
Q 359 3453 968 4101 
Q 1578 4750 2638 4750 
Q 3056 4750 3426 4639 
Q 3797 4528 4122 4306 
z
" id="DejaVuSans-43" transform="scale(0.015625)"/>
      <path d="M 628 4666 
L 1259 4666 
L 1259 2753 
L 3553 2753 
L 3553 4666 
L 4184 4666 
L 4184 0 
L 3553 0 
L 3553 2222 
L 1259 2222 
L 1259 0 
L 628 0 
L 628 4666 
z
" id="DejaVuSans-48" transform="scale(0.015625)"/>
      <path d="M 628 4666 
L 1259 4666 
L 1259 0 
L 628 0 
L 628 4666 
z
" id="DejaVuSans-49" transform="scale(0.015625)"/>
      <path d="M 628 4666 
L 1569 4666 
L 2759 1491 
L 3956 4666 
L 4897 4666 
L 4897 0 
L 4281 0 
L 4281 4097 
L 3078 897 
L 2444 897 
L 1241 4097 
L 1241 0 
L 628 0 
L 628 4666 
z
" id="DejaVuSans-4d" transform="scale(0.015625)"/>
      <path d="M 628 4666 
L 1259 4666 
L 1259 531 
L 3531 531 
L 3531 0 
L 628 0 
L 628 4666 
z
" id="DejaVuSans-4c" transform="scale(0.015625)"/>
     </defs>
     <use xlink:href="#DejaVuSans-58"/>
     <use x="62.130859" xlink:href="#DejaVuSans-4f"/>
     <use x="140.841797" xlink:href="#DejaVuSans-43"/>
     <use x="210.666016" xlink:href="#DejaVuSans-48"/>
     <use x="285.861328" xlink:href="#DejaVuSans-49"/>
     <use x="315.353516" xlink:href="#DejaVuSans-4d"/>
     <use x="401.632812" xlink:href="#DejaVuSans-49"/>
     <use x="431.125" xlink:href="#DejaVuSans-4c"/>
     <use x="486.837891" xlink:href="#DejaVuSans-43"/>
     <use x="556.662109" xlink:href="#DejaVuSans-4f"/>
    </g>
   </g>
  </g>
  <g id="text_19">
   <!-- F1 score curve -->
   <g transform="translate(229.31625 17.9175)scale(0.16 -0.16)">
    <defs>
     <path d="M 544 1381 
L 544 3500 
L 1119 3500 
L 1119 1403 
Q 1119 906 1312 657 
Q 1506 409 1894 409 
Q 2359 409 2629 706 
Q 2900 1003 2900 1516 
L 2900 3500 
L 3475 3500 
L 3475 0 
L 2900 0 
L 2900 538 
Q 2691 219 2414 64 
Q 2138 -91 1772 -91 
Q 1169 -91 856 284 
Q 544 659 544 1381 
z
M 1991 3584 
L 1991 3584 
z
" id="DejaVuSans-75" transform="scale(0.015625)"/>
     <path d="M 191 3500 
L 800 3500 
L 1894 563 
L 2988 3500 
L 3597 3500 
L 2284 0 
L 1503 0 
L 191 3500 
z
" id="DejaVuSans-76" transform="scale(0.015625)"/>
    </defs>
    <use xlink:href="#DejaVuSans-46"/>
    <use x="57.519531" xlink:href="#DejaVuSans-31"/>
    <use x="121.142578" xlink:href="#DejaVuSans-20"/>
    <use x="152.929688" xlink:href="#DejaVuSans-73"/>
    <use x="205.029297" xlink:href="#DejaVuSans-63"/>
    <use x="260.009766" xlink:href="#DejaVuSans-6f"/>
    <use x="321.191406" xlink:href="#DejaVuSans-72"/>
    <use x="360.054688" xlink:href="#DejaVuSans-65"/>
    <use x="421.578125" xlink:href="#DejaVuSans-20"/>
    <use x="453.365234" xlink:href="#DejaVuSans-63"/>
    <use x="508.345703" xlink:href="#DejaVuSans-75"/>
    <use x="571.724609" xlink:href="#DejaVuSans-72"/>
    <use x="612.837891" xlink:href="#DejaVuSans-76"/>
    <use x="672.017578" xlink:href="#DejaVuSans-65"/>
   </g>
  </g>
 </g>
 <defs>
  <clipPath id="pa633221b88">
   <rect height="217.44" width="446.4" x="72" y="34.56"/>
  </clipPath>
 </defs>
</svg>
