<?xml version="1.0" encoding="utf-8" standalone="no"?>
<!DOCTYPE svg PUBLIC "-//W3C//DTD SVG 1.1//EN"
  "http://www.w3.org/Graphics/SVG/1.1/DTD/svg11.dtd">
<svg height="288pt" version="1.1" viewBox="0 0 576 288" width="576pt" xmlns="http://www.w3.org/2000/svg" xmlns:xlink="http://www.w3.org/1999/xlink">
 <metadata>
  <rdf:RDF xmlns:cc="http://creativecommons.org/ns#" xmlns:dc="http://purl.org/dc/elements/1.1/" xmlns:rdf="http://www.w3.org/1999/02/22-rdf-syntax-ns#">
   <cc:Work>
    <dc:type rdf:resource="http://purl.org/dc/dcmitype/StillImage"/>
    <dc:date>2022-01-04T19:32:53.817256</dc:date>
    <dc:format>image/svg+xml</dc:format>
    <dc:creator>
     <cc:Agent>
      <dc:title>Matplotlib v3.4.3, https://matplotlib.org/</dc:title>
     </cc:Agent>
    </dc:creator>
   </cc:Work>
  </rdf:RDF>
 </metadata>
 <defs>
  <style type="text/css">*{stroke-linecap:butt;stroke-linejoin:round;}</style>
 </defs>
 <g id="figure_1">
  <g id="patch_1">
   <path d="M 0 288 
L 576 288 
L 576 0 
L 0 0 
z
" style="fill:none;"/>
  </g>
  <g id="axes_1">
   <g id="patch_2">
    <path d="M 72 252 
L 518.4 252 
L 518.4 34.56 
L 72 34.56 
z
" style="fill:#ffffff;"/>
   </g>
   <g id="matplotlib.axis_1">
    <g id="xtick_1">
     <g id="line2d_1">
      <defs>
       <path d="M 0 0 
L 0 3.5 
" id="m74b6a53125" style="stroke:#000000;stroke-width:0.8;"/>
      </defs>
      <g>
       <use style="stroke:#000000;stroke-width:0.8;" x="91.884278" xlink:href="#m74b6a53125" y="252"/>
      </g>
     </g>
     <g id="text_1">
      <!-- 0.0 -->
      <g transform="translate(83.932715 266.598437)scale(0.1 -0.1)">
       <defs>
        <path d="M 2034 4250 
Q 1547 4250 1301 3770 
Q 1056 3291 1056 2328 
Q 1056 1369 1301 889 
Q 1547 409 2034 409 
Q 2525 409 2770 889 
Q 3016 1369 3016 2328 
Q 3016 3291 2770 3770 
Q 2525 4250 2034 4250 
z
M 2034 4750 
Q 2819 4750 3233 4129 
Q 3647 3509 3647 2328 
Q 3647 1150 3233 529 
Q 2819 -91 2034 -91 
Q 1250 -91 836 529 
Q 422 1150 422 2328 
Q 422 3509 836 4129 
Q 1250 4750 2034 4750 
z
" id="DejaVuSans-30" transform="scale(0.015625)"/>
        <path d="M 684 794 
L 1344 794 
L 1344 0 
L 684 0 
L 684 794 
z
" id="DejaVuSans-2e" transform="scale(0.015625)"/>
       </defs>
       <use xlink:href="#DejaVuSans-30"/>
       <use x="63.623047" xlink:href="#DejaVuSans-2e"/>
       <use x="95.410156" xlink:href="#DejaVuSans-30"/>
      </g>
     </g>
    </g>
    <g id="xtick_2">
     <g id="line2d_2">
      <g>
       <use style="stroke:#000000;stroke-width:0.8;" x="173.210567" xlink:href="#m74b6a53125" y="252"/>
      </g>
     </g>
     <g id="text_2">
      <!-- 0.2 -->
      <g transform="translate(165.259004 266.598437)scale(0.1 -0.1)">
       <defs>
        <path d="M 1228 531 
L 3431 531 
L 3431 0 
L 469 0 
L 469 531 
Q 828 903 1448 1529 
Q 2069 2156 2228 2338 
Q 2531 2678 2651 2914 
Q 2772 3150 2772 3378 
Q 2772 3750 2511 3984 
Q 2250 4219 1831 4219 
Q 1534 4219 1204 4116 
Q 875 4013 500 3803 
L 500 4441 
Q 881 4594 1212 4672 
Q 1544 4750 1819 4750 
Q 2544 4750 2975 4387 
Q 3406 4025 3406 3419 
Q 3406 3131 3298 2873 
Q 3191 2616 2906 2266 
Q 2828 2175 2409 1742 
Q 1991 1309 1228 531 
z
" id="DejaVuSans-32" transform="scale(0.015625)"/>
       </defs>
       <use xlink:href="#DejaVuSans-30"/>
       <use x="63.623047" xlink:href="#DejaVuSans-2e"/>
       <use x="95.410156" xlink:href="#DejaVuSans-32"/>
      </g>
     </g>
    </g>
    <g id="xtick_3">
     <g id="line2d_3">
      <g>
       <use style="stroke:#000000;stroke-width:0.8;" x="254.536856" xlink:href="#m74b6a53125" y="252"/>
      </g>
     </g>
     <g id="text_3">
      <!-- 0.4 -->
      <g transform="translate(246.585293 266.598437)scale(0.1 -0.1)">
       <defs>
        <path d="M 2419 4116 
L 825 1625 
L 2419 1625 
L 2419 4116 
z
M 2253 4666 
L 3047 4666 
L 3047 1625 
L 3713 1625 
L 3713 1100 
L 3047 1100 
L 3047 0 
L 2419 0 
L 2419 1100 
L 313 1100 
L 313 1709 
L 2253 4666 
z
" id="DejaVuSans-34" transform="scale(0.015625)"/>
       </defs>
       <use xlink:href="#DejaVuSans-30"/>
       <use x="63.623047" xlink:href="#DejaVuSans-2e"/>
       <use x="95.410156" xlink:href="#DejaVuSans-34"/>
      </g>
     </g>
    </g>
    <g id="xtick_4">
     <g id="line2d_4">
      <g>
       <use style="stroke:#000000;stroke-width:0.8;" x="335.863144" xlink:href="#m74b6a53125" y="252"/>
      </g>
     </g>
     <g id="text_4">
      <!-- 0.6 -->
      <g transform="translate(327.911582 266.598437)scale(0.1 -0.1)">
       <defs>
        <path d="M 2113 2584 
Q 1688 2584 1439 2293 
Q 1191 2003 1191 1497 
Q 1191 994 1439 701 
Q 1688 409 2113 409 
Q 2538 409 2786 701 
Q 3034 994 3034 1497 
Q 3034 2003 2786 2293 
Q 2538 2584 2113 2584 
z
M 3366 4563 
L 3366 3988 
Q 3128 4100 2886 4159 
Q 2644 4219 2406 4219 
Q 1781 4219 1451 3797 
Q 1122 3375 1075 2522 
Q 1259 2794 1537 2939 
Q 1816 3084 2150 3084 
Q 2853 3084 3261 2657 
Q 3669 2231 3669 1497 
Q 3669 778 3244 343 
Q 2819 -91 2113 -91 
Q 1303 -91 875 529 
Q 447 1150 447 2328 
Q 447 3434 972 4092 
Q 1497 4750 2381 4750 
Q 2619 4750 2861 4703 
Q 3103 4656 3366 4563 
z
" id="DejaVuSans-36" transform="scale(0.015625)"/>
       </defs>
       <use xlink:href="#DejaVuSans-30"/>
       <use x="63.623047" xlink:href="#DejaVuSans-2e"/>
       <use x="95.410156" xlink:href="#DejaVuSans-36"/>
      </g>
     </g>
    </g>
    <g id="xtick_5">
     <g id="line2d_5">
      <g>
       <use style="stroke:#000000;stroke-width:0.8;" x="417.189433" xlink:href="#m74b6a53125" y="252"/>
      </g>
     </g>
     <g id="text_5">
      <!-- 0.8 -->
      <g transform="translate(409.237871 266.598437)scale(0.1 -0.1)">
       <defs>
        <path d="M 2034 2216 
Q 1584 2216 1326 1975 
Q 1069 1734 1069 1313 
Q 1069 891 1326 650 
Q 1584 409 2034 409 
Q 2484 409 2743 651 
Q 3003 894 3003 1313 
Q 3003 1734 2745 1975 
Q 2488 2216 2034 2216 
z
M 1403 2484 
Q 997 2584 770 2862 
Q 544 3141 544 3541 
Q 544 4100 942 4425 
Q 1341 4750 2034 4750 
Q 2731 4750 3128 4425 
Q 3525 4100 3525 3541 
Q 3525 3141 3298 2862 
Q 3072 2584 2669 2484 
Q 3125 2378 3379 2068 
Q 3634 1759 3634 1313 
Q 3634 634 3220 271 
Q 2806 -91 2034 -91 
Q 1263 -91 848 271 
Q 434 634 434 1313 
Q 434 1759 690 2068 
Q 947 2378 1403 2484 
z
M 1172 3481 
Q 1172 3119 1398 2916 
Q 1625 2713 2034 2713 
Q 2441 2713 2670 2916 
Q 2900 3119 2900 3481 
Q 2900 3844 2670 4047 
Q 2441 4250 2034 4250 
Q 1625 4250 1398 4047 
Q 1172 3844 1172 3481 
z
" id="DejaVuSans-38" transform="scale(0.015625)"/>
       </defs>
       <use xlink:href="#DejaVuSans-30"/>
       <use x="63.623047" xlink:href="#DejaVuSans-2e"/>
       <use x="95.410156" xlink:href="#DejaVuSans-38"/>
      </g>
     </g>
    </g>
    <g id="xtick_6">
     <g id="line2d_6">
      <g>
       <use style="stroke:#000000;stroke-width:0.8;" x="498.515722" xlink:href="#m74b6a53125" y="252"/>
      </g>
     </g>
     <g id="text_6">
      <!-- 1.0 -->
      <g transform="translate(490.56416 266.598437)scale(0.1 -0.1)">
       <defs>
        <path d="M 794 531 
L 1825 531 
L 1825 4091 
L 703 3866 
L 703 4441 
L 1819 4666 
L 2450 4666 
L 2450 531 
L 3481 531 
L 3481 0 
L 794 0 
L 794 531 
z
" id="DejaVuSans-31" transform="scale(0.015625)"/>
       </defs>
       <use xlink:href="#DejaVuSans-31"/>
       <use x="63.623047" xlink:href="#DejaVuSans-2e"/>
       <use x="95.410156" xlink:href="#DejaVuSans-30"/>
      </g>
     </g>
    </g>
    <g id="text_7">
     <!-- Thresholds -->
     <g transform="translate(267.957031 280.276563)scale(0.1 -0.1)">
      <defs>
       <path d="M -19 4666 
L 3928 4666 
L 3928 4134 
L 2272 4134 
L 2272 0 
L 1638 0 
L 1638 4134 
L -19 4134 
L -19 4666 
z
" id="DejaVuSans-54" transform="scale(0.015625)"/>
       <path d="M 3513 2113 
L 3513 0 
L 2938 0 
L 2938 2094 
Q 2938 2591 2744 2837 
Q 2550 3084 2163 3084 
Q 1697 3084 1428 2787 
Q 1159 2491 1159 1978 
L 1159 0 
L 581 0 
L 581 4863 
L 1159 4863 
L 1159 2956 
Q 1366 3272 1645 3428 
Q 1925 3584 2291 3584 
Q 2894 3584 3203 3211 
Q 3513 2838 3513 2113 
z
" id="DejaVuSans-68" transform="scale(0.015625)"/>
       <path d="M 2631 2963 
Q 2534 3019 2420 3045 
Q 2306 3072 2169 3072 
Q 1681 3072 1420 2755 
Q 1159 2438 1159 1844 
L 1159 0 
L 581 0 
L 581 3500 
L 1159 3500 
L 1159 2956 
Q 1341 3275 1631 3429 
Q 1922 3584 2338 3584 
Q 2397 3584 2469 3576 
Q 2541 3569 2628 3553 
L 2631 2963 
z
" id="DejaVuSans-72" transform="scale(0.015625)"/>
       <path d="M 3597 1894 
L 3597 1613 
L 953 1613 
Q 991 1019 1311 708 
Q 1631 397 2203 397 
Q 2534 397 2845 478 
Q 3156 559 3463 722 
L 3463 178 
Q 3153 47 2828 -22 
Q 2503 -91 2169 -91 
Q 1331 -91 842 396 
Q 353 884 353 1716 
Q 353 2575 817 3079 
Q 1281 3584 2069 3584 
Q 2775 3584 3186 3129 
Q 3597 2675 3597 1894 
z
M 3022 2063 
Q 3016 2534 2758 2815 
Q 2500 3097 2075 3097 
Q 1594 3097 1305 2825 
Q 1016 2553 972 2059 
L 3022 2063 
z
" id="DejaVuSans-65" transform="scale(0.015625)"/>
       <path d="M 2834 3397 
L 2834 2853 
Q 2591 2978 2328 3040 
Q 2066 3103 1784 3103 
Q 1356 3103 1142 2972 
Q 928 2841 928 2578 
Q 928 2378 1081 2264 
Q 1234 2150 1697 2047 
L 1894 2003 
Q 2506 1872 2764 1633 
Q 3022 1394 3022 966 
Q 3022 478 2636 193 
Q 2250 -91 1575 -91 
Q 1294 -91 989 -36 
Q 684 19 347 128 
L 347 722 
Q 666 556 975 473 
Q 1284 391 1588 391 
Q 1994 391 2212 530 
Q 2431 669 2431 922 
Q 2431 1156 2273 1281 
Q 2116 1406 1581 1522 
L 1381 1569 
Q 847 1681 609 1914 
Q 372 2147 372 2553 
Q 372 3047 722 3315 
Q 1072 3584 1716 3584 
Q 2034 3584 2315 3537 
Q 2597 3491 2834 3397 
z
" id="DejaVuSans-73" transform="scale(0.015625)"/>
       <path d="M 1959 3097 
Q 1497 3097 1228 2736 
Q 959 2375 959 1747 
Q 959 1119 1226 758 
Q 1494 397 1959 397 
Q 2419 397 2687 759 
Q 2956 1122 2956 1747 
Q 2956 2369 2687 2733 
Q 2419 3097 1959 3097 
z
M 1959 3584 
Q 2709 3584 3137 3096 
Q 3566 2609 3566 1747 
Q 3566 888 3137 398 
Q 2709 -91 1959 -91 
Q 1206 -91 779 398 
Q 353 888 353 1747 
Q 353 2609 779 3096 
Q 1206 3584 1959 3584 
z
" id="DejaVuSans-6f" transform="scale(0.015625)"/>
       <path d="M 603 4863 
L 1178 4863 
L 1178 0 
L 603 0 
L 603 4863 
z
" id="DejaVuSans-6c" transform="scale(0.015625)"/>
       <path d="M 2906 2969 
L 2906 4863 
L 3481 4863 
L 3481 0 
L 2906 0 
L 2906 525 
Q 2725 213 2448 61 
Q 2172 -91 1784 -91 
Q 1150 -91 751 415 
Q 353 922 353 1747 
Q 353 2572 751 3078 
Q 1150 3584 1784 3584 
Q 2172 3584 2448 3432 
Q 2725 3281 2906 2969 
z
M 947 1747 
Q 947 1113 1208 752 
Q 1469 391 1925 391 
Q 2381 391 2643 752 
Q 2906 1113 2906 1747 
Q 2906 2381 2643 2742 
Q 2381 3103 1925 3103 
Q 1469 3103 1208 2742 
Q 947 2381 947 1747 
z
" id="DejaVuSans-64" transform="scale(0.015625)"/>
      </defs>
      <use xlink:href="#DejaVuSans-54"/>
      <use x="61.083984" xlink:href="#DejaVuSans-68"/>
      <use x="124.462891" xlink:href="#DejaVuSans-72"/>
      <use x="163.326172" xlink:href="#DejaVuSans-65"/>
      <use x="224.849609" xlink:href="#DejaVuSans-73"/>
      <use x="276.949219" xlink:href="#DejaVuSans-68"/>
      <use x="340.328125" xlink:href="#DejaVuSans-6f"/>
      <use x="401.509766" xlink:href="#DejaVuSans-6c"/>
      <use x="429.292969" xlink:href="#DejaVuSans-64"/>
      <use x="492.769531" xlink:href="#DejaVuSans-73"/>
     </g>
    </g>
   </g>
   <g id="matplotlib.axis_2">
    <g id="ytick_1">
     <g id="line2d_7">
      <defs>
       <path d="M 0 0 
L -3.5 0 
" id="medcaf97f4c" style="stroke:#000000;stroke-width:0.8;"/>
      </defs>
      <g>
       <use style="stroke:#000000;stroke-width:0.8;" x="72" xlink:href="#medcaf97f4c" y="242.116364"/>
      </g>
     </g>
     <g id="text_8">
      <!-- 0.00 -->
      <g transform="translate(42.734375 245.915582)scale(0.1 -0.1)">
       <use xlink:href="#DejaVuSans-30"/>
       <use x="63.623047" xlink:href="#DejaVuSans-2e"/>
       <use x="95.410156" xlink:href="#DejaVuSans-30"/>
       <use x="159.033203" xlink:href="#DejaVuSans-30"/>
      </g>
     </g>
    </g>
    <g id="ytick_2">
     <g id="line2d_8">
      <g>
       <use style="stroke:#000000;stroke-width:0.8;" x="72" xlink:href="#medcaf97f4c" y="207.196502"/>
      </g>
     </g>
     <g id="text_9">
      <!-- 0.01 -->
      <g transform="translate(42.734375 210.995721)scale(0.1 -0.1)">
       <use xlink:href="#DejaVuSans-30"/>
       <use x="63.623047" xlink:href="#DejaVuSans-2e"/>
       <use x="95.410156" xlink:href="#DejaVuSans-30"/>
       <use x="159.033203" xlink:href="#DejaVuSans-31"/>
      </g>
     </g>
    </g>
    <g id="ytick_3">
     <g id="line2d_9">
      <g>
       <use style="stroke:#000000;stroke-width:0.8;" x="72" xlink:href="#medcaf97f4c" y="172.27664"/>
      </g>
     </g>
     <g id="text_10">
      <!-- 0.02 -->
      <g transform="translate(42.734375 176.075859)scale(0.1 -0.1)">
       <use xlink:href="#DejaVuSans-30"/>
       <use x="63.623047" xlink:href="#DejaVuSans-2e"/>
       <use x="95.410156" xlink:href="#DejaVuSans-30"/>
       <use x="159.033203" xlink:href="#DejaVuSans-32"/>
      </g>
     </g>
    </g>
    <g id="ytick_4">
     <g id="line2d_10">
      <g>
       <use style="stroke:#000000;stroke-width:0.8;" x="72" xlink:href="#medcaf97f4c" y="137.356778"/>
      </g>
     </g>
     <g id="text_11">
      <!-- 0.03 -->
      <g transform="translate(42.734375 141.155997)scale(0.1 -0.1)">
       <defs>
        <path d="M 2597 2516 
Q 3050 2419 3304 2112 
Q 3559 1806 3559 1356 
Q 3559 666 3084 287 
Q 2609 -91 1734 -91 
Q 1441 -91 1130 -33 
Q 819 25 488 141 
L 488 750 
Q 750 597 1062 519 
Q 1375 441 1716 441 
Q 2309 441 2620 675 
Q 2931 909 2931 1356 
Q 2931 1769 2642 2001 
Q 2353 2234 1838 2234 
L 1294 2234 
L 1294 2753 
L 1863 2753 
Q 2328 2753 2575 2939 
Q 2822 3125 2822 3475 
Q 2822 3834 2567 4026 
Q 2313 4219 1838 4219 
Q 1578 4219 1281 4162 
Q 984 4106 628 3988 
L 628 4550 
Q 988 4650 1302 4700 
Q 1616 4750 1894 4750 
Q 2613 4750 3031 4423 
Q 3450 4097 3450 3541 
Q 3450 3153 3228 2886 
Q 3006 2619 2597 2516 
z
" id="DejaVuSans-33" transform="scale(0.015625)"/>
       </defs>
       <use xlink:href="#DejaVuSans-30"/>
       <use x="63.623047" xlink:href="#DejaVuSans-2e"/>
       <use x="95.410156" xlink:href="#DejaVuSans-30"/>
       <use x="159.033203" xlink:href="#DejaVuSans-33"/>
      </g>
     </g>
    </g>
    <g id="ytick_5">
     <g id="line2d_11">
      <g>
       <use style="stroke:#000000;stroke-width:0.8;" x="72" xlink:href="#medcaf97f4c" y="102.436917"/>
      </g>
     </g>
     <g id="text_12">
      <!-- 0.04 -->
      <g transform="translate(42.734375 106.236136)scale(0.1 -0.1)">
       <use xlink:href="#DejaVuSans-30"/>
       <use x="63.623047" xlink:href="#DejaVuSans-2e"/>
       <use x="95.410156" xlink:href="#DejaVuSans-30"/>
       <use x="159.033203" xlink:href="#DejaVuSans-34"/>
      </g>
     </g>
    </g>
    <g id="ytick_6">
     <g id="line2d_12">
      <g>
       <use style="stroke:#000000;stroke-width:0.8;" x="72" xlink:href="#medcaf97f4c" y="67.517055"/>
      </g>
     </g>
     <g id="text_13">
      <!-- 0.05 -->
      <g transform="translate(42.734375 71.316274)scale(0.1 -0.1)">
       <defs>
        <path d="M 691 4666 
L 3169 4666 
L 3169 4134 
L 1269 4134 
L 1269 2991 
Q 1406 3038 1543 3061 
Q 1681 3084 1819 3084 
Q 2600 3084 3056 2656 
Q 3513 2228 3513 1497 
Q 3513 744 3044 326 
Q 2575 -91 1722 -91 
Q 1428 -91 1123 -41 
Q 819 9 494 109 
L 494 744 
Q 775 591 1075 516 
Q 1375 441 1709 441 
Q 2250 441 2565 725 
Q 2881 1009 2881 1497 
Q 2881 1984 2565 2268 
Q 2250 2553 1709 2553 
Q 1456 2553 1204 2497 
Q 953 2441 691 2322 
L 691 4666 
z
" id="DejaVuSans-35" transform="scale(0.015625)"/>
       </defs>
       <use xlink:href="#DejaVuSans-30"/>
       <use x="63.623047" xlink:href="#DejaVuSans-2e"/>
       <use x="95.410156" xlink:href="#DejaVuSans-30"/>
       <use x="159.033203" xlink:href="#DejaVuSans-35"/>
      </g>
     </g>
    </g>
    <g id="text_14">
     <!-- F1 score -->
     <g transform="translate(36.654687 164.358906)rotate(-90)scale(0.1 -0.1)">
      <defs>
       <path d="M 628 4666 
L 3309 4666 
L 3309 4134 
L 1259 4134 
L 1259 2759 
L 3109 2759 
L 3109 2228 
L 1259 2228 
L 1259 0 
L 628 0 
L 628 4666 
z
" id="DejaVuSans-46" transform="scale(0.015625)"/>
       <path id="DejaVuSans-20" transform="scale(0.015625)"/>
       <path d="M 3122 3366 
L 3122 2828 
Q 2878 2963 2633 3030 
Q 2388 3097 2138 3097 
Q 1578 3097 1268 2742 
Q 959 2388 959 1747 
Q 959 1106 1268 751 
Q 1578 397 2138 397 
Q 2388 397 2633 464 
Q 2878 531 3122 666 
L 3122 134 
Q 2881 22 2623 -34 
Q 2366 -91 2075 -91 
Q 1284 -91 818 406 
Q 353 903 353 1747 
Q 353 2603 823 3093 
Q 1294 3584 2113 3584 
Q 2378 3584 2631 3529 
Q 2884 3475 3122 3366 
z
" id="DejaVuSans-63" transform="scale(0.015625)"/>
      </defs>
      <use xlink:href="#DejaVuSans-46"/>
      <use x="57.519531" xlink:href="#DejaVuSans-31"/>
      <use x="121.142578" xlink:href="#DejaVuSans-20"/>
      <use x="152.929688" xlink:href="#DejaVuSans-73"/>
      <use x="205.029297" xlink:href="#DejaVuSans-63"/>
      <use x="260.009766" xlink:href="#DejaVuSans-6f"/>
      <use x="321.191406" xlink:href="#DejaVuSans-72"/>
      <use x="360.054688" xlink:href="#DejaVuSans-65"/>
     </g>
    </g>
   </g>
   <g id="line2d_13">
    <path clip-path="url(#p33fa9d2fba)" d="M 92.290909 197.839055 
L 93.510803 197.738882 
L 96.763855 197.139548 
L 100.016907 196.077173 
L 100.423538 196.048152 
L 102.050064 195.35672 
L 102.456695 195.34066 
L 104.083221 194.580367 
L 104.489852 194.548267 
L 106.116378 193.826363 
L 106.52301 193.805806 
L 110.182693 192.385081 
L 110.589324 192.362067 
L 111.402587 192.129969 
L 112.21585 191.836033 
L 112.622481 191.802539 
L 114.249007 191.159481 
L 114.655639 191.128904 
L 115.468901 190.904432 
L 115.875533 190.839422 
L 116.282164 190.624409 
L 116.688796 190.602221 
L 118.315322 189.98246 
L 118.721953 189.95503 
L 120.348479 189.451264 
L 120.75511 189.393099 
L 121.975005 188.890314 
L 122.788267 188.673697 
L 123.194899 188.658661 
L 124.414793 188.254201 
L 125.228056 188.045697 
L 130.107633 186.753388 
L 130.920896 186.601112 
L 131.327528 186.571883 
L 132.140791 186.386232 
L 147.999417 181.838846 
L 150.032574 181.080899 
L 152.472363 180.673157 
L 152.878994 180.512856 
L 153.285626 180.564917 
L 154.912152 180.023468 
L 155.318783 179.972798 
L 156.945309 179.342318 
L 157.758572 179.092549 
L 160.19836 178.294604 
L 161.418255 177.931904 
L 162.231518 177.701195 
L 163.451412 177.278881 
L 163.858043 177.462736 
L 167.111095 176.447381 
L 167.924358 176.2254 
L 169.957515 175.554882 
L 171.584041 175.119512 
L 172.397304 174.80532 
L 173.210567 174.469418 
L 173.617198 174.529535 
L 175.243724 173.969902 
L 176.463618 173.70877 
L 177.276881 173.428858 
L 178.090144 173.191907 
L 178.496775 172.992785 
L 179.71667 172.789384 
L 180.123301 172.592202 
L 180.529933 172.567686 
L 182.56309 171.852767 
L 182.969721 171.914141 
L 183.782984 171.657887 
L 185.40951 171.078441 
L 188.662561 170.361873 
L 189.475824 170.127543 
L 190.289087 169.893964 
L 195.981927 168.104964 
L 196.388559 168.198858 
L 197.608453 167.585325 
L 198.015085 167.501275 
L 198.828348 167.087117 
L 200.454873 166.530733 
L 200.861505 166.365248 
L 201.268136 166.359449 
L 201.674768 166.119329 
L 202.081399 166.041001 
L 202.488031 165.831334 
L 203.707925 165.554291 
L 205.334451 164.967665 
L 205.741082 164.709226 
L 207.367608 164.359734 
L 208.587502 163.870319 
L 209.807397 163.4657 
L 211.027291 163.191364 
L 211.433922 163.183786 
L 211.840554 163.385074 
L 213.46708 162.676104 
L 214.280343 162.270156 
L 214.686974 162.20856 
L 215.093605 162.013782 
L 216.3135 161.94809 
L 217.940026 161.137396 
L 218.346657 161.191658 
L 219.973183 160.667893 
L 220.379814 160.685659 
L 222.412971 159.665261 
L 223.632866 159.057343 
L 224.039497 158.777695 
L 224.446129 158.645782 
L 225.259392 158.266851 
L 226.885917 157.476922 
L 227.69918 157.069393 
L 228.105812 157.055686 
L 228.512443 157.257627 
L 231.358863 156.413222 
L 232.985389 155.709774 
L 233.39202 155.973568 
L 235.425178 154.978707 
L 235.831809 154.942769 
L 236.238441 154.645197 
L 237.458335 154.229647 
L 237.864966 154.33408 
L 238.271598 154.120291 
L 238.678229 154.14738 
L 239.898124 153.656217 
L 240.304755 153.736116 
L 242.744544 152.87741 
L 243.151175 152.608033 
L 243.964438 152.559849 
L 244.371069 152.368425 
L 244.777701 152.365687 
L 245.184332 152.082239 
L 245.590964 152.071893 
L 246.404227 151.495936 
L 246.810858 151.358506 
L 247.624121 150.859811 
L 249.250647 150.022061 
L 249.657278 149.994717 
L 250.470541 149.507079 
L 250.877173 149.370707 
L 252.503698 148.206577 
L 252.91033 148.048467 
L 253.316961 148.136839 
L 254.536856 147.603644 
L 254.943487 147.333058 
L 257.383276 146.84133 
L 257.789907 147.193525 
L 258.196539 147.115025 
L 259.416433 146.559336 
L 259.823064 146.581267 
L 261.44959 145.378773 
L 261.856222 145.387673 
L 262.669484 144.864013 
L 263.076116 144.902968 
L 263.889379 144.66369 
L 264.29601 144.378374 
L 264.702642 144.424077 
L 266.329167 143.642519 
L 266.735799 143.258097 
L 270.802113 141.076212 
L 273.241902 139.391644 
L 273.648533 139.330486 
L 275.681691 137.851426 
L 276.088322 137.681884 
L 276.901585 136.944163 
L 277.308216 136.717418 
L 277.714848 136.736232 
L 278.121479 136.473404 
L 278.528111 135.923055 
L 278.934742 135.673523 
L 279.341374 136.052698 
L 280.967899 134.642066 
L 281.374531 134.359126 
L 282.187794 134.274754 
L 282.594425 133.926866 
L 283.001057 134.111929 
L 284.220951 133.668111 
L 284.627582 133.870991 
L 286.254108 132.931406 
L 287.067371 131.979056 
L 288.287265 131.333741 
L 289.100528 130.438179 
L 290.320423 129.483733 
L 290.727054 129.091693 
L 291.133686 129.122576 
L 291.540317 128.922717 
L 291.946948 129.125099 
L 293.573474 127.838758 
L 293.980106 127.767918 
L 294.386737 127.447991 
L 295.2 126.352746 
L 295.606631 126.180395 
L 296.013263 125.725523 
L 296.419894 125.450883 
L 297.233157 125.194539 
L 297.639789 125.377878 
L 298.04642 125.022047 
L 298.453052 124.476403 
L 298.859683 124.120356 
L 299.266314 123.543436 
L 299.672946 123.775934 
L 300.486209 123.43093 
L 301.299472 122.519361 
L 302.112735 122.328325 
L 302.519366 122.044915 
L 302.925997 121.37838 
L 303.332629 121.31522 
L 303.73926 121.36726 
L 304.552523 120.480504 
L 304.959155 120.31107 
L 305.365786 119.75909 
L 305.772418 119.68997 
L 306.58568 119.289856 
L 306.992312 118.78037 
L 307.398943 119.215991 
L 307.805575 119.301557 
L 308.618838 118.792619 
L 309.025469 118.979905 
L 309.432101 118.594724 
L 309.838732 118.401965 
L 310.651995 117.466169 
L 311.465258 117.162358 
L 312.278521 117.096677 
L 313.091784 116.486794 
L 313.498415 115.933046 
L 313.905046 115.96256 
L 314.311678 115.369403 
L 316.344835 113.984453 
L 316.751467 114.226651 
L 317.158098 114.108925 
L 317.564729 114.490152 
L 317.971361 114.505942 
L 318.377992 113.718079 
L 319.597887 112.315988 
L 320.41115 111.802609 
L 320.817781 111.401175 
L 321.224412 111.583997 
L 322.444307 110.935581 
L 322.850938 110.31198 
L 323.25757 110.443934 
L 323.664201 110.015177 
L 324.070833 109.856843 
L 324.477464 109.411482 
L 325.290727 109.072198 
L 326.10399 108.248094 
L 326.510621 107.980295 
L 327.323884 106.933806 
L 328.137147 105.931856 
L 328.543778 106.092132 
L 329.357041 105.7134 
L 329.763673 105.881609 
L 330.170304 105.522661 
L 330.576936 105.328993 
L 332.203461 103.167844 
L 332.610093 103.287335 
L 333.423356 102.678463 
L 333.829987 103.223243 
L 334.236619 102.864251 
L 335.049882 101.679001 
L 337.083039 99.601786 
L 337.896302 98.093241 
L 338.302933 97.903414 
L 338.709565 98.061342 
L 339.116196 97.663004 
L 339.522827 97.465262 
L 339.929459 96.884626 
L 341.555985 95.326279 
L 341.962616 94.483808 
L 342.369248 93.911132 
L 342.775879 93.665937 
L 343.18251 93.102461 
L 343.589142 92.309834 
L 343.995773 92.184842 
L 345.622299 90.549829 
L 346.028931 90.919518 
L 346.435562 90.939166 
L 346.842193 90.38125 
L 347.248825 90.653706 
L 348.062088 90.630286 
L 348.468719 90.355207 
L 349.281982 89.263467 
L 349.688614 88.989092 
L 350.095245 88.273015 
L 350.501876 88.333712 
L 350.908508 87.494464 
L 351.315139 87.090676 
L 351.721771 86.878217 
L 352.128402 86.507867 
L 352.535034 86.868112 
L 352.941665 87.044609 
L 354.568191 83.881514 
L 354.974822 83.894595 
L 355.381454 84.682366 
L 355.788085 84.462549 
L 356.194717 84.016437 
L 356.601348 84.039122 
L 357.00798 84.283865 
L 357.414611 84.023781 
L 358.634505 82.918721 
L 359.041137 82.055159 
L 359.447768 81.74578 
L 360.261031 80.20121 
L 360.667663 80.684587 
L 361.074294 80.486183 
L 361.480925 81.677041 
L 361.887557 81.626952 
L 362.294188 82.510687 
L 363.107451 81.9109 
L 364.327346 79.442314 
L 364.733977 79.185417 
L 365.140608 78.516031 
L 365.54724 79.263218 
L 365.953871 78.350044 
L 366.767134 77.661029 
L 367.173766 77.914773 
L 367.580397 76.879608 
L 367.987029 77.345925 
L 368.39366 77.004439 
L 368.800291 77.169593 
L 369.613554 75.907168 
L 370.020186 75.51346 
L 370.426817 74.539699 
L 370.833449 75.548947 
L 372.053343 72.897556 
L 372.866606 71.451219 
L 374.0865 68.913398 
L 374.493132 69.616559 
L 374.899763 69.420122 
L 375.306395 68.23204 
L 375.713026 67.963969 
L 376.119657 69.994566 
L 376.93292 69.202235 
L 377.746183 67.754282 
L 378.152815 69.738876 
L 378.559446 69.598649 
L 378.966078 69.257646 
L 379.372709 67.759218 
L 379.77934 67.212344 
L 380.185972 68.742313 
L 380.592603 68.287573 
L 381.405866 66.973616 
L 381.812498 67.157765 
L 382.219129 67.014972 
L 382.625761 68.272896 
L 383.032392 68.007725 
L 383.439024 67.087439 
L 383.845655 67.228779 
L 384.252286 67.24179 
L 384.658918 67.778236 
L 385.472181 66.676129 
L 385.878812 67.301029 
L 386.692075 64.236766 
L 387.911969 63.339874 
L 388.725232 61.23148 
L 389.131864 61.514493 
L 390.75839 59.271092 
L 391.165021 59.425429 
L 391.571652 60.977959 
L 391.978284 59.74817 
L 392.384915 60.67617 
L 392.791547 58.896016 
L 393.198178 59.509286 
L 393.60481 58.049691 
L 394.418073 57.403652 
L 395.231335 56.61909 
L 395.637967 55.503876 
L 396.044598 56.168784 
L 396.45123 56.087303 
L 396.857861 54.953232 
L 397.264493 56.176315 
L 397.671124 55.651083 
L 398.077756 53.691041 
L 398.484387 53.605088 
L 399.29765 52.116157 
L 399.704281 52.380336 
L 400.517544 50.762901 
L 400.924176 51.083924 
L 401.737439 50.114111 
L 402.14407 49.100901 
L 402.550701 48.936952 
L 402.957333 52.260805 
L 403.363964 53.163938 
L 403.770596 52.841387 
L 404.177227 53.834302 
L 404.583859 52.000223 
L 404.99049 51.498553 
L 405.397122 51.946933 
L 405.803753 54.736808 
L 406.210384 55.851231 
L 406.617016 54.949433 
L 407.023647 58.301611 
L 407.430279 58.37989 
L 407.83691 59.012218 
L 408.243542 60.268393 
L 408.650173 60.156897 
L 409.056805 58.490503 
L 409.870067 56.64553 
L 410.276699 57.578366 
L 411.089962 53.389501 
L 411.496593 53.711528 
L 411.903225 52.03171 
L 412.309856 53.003762 
L 412.716488 52.5514 
L 413.123119 52.936795 
L 413.52975 51.500839 
L 414.343013 53.235845 
L 414.749645 51.189298 
L 415.156276 50.936316 
L 415.562908 50.46483 
L 415.969539 50.512184 
L 416.376171 52.183286 
L 416.782802 51.5111 
L 417.596065 47.49334 
L 418.002696 49.307311 
L 418.409328 49.393443 
L 418.815959 49.873268 
L 419.222591 49.327564 
L 419.629222 51.101735 
L 420.035854 47.252574 
L 420.442485 45.423225 
L 420.849116 44.860183 
L 421.255748 44.95452 
L 421.662379 44.443636 
L 422.069011 47.88255 
L 422.475642 46.89004 
L 422.882274 46.236752 
L 423.288905 52.493054 
L 423.695537 52.406439 
L 424.102168 50.979212 
L 424.508799 52.705094 
L 424.915431 52.326188 
L 425.322062 52.683355 
L 426.135325 57.110474 
L 426.541957 56.028129 
L 426.948588 52.915699 
L 427.35522 55.090808 
L 427.761851 54.832854 
L 428.168482 54.245439 
L 428.575114 52.135584 
L 428.981745 52.064217 
L 429.388377 50.922906 
L 429.795008 51.396703 
L 431.014903 47.065075 
L 431.421534 44.655713 
L 431.828165 50.163765 
L 432.234797 47.297186 
L 432.641428 47.336226 
L 433.04806 49.245034 
L 433.861323 51.777495 
L 434.267954 52.162447 
L 434.674586 55.045676 
L 435.081217 55.239692 
L 435.487848 52.645821 
L 435.89448 53.659967 
L 436.301111 52.689926 
L 436.707743 53.052533 
L 437.114374 54.983793 
L 437.521006 53.805684 
L 437.927637 54.260111 
L 438.334269 50.87414 
L 438.7409 52.828834 
L 439.147531 52.686707 
L 439.554163 50.290596 
L 439.960794 51.851952 
L 440.367426 49.490962 
L 440.774057 50.774656 
L 441.58732 57.665714 
L 441.993952 56.477147 
L 442.400583 61.64456 
L 442.807214 58.939737 
L 443.213846 64.105174 
L 443.620477 62.415374 
L 444.027109 63.749831 
L 444.840372 56.814261 
L 445.247003 58.581821 
L 445.653635 61.099173 
L 446.060266 58.327618 
L 446.466897 61.906756 
L 446.873529 64.380541 
L 447.28016 64.31666 
L 447.686792 68.060978 
L 448.093423 70.349383 
L 448.500055 70.226194 
L 448.906686 71.033753 
L 449.313318 67.128192 
L 449.719949 66.719798 
L 450.12658 69.026559 
L 450.533212 81.138278 
L 450.939843 82.049446 
L 451.346475 87.012721 
L 451.753106 87.310137 
L 452.159738 90.967376 
L 452.973001 103.911106 
L 453.379632 115.730805 
L 455.006158 128.995685 
L 455.412789 130.616079 
L 455.819421 128.639708 
L 456.226052 127.625014 
L 456.632684 131.426991 
L 457.039315 130.669996 
L 457.445946 133.837723 
L 457.852578 132.391739 
L 458.259209 131.697829 
L 459.072472 127.718782 
L 460.292367 139.499657 
L 461.105629 134.475811 
L 461.512261 133.192024 
L 461.918892 136.697913 
L 462.325524 136.697913 
L 462.732155 134.567223 
L 463.138787 137.87797 
L 463.95205 148.129158 
L 464.358681 146.946929 
L 465.171944 145.32357 
L 465.578575 144.280544 
L 466.79847 139.410888 
L 467.205101 135.92731 
L 467.611733 134.924344 
L 468.018364 142.463964 
L 468.424995 141.987728 
L 468.831627 149.221931 
L 469.238258 147.738359 
L 470.051521 145.725277 
L 470.458153 145.725277 
L 470.864784 145.239068 
L 471.271416 143.750556 
L 471.678047 142.73254 
L 472.084678 158.196803 
L 472.49131 158.196803 
L 472.897941 174.962783 
L 473.304573 174.962783 
L 473.711204 173.357142 
L 474.117836 172.574676 
L 474.524467 172.176726 
L 474.931099 171.367006 
L 475.33773 169.689984 
L 475.744361 189.684139 
L 476.150993 189.046665 
L 476.557624 188.72208 
L 476.964256 188.72208 
L 477.370887 188.310722 
L 477.777519 188.310722 
L 478.18415 187.6392 
L 478.590782 187.6392 
L 478.997413 187.210921 
L 479.404044 186.511488 
L 479.810676 186.155047 
L 480.217307 186.155047 
L 480.623939 197.058478 
L 481.03057 197.058478 
L 481.437202 219.292925 
L 481.843833 219.14277 
L 482.250465 230.456977 
L 487.943305 230.378595 
L 488.756568 230.299152 
L 489.569831 230.299152 
L 489.976462 242.116364 
L 498.109091 242.116364 
L 498.109091 242.116364 
" style="fill:none;stroke:#1f77b4;stroke-linecap:square;stroke-width:1.5;"/>
   </g>
   <g id="patch_3">
    <path d="M 72 252 
L 72 34.56 
" style="fill:none;stroke:#000000;stroke-linecap:square;stroke-linejoin:miter;stroke-width:0.8;"/>
   </g>
   <g id="patch_4">
    <path d="M 518.4 252 
L 518.4 34.56 
" style="fill:none;stroke:#000000;stroke-linecap:square;stroke-linejoin:miter;stroke-width:0.8;"/>
   </g>
   <g id="patch_5">
    <path d="M 72 252 
L 518.4 252 
" style="fill:none;stroke:#000000;stroke-linecap:square;stroke-linejoin:miter;stroke-width:0.8;"/>
   </g>
   <g id="patch_6">
    <path d="M 72 34.56 
L 518.4 34.56 
" style="fill:none;stroke:#000000;stroke-linecap:square;stroke-linejoin:miter;stroke-width:0.8;"/>
   </g>
   <g id="text_15">
    <!-- ALVARO OBREGON -->
    <g transform="translate(257.8175 28.56)scale(0.08 -0.08)">
     <defs>
      <path d="M 2188 4044 
L 1331 1722 
L 3047 1722 
L 2188 4044 
z
M 1831 4666 
L 2547 4666 
L 4325 0 
L 3669 0 
L 3244 1197 
L 1141 1197 
L 716 0 
L 50 0 
L 1831 4666 
z
" id="DejaVuSans-41" transform="scale(0.015625)"/>
      <path d="M 628 4666 
L 1259 4666 
L 1259 531 
L 3531 531 
L 3531 0 
L 628 0 
L 628 4666 
z
" id="DejaVuSans-4c" transform="scale(0.015625)"/>
      <path d="M 1831 0 
L 50 4666 
L 709 4666 
L 2188 738 
L 3669 4666 
L 4325 4666 
L 2547 0 
L 1831 0 
z
" id="DejaVuSans-56" transform="scale(0.015625)"/>
      <path d="M 2841 2188 
Q 3044 2119 3236 1894 
Q 3428 1669 3622 1275 
L 4263 0 
L 3584 0 
L 2988 1197 
Q 2756 1666 2539 1819 
Q 2322 1972 1947 1972 
L 1259 1972 
L 1259 0 
L 628 0 
L 628 4666 
L 2053 4666 
Q 2853 4666 3247 4331 
Q 3641 3997 3641 3322 
Q 3641 2881 3436 2590 
Q 3231 2300 2841 2188 
z
M 1259 4147 
L 1259 2491 
L 2053 2491 
Q 2509 2491 2742 2702 
Q 2975 2913 2975 3322 
Q 2975 3731 2742 3939 
Q 2509 4147 2053 4147 
L 1259 4147 
z
" id="DejaVuSans-52" transform="scale(0.015625)"/>
      <path d="M 2522 4238 
Q 1834 4238 1429 3725 
Q 1025 3213 1025 2328 
Q 1025 1447 1429 934 
Q 1834 422 2522 422 
Q 3209 422 3611 934 
Q 4013 1447 4013 2328 
Q 4013 3213 3611 3725 
Q 3209 4238 2522 4238 
z
M 2522 4750 
Q 3503 4750 4090 4092 
Q 4678 3434 4678 2328 
Q 4678 1225 4090 567 
Q 3503 -91 2522 -91 
Q 1538 -91 948 565 
Q 359 1222 359 2328 
Q 359 3434 948 4092 
Q 1538 4750 2522 4750 
z
" id="DejaVuSans-4f" transform="scale(0.015625)"/>
      <path d="M 1259 2228 
L 1259 519 
L 2272 519 
Q 2781 519 3026 730 
Q 3272 941 3272 1375 
Q 3272 1813 3026 2020 
Q 2781 2228 2272 2228 
L 1259 2228 
z
M 1259 4147 
L 1259 2741 
L 2194 2741 
Q 2656 2741 2882 2914 
Q 3109 3088 3109 3444 
Q 3109 3797 2882 3972 
Q 2656 4147 2194 4147 
L 1259 4147 
z
M 628 4666 
L 2241 4666 
Q 2963 4666 3353 4366 
Q 3744 4066 3744 3513 
Q 3744 3084 3544 2831 
Q 3344 2578 2956 2516 
Q 3422 2416 3680 2098 
Q 3938 1781 3938 1306 
Q 3938 681 3513 340 
Q 3088 0 2303 0 
L 628 0 
L 628 4666 
z
" id="DejaVuSans-42" transform="scale(0.015625)"/>
      <path d="M 628 4666 
L 3578 4666 
L 3578 4134 
L 1259 4134 
L 1259 2753 
L 3481 2753 
L 3481 2222 
L 1259 2222 
L 1259 531 
L 3634 531 
L 3634 0 
L 628 0 
L 628 4666 
z
" id="DejaVuSans-45" transform="scale(0.015625)"/>
      <path d="M 3809 666 
L 3809 1919 
L 2778 1919 
L 2778 2438 
L 4434 2438 
L 4434 434 
Q 4069 175 3628 42 
Q 3188 -91 2688 -91 
Q 1594 -91 976 548 
Q 359 1188 359 2328 
Q 359 3472 976 4111 
Q 1594 4750 2688 4750 
Q 3144 4750 3555 4637 
Q 3966 4525 4313 4306 
L 4313 3634 
Q 3963 3931 3569 4081 
Q 3175 4231 2741 4231 
Q 1884 4231 1454 3753 
Q 1025 3275 1025 2328 
Q 1025 1384 1454 906 
Q 1884 428 2741 428 
Q 3075 428 3337 486 
Q 3600 544 3809 666 
z
" id="DejaVuSans-47" transform="scale(0.015625)"/>
      <path d="M 628 4666 
L 1478 4666 
L 3547 763 
L 3547 4666 
L 4159 4666 
L 4159 0 
L 3309 0 
L 1241 3903 
L 1241 0 
L 628 0 
L 628 4666 
z
" id="DejaVuSans-4e" transform="scale(0.015625)"/>
     </defs>
     <use xlink:href="#DejaVuSans-41"/>
     <use x="68.408203" xlink:href="#DejaVuSans-4c"/>
     <use x="113.121094" xlink:href="#DejaVuSans-56"/>
     <use x="175.154297" xlink:href="#DejaVuSans-41"/>
     <use x="243.5625" xlink:href="#DejaVuSans-52"/>
     <use x="313.044922" xlink:href="#DejaVuSans-4f"/>
     <use x="391.755859" xlink:href="#DejaVuSans-20"/>
     <use x="423.542969" xlink:href="#DejaVuSans-4f"/>
     <use x="502.253906" xlink:href="#DejaVuSans-42"/>
     <use x="570.857422" xlink:href="#DejaVuSans-52"/>
     <use x="640.339844" xlink:href="#DejaVuSans-45"/>
     <use x="703.523438" xlink:href="#DejaVuSans-47"/>
     <use x="781.013672" xlink:href="#DejaVuSans-4f"/>
     <use x="859.724609" xlink:href="#DejaVuSans-4e"/>
    </g>
   </g>
  </g>
  <g id="text_16">
   <!-- F1 score curve -->
   <g transform="translate(229.31625 17.9175)scale(0.16 -0.16)">
    <defs>
     <path d="M 544 1381 
L 544 3500 
L 1119 3500 
L 1119 1403 
Q 1119 906 1312 657 
Q 1506 409 1894 409 
Q 2359 409 2629 706 
Q 2900 1003 2900 1516 
L 2900 3500 
L 3475 3500 
L 3475 0 
L 2900 0 
L 2900 538 
Q 2691 219 2414 64 
Q 2138 -91 1772 -91 
Q 1169 -91 856 284 
Q 544 659 544 1381 
z
M 1991 3584 
L 1991 3584 
z
" id="DejaVuSans-75" transform="scale(0.015625)"/>
     <path d="M 191 3500 
L 800 3500 
L 1894 563 
L 2988 3500 
L 3597 3500 
L 2284 0 
L 1503 0 
L 191 3500 
z
" id="DejaVuSans-76" transform="scale(0.015625)"/>
    </defs>
    <use xlink:href="#DejaVuSans-46"/>
    <use x="57.519531" xlink:href="#DejaVuSans-31"/>
    <use x="121.142578" xlink:href="#DejaVuSans-20"/>
    <use x="152.929688" xlink:href="#DejaVuSans-73"/>
    <use x="205.029297" xlink:href="#DejaVuSans-63"/>
    <use x="260.009766" xlink:href="#DejaVuSans-6f"/>
    <use x="321.191406" xlink:href="#DejaVuSans-72"/>
    <use x="360.054688" xlink:href="#DejaVuSans-65"/>
    <use x="421.578125" xlink:href="#DejaVuSans-20"/>
    <use x="453.365234" xlink:href="#DejaVuSans-63"/>
    <use x="508.345703" xlink:href="#DejaVuSans-75"/>
    <use x="571.724609" xlink:href="#DejaVuSans-72"/>
    <use x="612.837891" xlink:href="#DejaVuSans-76"/>
    <use x="672.017578" xlink:href="#DejaVuSans-65"/>
   </g>
  </g>
 </g>
 <defs>
  <clipPath id="p33fa9d2fba">
   <rect height="217.44" width="446.4" x="72" y="34.56"/>
  </clipPath>
 </defs>
</svg>
