<?xml version="1.0" encoding="utf-8" standalone="no"?>
<!DOCTYPE svg PUBLIC "-//W3C//DTD SVG 1.1//EN"
  "http://www.w3.org/Graphics/SVG/1.1/DTD/svg11.dtd">
<svg height="288pt" version="1.1" viewBox="0 0 576 288" width="576pt" xmlns="http://www.w3.org/2000/svg" xmlns:xlink="http://www.w3.org/1999/xlink">
 <metadata>
  <rdf:RDF xmlns:cc="http://creativecommons.org/ns#" xmlns:dc="http://purl.org/dc/elements/1.1/" xmlns:rdf="http://www.w3.org/1999/02/22-rdf-syntax-ns#">
   <cc:Work>
    <dc:type rdf:resource="http://purl.org/dc/dcmitype/StillImage"/>
    <dc:date>2022-01-04T19:08:25.380303</dc:date>
    <dc:format>image/svg+xml</dc:format>
    <dc:creator>
     <cc:Agent>
      <dc:title>Matplotlib v3.4.3, https://matplotlib.org/</dc:title>
     </cc:Agent>
    </dc:creator>
   </cc:Work>
  </rdf:RDF>
 </metadata>
 <defs>
  <style type="text/css">*{stroke-linecap:butt;stroke-linejoin:round;}</style>
 </defs>
 <g id="figure_1">
  <g id="patch_1">
   <path d="M 0 288 
L 576 288 
L 576 0 
L 0 0 
z
" style="fill:none;"/>
  </g>
  <g id="axes_1">
   <g id="patch_2">
    <path d="M 72 252 
L 518.4 252 
L 518.4 34.56 
L 72 34.56 
z
" style="fill:#ffffff;"/>
   </g>
   <g id="matplotlib.axis_1">
    <g id="xtick_1">
     <g id="line2d_1">
      <defs>
       <path d="M 0 0 
L 0 3.5 
" id="m8ba4fbd9a9" style="stroke:#000000;stroke-width:0.8;"/>
      </defs>
      <g>
       <use style="stroke:#000000;stroke-width:0.8;" x="91.884278" xlink:href="#m8ba4fbd9a9" y="252"/>
      </g>
     </g>
     <g id="text_1">
      <!-- 0.0 -->
      <g transform="translate(83.932715 266.598437)scale(0.1 -0.1)">
       <defs>
        <path d="M 2034 4250 
Q 1547 4250 1301 3770 
Q 1056 3291 1056 2328 
Q 1056 1369 1301 889 
Q 1547 409 2034 409 
Q 2525 409 2770 889 
Q 3016 1369 3016 2328 
Q 3016 3291 2770 3770 
Q 2525 4250 2034 4250 
z
M 2034 4750 
Q 2819 4750 3233 4129 
Q 3647 3509 3647 2328 
Q 3647 1150 3233 529 
Q 2819 -91 2034 -91 
Q 1250 -91 836 529 
Q 422 1150 422 2328 
Q 422 3509 836 4129 
Q 1250 4750 2034 4750 
z
" id="DejaVuSans-30" transform="scale(0.015625)"/>
        <path d="M 684 794 
L 1344 794 
L 1344 0 
L 684 0 
L 684 794 
z
" id="DejaVuSans-2e" transform="scale(0.015625)"/>
       </defs>
       <use xlink:href="#DejaVuSans-30"/>
       <use x="63.623047" xlink:href="#DejaVuSans-2e"/>
       <use x="95.410156" xlink:href="#DejaVuSans-30"/>
      </g>
     </g>
    </g>
    <g id="xtick_2">
     <g id="line2d_2">
      <g>
       <use style="stroke:#000000;stroke-width:0.8;" x="173.210567" xlink:href="#m8ba4fbd9a9" y="252"/>
      </g>
     </g>
     <g id="text_2">
      <!-- 0.2 -->
      <g transform="translate(165.259004 266.598437)scale(0.1 -0.1)">
       <defs>
        <path d="M 1228 531 
L 3431 531 
L 3431 0 
L 469 0 
L 469 531 
Q 828 903 1448 1529 
Q 2069 2156 2228 2338 
Q 2531 2678 2651 2914 
Q 2772 3150 2772 3378 
Q 2772 3750 2511 3984 
Q 2250 4219 1831 4219 
Q 1534 4219 1204 4116 
Q 875 4013 500 3803 
L 500 4441 
Q 881 4594 1212 4672 
Q 1544 4750 1819 4750 
Q 2544 4750 2975 4387 
Q 3406 4025 3406 3419 
Q 3406 3131 3298 2873 
Q 3191 2616 2906 2266 
Q 2828 2175 2409 1742 
Q 1991 1309 1228 531 
z
" id="DejaVuSans-32" transform="scale(0.015625)"/>
       </defs>
       <use xlink:href="#DejaVuSans-30"/>
       <use x="63.623047" xlink:href="#DejaVuSans-2e"/>
       <use x="95.410156" xlink:href="#DejaVuSans-32"/>
      </g>
     </g>
    </g>
    <g id="xtick_3">
     <g id="line2d_3">
      <g>
       <use style="stroke:#000000;stroke-width:0.8;" x="254.536856" xlink:href="#m8ba4fbd9a9" y="252"/>
      </g>
     </g>
     <g id="text_3">
      <!-- 0.4 -->
      <g transform="translate(246.585293 266.598437)scale(0.1 -0.1)">
       <defs>
        <path d="M 2419 4116 
L 825 1625 
L 2419 1625 
L 2419 4116 
z
M 2253 4666 
L 3047 4666 
L 3047 1625 
L 3713 1625 
L 3713 1100 
L 3047 1100 
L 3047 0 
L 2419 0 
L 2419 1100 
L 313 1100 
L 313 1709 
L 2253 4666 
z
" id="DejaVuSans-34" transform="scale(0.015625)"/>
       </defs>
       <use xlink:href="#DejaVuSans-30"/>
       <use x="63.623047" xlink:href="#DejaVuSans-2e"/>
       <use x="95.410156" xlink:href="#DejaVuSans-34"/>
      </g>
     </g>
    </g>
    <g id="xtick_4">
     <g id="line2d_4">
      <g>
       <use style="stroke:#000000;stroke-width:0.8;" x="335.863144" xlink:href="#m8ba4fbd9a9" y="252"/>
      </g>
     </g>
     <g id="text_4">
      <!-- 0.6 -->
      <g transform="translate(327.911582 266.598437)scale(0.1 -0.1)">
       <defs>
        <path d="M 2113 2584 
Q 1688 2584 1439 2293 
Q 1191 2003 1191 1497 
Q 1191 994 1439 701 
Q 1688 409 2113 409 
Q 2538 409 2786 701 
Q 3034 994 3034 1497 
Q 3034 2003 2786 2293 
Q 2538 2584 2113 2584 
z
M 3366 4563 
L 3366 3988 
Q 3128 4100 2886 4159 
Q 2644 4219 2406 4219 
Q 1781 4219 1451 3797 
Q 1122 3375 1075 2522 
Q 1259 2794 1537 2939 
Q 1816 3084 2150 3084 
Q 2853 3084 3261 2657 
Q 3669 2231 3669 1497 
Q 3669 778 3244 343 
Q 2819 -91 2113 -91 
Q 1303 -91 875 529 
Q 447 1150 447 2328 
Q 447 3434 972 4092 
Q 1497 4750 2381 4750 
Q 2619 4750 2861 4703 
Q 3103 4656 3366 4563 
z
" id="DejaVuSans-36" transform="scale(0.015625)"/>
       </defs>
       <use xlink:href="#DejaVuSans-30"/>
       <use x="63.623047" xlink:href="#DejaVuSans-2e"/>
       <use x="95.410156" xlink:href="#DejaVuSans-36"/>
      </g>
     </g>
    </g>
    <g id="xtick_5">
     <g id="line2d_5">
      <g>
       <use style="stroke:#000000;stroke-width:0.8;" x="417.189433" xlink:href="#m8ba4fbd9a9" y="252"/>
      </g>
     </g>
     <g id="text_5">
      <!-- 0.8 -->
      <g transform="translate(409.237871 266.598437)scale(0.1 -0.1)">
       <defs>
        <path d="M 2034 2216 
Q 1584 2216 1326 1975 
Q 1069 1734 1069 1313 
Q 1069 891 1326 650 
Q 1584 409 2034 409 
Q 2484 409 2743 651 
Q 3003 894 3003 1313 
Q 3003 1734 2745 1975 
Q 2488 2216 2034 2216 
z
M 1403 2484 
Q 997 2584 770 2862 
Q 544 3141 544 3541 
Q 544 4100 942 4425 
Q 1341 4750 2034 4750 
Q 2731 4750 3128 4425 
Q 3525 4100 3525 3541 
Q 3525 3141 3298 2862 
Q 3072 2584 2669 2484 
Q 3125 2378 3379 2068 
Q 3634 1759 3634 1313 
Q 3634 634 3220 271 
Q 2806 -91 2034 -91 
Q 1263 -91 848 271 
Q 434 634 434 1313 
Q 434 1759 690 2068 
Q 947 2378 1403 2484 
z
M 1172 3481 
Q 1172 3119 1398 2916 
Q 1625 2713 2034 2713 
Q 2441 2713 2670 2916 
Q 2900 3119 2900 3481 
Q 2900 3844 2670 4047 
Q 2441 4250 2034 4250 
Q 1625 4250 1398 4047 
Q 1172 3844 1172 3481 
z
" id="DejaVuSans-38" transform="scale(0.015625)"/>
       </defs>
       <use xlink:href="#DejaVuSans-30"/>
       <use x="63.623047" xlink:href="#DejaVuSans-2e"/>
       <use x="95.410156" xlink:href="#DejaVuSans-38"/>
      </g>
     </g>
    </g>
    <g id="xtick_6">
     <g id="line2d_6">
      <g>
       <use style="stroke:#000000;stroke-width:0.8;" x="498.515722" xlink:href="#m8ba4fbd9a9" y="252"/>
      </g>
     </g>
     <g id="text_6">
      <!-- 1.0 -->
      <g transform="translate(490.56416 266.598437)scale(0.1 -0.1)">
       <defs>
        <path d="M 794 531 
L 1825 531 
L 1825 4091 
L 703 3866 
L 703 4441 
L 1819 4666 
L 2450 4666 
L 2450 531 
L 3481 531 
L 3481 0 
L 794 0 
L 794 531 
z
" id="DejaVuSans-31" transform="scale(0.015625)"/>
       </defs>
       <use xlink:href="#DejaVuSans-31"/>
       <use x="63.623047" xlink:href="#DejaVuSans-2e"/>
       <use x="95.410156" xlink:href="#DejaVuSans-30"/>
      </g>
     </g>
    </g>
    <g id="text_7">
     <!-- Thresholds -->
     <g transform="translate(267.957031 280.276563)scale(0.1 -0.1)">
      <defs>
       <path d="M -19 4666 
L 3928 4666 
L 3928 4134 
L 2272 4134 
L 2272 0 
L 1638 0 
L 1638 4134 
L -19 4134 
L -19 4666 
z
" id="DejaVuSans-54" transform="scale(0.015625)"/>
       <path d="M 3513 2113 
L 3513 0 
L 2938 0 
L 2938 2094 
Q 2938 2591 2744 2837 
Q 2550 3084 2163 3084 
Q 1697 3084 1428 2787 
Q 1159 2491 1159 1978 
L 1159 0 
L 581 0 
L 581 4863 
L 1159 4863 
L 1159 2956 
Q 1366 3272 1645 3428 
Q 1925 3584 2291 3584 
Q 2894 3584 3203 3211 
Q 3513 2838 3513 2113 
z
" id="DejaVuSans-68" transform="scale(0.015625)"/>
       <path d="M 2631 2963 
Q 2534 3019 2420 3045 
Q 2306 3072 2169 3072 
Q 1681 3072 1420 2755 
Q 1159 2438 1159 1844 
L 1159 0 
L 581 0 
L 581 3500 
L 1159 3500 
L 1159 2956 
Q 1341 3275 1631 3429 
Q 1922 3584 2338 3584 
Q 2397 3584 2469 3576 
Q 2541 3569 2628 3553 
L 2631 2963 
z
" id="DejaVuSans-72" transform="scale(0.015625)"/>
       <path d="M 3597 1894 
L 3597 1613 
L 953 1613 
Q 991 1019 1311 708 
Q 1631 397 2203 397 
Q 2534 397 2845 478 
Q 3156 559 3463 722 
L 3463 178 
Q 3153 47 2828 -22 
Q 2503 -91 2169 -91 
Q 1331 -91 842 396 
Q 353 884 353 1716 
Q 353 2575 817 3079 
Q 1281 3584 2069 3584 
Q 2775 3584 3186 3129 
Q 3597 2675 3597 1894 
z
M 3022 2063 
Q 3016 2534 2758 2815 
Q 2500 3097 2075 3097 
Q 1594 3097 1305 2825 
Q 1016 2553 972 2059 
L 3022 2063 
z
" id="DejaVuSans-65" transform="scale(0.015625)"/>
       <path d="M 2834 3397 
L 2834 2853 
Q 2591 2978 2328 3040 
Q 2066 3103 1784 3103 
Q 1356 3103 1142 2972 
Q 928 2841 928 2578 
Q 928 2378 1081 2264 
Q 1234 2150 1697 2047 
L 1894 2003 
Q 2506 1872 2764 1633 
Q 3022 1394 3022 966 
Q 3022 478 2636 193 
Q 2250 -91 1575 -91 
Q 1294 -91 989 -36 
Q 684 19 347 128 
L 347 722 
Q 666 556 975 473 
Q 1284 391 1588 391 
Q 1994 391 2212 530 
Q 2431 669 2431 922 
Q 2431 1156 2273 1281 
Q 2116 1406 1581 1522 
L 1381 1569 
Q 847 1681 609 1914 
Q 372 2147 372 2553 
Q 372 3047 722 3315 
Q 1072 3584 1716 3584 
Q 2034 3584 2315 3537 
Q 2597 3491 2834 3397 
z
" id="DejaVuSans-73" transform="scale(0.015625)"/>
       <path d="M 1959 3097 
Q 1497 3097 1228 2736 
Q 959 2375 959 1747 
Q 959 1119 1226 758 
Q 1494 397 1959 397 
Q 2419 397 2687 759 
Q 2956 1122 2956 1747 
Q 2956 2369 2687 2733 
Q 2419 3097 1959 3097 
z
M 1959 3584 
Q 2709 3584 3137 3096 
Q 3566 2609 3566 1747 
Q 3566 888 3137 398 
Q 2709 -91 1959 -91 
Q 1206 -91 779 398 
Q 353 888 353 1747 
Q 353 2609 779 3096 
Q 1206 3584 1959 3584 
z
" id="DejaVuSans-6f" transform="scale(0.015625)"/>
       <path d="M 603 4863 
L 1178 4863 
L 1178 0 
L 603 0 
L 603 4863 
z
" id="DejaVuSans-6c" transform="scale(0.015625)"/>
       <path d="M 2906 2969 
L 2906 4863 
L 3481 4863 
L 3481 0 
L 2906 0 
L 2906 525 
Q 2725 213 2448 61 
Q 2172 -91 1784 -91 
Q 1150 -91 751 415 
Q 353 922 353 1747 
Q 353 2572 751 3078 
Q 1150 3584 1784 3584 
Q 2172 3584 2448 3432 
Q 2725 3281 2906 2969 
z
M 947 1747 
Q 947 1113 1208 752 
Q 1469 391 1925 391 
Q 2381 391 2643 752 
Q 2906 1113 2906 1747 
Q 2906 2381 2643 2742 
Q 2381 3103 1925 3103 
Q 1469 3103 1208 2742 
Q 947 2381 947 1747 
z
" id="DejaVuSans-64" transform="scale(0.015625)"/>
      </defs>
      <use xlink:href="#DejaVuSans-54"/>
      <use x="61.083984" xlink:href="#DejaVuSans-68"/>
      <use x="124.462891" xlink:href="#DejaVuSans-72"/>
      <use x="163.326172" xlink:href="#DejaVuSans-65"/>
      <use x="224.849609" xlink:href="#DejaVuSans-73"/>
      <use x="276.949219" xlink:href="#DejaVuSans-68"/>
      <use x="340.328125" xlink:href="#DejaVuSans-6f"/>
      <use x="401.509766" xlink:href="#DejaVuSans-6c"/>
      <use x="429.292969" xlink:href="#DejaVuSans-64"/>
      <use x="492.769531" xlink:href="#DejaVuSans-73"/>
     </g>
    </g>
   </g>
   <g id="matplotlib.axis_2">
    <g id="ytick_1">
     <g id="line2d_7">
      <defs>
       <path d="M 0 0 
L -3.5 0 
" id="m4059aaf594" style="stroke:#000000;stroke-width:0.8;"/>
      </defs>
      <g>
       <use style="stroke:#000000;stroke-width:0.8;" x="72" xlink:href="#m4059aaf594" y="242.116364"/>
      </g>
     </g>
     <g id="text_8">
      <!-- 0.00 -->
      <g transform="translate(42.734375 245.915582)scale(0.1 -0.1)">
       <use xlink:href="#DejaVuSans-30"/>
       <use x="63.623047" xlink:href="#DejaVuSans-2e"/>
       <use x="95.410156" xlink:href="#DejaVuSans-30"/>
       <use x="159.033203" xlink:href="#DejaVuSans-30"/>
      </g>
     </g>
    </g>
    <g id="ytick_2">
     <g id="line2d_8">
      <g>
       <use style="stroke:#000000;stroke-width:0.8;" x="72" xlink:href="#m4059aaf594" y="213.948"/>
      </g>
     </g>
     <g id="text_9">
      <!-- 0.01 -->
      <g transform="translate(42.734375 217.747219)scale(0.1 -0.1)">
       <use xlink:href="#DejaVuSans-30"/>
       <use x="63.623047" xlink:href="#DejaVuSans-2e"/>
       <use x="95.410156" xlink:href="#DejaVuSans-30"/>
       <use x="159.033203" xlink:href="#DejaVuSans-31"/>
      </g>
     </g>
    </g>
    <g id="ytick_3">
     <g id="line2d_9">
      <g>
       <use style="stroke:#000000;stroke-width:0.8;" x="72" xlink:href="#m4059aaf594" y="185.779636"/>
      </g>
     </g>
     <g id="text_10">
      <!-- 0.02 -->
      <g transform="translate(42.734375 189.578855)scale(0.1 -0.1)">
       <use xlink:href="#DejaVuSans-30"/>
       <use x="63.623047" xlink:href="#DejaVuSans-2e"/>
       <use x="95.410156" xlink:href="#DejaVuSans-30"/>
       <use x="159.033203" xlink:href="#DejaVuSans-32"/>
      </g>
     </g>
    </g>
    <g id="ytick_4">
     <g id="line2d_10">
      <g>
       <use style="stroke:#000000;stroke-width:0.8;" x="72" xlink:href="#m4059aaf594" y="157.611273"/>
      </g>
     </g>
     <g id="text_11">
      <!-- 0.03 -->
      <g transform="translate(42.734375 161.410491)scale(0.1 -0.1)">
       <defs>
        <path d="M 2597 2516 
Q 3050 2419 3304 2112 
Q 3559 1806 3559 1356 
Q 3559 666 3084 287 
Q 2609 -91 1734 -91 
Q 1441 -91 1130 -33 
Q 819 25 488 141 
L 488 750 
Q 750 597 1062 519 
Q 1375 441 1716 441 
Q 2309 441 2620 675 
Q 2931 909 2931 1356 
Q 2931 1769 2642 2001 
Q 2353 2234 1838 2234 
L 1294 2234 
L 1294 2753 
L 1863 2753 
Q 2328 2753 2575 2939 
Q 2822 3125 2822 3475 
Q 2822 3834 2567 4026 
Q 2313 4219 1838 4219 
Q 1578 4219 1281 4162 
Q 984 4106 628 3988 
L 628 4550 
Q 988 4650 1302 4700 
Q 1616 4750 1894 4750 
Q 2613 4750 3031 4423 
Q 3450 4097 3450 3541 
Q 3450 3153 3228 2886 
Q 3006 2619 2597 2516 
z
" id="DejaVuSans-33" transform="scale(0.015625)"/>
       </defs>
       <use xlink:href="#DejaVuSans-30"/>
       <use x="63.623047" xlink:href="#DejaVuSans-2e"/>
       <use x="95.410156" xlink:href="#DejaVuSans-30"/>
       <use x="159.033203" xlink:href="#DejaVuSans-33"/>
      </g>
     </g>
    </g>
    <g id="ytick_5">
     <g id="line2d_11">
      <g>
       <use style="stroke:#000000;stroke-width:0.8;" x="72" xlink:href="#m4059aaf594" y="129.442909"/>
      </g>
     </g>
     <g id="text_12">
      <!-- 0.04 -->
      <g transform="translate(42.734375 133.242128)scale(0.1 -0.1)">
       <use xlink:href="#DejaVuSans-30"/>
       <use x="63.623047" xlink:href="#DejaVuSans-2e"/>
       <use x="95.410156" xlink:href="#DejaVuSans-30"/>
       <use x="159.033203" xlink:href="#DejaVuSans-34"/>
      </g>
     </g>
    </g>
    <g id="ytick_6">
     <g id="line2d_12">
      <g>
       <use style="stroke:#000000;stroke-width:0.8;" x="72" xlink:href="#m4059aaf594" y="101.274545"/>
      </g>
     </g>
     <g id="text_13">
      <!-- 0.05 -->
      <g transform="translate(42.734375 105.073764)scale(0.1 -0.1)">
       <defs>
        <path d="M 691 4666 
L 3169 4666 
L 3169 4134 
L 1269 4134 
L 1269 2991 
Q 1406 3038 1543 3061 
Q 1681 3084 1819 3084 
Q 2600 3084 3056 2656 
Q 3513 2228 3513 1497 
Q 3513 744 3044 326 
Q 2575 -91 1722 -91 
Q 1428 -91 1123 -41 
Q 819 9 494 109 
L 494 744 
Q 775 591 1075 516 
Q 1375 441 1709 441 
Q 2250 441 2565 725 
Q 2881 1009 2881 1497 
Q 2881 1984 2565 2268 
Q 2250 2553 1709 2553 
Q 1456 2553 1204 2497 
Q 953 2441 691 2322 
L 691 4666 
z
" id="DejaVuSans-35" transform="scale(0.015625)"/>
       </defs>
       <use xlink:href="#DejaVuSans-30"/>
       <use x="63.623047" xlink:href="#DejaVuSans-2e"/>
       <use x="95.410156" xlink:href="#DejaVuSans-30"/>
       <use x="159.033203" xlink:href="#DejaVuSans-35"/>
      </g>
     </g>
    </g>
    <g id="ytick_7">
     <g id="line2d_13">
      <g>
       <use style="stroke:#000000;stroke-width:0.8;" x="72" xlink:href="#m4059aaf594" y="73.106182"/>
      </g>
     </g>
     <g id="text_14">
      <!-- 0.06 -->
      <g transform="translate(42.734375 76.905401)scale(0.1 -0.1)">
       <use xlink:href="#DejaVuSans-30"/>
       <use x="63.623047" xlink:href="#DejaVuSans-2e"/>
       <use x="95.410156" xlink:href="#DejaVuSans-30"/>
       <use x="159.033203" xlink:href="#DejaVuSans-36"/>
      </g>
     </g>
    </g>
    <g id="ytick_8">
     <g id="line2d_14">
      <g>
       <use style="stroke:#000000;stroke-width:0.8;" x="72" xlink:href="#m4059aaf594" y="44.937818"/>
      </g>
     </g>
     <g id="text_15">
      <!-- 0.07 -->
      <g transform="translate(42.734375 48.737037)scale(0.1 -0.1)">
       <defs>
        <path d="M 525 4666 
L 3525 4666 
L 3525 4397 
L 1831 0 
L 1172 0 
L 2766 4134 
L 525 4134 
L 525 4666 
z
" id="DejaVuSans-37" transform="scale(0.015625)"/>
       </defs>
       <use xlink:href="#DejaVuSans-30"/>
       <use x="63.623047" xlink:href="#DejaVuSans-2e"/>
       <use x="95.410156" xlink:href="#DejaVuSans-30"/>
       <use x="159.033203" xlink:href="#DejaVuSans-37"/>
      </g>
     </g>
    </g>
    <g id="text_16">
     <!-- F1 score -->
     <g transform="translate(36.654687 164.358906)rotate(-90)scale(0.1 -0.1)">
      <defs>
       <path d="M 628 4666 
L 3309 4666 
L 3309 4134 
L 1259 4134 
L 1259 2759 
L 3109 2759 
L 3109 2228 
L 1259 2228 
L 1259 0 
L 628 0 
L 628 4666 
z
" id="DejaVuSans-46" transform="scale(0.015625)"/>
       <path id="DejaVuSans-20" transform="scale(0.015625)"/>
       <path d="M 3122 3366 
L 3122 2828 
Q 2878 2963 2633 3030 
Q 2388 3097 2138 3097 
Q 1578 3097 1268 2742 
Q 959 2388 959 1747 
Q 959 1106 1268 751 
Q 1578 397 2138 397 
Q 2388 397 2633 464 
Q 2878 531 3122 666 
L 3122 134 
Q 2881 22 2623 -34 
Q 2366 -91 2075 -91 
Q 1284 -91 818 406 
Q 353 903 353 1747 
Q 353 2603 823 3093 
Q 1294 3584 2113 3584 
Q 2378 3584 2631 3529 
Q 2884 3475 3122 3366 
z
" id="DejaVuSans-63" transform="scale(0.015625)"/>
      </defs>
      <use xlink:href="#DejaVuSans-46"/>
      <use x="57.519531" xlink:href="#DejaVuSans-31"/>
      <use x="121.142578" xlink:href="#DejaVuSans-20"/>
      <use x="152.929688" xlink:href="#DejaVuSans-73"/>
      <use x="205.029297" xlink:href="#DejaVuSans-63"/>
      <use x="260.009766" xlink:href="#DejaVuSans-6f"/>
      <use x="321.191406" xlink:href="#DejaVuSans-72"/>
      <use x="360.054688" xlink:href="#DejaVuSans-65"/>
     </g>
    </g>
   </g>
   <g id="line2d_15">
    <path clip-path="url(#pd312751566)" d="M 92.290909 209.438946 
L 94.324066 209.312263 
L 97.577118 208.754528 
L 100.016907 208.18019 
L 100.830169 208.046249 
L 101.236801 207.910154 
L 101.643432 207.908344 
L 102.456695 207.76249 
L 106.52301 206.793188 
L 112.21585 205.48814 
L 112.622481 205.537223 
L 113.842376 205.177781 
L 114.655639 205.099361 
L 118.315322 204.005122 
L 118.721953 204.053751 
L 120.348479 203.764854 
L 120.75511 203.813016 
L 124.414793 202.943314 
L 128.887739 202.254205 
L 130.514265 201.826976 
L 130.920896 201.882058 
L 131.327528 201.811263 
L 131.734159 201.928887 
L 132.140791 201.810911 
L 133.360685 201.814495 
L 136.207105 201.297497 
L 139.053525 200.786126 
L 139.866788 200.715652 
L 141.899945 200.237572 
L 142.713208 200.166056 
L 143.526471 200.003231 
L 147.186154 199.200329 
L 147.592786 199.266218 
L 151.252469 198.546181 
L 151.6591 198.601464 
L 154.912152 197.986458 
L 156.132046 197.811971 
L 156.945309 197.70511 
L 160.19836 196.960443 
L 160.604992 197.117568 
L 163.04478 196.760578 
L 164.264675 196.519285 
L 165.077938 196.34446 
L 165.484569 196.421934 
L 166.704463 196.265707 
L 167.111095 196.397567 
L 173.210567 195.162402 
L 173.617198 195.221568 
L 176.463618 194.602316 
L 178.090144 194.413916 
L 178.903407 194.338469 
L 179.310038 194.234617 
L 179.71667 194.309158 
L 182.56309 193.734652 
L 182.969721 193.736389 
L 185.816141 193.007841 
L 187.849299 192.538089 
L 188.25593 192.691862 
L 193.135507 191.596775 
L 193.542139 191.757527 
L 194.355402 191.566149 
L 199.234979 190.128286 
L 201.674768 189.296798 
L 202.894662 189.226085 
L 203.707925 189.302641 
L 207.774239 188.149686 
L 208.180871 188.199478 
L 208.994134 187.916964 
L 209.400765 187.940214 
L 211.840554 187.157704 
L 213.873711 186.636747 
L 215.093605 186.20317 
L 215.500237 186.234411 
L 215.906868 186.077501 
L 216.3135 186.150495 
L 217.126763 185.909995 
L 217.533394 185.973 
L 217.940026 186.197751 
L 219.566551 185.69904 
L 220.786446 185.332615 
L 225.666023 184.161889 
L 226.072654 183.934228 
L 228.512443 183.473623 
L 228.919075 183.517052 
L 229.325706 183.362381 
L 229.732337 183.462632 
L 233.798652 182.046311 
L 234.611915 181.729382 
L 235.018546 181.721882 
L 235.425178 181.559586 
L 235.831809 181.620804 
L 237.864966 180.98286 
L 238.678229 180.870323 
L 239.084861 180.660224 
L 239.491492 180.741896 
L 240.304755 180.391888 
L 240.711386 180.497154 
L 241.118018 180.347494 
L 241.524649 180.737981 
L 243.151175 180.190479 
L 243.964438 180.325772 
L 244.371069 180.521117 
L 245.184332 180.168217 
L 245.997595 179.873626 
L 246.810858 179.880396 
L 247.624121 179.53359 
L 248.030752 179.533635 
L 248.437384 179.415271 
L 248.844015 179.510877 
L 249.250647 179.348503 
L 249.657278 179.387021 
L 250.06391 179.202672 
L 250.470541 179.413881 
L 252.097067 178.896907 
L 252.91033 178.743091 
L 254.536856 178.111902 
L 255.75675 177.672612 
L 256.163381 177.359024 
L 256.570013 177.386388 
L 259.009801 176.347656 
L 259.416433 176.526368 
L 260.636327 175.932241 
L 261.042959 176.024369 
L 261.856222 175.506932 
L 262.262853 175.575146 
L 263.076116 175.170404 
L 263.482747 175.192456 
L 263.889379 175.027098 
L 264.29601 175.01066 
L 265.515905 174.343901 
L 265.922536 174.190512 
L 266.329167 174.176313 
L 266.735799 173.928491 
L 267.549062 173.633268 
L 267.955693 173.470376 
L 269.175588 173.520138 
L 269.582219 173.392738 
L 270.802113 172.683492 
L 271.208745 172.758105 
L 272.022008 173.318503 
L 273.241902 172.727733 
L 273.648533 172.791667 
L 275.275059 172.112878 
L 276.088322 171.661223 
L 276.494954 171.714179 
L 277.308216 171.246233 
L 278.121479 171.088814 
L 278.528111 170.874654 
L 279.341374 170.829832 
L 279.748005 170.587394 
L 280.561268 170.673931 
L 281.374531 170.168504 
L 281.781162 170.239097 
L 282.594425 169.836264 
L 283.001057 169.83607 
L 283.81432 169.461176 
L 284.627582 168.858711 
L 285.440845 168.344305 
L 286.66074 167.723097 
L 287.067371 167.422908 
L 287.474003 167.333097 
L 287.880634 167.420833 
L 288.693897 166.851109 
L 289.50716 166.908899 
L 290.727054 166.042136 
L 291.133686 166.053672 
L 291.946948 165.444744 
L 292.35358 165.283282 
L 292.760211 165.354067 
L 293.166843 165.063507 
L 294.386737 164.550682 
L 294.793369 164.238109 
L 295.2 164.231487 
L 295.606631 164.063632 
L 296.419894 163.425643 
L 296.826526 163.225661 
L 297.233157 163.227349 
L 297.639789 163.936222 
L 298.04642 164.006006 
L 298.453052 163.792914 
L 299.266314 163.713574 
L 300.486209 162.963849 
L 300.89284 162.675265 
L 301.299472 162.670632 
L 301.706103 162.537851 
L 302.112735 162.232061 
L 302.519366 162.229991 
L 302.925997 162.038563 
L 303.332629 161.538296 
L 304.552523 160.726538 
L 304.959155 160.723003 
L 305.365786 160.382369 
L 305.772418 160.802374 
L 306.179049 160.894896 
L 307.398943 160.255754 
L 307.805575 160.306196 
L 308.618838 159.95528 
L 309.025469 159.986256 
L 310.651995 158.955274 
L 311.465258 159.030654 
L 312.278521 158.457818 
L 313.091784 157.832017 
L 314.718309 156.396914 
L 315.124941 156.71628 
L 315.531572 156.731708 
L 316.344835 156.103456 
L 316.751467 155.929063 
L 317.564729 155.03557 
L 317.971361 154.900217 
L 318.377992 154.908896 
L 319.191255 154.22313 
L 319.597887 153.694692 
L 320.41115 153.753478 
L 321.224412 153.077913 
L 322.037675 152.502171 
L 322.444307 152.483932 
L 324.070833 151.184825 
L 324.477464 151.17854 
L 324.884095 150.737241 
L 325.290727 151.032131 
L 325.697358 151.59278 
L 326.10399 151.434266 
L 326.510621 151.77328 
L 327.323884 151.232119 
L 327.730516 151.113847 
L 328.137147 151.206998 
L 328.95041 150.546776 
L 330.170304 149.301368 
L 330.576936 149.423394 
L 330.983567 149.826286 
L 331.390199 149.77418 
L 332.610093 148.613102 
L 333.016724 148.343601 
L 333.423356 148.364484 
L 334.64325 147.432788 
L 335.049882 147.380642 
L 335.456513 146.933314 
L 335.863144 146.708402 
L 336.269776 146.886361 
L 336.676407 146.816211 
L 337.083039 146.321462 
L 337.48967 146.010534 
L 337.896302 145.942133 
L 338.302933 146.136542 
L 338.709565 145.95064 
L 339.116196 145.917968 
L 339.522827 145.464482 
L 339.929459 145.459142 
L 340.33609 145.278713 
L 341.149353 144.504316 
L 341.555985 144.378961 
L 341.962616 144.600214 
L 342.369248 144.33745 
L 342.775879 144.357814 
L 343.18251 144.084702 
L 344.402405 142.671776 
L 344.809036 142.37295 
L 345.215668 142.328021 
L 346.028931 142.499649 
L 346.435562 141.989089 
L 346.842193 142.951749 
L 347.248825 142.405342 
L 347.655456 142.882068 
L 348.468719 141.779558 
L 348.875351 141.335098 
L 349.281982 141.919363 
L 349.688614 141.886862 
L 350.501876 141.262757 
L 350.908508 141.68129 
L 351.315139 141.136831 
L 351.721771 141.647633 
L 352.128402 140.846943 
L 352.941665 140.98497 
L 353.348297 142.570797 
L 353.754928 142.423347 
L 354.568191 141.487561 
L 354.974822 141.496636 
L 355.381454 141.098784 
L 355.788085 141.040574 
L 356.194717 140.372507 
L 357.00798 139.589862 
L 357.414611 139.106702 
L 357.821242 138.898323 
L 358.227874 139.549259 
L 358.634505 139.323902 
L 359.041137 138.741256 
L 359.447768 138.372487 
L 359.8544 138.576238 
L 360.261031 138.408937 
L 360.667663 137.982951 
L 361.074294 137.265143 
L 361.887557 136.67779 
L 362.294188 137.172635 
L 363.107451 136.303668 
L 363.514083 136.349218 
L 364.733977 135.012319 
L 365.140608 134.841627 
L 366.767134 132.620665 
L 367.173766 132.404529 
L 367.987029 131.414967 
L 368.39366 131.425612 
L 370.020186 128.770306 
L 370.426817 128.690917 
L 371.24008 129.783694 
L 372.459974 127.314561 
L 372.866606 126.904339 
L 373.679869 125.516729 
L 374.0865 125.122098 
L 374.493132 124.287914 
L 374.899763 124.510169 
L 375.713026 122.686597 
L 376.119657 122.732725 
L 376.526289 121.602588 
L 376.93292 121.066839 
L 377.339552 120.208758 
L 377.746183 120.455475 
L 378.559446 118.979866 
L 378.966078 118.43294 
L 379.372709 118.394235 
L 379.77934 117.775069 
L 380.185972 117.956287 
L 380.592603 116.760731 
L 380.999235 116.907269 
L 381.405866 116.199408 
L 381.812498 117.022917 
L 382.219129 117.056767 
L 382.625761 116.806211 
L 383.032392 115.807656 
L 383.439024 115.173283 
L 383.845655 114.113397 
L 384.252286 113.866364 
L 385.065549 112.017553 
L 385.472181 112.74349 
L 386.285444 110.57523 
L 386.692075 110.191677 
L 387.098707 109.482301 
L 387.911969 107.247887 
L 388.318601 106.365214 
L 388.725232 104.875013 
L 389.131864 103.919062 
L 389.538495 103.53404 
L 389.945127 102.917268 
L 390.351758 102.7768 
L 390.75839 101.230519 
L 391.165021 101.539784 
L 391.571652 100.248457 
L 392.384915 98.703946 
L 392.791547 98.03498 
L 393.198178 98.995552 
L 393.60481 99.27009 
L 394.011441 98.997657 
L 394.824704 95.836546 
L 395.231335 95.242214 
L 395.637967 95.276172 
L 396.044598 94.268692 
L 396.45123 95.431602 
L 396.857861 94.431829 
L 397.264493 94.643202 
L 397.671124 92.620863 
L 398.077756 92.047328 
L 398.484387 92.459119 
L 398.891018 93.454302 
L 399.29765 93.615866 
L 399.704281 92.485011 
L 400.110913 91.687344 
L 400.517544 89.912877 
L 401.330807 88.023666 
L 401.737439 87.859727 
L 402.14407 88.178776 
L 402.957333 90.068019 
L 403.363964 89.334962 
L 403.770596 89.392887 
L 404.177227 91.286376 
L 404.99049 88.555996 
L 405.397122 87.072009 
L 405.803753 87.377835 
L 406.210384 86.390773 
L 406.617016 86.229667 
L 407.023647 85.387368 
L 407.83691 85.556425 
L 408.243542 86.010125 
L 408.650173 85.97807 
L 409.056805 85.129108 
L 409.463436 85.803406 
L 410.276699 83.274655 
L 410.68333 82.249009 
L 411.496593 82.144587 
L 411.903225 80.267973 
L 412.309856 80.299551 
L 412.716488 79.396205 
L 413.123119 77.961845 
L 414.343013 72.134859 
L 414.749645 72.358095 
L 415.156276 72.322518 
L 415.562908 70.688611 
L 415.969539 70.231557 
L 416.376171 68.772587 
L 417.189433 66.880704 
L 417.596065 67.272909 
L 418.002696 65.5269 
L 418.409328 66.755266 
L 418.815959 64.210909 
L 419.222591 66.92585 
L 419.629222 67.492093 
L 420.035854 65.133691 
L 420.442485 63.719506 
L 420.849116 64.598733 
L 421.255748 64.050248 
L 422.475642 61.002928 
L 422.882274 58.563117 
L 423.288905 54.507666 
L 423.695537 54.570051 
L 424.102168 52.486203 
L 424.508799 51.207853 
L 424.915431 50.598038 
L 425.322062 49.314422 
L 425.728694 49.728092 
L 426.135325 53.738592 
L 426.948588 52.918351 
L 427.35522 53.107863 
L 427.761851 52.010571 
L 428.168482 54.327273 
L 428.575114 52.02952 
L 428.981745 50.75234 
L 429.388377 50.856256 
L 429.795008 51.108031 
L 430.20164 48.227395 
L 431.014903 49.455386 
L 431.421534 48.085184 
L 431.828165 51.605692 
L 432.234797 48.725064 
L 432.641428 48.81548 
L 433.04806 47.203968 
L 433.454691 49.573119 
L 433.861323 49.16605 
L 434.267954 48.352899 
L 434.674586 44.876181 
L 435.081217 45.535027 
L 435.487848 45.856215 
L 435.89448 44.443636 
L 436.707743 44.625991 
L 437.114374 47.30712 
L 437.521006 47.207307 
L 437.927637 46.83711 
L 438.334269 49.535351 
L 438.7409 48.233821 
L 439.147531 55.832596 
L 439.554163 58.53436 
L 439.960794 59.543636 
L 440.774057 73.857338 
L 441.180689 79.753854 
L 442.400583 78.912474 
L 442.807214 77.444648 
L 443.620477 73.75373 
L 444.43374 72.388101 
L 444.840372 71.094156 
L 445.247003 71.914771 
L 446.060266 70.015389 
L 446.466897 77.890162 
L 446.873529 76.314095 
L 447.28016 83.47332 
L 447.686792 82.216742 
L 448.093423 80.077616 
L 448.500055 80.604927 
L 448.906686 83.257642 
L 449.313318 83.86713 
L 449.719949 88.323574 
L 450.12658 86.195341 
L 450.533212 86.791557 
L 450.939843 96.232988 
L 451.346475 97.325709 
L 451.753106 92.909943 
L 452.159738 91.702771 
L 452.566369 89.47991 
L 452.973001 88.343659 
L 453.379632 89.983429 
L 454.192895 97.407321 
L 454.599526 99.620576 
L 455.006158 100.48772 
L 455.412789 108.61701 
L 455.819421 110.84632 
L 456.226052 120.367051 
L 456.632684 122.975249 
L 457.039315 120.401212 
L 457.445946 115.989362 
L 457.852578 113.381731 
L 458.259209 112.818957 
L 458.665841 117.201226 
L 459.072472 120.203172 
L 459.479104 143.968755 
L 459.885735 140.303001 
L 460.292367 144.744242 
L 460.698998 143.031667 
L 461.105629 142.53124 
L 461.512261 148.700872 
L 461.918892 146.878723 
L 462.325524 153.745027 
L 462.732155 153.163636 
L 463.138787 153.046439 
L 463.545418 151.9776 
L 463.95205 157.341535 
L 464.358681 164.303204 
L 464.765312 161.978771 
L 465.171944 167.662539 
L 465.578575 165.409776 
L 465.985207 171.914834 
L 466.391838 171.140959 
L 466.79847 168.593718 
L 467.205101 167.989091 
L 467.611733 175.50199 
L 468.018364 173.172816 
L 468.424995 173.172816 
L 468.831627 182.077223 
L 469.238258 180.32105 
L 469.64489 180.32105 
L 470.051521 179.635705 
L 470.458153 179.52 
L 471.271416 177.485319 
L 472.084678 197.843886 
L 472.49131 197.581401 
L 472.897941 207.903776 
L 473.304573 207.62449 
L 473.711204 207.62449 
L 474.117836 218.544511 
L 474.524467 218.544511 
L 475.33773 217.515173 
L 475.744361 217.298422 
L 476.150993 216.796486 
L 476.557624 216.566827 
L 478.18415 216.50876 
L 478.590782 216.273828 
L 478.997413 228.922751 
L 479.810676 228.541249 
L 480.217307 228.308342 
L 480.623939 228.308342 
L 481.03057 228.171629 
L 481.437202 228.171629 
L 482.250465 227.996883 
L 483.063727 227.996883 
L 484.283622 227.596589 
L 485.096885 227.596589 
L 485.503516 242.116364 
L 498.109091 242.116364 
L 498.109091 242.116364 
" style="fill:none;stroke:#1f77b4;stroke-linecap:square;stroke-width:1.5;"/>
   </g>
   <g id="patch_3">
    <path d="M 72 252 
L 72 34.56 
" style="fill:none;stroke:#000000;stroke-linecap:square;stroke-linejoin:miter;stroke-width:0.8;"/>
   </g>
   <g id="patch_4">
    <path d="M 518.4 252 
L 518.4 34.56 
" style="fill:none;stroke:#000000;stroke-linecap:square;stroke-linejoin:miter;stroke-width:0.8;"/>
   </g>
   <g id="patch_5">
    <path d="M 72 252 
L 518.4 252 
" style="fill:none;stroke:#000000;stroke-linecap:square;stroke-linejoin:miter;stroke-width:0.8;"/>
   </g>
   <g id="patch_6">
    <path d="M 72 34.56 
L 518.4 34.56 
" style="fill:none;stroke:#000000;stroke-linecap:square;stroke-linejoin:miter;stroke-width:0.8;"/>
   </g>
   <g id="text_17">
    <!-- TLALPAN -->
    <g transform="translate(277.5875 28.56)scale(0.08 -0.08)">
     <defs>
      <path d="M 628 4666 
L 1259 4666 
L 1259 531 
L 3531 531 
L 3531 0 
L 628 0 
L 628 4666 
z
" id="DejaVuSans-4c" transform="scale(0.015625)"/>
      <path d="M 2188 4044 
L 1331 1722 
L 3047 1722 
L 2188 4044 
z
M 1831 4666 
L 2547 4666 
L 4325 0 
L 3669 0 
L 3244 1197 
L 1141 1197 
L 716 0 
L 50 0 
L 1831 4666 
z
" id="DejaVuSans-41" transform="scale(0.015625)"/>
      <path d="M 1259 4147 
L 1259 2394 
L 2053 2394 
Q 2494 2394 2734 2622 
Q 2975 2850 2975 3272 
Q 2975 3691 2734 3919 
Q 2494 4147 2053 4147 
L 1259 4147 
z
M 628 4666 
L 2053 4666 
Q 2838 4666 3239 4311 
Q 3641 3956 3641 3272 
Q 3641 2581 3239 2228 
Q 2838 1875 2053 1875 
L 1259 1875 
L 1259 0 
L 628 0 
L 628 4666 
z
" id="DejaVuSans-50" transform="scale(0.015625)"/>
      <path d="M 628 4666 
L 1478 4666 
L 3547 763 
L 3547 4666 
L 4159 4666 
L 4159 0 
L 3309 0 
L 1241 3903 
L 1241 0 
L 628 0 
L 628 4666 
z
" id="DejaVuSans-4e" transform="scale(0.015625)"/>
     </defs>
     <use xlink:href="#DejaVuSans-54"/>
     <use x="61.083984" xlink:href="#DejaVuSans-4c"/>
     <use x="119.046875" xlink:href="#DejaVuSans-41"/>
     <use x="187.455078" xlink:href="#DejaVuSans-4c"/>
     <use x="243.167969" xlink:href="#DejaVuSans-50"/>
     <use x="297.095703" xlink:href="#DejaVuSans-41"/>
     <use x="365.503906" xlink:href="#DejaVuSans-4e"/>
    </g>
   </g>
  </g>
  <g id="text_18">
   <!-- F1 score curve -->
   <g transform="translate(229.31625 17.9175)scale(0.16 -0.16)">
    <defs>
     <path d="M 544 1381 
L 544 3500 
L 1119 3500 
L 1119 1403 
Q 1119 906 1312 657 
Q 1506 409 1894 409 
Q 2359 409 2629 706 
Q 2900 1003 2900 1516 
L 2900 3500 
L 3475 3500 
L 3475 0 
L 2900 0 
L 2900 538 
Q 2691 219 2414 64 
Q 2138 -91 1772 -91 
Q 1169 -91 856 284 
Q 544 659 544 1381 
z
M 1991 3584 
L 1991 3584 
z
" id="DejaVuSans-75" transform="scale(0.015625)"/>
     <path d="M 191 3500 
L 800 3500 
L 1894 563 
L 2988 3500 
L 3597 3500 
L 2284 0 
L 1503 0 
L 191 3500 
z
" id="DejaVuSans-76" transform="scale(0.015625)"/>
    </defs>
    <use xlink:href="#DejaVuSans-46"/>
    <use x="57.519531" xlink:href="#DejaVuSans-31"/>
    <use x="121.142578" xlink:href="#DejaVuSans-20"/>
    <use x="152.929688" xlink:href="#DejaVuSans-73"/>
    <use x="205.029297" xlink:href="#DejaVuSans-63"/>
    <use x="260.009766" xlink:href="#DejaVuSans-6f"/>
    <use x="321.191406" xlink:href="#DejaVuSans-72"/>
    <use x="360.054688" xlink:href="#DejaVuSans-65"/>
    <use x="421.578125" xlink:href="#DejaVuSans-20"/>
    <use x="453.365234" xlink:href="#DejaVuSans-63"/>
    <use x="508.345703" xlink:href="#DejaVuSans-75"/>
    <use x="571.724609" xlink:href="#DejaVuSans-72"/>
    <use x="612.837891" xlink:href="#DejaVuSans-76"/>
    <use x="672.017578" xlink:href="#DejaVuSans-65"/>
   </g>
  </g>
 </g>
 <defs>
  <clipPath id="pd312751566">
   <rect height="217.44" width="446.4" x="72" y="34.56"/>
  </clipPath>
 </defs>
</svg>
