<?xml version="1.0" encoding="utf-8" standalone="no"?>
<!DOCTYPE svg PUBLIC "-//W3C//DTD SVG 1.1//EN"
  "http://www.w3.org/Graphics/SVG/1.1/DTD/svg11.dtd">
<svg height="288pt" version="1.1" viewBox="0 0 576 288" width="576pt" xmlns="http://www.w3.org/2000/svg" xmlns:xlink="http://www.w3.org/1999/xlink">
 <metadata>
  <rdf:RDF xmlns:cc="http://creativecommons.org/ns#" xmlns:dc="http://purl.org/dc/elements/1.1/" xmlns:rdf="http://www.w3.org/1999/02/22-rdf-syntax-ns#">
   <cc:Work>
    <dc:type rdf:resource="http://purl.org/dc/dcmitype/StillImage"/>
    <dc:date>2022-01-04T19:15:10.510937</dc:date>
    <dc:format>image/svg+xml</dc:format>
    <dc:creator>
     <cc:Agent>
      <dc:title>Matplotlib v3.4.3, https://matplotlib.org/</dc:title>
     </cc:Agent>
    </dc:creator>
   </cc:Work>
  </rdf:RDF>
 </metadata>
 <defs>
  <style type="text/css">*{stroke-linecap:butt;stroke-linejoin:round;}</style>
 </defs>
 <g id="figure_1">
  <g id="patch_1">
   <path d="M 0 288 
L 576 288 
L 576 0 
L 0 0 
z
" style="fill:none;"/>
  </g>
  <g id="axes_1">
   <g id="patch_2">
    <path d="M 72 252 
L 518.4 252 
L 518.4 34.56 
L 72 34.56 
z
" style="fill:#ffffff;"/>
   </g>
   <g id="matplotlib.axis_1">
    <g id="xtick_1">
     <g id="line2d_1">
      <defs>
       <path d="M 0 0 
L 0 3.5 
" id="mac80daad03" style="stroke:#000000;stroke-width:0.8;"/>
      </defs>
      <g>
       <use style="stroke:#000000;stroke-width:0.8;" x="91.884278" xlink:href="#mac80daad03" y="252"/>
      </g>
     </g>
     <g id="text_1">
      <!-- 0.0 -->
      <g transform="translate(83.932715 266.598437)scale(0.1 -0.1)">
       <defs>
        <path d="M 2034 4250 
Q 1547 4250 1301 3770 
Q 1056 3291 1056 2328 
Q 1056 1369 1301 889 
Q 1547 409 2034 409 
Q 2525 409 2770 889 
Q 3016 1369 3016 2328 
Q 3016 3291 2770 3770 
Q 2525 4250 2034 4250 
z
M 2034 4750 
Q 2819 4750 3233 4129 
Q 3647 3509 3647 2328 
Q 3647 1150 3233 529 
Q 2819 -91 2034 -91 
Q 1250 -91 836 529 
Q 422 1150 422 2328 
Q 422 3509 836 4129 
Q 1250 4750 2034 4750 
z
" id="DejaVuSans-30" transform="scale(0.015625)"/>
        <path d="M 684 794 
L 1344 794 
L 1344 0 
L 684 0 
L 684 794 
z
" id="DejaVuSans-2e" transform="scale(0.015625)"/>
       </defs>
       <use xlink:href="#DejaVuSans-30"/>
       <use x="63.623047" xlink:href="#DejaVuSans-2e"/>
       <use x="95.410156" xlink:href="#DejaVuSans-30"/>
      </g>
     </g>
    </g>
    <g id="xtick_2">
     <g id="line2d_2">
      <g>
       <use style="stroke:#000000;stroke-width:0.8;" x="173.210567" xlink:href="#mac80daad03" y="252"/>
      </g>
     </g>
     <g id="text_2">
      <!-- 0.2 -->
      <g transform="translate(165.259004 266.598437)scale(0.1 -0.1)">
       <defs>
        <path d="M 1228 531 
L 3431 531 
L 3431 0 
L 469 0 
L 469 531 
Q 828 903 1448 1529 
Q 2069 2156 2228 2338 
Q 2531 2678 2651 2914 
Q 2772 3150 2772 3378 
Q 2772 3750 2511 3984 
Q 2250 4219 1831 4219 
Q 1534 4219 1204 4116 
Q 875 4013 500 3803 
L 500 4441 
Q 881 4594 1212 4672 
Q 1544 4750 1819 4750 
Q 2544 4750 2975 4387 
Q 3406 4025 3406 3419 
Q 3406 3131 3298 2873 
Q 3191 2616 2906 2266 
Q 2828 2175 2409 1742 
Q 1991 1309 1228 531 
z
" id="DejaVuSans-32" transform="scale(0.015625)"/>
       </defs>
       <use xlink:href="#DejaVuSans-30"/>
       <use x="63.623047" xlink:href="#DejaVuSans-2e"/>
       <use x="95.410156" xlink:href="#DejaVuSans-32"/>
      </g>
     </g>
    </g>
    <g id="xtick_3">
     <g id="line2d_3">
      <g>
       <use style="stroke:#000000;stroke-width:0.8;" x="254.536856" xlink:href="#mac80daad03" y="252"/>
      </g>
     </g>
     <g id="text_3">
      <!-- 0.4 -->
      <g transform="translate(246.585293 266.598437)scale(0.1 -0.1)">
       <defs>
        <path d="M 2419 4116 
L 825 1625 
L 2419 1625 
L 2419 4116 
z
M 2253 4666 
L 3047 4666 
L 3047 1625 
L 3713 1625 
L 3713 1100 
L 3047 1100 
L 3047 0 
L 2419 0 
L 2419 1100 
L 313 1100 
L 313 1709 
L 2253 4666 
z
" id="DejaVuSans-34" transform="scale(0.015625)"/>
       </defs>
       <use xlink:href="#DejaVuSans-30"/>
       <use x="63.623047" xlink:href="#DejaVuSans-2e"/>
       <use x="95.410156" xlink:href="#DejaVuSans-34"/>
      </g>
     </g>
    </g>
    <g id="xtick_4">
     <g id="line2d_4">
      <g>
       <use style="stroke:#000000;stroke-width:0.8;" x="335.863144" xlink:href="#mac80daad03" y="252"/>
      </g>
     </g>
     <g id="text_4">
      <!-- 0.6 -->
      <g transform="translate(327.911582 266.598437)scale(0.1 -0.1)">
       <defs>
        <path d="M 2113 2584 
Q 1688 2584 1439 2293 
Q 1191 2003 1191 1497 
Q 1191 994 1439 701 
Q 1688 409 2113 409 
Q 2538 409 2786 701 
Q 3034 994 3034 1497 
Q 3034 2003 2786 2293 
Q 2538 2584 2113 2584 
z
M 3366 4563 
L 3366 3988 
Q 3128 4100 2886 4159 
Q 2644 4219 2406 4219 
Q 1781 4219 1451 3797 
Q 1122 3375 1075 2522 
Q 1259 2794 1537 2939 
Q 1816 3084 2150 3084 
Q 2853 3084 3261 2657 
Q 3669 2231 3669 1497 
Q 3669 778 3244 343 
Q 2819 -91 2113 -91 
Q 1303 -91 875 529 
Q 447 1150 447 2328 
Q 447 3434 972 4092 
Q 1497 4750 2381 4750 
Q 2619 4750 2861 4703 
Q 3103 4656 3366 4563 
z
" id="DejaVuSans-36" transform="scale(0.015625)"/>
       </defs>
       <use xlink:href="#DejaVuSans-30"/>
       <use x="63.623047" xlink:href="#DejaVuSans-2e"/>
       <use x="95.410156" xlink:href="#DejaVuSans-36"/>
      </g>
     </g>
    </g>
    <g id="xtick_5">
     <g id="line2d_5">
      <g>
       <use style="stroke:#000000;stroke-width:0.8;" x="417.189433" xlink:href="#mac80daad03" y="252"/>
      </g>
     </g>
     <g id="text_5">
      <!-- 0.8 -->
      <g transform="translate(409.237871 266.598437)scale(0.1 -0.1)">
       <defs>
        <path d="M 2034 2216 
Q 1584 2216 1326 1975 
Q 1069 1734 1069 1313 
Q 1069 891 1326 650 
Q 1584 409 2034 409 
Q 2484 409 2743 651 
Q 3003 894 3003 1313 
Q 3003 1734 2745 1975 
Q 2488 2216 2034 2216 
z
M 1403 2484 
Q 997 2584 770 2862 
Q 544 3141 544 3541 
Q 544 4100 942 4425 
Q 1341 4750 2034 4750 
Q 2731 4750 3128 4425 
Q 3525 4100 3525 3541 
Q 3525 3141 3298 2862 
Q 3072 2584 2669 2484 
Q 3125 2378 3379 2068 
Q 3634 1759 3634 1313 
Q 3634 634 3220 271 
Q 2806 -91 2034 -91 
Q 1263 -91 848 271 
Q 434 634 434 1313 
Q 434 1759 690 2068 
Q 947 2378 1403 2484 
z
M 1172 3481 
Q 1172 3119 1398 2916 
Q 1625 2713 2034 2713 
Q 2441 2713 2670 2916 
Q 2900 3119 2900 3481 
Q 2900 3844 2670 4047 
Q 2441 4250 2034 4250 
Q 1625 4250 1398 4047 
Q 1172 3844 1172 3481 
z
" id="DejaVuSans-38" transform="scale(0.015625)"/>
       </defs>
       <use xlink:href="#DejaVuSans-30"/>
       <use x="63.623047" xlink:href="#DejaVuSans-2e"/>
       <use x="95.410156" xlink:href="#DejaVuSans-38"/>
      </g>
     </g>
    </g>
    <g id="xtick_6">
     <g id="line2d_6">
      <g>
       <use style="stroke:#000000;stroke-width:0.8;" x="498.515722" xlink:href="#mac80daad03" y="252"/>
      </g>
     </g>
     <g id="text_6">
      <!-- 1.0 -->
      <g transform="translate(490.56416 266.598437)scale(0.1 -0.1)">
       <defs>
        <path d="M 794 531 
L 1825 531 
L 1825 4091 
L 703 3866 
L 703 4441 
L 1819 4666 
L 2450 4666 
L 2450 531 
L 3481 531 
L 3481 0 
L 794 0 
L 794 531 
z
" id="DejaVuSans-31" transform="scale(0.015625)"/>
       </defs>
       <use xlink:href="#DejaVuSans-31"/>
       <use x="63.623047" xlink:href="#DejaVuSans-2e"/>
       <use x="95.410156" xlink:href="#DejaVuSans-30"/>
      </g>
     </g>
    </g>
    <g id="text_7">
     <!-- Thresholds -->
     <g transform="translate(267.957031 280.276563)scale(0.1 -0.1)">
      <defs>
       <path d="M -19 4666 
L 3928 4666 
L 3928 4134 
L 2272 4134 
L 2272 0 
L 1638 0 
L 1638 4134 
L -19 4134 
L -19 4666 
z
" id="DejaVuSans-54" transform="scale(0.015625)"/>
       <path d="M 3513 2113 
L 3513 0 
L 2938 0 
L 2938 2094 
Q 2938 2591 2744 2837 
Q 2550 3084 2163 3084 
Q 1697 3084 1428 2787 
Q 1159 2491 1159 1978 
L 1159 0 
L 581 0 
L 581 4863 
L 1159 4863 
L 1159 2956 
Q 1366 3272 1645 3428 
Q 1925 3584 2291 3584 
Q 2894 3584 3203 3211 
Q 3513 2838 3513 2113 
z
" id="DejaVuSans-68" transform="scale(0.015625)"/>
       <path d="M 2631 2963 
Q 2534 3019 2420 3045 
Q 2306 3072 2169 3072 
Q 1681 3072 1420 2755 
Q 1159 2438 1159 1844 
L 1159 0 
L 581 0 
L 581 3500 
L 1159 3500 
L 1159 2956 
Q 1341 3275 1631 3429 
Q 1922 3584 2338 3584 
Q 2397 3584 2469 3576 
Q 2541 3569 2628 3553 
L 2631 2963 
z
" id="DejaVuSans-72" transform="scale(0.015625)"/>
       <path d="M 3597 1894 
L 3597 1613 
L 953 1613 
Q 991 1019 1311 708 
Q 1631 397 2203 397 
Q 2534 397 2845 478 
Q 3156 559 3463 722 
L 3463 178 
Q 3153 47 2828 -22 
Q 2503 -91 2169 -91 
Q 1331 -91 842 396 
Q 353 884 353 1716 
Q 353 2575 817 3079 
Q 1281 3584 2069 3584 
Q 2775 3584 3186 3129 
Q 3597 2675 3597 1894 
z
M 3022 2063 
Q 3016 2534 2758 2815 
Q 2500 3097 2075 3097 
Q 1594 3097 1305 2825 
Q 1016 2553 972 2059 
L 3022 2063 
z
" id="DejaVuSans-65" transform="scale(0.015625)"/>
       <path d="M 2834 3397 
L 2834 2853 
Q 2591 2978 2328 3040 
Q 2066 3103 1784 3103 
Q 1356 3103 1142 2972 
Q 928 2841 928 2578 
Q 928 2378 1081 2264 
Q 1234 2150 1697 2047 
L 1894 2003 
Q 2506 1872 2764 1633 
Q 3022 1394 3022 966 
Q 3022 478 2636 193 
Q 2250 -91 1575 -91 
Q 1294 -91 989 -36 
Q 684 19 347 128 
L 347 722 
Q 666 556 975 473 
Q 1284 391 1588 391 
Q 1994 391 2212 530 
Q 2431 669 2431 922 
Q 2431 1156 2273 1281 
Q 2116 1406 1581 1522 
L 1381 1569 
Q 847 1681 609 1914 
Q 372 2147 372 2553 
Q 372 3047 722 3315 
Q 1072 3584 1716 3584 
Q 2034 3584 2315 3537 
Q 2597 3491 2834 3397 
z
" id="DejaVuSans-73" transform="scale(0.015625)"/>
       <path d="M 1959 3097 
Q 1497 3097 1228 2736 
Q 959 2375 959 1747 
Q 959 1119 1226 758 
Q 1494 397 1959 397 
Q 2419 397 2687 759 
Q 2956 1122 2956 1747 
Q 2956 2369 2687 2733 
Q 2419 3097 1959 3097 
z
M 1959 3584 
Q 2709 3584 3137 3096 
Q 3566 2609 3566 1747 
Q 3566 888 3137 398 
Q 2709 -91 1959 -91 
Q 1206 -91 779 398 
Q 353 888 353 1747 
Q 353 2609 779 3096 
Q 1206 3584 1959 3584 
z
" id="DejaVuSans-6f" transform="scale(0.015625)"/>
       <path d="M 603 4863 
L 1178 4863 
L 1178 0 
L 603 0 
L 603 4863 
z
" id="DejaVuSans-6c" transform="scale(0.015625)"/>
       <path d="M 2906 2969 
L 2906 4863 
L 3481 4863 
L 3481 0 
L 2906 0 
L 2906 525 
Q 2725 213 2448 61 
Q 2172 -91 1784 -91 
Q 1150 -91 751 415 
Q 353 922 353 1747 
Q 353 2572 751 3078 
Q 1150 3584 1784 3584 
Q 2172 3584 2448 3432 
Q 2725 3281 2906 2969 
z
M 947 1747 
Q 947 1113 1208 752 
Q 1469 391 1925 391 
Q 2381 391 2643 752 
Q 2906 1113 2906 1747 
Q 2906 2381 2643 2742 
Q 2381 3103 1925 3103 
Q 1469 3103 1208 2742 
Q 947 2381 947 1747 
z
" id="DejaVuSans-64" transform="scale(0.015625)"/>
      </defs>
      <use xlink:href="#DejaVuSans-54"/>
      <use x="61.083984" xlink:href="#DejaVuSans-68"/>
      <use x="124.462891" xlink:href="#DejaVuSans-72"/>
      <use x="163.326172" xlink:href="#DejaVuSans-65"/>
      <use x="224.849609" xlink:href="#DejaVuSans-73"/>
      <use x="276.949219" xlink:href="#DejaVuSans-68"/>
      <use x="340.328125" xlink:href="#DejaVuSans-6f"/>
      <use x="401.509766" xlink:href="#DejaVuSans-6c"/>
      <use x="429.292969" xlink:href="#DejaVuSans-64"/>
      <use x="492.769531" xlink:href="#DejaVuSans-73"/>
     </g>
    </g>
   </g>
   <g id="matplotlib.axis_2">
    <g id="ytick_1">
     <g id="line2d_7">
      <defs>
       <path d="M 0 0 
L -3.5 0 
" id="m85ce25f599" style="stroke:#000000;stroke-width:0.8;"/>
      </defs>
      <g>
       <use style="stroke:#000000;stroke-width:0.8;" x="72" xlink:href="#m85ce25f599" y="242.116364"/>
      </g>
     </g>
     <g id="text_8">
      <!-- 0.000 -->
      <g transform="translate(36.371875 245.915582)scale(0.1 -0.1)">
       <use xlink:href="#DejaVuSans-30"/>
       <use x="63.623047" xlink:href="#DejaVuSans-2e"/>
       <use x="95.410156" xlink:href="#DejaVuSans-30"/>
       <use x="159.033203" xlink:href="#DejaVuSans-30"/>
       <use x="222.65625" xlink:href="#DejaVuSans-30"/>
      </g>
     </g>
    </g>
    <g id="ytick_2">
     <g id="line2d_8">
      <g>
       <use style="stroke:#000000;stroke-width:0.8;" x="72" xlink:href="#m85ce25f599" y="217.407273"/>
      </g>
     </g>
     <g id="text_9">
      <!-- 0.005 -->
      <g transform="translate(36.371875 221.206491)scale(0.1 -0.1)">
       <defs>
        <path d="M 691 4666 
L 3169 4666 
L 3169 4134 
L 1269 4134 
L 1269 2991 
Q 1406 3038 1543 3061 
Q 1681 3084 1819 3084 
Q 2600 3084 3056 2656 
Q 3513 2228 3513 1497 
Q 3513 744 3044 326 
Q 2575 -91 1722 -91 
Q 1428 -91 1123 -41 
Q 819 9 494 109 
L 494 744 
Q 775 591 1075 516 
Q 1375 441 1709 441 
Q 2250 441 2565 725 
Q 2881 1009 2881 1497 
Q 2881 1984 2565 2268 
Q 2250 2553 1709 2553 
Q 1456 2553 1204 2497 
Q 953 2441 691 2322 
L 691 4666 
z
" id="DejaVuSans-35" transform="scale(0.015625)"/>
       </defs>
       <use xlink:href="#DejaVuSans-30"/>
       <use x="63.623047" xlink:href="#DejaVuSans-2e"/>
       <use x="95.410156" xlink:href="#DejaVuSans-30"/>
       <use x="159.033203" xlink:href="#DejaVuSans-30"/>
       <use x="222.65625" xlink:href="#DejaVuSans-35"/>
      </g>
     </g>
    </g>
    <g id="ytick_3">
     <g id="line2d_9">
      <g>
       <use style="stroke:#000000;stroke-width:0.8;" x="72" xlink:href="#m85ce25f599" y="192.698182"/>
      </g>
     </g>
     <g id="text_10">
      <!-- 0.010 -->
      <g transform="translate(36.371875 196.497401)scale(0.1 -0.1)">
       <use xlink:href="#DejaVuSans-30"/>
       <use x="63.623047" xlink:href="#DejaVuSans-2e"/>
       <use x="95.410156" xlink:href="#DejaVuSans-30"/>
       <use x="159.033203" xlink:href="#DejaVuSans-31"/>
       <use x="222.65625" xlink:href="#DejaVuSans-30"/>
      </g>
     </g>
    </g>
    <g id="ytick_4">
     <g id="line2d_10">
      <g>
       <use style="stroke:#000000;stroke-width:0.8;" x="72" xlink:href="#m85ce25f599" y="167.989091"/>
      </g>
     </g>
     <g id="text_11">
      <!-- 0.015 -->
      <g transform="translate(36.371875 171.78831)scale(0.1 -0.1)">
       <use xlink:href="#DejaVuSans-30"/>
       <use x="63.623047" xlink:href="#DejaVuSans-2e"/>
       <use x="95.410156" xlink:href="#DejaVuSans-30"/>
       <use x="159.033203" xlink:href="#DejaVuSans-31"/>
       <use x="222.65625" xlink:href="#DejaVuSans-35"/>
      </g>
     </g>
    </g>
    <g id="ytick_5">
     <g id="line2d_11">
      <g>
       <use style="stroke:#000000;stroke-width:0.8;" x="72" xlink:href="#m85ce25f599" y="143.28"/>
      </g>
     </g>
     <g id="text_12">
      <!-- 0.020 -->
      <g transform="translate(36.371875 147.079219)scale(0.1 -0.1)">
       <use xlink:href="#DejaVuSans-30"/>
       <use x="63.623047" xlink:href="#DejaVuSans-2e"/>
       <use x="95.410156" xlink:href="#DejaVuSans-30"/>
       <use x="159.033203" xlink:href="#DejaVuSans-32"/>
       <use x="222.65625" xlink:href="#DejaVuSans-30"/>
      </g>
     </g>
    </g>
    <g id="ytick_6">
     <g id="line2d_12">
      <g>
       <use style="stroke:#000000;stroke-width:0.8;" x="72" xlink:href="#m85ce25f599" y="118.570909"/>
      </g>
     </g>
     <g id="text_13">
      <!-- 0.025 -->
      <g transform="translate(36.371875 122.370128)scale(0.1 -0.1)">
       <use xlink:href="#DejaVuSans-30"/>
       <use x="63.623047" xlink:href="#DejaVuSans-2e"/>
       <use x="95.410156" xlink:href="#DejaVuSans-30"/>
       <use x="159.033203" xlink:href="#DejaVuSans-32"/>
       <use x="222.65625" xlink:href="#DejaVuSans-35"/>
      </g>
     </g>
    </g>
    <g id="ytick_7">
     <g id="line2d_13">
      <g>
       <use style="stroke:#000000;stroke-width:0.8;" x="72" xlink:href="#m85ce25f599" y="93.861818"/>
      </g>
     </g>
     <g id="text_14">
      <!-- 0.030 -->
      <g transform="translate(36.371875 97.661037)scale(0.1 -0.1)">
       <defs>
        <path d="M 2597 2516 
Q 3050 2419 3304 2112 
Q 3559 1806 3559 1356 
Q 3559 666 3084 287 
Q 2609 -91 1734 -91 
Q 1441 -91 1130 -33 
Q 819 25 488 141 
L 488 750 
Q 750 597 1062 519 
Q 1375 441 1716 441 
Q 2309 441 2620 675 
Q 2931 909 2931 1356 
Q 2931 1769 2642 2001 
Q 2353 2234 1838 2234 
L 1294 2234 
L 1294 2753 
L 1863 2753 
Q 2328 2753 2575 2939 
Q 2822 3125 2822 3475 
Q 2822 3834 2567 4026 
Q 2313 4219 1838 4219 
Q 1578 4219 1281 4162 
Q 984 4106 628 3988 
L 628 4550 
Q 988 4650 1302 4700 
Q 1616 4750 1894 4750 
Q 2613 4750 3031 4423 
Q 3450 4097 3450 3541 
Q 3450 3153 3228 2886 
Q 3006 2619 2597 2516 
z
" id="DejaVuSans-33" transform="scale(0.015625)"/>
       </defs>
       <use xlink:href="#DejaVuSans-30"/>
       <use x="63.623047" xlink:href="#DejaVuSans-2e"/>
       <use x="95.410156" xlink:href="#DejaVuSans-30"/>
       <use x="159.033203" xlink:href="#DejaVuSans-33"/>
       <use x="222.65625" xlink:href="#DejaVuSans-30"/>
      </g>
     </g>
    </g>
    <g id="ytick_8">
     <g id="line2d_14">
      <g>
       <use style="stroke:#000000;stroke-width:0.8;" x="72" xlink:href="#m85ce25f599" y="69.152727"/>
      </g>
     </g>
     <g id="text_15">
      <!-- 0.035 -->
      <g transform="translate(36.371875 72.951946)scale(0.1 -0.1)">
       <use xlink:href="#DejaVuSans-30"/>
       <use x="63.623047" xlink:href="#DejaVuSans-2e"/>
       <use x="95.410156" xlink:href="#DejaVuSans-30"/>
       <use x="159.033203" xlink:href="#DejaVuSans-33"/>
       <use x="222.65625" xlink:href="#DejaVuSans-35"/>
      </g>
     </g>
    </g>
    <g id="ytick_9">
     <g id="line2d_15">
      <g>
       <use style="stroke:#000000;stroke-width:0.8;" x="72" xlink:href="#m85ce25f599" y="44.443636"/>
      </g>
     </g>
     <g id="text_16">
      <!-- 0.040 -->
      <g transform="translate(36.371875 48.242855)scale(0.1 -0.1)">
       <use xlink:href="#DejaVuSans-30"/>
       <use x="63.623047" xlink:href="#DejaVuSans-2e"/>
       <use x="95.410156" xlink:href="#DejaVuSans-30"/>
       <use x="159.033203" xlink:href="#DejaVuSans-34"/>
       <use x="222.65625" xlink:href="#DejaVuSans-30"/>
      </g>
     </g>
    </g>
    <g id="text_17">
     <!-- F1 score -->
     <g transform="translate(30.292188 164.358906)rotate(-90)scale(0.1 -0.1)">
      <defs>
       <path d="M 628 4666 
L 3309 4666 
L 3309 4134 
L 1259 4134 
L 1259 2759 
L 3109 2759 
L 3109 2228 
L 1259 2228 
L 1259 0 
L 628 0 
L 628 4666 
z
" id="DejaVuSans-46" transform="scale(0.015625)"/>
       <path id="DejaVuSans-20" transform="scale(0.015625)"/>
       <path d="M 3122 3366 
L 3122 2828 
Q 2878 2963 2633 3030 
Q 2388 3097 2138 3097 
Q 1578 3097 1268 2742 
Q 959 2388 959 1747 
Q 959 1106 1268 751 
Q 1578 397 2138 397 
Q 2388 397 2633 464 
Q 2878 531 3122 666 
L 3122 134 
Q 2881 22 2623 -34 
Q 2366 -91 2075 -91 
Q 1284 -91 818 406 
Q 353 903 353 1747 
Q 353 2603 823 3093 
Q 1294 3584 2113 3584 
Q 2378 3584 2631 3529 
Q 2884 3475 3122 3366 
z
" id="DejaVuSans-63" transform="scale(0.015625)"/>
      </defs>
      <use xlink:href="#DejaVuSans-46"/>
      <use x="57.519531" xlink:href="#DejaVuSans-31"/>
      <use x="121.142578" xlink:href="#DejaVuSans-20"/>
      <use x="152.929688" xlink:href="#DejaVuSans-73"/>
      <use x="205.029297" xlink:href="#DejaVuSans-63"/>
      <use x="260.009766" xlink:href="#DejaVuSans-6f"/>
      <use x="321.191406" xlink:href="#DejaVuSans-72"/>
      <use x="360.054688" xlink:href="#DejaVuSans-65"/>
     </g>
    </g>
   </g>
   <g id="line2d_16">
    <path clip-path="url(#p2397e59a8a)" d="M 92.290909 167.132564 
L 93.917435 164.80918 
L 94.324066 164.801403 
L 95.137329 164.203687 
L 95.950592 163.664795 
L 96.357224 163.642764 
L 97.577118 163.089962 
L 97.983749 162.888307 
L 98.797012 162.773783 
L 100.830169 162.227318 
L 101.236801 162.403398 
L 103.67659 161.791089 
L 104.489852 161.596883 
L 108.556167 160.82999 
L 109.36943 160.676587 
L 109.776061 160.824777 
L 111.809218 160.234128 
L 113.842376 159.726064 
L 114.655639 160.111111 
L 115.468901 159.882195 
L 117.095427 159.337033 
L 117.90869 159.103769 
L 118.315322 158.91484 
L 119.128584 158.79146 
L 120.348479 158.421423 
L 120.75511 158.391401 
L 122.381636 157.77937 
L 123.60153 157.556088 
L 124.414793 157.250996 
L 125.228056 157.082135 
L 130.107633 155.948874 
L 130.514265 155.74956 
L 130.920896 155.965379 
L 132.954054 155.24791 
L 135.800474 154.301487 
L 137.020368 153.841185 
L 137.833631 154.074564 
L 138.240262 154.212659 
L 143.526471 152.257009 
L 143.933103 152.406016 
L 147.999417 150.901446 
L 148.81268 150.620914 
L 149.625943 150.979397 
L 151.6591 150.376778 
L 153.285626 149.797871 
L 153.692257 150.000156 
L 154.098889 149.826972 
L 154.50552 149.943161 
L 155.318783 149.763367 
L 156.945309 148.942582 
L 157.758572 148.723217 
L 158.571835 148.431112 
L 159.791729 147.941195 
L 161.011623 147.443075 
L 161.418255 147.682653 
L 164.671306 146.519319 
L 165.077938 146.639491 
L 165.484569 146.49232 
L 165.891201 146.622292 
L 167.111095 146.282153 
L 167.924358 146.066746 
L 169.144252 145.649028 
L 169.957515 145.37282 
L 171.584041 144.665526 
L 172.397304 144.31457 
L 174.837092 143.286723 
L 175.243724 143.394558 
L 175.650355 143.286746 
L 176.056987 143.371305 
L 176.463618 143.157997 
L 176.87025 143.551902 
L 178.496775 142.762676 
L 178.903407 142.87824 
L 179.310038 142.691709 
L 180.123301 143.180029 
L 180.529933 143.027963 
L 180.936564 143.172753 
L 181.749827 142.800785 
L 182.156458 143.290439 
L 183.376353 142.561381 
L 183.782984 142.504854 
L 185.816141 141.68153 
L 188.662561 140.393064 
L 189.475824 139.814712 
L 189.882456 140.037276 
L 190.289087 139.805778 
L 190.695719 139.905595 
L 191.915613 139.370559 
L 192.322244 139.253009 
L 192.728876 139.466237 
L 195.168665 138.365689 
L 195.575296 138.483268 
L 197.201822 137.862524 
L 198.828348 136.971296 
L 199.64161 136.666806 
L 200.048242 136.481652 
L 200.454873 136.117506 
L 201.268136 135.730396 
L 201.674768 135.492662 
L 202.488031 135.175403 
L 202.894662 135.939622 
L 203.301293 135.762262 
L 203.707925 135.4016 
L 204.114556 135.649904 
L 204.521188 135.728388 
L 206.960976 134.498372 
L 207.774239 134.873409 
L 208.180871 134.753928 
L 208.587502 134.419679 
L 209.400765 133.970763 
L 211.027291 132.995454 
L 211.433922 133.051124 
L 211.840554 132.784992 
L 212.653817 132.481802 
L 213.46708 132.005813 
L 213.873711 132.158424 
L 215.906868 130.98133 
L 216.3135 131.608937 
L 217.126763 130.966774 
L 217.533394 130.81322 
L 217.940026 130.486092 
L 219.566551 129.640766 
L 219.973183 129.287549 
L 222.412971 128.072775 
L 223.226234 127.630803 
L 223.632866 127.457998 
L 224.446129 126.93644 
L 225.666023 126.162847 
L 226.072654 126.74822 
L 226.479286 126.576481 
L 227.292549 126.053079 
L 228.512443 126.121517 
L 228.919075 125.833126 
L 229.325706 126.060677 
L 230.138969 125.563007 
L 230.952232 125.24979 
L 231.358863 124.898035 
L 231.765495 125.455881 
L 232.172126 125.07095 
L 232.578758 124.84833 
L 233.39202 125.187508 
L 234.611915 124.513258 
L 235.018546 124.766872 
L 235.425178 124.66996 
L 236.238441 124.095994 
L 237.051703 123.697443 
L 237.458335 123.914065 
L 238.271598 124.102795 
L 239.084861 123.727307 
L 239.898124 124.260693 
L 240.304755 124.902548 
L 240.711386 124.803172 
L 241.524649 124.136336 
L 241.931281 123.962836 
L 242.337912 123.586103 
L 243.151175 123.178569 
L 243.557807 122.751063 
L 243.964438 122.498826 
L 244.371069 122.112684 
L 244.777701 122.42742 
L 245.184332 122.546604 
L 245.590964 122.390175 
L 246.404227 121.748618 
L 246.810858 122.048771 
L 248.030752 120.955205 
L 248.437384 120.656219 
L 248.844015 120.524197 
L 249.250647 120.235151 
L 249.657278 120.387032 
L 250.06391 120.400345 
L 251.690435 119.49553 
L 252.097067 120.606449 
L 252.503698 120.213352 
L 253.316961 119.885889 
L 254.536856 118.974652 
L 254.943487 118.842465 
L 255.75675 118.16451 
L 256.570013 117.279048 
L 256.976644 117.058944 
L 257.789907 116.177293 
L 258.60317 116.263167 
L 259.009801 115.924531 
L 259.416433 115.940055 
L 259.823064 115.651996 
L 260.229696 116.414518 
L 260.636327 116.179962 
L 261.042959 116.07917 
L 261.44959 115.606665 
L 261.856222 115.504953 
L 262.262853 115.280609 
L 262.669484 114.836387 
L 263.076116 114.650948 
L 263.889379 113.896796 
L 264.702642 113.281398 
L 265.109273 113.042046 
L 265.922536 112.061357 
L 267.14243 111.029289 
L 267.549062 111.539307 
L 268.362325 111.740021 
L 268.768956 111.188824 
L 269.175588 110.974444 
L 269.98885 109.952113 
L 270.395482 110.54536 
L 270.802113 110.17599 
L 271.208745 109.971573 
L 271.615376 110.675949 
L 272.428639 109.546395 
L 272.835271 109.214565 
L 273.241902 109.395885 
L 273.648533 108.937129 
L 274.055165 108.655648 
L 274.868428 107.549598 
L 275.275059 107.374122 
L 275.681691 107.41704 
L 276.088322 107.994804 
L 276.494954 107.52008 
L 276.901585 107.742194 
L 277.308216 107.515471 
L 277.714848 108.465018 
L 278.121479 109.799691 
L 279.341374 108.349223 
L 279.748005 107.987801 
L 280.154637 108.175252 
L 280.561268 107.819532 
L 280.967899 107.832825 
L 281.374531 107.515508 
L 282.187794 106.418516 
L 282.594425 105.99182 
L 283.001057 105.355363 
L 283.407688 106.260971 
L 283.81432 106.362488 
L 284.627582 105.746804 
L 285.440845 104.649174 
L 285.847477 104.347555 
L 286.66074 103.181999 
L 287.067371 103.292177 
L 287.474003 102.974024 
L 287.880634 103.715565 
L 288.693897 102.772007 
L 289.100528 103.021109 
L 289.50716 102.687903 
L 289.913791 102.054137 
L 290.320423 102.826139 
L 291.133686 102.957333 
L 291.540317 102.711986 
L 291.946948 102.190121 
L 292.35358 102.35868 
L 292.760211 101.754623 
L 293.166843 101.845672 
L 293.573474 101.467767 
L 293.980106 101.675145 
L 294.793369 100.98057 
L 295.2 100.209552 
L 295.606631 99.830868 
L 296.013263 99.745101 
L 297.233157 98.149079 
L 297.639789 97.747051 
L 298.04642 97.866009 
L 298.453052 97.439541 
L 299.266314 96.123627 
L 299.672946 96.524987 
L 300.079577 95.541623 
L 300.486209 94.871394 
L 300.89284 96.175603 
L 301.706103 96.714499 
L 302.519366 95.167204 
L 302.925997 95.281472 
L 303.332629 94.666773 
L 303.73926 94.284196 
L 304.145892 95.130894 
L 304.552523 94.235332 
L 304.959155 95.125025 
L 305.772418 93.965986 
L 306.179049 93.939398 
L 306.58568 94.041067 
L 306.992312 93.38431 
L 307.398943 92.495544 
L 307.805575 91.99318 
L 308.212206 91.087659 
L 308.618838 90.588008 
L 309.025469 90.676779 
L 309.432101 89.68819 
L 309.838732 89.811148 
L 310.651995 88.641214 
L 311.058626 89.40359 
L 311.465258 88.907233 
L 311.871889 89.37451 
L 312.278521 88.45028 
L 313.091784 87.410151 
L 313.498415 88.920842 
L 313.905046 89.307089 
L 314.311678 89.15836 
L 314.718309 88.218912 
L 315.124941 89.094943 
L 315.531572 89.383376 
L 315.938204 88.91524 
L 316.344835 88.85469 
L 316.751467 88.203782 
L 317.564729 87.863589 
L 317.971361 89.190052 
L 318.377992 88.254302 
L 318.784624 88.229747 
L 319.191255 88.330939 
L 319.597887 87.387643 
L 320.004518 87.004229 
L 320.41115 87.727368 
L 320.817781 88.128521 
L 321.224412 87.569555 
L 321.631044 88.638007 
L 322.037675 88.090487 
L 322.444307 87.042296 
L 322.850938 87.391506 
L 323.664201 85.744708 
L 324.070833 85.323748 
L 325.697358 81.557143 
L 326.10399 81.661368 
L 326.917253 79.569596 
L 327.323884 79.385785 
L 327.730516 77.993225 
L 328.137147 77.271104 
L 328.543778 76.98135 
L 328.95041 76.194178 
L 329.357041 75.700817 
L 329.763673 76.468827 
L 330.576936 74.828927 
L 331.390199 75.442797 
L 331.79683 75.35806 
L 332.203461 74.815227 
L 332.610093 73.534768 
L 333.016724 72.719827 
L 333.423356 75.317735 
L 334.236619 74.150534 
L 335.049882 74.182405 
L 335.456513 74.767289 
L 335.863144 76.92085 
L 336.269776 76.582064 
L 336.676407 76.671407 
L 337.083039 75.698314 
L 337.48967 75.898865 
L 337.896302 75.538223 
L 338.709565 73.824577 
L 339.116196 74.996054 
L 339.522827 74.958786 
L 339.929459 73.726716 
L 340.33609 73.093595 
L 340.742722 77.087944 
L 341.149353 77.247659 
L 341.555985 78.770622 
L 341.962616 78.720014 
L 342.369248 78.271962 
L 342.775879 77.058147 
L 343.18251 76.496654 
L 343.589142 76.3004 
L 343.995773 75.068988 
L 344.809036 74.014315 
L 345.215668 74.227831 
L 345.622299 73.440443 
L 346.028931 73.342854 
L 346.435562 76.344861 
L 347.248825 77.389091 
L 348.468719 74.483454 
L 348.875351 76.446253 
L 349.688614 74.574016 
L 350.095245 74.736625 
L 350.501876 76.422544 
L 350.908508 77.365821 
L 351.315139 76.35896 
L 351.721771 76.587384 
L 352.128402 76.341086 
L 352.535034 76.717909 
L 352.941665 77.557499 
L 353.348297 77.58323 
L 353.754928 77.780367 
L 354.161559 76.57617 
L 354.568191 77.017246 
L 355.381454 74.469109 
L 355.788085 71.893922 
L 356.194717 71.948888 
L 356.601348 72.380053 
L 357.414611 70.569172 
L 357.821242 72.501433 
L 358.634505 74.214014 
L 359.041137 74.210287 
L 359.447768 76.101517 
L 360.261031 72.807125 
L 360.667663 72.490659 
L 361.074294 70.949136 
L 361.480925 70.822839 
L 361.887557 70.813843 
L 362.294188 68.164364 
L 362.70082 67.512509 
L 363.107451 71.432951 
L 363.514083 69.633344 
L 363.920714 71.27013 
L 364.733977 70.067879 
L 365.140608 68.13475 
L 365.54724 69.013128 
L 365.953871 70.162024 
L 366.360503 68.950387 
L 366.767134 68.354746 
L 367.173766 68.317154 
L 367.580397 70.344515 
L 367.987029 69.128431 
L 368.39366 73.926355 
L 368.800291 72.876015 
L 369.206923 73.405643 
L 369.613554 76.378494 
L 370.426817 74.215352 
L 370.833449 75.225693 
L 371.24008 73.716165 
L 371.646712 74.774372 
L 372.053343 75.277203 
L 372.459974 73.439053 
L 372.866606 72.633561 
L 373.273237 75.367897 
L 373.679869 76.041554 
L 374.0865 76.023438 
L 374.493132 74.559237 
L 374.899763 74.02731 
L 375.713026 70.803046 
L 376.119657 69.446266 
L 376.526289 67.081481 
L 376.93292 66.209214 
L 377.339552 69.424776 
L 377.746183 67.797578 
L 378.152815 70.918954 
L 378.559446 68.418794 
L 378.966078 67.16294 
L 379.77934 72.268683 
L 380.592603 67.774659 
L 380.999235 66.223332 
L 381.405866 69.362126 
L 382.219129 66.33625 
L 382.625761 69.334958 
L 383.032392 68.481248 
L 385.065549 61.490228 
L 385.472181 63.137033 
L 386.285444 59.408297 
L 387.098707 62.253053 
L 387.505338 60.847026 
L 387.911969 61.373242 
L 388.318601 58.80317 
L 388.725232 57.375497 
L 389.131864 56.913933 
L 389.538495 57.81341 
L 389.945127 56.286362 
L 390.351758 54.069106 
L 390.75839 54.901828 
L 391.571652 51.667557 
L 391.978284 49.943749 
L 392.384915 54.6854 
L 392.791547 52.761716 
L 393.60481 56.346658 
L 394.011441 53.856623 
L 394.418073 62.285663 
L 394.824704 60.471155 
L 395.231335 63.517947 
L 396.857861 56.821344 
L 397.264493 58.670083 
L 398.077756 60.80063 
L 398.484387 59.374071 
L 398.891018 56.822822 
L 399.29765 59.012347 
L 400.110913 62.265247 
L 400.517544 67.845697 
L 400.924176 65.096011 
L 401.330807 64.109191 
L 401.737439 69.852549 
L 402.14407 72.97998 
L 402.550701 70.952146 
L 402.957333 69.573025 
L 403.363964 68.797201 
L 404.177227 66.106401 
L 404.583859 64.811019 
L 404.99049 65.953989 
L 405.397122 65.207187 
L 405.803753 67.059137 
L 406.210384 66.047733 
L 407.023647 60.989793 
L 407.430279 59.451756 
L 408.243542 54.291738 
L 408.650173 52.735449 
L 409.056805 50.049901 
L 409.463436 49.137712 
L 409.870067 47.494466 
L 410.276699 44.443636 
L 410.68333 53.600139 
L 411.089962 56.04569 
L 411.496593 60.411628 
L 411.903225 58.983292 
L 412.309856 56.27021 
L 412.716488 54.990718 
L 413.123119 52.046434 
L 413.52975 51.044307 
L 413.936382 53.968616 
L 414.343013 51.358605 
L 414.749645 62.195799 
L 415.156276 58.519403 
L 415.562908 58.519403 
L 415.969539 56.333725 
L 416.376171 54.808031 
L 416.782802 58.264244 
L 417.596065 52.172391 
L 418.002696 55.758237 
L 418.409328 66.226873 
L 418.815959 64.525109 
L 419.222591 61.4029 
L 419.629222 60.380476 
L 420.035854 67.699251 
L 420.442485 66.015938 
L 420.849116 63.361825 
L 421.255748 67.788422 
L 421.662379 66.712323 
L 422.882274 60.257455 
L 423.288905 71.288081 
L 423.695537 78.344427 
L 424.102168 76.561316 
L 424.508799 79.809457 
L 424.915431 76.809065 
L 425.728694 72.478522 
L 426.135325 69.198232 
L 426.541957 67.914981 
L 426.948588 65.290478 
L 427.35522 72.843809 
L 427.761851 70.888785 
L 428.168482 77.227435 
L 428.575114 74.262399 
L 428.981745 70.139068 
L 429.388377 79.255208 
L 429.795008 77.90226 
L 430.20164 74.063035 
L 431.014903 90.393876 
L 431.421534 90.227331 
L 431.828165 90.227331 
L 432.234797 88.028492 
L 432.641428 96.273829 
L 433.04806 95.608641 
L 433.454691 94.089552 
L 433.861323 92.01441 
L 434.267954 101.590728 
L 434.674586 123.322657 
L 435.081217 122.604437 
L 435.487848 120.993369 
L 435.89448 120.844752 
L 436.301111 129.660324 
L 436.707743 128.366073 
L 437.114374 128.366073 
L 437.521006 127.48656 
L 437.927637 126.141491 
L 438.334269 122.556246 
L 438.7409 121.747315 
L 439.554163 119.083546 
L 439.960794 119.083546 
L 440.367426 117.706955 
L 440.774057 115.583323 
L 441.180689 114.859243 
L 441.58732 109.94292 
L 442.400583 108.151413 
L 442.807214 106.517694 
L 443.213846 103.776197 
L 443.620477 102.033329 
L 444.027109 102.033329 
L 444.43374 99.792 
L 445.247003 91.349029 
L 445.653635 90.06042 
L 446.060266 90.06042 
L 446.466897 85.509449 
L 446.873529 101.424031 
L 447.28016 134.294876 
L 447.686792 132.703415 
L 448.093423 168.495236 
L 448.906686 166.088392 
L 449.313318 164.292455 
L 449.719949 163.047273 
L 450.12658 162.248595 
L 450.533212 160.769562 
L 450.939843 160.601837 
L 451.346475 159.923961 
L 451.753106 179.429452 
L 452.566369 178.350968 
L 452.973001 178.350968 
L 453.379632 177.234724 
L 453.786263 177.234724 
L 454.192895 176.078704 
L 454.599526 175.335037 
L 455.006158 175.184289 
L 455.412789 174.574429 
L 455.819421 174.574429 
L 456.226052 172.676296 
L 457.039315 171.350471 
L 457.445946 171.350471 
L 457.852578 169.973033 
L 458.665841 169.973033 
L 459.072472 168.540907 
L 459.479104 168.540907 
L 459.885735 167.803308 
L 460.292367 166.476289 
L 460.698998 164.698846 
L 461.105629 162.194776 
L 461.918892 160.433418 
L 463.545418 160.433418 
L 463.95205 158.592676 
L 464.358681 158.592676 
L 464.765312 157.880826 
L 465.171944 157.880826 
L 465.578575 184.653362 
L 465.985207 183.977326 
L 466.391838 183.977326 
L 466.79847 183.285195 
L 467.205101 212.612972 
L 471.271416 212.612972 
L 471.678047 212.256435 
L 475.744361 212.256435 
L 476.150993 211.51687 
L 476.964256 211.51687 
L 477.370887 242.116364 
L 498.109091 242.116364 
L 498.109091 242.116364 
" style="fill:none;stroke:#1f77b4;stroke-linecap:square;stroke-width:1.5;"/>
   </g>
   <g id="patch_3">
    <path d="M 72 252 
L 72 34.56 
" style="fill:none;stroke:#000000;stroke-linecap:square;stroke-linejoin:miter;stroke-width:0.8;"/>
   </g>
   <g id="patch_4">
    <path d="M 518.4 252 
L 518.4 34.56 
" style="fill:none;stroke:#000000;stroke-linecap:square;stroke-linejoin:miter;stroke-width:0.8;"/>
   </g>
   <g id="patch_5">
    <path d="M 72 252 
L 518.4 252 
" style="fill:none;stroke:#000000;stroke-linecap:square;stroke-linejoin:miter;stroke-width:0.8;"/>
   </g>
   <g id="patch_6">
    <path d="M 72 34.56 
L 518.4 34.56 
" style="fill:none;stroke:#000000;stroke-linecap:square;stroke-linejoin:miter;stroke-width:0.8;"/>
   </g>
   <g id="text_18">
    <!-- AZCAPOTZALCO -->
    <g transform="translate(262.54375 28.56)scale(0.08 -0.08)">
     <defs>
      <path d="M 2188 4044 
L 1331 1722 
L 3047 1722 
L 2188 4044 
z
M 1831 4666 
L 2547 4666 
L 4325 0 
L 3669 0 
L 3244 1197 
L 1141 1197 
L 716 0 
L 50 0 
L 1831 4666 
z
" id="DejaVuSans-41" transform="scale(0.015625)"/>
      <path d="M 359 4666 
L 4025 4666 
L 4025 4184 
L 1075 531 
L 4097 531 
L 4097 0 
L 288 0 
L 288 481 
L 3238 4134 
L 359 4134 
L 359 4666 
z
" id="DejaVuSans-5a" transform="scale(0.015625)"/>
      <path d="M 4122 4306 
L 4122 3641 
Q 3803 3938 3442 4084 
Q 3081 4231 2675 4231 
Q 1875 4231 1450 3742 
Q 1025 3253 1025 2328 
Q 1025 1406 1450 917 
Q 1875 428 2675 428 
Q 3081 428 3442 575 
Q 3803 722 4122 1019 
L 4122 359 
Q 3791 134 3420 21 
Q 3050 -91 2638 -91 
Q 1578 -91 968 557 
Q 359 1206 359 2328 
Q 359 3453 968 4101 
Q 1578 4750 2638 4750 
Q 3056 4750 3426 4639 
Q 3797 4528 4122 4306 
z
" id="DejaVuSans-43" transform="scale(0.015625)"/>
      <path d="M 1259 4147 
L 1259 2394 
L 2053 2394 
Q 2494 2394 2734 2622 
Q 2975 2850 2975 3272 
Q 2975 3691 2734 3919 
Q 2494 4147 2053 4147 
L 1259 4147 
z
M 628 4666 
L 2053 4666 
Q 2838 4666 3239 4311 
Q 3641 3956 3641 3272 
Q 3641 2581 3239 2228 
Q 2838 1875 2053 1875 
L 1259 1875 
L 1259 0 
L 628 0 
L 628 4666 
z
" id="DejaVuSans-50" transform="scale(0.015625)"/>
      <path d="M 2522 4238 
Q 1834 4238 1429 3725 
Q 1025 3213 1025 2328 
Q 1025 1447 1429 934 
Q 1834 422 2522 422 
Q 3209 422 3611 934 
Q 4013 1447 4013 2328 
Q 4013 3213 3611 3725 
Q 3209 4238 2522 4238 
z
M 2522 4750 
Q 3503 4750 4090 4092 
Q 4678 3434 4678 2328 
Q 4678 1225 4090 567 
Q 3503 -91 2522 -91 
Q 1538 -91 948 565 
Q 359 1222 359 2328 
Q 359 3434 948 4092 
Q 1538 4750 2522 4750 
z
" id="DejaVuSans-4f" transform="scale(0.015625)"/>
      <path d="M 628 4666 
L 1259 4666 
L 1259 531 
L 3531 531 
L 3531 0 
L 628 0 
L 628 4666 
z
" id="DejaVuSans-4c" transform="scale(0.015625)"/>
     </defs>
     <use xlink:href="#DejaVuSans-41"/>
     <use x="68.408203" xlink:href="#DejaVuSans-5a"/>
     <use x="136.914062" xlink:href="#DejaVuSans-43"/>
     <use x="206.738281" xlink:href="#DejaVuSans-41"/>
     <use x="275.146484" xlink:href="#DejaVuSans-50"/>
     <use x="335.449219" xlink:href="#DejaVuSans-4f"/>
     <use x="414.160156" xlink:href="#DejaVuSans-54"/>
     <use x="475.244141" xlink:href="#DejaVuSans-5a"/>
     <use x="543.75" xlink:href="#DejaVuSans-41"/>
     <use x="612.158203" xlink:href="#DejaVuSans-4c"/>
     <use x="667.871094" xlink:href="#DejaVuSans-43"/>
     <use x="737.695312" xlink:href="#DejaVuSans-4f"/>
    </g>
   </g>
  </g>
  <g id="text_19">
   <!-- F1 score curve -->
   <g transform="translate(229.31625 17.9175)scale(0.16 -0.16)">
    <defs>
     <path d="M 544 1381 
L 544 3500 
L 1119 3500 
L 1119 1403 
Q 1119 906 1312 657 
Q 1506 409 1894 409 
Q 2359 409 2629 706 
Q 2900 1003 2900 1516 
L 2900 3500 
L 3475 3500 
L 3475 0 
L 2900 0 
L 2900 538 
Q 2691 219 2414 64 
Q 2138 -91 1772 -91 
Q 1169 -91 856 284 
Q 544 659 544 1381 
z
M 1991 3584 
L 1991 3584 
z
" id="DejaVuSans-75" transform="scale(0.015625)"/>
     <path d="M 191 3500 
L 800 3500 
L 1894 563 
L 2988 3500 
L 3597 3500 
L 2284 0 
L 1503 0 
L 191 3500 
z
" id="DejaVuSans-76" transform="scale(0.015625)"/>
    </defs>
    <use xlink:href="#DejaVuSans-46"/>
    <use x="57.519531" xlink:href="#DejaVuSans-31"/>
    <use x="121.142578" xlink:href="#DejaVuSans-20"/>
    <use x="152.929688" xlink:href="#DejaVuSans-73"/>
    <use x="205.029297" xlink:href="#DejaVuSans-63"/>
    <use x="260.009766" xlink:href="#DejaVuSans-6f"/>
    <use x="321.191406" xlink:href="#DejaVuSans-72"/>
    <use x="360.054688" xlink:href="#DejaVuSans-65"/>
    <use x="421.578125" xlink:href="#DejaVuSans-20"/>
    <use x="453.365234" xlink:href="#DejaVuSans-63"/>
    <use x="508.345703" xlink:href="#DejaVuSans-75"/>
    <use x="571.724609" xlink:href="#DejaVuSans-72"/>
    <use x="612.837891" xlink:href="#DejaVuSans-76"/>
    <use x="672.017578" xlink:href="#DejaVuSans-65"/>
   </g>
  </g>
 </g>
 <defs>
  <clipPath id="p2397e59a8a">
   <rect height="217.44" width="446.4" x="72" y="34.56"/>
  </clipPath>
 </defs>
</svg>
