<?xml version="1.0" encoding="utf-8" standalone="no"?>
<!DOCTYPE svg PUBLIC "-//W3C//DTD SVG 1.1//EN"
  "http://www.w3.org/Graphics/SVG/1.1/DTD/svg11.dtd">
<svg height="288pt" version="1.1" viewBox="0 0 576 288" width="576pt" xmlns="http://www.w3.org/2000/svg" xmlns:xlink="http://www.w3.org/1999/xlink">
 <metadata>
  <rdf:RDF xmlns:cc="http://creativecommons.org/ns#" xmlns:dc="http://purl.org/dc/elements/1.1/" xmlns:rdf="http://www.w3.org/1999/02/22-rdf-syntax-ns#">
   <cc:Work>
    <dc:type rdf:resource="http://purl.org/dc/dcmitype/StillImage"/>
    <dc:date>2022-01-04T19:20:23.265626</dc:date>
    <dc:format>image/svg+xml</dc:format>
    <dc:creator>
     <cc:Agent>
      <dc:title>Matplotlib v3.4.3, https://matplotlib.org/</dc:title>
     </cc:Agent>
    </dc:creator>
   </cc:Work>
  </rdf:RDF>
 </metadata>
 <defs>
  <style type="text/css">*{stroke-linecap:butt;stroke-linejoin:round;}</style>
 </defs>
 <g id="figure_1">
  <g id="patch_1">
   <path d="M 0 288 
L 576 288 
L 576 0 
L 0 0 
z
" style="fill:none;"/>
  </g>
  <g id="axes_1">
   <g id="patch_2">
    <path d="M 72 252 
L 518.4 252 
L 518.4 34.56 
L 72 34.56 
z
" style="fill:#ffffff;"/>
   </g>
   <g id="matplotlib.axis_1">
    <g id="xtick_1">
     <g id="line2d_1">
      <defs>
       <path d="M 0 0 
L 0 3.5 
" id="mc0f955e020" style="stroke:#000000;stroke-width:0.8;"/>
      </defs>
      <g>
       <use style="stroke:#000000;stroke-width:0.8;" x="91.884278" xlink:href="#mc0f955e020" y="252"/>
      </g>
     </g>
     <g id="text_1">
      <!-- 0.0 -->
      <g transform="translate(83.932715 266.598437)scale(0.1 -0.1)">
       <defs>
        <path d="M 2034 4250 
Q 1547 4250 1301 3770 
Q 1056 3291 1056 2328 
Q 1056 1369 1301 889 
Q 1547 409 2034 409 
Q 2525 409 2770 889 
Q 3016 1369 3016 2328 
Q 3016 3291 2770 3770 
Q 2525 4250 2034 4250 
z
M 2034 4750 
Q 2819 4750 3233 4129 
Q 3647 3509 3647 2328 
Q 3647 1150 3233 529 
Q 2819 -91 2034 -91 
Q 1250 -91 836 529 
Q 422 1150 422 2328 
Q 422 3509 836 4129 
Q 1250 4750 2034 4750 
z
" id="DejaVuSans-30" transform="scale(0.015625)"/>
        <path d="M 684 794 
L 1344 794 
L 1344 0 
L 684 0 
L 684 794 
z
" id="DejaVuSans-2e" transform="scale(0.015625)"/>
       </defs>
       <use xlink:href="#DejaVuSans-30"/>
       <use x="63.623047" xlink:href="#DejaVuSans-2e"/>
       <use x="95.410156" xlink:href="#DejaVuSans-30"/>
      </g>
     </g>
    </g>
    <g id="xtick_2">
     <g id="line2d_2">
      <g>
       <use style="stroke:#000000;stroke-width:0.8;" x="173.210567" xlink:href="#mc0f955e020" y="252"/>
      </g>
     </g>
     <g id="text_2">
      <!-- 0.2 -->
      <g transform="translate(165.259004 266.598437)scale(0.1 -0.1)">
       <defs>
        <path d="M 1228 531 
L 3431 531 
L 3431 0 
L 469 0 
L 469 531 
Q 828 903 1448 1529 
Q 2069 2156 2228 2338 
Q 2531 2678 2651 2914 
Q 2772 3150 2772 3378 
Q 2772 3750 2511 3984 
Q 2250 4219 1831 4219 
Q 1534 4219 1204 4116 
Q 875 4013 500 3803 
L 500 4441 
Q 881 4594 1212 4672 
Q 1544 4750 1819 4750 
Q 2544 4750 2975 4387 
Q 3406 4025 3406 3419 
Q 3406 3131 3298 2873 
Q 3191 2616 2906 2266 
Q 2828 2175 2409 1742 
Q 1991 1309 1228 531 
z
" id="DejaVuSans-32" transform="scale(0.015625)"/>
       </defs>
       <use xlink:href="#DejaVuSans-30"/>
       <use x="63.623047" xlink:href="#DejaVuSans-2e"/>
       <use x="95.410156" xlink:href="#DejaVuSans-32"/>
      </g>
     </g>
    </g>
    <g id="xtick_3">
     <g id="line2d_3">
      <g>
       <use style="stroke:#000000;stroke-width:0.8;" x="254.536856" xlink:href="#mc0f955e020" y="252"/>
      </g>
     </g>
     <g id="text_3">
      <!-- 0.4 -->
      <g transform="translate(246.585293 266.598437)scale(0.1 -0.1)">
       <defs>
        <path d="M 2419 4116 
L 825 1625 
L 2419 1625 
L 2419 4116 
z
M 2253 4666 
L 3047 4666 
L 3047 1625 
L 3713 1625 
L 3713 1100 
L 3047 1100 
L 3047 0 
L 2419 0 
L 2419 1100 
L 313 1100 
L 313 1709 
L 2253 4666 
z
" id="DejaVuSans-34" transform="scale(0.015625)"/>
       </defs>
       <use xlink:href="#DejaVuSans-30"/>
       <use x="63.623047" xlink:href="#DejaVuSans-2e"/>
       <use x="95.410156" xlink:href="#DejaVuSans-34"/>
      </g>
     </g>
    </g>
    <g id="xtick_4">
     <g id="line2d_4">
      <g>
       <use style="stroke:#000000;stroke-width:0.8;" x="335.863144" xlink:href="#mc0f955e020" y="252"/>
      </g>
     </g>
     <g id="text_4">
      <!-- 0.6 -->
      <g transform="translate(327.911582 266.598437)scale(0.1 -0.1)">
       <defs>
        <path d="M 2113 2584 
Q 1688 2584 1439 2293 
Q 1191 2003 1191 1497 
Q 1191 994 1439 701 
Q 1688 409 2113 409 
Q 2538 409 2786 701 
Q 3034 994 3034 1497 
Q 3034 2003 2786 2293 
Q 2538 2584 2113 2584 
z
M 3366 4563 
L 3366 3988 
Q 3128 4100 2886 4159 
Q 2644 4219 2406 4219 
Q 1781 4219 1451 3797 
Q 1122 3375 1075 2522 
Q 1259 2794 1537 2939 
Q 1816 3084 2150 3084 
Q 2853 3084 3261 2657 
Q 3669 2231 3669 1497 
Q 3669 778 3244 343 
Q 2819 -91 2113 -91 
Q 1303 -91 875 529 
Q 447 1150 447 2328 
Q 447 3434 972 4092 
Q 1497 4750 2381 4750 
Q 2619 4750 2861 4703 
Q 3103 4656 3366 4563 
z
" id="DejaVuSans-36" transform="scale(0.015625)"/>
       </defs>
       <use xlink:href="#DejaVuSans-30"/>
       <use x="63.623047" xlink:href="#DejaVuSans-2e"/>
       <use x="95.410156" xlink:href="#DejaVuSans-36"/>
      </g>
     </g>
    </g>
    <g id="xtick_5">
     <g id="line2d_5">
      <g>
       <use style="stroke:#000000;stroke-width:0.8;" x="417.189433" xlink:href="#mc0f955e020" y="252"/>
      </g>
     </g>
     <g id="text_5">
      <!-- 0.8 -->
      <g transform="translate(409.237871 266.598437)scale(0.1 -0.1)">
       <defs>
        <path d="M 2034 2216 
Q 1584 2216 1326 1975 
Q 1069 1734 1069 1313 
Q 1069 891 1326 650 
Q 1584 409 2034 409 
Q 2484 409 2743 651 
Q 3003 894 3003 1313 
Q 3003 1734 2745 1975 
Q 2488 2216 2034 2216 
z
M 1403 2484 
Q 997 2584 770 2862 
Q 544 3141 544 3541 
Q 544 4100 942 4425 
Q 1341 4750 2034 4750 
Q 2731 4750 3128 4425 
Q 3525 4100 3525 3541 
Q 3525 3141 3298 2862 
Q 3072 2584 2669 2484 
Q 3125 2378 3379 2068 
Q 3634 1759 3634 1313 
Q 3634 634 3220 271 
Q 2806 -91 2034 -91 
Q 1263 -91 848 271 
Q 434 634 434 1313 
Q 434 1759 690 2068 
Q 947 2378 1403 2484 
z
M 1172 3481 
Q 1172 3119 1398 2916 
Q 1625 2713 2034 2713 
Q 2441 2713 2670 2916 
Q 2900 3119 2900 3481 
Q 2900 3844 2670 4047 
Q 2441 4250 2034 4250 
Q 1625 4250 1398 4047 
Q 1172 3844 1172 3481 
z
" id="DejaVuSans-38" transform="scale(0.015625)"/>
       </defs>
       <use xlink:href="#DejaVuSans-30"/>
       <use x="63.623047" xlink:href="#DejaVuSans-2e"/>
       <use x="95.410156" xlink:href="#DejaVuSans-38"/>
      </g>
     </g>
    </g>
    <g id="xtick_6">
     <g id="line2d_6">
      <g>
       <use style="stroke:#000000;stroke-width:0.8;" x="498.515722" xlink:href="#mc0f955e020" y="252"/>
      </g>
     </g>
     <g id="text_6">
      <!-- 1.0 -->
      <g transform="translate(490.56416 266.598437)scale(0.1 -0.1)">
       <defs>
        <path d="M 794 531 
L 1825 531 
L 1825 4091 
L 703 3866 
L 703 4441 
L 1819 4666 
L 2450 4666 
L 2450 531 
L 3481 531 
L 3481 0 
L 794 0 
L 794 531 
z
" id="DejaVuSans-31" transform="scale(0.015625)"/>
       </defs>
       <use xlink:href="#DejaVuSans-31"/>
       <use x="63.623047" xlink:href="#DejaVuSans-2e"/>
       <use x="95.410156" xlink:href="#DejaVuSans-30"/>
      </g>
     </g>
    </g>
    <g id="text_7">
     <!-- Thresholds -->
     <g transform="translate(267.957031 280.276563)scale(0.1 -0.1)">
      <defs>
       <path d="M -19 4666 
L 3928 4666 
L 3928 4134 
L 2272 4134 
L 2272 0 
L 1638 0 
L 1638 4134 
L -19 4134 
L -19 4666 
z
" id="DejaVuSans-54" transform="scale(0.015625)"/>
       <path d="M 3513 2113 
L 3513 0 
L 2938 0 
L 2938 2094 
Q 2938 2591 2744 2837 
Q 2550 3084 2163 3084 
Q 1697 3084 1428 2787 
Q 1159 2491 1159 1978 
L 1159 0 
L 581 0 
L 581 4863 
L 1159 4863 
L 1159 2956 
Q 1366 3272 1645 3428 
Q 1925 3584 2291 3584 
Q 2894 3584 3203 3211 
Q 3513 2838 3513 2113 
z
" id="DejaVuSans-68" transform="scale(0.015625)"/>
       <path d="M 2631 2963 
Q 2534 3019 2420 3045 
Q 2306 3072 2169 3072 
Q 1681 3072 1420 2755 
Q 1159 2438 1159 1844 
L 1159 0 
L 581 0 
L 581 3500 
L 1159 3500 
L 1159 2956 
Q 1341 3275 1631 3429 
Q 1922 3584 2338 3584 
Q 2397 3584 2469 3576 
Q 2541 3569 2628 3553 
L 2631 2963 
z
" id="DejaVuSans-72" transform="scale(0.015625)"/>
       <path d="M 3597 1894 
L 3597 1613 
L 953 1613 
Q 991 1019 1311 708 
Q 1631 397 2203 397 
Q 2534 397 2845 478 
Q 3156 559 3463 722 
L 3463 178 
Q 3153 47 2828 -22 
Q 2503 -91 2169 -91 
Q 1331 -91 842 396 
Q 353 884 353 1716 
Q 353 2575 817 3079 
Q 1281 3584 2069 3584 
Q 2775 3584 3186 3129 
Q 3597 2675 3597 1894 
z
M 3022 2063 
Q 3016 2534 2758 2815 
Q 2500 3097 2075 3097 
Q 1594 3097 1305 2825 
Q 1016 2553 972 2059 
L 3022 2063 
z
" id="DejaVuSans-65" transform="scale(0.015625)"/>
       <path d="M 2834 3397 
L 2834 2853 
Q 2591 2978 2328 3040 
Q 2066 3103 1784 3103 
Q 1356 3103 1142 2972 
Q 928 2841 928 2578 
Q 928 2378 1081 2264 
Q 1234 2150 1697 2047 
L 1894 2003 
Q 2506 1872 2764 1633 
Q 3022 1394 3022 966 
Q 3022 478 2636 193 
Q 2250 -91 1575 -91 
Q 1294 -91 989 -36 
Q 684 19 347 128 
L 347 722 
Q 666 556 975 473 
Q 1284 391 1588 391 
Q 1994 391 2212 530 
Q 2431 669 2431 922 
Q 2431 1156 2273 1281 
Q 2116 1406 1581 1522 
L 1381 1569 
Q 847 1681 609 1914 
Q 372 2147 372 2553 
Q 372 3047 722 3315 
Q 1072 3584 1716 3584 
Q 2034 3584 2315 3537 
Q 2597 3491 2834 3397 
z
" id="DejaVuSans-73" transform="scale(0.015625)"/>
       <path d="M 1959 3097 
Q 1497 3097 1228 2736 
Q 959 2375 959 1747 
Q 959 1119 1226 758 
Q 1494 397 1959 397 
Q 2419 397 2687 759 
Q 2956 1122 2956 1747 
Q 2956 2369 2687 2733 
Q 2419 3097 1959 3097 
z
M 1959 3584 
Q 2709 3584 3137 3096 
Q 3566 2609 3566 1747 
Q 3566 888 3137 398 
Q 2709 -91 1959 -91 
Q 1206 -91 779 398 
Q 353 888 353 1747 
Q 353 2609 779 3096 
Q 1206 3584 1959 3584 
z
" id="DejaVuSans-6f" transform="scale(0.015625)"/>
       <path d="M 603 4863 
L 1178 4863 
L 1178 0 
L 603 0 
L 603 4863 
z
" id="DejaVuSans-6c" transform="scale(0.015625)"/>
       <path d="M 2906 2969 
L 2906 4863 
L 3481 4863 
L 3481 0 
L 2906 0 
L 2906 525 
Q 2725 213 2448 61 
Q 2172 -91 1784 -91 
Q 1150 -91 751 415 
Q 353 922 353 1747 
Q 353 2572 751 3078 
Q 1150 3584 1784 3584 
Q 2172 3584 2448 3432 
Q 2725 3281 2906 2969 
z
M 947 1747 
Q 947 1113 1208 752 
Q 1469 391 1925 391 
Q 2381 391 2643 752 
Q 2906 1113 2906 1747 
Q 2906 2381 2643 2742 
Q 2381 3103 1925 3103 
Q 1469 3103 1208 2742 
Q 947 2381 947 1747 
z
" id="DejaVuSans-64" transform="scale(0.015625)"/>
      </defs>
      <use xlink:href="#DejaVuSans-54"/>
      <use x="61.083984" xlink:href="#DejaVuSans-68"/>
      <use x="124.462891" xlink:href="#DejaVuSans-72"/>
      <use x="163.326172" xlink:href="#DejaVuSans-65"/>
      <use x="224.849609" xlink:href="#DejaVuSans-73"/>
      <use x="276.949219" xlink:href="#DejaVuSans-68"/>
      <use x="340.328125" xlink:href="#DejaVuSans-6f"/>
      <use x="401.509766" xlink:href="#DejaVuSans-6c"/>
      <use x="429.292969" xlink:href="#DejaVuSans-64"/>
      <use x="492.769531" xlink:href="#DejaVuSans-73"/>
     </g>
    </g>
   </g>
   <g id="matplotlib.axis_2">
    <g id="ytick_1">
     <g id="line2d_7">
      <defs>
       <path d="M 0 0 
L -3.5 0 
" id="m0e9f174429" style="stroke:#000000;stroke-width:0.8;"/>
      </defs>
      <g>
       <use style="stroke:#000000;stroke-width:0.8;" x="72" xlink:href="#m0e9f174429" y="242.116364"/>
      </g>
     </g>
     <g id="text_8">
      <!-- 0.00 -->
      <g transform="translate(42.734375 245.915582)scale(0.1 -0.1)">
       <use xlink:href="#DejaVuSans-30"/>
       <use x="63.623047" xlink:href="#DejaVuSans-2e"/>
       <use x="95.410156" xlink:href="#DejaVuSans-30"/>
       <use x="159.033203" xlink:href="#DejaVuSans-30"/>
      </g>
     </g>
    </g>
    <g id="ytick_2">
     <g id="line2d_8">
      <g>
       <use style="stroke:#000000;stroke-width:0.8;" x="72" xlink:href="#m0e9f174429" y="200.605091"/>
      </g>
     </g>
     <g id="text_9">
      <!-- 0.02 -->
      <g transform="translate(42.734375 204.40431)scale(0.1 -0.1)">
       <use xlink:href="#DejaVuSans-30"/>
       <use x="63.623047" xlink:href="#DejaVuSans-2e"/>
       <use x="95.410156" xlink:href="#DejaVuSans-30"/>
       <use x="159.033203" xlink:href="#DejaVuSans-32"/>
      </g>
     </g>
    </g>
    <g id="ytick_3">
     <g id="line2d_9">
      <g>
       <use style="stroke:#000000;stroke-width:0.8;" x="72" xlink:href="#m0e9f174429" y="159.093818"/>
      </g>
     </g>
     <g id="text_10">
      <!-- 0.04 -->
      <g transform="translate(42.734375 162.893037)scale(0.1 -0.1)">
       <use xlink:href="#DejaVuSans-30"/>
       <use x="63.623047" xlink:href="#DejaVuSans-2e"/>
       <use x="95.410156" xlink:href="#DejaVuSans-30"/>
       <use x="159.033203" xlink:href="#DejaVuSans-34"/>
      </g>
     </g>
    </g>
    <g id="ytick_4">
     <g id="line2d_10">
      <g>
       <use style="stroke:#000000;stroke-width:0.8;" x="72" xlink:href="#m0e9f174429" y="117.582545"/>
      </g>
     </g>
     <g id="text_11">
      <!-- 0.06 -->
      <g transform="translate(42.734375 121.381764)scale(0.1 -0.1)">
       <use xlink:href="#DejaVuSans-30"/>
       <use x="63.623047" xlink:href="#DejaVuSans-2e"/>
       <use x="95.410156" xlink:href="#DejaVuSans-30"/>
       <use x="159.033203" xlink:href="#DejaVuSans-36"/>
      </g>
     </g>
    </g>
    <g id="ytick_5">
     <g id="line2d_11">
      <g>
       <use style="stroke:#000000;stroke-width:0.8;" x="72" xlink:href="#m0e9f174429" y="76.071273"/>
      </g>
     </g>
     <g id="text_12">
      <!-- 0.08 -->
      <g transform="translate(42.734375 79.870491)scale(0.1 -0.1)">
       <use xlink:href="#DejaVuSans-30"/>
       <use x="63.623047" xlink:href="#DejaVuSans-2e"/>
       <use x="95.410156" xlink:href="#DejaVuSans-30"/>
       <use x="159.033203" xlink:href="#DejaVuSans-38"/>
      </g>
     </g>
    </g>
    <g id="ytick_6">
     <g id="line2d_12">
      <g>
       <use style="stroke:#000000;stroke-width:0.8;" x="72" xlink:href="#m0e9f174429" y="34.56"/>
      </g>
     </g>
     <g id="text_13">
      <!-- 0.10 -->
      <g transform="translate(42.734375 38.359219)scale(0.1 -0.1)">
       <use xlink:href="#DejaVuSans-30"/>
       <use x="63.623047" xlink:href="#DejaVuSans-2e"/>
       <use x="95.410156" xlink:href="#DejaVuSans-31"/>
       <use x="159.033203" xlink:href="#DejaVuSans-30"/>
      </g>
     </g>
    </g>
    <g id="text_14">
     <!-- F1 score -->
     <g transform="translate(36.654687 164.358906)rotate(-90)scale(0.1 -0.1)">
      <defs>
       <path d="M 628 4666 
L 3309 4666 
L 3309 4134 
L 1259 4134 
L 1259 2759 
L 3109 2759 
L 3109 2228 
L 1259 2228 
L 1259 0 
L 628 0 
L 628 4666 
z
" id="DejaVuSans-46" transform="scale(0.015625)"/>
       <path id="DejaVuSans-20" transform="scale(0.015625)"/>
       <path d="M 3122 3366 
L 3122 2828 
Q 2878 2963 2633 3030 
Q 2388 3097 2138 3097 
Q 1578 3097 1268 2742 
Q 959 2388 959 1747 
Q 959 1106 1268 751 
Q 1578 397 2138 397 
Q 2388 397 2633 464 
Q 2878 531 3122 666 
L 3122 134 
Q 2881 22 2623 -34 
Q 2366 -91 2075 -91 
Q 1284 -91 818 406 
Q 353 903 353 1747 
Q 353 2603 823 3093 
Q 1294 3584 2113 3584 
Q 2378 3584 2631 3529 
Q 2884 3475 3122 3366 
z
" id="DejaVuSans-63" transform="scale(0.015625)"/>
      </defs>
      <use xlink:href="#DejaVuSans-46"/>
      <use x="57.519531" xlink:href="#DejaVuSans-31"/>
      <use x="121.142578" xlink:href="#DejaVuSans-20"/>
      <use x="152.929688" xlink:href="#DejaVuSans-73"/>
      <use x="205.029297" xlink:href="#DejaVuSans-63"/>
      <use x="260.009766" xlink:href="#DejaVuSans-6f"/>
      <use x="321.191406" xlink:href="#DejaVuSans-72"/>
      <use x="360.054688" xlink:href="#DejaVuSans-65"/>
     </g>
    </g>
   </g>
   <g id="line2d_13">
    <path clip-path="url(#pe99f16a48f)" d="M 92.290909 202.504432 
L 97.170486 202.41701 
L 105.709747 201.295899 
L 106.116378 201.285604 
L 106.52301 201.120171 
L 106.929641 201.099398 
L 107.336273 200.963856 
L 107.742904 200.953393 
L 108.149535 200.827416 
L 108.556167 200.827416 
L 109.36943 200.594444 
L 111.402587 200.315702 
L 112.21585 199.912515 
L 113.029113 199.735745 
L 114.249007 199.355148 
L 115.06227 199.230545 
L 115.875533 199.002126 
L 116.688796 198.701517 
L 117.502059 198.396687 
L 118.721953 198.278301 
L 122.788267 197.245531 
L 123.60153 197.058205 
L 124.008162 197.058205 
L 124.821425 199.129599 
L 126.041319 198.875455 
L 126.854582 198.679794 
L 128.481108 198.32061 
L 129.701002 198.094664 
L 130.514265 197.674318 
L 130.920896 197.674318 
L 131.327528 197.532413 
L 131.734159 198.6111 
L 133.360685 198.547681 
L 135.393842 198.189091 
L 136.207105 197.732466 
L 137.833631 197.560436 
L 138.240262 197.293154 
L 139.866788 197.239312 
L 143.11984 196.638402 
L 143.933103 196.387911 
L 144.339734 196.387911 
L 145.152997 196.14879 
L 146.372891 196.0496 
L 147.592786 195.806918 
L 147.999417 195.619605 
L 150.032574 195.343099 
L 150.845837 195.033635 
L 151.252469 195.033635 
L 152.065731 194.720048 
L 152.878994 194.614589 
L 153.692257 194.432706 
L 154.50552 194.172642 
L 154.912152 195.384471 
L 159.791729 194.44922 
L 160.604992 194.197678 
L 161.418255 194.007273 
L 162.231518 193.638067 
L 163.858043 193.312382 
L 164.264675 193.114861 
L 165.077938 192.899069 
L 165.484569 192.563344 
L 165.891201 192.512589 
L 166.704463 192.05108 
L 168.737621 191.616032 
L 169.144252 191.404512 
L 169.550884 191.404512 
L 170.364146 191.262512 
L 171.990672 190.867879 
L 172.803935 190.356672 
L 173.210567 190.208734 
L 174.430461 190.115843 
L 175.243724 190.022619 
L 175.650355 189.85397 
L 176.056987 189.835164 
L 176.87025 189.437084 
L 177.276881 189.37972 
L 177.683512 189.129692 
L 181.749827 188.285517 
L 184.189616 187.186513 
L 184.596247 187.165738 
L 185.002878 186.577581 
L 185.816141 186.385848 
L 186.222773 186.385848 
L 186.629404 186.128135 
L 187.036036 186.106551 
L 187.442667 185.93328 
L 188.662561 185.82444 
L 189.069193 185.473301 
L 191.10235 185.184759 
L 191.508982 184.960795 
L 191.915613 186.484386 
L 192.728876 186.219996 
L 193.94877 185.997744 
L 194.355402 185.997744 
L 195.575296 185.706161 
L 195.981927 185.434304 
L 196.388559 185.320256 
L 196.79519 184.929035 
L 198.015085 184.320161 
L 198.828348 184.320161 
L 199.234979 184.177806 
L 199.64161 183.890981 
L 200.454873 183.746501 
L 201.268136 183.649782 
L 202.488031 183.06267 
L 203.301293 182.864337 
L 203.707925 182.564327 
L 204.114556 184.021707 
L 205.334451 183.699647 
L 205.741082 183.29833 
L 206.147714 183.29833 
L 206.960976 183.095597 
L 207.774239 183.070157 
L 208.587502 182.348824 
L 209.400765 182.322736 
L 209.807397 182.007895 
L 210.214028 181.981509 
L 211.027291 181.636364 
L 211.840554 181.529367 
L 213.060448 181.475726 
L 213.46708 183.209014 
L 214.686974 182.814545 
L 215.093605 182.735017 
L 215.500237 182.307236 
L 215.906868 182.307236 
L 216.3135 182.06389 
L 217.126763 181.92784 
L 218.753288 181.900556 
L 219.566551 181.460623 
L 220.379814 181.293986 
L 221.193077 181.154421 
L 222.00634 181.042307 
L 222.412971 181.042307 
L 222.819603 180.92978 
L 223.226234 182.512406 
L 224.039497 182.401772 
L 226.072654 181.81414 
L 226.479286 181.81414 
L 228.512443 181.358599 
L 228.919075 181.358599 
L 229.732337 180.837818 
L 230.952232 180.837818 
L 234.611915 179.708534 
L 235.018546 181.100284 
L 235.425178 180.587797 
L 237.458335 180.374262 
L 238.271598 180.09753 
L 238.678229 180.066629 
L 239.491492 179.410514 
L 239.898124 179.252245 
L 240.304755 179.252245 
L 240.711386 179.125054 
L 241.524649 178.611102 
L 241.931281 178.578701 
L 243.557807 177.923674 
L 243.964438 177.923674 
L 244.371069 177.691212 
L 244.777701 177.657866 
L 247.21749 176.709947 
L 247.624121 176.709947 
L 248.030752 176.537734 
L 248.844015 176.537734 
L 250.470541 175.910187 
L 250.877173 175.591888 
L 251.283804 175.126682 
L 251.690435 177.220034 
L 252.097067 176.938946 
L 252.503698 176.903638 
L 252.91033 176.476947 
L 253.316961 176.476947 
L 253.723593 176.333472 
L 254.130224 176.333472 
L 255.350118 175.643315 
L 255.75675 175.643315 
L 256.570013 175.348371 
L 256.976644 175.348371 
L 257.383276 175.013414 
L 257.789907 174.901014 
L 258.60317 174.295129 
L 259.009801 174.256899 
L 259.823064 173.910873 
L 260.229696 175.962941 
L 261.856222 175.774147 
L 263.076116 175.278202 
L 263.889379 175.162698 
L 264.29601 174.735747 
L 264.702642 174.579139 
L 265.109273 174.224095 
L 265.515905 174.025231 
L 265.922536 174.025231 
L 266.329167 176.264168 
L 267.955693 175.560285 
L 268.362325 174.921857 
L 268.768956 174.921857 
L 270.802113 173.857876 
L 271.615376 173.816281 
L 272.022008 173.439626 
L 272.835271 173.058793 
L 273.241902 173.058793 
L 273.648533 172.845389 
L 274.868428 171.846498 
L 275.275059 171.846498 
L 276.494954 171.224247 
L 276.901585 170.818376 
L 277.308216 170.590878 
L 277.714848 172.97523 
L 278.528111 172.708448 
L 279.341374 172.708448 
L 279.748005 172.168658 
L 280.561268 172.168658 
L 281.374531 171.666423 
L 281.781162 170.450156 
L 282.187794 170.019297 
L 283.001057 169.583226 
L 283.407688 169.240395 
L 283.81432 168.394158 
L 284.220951 168.192179 
L 285.034214 167.321278 
L 285.440845 167.061211 
L 286.66074 167.061211 
L 287.474003 166.588506 
L 287.880634 166.588506 
L 288.287265 165.948891 
L 288.693897 165.625004 
L 289.100528 164.58094 
L 289.50716 164.58094 
L 290.727054 163.963352 
L 291.133686 163.507981 
L 291.540317 163.22067 
L 291.946948 162.581132 
L 292.35358 162.168727 
L 292.760211 162.168727 
L 293.573474 159.853171 
L 294.386737 159.853171 
L 294.793369 159.601601 
L 295.2 159.029906 
L 295.606631 159.029906 
L 296.013263 158.189996 
L 296.419894 158.059269 
L 296.826526 157.664635 
L 297.233157 157.465925 
L 298.04642 156.729252 
L 298.453052 156.458182 
L 299.266314 155.216759 
L 299.672946 154.935985 
L 300.486209 154.935985 
L 301.706103 154.154417 
L 302.112735 154.010805 
L 303.332629 153.139192 
L 304.145892 153.139192 
L 304.959155 152.548472 
L 305.365786 152.548472 
L 305.772418 152.175273 
L 306.179049 152.025121 
L 306.58568 151.571641 
L 307.398943 151.495617 
L 307.805575 150.805611 
L 308.212206 150.417715 
L 308.618838 150.417715 
L 309.838732 149.552634 
L 310.245363 148.913161 
L 310.651995 148.590099 
L 311.465258 147.772562 
L 312.278521 147.607336 
L 312.685152 147.191729 
L 313.498415 147.024461 
L 314.311678 145.664792 
L 314.718309 145.664792 
L 315.531572 144.882752 
L 316.344835 144.882752 
L 316.751467 144.442781 
L 317.158098 144.442781 
L 317.971361 143.550785 
L 318.377992 143.550785 
L 319.597887 142.458645 
L 320.41115 142.274265 
L 321.224412 141.810314 
L 321.631044 141.810314 
L 322.037675 141.436038 
L 322.444307 141.436038 
L 322.850938 141.058958 
L 323.25757 140.869357 
L 324.070833 140.774289 
L 324.477464 139.130382 
L 324.884095 138.636681 
L 325.697358 138.636681 
L 326.510621 137.937494 
L 327.730516 137.735987 
L 328.543778 137.634941 
L 328.95041 136.819477 
L 329.763673 136.613618 
L 330.170304 135.782069 
L 330.576936 135.782069 
L 330.983567 134.937308 
L 331.390199 134.937308 
L 331.79683 133.970763 
L 332.203461 133.970763 
L 332.610093 133.53557 
L 333.423356 133.316657 
L 333.829987 132.765493 
L 334.64325 132.65459 
L 336.269776 130.734208 
L 336.676407 134.238836 
L 337.48967 133.220055 
L 338.302933 133.220055 
L 338.709565 133.105668 
L 339.116196 132.645708 
L 339.522827 131.714043 
L 339.929459 131.714043 
L 340.33609 131.478643 
L 340.742722 131.478643 
L 341.149353 131.00482 
L 341.555985 131.00482 
L 341.962616 134.990499 
L 342.369248 134.990499 
L 342.775879 134.527752 
L 343.589142 134.527752 
L 343.995773 133.353204 
L 344.402405 133.234337 
L 344.809036 133.234337 
L 345.215668 132.273966 
L 345.622299 132.152727 
L 346.435562 130.175853 
L 347.248825 130.175853 
L 347.655456 129.670478 
L 348.062088 133.867013 
L 348.468719 132.75104 
L 349.688614 131.097844 
L 350.908508 131.097844 
L 351.315139 129.923735 
L 352.128402 128.454545 
L 353.754928 128.454545 
L 354.161559 127.361643 
L 356.194717 124.679799 
L 356.601348 124.535172 
L 357.00798 124.535172 
L 357.414611 123.953087 
L 357.821242 123.069073 
L 358.227874 123.069073 
L 358.634505 122.020858 
L 359.041137 122.020858 
L 359.447768 126.515351 
L 359.8544 126.368835 
L 360.261031 124.429766 
L 360.667663 124.429766 
L 361.074294 123.203864 
L 361.480925 123.203864 
L 362.294188 121.793834 
L 362.70082 120.349964 
L 363.107451 120.187392 
L 363.514083 120.187392 
L 363.920714 119.860942 
L 364.327346 119.697061 
L 364.733977 119.697061 
L 365.140608 119.037118 
L 365.54724 118.87102 
L 365.953871 117.864935 
L 366.767134 117.864935 
L 367.173766 117.695655 
L 367.580397 117.355708 
L 367.987029 116.497657 
L 368.39366 115.977137 
L 368.800291 115.977137 
L 369.613554 114.389371 
L 370.020186 113.489885 
L 370.833449 113.489885 
L 371.646712 110.334545 
L 372.053343 110.334545 
L 372.459974 115.594342 
L 372.866606 114.669474 
L 373.273237 114.482875 
L 373.679869 114.482875 
L 374.0865 113.541625 
L 374.493132 113.161226 
L 375.306395 111.81192 
L 375.713026 117.08241 
L 376.119657 117.08241 
L 376.526289 115.557605 
L 377.746183 113.199368 
L 378.152815 112.998875 
L 378.559446 111.165976 
L 378.966078 110.959104 
L 379.77934 109.067413 
L 380.185972 109.067413 
L 380.592603 108.209032 
L 380.999235 108.209032 
L 381.812498 106.236584 
L 382.219129 112.179925 
L 382.625761 111.965509 
L 383.032392 116.536043 
L 383.439024 114.824556 
L 383.845655 114.607335 
L 385.472181 114.607335 
L 385.878812 113.730984 
L 386.692075 113.288276 
L 387.098707 111.486484 
L 387.505338 110.79775 
L 388.318601 122.873929 
L 389.131864 121.136334 
L 389.945127 121.136334 
L 391.165021 118.432869 
L 391.571652 124.186612 
L 391.978284 124.186612 
L 392.384915 129.488879 
L 392.791547 127.715218 
L 394.011441 124.947449 
L 394.418073 124.947449 
L 394.824704 123.994856 
L 395.231335 123.512727 
L 395.637967 122.290009 
L 396.044598 122.042434 
L 396.45123 122.042434 
L 396.857861 120.280343 
L 397.264493 120.280343 
L 398.077756 118.202117 
L 398.891018 113.541625 
L 399.704281 113.541625 
L 400.110913 109.734173 
L 400.517544 108.209032 
L 400.924176 107.276963 
L 401.330807 106.01383 
L 401.737439 103.415214 
L 402.550701 101.400185 
L 403.363964 101.400185 
L 403.770596 101.058641 
L 404.177227 98.265419 
L 404.583859 97.908468 
L 404.99049 91.946385 
L 405.397122 87.963096 
L 406.210384 87.963096 
L 407.023647 82.895044 
L 407.430279 80.683636 
L 408.243542 90.707466 
L 408.650173 90.245854 
L 409.463436 90.245854 
L 410.276699 86.449091 
L 410.68333 85.470051 
L 411.089962 85.470051 
L 411.496593 83.474557 
L 411.903225 90.916364 
L 413.52975 82.457622 
L 413.936382 80.192959 
L 414.343013 80.192959 
L 414.749645 77.270154 
L 415.562908 76.071273 
L 415.969539 73.620423 
L 416.782802 73.620423 
L 417.596065 67.832394 
L 419.222591 67.832394 
L 419.629222 65.130317 
L 420.035854 64.441655 
L 420.442485 64.441655 
L 420.849116 60.916364 
L 421.255748 54.205253 
L 421.662379 54.205253 
L 422.069011 50.25754 
L 422.475642 50.25754 
L 422.882274 60.84443 
L 423.288905 50.820176 
L 423.695537 50.820176 
L 424.102168 66.71662 
L 426.541957 66.71662 
L 426.948588 63.359687 
L 427.35522 63.359687 
L 427.761851 59.871752 
L 428.168482 72.682597 
L 428.575114 90.773182 
L 428.981745 90.773182 
L 429.388377 84.193043 
L 429.795008 80.683636 
L 430.20164 80.683636 
L 430.608271 77.014711 
L 432.641428 77.014711 
L 433.04806 97.309598 
L 433.454691 93.861818 
L 433.861323 93.861818 
L 434.267954 90.245854 
L 434.674586 90.245854 
L 435.081217 86.449091 
L 437.521006 86.449091 
L 437.927637 105.566124 
L 439.147531 105.566124 
L 439.554163 101.875577 
L 440.367426 101.875577 
L 441.58732 89.50139 
L 441.993952 89.50139 
L 442.400583 79.962955 
L 443.620477 79.962955 
L 444.027109 74.732199 
L 444.43374 74.732199 
L 444.840372 69.152727 
L 445.247003 67.699251 
L 446.873529 67.699251 
L 447.28016 56.798182 
L 447.686792 82.457622 
L 450.533212 82.457622 
L 451.346475 69.152727 
L 452.973001 69.152727 
L 453.379632 53.42876 
L 454.599526 53.42876 
L 455.006158 44.443636 
L 455.412789 44.443636 
L 455.819421 189.570449 
L 457.852578 189.570449 
L 458.259209 242.116364 
L 498.109091 242.116364 
L 498.109091 242.116364 
" style="fill:none;stroke:#1f77b4;stroke-linecap:square;stroke-width:1.5;"/>
   </g>
   <g id="patch_3">
    <path d="M 72 252 
L 72 34.56 
" style="fill:none;stroke:#000000;stroke-linecap:square;stroke-linejoin:miter;stroke-width:0.8;"/>
   </g>
   <g id="patch_4">
    <path d="M 518.4 252 
L 518.4 34.56 
" style="fill:none;stroke:#000000;stroke-linecap:square;stroke-linejoin:miter;stroke-width:0.8;"/>
   </g>
   <g id="patch_5">
    <path d="M 72 252 
L 518.4 252 
" style="fill:none;stroke:#000000;stroke-linecap:square;stroke-linejoin:miter;stroke-width:0.8;"/>
   </g>
   <g id="patch_6">
    <path d="M 72 34.56 
L 518.4 34.56 
" style="fill:none;stroke:#000000;stroke-linecap:square;stroke-linejoin:miter;stroke-width:0.8;"/>
   </g>
   <g id="text_15">
    <!-- MILPA ALTA -->
    <g transform="translate(272.89125 28.56)scale(0.08 -0.08)">
     <defs>
      <path d="M 628 4666 
L 1569 4666 
L 2759 1491 
L 3956 4666 
L 4897 4666 
L 4897 0 
L 4281 0 
L 4281 4097 
L 3078 897 
L 2444 897 
L 1241 4097 
L 1241 0 
L 628 0 
L 628 4666 
z
" id="DejaVuSans-4d" transform="scale(0.015625)"/>
      <path d="M 628 4666 
L 1259 4666 
L 1259 0 
L 628 0 
L 628 4666 
z
" id="DejaVuSans-49" transform="scale(0.015625)"/>
      <path d="M 628 4666 
L 1259 4666 
L 1259 531 
L 3531 531 
L 3531 0 
L 628 0 
L 628 4666 
z
" id="DejaVuSans-4c" transform="scale(0.015625)"/>
      <path d="M 1259 4147 
L 1259 2394 
L 2053 2394 
Q 2494 2394 2734 2622 
Q 2975 2850 2975 3272 
Q 2975 3691 2734 3919 
Q 2494 4147 2053 4147 
L 1259 4147 
z
M 628 4666 
L 2053 4666 
Q 2838 4666 3239 4311 
Q 3641 3956 3641 3272 
Q 3641 2581 3239 2228 
Q 2838 1875 2053 1875 
L 1259 1875 
L 1259 0 
L 628 0 
L 628 4666 
z
" id="DejaVuSans-50" transform="scale(0.015625)"/>
      <path d="M 2188 4044 
L 1331 1722 
L 3047 1722 
L 2188 4044 
z
M 1831 4666 
L 2547 4666 
L 4325 0 
L 3669 0 
L 3244 1197 
L 1141 1197 
L 716 0 
L 50 0 
L 1831 4666 
z
" id="DejaVuSans-41" transform="scale(0.015625)"/>
     </defs>
     <use xlink:href="#DejaVuSans-4d"/>
     <use x="86.279297" xlink:href="#DejaVuSans-49"/>
     <use x="115.771484" xlink:href="#DejaVuSans-4c"/>
     <use x="171.484375" xlink:href="#DejaVuSans-50"/>
     <use x="225.412109" xlink:href="#DejaVuSans-41"/>
     <use x="293.820312" xlink:href="#DejaVuSans-20"/>
     <use x="325.607422" xlink:href="#DejaVuSans-41"/>
     <use x="394.015625" xlink:href="#DejaVuSans-4c"/>
     <use x="435.978516" xlink:href="#DejaVuSans-54"/>
     <use x="489.3125" xlink:href="#DejaVuSans-41"/>
    </g>
   </g>
  </g>
  <g id="text_16">
   <!-- F1 score curve -->
   <g transform="translate(229.31625 17.9175)scale(0.16 -0.16)">
    <defs>
     <path d="M 544 1381 
L 544 3500 
L 1119 3500 
L 1119 1403 
Q 1119 906 1312 657 
Q 1506 409 1894 409 
Q 2359 409 2629 706 
Q 2900 1003 2900 1516 
L 2900 3500 
L 3475 3500 
L 3475 0 
L 2900 0 
L 2900 538 
Q 2691 219 2414 64 
Q 2138 -91 1772 -91 
Q 1169 -91 856 284 
Q 544 659 544 1381 
z
M 1991 3584 
L 1991 3584 
z
" id="DejaVuSans-75" transform="scale(0.015625)"/>
     <path d="M 191 3500 
L 800 3500 
L 1894 563 
L 2988 3500 
L 3597 3500 
L 2284 0 
L 1503 0 
L 191 3500 
z
" id="DejaVuSans-76" transform="scale(0.015625)"/>
    </defs>
    <use xlink:href="#DejaVuSans-46"/>
    <use x="57.519531" xlink:href="#DejaVuSans-31"/>
    <use x="121.142578" xlink:href="#DejaVuSans-20"/>
    <use x="152.929688" xlink:href="#DejaVuSans-73"/>
    <use x="205.029297" xlink:href="#DejaVuSans-63"/>
    <use x="260.009766" xlink:href="#DejaVuSans-6f"/>
    <use x="321.191406" xlink:href="#DejaVuSans-72"/>
    <use x="360.054688" xlink:href="#DejaVuSans-65"/>
    <use x="421.578125" xlink:href="#DejaVuSans-20"/>
    <use x="453.365234" xlink:href="#DejaVuSans-63"/>
    <use x="508.345703" xlink:href="#DejaVuSans-75"/>
    <use x="571.724609" xlink:href="#DejaVuSans-72"/>
    <use x="612.837891" xlink:href="#DejaVuSans-76"/>
    <use x="672.017578" xlink:href="#DejaVuSans-65"/>
   </g>
  </g>
 </g>
 <defs>
  <clipPath id="pe99f16a48f">
   <rect height="217.44" width="446.4" x="72" y="34.56"/>
  </clipPath>
 </defs>
</svg>
