<?xml version="1.0" encoding="utf-8" standalone="no"?>
<!DOCTYPE svg PUBLIC "-//W3C//DTD SVG 1.1//EN"
  "http://www.w3.org/Graphics/SVG/1.1/DTD/svg11.dtd">
<svg height="288pt" version="1.1" viewBox="0 0 576 288" width="576pt" xmlns="http://www.w3.org/2000/svg" xmlns:xlink="http://www.w3.org/1999/xlink">
 <metadata>
  <rdf:RDF xmlns:cc="http://creativecommons.org/ns#" xmlns:dc="http://purl.org/dc/elements/1.1/" xmlns:rdf="http://www.w3.org/1999/02/22-rdf-syntax-ns#">
   <cc:Work>
    <dc:type rdf:resource="http://purl.org/dc/dcmitype/StillImage"/>
    <dc:date>2022-01-04T18:21:31.612087</dc:date>
    <dc:format>image/svg+xml</dc:format>
    <dc:creator>
     <cc:Agent>
      <dc:title>Matplotlib v3.4.3, https://matplotlib.org/</dc:title>
     </cc:Agent>
    </dc:creator>
   </cc:Work>
  </rdf:RDF>
 </metadata>
 <defs>
  <style type="text/css">*{stroke-linecap:butt;stroke-linejoin:round;}</style>
 </defs>
 <g id="figure_1">
  <g id="patch_1">
   <path d="M 0 288 
L 576 288 
L 576 0 
L 0 0 
z
" style="fill:none;"/>
  </g>
  <g id="axes_1">
   <g id="patch_2">
    <path d="M 72 252 
L 518.4 252 
L 518.4 34.56 
L 72 34.56 
z
" style="fill:#ffffff;"/>
   </g>
   <g id="matplotlib.axis_1">
    <g id="xtick_1">
     <g id="line2d_1">
      <defs>
       <path d="M 0 0 
L 0 3.5 
" id="m2b2054278f" style="stroke:#000000;stroke-width:0.8;"/>
      </defs>
      <g>
       <use style="stroke:#000000;stroke-width:0.8;" x="91.884278" xlink:href="#m2b2054278f" y="252"/>
      </g>
     </g>
     <g id="text_1">
      <!-- 0.0 -->
      <g transform="translate(83.932715 266.598437)scale(0.1 -0.1)">
       <defs>
        <path d="M 2034 4250 
Q 1547 4250 1301 3770 
Q 1056 3291 1056 2328 
Q 1056 1369 1301 889 
Q 1547 409 2034 409 
Q 2525 409 2770 889 
Q 3016 1369 3016 2328 
Q 3016 3291 2770 3770 
Q 2525 4250 2034 4250 
z
M 2034 4750 
Q 2819 4750 3233 4129 
Q 3647 3509 3647 2328 
Q 3647 1150 3233 529 
Q 2819 -91 2034 -91 
Q 1250 -91 836 529 
Q 422 1150 422 2328 
Q 422 3509 836 4129 
Q 1250 4750 2034 4750 
z
" id="DejaVuSans-30" transform="scale(0.015625)"/>
        <path d="M 684 794 
L 1344 794 
L 1344 0 
L 684 0 
L 684 794 
z
" id="DejaVuSans-2e" transform="scale(0.015625)"/>
       </defs>
       <use xlink:href="#DejaVuSans-30"/>
       <use x="63.623047" xlink:href="#DejaVuSans-2e"/>
       <use x="95.410156" xlink:href="#DejaVuSans-30"/>
      </g>
     </g>
    </g>
    <g id="xtick_2">
     <g id="line2d_2">
      <g>
       <use style="stroke:#000000;stroke-width:0.8;" x="173.210567" xlink:href="#m2b2054278f" y="252"/>
      </g>
     </g>
     <g id="text_2">
      <!-- 0.2 -->
      <g transform="translate(165.259004 266.598437)scale(0.1 -0.1)">
       <defs>
        <path d="M 1228 531 
L 3431 531 
L 3431 0 
L 469 0 
L 469 531 
Q 828 903 1448 1529 
Q 2069 2156 2228 2338 
Q 2531 2678 2651 2914 
Q 2772 3150 2772 3378 
Q 2772 3750 2511 3984 
Q 2250 4219 1831 4219 
Q 1534 4219 1204 4116 
Q 875 4013 500 3803 
L 500 4441 
Q 881 4594 1212 4672 
Q 1544 4750 1819 4750 
Q 2544 4750 2975 4387 
Q 3406 4025 3406 3419 
Q 3406 3131 3298 2873 
Q 3191 2616 2906 2266 
Q 2828 2175 2409 1742 
Q 1991 1309 1228 531 
z
" id="DejaVuSans-32" transform="scale(0.015625)"/>
       </defs>
       <use xlink:href="#DejaVuSans-30"/>
       <use x="63.623047" xlink:href="#DejaVuSans-2e"/>
       <use x="95.410156" xlink:href="#DejaVuSans-32"/>
      </g>
     </g>
    </g>
    <g id="xtick_3">
     <g id="line2d_3">
      <g>
       <use style="stroke:#000000;stroke-width:0.8;" x="254.536856" xlink:href="#m2b2054278f" y="252"/>
      </g>
     </g>
     <g id="text_3">
      <!-- 0.4 -->
      <g transform="translate(246.585293 266.598437)scale(0.1 -0.1)">
       <defs>
        <path d="M 2419 4116 
L 825 1625 
L 2419 1625 
L 2419 4116 
z
M 2253 4666 
L 3047 4666 
L 3047 1625 
L 3713 1625 
L 3713 1100 
L 3047 1100 
L 3047 0 
L 2419 0 
L 2419 1100 
L 313 1100 
L 313 1709 
L 2253 4666 
z
" id="DejaVuSans-34" transform="scale(0.015625)"/>
       </defs>
       <use xlink:href="#DejaVuSans-30"/>
       <use x="63.623047" xlink:href="#DejaVuSans-2e"/>
       <use x="95.410156" xlink:href="#DejaVuSans-34"/>
      </g>
     </g>
    </g>
    <g id="xtick_4">
     <g id="line2d_4">
      <g>
       <use style="stroke:#000000;stroke-width:0.8;" x="335.863144" xlink:href="#m2b2054278f" y="252"/>
      </g>
     </g>
     <g id="text_4">
      <!-- 0.6 -->
      <g transform="translate(327.911582 266.598437)scale(0.1 -0.1)">
       <defs>
        <path d="M 2113 2584 
Q 1688 2584 1439 2293 
Q 1191 2003 1191 1497 
Q 1191 994 1439 701 
Q 1688 409 2113 409 
Q 2538 409 2786 701 
Q 3034 994 3034 1497 
Q 3034 2003 2786 2293 
Q 2538 2584 2113 2584 
z
M 3366 4563 
L 3366 3988 
Q 3128 4100 2886 4159 
Q 2644 4219 2406 4219 
Q 1781 4219 1451 3797 
Q 1122 3375 1075 2522 
Q 1259 2794 1537 2939 
Q 1816 3084 2150 3084 
Q 2853 3084 3261 2657 
Q 3669 2231 3669 1497 
Q 3669 778 3244 343 
Q 2819 -91 2113 -91 
Q 1303 -91 875 529 
Q 447 1150 447 2328 
Q 447 3434 972 4092 
Q 1497 4750 2381 4750 
Q 2619 4750 2861 4703 
Q 3103 4656 3366 4563 
z
" id="DejaVuSans-36" transform="scale(0.015625)"/>
       </defs>
       <use xlink:href="#DejaVuSans-30"/>
       <use x="63.623047" xlink:href="#DejaVuSans-2e"/>
       <use x="95.410156" xlink:href="#DejaVuSans-36"/>
      </g>
     </g>
    </g>
    <g id="xtick_5">
     <g id="line2d_5">
      <g>
       <use style="stroke:#000000;stroke-width:0.8;" x="417.189433" xlink:href="#m2b2054278f" y="252"/>
      </g>
     </g>
     <g id="text_5">
      <!-- 0.8 -->
      <g transform="translate(409.237871 266.598437)scale(0.1 -0.1)">
       <defs>
        <path d="M 2034 2216 
Q 1584 2216 1326 1975 
Q 1069 1734 1069 1313 
Q 1069 891 1326 650 
Q 1584 409 2034 409 
Q 2484 409 2743 651 
Q 3003 894 3003 1313 
Q 3003 1734 2745 1975 
Q 2488 2216 2034 2216 
z
M 1403 2484 
Q 997 2584 770 2862 
Q 544 3141 544 3541 
Q 544 4100 942 4425 
Q 1341 4750 2034 4750 
Q 2731 4750 3128 4425 
Q 3525 4100 3525 3541 
Q 3525 3141 3298 2862 
Q 3072 2584 2669 2484 
Q 3125 2378 3379 2068 
Q 3634 1759 3634 1313 
Q 3634 634 3220 271 
Q 2806 -91 2034 -91 
Q 1263 -91 848 271 
Q 434 634 434 1313 
Q 434 1759 690 2068 
Q 947 2378 1403 2484 
z
M 1172 3481 
Q 1172 3119 1398 2916 
Q 1625 2713 2034 2713 
Q 2441 2713 2670 2916 
Q 2900 3119 2900 3481 
Q 2900 3844 2670 4047 
Q 2441 4250 2034 4250 
Q 1625 4250 1398 4047 
Q 1172 3844 1172 3481 
z
" id="DejaVuSans-38" transform="scale(0.015625)"/>
       </defs>
       <use xlink:href="#DejaVuSans-30"/>
       <use x="63.623047" xlink:href="#DejaVuSans-2e"/>
       <use x="95.410156" xlink:href="#DejaVuSans-38"/>
      </g>
     </g>
    </g>
    <g id="xtick_6">
     <g id="line2d_6">
      <g>
       <use style="stroke:#000000;stroke-width:0.8;" x="498.515722" xlink:href="#m2b2054278f" y="252"/>
      </g>
     </g>
     <g id="text_6">
      <!-- 1.0 -->
      <g transform="translate(490.56416 266.598437)scale(0.1 -0.1)">
       <defs>
        <path d="M 794 531 
L 1825 531 
L 1825 4091 
L 703 3866 
L 703 4441 
L 1819 4666 
L 2450 4666 
L 2450 531 
L 3481 531 
L 3481 0 
L 794 0 
L 794 531 
z
" id="DejaVuSans-31" transform="scale(0.015625)"/>
       </defs>
       <use xlink:href="#DejaVuSans-31"/>
       <use x="63.623047" xlink:href="#DejaVuSans-2e"/>
       <use x="95.410156" xlink:href="#DejaVuSans-30"/>
      </g>
     </g>
    </g>
    <g id="text_7">
     <!-- Thresholds -->
     <g transform="translate(267.957031 280.276563)scale(0.1 -0.1)">
      <defs>
       <path d="M -19 4666 
L 3928 4666 
L 3928 4134 
L 2272 4134 
L 2272 0 
L 1638 0 
L 1638 4134 
L -19 4134 
L -19 4666 
z
" id="DejaVuSans-54" transform="scale(0.015625)"/>
       <path d="M 3513 2113 
L 3513 0 
L 2938 0 
L 2938 2094 
Q 2938 2591 2744 2837 
Q 2550 3084 2163 3084 
Q 1697 3084 1428 2787 
Q 1159 2491 1159 1978 
L 1159 0 
L 581 0 
L 581 4863 
L 1159 4863 
L 1159 2956 
Q 1366 3272 1645 3428 
Q 1925 3584 2291 3584 
Q 2894 3584 3203 3211 
Q 3513 2838 3513 2113 
z
" id="DejaVuSans-68" transform="scale(0.015625)"/>
       <path d="M 2631 2963 
Q 2534 3019 2420 3045 
Q 2306 3072 2169 3072 
Q 1681 3072 1420 2755 
Q 1159 2438 1159 1844 
L 1159 0 
L 581 0 
L 581 3500 
L 1159 3500 
L 1159 2956 
Q 1341 3275 1631 3429 
Q 1922 3584 2338 3584 
Q 2397 3584 2469 3576 
Q 2541 3569 2628 3553 
L 2631 2963 
z
" id="DejaVuSans-72" transform="scale(0.015625)"/>
       <path d="M 3597 1894 
L 3597 1613 
L 953 1613 
Q 991 1019 1311 708 
Q 1631 397 2203 397 
Q 2534 397 2845 478 
Q 3156 559 3463 722 
L 3463 178 
Q 3153 47 2828 -22 
Q 2503 -91 2169 -91 
Q 1331 -91 842 396 
Q 353 884 353 1716 
Q 353 2575 817 3079 
Q 1281 3584 2069 3584 
Q 2775 3584 3186 3129 
Q 3597 2675 3597 1894 
z
M 3022 2063 
Q 3016 2534 2758 2815 
Q 2500 3097 2075 3097 
Q 1594 3097 1305 2825 
Q 1016 2553 972 2059 
L 3022 2063 
z
" id="DejaVuSans-65" transform="scale(0.015625)"/>
       <path d="M 2834 3397 
L 2834 2853 
Q 2591 2978 2328 3040 
Q 2066 3103 1784 3103 
Q 1356 3103 1142 2972 
Q 928 2841 928 2578 
Q 928 2378 1081 2264 
Q 1234 2150 1697 2047 
L 1894 2003 
Q 2506 1872 2764 1633 
Q 3022 1394 3022 966 
Q 3022 478 2636 193 
Q 2250 -91 1575 -91 
Q 1294 -91 989 -36 
Q 684 19 347 128 
L 347 722 
Q 666 556 975 473 
Q 1284 391 1588 391 
Q 1994 391 2212 530 
Q 2431 669 2431 922 
Q 2431 1156 2273 1281 
Q 2116 1406 1581 1522 
L 1381 1569 
Q 847 1681 609 1914 
Q 372 2147 372 2553 
Q 372 3047 722 3315 
Q 1072 3584 1716 3584 
Q 2034 3584 2315 3537 
Q 2597 3491 2834 3397 
z
" id="DejaVuSans-73" transform="scale(0.015625)"/>
       <path d="M 1959 3097 
Q 1497 3097 1228 2736 
Q 959 2375 959 1747 
Q 959 1119 1226 758 
Q 1494 397 1959 397 
Q 2419 397 2687 759 
Q 2956 1122 2956 1747 
Q 2956 2369 2687 2733 
Q 2419 3097 1959 3097 
z
M 1959 3584 
Q 2709 3584 3137 3096 
Q 3566 2609 3566 1747 
Q 3566 888 3137 398 
Q 2709 -91 1959 -91 
Q 1206 -91 779 398 
Q 353 888 353 1747 
Q 353 2609 779 3096 
Q 1206 3584 1959 3584 
z
" id="DejaVuSans-6f" transform="scale(0.015625)"/>
       <path d="M 603 4863 
L 1178 4863 
L 1178 0 
L 603 0 
L 603 4863 
z
" id="DejaVuSans-6c" transform="scale(0.015625)"/>
       <path d="M 2906 2969 
L 2906 4863 
L 3481 4863 
L 3481 0 
L 2906 0 
L 2906 525 
Q 2725 213 2448 61 
Q 2172 -91 1784 -91 
Q 1150 -91 751 415 
Q 353 922 353 1747 
Q 353 2572 751 3078 
Q 1150 3584 1784 3584 
Q 2172 3584 2448 3432 
Q 2725 3281 2906 2969 
z
M 947 1747 
Q 947 1113 1208 752 
Q 1469 391 1925 391 
Q 2381 391 2643 752 
Q 2906 1113 2906 1747 
Q 2906 2381 2643 2742 
Q 2381 3103 1925 3103 
Q 1469 3103 1208 2742 
Q 947 2381 947 1747 
z
" id="DejaVuSans-64" transform="scale(0.015625)"/>
      </defs>
      <use xlink:href="#DejaVuSans-54"/>
      <use x="61.083984" xlink:href="#DejaVuSans-68"/>
      <use x="124.462891" xlink:href="#DejaVuSans-72"/>
      <use x="163.326172" xlink:href="#DejaVuSans-65"/>
      <use x="224.849609" xlink:href="#DejaVuSans-73"/>
      <use x="276.949219" xlink:href="#DejaVuSans-68"/>
      <use x="340.328125" xlink:href="#DejaVuSans-6f"/>
      <use x="401.509766" xlink:href="#DejaVuSans-6c"/>
      <use x="429.292969" xlink:href="#DejaVuSans-64"/>
      <use x="492.769531" xlink:href="#DejaVuSans-73"/>
     </g>
    </g>
   </g>
   <g id="matplotlib.axis_2">
    <g id="ytick_1">
     <g id="line2d_7">
      <defs>
       <path d="M 0 0 
L -3.5 0 
" id="me4ecc472d3" style="stroke:#000000;stroke-width:0.8;"/>
      </defs>
      <g>
       <use style="stroke:#000000;stroke-width:0.8;" x="72" xlink:href="#me4ecc472d3" y="242.116364"/>
      </g>
     </g>
     <g id="text_8">
      <!-- 0.000 -->
      <g transform="translate(36.371875 245.915582)scale(0.1 -0.1)">
       <use xlink:href="#DejaVuSans-30"/>
       <use x="63.623047" xlink:href="#DejaVuSans-2e"/>
       <use x="95.410156" xlink:href="#DejaVuSans-30"/>
       <use x="159.033203" xlink:href="#DejaVuSans-30"/>
       <use x="222.65625" xlink:href="#DejaVuSans-30"/>
      </g>
     </g>
    </g>
    <g id="ytick_2">
     <g id="line2d_8">
      <g>
       <use style="stroke:#000000;stroke-width:0.8;" x="72" xlink:href="#me4ecc472d3" y="213.009508"/>
      </g>
     </g>
     <g id="text_9">
      <!-- 0.025 -->
      <g transform="translate(36.371875 216.808727)scale(0.1 -0.1)">
       <defs>
        <path d="M 691 4666 
L 3169 4666 
L 3169 4134 
L 1269 4134 
L 1269 2991 
Q 1406 3038 1543 3061 
Q 1681 3084 1819 3084 
Q 2600 3084 3056 2656 
Q 3513 2228 3513 1497 
Q 3513 744 3044 326 
Q 2575 -91 1722 -91 
Q 1428 -91 1123 -41 
Q 819 9 494 109 
L 494 744 
Q 775 591 1075 516 
Q 1375 441 1709 441 
Q 2250 441 2565 725 
Q 2881 1009 2881 1497 
Q 2881 1984 2565 2268 
Q 2250 2553 1709 2553 
Q 1456 2553 1204 2497 
Q 953 2441 691 2322 
L 691 4666 
z
" id="DejaVuSans-35" transform="scale(0.015625)"/>
       </defs>
       <use xlink:href="#DejaVuSans-30"/>
       <use x="63.623047" xlink:href="#DejaVuSans-2e"/>
       <use x="95.410156" xlink:href="#DejaVuSans-30"/>
       <use x="159.033203" xlink:href="#DejaVuSans-32"/>
       <use x="222.65625" xlink:href="#DejaVuSans-35"/>
      </g>
     </g>
    </g>
    <g id="ytick_3">
     <g id="line2d_9">
      <g>
       <use style="stroke:#000000;stroke-width:0.8;" x="72" xlink:href="#me4ecc472d3" y="183.902652"/>
      </g>
     </g>
     <g id="text_10">
      <!-- 0.050 -->
      <g transform="translate(36.371875 187.701871)scale(0.1 -0.1)">
       <use xlink:href="#DejaVuSans-30"/>
       <use x="63.623047" xlink:href="#DejaVuSans-2e"/>
       <use x="95.410156" xlink:href="#DejaVuSans-30"/>
       <use x="159.033203" xlink:href="#DejaVuSans-35"/>
       <use x="222.65625" xlink:href="#DejaVuSans-30"/>
      </g>
     </g>
    </g>
    <g id="ytick_4">
     <g id="line2d_10">
      <g>
       <use style="stroke:#000000;stroke-width:0.8;" x="72" xlink:href="#me4ecc472d3" y="154.795796"/>
      </g>
     </g>
     <g id="text_11">
      <!-- 0.075 -->
      <g transform="translate(36.371875 158.595015)scale(0.1 -0.1)">
       <defs>
        <path d="M 525 4666 
L 3525 4666 
L 3525 4397 
L 1831 0 
L 1172 0 
L 2766 4134 
L 525 4134 
L 525 4666 
z
" id="DejaVuSans-37" transform="scale(0.015625)"/>
       </defs>
       <use xlink:href="#DejaVuSans-30"/>
       <use x="63.623047" xlink:href="#DejaVuSans-2e"/>
       <use x="95.410156" xlink:href="#DejaVuSans-30"/>
       <use x="159.033203" xlink:href="#DejaVuSans-37"/>
       <use x="222.65625" xlink:href="#DejaVuSans-35"/>
      </g>
     </g>
    </g>
    <g id="ytick_5">
     <g id="line2d_11">
      <g>
       <use style="stroke:#000000;stroke-width:0.8;" x="72" xlink:href="#me4ecc472d3" y="125.688941"/>
      </g>
     </g>
     <g id="text_12">
      <!-- 0.100 -->
      <g transform="translate(36.371875 129.48816)scale(0.1 -0.1)">
       <use xlink:href="#DejaVuSans-30"/>
       <use x="63.623047" xlink:href="#DejaVuSans-2e"/>
       <use x="95.410156" xlink:href="#DejaVuSans-31"/>
       <use x="159.033203" xlink:href="#DejaVuSans-30"/>
       <use x="222.65625" xlink:href="#DejaVuSans-30"/>
      </g>
     </g>
    </g>
    <g id="ytick_6">
     <g id="line2d_12">
      <g>
       <use style="stroke:#000000;stroke-width:0.8;" x="72" xlink:href="#me4ecc472d3" y="96.582085"/>
      </g>
     </g>
     <g id="text_13">
      <!-- 0.125 -->
      <g transform="translate(36.371875 100.381304)scale(0.1 -0.1)">
       <use xlink:href="#DejaVuSans-30"/>
       <use x="63.623047" xlink:href="#DejaVuSans-2e"/>
       <use x="95.410156" xlink:href="#DejaVuSans-31"/>
       <use x="159.033203" xlink:href="#DejaVuSans-32"/>
       <use x="222.65625" xlink:href="#DejaVuSans-35"/>
      </g>
     </g>
    </g>
    <g id="ytick_7">
     <g id="line2d_13">
      <g>
       <use style="stroke:#000000;stroke-width:0.8;" x="72" xlink:href="#me4ecc472d3" y="67.475229"/>
      </g>
     </g>
     <g id="text_14">
      <!-- 0.150 -->
      <g transform="translate(36.371875 71.274448)scale(0.1 -0.1)">
       <use xlink:href="#DejaVuSans-30"/>
       <use x="63.623047" xlink:href="#DejaVuSans-2e"/>
       <use x="95.410156" xlink:href="#DejaVuSans-31"/>
       <use x="159.033203" xlink:href="#DejaVuSans-35"/>
       <use x="222.65625" xlink:href="#DejaVuSans-30"/>
      </g>
     </g>
    </g>
    <g id="ytick_8">
     <g id="line2d_14">
      <g>
       <use style="stroke:#000000;stroke-width:0.8;" x="72" xlink:href="#me4ecc472d3" y="38.368374"/>
      </g>
     </g>
     <g id="text_15">
      <!-- 0.175 -->
      <g transform="translate(36.371875 42.167592)scale(0.1 -0.1)">
       <use xlink:href="#DejaVuSans-30"/>
       <use x="63.623047" xlink:href="#DejaVuSans-2e"/>
       <use x="95.410156" xlink:href="#DejaVuSans-31"/>
       <use x="159.033203" xlink:href="#DejaVuSans-37"/>
       <use x="222.65625" xlink:href="#DejaVuSans-35"/>
      </g>
     </g>
    </g>
    <g id="text_16">
     <!-- F1 score -->
     <g transform="translate(30.292188 164.358906)rotate(-90)scale(0.1 -0.1)">
      <defs>
       <path d="M 628 4666 
L 3309 4666 
L 3309 4134 
L 1259 4134 
L 1259 2759 
L 3109 2759 
L 3109 2228 
L 1259 2228 
L 1259 0 
L 628 0 
L 628 4666 
z
" id="DejaVuSans-46" transform="scale(0.015625)"/>
       <path id="DejaVuSans-20" transform="scale(0.015625)"/>
       <path d="M 3122 3366 
L 3122 2828 
Q 2878 2963 2633 3030 
Q 2388 3097 2138 3097 
Q 1578 3097 1268 2742 
Q 959 2388 959 1747 
Q 959 1106 1268 751 
Q 1578 397 2138 397 
Q 2388 397 2633 464 
Q 2878 531 3122 666 
L 3122 134 
Q 2881 22 2623 -34 
Q 2366 -91 2075 -91 
Q 1284 -91 818 406 
Q 353 903 353 1747 
Q 353 2603 823 3093 
Q 1294 3584 2113 3584 
Q 2378 3584 2631 3529 
Q 2884 3475 3122 3366 
z
" id="DejaVuSans-63" transform="scale(0.015625)"/>
      </defs>
      <use xlink:href="#DejaVuSans-46"/>
      <use x="57.519531" xlink:href="#DejaVuSans-31"/>
      <use x="121.142578" xlink:href="#DejaVuSans-20"/>
      <use x="152.929688" xlink:href="#DejaVuSans-73"/>
      <use x="205.029297" xlink:href="#DejaVuSans-63"/>
      <use x="260.009766" xlink:href="#DejaVuSans-6f"/>
      <use x="321.191406" xlink:href="#DejaVuSans-72"/>
      <use x="360.054688" xlink:href="#DejaVuSans-65"/>
     </g>
    </g>
   </g>
   <g id="line2d_15">
    <path clip-path="url(#pd3619a7f8a)" d="M 92.290909 206.417512 
L 93.510803 205.710085 
L 93.917435 205.530834 
L 94.730698 205.404189 
L 96.763855 204.942099 
L 97.577118 204.823787 
L 105.303115 203.623497 
L 112.622481 202.2382 
L 113.029113 202.305256 
L 120.348479 200.6352 
L 120.75511 200.651816 
L 124.821425 199.73232 
L 125.634688 199.652267 
L 128.481108 198.996716 
L 129.294371 198.82598 
L 133.360685 197.727902 
L 134.173948 197.60452 
L 136.613737 197.155205 
L 138.240262 196.914369 
L 139.053525 196.729167 
L 143.933103 195.836889 
L 145.152997 195.672924 
L 146.372891 195.34027 
L 147.186154 195.272217 
L 148.406048 194.921295 
L 149.219311 194.797642 
L 151.252469 194.301823 
L 152.065731 194.177404 
L 153.285626 193.868147 
L 157.35194 192.981017 
L 158.165203 192.668423 
L 159.385097 192.430808 
L 161.011623 192.136854 
L 161.824886 191.965249 
L 163.04478 191.670934 
L 165.484569 191.231269 
L 167.111095 190.637216 
L 169.550884 190.286684 
L 169.957515 190.30822 
L 171.990672 189.786972 
L 172.803935 189.642342 
L 173.210567 189.455752 
L 173.617198 189.418275 
L 174.837092 189.015173 
L 175.243724 189.060547 
L 176.463618 188.671691 
L 177.276881 188.446546 
L 178.090144 188.287552 
L 179.71667 187.92171 
L 180.529933 187.849829 
L 183.376353 186.973253 
L 183.782984 186.879622 
L 184.189616 186.907682 
L 185.002878 186.63014 
L 185.40951 186.397652 
L 187.036036 186.053887 
L 188.662561 185.552918 
L 189.069193 185.50679 
L 189.882456 185.196022 
L 190.289087 185.248878 
L 191.10235 185.00836 
L 192.322244 184.734626 
L 194.355402 184.038868 
L 194.762033 184.020582 
L 195.168665 183.840392 
L 195.981927 183.874531 
L 196.388559 183.601287 
L 198.015085 183.069534 
L 200.861505 182.257503 
L 202.081399 182.116317 
L 202.894662 181.799409 
L 203.301293 181.78108 
L 204.114556 181.549087 
L 204.521188 181.574631 
L 205.741082 181.287128 
L 206.147714 181.227959 
L 207.367608 180.750237 
L 208.587502 180.391543 
L 209.807397 180.251678 
L 211.027291 180.023574 
L 212.247185 179.984755 
L 213.46708 179.526233 
L 214.280343 179.334461 
L 215.500237 178.832862 
L 215.906868 178.824321 
L 217.126763 178.479907 
L 217.940026 178.350227 
L 218.753288 178.322506 
L 219.566551 177.756182 
L 219.973183 177.508048 
L 221.193077 177.187396 
L 223.226234 176.124502 
L 223.632866 176.030429 
L 224.039497 175.819937 
L 224.446129 175.885195 
L 226.479286 175.166191 
L 228.919075 174.262761 
L 229.732337 174.049412 
L 230.5456 173.7316 
L 230.952232 173.787448 
L 231.765495 173.662344 
L 232.172126 173.854283 
L 232.578758 173.756185 
L 232.985389 173.479062 
L 233.798652 173.171144 
L 235.425178 172.474194 
L 235.831809 172.342857 
L 236.238441 172.707394 
L 237.458335 172.366837 
L 237.864966 172.015217 
L 238.271598 171.936385 
L 239.491492 171.457886 
L 239.898124 171.584822 
L 240.304755 171.252633 
L 241.118018 170.844657 
L 242.337912 170.297313 
L 243.151175 169.925331 
L 243.557807 169.598019 
L 243.964438 169.457606 
L 244.371069 169.534161 
L 244.777701 169.403715 
L 245.590964 169.710814 
L 247.21749 168.788837 
L 247.624121 168.720146 
L 248.030752 168.515393 
L 248.437384 168.185625 
L 248.844015 168.285657 
L 249.250647 168.085279 
L 250.470541 167.15524 
L 252.503698 166.318712 
L 252.91033 166.262416 
L 254.130224 165.452456 
L 254.536856 165.141118 
L 254.943487 165.148956 
L 257.383276 164.292095 
L 258.60317 163.716034 
L 259.009801 163.524668 
L 259.416433 163.482393 
L 260.229696 162.914035 
L 260.636327 162.73403 
L 261.042959 162.851714 
L 261.856222 163.250371 
L 263.889379 162.159199 
L 264.29601 161.772116 
L 265.109273 161.686125 
L 265.515905 161.749981 
L 265.922536 161.505553 
L 267.14243 161.212911 
L 267.549062 161.029971 
L 267.955693 160.720762 
L 268.362325 160.81882 
L 268.768956 160.786428 
L 269.98885 160.379035 
L 270.395482 160.337397 
L 271.208745 159.774244 
L 271.615376 159.707188 
L 272.835271 158.79689 
L 273.241902 158.576051 
L 273.648533 158.551252 
L 274.461796 158.091966 
L 274.868428 157.703115 
L 275.275059 157.519806 
L 275.681691 157.000302 
L 276.494954 156.482778 
L 276.901585 156.484395 
L 277.714848 155.788338 
L 278.121479 155.280475 
L 279.748005 154.775197 
L 280.154637 154.928705 
L 280.967899 154.381559 
L 281.781162 154.427431 
L 282.187794 154.717762 
L 282.594425 154.424374 
L 283.407688 153.597871 
L 283.81432 153.346873 
L 284.627582 152.518834 
L 285.034214 152.213887 
L 285.440845 152.299151 
L 285.847477 152.059255 
L 286.66074 151.214332 
L 287.067371 151.459288 
L 287.474003 151.311574 
L 288.693897 150.435195 
L 289.100528 150.348382 
L 289.50716 150.443249 
L 290.320423 150.050254 
L 290.727054 149.556822 
L 292.35358 148.679639 
L 292.760211 148.530288 
L 293.166843 148.221142 
L 293.573474 148.208263 
L 294.793369 147.551917 
L 295.606631 146.701875 
L 296.013263 146.388967 
L 296.419894 146.46003 
L 296.826526 145.952121 
L 297.233157 145.12815 
L 298.04642 144.698069 
L 298.453052 144.754475 
L 299.672946 143.538392 
L 300.079577 144.138562 
L 300.486209 143.957412 
L 300.89284 144.023627 
L 301.299472 143.591909 
L 301.706103 144.047639 
L 302.519366 143.261499 
L 302.925997 143.180454 
L 303.332629 143.358304 
L 304.552523 143.393111 
L 304.959155 143.086834 
L 305.772418 142.143449 
L 306.179049 141.898034 
L 306.58568 141.996765 
L 306.992312 141.53245 
L 307.398943 141.494339 
L 308.618838 140.356221 
L 309.025469 139.525977 
L 309.432101 139.577693 
L 310.245363 138.873927 
L 310.651995 138.43272 
L 311.058626 138.266973 
L 311.465258 138.279197 
L 311.871889 138.047159 
L 312.278521 137.212027 
L 313.091784 136.21308 
L 313.498415 135.577115 
L 313.905046 135.378718 
L 314.311678 135.357654 
L 315.124941 134.504329 
L 315.938204 134.534556 
L 316.344835 133.979438 
L 316.751467 134.277991 
L 317.971361 133.455413 
L 318.377992 133.184569 
L 318.784624 132.75687 
L 319.191255 132.899382 
L 319.597887 132.637975 
L 320.004518 133.172158 
L 320.41115 133.386177 
L 321.224412 132.925978 
L 322.037675 132.2619 
L 322.444307 132.407677 
L 322.850938 133.208752 
L 323.25757 132.738948 
L 323.664201 132.643469 
L 324.070833 132.34301 
L 324.477464 132.777139 
L 325.290727 131.812696 
L 325.697358 131.909667 
L 326.10399 131.672899 
L 326.510621 131.01189 
L 326.917253 130.734129 
L 327.323884 129.986597 
L 328.137147 129.744611 
L 328.95041 128.703954 
L 329.357041 127.9403 
L 329.763673 127.936105 
L 330.170304 128.301419 
L 330.983567 127.678277 
L 331.390199 127.141689 
L 331.79683 127.337581 
L 332.203461 127.04883 
L 332.610093 126.490724 
L 333.016724 126.219604 
L 333.829987 125.131872 
L 334.236619 125.216183 
L 335.049882 123.553058 
L 335.456513 122.995585 
L 335.863144 123.236209 
L 336.269776 122.828697 
L 336.676407 122.074291 
L 337.083039 122.254702 
L 337.896302 121.541341 
L 338.302933 121.211837 
L 338.709565 120.722842 
L 339.116196 120.683303 
L 339.522827 120.49316 
L 339.929459 119.511734 
L 340.33609 119.808768 
L 341.149353 118.409253 
L 341.555985 118.252316 
L 341.962616 119.129649 
L 342.369248 119.305699 
L 342.775879 119.767243 
L 343.18251 118.625249 
L 344.402405 117.659463 
L 344.809036 117.164926 
L 345.215668 117.472629 
L 346.028931 115.98451 
L 346.842193 115.293635 
L 347.248825 115.10463 
L 347.655456 115.228562 
L 348.062088 115.066289 
L 348.468719 115.21999 
L 349.281982 114.209427 
L 349.688614 114.097299 
L 350.095245 113.205832 
L 350.501876 113.569595 
L 350.908508 113.240036 
L 351.315139 112.660748 
L 351.721771 111.828533 
L 352.128402 110.607378 
L 352.535034 109.780478 
L 352.941665 109.592722 
L 353.348297 109.890529 
L 354.161559 107.754561 
L 354.568191 107.484351 
L 354.974822 107.958876 
L 355.381454 107.525072 
L 356.194717 105.675619 
L 356.601348 105.675619 
L 357.00798 104.318 
L 357.414611 103.774631 
L 357.821242 102.997032 
L 358.227874 101.879907 
L 358.634505 101.691973 
L 359.041137 101.978036 
L 359.447768 101.25899 
L 359.8544 101.049723 
L 360.261031 100.085098 
L 361.074294 99.220782 
L 361.480925 98.378805 
L 361.887557 99.309303 
L 362.70082 99.756771 
L 363.107451 100.320195 
L 363.514083 100.172916 
L 363.920714 99.051654 
L 364.327346 98.726079 
L 365.140608 97.53329 
L 365.953871 96.843994 
L 366.767134 96.75849 
L 367.173766 96.047687 
L 367.580397 96.492415 
L 367.987029 96.267756 
L 368.800291 95.44758 
L 369.206923 95.574611 
L 369.613554 94.178088 
L 370.020186 94.426716 
L 370.426817 93.936007 
L 371.24008 93.22434 
L 371.646712 92.335727 
L 372.053343 92.512551 
L 372.459974 93.369623 
L 374.493132 90.23713 
L 374.899763 89.503667 
L 375.306395 89.411416 
L 375.713026 90.183858 
L 376.119657 89.505365 
L 376.526289 90.760714 
L 376.93292 90.544182 
L 377.339552 90.966446 
L 377.746183 89.978896 
L 378.152815 89.940324 
L 378.559446 89.158502 
L 378.966078 88.933646 
L 379.77934 88.040447 
L 380.185972 88.162747 
L 380.999235 89.352282 
L 381.405866 88.595448 
L 381.812498 87.3569 
L 382.219129 86.819955 
L 382.625761 85.674079 
L 383.439024 85.659866 
L 383.845655 85.228347 
L 384.252286 83.793586 
L 384.658918 83.394135 
L 385.065549 82.690976 
L 385.472181 83.394897 
L 385.878812 82.548209 
L 386.285444 82.022666 
L 386.692075 81.294365 
L 387.911969 77.41175 
L 388.725232 75.216949 
L 389.131864 76.008514 
L 389.538495 74.403607 
L 390.351758 74.16229 
L 390.75839 72.881348 
L 391.165021 73.623644 
L 391.571652 73.825816 
L 391.978284 75.944628 
L 392.384915 75.404852 
L 392.791547 74.312684 
L 393.198178 74.460875 
L 393.60481 74.065461 
L 394.011441 73.827316 
L 394.418073 72.384151 
L 394.824704 70.420983 
L 395.231335 70.338199 
L 395.637967 69.50594 
L 396.044598 69.209981 
L 396.857861 66.661864 
L 397.264493 67.125247 
L 397.671124 65.978054 
L 398.484387 62.812116 
L 398.891018 62.249364 
L 399.29765 61.115748 
L 399.704281 61.857575 
L 400.110913 63.092884 
L 400.517544 61.453121 
L 400.924176 62.60552 
L 401.330807 62.212072 
L 401.737439 61.320476 
L 402.14407 59.408889 
L 402.550701 58.48922 
L 402.957333 61.486972 
L 403.363964 61.486972 
L 403.770596 60.46589 
L 404.177227 62.688248 
L 404.583859 62.067031 
L 404.99049 60.91689 
L 405.397122 60.495006 
L 405.803753 61.429698 
L 406.210384 61.007039 
L 406.617016 61.405553 
L 407.023647 60.545026 
L 407.430279 60.111681 
L 407.83691 58.844398 
L 408.243542 58.396027 
L 408.650173 59.373137 
L 409.056805 58.972103 
L 409.463436 57.124494 
L 409.870067 58.088315 
L 410.276699 58.283591 
L 410.68333 58.718745 
L 411.089962 58.718745 
L 411.903225 57.407058 
L 412.309856 57.407058 
L 412.716488 56.683654 
L 413.123119 57.920045 
L 413.52975 57.920045 
L 413.936382 57.310931 
L 414.343013 57.310931 
L 414.749645 57.753578 
L 415.156276 57.753578 
L 415.562908 57.507925 
L 415.969539 56.51873 
L 417.596065 54.432813 
L 418.002696 54.928823 
L 418.409328 54.799012 
L 418.815959 55.897259 
L 419.222591 54.330198 
L 419.629222 53.801967 
L 420.035854 52.870376 
L 420.442485 51.658986 
L 420.849116 49.881566 
L 421.255748 48.777307 
L 421.662379 48.63639 
L 422.069011 47.072628 
L 422.475642 47.06375 
L 422.882274 46.046337 
L 423.288905 49.094261 
L 423.695537 48.510672 
L 424.102168 49.542933 
L 424.508799 47.624577 
L 424.915431 46.876531 
L 425.322062 45.057527 
L 425.728694 44.443636 
L 426.135325 44.844246 
L 426.948588 60.257104 
L 427.35522 60.257104 
L 427.761851 63.581653 
L 428.168482 64.174698 
L 428.575114 64.028365 
L 428.981745 66.413288 
L 429.388377 67.765814 
L 429.795008 67.183675 
L 430.20164 66.007657 
L 430.608271 66.007657 
L 431.014903 65.264582 
L 431.421534 63.302916 
L 432.234797 61.764074 
L 432.641428 62.997252 
L 433.04806 63.62136 
L 433.454691 60.295366 
L 434.674586 57.842745 
L 435.081217 60.889968 
L 435.487848 60.889968 
L 435.89448 60.231561 
L 436.301111 62.173337 
L 437.114374 60.502556 
L 437.521006 60.33377 
L 437.927637 59.143426 
L 438.334269 60.301197 
L 438.7409 60.129996 
L 439.147531 60.129996 
L 439.554163 62.142676 
L 439.960794 62.142676 
L 440.367426 60.758263 
L 440.774057 60.583712 
L 441.58732 58.997504 
L 441.993952 58.997504 
L 442.400583 58.819546 
L 443.213846 57.202221 
L 443.620477 60.125602 
L 444.027109 61.554197 
L 444.43374 68.486091 
L 444.840372 71.676219 
L 445.247003 72.503053 
L 445.653635 72.326372 
L 446.060266 72.326372 
L 446.466897 73.34552 
L 446.873529 71.190998 
L 447.28016 72.22227 
L 447.686792 72.039785 
L 448.093423 72.039785 
L 448.500055 77.777982 
L 448.906686 81.790076 
L 449.313318 81.086119 
L 449.719949 80.018515 
L 450.533212 80.018515 
L 450.939843 79.839203 
L 451.346475 80.266583 
L 451.753106 80.084933 
L 452.159738 80.084933 
L 452.566369 79.354239 
L 452.973001 76.364349 
L 453.379632 76.364349 
L 453.786263 75.596486 
L 454.599526 75.596486 
L 455.006158 84.107718 
L 455.412789 86.137041 
L 455.819421 87.442251 
L 456.226052 89.517314 
L 456.632684 90.129826 
L 457.039315 87.656954 
L 457.445946 90.254508 
L 457.852578 89.473727 
L 458.259209 89.473727 
L 458.665841 88.684876 
L 459.479104 93.16222 
L 459.885735 93.16222 
L 460.698998 97.734071 
L 461.105629 95.999171 
L 461.918892 102.530353 
L 462.325524 102.530353 
L 462.732155 104.009352 
L 463.138787 109.702374 
L 463.545418 111.66547 
L 463.95205 111.66547 
L 464.358681 110.930535 
L 464.765312 112.568019 
L 465.171944 111.824556 
L 465.985207 115.601983 
L 466.79847 115.601983 
L 467.205101 122.883461 
L 467.611733 121.429401 
L 468.018364 124.260383 
L 468.424995 130.547581 
L 468.831627 132.79484 
L 469.238258 135.773206 
L 470.051521 134.416355 
L 470.458153 133.024433 
L 470.864784 133.024433 
L 471.271416 132.314892 
L 471.678047 153.593034 
L 472.49131 160.070193 
L 472.897941 160.070193 
L 473.304573 158.812245 
L 473.711204 165.704584 
L 474.524467 165.704584 
L 474.931099 176.407765 
L 475.33773 176.407765 
L 475.744361 175.940919 
L 476.557624 175.940919 
L 476.964256 175.467392 
L 477.370887 175.347949 
L 477.777519 175.347949 
L 478.18415 179.069023 
L 478.997413 179.069023 
L 479.404044 178.610497 
L 479.810676 186.573006 
L 481.437202 186.573006 
L 482.250465 211.535052 
L 482.657096 211.535052 
L 483.063727 220.065715 
L 483.470359 220.065715 
L 483.87699 219.89739 
L 484.690253 219.89739 
L 485.096885 224.100515 
L 487.130042 224.100515 
L 487.536673 228.499121 
L 487.943305 228.499121 
L 488.349936 237.541612 
L 489.976462 237.505377 
L 492.822882 237.505377 
L 493.229514 242.116364 
L 498.109091 242.116364 
L 498.109091 242.116364 
" style="fill:none;stroke:#1f77b4;stroke-linecap:square;stroke-width:1.5;"/>
   </g>
   <g id="patch_3">
    <path d="M 72 252 
L 72 34.56 
" style="fill:none;stroke:#000000;stroke-linecap:square;stroke-linejoin:miter;stroke-width:0.8;"/>
   </g>
   <g id="patch_4">
    <path d="M 518.4 252 
L 518.4 34.56 
" style="fill:none;stroke:#000000;stroke-linecap:square;stroke-linejoin:miter;stroke-width:0.8;"/>
   </g>
   <g id="patch_5">
    <path d="M 72 252 
L 518.4 252 
" style="fill:none;stroke:#000000;stroke-linecap:square;stroke-linejoin:miter;stroke-width:0.8;"/>
   </g>
   <g id="patch_6">
    <path d="M 72 34.56 
L 518.4 34.56 
" style="fill:none;stroke:#000000;stroke-linecap:square;stroke-linejoin:miter;stroke-width:0.8;"/>
   </g>
   <g id="text_17">
    <!-- MIGUEL HIDALGO -->
    <g transform="translate(260.103125 28.56)scale(0.08 -0.08)">
     <defs>
      <path d="M 628 4666 
L 1569 4666 
L 2759 1491 
L 3956 4666 
L 4897 4666 
L 4897 0 
L 4281 0 
L 4281 4097 
L 3078 897 
L 2444 897 
L 1241 4097 
L 1241 0 
L 628 0 
L 628 4666 
z
" id="DejaVuSans-4d" transform="scale(0.015625)"/>
      <path d="M 628 4666 
L 1259 4666 
L 1259 0 
L 628 0 
L 628 4666 
z
" id="DejaVuSans-49" transform="scale(0.015625)"/>
      <path d="M 3809 666 
L 3809 1919 
L 2778 1919 
L 2778 2438 
L 4434 2438 
L 4434 434 
Q 4069 175 3628 42 
Q 3188 -91 2688 -91 
Q 1594 -91 976 548 
Q 359 1188 359 2328 
Q 359 3472 976 4111 
Q 1594 4750 2688 4750 
Q 3144 4750 3555 4637 
Q 3966 4525 4313 4306 
L 4313 3634 
Q 3963 3931 3569 4081 
Q 3175 4231 2741 4231 
Q 1884 4231 1454 3753 
Q 1025 3275 1025 2328 
Q 1025 1384 1454 906 
Q 1884 428 2741 428 
Q 3075 428 3337 486 
Q 3600 544 3809 666 
z
" id="DejaVuSans-47" transform="scale(0.015625)"/>
      <path d="M 556 4666 
L 1191 4666 
L 1191 1831 
Q 1191 1081 1462 751 
Q 1734 422 2344 422 
Q 2950 422 3222 751 
Q 3494 1081 3494 1831 
L 3494 4666 
L 4128 4666 
L 4128 1753 
Q 4128 841 3676 375 
Q 3225 -91 2344 -91 
Q 1459 -91 1007 375 
Q 556 841 556 1753 
L 556 4666 
z
" id="DejaVuSans-55" transform="scale(0.015625)"/>
      <path d="M 628 4666 
L 3578 4666 
L 3578 4134 
L 1259 4134 
L 1259 2753 
L 3481 2753 
L 3481 2222 
L 1259 2222 
L 1259 531 
L 3634 531 
L 3634 0 
L 628 0 
L 628 4666 
z
" id="DejaVuSans-45" transform="scale(0.015625)"/>
      <path d="M 628 4666 
L 1259 4666 
L 1259 531 
L 3531 531 
L 3531 0 
L 628 0 
L 628 4666 
z
" id="DejaVuSans-4c" transform="scale(0.015625)"/>
      <path d="M 628 4666 
L 1259 4666 
L 1259 2753 
L 3553 2753 
L 3553 4666 
L 4184 4666 
L 4184 0 
L 3553 0 
L 3553 2222 
L 1259 2222 
L 1259 0 
L 628 0 
L 628 4666 
z
" id="DejaVuSans-48" transform="scale(0.015625)"/>
      <path d="M 1259 4147 
L 1259 519 
L 2022 519 
Q 2988 519 3436 956 
Q 3884 1394 3884 2338 
Q 3884 3275 3436 3711 
Q 2988 4147 2022 4147 
L 1259 4147 
z
M 628 4666 
L 1925 4666 
Q 3281 4666 3915 4102 
Q 4550 3538 4550 2338 
Q 4550 1131 3912 565 
Q 3275 0 1925 0 
L 628 0 
L 628 4666 
z
" id="DejaVuSans-44" transform="scale(0.015625)"/>
      <path d="M 2188 4044 
L 1331 1722 
L 3047 1722 
L 2188 4044 
z
M 1831 4666 
L 2547 4666 
L 4325 0 
L 3669 0 
L 3244 1197 
L 1141 1197 
L 716 0 
L 50 0 
L 1831 4666 
z
" id="DejaVuSans-41" transform="scale(0.015625)"/>
      <path d="M 2522 4238 
Q 1834 4238 1429 3725 
Q 1025 3213 1025 2328 
Q 1025 1447 1429 934 
Q 1834 422 2522 422 
Q 3209 422 3611 934 
Q 4013 1447 4013 2328 
Q 4013 3213 3611 3725 
Q 3209 4238 2522 4238 
z
M 2522 4750 
Q 3503 4750 4090 4092 
Q 4678 3434 4678 2328 
Q 4678 1225 4090 567 
Q 3503 -91 2522 -91 
Q 1538 -91 948 565 
Q 359 1222 359 2328 
Q 359 3434 948 4092 
Q 1538 4750 2522 4750 
z
" id="DejaVuSans-4f" transform="scale(0.015625)"/>
     </defs>
     <use xlink:href="#DejaVuSans-4d"/>
     <use x="86.279297" xlink:href="#DejaVuSans-49"/>
     <use x="115.771484" xlink:href="#DejaVuSans-47"/>
     <use x="193.261719" xlink:href="#DejaVuSans-55"/>
     <use x="266.455078" xlink:href="#DejaVuSans-45"/>
     <use x="329.638672" xlink:href="#DejaVuSans-4c"/>
     <use x="385.351562" xlink:href="#DejaVuSans-20"/>
     <use x="417.138672" xlink:href="#DejaVuSans-48"/>
     <use x="492.333984" xlink:href="#DejaVuSans-49"/>
     <use x="521.826172" xlink:href="#DejaVuSans-44"/>
     <use x="597.078125" xlink:href="#DejaVuSans-41"/>
     <use x="665.486328" xlink:href="#DejaVuSans-4c"/>
     <use x="721.199219" xlink:href="#DejaVuSans-47"/>
     <use x="798.689453" xlink:href="#DejaVuSans-4f"/>
    </g>
   </g>
  </g>
  <g id="text_18">
   <!-- F1 score curve -->
   <g transform="translate(229.31625 17.9175)scale(0.16 -0.16)">
    <defs>
     <path d="M 544 1381 
L 544 3500 
L 1119 3500 
L 1119 1403 
Q 1119 906 1312 657 
Q 1506 409 1894 409 
Q 2359 409 2629 706 
Q 2900 1003 2900 1516 
L 2900 3500 
L 3475 3500 
L 3475 0 
L 2900 0 
L 2900 538 
Q 2691 219 2414 64 
Q 2138 -91 1772 -91 
Q 1169 -91 856 284 
Q 544 659 544 1381 
z
M 1991 3584 
L 1991 3584 
z
" id="DejaVuSans-75" transform="scale(0.015625)"/>
     <path d="M 191 3500 
L 800 3500 
L 1894 563 
L 2988 3500 
L 3597 3500 
L 2284 0 
L 1503 0 
L 191 3500 
z
" id="DejaVuSans-76" transform="scale(0.015625)"/>
    </defs>
    <use xlink:href="#DejaVuSans-46"/>
    <use x="57.519531" xlink:href="#DejaVuSans-31"/>
    <use x="121.142578" xlink:href="#DejaVuSans-20"/>
    <use x="152.929688" xlink:href="#DejaVuSans-73"/>
    <use x="205.029297" xlink:href="#DejaVuSans-63"/>
    <use x="260.009766" xlink:href="#DejaVuSans-6f"/>
    <use x="321.191406" xlink:href="#DejaVuSans-72"/>
    <use x="360.054688" xlink:href="#DejaVuSans-65"/>
    <use x="421.578125" xlink:href="#DejaVuSans-20"/>
    <use x="453.365234" xlink:href="#DejaVuSans-63"/>
    <use x="508.345703" xlink:href="#DejaVuSans-75"/>
    <use x="571.724609" xlink:href="#DejaVuSans-72"/>
    <use x="612.837891" xlink:href="#DejaVuSans-76"/>
    <use x="672.017578" xlink:href="#DejaVuSans-65"/>
   </g>
  </g>
 </g>
 <defs>
  <clipPath id="pd3619a7f8a">
   <rect height="217.44" width="446.4" x="72" y="34.56"/>
  </clipPath>
 </defs>
</svg>
