<?xml version="1.0" encoding="utf-8" standalone="no"?>
<!DOCTYPE svg PUBLIC "-//W3C//DTD SVG 1.1//EN"
  "http://www.w3.org/Graphics/SVG/1.1/DTD/svg11.dtd">
<svg height="288pt" version="1.1" viewBox="0 0 576 288" width="576pt" xmlns="http://www.w3.org/2000/svg" xmlns:xlink="http://www.w3.org/1999/xlink">
 <metadata>
  <rdf:RDF xmlns:cc="http://creativecommons.org/ns#" xmlns:dc="http://purl.org/dc/elements/1.1/" xmlns:rdf="http://www.w3.org/1999/02/22-rdf-syntax-ns#">
   <cc:Work>
    <dc:type rdf:resource="http://purl.org/dc/dcmitype/StillImage"/>
    <dc:date>2022-01-04T19:38:23.810933</dc:date>
    <dc:format>image/svg+xml</dc:format>
    <dc:creator>
     <cc:Agent>
      <dc:title>Matplotlib v3.4.3, https://matplotlib.org/</dc:title>
     </cc:Agent>
    </dc:creator>
   </cc:Work>
  </rdf:RDF>
 </metadata>
 <defs>
  <style type="text/css">*{stroke-linecap:butt;stroke-linejoin:round;}</style>
 </defs>
 <g id="figure_1">
  <g id="patch_1">
   <path d="M 0 288 
L 576 288 
L 576 0 
L 0 0 
z
" style="fill:none;"/>
  </g>
  <g id="axes_1">
   <g id="patch_2">
    <path d="M 72 252 
L 518.4 252 
L 518.4 34.56 
L 72 34.56 
z
" style="fill:#ffffff;"/>
   </g>
   <g id="matplotlib.axis_1">
    <g id="xtick_1">
     <g id="line2d_1">
      <defs>
       <path d="M 0 0 
L 0 3.5 
" id="mc86f90dc2e" style="stroke:#000000;stroke-width:0.8;"/>
      </defs>
      <g>
       <use style="stroke:#000000;stroke-width:0.8;" x="91.884278" xlink:href="#mc86f90dc2e" y="252"/>
      </g>
     </g>
     <g id="text_1">
      <!-- 0.0 -->
      <g transform="translate(83.932715 266.598437)scale(0.1 -0.1)">
       <defs>
        <path d="M 2034 4250 
Q 1547 4250 1301 3770 
Q 1056 3291 1056 2328 
Q 1056 1369 1301 889 
Q 1547 409 2034 409 
Q 2525 409 2770 889 
Q 3016 1369 3016 2328 
Q 3016 3291 2770 3770 
Q 2525 4250 2034 4250 
z
M 2034 4750 
Q 2819 4750 3233 4129 
Q 3647 3509 3647 2328 
Q 3647 1150 3233 529 
Q 2819 -91 2034 -91 
Q 1250 -91 836 529 
Q 422 1150 422 2328 
Q 422 3509 836 4129 
Q 1250 4750 2034 4750 
z
" id="DejaVuSans-30" transform="scale(0.015625)"/>
        <path d="M 684 794 
L 1344 794 
L 1344 0 
L 684 0 
L 684 794 
z
" id="DejaVuSans-2e" transform="scale(0.015625)"/>
       </defs>
       <use xlink:href="#DejaVuSans-30"/>
       <use x="63.623047" xlink:href="#DejaVuSans-2e"/>
       <use x="95.410156" xlink:href="#DejaVuSans-30"/>
      </g>
     </g>
    </g>
    <g id="xtick_2">
     <g id="line2d_2">
      <g>
       <use style="stroke:#000000;stroke-width:0.8;" x="173.210567" xlink:href="#mc86f90dc2e" y="252"/>
      </g>
     </g>
     <g id="text_2">
      <!-- 0.2 -->
      <g transform="translate(165.259004 266.598437)scale(0.1 -0.1)">
       <defs>
        <path d="M 1228 531 
L 3431 531 
L 3431 0 
L 469 0 
L 469 531 
Q 828 903 1448 1529 
Q 2069 2156 2228 2338 
Q 2531 2678 2651 2914 
Q 2772 3150 2772 3378 
Q 2772 3750 2511 3984 
Q 2250 4219 1831 4219 
Q 1534 4219 1204 4116 
Q 875 4013 500 3803 
L 500 4441 
Q 881 4594 1212 4672 
Q 1544 4750 1819 4750 
Q 2544 4750 2975 4387 
Q 3406 4025 3406 3419 
Q 3406 3131 3298 2873 
Q 3191 2616 2906 2266 
Q 2828 2175 2409 1742 
Q 1991 1309 1228 531 
z
" id="DejaVuSans-32" transform="scale(0.015625)"/>
       </defs>
       <use xlink:href="#DejaVuSans-30"/>
       <use x="63.623047" xlink:href="#DejaVuSans-2e"/>
       <use x="95.410156" xlink:href="#DejaVuSans-32"/>
      </g>
     </g>
    </g>
    <g id="xtick_3">
     <g id="line2d_3">
      <g>
       <use style="stroke:#000000;stroke-width:0.8;" x="254.536856" xlink:href="#mc86f90dc2e" y="252"/>
      </g>
     </g>
     <g id="text_3">
      <!-- 0.4 -->
      <g transform="translate(246.585293 266.598437)scale(0.1 -0.1)">
       <defs>
        <path d="M 2419 4116 
L 825 1625 
L 2419 1625 
L 2419 4116 
z
M 2253 4666 
L 3047 4666 
L 3047 1625 
L 3713 1625 
L 3713 1100 
L 3047 1100 
L 3047 0 
L 2419 0 
L 2419 1100 
L 313 1100 
L 313 1709 
L 2253 4666 
z
" id="DejaVuSans-34" transform="scale(0.015625)"/>
       </defs>
       <use xlink:href="#DejaVuSans-30"/>
       <use x="63.623047" xlink:href="#DejaVuSans-2e"/>
       <use x="95.410156" xlink:href="#DejaVuSans-34"/>
      </g>
     </g>
    </g>
    <g id="xtick_4">
     <g id="line2d_4">
      <g>
       <use style="stroke:#000000;stroke-width:0.8;" x="335.863144" xlink:href="#mc86f90dc2e" y="252"/>
      </g>
     </g>
     <g id="text_4">
      <!-- 0.6 -->
      <g transform="translate(327.911582 266.598437)scale(0.1 -0.1)">
       <defs>
        <path d="M 2113 2584 
Q 1688 2584 1439 2293 
Q 1191 2003 1191 1497 
Q 1191 994 1439 701 
Q 1688 409 2113 409 
Q 2538 409 2786 701 
Q 3034 994 3034 1497 
Q 3034 2003 2786 2293 
Q 2538 2584 2113 2584 
z
M 3366 4563 
L 3366 3988 
Q 3128 4100 2886 4159 
Q 2644 4219 2406 4219 
Q 1781 4219 1451 3797 
Q 1122 3375 1075 2522 
Q 1259 2794 1537 2939 
Q 1816 3084 2150 3084 
Q 2853 3084 3261 2657 
Q 3669 2231 3669 1497 
Q 3669 778 3244 343 
Q 2819 -91 2113 -91 
Q 1303 -91 875 529 
Q 447 1150 447 2328 
Q 447 3434 972 4092 
Q 1497 4750 2381 4750 
Q 2619 4750 2861 4703 
Q 3103 4656 3366 4563 
z
" id="DejaVuSans-36" transform="scale(0.015625)"/>
       </defs>
       <use xlink:href="#DejaVuSans-30"/>
       <use x="63.623047" xlink:href="#DejaVuSans-2e"/>
       <use x="95.410156" xlink:href="#DejaVuSans-36"/>
      </g>
     </g>
    </g>
    <g id="xtick_5">
     <g id="line2d_5">
      <g>
       <use style="stroke:#000000;stroke-width:0.8;" x="417.189433" xlink:href="#mc86f90dc2e" y="252"/>
      </g>
     </g>
     <g id="text_5">
      <!-- 0.8 -->
      <g transform="translate(409.237871 266.598437)scale(0.1 -0.1)">
       <defs>
        <path d="M 2034 2216 
Q 1584 2216 1326 1975 
Q 1069 1734 1069 1313 
Q 1069 891 1326 650 
Q 1584 409 2034 409 
Q 2484 409 2743 651 
Q 3003 894 3003 1313 
Q 3003 1734 2745 1975 
Q 2488 2216 2034 2216 
z
M 1403 2484 
Q 997 2584 770 2862 
Q 544 3141 544 3541 
Q 544 4100 942 4425 
Q 1341 4750 2034 4750 
Q 2731 4750 3128 4425 
Q 3525 4100 3525 3541 
Q 3525 3141 3298 2862 
Q 3072 2584 2669 2484 
Q 3125 2378 3379 2068 
Q 3634 1759 3634 1313 
Q 3634 634 3220 271 
Q 2806 -91 2034 -91 
Q 1263 -91 848 271 
Q 434 634 434 1313 
Q 434 1759 690 2068 
Q 947 2378 1403 2484 
z
M 1172 3481 
Q 1172 3119 1398 2916 
Q 1625 2713 2034 2713 
Q 2441 2713 2670 2916 
Q 2900 3119 2900 3481 
Q 2900 3844 2670 4047 
Q 2441 4250 2034 4250 
Q 1625 4250 1398 4047 
Q 1172 3844 1172 3481 
z
" id="DejaVuSans-38" transform="scale(0.015625)"/>
       </defs>
       <use xlink:href="#DejaVuSans-30"/>
       <use x="63.623047" xlink:href="#DejaVuSans-2e"/>
       <use x="95.410156" xlink:href="#DejaVuSans-38"/>
      </g>
     </g>
    </g>
    <g id="xtick_6">
     <g id="line2d_6">
      <g>
       <use style="stroke:#000000;stroke-width:0.8;" x="498.515722" xlink:href="#mc86f90dc2e" y="252"/>
      </g>
     </g>
     <g id="text_6">
      <!-- 1.0 -->
      <g transform="translate(490.56416 266.598437)scale(0.1 -0.1)">
       <defs>
        <path d="M 794 531 
L 1825 531 
L 1825 4091 
L 703 3866 
L 703 4441 
L 1819 4666 
L 2450 4666 
L 2450 531 
L 3481 531 
L 3481 0 
L 794 0 
L 794 531 
z
" id="DejaVuSans-31" transform="scale(0.015625)"/>
       </defs>
       <use xlink:href="#DejaVuSans-31"/>
       <use x="63.623047" xlink:href="#DejaVuSans-2e"/>
       <use x="95.410156" xlink:href="#DejaVuSans-30"/>
      </g>
     </g>
    </g>
    <g id="text_7">
     <!-- Thresholds -->
     <g transform="translate(267.957031 280.276563)scale(0.1 -0.1)">
      <defs>
       <path d="M -19 4666 
L 3928 4666 
L 3928 4134 
L 2272 4134 
L 2272 0 
L 1638 0 
L 1638 4134 
L -19 4134 
L -19 4666 
z
" id="DejaVuSans-54" transform="scale(0.015625)"/>
       <path d="M 3513 2113 
L 3513 0 
L 2938 0 
L 2938 2094 
Q 2938 2591 2744 2837 
Q 2550 3084 2163 3084 
Q 1697 3084 1428 2787 
Q 1159 2491 1159 1978 
L 1159 0 
L 581 0 
L 581 4863 
L 1159 4863 
L 1159 2956 
Q 1366 3272 1645 3428 
Q 1925 3584 2291 3584 
Q 2894 3584 3203 3211 
Q 3513 2838 3513 2113 
z
" id="DejaVuSans-68" transform="scale(0.015625)"/>
       <path d="M 2631 2963 
Q 2534 3019 2420 3045 
Q 2306 3072 2169 3072 
Q 1681 3072 1420 2755 
Q 1159 2438 1159 1844 
L 1159 0 
L 581 0 
L 581 3500 
L 1159 3500 
L 1159 2956 
Q 1341 3275 1631 3429 
Q 1922 3584 2338 3584 
Q 2397 3584 2469 3576 
Q 2541 3569 2628 3553 
L 2631 2963 
z
" id="DejaVuSans-72" transform="scale(0.015625)"/>
       <path d="M 3597 1894 
L 3597 1613 
L 953 1613 
Q 991 1019 1311 708 
Q 1631 397 2203 397 
Q 2534 397 2845 478 
Q 3156 559 3463 722 
L 3463 178 
Q 3153 47 2828 -22 
Q 2503 -91 2169 -91 
Q 1331 -91 842 396 
Q 353 884 353 1716 
Q 353 2575 817 3079 
Q 1281 3584 2069 3584 
Q 2775 3584 3186 3129 
Q 3597 2675 3597 1894 
z
M 3022 2063 
Q 3016 2534 2758 2815 
Q 2500 3097 2075 3097 
Q 1594 3097 1305 2825 
Q 1016 2553 972 2059 
L 3022 2063 
z
" id="DejaVuSans-65" transform="scale(0.015625)"/>
       <path d="M 2834 3397 
L 2834 2853 
Q 2591 2978 2328 3040 
Q 2066 3103 1784 3103 
Q 1356 3103 1142 2972 
Q 928 2841 928 2578 
Q 928 2378 1081 2264 
Q 1234 2150 1697 2047 
L 1894 2003 
Q 2506 1872 2764 1633 
Q 3022 1394 3022 966 
Q 3022 478 2636 193 
Q 2250 -91 1575 -91 
Q 1294 -91 989 -36 
Q 684 19 347 128 
L 347 722 
Q 666 556 975 473 
Q 1284 391 1588 391 
Q 1994 391 2212 530 
Q 2431 669 2431 922 
Q 2431 1156 2273 1281 
Q 2116 1406 1581 1522 
L 1381 1569 
Q 847 1681 609 1914 
Q 372 2147 372 2553 
Q 372 3047 722 3315 
Q 1072 3584 1716 3584 
Q 2034 3584 2315 3537 
Q 2597 3491 2834 3397 
z
" id="DejaVuSans-73" transform="scale(0.015625)"/>
       <path d="M 1959 3097 
Q 1497 3097 1228 2736 
Q 959 2375 959 1747 
Q 959 1119 1226 758 
Q 1494 397 1959 397 
Q 2419 397 2687 759 
Q 2956 1122 2956 1747 
Q 2956 2369 2687 2733 
Q 2419 3097 1959 3097 
z
M 1959 3584 
Q 2709 3584 3137 3096 
Q 3566 2609 3566 1747 
Q 3566 888 3137 398 
Q 2709 -91 1959 -91 
Q 1206 -91 779 398 
Q 353 888 353 1747 
Q 353 2609 779 3096 
Q 1206 3584 1959 3584 
z
" id="DejaVuSans-6f" transform="scale(0.015625)"/>
       <path d="M 603 4863 
L 1178 4863 
L 1178 0 
L 603 0 
L 603 4863 
z
" id="DejaVuSans-6c" transform="scale(0.015625)"/>
       <path d="M 2906 2969 
L 2906 4863 
L 3481 4863 
L 3481 0 
L 2906 0 
L 2906 525 
Q 2725 213 2448 61 
Q 2172 -91 1784 -91 
Q 1150 -91 751 415 
Q 353 922 353 1747 
Q 353 2572 751 3078 
Q 1150 3584 1784 3584 
Q 2172 3584 2448 3432 
Q 2725 3281 2906 2969 
z
M 947 1747 
Q 947 1113 1208 752 
Q 1469 391 1925 391 
Q 2381 391 2643 752 
Q 2906 1113 2906 1747 
Q 2906 2381 2643 2742 
Q 2381 3103 1925 3103 
Q 1469 3103 1208 2742 
Q 947 2381 947 1747 
z
" id="DejaVuSans-64" transform="scale(0.015625)"/>
      </defs>
      <use xlink:href="#DejaVuSans-54"/>
      <use x="61.083984" xlink:href="#DejaVuSans-68"/>
      <use x="124.462891" xlink:href="#DejaVuSans-72"/>
      <use x="163.326172" xlink:href="#DejaVuSans-65"/>
      <use x="224.849609" xlink:href="#DejaVuSans-73"/>
      <use x="276.949219" xlink:href="#DejaVuSans-68"/>
      <use x="340.328125" xlink:href="#DejaVuSans-6f"/>
      <use x="401.509766" xlink:href="#DejaVuSans-6c"/>
      <use x="429.292969" xlink:href="#DejaVuSans-64"/>
      <use x="492.769531" xlink:href="#DejaVuSans-73"/>
     </g>
    </g>
   </g>
   <g id="matplotlib.axis_2">
    <g id="ytick_1">
     <g id="line2d_7">
      <defs>
       <path d="M 0 0 
L -3.5 0 
" id="m7a27fd3255" style="stroke:#000000;stroke-width:0.8;"/>
      </defs>
      <g>
       <use style="stroke:#000000;stroke-width:0.8;" x="72" xlink:href="#m7a27fd3255" y="242.116364"/>
      </g>
     </g>
     <g id="text_8">
      <!-- 0.00 -->
      <g transform="translate(42.734375 245.915582)scale(0.1 -0.1)">
       <use xlink:href="#DejaVuSans-30"/>
       <use x="63.623047" xlink:href="#DejaVuSans-2e"/>
       <use x="95.410156" xlink:href="#DejaVuSans-30"/>
       <use x="159.033203" xlink:href="#DejaVuSans-30"/>
      </g>
     </g>
    </g>
    <g id="ytick_2">
     <g id="line2d_8">
      <g>
       <use style="stroke:#000000;stroke-width:0.8;" x="72" xlink:href="#m7a27fd3255" y="212.046149"/>
      </g>
     </g>
     <g id="text_9">
      <!-- 0.01 -->
      <g transform="translate(42.734375 215.845368)scale(0.1 -0.1)">
       <use xlink:href="#DejaVuSans-30"/>
       <use x="63.623047" xlink:href="#DejaVuSans-2e"/>
       <use x="95.410156" xlink:href="#DejaVuSans-30"/>
       <use x="159.033203" xlink:href="#DejaVuSans-31"/>
      </g>
     </g>
    </g>
    <g id="ytick_3">
     <g id="line2d_9">
      <g>
       <use style="stroke:#000000;stroke-width:0.8;" x="72" xlink:href="#m7a27fd3255" y="181.975934"/>
      </g>
     </g>
     <g id="text_10">
      <!-- 0.02 -->
      <g transform="translate(42.734375 185.775153)scale(0.1 -0.1)">
       <use xlink:href="#DejaVuSans-30"/>
       <use x="63.623047" xlink:href="#DejaVuSans-2e"/>
       <use x="95.410156" xlink:href="#DejaVuSans-30"/>
       <use x="159.033203" xlink:href="#DejaVuSans-32"/>
      </g>
     </g>
    </g>
    <g id="ytick_4">
     <g id="line2d_10">
      <g>
       <use style="stroke:#000000;stroke-width:0.8;" x="72" xlink:href="#m7a27fd3255" y="151.905719"/>
      </g>
     </g>
     <g id="text_11">
      <!-- 0.03 -->
      <g transform="translate(42.734375 155.704938)scale(0.1 -0.1)">
       <defs>
        <path d="M 2597 2516 
Q 3050 2419 3304 2112 
Q 3559 1806 3559 1356 
Q 3559 666 3084 287 
Q 2609 -91 1734 -91 
Q 1441 -91 1130 -33 
Q 819 25 488 141 
L 488 750 
Q 750 597 1062 519 
Q 1375 441 1716 441 
Q 2309 441 2620 675 
Q 2931 909 2931 1356 
Q 2931 1769 2642 2001 
Q 2353 2234 1838 2234 
L 1294 2234 
L 1294 2753 
L 1863 2753 
Q 2328 2753 2575 2939 
Q 2822 3125 2822 3475 
Q 2822 3834 2567 4026 
Q 2313 4219 1838 4219 
Q 1578 4219 1281 4162 
Q 984 4106 628 3988 
L 628 4550 
Q 988 4650 1302 4700 
Q 1616 4750 1894 4750 
Q 2613 4750 3031 4423 
Q 3450 4097 3450 3541 
Q 3450 3153 3228 2886 
Q 3006 2619 2597 2516 
z
" id="DejaVuSans-33" transform="scale(0.015625)"/>
       </defs>
       <use xlink:href="#DejaVuSans-30"/>
       <use x="63.623047" xlink:href="#DejaVuSans-2e"/>
       <use x="95.410156" xlink:href="#DejaVuSans-30"/>
       <use x="159.033203" xlink:href="#DejaVuSans-33"/>
      </g>
     </g>
    </g>
    <g id="ytick_5">
     <g id="line2d_11">
      <g>
       <use style="stroke:#000000;stroke-width:0.8;" x="72" xlink:href="#m7a27fd3255" y="121.835504"/>
      </g>
     </g>
     <g id="text_12">
      <!-- 0.04 -->
      <g transform="translate(42.734375 125.634723)scale(0.1 -0.1)">
       <use xlink:href="#DejaVuSans-30"/>
       <use x="63.623047" xlink:href="#DejaVuSans-2e"/>
       <use x="95.410156" xlink:href="#DejaVuSans-30"/>
       <use x="159.033203" xlink:href="#DejaVuSans-34"/>
      </g>
     </g>
    </g>
    <g id="ytick_6">
     <g id="line2d_12">
      <g>
       <use style="stroke:#000000;stroke-width:0.8;" x="72" xlink:href="#m7a27fd3255" y="91.765289"/>
      </g>
     </g>
     <g id="text_13">
      <!-- 0.05 -->
      <g transform="translate(42.734375 95.564508)scale(0.1 -0.1)">
       <defs>
        <path d="M 691 4666 
L 3169 4666 
L 3169 4134 
L 1269 4134 
L 1269 2991 
Q 1406 3038 1543 3061 
Q 1681 3084 1819 3084 
Q 2600 3084 3056 2656 
Q 3513 2228 3513 1497 
Q 3513 744 3044 326 
Q 2575 -91 1722 -91 
Q 1428 -91 1123 -41 
Q 819 9 494 109 
L 494 744 
Q 775 591 1075 516 
Q 1375 441 1709 441 
Q 2250 441 2565 725 
Q 2881 1009 2881 1497 
Q 2881 1984 2565 2268 
Q 2250 2553 1709 2553 
Q 1456 2553 1204 2497 
Q 953 2441 691 2322 
L 691 4666 
z
" id="DejaVuSans-35" transform="scale(0.015625)"/>
       </defs>
       <use xlink:href="#DejaVuSans-30"/>
       <use x="63.623047" xlink:href="#DejaVuSans-2e"/>
       <use x="95.410156" xlink:href="#DejaVuSans-30"/>
       <use x="159.033203" xlink:href="#DejaVuSans-35"/>
      </g>
     </g>
    </g>
    <g id="ytick_7">
     <g id="line2d_13">
      <g>
       <use style="stroke:#000000;stroke-width:0.8;" x="72" xlink:href="#m7a27fd3255" y="61.695074"/>
      </g>
     </g>
     <g id="text_14">
      <!-- 0.06 -->
      <g transform="translate(42.734375 65.494293)scale(0.1 -0.1)">
       <use xlink:href="#DejaVuSans-30"/>
       <use x="63.623047" xlink:href="#DejaVuSans-2e"/>
       <use x="95.410156" xlink:href="#DejaVuSans-30"/>
       <use x="159.033203" xlink:href="#DejaVuSans-36"/>
      </g>
     </g>
    </g>
    <g id="text_15">
     <!-- F1 score -->
     <g transform="translate(36.654687 164.358906)rotate(-90)scale(0.1 -0.1)">
      <defs>
       <path d="M 628 4666 
L 3309 4666 
L 3309 4134 
L 1259 4134 
L 1259 2759 
L 3109 2759 
L 3109 2228 
L 1259 2228 
L 1259 0 
L 628 0 
L 628 4666 
z
" id="DejaVuSans-46" transform="scale(0.015625)"/>
       <path id="DejaVuSans-20" transform="scale(0.015625)"/>
       <path d="M 3122 3366 
L 3122 2828 
Q 2878 2963 2633 3030 
Q 2388 3097 2138 3097 
Q 1578 3097 1268 2742 
Q 959 2388 959 1747 
Q 959 1106 1268 751 
Q 1578 397 2138 397 
Q 2388 397 2633 464 
Q 2878 531 3122 666 
L 3122 134 
Q 2881 22 2623 -34 
Q 2366 -91 2075 -91 
Q 1284 -91 818 406 
Q 353 903 353 1747 
Q 353 2603 823 3093 
Q 1294 3584 2113 3584 
Q 2378 3584 2631 3529 
Q 2884 3475 3122 3366 
z
" id="DejaVuSans-63" transform="scale(0.015625)"/>
      </defs>
      <use xlink:href="#DejaVuSans-46"/>
      <use x="57.519531" xlink:href="#DejaVuSans-31"/>
      <use x="121.142578" xlink:href="#DejaVuSans-20"/>
      <use x="152.929688" xlink:href="#DejaVuSans-73"/>
      <use x="205.029297" xlink:href="#DejaVuSans-63"/>
      <use x="260.009766" xlink:href="#DejaVuSans-6f"/>
      <use x="321.191406" xlink:href="#DejaVuSans-72"/>
      <use x="360.054688" xlink:href="#DejaVuSans-65"/>
     </g>
    </g>
   </g>
   <g id="line2d_14">
    <path clip-path="url(#pdd67b1afd3)" d="M 92.290909 154.608512 
L 96.357224 154.518992 
L 102.456695 153.921805 
L 107.336273 152.995144 
L 108.149535 152.835849 
L 109.36943 152.693774 
L 110.182693 152.542324 
L 110.995956 152.408264 
L 123.60153 150.348114 
L 124.414793 150.742783 
L 125.634688 150.578888 
L 126.44795 150.372013 
L 127.261213 150.272947 
L 132.547422 149.154421 
L 133.360685 149.033308 
L 134.173948 148.760865 
L 137.833631 147.983517 
L 138.646894 147.544925 
L 139.460157 147.268723 
L 139.866788 147.167886 
L 140.680051 146.84376 
L 141.086682 146.84376 
L 142.713208 146.302032 
L 143.11984 146.219726 
L 143.933103 145.857969 
L 147.186154 145.052416 
L 148.406048 144.4954 
L 149.625943 144.217171 
L 150.032574 144.104359 
L 150.845837 143.715594 
L 154.098889 142.879141 
L 154.50552 142.658111 
L 155.318783 142.475018 
L 161.418255 140.560146 
L 161.824886 140.636674 
L 162.231518 140.462828 
L 162.638149 140.649811 
L 163.04478 140.387999 
L 163.451412 140.300428 
L 163.858043 140.007433 
L 164.671306 139.647686 
L 165.891201 139.094316 
L 166.704463 138.854465 
L 167.924358 138.341055 
L 169.957515 137.292572 
L 170.364146 137.344579 
L 173.210567 136.030767 
L 175.650355 135.086785 
L 176.056987 135.328012 
L 176.87025 135.068518 
L 177.276881 134.696552 
L 177.683512 134.591675 
L 178.903407 133.838461 
L 179.310038 134.002065 
L 179.71667 133.875452 
L 180.123301 133.919362 
L 180.936564 133.550203 
L 181.749827 133.320734 
L 182.156458 132.879331 
L 182.969721 132.406828 
L 183.376353 132.013406 
L 184.189616 131.763472 
L 187.442667 130.218249 
L 187.849299 130.153821 
L 188.662561 129.273079 
L 190.289087 128.393152 
L 192.322244 127.318954 
L 193.135507 126.804609 
L 193.542139 127.54801 
L 193.94877 127.426629 
L 194.762033 126.877217 
L 195.168665 126.700599 
L 195.981927 126.082038 
L 196.79519 126.383872 
L 197.201822 126.20449 
L 198.015085 125.662993 
L 198.828348 125.33883 
L 199.64161 124.869173 
L 200.048242 124.773186 
L 201.268136 123.853417 
L 201.674768 123.868537 
L 202.081399 124.071702 
L 202.488031 123.744459 
L 202.894662 123.596608 
L 203.301293 123.767559 
L 204.114556 123.038902 
L 204.927819 122.763337 
L 205.334451 122.528522 
L 205.741082 122.929815 
L 206.147714 122.854114 
L 208.180871 121.749834 
L 208.587502 122.393353 
L 208.994134 122.617833 
L 209.400765 122.361049 
L 209.807397 122.388758 
L 210.214028 122.181885 
L 211.433922 122.507757 
L 212.247185 122.176938 
L 212.653817 121.650849 
L 213.060448 121.492121 
L 213.873711 120.790508 
L 214.280343 120.629503 
L 214.686974 120.18904 
L 215.093605 120.327644 
L 215.500237 120.276673 
L 215.906868 120.040267 
L 216.3135 119.958221 
L 216.720131 119.6381 
L 217.126763 119.786134 
L 217.533394 119.426989 
L 217.940026 119.390069 
L 218.753288 118.943216 
L 219.15992 118.446021 
L 219.566551 118.219553 
L 219.973183 118.600116 
L 221.193077 118.101112 
L 221.599709 118.393592 
L 222.00634 117.778152 
L 222.412971 118.004426 
L 222.819603 118.037953 
L 223.632866 117.267158 
L 224.039497 117.475441 
L 224.446129 117.347625 
L 225.259392 116.555254 
L 225.666023 116.564231 
L 226.072654 116.263388 
L 226.479286 116.36206 
L 226.885917 116.228659 
L 227.69918 115.617604 
L 228.105812 114.855749 
L 228.919075 114.861128 
L 229.732337 114.305566 
L 230.5456 113.83004 
L 230.952232 113.967036 
L 231.358863 113.379978 
L 232.172126 112.776695 
L 232.985389 112.156804 
L 233.39202 111.773216 
L 233.798652 112.017073 
L 234.205283 111.442879 
L 235.018546 110.941873 
L 236.238441 109.575472 
L 237.458335 108.621609 
L 238.271598 107.653918 
L 238.678229 107.418638 
L 239.084861 108.060469 
L 239.898124 108.282133 
L 240.711386 107.269951 
L 241.118018 107.397507 
L 241.931281 107.054313 
L 242.744544 106.199645 
L 243.151175 106.079236 
L 243.964438 104.982966 
L 244.777701 104.542023 
L 245.590964 103.958166 
L 245.997595 103.80504 
L 246.404227 103.43358 
L 246.810858 103.657149 
L 247.21749 103.412499 
L 247.624121 103.927071 
L 248.844015 102.781783 
L 249.657278 102.215222 
L 250.877173 100.866166 
L 251.283804 100.365423 
L 251.690435 100.46663 
L 252.097067 99.988407 
L 252.91033 100.506631 
L 253.316961 100.38899 
L 253.723593 100.464257 
L 254.130224 101.129971 
L 254.536856 101.180737 
L 254.943487 100.7213 
L 255.75675 99.424486 
L 256.163381 99.340827 
L 256.570013 99.847378 
L 256.976644 99.718369 
L 257.383276 99.430841 
L 257.789907 99.970694 
L 258.196539 99.681721 
L 258.60317 99.085639 
L 259.009801 98.705043 
L 259.416433 97.967406 
L 259.823064 98.007918 
L 260.229696 98.806181 
L 261.042959 98.371886 
L 261.44959 97.81462 
L 261.856222 98.037158 
L 262.262853 97.483695 
L 262.669484 97.569547 
L 263.482747 97.036523 
L 264.29601 95.575355 
L 264.702642 95.991763 
L 265.109273 95.784494 
L 265.515905 94.965652 
L 266.329167 93.908652 
L 267.14243 93.316676 
L 268.768956 91.376611 
L 269.175588 91.002946 
L 269.582219 90.215629 
L 269.98885 90.755072 
L 270.395482 90.166724 
L 270.802113 92.0074 
L 271.208745 91.851847 
L 271.615376 91.904374 
L 272.428639 90.501835 
L 272.835271 90.460342 
L 273.241902 90.721799 
L 274.055165 89.916128 
L 274.868428 88.791942 
L 275.275059 88.906083 
L 275.681691 88.465032 
L 276.088322 88.356461 
L 277.308216 86.934145 
L 277.714848 86.625239 
L 278.528111 85.473595 
L 278.934742 84.735356 
L 279.341374 85.130779 
L 279.748005 84.724054 
L 280.154637 83.991445 
L 280.967899 83.972703 
L 281.374531 83.428423 
L 281.781162 83.080054 
L 282.187794 83.892896 
L 282.594425 83.9136 
L 283.001057 83.296184 
L 283.81432 82.569745 
L 284.220951 82.85618 
L 284.627582 82.493673 
L 285.440845 81.047391 
L 285.847477 80.249379 
L 286.254108 79.99093 
L 287.067371 78.624642 
L 287.474003 79.020895 
L 287.880634 78.749577 
L 288.287265 79.32774 
L 289.100528 79.27975 
L 289.50716 78.755353 
L 290.727054 75.250755 
L 291.133686 77.170613 
L 291.540317 76.528616 
L 291.946948 77.360004 
L 292.35358 77.611769 
L 292.760211 76.890574 
L 293.166843 75.404468 
L 293.573474 77.48216 
L 293.980106 76.625072 
L 294.386737 78.187081 
L 294.793369 77.174257 
L 295.2 77.185791 
L 295.606631 77.473362 
L 296.013263 80.146729 
L 296.419894 80.951497 
L 296.826526 80.052948 
L 297.233157 80.841747 
L 297.639789 80.438434 
L 298.04642 80.34173 
L 298.859683 80.402241 
L 299.266314 79.835731 
L 299.672946 79.496177 
L 300.079577 78.680709 
L 300.89284 79.838871 
L 301.299472 79.813928 
L 302.112735 78.98321 
L 302.519366 78.979568 
L 302.925997 78.702247 
L 303.332629 78.614013 
L 303.73926 77.948693 
L 304.145892 77.742111 
L 304.552523 78.265638 
L 304.959155 78.42665 
L 305.365786 79.3773 
L 305.772418 79.2623 
L 306.179049 78.944655 
L 306.58568 77.728252 
L 306.992312 76.907192 
L 307.398943 76.978428 
L 307.805575 76.234162 
L 308.212206 74.755764 
L 309.432101 71.759574 
L 309.838732 70.994212 
L 310.245363 70.934368 
L 310.651995 70.384697 
L 311.058626 69.530474 
L 311.871889 70.551529 
L 312.278521 70.219744 
L 312.685152 69.514974 
L 313.091784 69.949643 
L 313.498415 69.9813 
L 314.311678 68.091971 
L 314.718309 68.390749 
L 315.124941 67.162386 
L 315.531572 67.104531 
L 316.344835 65.232747 
L 317.158098 65.637683 
L 317.564729 67.466126 
L 318.377992 65.758962 
L 318.784624 65.422414 
L 319.191255 63.893589 
L 319.597887 65.078465 
L 320.004518 64.341938 
L 320.41115 64.060297 
L 321.224412 62.111504 
L 321.631044 63.400994 
L 322.037675 62.714404 
L 322.444307 64.747469 
L 322.850938 65.029292 
L 323.25757 65.682208 
L 323.664201 63.662285 
L 324.070833 63.160539 
L 324.477464 61.85121 
L 324.884095 59.959565 
L 325.290727 59.389232 
L 325.697358 61.155109 
L 326.10399 64.28176 
L 326.510621 63.304382 
L 326.917253 67.184321 
L 327.323884 67.862158 
L 327.730516 66.088127 
L 328.137147 67.084222 
L 328.543778 66.557889 
L 329.357041 64.400136 
L 329.763673 64.204897 
L 330.170304 63.355001 
L 330.576936 63.433609 
L 330.983567 62.471915 
L 331.390199 62.884522 
L 331.79683 64.117832 
L 332.203461 63.628691 
L 332.610093 63.959498 
L 333.016724 62.517536 
L 333.423356 62.845116 
L 334.236619 60.547422 
L 334.64325 65.589059 
L 335.049882 65.643865 
L 335.456513 66.795323 
L 335.863144 64.758528 
L 336.269776 64.440967 
L 336.676407 61.858945 
L 337.083039 61.492333 
L 337.48967 60.546366 
L 337.896302 58.966515 
L 338.302933 59.758699 
L 338.709565 60.159816 
L 339.116196 58.714799 
L 339.522827 56.712341 
L 339.929459 55.393166 
L 340.33609 54.665674 
L 340.742722 53.069826 
L 341.962616 50.560914 
L 342.369248 50.306355 
L 342.775879 50.457832 
L 343.18251 54.30511 
L 343.589142 52.567904 
L 343.995773 54.307943 
L 345.215668 50.721785 
L 345.622299 52.900854 
L 346.435562 54.857965 
L 346.842193 56.295334 
L 347.248825 54.177521 
L 347.655456 52.785381 
L 348.062088 57.138298 
L 348.468719 56.581554 
L 348.875351 54.606278 
L 349.281982 53.890591 
L 350.095245 49.854561 
L 350.501876 49.554269 
L 350.908508 51.873802 
L 351.315139 52.678806 
L 351.721771 49.997724 
L 352.128402 54.947131 
L 352.535034 54.331949 
L 352.941665 55.190038 
L 353.348297 54.568246 
L 353.754928 55.046511 
L 354.161559 51.847368 
L 354.568191 50.454357 
L 355.381454 52.032477 
L 355.788085 54.92961 
L 356.601348 51.798548 
L 357.00798 49.534933 
L 357.414611 51.326035 
L 357.821242 50.267559 
L 358.227874 48.747787 
L 358.634505 50.028565 
L 359.041137 49.304048 
L 359.447768 51.329962 
L 359.8544 50.056841 
L 360.261031 47.646827 
L 360.667663 46.038077 
L 361.074294 46.393072 
L 361.480925 44.443636 
L 362.294188 49.49577 
L 362.70082 49.004892 
L 363.107451 46.714245 
L 363.514083 45.088435 
L 364.327346 51.655529 
L 364.733977 50.730962 
L 365.140608 48.326885 
L 365.54724 50.354685 
L 366.360503 47.139006 
L 366.767134 46.702082 
L 367.173766 52.484378 
L 367.580397 51.302536 
L 367.987029 49.556954 
L 368.39366 57.229892 
L 368.800291 56.259642 
L 369.206923 54.288268 
L 369.613554 55.634411 
L 370.020186 55.07675 
L 370.426817 55.889168 
L 370.833449 54.062291 
L 371.24008 53.135346 
L 371.646712 55.228763 
L 372.053343 52.757328 
L 372.459974 57.895519 
L 372.866606 56.831343 
L 373.273237 58.092913 
L 373.679869 62.533129 
L 374.0865 61.574713 
L 374.493132 58.512609 
L 374.899763 60.622611 
L 375.306395 59.116439 
L 375.713026 56.67986 
L 376.119657 55.765736 
L 376.526289 65.990819 
L 376.93292 69.423098 
L 377.339552 71.412087 
L 377.746183 69.781554 
L 378.152815 75.684359 
L 378.559446 83.254851 
L 378.966078 82.773817 
L 379.372709 86.026699 
L 379.77934 83.483733 
L 380.185972 82.741881 
L 380.592603 85.845956 
L 380.999235 85.35221 
L 381.405866 84.480607 
L 381.812498 82.963663 
L 382.219129 82.451506 
L 382.625761 85.780559 
L 383.439024 82.407339 
L 383.845655 79.985466 
L 384.252286 92.538965 
L 384.658918 91.505616 
L 385.065549 90.85249 
L 385.878812 88.588858 
L 386.285444 87.910134 
L 387.098707 85.275315 
L 387.505338 83.99556 
L 387.911969 83.99556 
L 388.725232 79.118937 
L 389.131864 77.891085 
L 389.538495 77.270195 
L 390.351758 74.738968 
L 390.75839 71.962953 
L 391.165021 75.225181 
L 391.978284 73.72316 
L 392.384915 72.706702 
L 392.791547 81.412235 
L 393.60481 74.880944 
L 394.418073 71.969337 
L 394.824704 75.245027 
L 395.637967 73.561348 
L 396.044598 71.068497 
L 396.45123 70.873682 
L 396.857861 74.087223 
L 397.264493 74.087223 
L 397.671124 80.335091 
L 398.077756 78.999632 
L 398.484387 91.045906 
L 398.891018 91.045906 
L 399.29765 90.136938 
L 399.704281 90.136938 
L 400.110913 89.953831 
L 400.517544 87.343199 
L 400.924176 93.253914 
L 401.737439 91.952993 
L 402.14407 91.765289 
L 402.550701 110.704114 
L 402.957333 109.854099 
L 403.363964 123.574124 
L 403.770596 122.314711 
L 404.99049 116.474797 
L 406.210384 114.158002 
L 406.617016 113.244014 
L 407.023647 118.297832 
L 407.430279 116.637077 
L 407.83691 113.963241 
L 408.243542 112.782106 
L 408.650173 111.982513 
L 409.056805 119.573168 
L 409.463436 119.573168 
L 410.276699 115.811745 
L 410.68333 114.158002 
L 411.089962 113.314784 
L 411.496593 113.10224 
L 412.309856 110.717105 
L 412.716488 108.012489 
L 413.123119 106.146696 
L 413.52975 103.248586 
L 413.936382 98.924864 
L 414.343013 98.662128 
L 414.749645 107.724342 
L 415.156276 107.47361 
L 415.969539 105.433569 
L 416.782802 101.162231 
L 417.189433 100.052356 
L 417.596065 100.052356 
L 418.002696 110.857489 
L 418.409328 109.807418 
L 418.815959 109.807418 
L 419.629222 107.656053 
L 420.035854 107.656053 
L 420.442485 106.831143 
L 420.849116 106.831143 
L 421.255748 105.715389 
L 421.662379 116.035798 
L 422.069011 114.969578 
L 422.475642 114.969578 
L 422.882274 113.88517 
L 423.695537 113.88517 
L 424.102168 113.611172 
L 424.915431 113.611172 
L 425.322062 113.336 
L 426.135325 111.091462 
L 426.541957 108.767295 
L 426.948588 121.02825 
L 427.35522 118.821633 
L 428.575114 118.821633 
L 429.388377 116.5331 
L 429.795008 116.5331 
L 430.20164 115.356676 
L 431.014903 115.356676 
L 431.421534 128.375598 
L 431.828165 126.183005 
L 432.234797 125.902973 
L 433.04806 123.320453 
L 433.454691 123.320453 
L 433.861323 137.13307 
L 434.267954 134.722739 
L 435.89448 134.722739 
L 436.301111 132.485372 
L 436.707743 132.485372 
L 437.114374 162.142388 
L 437.521006 162.142388 
L 437.927637 161.282453 
L 438.334269 161.282453 
L 438.7409 159.505883 
L 439.554163 191.293465 
L 440.367426 191.293465 
L 441.180689 190.121756 
L 441.58732 206.635284 
L 442.400583 206.635284 
L 442.807214 224.163997 
L 448.093423 224.163997 
L 448.906686 223.724795 
L 450.12658 223.724795 
L 450.533212 223.497036 
L 450.939843 223.497036 
L 451.346475 223.204279 
L 458.665841 223.204279 
L 459.072472 223.024164 
L 462.325524 223.024164 
L 462.732155 222.716225 
L 464.765312 222.716225 
L 465.171944 222.526647 
L 470.458153 222.526647 
L 470.864784 242.116364 
L 498.109091 242.116364 
L 498.109091 242.116364 
" style="fill:none;stroke:#1f77b4;stroke-linecap:square;stroke-width:1.5;"/>
   </g>
   <g id="patch_3">
    <path d="M 72 252 
L 72 34.56 
" style="fill:none;stroke:#000000;stroke-linecap:square;stroke-linejoin:miter;stroke-width:0.8;"/>
   </g>
   <g id="patch_4">
    <path d="M 518.4 252 
L 518.4 34.56 
" style="fill:none;stroke:#000000;stroke-linecap:square;stroke-linejoin:miter;stroke-width:0.8;"/>
   </g>
   <g id="patch_5">
    <path d="M 72 252 
L 518.4 252 
" style="fill:none;stroke:#000000;stroke-linecap:square;stroke-linejoin:miter;stroke-width:0.8;"/>
   </g>
   <g id="patch_6">
    <path d="M 72 34.56 
L 518.4 34.56 
" style="fill:none;stroke:#000000;stroke-linecap:square;stroke-linejoin:miter;stroke-width:0.8;"/>
   </g>
   <g id="text_16">
    <!-- IZTACALCO -->
    <g transform="translate(272.780625 28.56)scale(0.08 -0.08)">
     <defs>
      <path d="M 628 4666 
L 1259 4666 
L 1259 0 
L 628 0 
L 628 4666 
z
" id="DejaVuSans-49" transform="scale(0.015625)"/>
      <path d="M 359 4666 
L 4025 4666 
L 4025 4184 
L 1075 531 
L 4097 531 
L 4097 0 
L 288 0 
L 288 481 
L 3238 4134 
L 359 4134 
L 359 4666 
z
" id="DejaVuSans-5a" transform="scale(0.015625)"/>
      <path d="M 2188 4044 
L 1331 1722 
L 3047 1722 
L 2188 4044 
z
M 1831 4666 
L 2547 4666 
L 4325 0 
L 3669 0 
L 3244 1197 
L 1141 1197 
L 716 0 
L 50 0 
L 1831 4666 
z
" id="DejaVuSans-41" transform="scale(0.015625)"/>
      <path d="M 4122 4306 
L 4122 3641 
Q 3803 3938 3442 4084 
Q 3081 4231 2675 4231 
Q 1875 4231 1450 3742 
Q 1025 3253 1025 2328 
Q 1025 1406 1450 917 
Q 1875 428 2675 428 
Q 3081 428 3442 575 
Q 3803 722 4122 1019 
L 4122 359 
Q 3791 134 3420 21 
Q 3050 -91 2638 -91 
Q 1578 -91 968 557 
Q 359 1206 359 2328 
Q 359 3453 968 4101 
Q 1578 4750 2638 4750 
Q 3056 4750 3426 4639 
Q 3797 4528 4122 4306 
z
" id="DejaVuSans-43" transform="scale(0.015625)"/>
      <path d="M 628 4666 
L 1259 4666 
L 1259 531 
L 3531 531 
L 3531 0 
L 628 0 
L 628 4666 
z
" id="DejaVuSans-4c" transform="scale(0.015625)"/>
      <path d="M 2522 4238 
Q 1834 4238 1429 3725 
Q 1025 3213 1025 2328 
Q 1025 1447 1429 934 
Q 1834 422 2522 422 
Q 3209 422 3611 934 
Q 4013 1447 4013 2328 
Q 4013 3213 3611 3725 
Q 3209 4238 2522 4238 
z
M 2522 4750 
Q 3503 4750 4090 4092 
Q 4678 3434 4678 2328 
Q 4678 1225 4090 567 
Q 3503 -91 2522 -91 
Q 1538 -91 948 565 
Q 359 1222 359 2328 
Q 359 3434 948 4092 
Q 1538 4750 2522 4750 
z
" id="DejaVuSans-4f" transform="scale(0.015625)"/>
     </defs>
     <use xlink:href="#DejaVuSans-49"/>
     <use x="29.492188" xlink:href="#DejaVuSans-5a"/>
     <use x="97.998047" xlink:href="#DejaVuSans-54"/>
     <use x="151.332031" xlink:href="#DejaVuSans-41"/>
     <use x="217.990234" xlink:href="#DejaVuSans-43"/>
     <use x="287.814453" xlink:href="#DejaVuSans-41"/>
     <use x="356.222656" xlink:href="#DejaVuSans-4c"/>
     <use x="411.935547" xlink:href="#DejaVuSans-43"/>
     <use x="481.759766" xlink:href="#DejaVuSans-4f"/>
    </g>
   </g>
  </g>
  <g id="text_17">
   <!-- F1 score curve -->
   <g transform="translate(229.31625 17.9175)scale(0.16 -0.16)">
    <defs>
     <path d="M 544 1381 
L 544 3500 
L 1119 3500 
L 1119 1403 
Q 1119 906 1312 657 
Q 1506 409 1894 409 
Q 2359 409 2629 706 
Q 2900 1003 2900 1516 
L 2900 3500 
L 3475 3500 
L 3475 0 
L 2900 0 
L 2900 538 
Q 2691 219 2414 64 
Q 2138 -91 1772 -91 
Q 1169 -91 856 284 
Q 544 659 544 1381 
z
M 1991 3584 
L 1991 3584 
z
" id="DejaVuSans-75" transform="scale(0.015625)"/>
     <path d="M 191 3500 
L 800 3500 
L 1894 563 
L 2988 3500 
L 3597 3500 
L 2284 0 
L 1503 0 
L 191 3500 
z
" id="DejaVuSans-76" transform="scale(0.015625)"/>
    </defs>
    <use xlink:href="#DejaVuSans-46"/>
    <use x="57.519531" xlink:href="#DejaVuSans-31"/>
    <use x="121.142578" xlink:href="#DejaVuSans-20"/>
    <use x="152.929688" xlink:href="#DejaVuSans-73"/>
    <use x="205.029297" xlink:href="#DejaVuSans-63"/>
    <use x="260.009766" xlink:href="#DejaVuSans-6f"/>
    <use x="321.191406" xlink:href="#DejaVuSans-72"/>
    <use x="360.054688" xlink:href="#DejaVuSans-65"/>
    <use x="421.578125" xlink:href="#DejaVuSans-20"/>
    <use x="453.365234" xlink:href="#DejaVuSans-63"/>
    <use x="508.345703" xlink:href="#DejaVuSans-75"/>
    <use x="571.724609" xlink:href="#DejaVuSans-72"/>
    <use x="612.837891" xlink:href="#DejaVuSans-76"/>
    <use x="672.017578" xlink:href="#DejaVuSans-65"/>
   </g>
  </g>
 </g>
 <defs>
  <clipPath id="pdd67b1afd3">
   <rect height="217.44" width="446.4" x="72" y="34.56"/>
  </clipPath>
 </defs>
</svg>
