<?xml version="1.0" encoding="utf-8" standalone="no"?>
<!DOCTYPE svg PUBLIC "-//W3C//DTD SVG 1.1//EN"
  "http://www.w3.org/Graphics/SVG/1.1/DTD/svg11.dtd">
<svg height="288pt" version="1.1" viewBox="0 0 576 288" width="576pt" xmlns="http://www.w3.org/2000/svg" xmlns:xlink="http://www.w3.org/1999/xlink">
 <metadata>
  <rdf:RDF xmlns:cc="http://creativecommons.org/ns#" xmlns:dc="http://purl.org/dc/elements/1.1/" xmlns:rdf="http://www.w3.org/1999/02/22-rdf-syntax-ns#">
   <cc:Work>
    <dc:type rdf:resource="http://purl.org/dc/dcmitype/StillImage"/>
    <dc:date>2022-01-04T20:32:52.934869</dc:date>
    <dc:format>image/svg+xml</dc:format>
    <dc:creator>
     <cc:Agent>
      <dc:title>Matplotlib v3.4.3, https://matplotlib.org/</dc:title>
     </cc:Agent>
    </dc:creator>
   </cc:Work>
  </rdf:RDF>
 </metadata>
 <defs>
  <style type="text/css">*{stroke-linecap:butt;stroke-linejoin:round;}</style>
 </defs>
 <g id="figure_1">
  <g id="patch_1">
   <path d="M 0 288 
L 576 288 
L 576 0 
L 0 0 
z
" style="fill:none;"/>
  </g>
  <g id="axes_1">
   <g id="patch_2">
    <path d="M 72 252 
L 518.4 252 
L 518.4 34.56 
L 72 34.56 
z
" style="fill:#ffffff;"/>
   </g>
   <g id="matplotlib.axis_1">
    <g id="xtick_1">
     <g id="line2d_1">
      <defs>
       <path d="M 0 0 
L 0 3.5 
" id="m45a9b30878" style="stroke:#000000;stroke-width:0.8;"/>
      </defs>
      <g>
       <use style="stroke:#000000;stroke-width:0.8;" x="91.884278" xlink:href="#m45a9b30878" y="252"/>
      </g>
     </g>
     <g id="text_1">
      <!-- 0.0 -->
      <g transform="translate(83.932715 266.598437)scale(0.1 -0.1)">
       <defs>
        <path d="M 2034 4250 
Q 1547 4250 1301 3770 
Q 1056 3291 1056 2328 
Q 1056 1369 1301 889 
Q 1547 409 2034 409 
Q 2525 409 2770 889 
Q 3016 1369 3016 2328 
Q 3016 3291 2770 3770 
Q 2525 4250 2034 4250 
z
M 2034 4750 
Q 2819 4750 3233 4129 
Q 3647 3509 3647 2328 
Q 3647 1150 3233 529 
Q 2819 -91 2034 -91 
Q 1250 -91 836 529 
Q 422 1150 422 2328 
Q 422 3509 836 4129 
Q 1250 4750 2034 4750 
z
" id="DejaVuSans-30" transform="scale(0.015625)"/>
        <path d="M 684 794 
L 1344 794 
L 1344 0 
L 684 0 
L 684 794 
z
" id="DejaVuSans-2e" transform="scale(0.015625)"/>
       </defs>
       <use xlink:href="#DejaVuSans-30"/>
       <use x="63.623047" xlink:href="#DejaVuSans-2e"/>
       <use x="95.410156" xlink:href="#DejaVuSans-30"/>
      </g>
     </g>
    </g>
    <g id="xtick_2">
     <g id="line2d_2">
      <g>
       <use style="stroke:#000000;stroke-width:0.8;" x="173.210567" xlink:href="#m45a9b30878" y="252"/>
      </g>
     </g>
     <g id="text_2">
      <!-- 0.2 -->
      <g transform="translate(165.259004 266.598437)scale(0.1 -0.1)">
       <defs>
        <path d="M 1228 531 
L 3431 531 
L 3431 0 
L 469 0 
L 469 531 
Q 828 903 1448 1529 
Q 2069 2156 2228 2338 
Q 2531 2678 2651 2914 
Q 2772 3150 2772 3378 
Q 2772 3750 2511 3984 
Q 2250 4219 1831 4219 
Q 1534 4219 1204 4116 
Q 875 4013 500 3803 
L 500 4441 
Q 881 4594 1212 4672 
Q 1544 4750 1819 4750 
Q 2544 4750 2975 4387 
Q 3406 4025 3406 3419 
Q 3406 3131 3298 2873 
Q 3191 2616 2906 2266 
Q 2828 2175 2409 1742 
Q 1991 1309 1228 531 
z
" id="DejaVuSans-32" transform="scale(0.015625)"/>
       </defs>
       <use xlink:href="#DejaVuSans-30"/>
       <use x="63.623047" xlink:href="#DejaVuSans-2e"/>
       <use x="95.410156" xlink:href="#DejaVuSans-32"/>
      </g>
     </g>
    </g>
    <g id="xtick_3">
     <g id="line2d_3">
      <g>
       <use style="stroke:#000000;stroke-width:0.8;" x="254.536856" xlink:href="#m45a9b30878" y="252"/>
      </g>
     </g>
     <g id="text_3">
      <!-- 0.4 -->
      <g transform="translate(246.585293 266.598437)scale(0.1 -0.1)">
       <defs>
        <path d="M 2419 4116 
L 825 1625 
L 2419 1625 
L 2419 4116 
z
M 2253 4666 
L 3047 4666 
L 3047 1625 
L 3713 1625 
L 3713 1100 
L 3047 1100 
L 3047 0 
L 2419 0 
L 2419 1100 
L 313 1100 
L 313 1709 
L 2253 4666 
z
" id="DejaVuSans-34" transform="scale(0.015625)"/>
       </defs>
       <use xlink:href="#DejaVuSans-30"/>
       <use x="63.623047" xlink:href="#DejaVuSans-2e"/>
       <use x="95.410156" xlink:href="#DejaVuSans-34"/>
      </g>
     </g>
    </g>
    <g id="xtick_4">
     <g id="line2d_4">
      <g>
       <use style="stroke:#000000;stroke-width:0.8;" x="335.863144" xlink:href="#m45a9b30878" y="252"/>
      </g>
     </g>
     <g id="text_4">
      <!-- 0.6 -->
      <g transform="translate(327.911582 266.598437)scale(0.1 -0.1)">
       <defs>
        <path d="M 2113 2584 
Q 1688 2584 1439 2293 
Q 1191 2003 1191 1497 
Q 1191 994 1439 701 
Q 1688 409 2113 409 
Q 2538 409 2786 701 
Q 3034 994 3034 1497 
Q 3034 2003 2786 2293 
Q 2538 2584 2113 2584 
z
M 3366 4563 
L 3366 3988 
Q 3128 4100 2886 4159 
Q 2644 4219 2406 4219 
Q 1781 4219 1451 3797 
Q 1122 3375 1075 2522 
Q 1259 2794 1537 2939 
Q 1816 3084 2150 3084 
Q 2853 3084 3261 2657 
Q 3669 2231 3669 1497 
Q 3669 778 3244 343 
Q 2819 -91 2113 -91 
Q 1303 -91 875 529 
Q 447 1150 447 2328 
Q 447 3434 972 4092 
Q 1497 4750 2381 4750 
Q 2619 4750 2861 4703 
Q 3103 4656 3366 4563 
z
" id="DejaVuSans-36" transform="scale(0.015625)"/>
       </defs>
       <use xlink:href="#DejaVuSans-30"/>
       <use x="63.623047" xlink:href="#DejaVuSans-2e"/>
       <use x="95.410156" xlink:href="#DejaVuSans-36"/>
      </g>
     </g>
    </g>
    <g id="xtick_5">
     <g id="line2d_5">
      <g>
       <use style="stroke:#000000;stroke-width:0.8;" x="417.189433" xlink:href="#m45a9b30878" y="252"/>
      </g>
     </g>
     <g id="text_5">
      <!-- 0.8 -->
      <g transform="translate(409.237871 266.598437)scale(0.1 -0.1)">
       <defs>
        <path d="M 2034 2216 
Q 1584 2216 1326 1975 
Q 1069 1734 1069 1313 
Q 1069 891 1326 650 
Q 1584 409 2034 409 
Q 2484 409 2743 651 
Q 3003 894 3003 1313 
Q 3003 1734 2745 1975 
Q 2488 2216 2034 2216 
z
M 1403 2484 
Q 997 2584 770 2862 
Q 544 3141 544 3541 
Q 544 4100 942 4425 
Q 1341 4750 2034 4750 
Q 2731 4750 3128 4425 
Q 3525 4100 3525 3541 
Q 3525 3141 3298 2862 
Q 3072 2584 2669 2484 
Q 3125 2378 3379 2068 
Q 3634 1759 3634 1313 
Q 3634 634 3220 271 
Q 2806 -91 2034 -91 
Q 1263 -91 848 271 
Q 434 634 434 1313 
Q 434 1759 690 2068 
Q 947 2378 1403 2484 
z
M 1172 3481 
Q 1172 3119 1398 2916 
Q 1625 2713 2034 2713 
Q 2441 2713 2670 2916 
Q 2900 3119 2900 3481 
Q 2900 3844 2670 4047 
Q 2441 4250 2034 4250 
Q 1625 4250 1398 4047 
Q 1172 3844 1172 3481 
z
" id="DejaVuSans-38" transform="scale(0.015625)"/>
       </defs>
       <use xlink:href="#DejaVuSans-30"/>
       <use x="63.623047" xlink:href="#DejaVuSans-2e"/>
       <use x="95.410156" xlink:href="#DejaVuSans-38"/>
      </g>
     </g>
    </g>
    <g id="xtick_6">
     <g id="line2d_6">
      <g>
       <use style="stroke:#000000;stroke-width:0.8;" x="498.515722" xlink:href="#m45a9b30878" y="252"/>
      </g>
     </g>
     <g id="text_6">
      <!-- 1.0 -->
      <g transform="translate(490.56416 266.598437)scale(0.1 -0.1)">
       <defs>
        <path d="M 794 531 
L 1825 531 
L 1825 4091 
L 703 3866 
L 703 4441 
L 1819 4666 
L 2450 4666 
L 2450 531 
L 3481 531 
L 3481 0 
L 794 0 
L 794 531 
z
" id="DejaVuSans-31" transform="scale(0.015625)"/>
       </defs>
       <use xlink:href="#DejaVuSans-31"/>
       <use x="63.623047" xlink:href="#DejaVuSans-2e"/>
       <use x="95.410156" xlink:href="#DejaVuSans-30"/>
      </g>
     </g>
    </g>
    <g id="text_7">
     <!-- Thresholds -->
     <g transform="translate(267.957031 280.276563)scale(0.1 -0.1)">
      <defs>
       <path d="M -19 4666 
L 3928 4666 
L 3928 4134 
L 2272 4134 
L 2272 0 
L 1638 0 
L 1638 4134 
L -19 4134 
L -19 4666 
z
" id="DejaVuSans-54" transform="scale(0.015625)"/>
       <path d="M 3513 2113 
L 3513 0 
L 2938 0 
L 2938 2094 
Q 2938 2591 2744 2837 
Q 2550 3084 2163 3084 
Q 1697 3084 1428 2787 
Q 1159 2491 1159 1978 
L 1159 0 
L 581 0 
L 581 4863 
L 1159 4863 
L 1159 2956 
Q 1366 3272 1645 3428 
Q 1925 3584 2291 3584 
Q 2894 3584 3203 3211 
Q 3513 2838 3513 2113 
z
" id="DejaVuSans-68" transform="scale(0.015625)"/>
       <path d="M 2631 2963 
Q 2534 3019 2420 3045 
Q 2306 3072 2169 3072 
Q 1681 3072 1420 2755 
Q 1159 2438 1159 1844 
L 1159 0 
L 581 0 
L 581 3500 
L 1159 3500 
L 1159 2956 
Q 1341 3275 1631 3429 
Q 1922 3584 2338 3584 
Q 2397 3584 2469 3576 
Q 2541 3569 2628 3553 
L 2631 2963 
z
" id="DejaVuSans-72" transform="scale(0.015625)"/>
       <path d="M 3597 1894 
L 3597 1613 
L 953 1613 
Q 991 1019 1311 708 
Q 1631 397 2203 397 
Q 2534 397 2845 478 
Q 3156 559 3463 722 
L 3463 178 
Q 3153 47 2828 -22 
Q 2503 -91 2169 -91 
Q 1331 -91 842 396 
Q 353 884 353 1716 
Q 353 2575 817 3079 
Q 1281 3584 2069 3584 
Q 2775 3584 3186 3129 
Q 3597 2675 3597 1894 
z
M 3022 2063 
Q 3016 2534 2758 2815 
Q 2500 3097 2075 3097 
Q 1594 3097 1305 2825 
Q 1016 2553 972 2059 
L 3022 2063 
z
" id="DejaVuSans-65" transform="scale(0.015625)"/>
       <path d="M 2834 3397 
L 2834 2853 
Q 2591 2978 2328 3040 
Q 2066 3103 1784 3103 
Q 1356 3103 1142 2972 
Q 928 2841 928 2578 
Q 928 2378 1081 2264 
Q 1234 2150 1697 2047 
L 1894 2003 
Q 2506 1872 2764 1633 
Q 3022 1394 3022 966 
Q 3022 478 2636 193 
Q 2250 -91 1575 -91 
Q 1294 -91 989 -36 
Q 684 19 347 128 
L 347 722 
Q 666 556 975 473 
Q 1284 391 1588 391 
Q 1994 391 2212 530 
Q 2431 669 2431 922 
Q 2431 1156 2273 1281 
Q 2116 1406 1581 1522 
L 1381 1569 
Q 847 1681 609 1914 
Q 372 2147 372 2553 
Q 372 3047 722 3315 
Q 1072 3584 1716 3584 
Q 2034 3584 2315 3537 
Q 2597 3491 2834 3397 
z
" id="DejaVuSans-73" transform="scale(0.015625)"/>
       <path d="M 1959 3097 
Q 1497 3097 1228 2736 
Q 959 2375 959 1747 
Q 959 1119 1226 758 
Q 1494 397 1959 397 
Q 2419 397 2687 759 
Q 2956 1122 2956 1747 
Q 2956 2369 2687 2733 
Q 2419 3097 1959 3097 
z
M 1959 3584 
Q 2709 3584 3137 3096 
Q 3566 2609 3566 1747 
Q 3566 888 3137 398 
Q 2709 -91 1959 -91 
Q 1206 -91 779 398 
Q 353 888 353 1747 
Q 353 2609 779 3096 
Q 1206 3584 1959 3584 
z
" id="DejaVuSans-6f" transform="scale(0.015625)"/>
       <path d="M 603 4863 
L 1178 4863 
L 1178 0 
L 603 0 
L 603 4863 
z
" id="DejaVuSans-6c" transform="scale(0.015625)"/>
       <path d="M 2906 2969 
L 2906 4863 
L 3481 4863 
L 3481 0 
L 2906 0 
L 2906 525 
Q 2725 213 2448 61 
Q 2172 -91 1784 -91 
Q 1150 -91 751 415 
Q 353 922 353 1747 
Q 353 2572 751 3078 
Q 1150 3584 1784 3584 
Q 2172 3584 2448 3432 
Q 2725 3281 2906 2969 
z
M 947 1747 
Q 947 1113 1208 752 
Q 1469 391 1925 391 
Q 2381 391 2643 752 
Q 2906 1113 2906 1747 
Q 2906 2381 2643 2742 
Q 2381 3103 1925 3103 
Q 1469 3103 1208 2742 
Q 947 2381 947 1747 
z
" id="DejaVuSans-64" transform="scale(0.015625)"/>
      </defs>
      <use xlink:href="#DejaVuSans-54"/>
      <use x="61.083984" xlink:href="#DejaVuSans-68"/>
      <use x="124.462891" xlink:href="#DejaVuSans-72"/>
      <use x="163.326172" xlink:href="#DejaVuSans-65"/>
      <use x="224.849609" xlink:href="#DejaVuSans-73"/>
      <use x="276.949219" xlink:href="#DejaVuSans-68"/>
      <use x="340.328125" xlink:href="#DejaVuSans-6f"/>
      <use x="401.509766" xlink:href="#DejaVuSans-6c"/>
      <use x="429.292969" xlink:href="#DejaVuSans-64"/>
      <use x="492.769531" xlink:href="#DejaVuSans-73"/>
     </g>
    </g>
   </g>
   <g id="matplotlib.axis_2">
    <g id="ytick_1">
     <g id="line2d_7">
      <defs>
       <path d="M 0 0 
L -3.5 0 
" id="me69e9b3900" style="stroke:#000000;stroke-width:0.8;"/>
      </defs>
      <g>
       <use style="stroke:#000000;stroke-width:0.8;" x="72" xlink:href="#me69e9b3900" y="242.116364"/>
      </g>
     </g>
     <g id="text_8">
      <!-- 0.00 -->
      <g transform="translate(42.734375 245.915582)scale(0.1 -0.1)">
       <use xlink:href="#DejaVuSans-30"/>
       <use x="63.623047" xlink:href="#DejaVuSans-2e"/>
       <use x="95.410156" xlink:href="#DejaVuSans-30"/>
       <use x="159.033203" xlink:href="#DejaVuSans-30"/>
      </g>
     </g>
    </g>
    <g id="ytick_2">
     <g id="line2d_8">
      <g>
       <use style="stroke:#000000;stroke-width:0.8;" x="72" xlink:href="#me69e9b3900" y="215.235313"/>
      </g>
     </g>
     <g id="text_9">
      <!-- 0.01 -->
      <g transform="translate(42.734375 219.034532)scale(0.1 -0.1)">
       <use xlink:href="#DejaVuSans-30"/>
       <use x="63.623047" xlink:href="#DejaVuSans-2e"/>
       <use x="95.410156" xlink:href="#DejaVuSans-30"/>
       <use x="159.033203" xlink:href="#DejaVuSans-31"/>
      </g>
     </g>
    </g>
    <g id="ytick_3">
     <g id="line2d_9">
      <g>
       <use style="stroke:#000000;stroke-width:0.8;" x="72" xlink:href="#me69e9b3900" y="188.354263"/>
      </g>
     </g>
     <g id="text_10">
      <!-- 0.02 -->
      <g transform="translate(42.734375 192.153481)scale(0.1 -0.1)">
       <use xlink:href="#DejaVuSans-30"/>
       <use x="63.623047" xlink:href="#DejaVuSans-2e"/>
       <use x="95.410156" xlink:href="#DejaVuSans-30"/>
       <use x="159.033203" xlink:href="#DejaVuSans-32"/>
      </g>
     </g>
    </g>
    <g id="ytick_4">
     <g id="line2d_10">
      <g>
       <use style="stroke:#000000;stroke-width:0.8;" x="72" xlink:href="#me69e9b3900" y="161.473212"/>
      </g>
     </g>
     <g id="text_11">
      <!-- 0.03 -->
      <g transform="translate(42.734375 165.272431)scale(0.1 -0.1)">
       <defs>
        <path d="M 2597 2516 
Q 3050 2419 3304 2112 
Q 3559 1806 3559 1356 
Q 3559 666 3084 287 
Q 2609 -91 1734 -91 
Q 1441 -91 1130 -33 
Q 819 25 488 141 
L 488 750 
Q 750 597 1062 519 
Q 1375 441 1716 441 
Q 2309 441 2620 675 
Q 2931 909 2931 1356 
Q 2931 1769 2642 2001 
Q 2353 2234 1838 2234 
L 1294 2234 
L 1294 2753 
L 1863 2753 
Q 2328 2753 2575 2939 
Q 2822 3125 2822 3475 
Q 2822 3834 2567 4026 
Q 2313 4219 1838 4219 
Q 1578 4219 1281 4162 
Q 984 4106 628 3988 
L 628 4550 
Q 988 4650 1302 4700 
Q 1616 4750 1894 4750 
Q 2613 4750 3031 4423 
Q 3450 4097 3450 3541 
Q 3450 3153 3228 2886 
Q 3006 2619 2597 2516 
z
" id="DejaVuSans-33" transform="scale(0.015625)"/>
       </defs>
       <use xlink:href="#DejaVuSans-30"/>
       <use x="63.623047" xlink:href="#DejaVuSans-2e"/>
       <use x="95.410156" xlink:href="#DejaVuSans-30"/>
       <use x="159.033203" xlink:href="#DejaVuSans-33"/>
      </g>
     </g>
    </g>
    <g id="ytick_5">
     <g id="line2d_11">
      <g>
       <use style="stroke:#000000;stroke-width:0.8;" x="72" xlink:href="#me69e9b3900" y="134.592162"/>
      </g>
     </g>
     <g id="text_12">
      <!-- 0.04 -->
      <g transform="translate(42.734375 138.39138)scale(0.1 -0.1)">
       <use xlink:href="#DejaVuSans-30"/>
       <use x="63.623047" xlink:href="#DejaVuSans-2e"/>
       <use x="95.410156" xlink:href="#DejaVuSans-30"/>
       <use x="159.033203" xlink:href="#DejaVuSans-34"/>
      </g>
     </g>
    </g>
    <g id="ytick_6">
     <g id="line2d_12">
      <g>
       <use style="stroke:#000000;stroke-width:0.8;" x="72" xlink:href="#me69e9b3900" y="107.711111"/>
      </g>
     </g>
     <g id="text_13">
      <!-- 0.05 -->
      <g transform="translate(42.734375 111.51033)scale(0.1 -0.1)">
       <defs>
        <path d="M 691 4666 
L 3169 4666 
L 3169 4134 
L 1269 4134 
L 1269 2991 
Q 1406 3038 1543 3061 
Q 1681 3084 1819 3084 
Q 2600 3084 3056 2656 
Q 3513 2228 3513 1497 
Q 3513 744 3044 326 
Q 2575 -91 1722 -91 
Q 1428 -91 1123 -41 
Q 819 9 494 109 
L 494 744 
Q 775 591 1075 516 
Q 1375 441 1709 441 
Q 2250 441 2565 725 
Q 2881 1009 2881 1497 
Q 2881 1984 2565 2268 
Q 2250 2553 1709 2553 
Q 1456 2553 1204 2497 
Q 953 2441 691 2322 
L 691 4666 
z
" id="DejaVuSans-35" transform="scale(0.015625)"/>
       </defs>
       <use xlink:href="#DejaVuSans-30"/>
       <use x="63.623047" xlink:href="#DejaVuSans-2e"/>
       <use x="95.410156" xlink:href="#DejaVuSans-30"/>
       <use x="159.033203" xlink:href="#DejaVuSans-35"/>
      </g>
     </g>
    </g>
    <g id="ytick_7">
     <g id="line2d_13">
      <g>
       <use style="stroke:#000000;stroke-width:0.8;" x="72" xlink:href="#me69e9b3900" y="80.830061"/>
      </g>
     </g>
     <g id="text_14">
      <!-- 0.06 -->
      <g transform="translate(42.734375 84.629279)scale(0.1 -0.1)">
       <use xlink:href="#DejaVuSans-30"/>
       <use x="63.623047" xlink:href="#DejaVuSans-2e"/>
       <use x="95.410156" xlink:href="#DejaVuSans-30"/>
       <use x="159.033203" xlink:href="#DejaVuSans-36"/>
      </g>
     </g>
    </g>
    <g id="ytick_8">
     <g id="line2d_14">
      <g>
       <use style="stroke:#000000;stroke-width:0.8;" x="72" xlink:href="#me69e9b3900" y="53.94901"/>
      </g>
     </g>
     <g id="text_15">
      <!-- 0.07 -->
      <g transform="translate(42.734375 57.748229)scale(0.1 -0.1)">
       <defs>
        <path d="M 525 4666 
L 3525 4666 
L 3525 4397 
L 1831 0 
L 1172 0 
L 2766 4134 
L 525 4134 
L 525 4666 
z
" id="DejaVuSans-37" transform="scale(0.015625)"/>
       </defs>
       <use xlink:href="#DejaVuSans-30"/>
       <use x="63.623047" xlink:href="#DejaVuSans-2e"/>
       <use x="95.410156" xlink:href="#DejaVuSans-30"/>
       <use x="159.033203" xlink:href="#DejaVuSans-37"/>
      </g>
     </g>
    </g>
    <g id="text_16">
     <!-- F1 score -->
     <g transform="translate(36.654687 164.358906)rotate(-90)scale(0.1 -0.1)">
      <defs>
       <path d="M 628 4666 
L 3309 4666 
L 3309 4134 
L 1259 4134 
L 1259 2759 
L 3109 2759 
L 3109 2228 
L 1259 2228 
L 1259 0 
L 628 0 
L 628 4666 
z
" id="DejaVuSans-46" transform="scale(0.015625)"/>
       <path id="DejaVuSans-20" transform="scale(0.015625)"/>
       <path d="M 3122 3366 
L 3122 2828 
Q 2878 2963 2633 3030 
Q 2388 3097 2138 3097 
Q 1578 3097 1268 2742 
Q 959 2388 959 1747 
Q 959 1106 1268 751 
Q 1578 397 2138 397 
Q 2388 397 2633 464 
Q 2878 531 3122 666 
L 3122 134 
Q 2881 22 2623 -34 
Q 2366 -91 2075 -91 
Q 1284 -91 818 406 
Q 353 903 353 1747 
Q 353 2603 823 3093 
Q 1294 3584 2113 3584 
Q 2378 3584 2631 3529 
Q 2884 3475 3122 3366 
z
" id="DejaVuSans-63" transform="scale(0.015625)"/>
      </defs>
      <use xlink:href="#DejaVuSans-46"/>
      <use x="57.519531" xlink:href="#DejaVuSans-31"/>
      <use x="121.142578" xlink:href="#DejaVuSans-20"/>
      <use x="152.929688" xlink:href="#DejaVuSans-73"/>
      <use x="205.029297" xlink:href="#DejaVuSans-63"/>
      <use x="260.009766" xlink:href="#DejaVuSans-6f"/>
      <use x="321.191406" xlink:href="#DejaVuSans-72"/>
      <use x="360.054688" xlink:href="#DejaVuSans-65"/>
     </g>
    </g>
   </g>
   <g id="line2d_15">
    <path clip-path="url(#p2b5b96e115)" d="M 92.290909 181.724551 
L 93.917435 180.06709 
L 94.324066 180.030585 
L 95.543961 178.812981 
L 95.950592 178.478331 
L 96.357224 178.434938 
L 97.577118 177.540453 
L 97.983749 177.287508 
L 98.390381 177.268859 
L 100.423538 176.309758 
L 104.896484 174.899884 
L 107.742904 174.114292 
L 108.556167 174.025969 
L 110.589324 173.449518 
L 112.21585 173.092186 
L 113.435744 172.877251 
L 115.06227 172.449504 
L 118.721953 171.520258 
L 119.535216 171.442517 
L 121.568373 170.983984 
L 128.887739 169.446857 
L 130.107633 169.298817 
L 132.140791 168.865149 
L 133.360685 168.592702 
L 134.173948 168.513597 
L 134.580579 168.359551 
L 135.800474 168.235114 
L 137.833631 167.737592 
L 138.646894 167.631544 
L 141.086682 167.171609 
L 141.493314 167.037247 
L 141.899945 167.096524 
L 142.713208 166.882704 
L 147.186154 166.1106 
L 149.219311 165.557649 
L 149.625943 165.448751 
L 150.032574 165.539633 
L 152.065731 165.25304 
L 152.878994 165.055167 
L 156.132046 164.353648 
L 166.704463 161.53646 
L 167.111095 161.350628 
L 167.924358 161.240985 
L 169.144252 160.815957 
L 170.364146 160.685503 
L 171.584041 160.270839 
L 172.397304 160.028071 
L 172.803935 159.863687 
L 173.617198 159.735583 
L 178.903407 158.277547 
L 180.936564 157.615787 
L 183.782984 156.896492 
L 184.189616 156.712811 
L 184.596247 156.735398 
L 185.40951 156.370903 
L 185.816141 156.441521 
L 188.25593 155.613382 
L 188.662561 155.548123 
L 189.475824 155.221895 
L 190.695719 154.951316 
L 191.508982 154.528827 
L 192.728876 154.356191 
L 195.981927 153.625604 
L 196.79519 153.309338 
L 198.015085 152.771947 
L 198.828348 152.557079 
L 200.454873 151.932996 
L 201.674768 151.836717 
L 202.894662 151.495945 
L 203.301293 151.243659 
L 204.927819 150.832701 
L 205.741082 150.469324 
L 206.960976 149.934103 
L 207.367608 149.741331 
L 207.774239 149.713015 
L 209.400765 149.202377 
L 210.62066 148.932132 
L 211.027291 148.696583 
L 214.280343 147.793841 
L 214.686974 147.610631 
L 215.093605 147.662364 
L 215.906868 147.40375 
L 216.3135 147.306498 
L 217.126763 146.826593 
L 217.533394 146.692695 
L 218.346657 146.691691 
L 219.15992 146.198491 
L 219.973183 145.872802 
L 220.379814 145.998934 
L 221.193077 145.665544 
L 221.599709 145.420963 
L 222.00634 145.516054 
L 222.412971 145.411831 
L 223.632866 144.690817 
L 224.039497 144.465356 
L 224.446129 144.455455 
L 226.072654 143.736069 
L 226.885917 143.384081 
L 227.292549 143.463463 
L 228.105812 142.971669 
L 228.512443 142.93399 
L 229.325706 142.611011 
L 229.732337 142.472963 
L 230.138969 142.202651 
L 230.5456 142.119444 
L 230.952232 141.823878 
L 232.172126 141.477759 
L 232.578758 141.506228 
L 234.205283 140.806481 
L 237.458335 139.451689 
L 240.304755 138.708363 
L 240.711386 138.471776 
L 241.118018 138.480771 
L 241.524649 138.246359 
L 241.931281 138.188493 
L 242.744544 137.750677 
L 243.557807 137.641316 
L 243.964438 137.440417 
L 244.777701 137.214703 
L 246.810858 136.442243 
L 247.624121 135.97515 
L 248.844015 135.686087 
L 249.250647 135.477108 
L 250.877173 135.586724 
L 251.283804 135.3078 
L 251.690435 135.294259 
L 252.503698 134.97134 
L 253.723593 134.777793 
L 254.130224 134.421252 
L 254.536856 134.218203 
L 254.943487 134.193508 
L 256.570013 133.352003 
L 256.976644 133.283039 
L 257.383276 133.030273 
L 257.789907 132.97922 
L 258.60317 132.222613 
L 262.262853 130.765488 
L 263.482747 130.279975 
L 263.889379 130.270747 
L 264.29601 130.374189 
L 266.329167 129.3888 
L 266.735799 129.5068 
L 267.549062 129.191951 
L 267.955693 128.96087 
L 268.362325 128.922831 
L 269.175588 128.477237 
L 269.98885 128.188772 
L 270.395482 128.125315 
L 270.802113 127.673932 
L 271.208745 127.582019 
L 274.868428 125.581669 
L 275.681691 125.719449 
L 276.088322 125.79582 
L 276.494954 125.524165 
L 276.901585 125.09935 
L 277.714848 124.943551 
L 278.121479 125.030118 
L 278.934742 124.546993 
L 280.967899 123.430341 
L 281.374531 123.295491 
L 281.781162 123.339161 
L 282.187794 123.212943 
L 282.594425 122.923998 
L 283.001057 122.807537 
L 283.407688 122.913239 
L 283.81432 122.681303 
L 284.220951 122.681427 
L 284.627582 122.264109 
L 286.66074 121.053194 
L 287.067371 120.643864 
L 287.880634 120.346658 
L 288.287265 120.474311 
L 288.693897 120.421467 
L 289.100528 120.222067 
L 289.50716 120.245481 
L 289.913791 120.145014 
L 290.320423 119.812044 
L 290.727054 119.62446 
L 291.133686 119.117877 
L 291.540317 118.931546 
L 291.946948 118.555545 
L 292.35358 118.545521 
L 292.760211 118.804073 
L 293.980106 118.217963 
L 294.793369 117.540894 
L 295.606631 117.634961 
L 296.013263 117.485695 
L 296.419894 117.564513 
L 296.826526 117.403395 
L 297.639789 116.614252 
L 298.453052 116.631797 
L 298.859683 116.417791 
L 299.672946 115.791822 
L 300.079577 115.536209 
L 300.486209 115.450905 
L 300.89284 115.632146 
L 301.299472 116.044538 
L 301.706103 115.867966 
L 302.112735 115.532794 
L 303.332629 114.909008 
L 303.73926 114.62885 
L 304.552523 113.627499 
L 304.959155 113.445362 
L 305.772418 112.511151 
L 306.992312 110.858116 
L 307.398943 110.80404 
L 308.212206 110.479727 
L 308.618838 110.024843 
L 309.025469 109.740419 
L 310.245363 109.633413 
L 311.058626 109.728369 
L 311.465258 109.194845 
L 312.685152 108.39923 
L 313.091784 108.357612 
L 313.498415 107.809734 
L 314.311678 107.480694 
L 314.718309 108.160354 
L 315.124941 108.485912 
L 315.938204 108.215532 
L 317.158098 107.278701 
L 317.564729 106.963377 
L 317.971361 107.031942 
L 318.784624 106.357307 
L 319.597887 105.619629 
L 320.41115 105.521346 
L 321.224412 104.474483 
L 322.037675 103.957433 
L 322.444307 104.163614 
L 322.850938 103.792258 
L 323.25757 103.749232 
L 323.664201 103.330236 
L 324.477464 103.085145 
L 324.884095 102.250454 
L 325.697358 101.4895 
L 326.10399 101.395113 
L 326.917253 100.478425 
L 327.730516 99.55817 
L 328.137147 99.459823 
L 328.543778 99.694588 
L 329.763673 97.979731 
L 330.576936 97.406509 
L 330.983567 96.984444 
L 331.390199 97.062489 
L 331.79683 96.587272 
L 332.203461 96.580607 
L 333.016724 95.654826 
L 333.423356 95.410756 
L 333.829987 95.811088 
L 334.236619 95.525458 
L 335.049882 95.446474 
L 335.863144 96.089517 
L 336.269776 95.719934 
L 336.676407 95.682625 
L 337.083039 95.887607 
L 337.48967 95.749085 
L 337.896302 95.807072 
L 338.302933 95.666771 
L 339.116196 95.64677 
L 339.929459 96.607802 
L 341.149353 95.304377 
L 341.555985 95.465104 
L 341.962616 95.435074 
L 342.369248 95.60076 
L 342.775879 95.27692 
L 343.18251 96.452972 
L 343.589142 96.185126 
L 343.995773 95.646183 
L 344.809036 96.123771 
L 345.215668 96.055335 
L 345.622299 95.424685 
L 346.028931 94.44479 
L 346.435562 93.981723 
L 347.248825 93.41268 
L 348.062088 91.817875 
L 348.468719 91.860814 
L 348.875351 91.639328 
L 349.688614 90.801061 
L 350.095245 90.16579 
L 350.908508 89.28192 
L 351.315139 89.525979 
L 351.721771 89.100482 
L 352.128402 89.188367 
L 352.535034 89.005756 
L 353.348297 87.394558 
L 353.754928 86.944088 
L 354.161559 86.240406 
L 354.568191 86.297393 
L 354.974822 85.824087 
L 355.381454 84.771383 
L 356.194717 84.368477 
L 356.601348 84.213252 
L 357.00798 83.649696 
L 357.414611 84.206608 
L 357.821242 83.889329 
L 358.227874 84.438277 
L 358.634505 84.221398 
L 359.041137 83.42475 
L 359.447768 83.091961 
L 359.8544 83.01562 
L 360.261031 82.116075 
L 361.074294 81.627437 
L 361.480925 81.337604 
L 361.887557 81.310079 
L 362.294188 81.503598 
L 362.70082 81.093804 
L 363.107451 81.93524 
L 363.514083 81.364727 
L 363.920714 81.648341 
L 364.327346 81.05148 
L 364.733977 81.691403 
L 365.140608 82.015458 
L 365.54724 81.741283 
L 365.953871 81.28642 
L 366.360503 80.659716 
L 366.767134 80.350341 
L 367.173766 80.414577 
L 367.580397 80.023365 
L 367.987029 80.294453 
L 368.39366 80.175406 
L 369.206923 80.52466 
L 369.613554 80.097862 
L 370.020186 79.153308 
L 370.426817 78.972362 
L 370.833449 78.100453 
L 371.24008 77.719856 
L 372.053343 77.969807 
L 372.459974 77.082679 
L 372.866606 76.592141 
L 373.273237 76.435739 
L 373.679869 76.108143 
L 374.0865 75.336123 
L 374.493132 75.722145 
L 375.306395 74.21854 
L 375.713026 74.274564 
L 376.119657 75.230303 
L 376.526289 74.793035 
L 376.93292 75.540955 
L 377.339552 74.421393 
L 377.746183 74.366907 
L 378.152815 74.614495 
L 378.559446 75.971367 
L 378.966078 76.039564 
L 379.372709 76.491827 
L 379.77934 76.497392 
L 380.185972 75.728127 
L 380.592603 74.670983 
L 381.405866 73.788679 
L 381.812498 72.907329 
L 382.219129 72.978284 
L 382.625761 72.220329 
L 383.032392 72.917372 
L 383.439024 71.338458 
L 384.252286 72.91689 
L 384.658918 72.856625 
L 385.065549 72.605652 
L 385.472181 72.146835 
L 385.878812 72.774293 
L 386.285444 72.438007 
L 386.692075 71.94516 
L 387.098707 72.364364 
L 387.505338 72.091442 
L 387.911969 72.229907 
L 388.318601 71.380418 
L 388.725232 72.167216 
L 389.131864 72.106313 
L 389.538495 73.136578 
L 389.945127 73.239298 
L 390.351758 72.279661 
L 390.75839 72.889411 
L 391.165021 72.472887 
L 391.571652 72.853078 
L 391.978284 71.596597 
L 392.791547 72.723859 
L 393.60481 72.796787 
L 394.011441 71.372501 
L 394.418073 70.964808 
L 394.824704 71.638517 
L 395.231335 70.208369 
L 395.637967 71.432567 
L 396.044598 71.474645 
L 396.45123 72.136214 
L 396.857861 70.050436 
L 398.077756 67.337102 
L 398.484387 65.546142 
L 399.29765 64.7761 
L 399.704281 66.70274 
L 400.110913 65.89493 
L 400.924176 70.101367 
L 401.330807 69.940496 
L 401.737439 68.495425 
L 402.550701 67.387594 
L 403.363964 71.267256 
L 403.770596 69.49313 
L 404.99049 66.668948 
L 405.397122 67.465471 
L 405.803753 65.357232 
L 406.210384 66.729665 
L 406.617016 65.330682 
L 407.023647 65.081922 
L 407.430279 65.267347 
L 407.83691 64.272827 
L 408.243542 63.959108 
L 408.650173 64.096162 
L 409.056805 63.216748 
L 409.463436 63.467638 
L 409.870067 61.054736 
L 410.276699 59.904462 
L 410.68333 60.467848 
L 411.089962 59.265595 
L 411.496593 60.1431 
L 411.903225 61.318064 
L 412.309856 60.988305 
L 412.716488 61.490653 
L 413.123119 59.266372 
L 413.52975 59.028894 
L 414.343013 54.30596 
L 415.156276 53.082605 
L 415.562908 52.208185 
L 415.969539 50.840782 
L 416.376171 50.849566 
L 416.782802 51.396386 
L 417.189433 49.982567 
L 417.596065 49.475729 
L 418.409328 44.443636 
L 418.815959 45.54561 
L 419.222591 48.423806 
L 419.629222 50.466749 
L 420.035854 50.967853 
L 420.442485 48.681124 
L 420.849116 49.364645 
L 421.255748 50.7217 
L 421.662379 50.250633 
L 422.069011 49.439844 
L 422.475642 51.028483 
L 422.882274 51.325638 
L 423.288905 53.259752 
L 423.695537 52.822921 
L 424.102168 51.808041 
L 424.508799 52.953416 
L 424.915431 56.529823 
L 425.322062 54.659297 
L 425.728694 55.462814 
L 426.135325 60.355698 
L 426.541957 61.798156 
L 426.948588 60.827329 
L 427.35522 66.737685 
L 427.761851 66.331716 
L 428.168482 66.288632 
L 428.575114 65.455819 
L 428.981745 73.002505 
L 429.388377 75.183813 
L 429.795008 75.858795 
L 430.20164 75.256956 
L 430.608271 79.353449 
L 431.014903 79.815681 
L 431.421534 84.596832 
L 431.828165 84.194483 
L 432.234797 84.298583 
L 432.641428 83.317903 
L 433.04806 87.895527 
L 433.454691 87.418375 
L 433.861323 85.938011 
L 434.267954 88.457466 
L 434.674586 86.637117 
L 435.081217 92.777194 
L 435.487848 94.11201 
L 435.89448 92.615397 
L 436.301111 92.940764 
L 437.114374 89.485819 
L 437.927637 91.747269 
L 438.334269 90.703039 
L 438.7409 91.264015 
L 439.147531 91.00357 
L 439.960794 93.566064 
L 440.367426 94.430395 
L 440.774057 96.934122 
L 441.180689 97.909555 
L 441.58732 103.155001 
L 441.993952 102.623035 
L 442.400583 107.12927 
L 442.807214 104.3866 
L 443.213846 104.69754 
L 443.620477 104.705243 
L 444.027109 106.664437 
L 444.43374 111.112181 
L 444.840372 109.935312 
L 445.247003 115.221231 
L 445.653635 113.924493 
L 446.060266 114.994154 
L 446.466897 118.525327 
L 447.28016 121.733033 
L 447.686792 123.198136 
L 448.093423 122.706738 
L 448.500055 126.951988 
L 448.906686 128.754 
L 449.313318 129.570903 
L 449.719949 131.626378 
L 450.12658 131.626378 
L 450.533212 142.175881 
L 450.939843 140.396195 
L 451.346475 148.009919 
L 451.753106 146.935031 
L 452.159738 146.443279 
L 452.566369 157.029803 
L 452.973001 155.918221 
L 453.379632 158.062568 
L 454.192895 157.656265 
L 454.599526 156.831762 
L 455.006158 158.841734 
L 455.819421 157.849748 
L 456.226052 157.637889 
L 456.632684 160.193162 
L 457.039315 159.299263 
L 457.852578 164.097484 
L 458.259209 163.891084 
L 459.072472 168.920855 
L 459.479104 175.469131 
L 459.885735 175.469131 
L 460.292367 175.099894 
L 461.105629 182.046977 
L 461.512261 181.109724 
L 461.918892 184.431706 
L 462.325524 184.431706 
L 462.732155 187.772002 
L 463.138787 187.575102 
L 463.545418 195.23081 
L 464.358681 195.23081 
L 464.765312 194.956626 
L 465.171944 198.759831 
L 465.578575 198.600314 
L 465.985207 202.203891 
L 466.79847 202.055186 
L 467.611733 201.449116 
L 468.018364 201.201523 
L 468.424995 201.201523 
L 468.831627 200.792689 
L 469.238258 204.810357 
L 469.64489 212.98829 
L 470.458153 212.875128 
L 470.864784 216.935052 
L 471.271416 216.935052 
L 471.678047 220.933503 
L 473.711204 220.866521 
L 474.524467 220.799115 
L 477.777519 220.73128 
L 478.18415 224.939974 
L 479.404044 224.884921 
L 479.810676 233.438058 
L 481.03057 233.438058 
L 481.437202 237.759629 
L 486.316779 237.734774 
L 492.009619 237.716846 
L 492.416251 242.116364 
L 498.109091 242.116364 
L 498.109091 242.116364 
" style="fill:none;stroke:#1f77b4;stroke-linecap:square;stroke-width:1.5;"/>
   </g>
   <g id="patch_3">
    <path d="M 72 252 
L 72 34.56 
" style="fill:none;stroke:#000000;stroke-linecap:square;stroke-linejoin:miter;stroke-width:0.8;"/>
   </g>
   <g id="patch_4">
    <path d="M 518.4 252 
L 518.4 34.56 
" style="fill:none;stroke:#000000;stroke-linecap:square;stroke-linejoin:miter;stroke-width:0.8;"/>
   </g>
   <g id="patch_5">
    <path d="M 72 252 
L 518.4 252 
" style="fill:none;stroke:#000000;stroke-linecap:square;stroke-linejoin:miter;stroke-width:0.8;"/>
   </g>
   <g id="patch_6">
    <path d="M 72 34.56 
L 518.4 34.56 
" style="fill:none;stroke:#000000;stroke-linecap:square;stroke-linejoin:miter;stroke-width:0.8;"/>
   </g>
   <g id="text_17">
    <!-- IZTAPALAPA -->
    <g transform="translate(271.569375 28.56)scale(0.08 -0.08)">
     <defs>
      <path d="M 628 4666 
L 1259 4666 
L 1259 0 
L 628 0 
L 628 4666 
z
" id="DejaVuSans-49" transform="scale(0.015625)"/>
      <path d="M 359 4666 
L 4025 4666 
L 4025 4184 
L 1075 531 
L 4097 531 
L 4097 0 
L 288 0 
L 288 481 
L 3238 4134 
L 359 4134 
L 359 4666 
z
" id="DejaVuSans-5a" transform="scale(0.015625)"/>
      <path d="M 2188 4044 
L 1331 1722 
L 3047 1722 
L 2188 4044 
z
M 1831 4666 
L 2547 4666 
L 4325 0 
L 3669 0 
L 3244 1197 
L 1141 1197 
L 716 0 
L 50 0 
L 1831 4666 
z
" id="DejaVuSans-41" transform="scale(0.015625)"/>
      <path d="M 1259 4147 
L 1259 2394 
L 2053 2394 
Q 2494 2394 2734 2622 
Q 2975 2850 2975 3272 
Q 2975 3691 2734 3919 
Q 2494 4147 2053 4147 
L 1259 4147 
z
M 628 4666 
L 2053 4666 
Q 2838 4666 3239 4311 
Q 3641 3956 3641 3272 
Q 3641 2581 3239 2228 
Q 2838 1875 2053 1875 
L 1259 1875 
L 1259 0 
L 628 0 
L 628 4666 
z
" id="DejaVuSans-50" transform="scale(0.015625)"/>
      <path d="M 628 4666 
L 1259 4666 
L 1259 531 
L 3531 531 
L 3531 0 
L 628 0 
L 628 4666 
z
" id="DejaVuSans-4c" transform="scale(0.015625)"/>
     </defs>
     <use xlink:href="#DejaVuSans-49"/>
     <use x="29.492188" xlink:href="#DejaVuSans-5a"/>
     <use x="97.998047" xlink:href="#DejaVuSans-54"/>
     <use x="151.332031" xlink:href="#DejaVuSans-41"/>
     <use x="219.740234" xlink:href="#DejaVuSans-50"/>
     <use x="273.667969" xlink:href="#DejaVuSans-41"/>
     <use x="342.076172" xlink:href="#DejaVuSans-4c"/>
     <use x="400.039062" xlink:href="#DejaVuSans-41"/>
     <use x="468.447266" xlink:href="#DejaVuSans-50"/>
     <use x="522.375" xlink:href="#DejaVuSans-41"/>
    </g>
   </g>
  </g>
  <g id="text_18">
   <!-- F1 score curve -->
   <g transform="translate(229.31625 17.9175)scale(0.16 -0.16)">
    <defs>
     <path d="M 544 1381 
L 544 3500 
L 1119 3500 
L 1119 1403 
Q 1119 906 1312 657 
Q 1506 409 1894 409 
Q 2359 409 2629 706 
Q 2900 1003 2900 1516 
L 2900 3500 
L 3475 3500 
L 3475 0 
L 2900 0 
L 2900 538 
Q 2691 219 2414 64 
Q 2138 -91 1772 -91 
Q 1169 -91 856 284 
Q 544 659 544 1381 
z
M 1991 3584 
L 1991 3584 
z
" id="DejaVuSans-75" transform="scale(0.015625)"/>
     <path d="M 191 3500 
L 800 3500 
L 1894 563 
L 2988 3500 
L 3597 3500 
L 2284 0 
L 1503 0 
L 191 3500 
z
" id="DejaVuSans-76" transform="scale(0.015625)"/>
    </defs>
    <use xlink:href="#DejaVuSans-46"/>
    <use x="57.519531" xlink:href="#DejaVuSans-31"/>
    <use x="121.142578" xlink:href="#DejaVuSans-20"/>
    <use x="152.929688" xlink:href="#DejaVuSans-73"/>
    <use x="205.029297" xlink:href="#DejaVuSans-63"/>
    <use x="260.009766" xlink:href="#DejaVuSans-6f"/>
    <use x="321.191406" xlink:href="#DejaVuSans-72"/>
    <use x="360.054688" xlink:href="#DejaVuSans-65"/>
    <use x="421.578125" xlink:href="#DejaVuSans-20"/>
    <use x="453.365234" xlink:href="#DejaVuSans-63"/>
    <use x="508.345703" xlink:href="#DejaVuSans-75"/>
    <use x="571.724609" xlink:href="#DejaVuSans-72"/>
    <use x="612.837891" xlink:href="#DejaVuSans-76"/>
    <use x="672.017578" xlink:href="#DejaVuSans-65"/>
   </g>
  </g>
 </g>
 <defs>
  <clipPath id="p2b5b96e115">
   <rect height="217.44" width="446.4" x="72" y="34.56"/>
  </clipPath>
 </defs>
</svg>
