<?xml version="1.0" encoding="utf-8" standalone="no"?>
<!DOCTYPE svg PUBLIC "-//W3C//DTD SVG 1.1//EN"
  "http://www.w3.org/Graphics/SVG/1.1/DTD/svg11.dtd">
<svg height="576pt" version="1.1" viewBox="0 0 360 576" width="360pt" xmlns="http://www.w3.org/2000/svg" xmlns:xlink="http://www.w3.org/1999/xlink">
 <metadata>
  <rdf:RDF xmlns:cc="http://creativecommons.org/ns#" xmlns:dc="http://purl.org/dc/elements/1.1/" xmlns:rdf="http://www.w3.org/1999/02/22-rdf-syntax-ns#">
   <cc:Work>
    <dc:type rdf:resource="http://purl.org/dc/dcmitype/StillImage"/>
    <dc:date>2022-01-04T20:34:53.814148</dc:date>
    <dc:format>image/svg+xml</dc:format>
    <dc:creator>
     <cc:Agent>
      <dc:title>Matplotlib v3.4.3, https://matplotlib.org/</dc:title>
     </cc:Agent>
    </dc:creator>
   </cc:Work>
  </rdf:RDF>
 </metadata>
 <defs>
  <style type="text/css">*{stroke-linecap:butt;stroke-linejoin:round;}</style>
 </defs>
 <g id="figure_1">
  <g id="patch_1">
   <path d="M 0 576 
L 360 576 
L 360 0 
L 0 0 
z
" style="fill:none;"/>
  </g>
  <g id="axes_1">
   <g id="patch_2">
    <path d="M 45 504 
L 324 504 
L 324 69.12 
L 45 69.12 
z
" style="fill:#ffffff;"/>
   </g>
   <g id="patch_3">
    <path clip-path="url(#pcb2b344548)" d="M 45 71.2944 
L 310.714286 71.2944 
L 310.714286 88.6896 
L 45 88.6896 
z
" style="fill:#ea96a3;"/>
   </g>
   <g id="patch_4">
    <path clip-path="url(#pcb2b344548)" d="M 45 93.0384 
L 300.479329 93.0384 
L 300.479329 110.4336 
L 45 110.4336 
z
" style="fill:#e79683;"/>
   </g>
   <g id="patch_5">
    <path clip-path="url(#pcb2b344548)" d="M 45 114.7824 
L 224.736778 114.7824 
L 224.736778 132.1776 
L 45 132.1776 
z
" style="fill:#d7944e;"/>
   </g>
   <g id="patch_6">
    <path clip-path="url(#pcb2b344548)" d="M 45 136.5264 
L 220.911431 136.5264 
L 220.911431 153.9216 
L 45 153.9216 
z
" style="fill:#bf9a4a;"/>
   </g>
   <g id="patch_7">
    <path clip-path="url(#pcb2b344548)" d="M 45 158.2704 
L 206.864322 158.2704 
L 206.864322 175.6656 
L 45 175.6656 
z
" style="fill:#ab9e47;"/>
   </g>
   <g id="patch_8">
    <path clip-path="url(#pcb2b344548)" d="M 45 180.0144 
L 205.369482 180.0144 
L 205.369482 197.4096 
L 45 197.4096 
z
" style="fill:#98a246;"/>
   </g>
   <g id="patch_9">
    <path clip-path="url(#pcb2b344548)" d="M 45 201.7584 
L 164.468694 201.7584 
L 164.468694 219.1536 
L 45 219.1536 
z
" style="fill:#7fa946;"/>
   </g>
   <g id="patch_10">
    <path clip-path="url(#pcb2b344548)" d="M 45 223.5024 
L 164.324048 223.5024 
L 164.324048 240.8976 
L 45 240.8976 
z
" style="fill:#48b052;"/>
   </g>
   <g id="patch_11">
    <path clip-path="url(#pcb2b344548)" d="M 45 245.2464 
L 158.793553 245.2464 
L 158.793553 262.6416 
L 45 262.6416 
z
" style="fill:#49ae83;"/>
   </g>
   <g id="patch_12">
    <path clip-path="url(#pcb2b344548)" d="M 45 266.9904 
L 148.690406 266.9904 
L 148.690406 284.3856 
L 45 284.3856 
z
" style="fill:#4aad96;"/>
   </g>
   <g id="patch_13">
    <path clip-path="url(#pcb2b344548)" d="M 45 288.7344 
L 142.479855 288.7344 
L 142.479855 306.1296 
L 45 306.1296 
z
" style="fill:#4baba4;"/>
   </g>
   <g id="patch_14">
    <path clip-path="url(#pcb2b344548)" d="M 45 310.4784 
L 140.58356 310.4784 
L 140.58356 327.8736 
L 45 327.8736 
z
" style="fill:#4dabb2;"/>
   </g>
   <g id="patch_15">
    <path clip-path="url(#pcb2b344548)" d="M 45 332.2224 
L 138.585116 332.2224 
L 138.585116 349.6176 
L 45 349.6176 
z
" style="fill:#50acc3;"/>
   </g>
   <g id="patch_16">
    <path clip-path="url(#pcb2b344548)" d="M 45 353.9664 
L 135.516852 353.9664 
L 135.516852 371.3616 
L 45 371.3616 
z
" style="fill:#56addb;"/>
   </g>
   <g id="patch_17">
    <path clip-path="url(#pcb2b344548)" d="M 45 375.7104 
L 129.118463 375.7104 
L 129.118463 393.1056 
L 45 393.1056 
z
" style="fill:#94aee8;"/>
   </g>
   <g id="patch_18">
    <path clip-path="url(#pcb2b344548)" d="M 45 397.4544 
L 125.579354 397.4544 
L 125.579354 414.8496 
L 45 414.8496 
z
" style="fill:#b6a8eb;"/>
   </g>
   <g id="patch_19">
    <path clip-path="url(#pcb2b344548)" d="M 45 419.1984 
L 124.934278 419.1984 
L 124.934278 436.5936 
L 45 436.5936 
z
" style="fill:#ce9be9;"/>
   </g>
   <g id="patch_20">
    <path clip-path="url(#pcb2b344548)" d="M 45 440.9424 
L 124.448764 440.9424 
L 124.448764 458.3376 
L 45 458.3376 
z
" style="fill:#e689e4;"/>
   </g>
   <g id="patch_21">
    <path clip-path="url(#pcb2b344548)" d="M 45 462.6864 
L 124.09363 462.6864 
L 124.09363 480.0816 
L 45 480.0816 
z
" style="fill:#e88fcc;"/>
   </g>
   <g id="patch_22">
    <path clip-path="url(#pcb2b344548)" d="M 45 484.4304 
L 122.594709 484.4304 
L 122.594709 501.8256 
L 45 501.8256 
z
" style="fill:#e993b9;"/>
   </g>
   <g id="matplotlib.axis_1">
    <g id="xtick_1">
     <g id="line2d_1">
      <defs>
       <path d="M 0 0 
L 0 3.5 
" id="m0cbb01fb73" style="stroke:#000000;stroke-width:0.8;"/>
      </defs>
      <g>
       <use style="stroke:#000000;stroke-width:0.8;" x="45" xlink:href="#m0cbb01fb73" y="504"/>
      </g>
     </g>
     <g id="text_1">
      <!-- 0.00 -->
      <g transform="translate(33.867188 518.598438)scale(0.1 -0.1)">
       <defs>
        <path d="M 2034 4250 
Q 1547 4250 1301 3770 
Q 1056 3291 1056 2328 
Q 1056 1369 1301 889 
Q 1547 409 2034 409 
Q 2525 409 2770 889 
Q 3016 1369 3016 2328 
Q 3016 3291 2770 3770 
Q 2525 4250 2034 4250 
z
M 2034 4750 
Q 2819 4750 3233 4129 
Q 3647 3509 3647 2328 
Q 3647 1150 3233 529 
Q 2819 -91 2034 -91 
Q 1250 -91 836 529 
Q 422 1150 422 2328 
Q 422 3509 836 4129 
Q 1250 4750 2034 4750 
z
" id="DejaVuSans-30" transform="scale(0.015625)"/>
        <path d="M 684 794 
L 1344 794 
L 1344 0 
L 684 0 
L 684 794 
z
" id="DejaVuSans-2e" transform="scale(0.015625)"/>
       </defs>
       <use xlink:href="#DejaVuSans-30"/>
       <use x="63.623047" xlink:href="#DejaVuSans-2e"/>
       <use x="95.410156" xlink:href="#DejaVuSans-30"/>
       <use x="159.033203" xlink:href="#DejaVuSans-30"/>
      </g>
     </g>
    </g>
    <g id="xtick_2">
     <g id="line2d_2">
      <g>
       <use style="stroke:#000000;stroke-width:0.8;" x="84.225233" xlink:href="#m0cbb01fb73" y="504"/>
      </g>
     </g>
     <g id="text_2">
      <!-- 0.01 -->
      <g transform="translate(73.09242 518.598438)scale(0.1 -0.1)">
       <defs>
        <path d="M 794 531 
L 1825 531 
L 1825 4091 
L 703 3866 
L 703 4441 
L 1819 4666 
L 2450 4666 
L 2450 531 
L 3481 531 
L 3481 0 
L 794 0 
L 794 531 
z
" id="DejaVuSans-31" transform="scale(0.015625)"/>
       </defs>
       <use xlink:href="#DejaVuSans-30"/>
       <use x="63.623047" xlink:href="#DejaVuSans-2e"/>
       <use x="95.410156" xlink:href="#DejaVuSans-30"/>
       <use x="159.033203" xlink:href="#DejaVuSans-31"/>
      </g>
     </g>
    </g>
    <g id="xtick_3">
     <g id="line2d_3">
      <g>
       <use style="stroke:#000000;stroke-width:0.8;" x="123.450465" xlink:href="#m0cbb01fb73" y="504"/>
      </g>
     </g>
     <g id="text_3">
      <!-- 0.02 -->
      <g transform="translate(112.317653 518.598438)scale(0.1 -0.1)">
       <defs>
        <path d="M 1228 531 
L 3431 531 
L 3431 0 
L 469 0 
L 469 531 
Q 828 903 1448 1529 
Q 2069 2156 2228 2338 
Q 2531 2678 2651 2914 
Q 2772 3150 2772 3378 
Q 2772 3750 2511 3984 
Q 2250 4219 1831 4219 
Q 1534 4219 1204 4116 
Q 875 4013 500 3803 
L 500 4441 
Q 881 4594 1212 4672 
Q 1544 4750 1819 4750 
Q 2544 4750 2975 4387 
Q 3406 4025 3406 3419 
Q 3406 3131 3298 2873 
Q 3191 2616 2906 2266 
Q 2828 2175 2409 1742 
Q 1991 1309 1228 531 
z
" id="DejaVuSans-32" transform="scale(0.015625)"/>
       </defs>
       <use xlink:href="#DejaVuSans-30"/>
       <use x="63.623047" xlink:href="#DejaVuSans-2e"/>
       <use x="95.410156" xlink:href="#DejaVuSans-30"/>
       <use x="159.033203" xlink:href="#DejaVuSans-32"/>
      </g>
     </g>
    </g>
    <g id="xtick_4">
     <g id="line2d_4">
      <g>
       <use style="stroke:#000000;stroke-width:0.8;" x="162.675698" xlink:href="#m0cbb01fb73" y="504"/>
      </g>
     </g>
     <g id="text_4">
      <!-- 0.03 -->
      <g transform="translate(151.542885 518.598438)scale(0.1 -0.1)">
       <defs>
        <path d="M 2597 2516 
Q 3050 2419 3304 2112 
Q 3559 1806 3559 1356 
Q 3559 666 3084 287 
Q 2609 -91 1734 -91 
Q 1441 -91 1130 -33 
Q 819 25 488 141 
L 488 750 
Q 750 597 1062 519 
Q 1375 441 1716 441 
Q 2309 441 2620 675 
Q 2931 909 2931 1356 
Q 2931 1769 2642 2001 
Q 2353 2234 1838 2234 
L 1294 2234 
L 1294 2753 
L 1863 2753 
Q 2328 2753 2575 2939 
Q 2822 3125 2822 3475 
Q 2822 3834 2567 4026 
Q 2313 4219 1838 4219 
Q 1578 4219 1281 4162 
Q 984 4106 628 3988 
L 628 4550 
Q 988 4650 1302 4700 
Q 1616 4750 1894 4750 
Q 2613 4750 3031 4423 
Q 3450 4097 3450 3541 
Q 3450 3153 3228 2886 
Q 3006 2619 2597 2516 
z
" id="DejaVuSans-33" transform="scale(0.015625)"/>
       </defs>
       <use xlink:href="#DejaVuSans-30"/>
       <use x="63.623047" xlink:href="#DejaVuSans-2e"/>
       <use x="95.410156" xlink:href="#DejaVuSans-30"/>
       <use x="159.033203" xlink:href="#DejaVuSans-33"/>
      </g>
     </g>
    </g>
    <g id="xtick_5">
     <g id="line2d_5">
      <g>
       <use style="stroke:#000000;stroke-width:0.8;" x="201.90093" xlink:href="#m0cbb01fb73" y="504"/>
      </g>
     </g>
     <g id="text_5">
      <!-- 0.04 -->
      <g transform="translate(190.768118 518.598438)scale(0.1 -0.1)">
       <defs>
        <path d="M 2419 4116 
L 825 1625 
L 2419 1625 
L 2419 4116 
z
M 2253 4666 
L 3047 4666 
L 3047 1625 
L 3713 1625 
L 3713 1100 
L 3047 1100 
L 3047 0 
L 2419 0 
L 2419 1100 
L 313 1100 
L 313 1709 
L 2253 4666 
z
" id="DejaVuSans-34" transform="scale(0.015625)"/>
       </defs>
       <use xlink:href="#DejaVuSans-30"/>
       <use x="63.623047" xlink:href="#DejaVuSans-2e"/>
       <use x="95.410156" xlink:href="#DejaVuSans-30"/>
       <use x="159.033203" xlink:href="#DejaVuSans-34"/>
      </g>
     </g>
    </g>
    <g id="xtick_6">
     <g id="line2d_6">
      <g>
       <use style="stroke:#000000;stroke-width:0.8;" x="241.126163" xlink:href="#m0cbb01fb73" y="504"/>
      </g>
     </g>
     <g id="text_6">
      <!-- 0.05 -->
      <g transform="translate(229.99335 518.598438)scale(0.1 -0.1)">
       <defs>
        <path d="M 691 4666 
L 3169 4666 
L 3169 4134 
L 1269 4134 
L 1269 2991 
Q 1406 3038 1543 3061 
Q 1681 3084 1819 3084 
Q 2600 3084 3056 2656 
Q 3513 2228 3513 1497 
Q 3513 744 3044 326 
Q 2575 -91 1722 -91 
Q 1428 -91 1123 -41 
Q 819 9 494 109 
L 494 744 
Q 775 591 1075 516 
Q 1375 441 1709 441 
Q 2250 441 2565 725 
Q 2881 1009 2881 1497 
Q 2881 1984 2565 2268 
Q 2250 2553 1709 2553 
Q 1456 2553 1204 2497 
Q 953 2441 691 2322 
L 691 4666 
z
" id="DejaVuSans-35" transform="scale(0.015625)"/>
       </defs>
       <use xlink:href="#DejaVuSans-30"/>
       <use x="63.623047" xlink:href="#DejaVuSans-2e"/>
       <use x="95.410156" xlink:href="#DejaVuSans-30"/>
       <use x="159.033203" xlink:href="#DejaVuSans-35"/>
      </g>
     </g>
    </g>
    <g id="xtick_7">
     <g id="line2d_7">
      <g>
       <use style="stroke:#000000;stroke-width:0.8;" x="280.351395" xlink:href="#m0cbb01fb73" y="504"/>
      </g>
     </g>
     <g id="text_7">
      <!-- 0.06 -->
      <g transform="translate(269.218583 518.598438)scale(0.1 -0.1)">
       <defs>
        <path d="M 2113 2584 
Q 1688 2584 1439 2293 
Q 1191 2003 1191 1497 
Q 1191 994 1439 701 
Q 1688 409 2113 409 
Q 2538 409 2786 701 
Q 3034 994 3034 1497 
Q 3034 2003 2786 2293 
Q 2538 2584 2113 2584 
z
M 3366 4563 
L 3366 3988 
Q 3128 4100 2886 4159 
Q 2644 4219 2406 4219 
Q 1781 4219 1451 3797 
Q 1122 3375 1075 2522 
Q 1259 2794 1537 2939 
Q 1816 3084 2150 3084 
Q 2853 3084 3261 2657 
Q 3669 2231 3669 1497 
Q 3669 778 3244 343 
Q 2819 -91 2113 -91 
Q 1303 -91 875 529 
Q 447 1150 447 2328 
Q 447 3434 972 4092 
Q 1497 4750 2381 4750 
Q 2619 4750 2861 4703 
Q 3103 4656 3366 4563 
z
" id="DejaVuSans-36" transform="scale(0.015625)"/>
       </defs>
       <use xlink:href="#DejaVuSans-30"/>
       <use x="63.623047" xlink:href="#DejaVuSans-2e"/>
       <use x="95.410156" xlink:href="#DejaVuSans-30"/>
       <use x="159.033203" xlink:href="#DejaVuSans-36"/>
      </g>
     </g>
    </g>
    <g id="xtick_8">
     <g id="line2d_8">
      <g>
       <use style="stroke:#000000;stroke-width:0.8;" x="319.576628" xlink:href="#m0cbb01fb73" y="504"/>
      </g>
     </g>
     <g id="text_8">
      <!-- 0.07 -->
      <g transform="translate(308.443815 518.598438)scale(0.1 -0.1)">
       <defs>
        <path d="M 525 4666 
L 3525 4666 
L 3525 4397 
L 1831 0 
L 1172 0 
L 2766 4134 
L 525 4134 
L 525 4666 
z
" id="DejaVuSans-37" transform="scale(0.015625)"/>
       </defs>
       <use xlink:href="#DejaVuSans-30"/>
       <use x="63.623047" xlink:href="#DejaVuSans-2e"/>
       <use x="95.410156" xlink:href="#DejaVuSans-30"/>
       <use x="159.033203" xlink:href="#DejaVuSans-37"/>
      </g>
     </g>
    </g>
    <g id="text_9">
     <!-- Importance -->
     <g transform="translate(155.846875 532.276562)scale(0.1 -0.1)">
      <defs>
       <path d="M 628 4666 
L 1259 4666 
L 1259 0 
L 628 0 
L 628 4666 
z
" id="DejaVuSans-49" transform="scale(0.015625)"/>
       <path d="M 3328 2828 
Q 3544 3216 3844 3400 
Q 4144 3584 4550 3584 
Q 5097 3584 5394 3201 
Q 5691 2819 5691 2113 
L 5691 0 
L 5113 0 
L 5113 2094 
Q 5113 2597 4934 2840 
Q 4756 3084 4391 3084 
Q 3944 3084 3684 2787 
Q 3425 2491 3425 1978 
L 3425 0 
L 2847 0 
L 2847 2094 
Q 2847 2600 2669 2842 
Q 2491 3084 2119 3084 
Q 1678 3084 1418 2786 
Q 1159 2488 1159 1978 
L 1159 0 
L 581 0 
L 581 3500 
L 1159 3500 
L 1159 2956 
Q 1356 3278 1631 3431 
Q 1906 3584 2284 3584 
Q 2666 3584 2933 3390 
Q 3200 3197 3328 2828 
z
" id="DejaVuSans-6d" transform="scale(0.015625)"/>
       <path d="M 1159 525 
L 1159 -1331 
L 581 -1331 
L 581 3500 
L 1159 3500 
L 1159 2969 
Q 1341 3281 1617 3432 
Q 1894 3584 2278 3584 
Q 2916 3584 3314 3078 
Q 3713 2572 3713 1747 
Q 3713 922 3314 415 
Q 2916 -91 2278 -91 
Q 1894 -91 1617 61 
Q 1341 213 1159 525 
z
M 3116 1747 
Q 3116 2381 2855 2742 
Q 2594 3103 2138 3103 
Q 1681 3103 1420 2742 
Q 1159 2381 1159 1747 
Q 1159 1113 1420 752 
Q 1681 391 2138 391 
Q 2594 391 2855 752 
Q 3116 1113 3116 1747 
z
" id="DejaVuSans-70" transform="scale(0.015625)"/>
       <path d="M 1959 3097 
Q 1497 3097 1228 2736 
Q 959 2375 959 1747 
Q 959 1119 1226 758 
Q 1494 397 1959 397 
Q 2419 397 2687 759 
Q 2956 1122 2956 1747 
Q 2956 2369 2687 2733 
Q 2419 3097 1959 3097 
z
M 1959 3584 
Q 2709 3584 3137 3096 
Q 3566 2609 3566 1747 
Q 3566 888 3137 398 
Q 2709 -91 1959 -91 
Q 1206 -91 779 398 
Q 353 888 353 1747 
Q 353 2609 779 3096 
Q 1206 3584 1959 3584 
z
" id="DejaVuSans-6f" transform="scale(0.015625)"/>
       <path d="M 2631 2963 
Q 2534 3019 2420 3045 
Q 2306 3072 2169 3072 
Q 1681 3072 1420 2755 
Q 1159 2438 1159 1844 
L 1159 0 
L 581 0 
L 581 3500 
L 1159 3500 
L 1159 2956 
Q 1341 3275 1631 3429 
Q 1922 3584 2338 3584 
Q 2397 3584 2469 3576 
Q 2541 3569 2628 3553 
L 2631 2963 
z
" id="DejaVuSans-72" transform="scale(0.015625)"/>
       <path d="M 1172 4494 
L 1172 3500 
L 2356 3500 
L 2356 3053 
L 1172 3053 
L 1172 1153 
Q 1172 725 1289 603 
Q 1406 481 1766 481 
L 2356 481 
L 2356 0 
L 1766 0 
Q 1100 0 847 248 
Q 594 497 594 1153 
L 594 3053 
L 172 3053 
L 172 3500 
L 594 3500 
L 594 4494 
L 1172 4494 
z
" id="DejaVuSans-74" transform="scale(0.015625)"/>
       <path d="M 2194 1759 
Q 1497 1759 1228 1600 
Q 959 1441 959 1056 
Q 959 750 1161 570 
Q 1363 391 1709 391 
Q 2188 391 2477 730 
Q 2766 1069 2766 1631 
L 2766 1759 
L 2194 1759 
z
M 3341 1997 
L 3341 0 
L 2766 0 
L 2766 531 
Q 2569 213 2275 61 
Q 1981 -91 1556 -91 
Q 1019 -91 701 211 
Q 384 513 384 1019 
Q 384 1609 779 1909 
Q 1175 2209 1959 2209 
L 2766 2209 
L 2766 2266 
Q 2766 2663 2505 2880 
Q 2244 3097 1772 3097 
Q 1472 3097 1187 3025 
Q 903 2953 641 2809 
L 641 3341 
Q 956 3463 1253 3523 
Q 1550 3584 1831 3584 
Q 2591 3584 2966 3190 
Q 3341 2797 3341 1997 
z
" id="DejaVuSans-61" transform="scale(0.015625)"/>
       <path d="M 3513 2113 
L 3513 0 
L 2938 0 
L 2938 2094 
Q 2938 2591 2744 2837 
Q 2550 3084 2163 3084 
Q 1697 3084 1428 2787 
Q 1159 2491 1159 1978 
L 1159 0 
L 581 0 
L 581 3500 
L 1159 3500 
L 1159 2956 
Q 1366 3272 1645 3428 
Q 1925 3584 2291 3584 
Q 2894 3584 3203 3211 
Q 3513 2838 3513 2113 
z
" id="DejaVuSans-6e" transform="scale(0.015625)"/>
       <path d="M 3122 3366 
L 3122 2828 
Q 2878 2963 2633 3030 
Q 2388 3097 2138 3097 
Q 1578 3097 1268 2742 
Q 959 2388 959 1747 
Q 959 1106 1268 751 
Q 1578 397 2138 397 
Q 2388 397 2633 464 
Q 2878 531 3122 666 
L 3122 134 
Q 2881 22 2623 -34 
Q 2366 -91 2075 -91 
Q 1284 -91 818 406 
Q 353 903 353 1747 
Q 353 2603 823 3093 
Q 1294 3584 2113 3584 
Q 2378 3584 2631 3529 
Q 2884 3475 3122 3366 
z
" id="DejaVuSans-63" transform="scale(0.015625)"/>
       <path d="M 3597 1894 
L 3597 1613 
L 953 1613 
Q 991 1019 1311 708 
Q 1631 397 2203 397 
Q 2534 397 2845 478 
Q 3156 559 3463 722 
L 3463 178 
Q 3153 47 2828 -22 
Q 2503 -91 2169 -91 
Q 1331 -91 842 396 
Q 353 884 353 1716 
Q 353 2575 817 3079 
Q 1281 3584 2069 3584 
Q 2775 3584 3186 3129 
Q 3597 2675 3597 1894 
z
M 3022 2063 
Q 3016 2534 2758 2815 
Q 2500 3097 2075 3097 
Q 1594 3097 1305 2825 
Q 1016 2553 972 2059 
L 3022 2063 
z
" id="DejaVuSans-65" transform="scale(0.015625)"/>
      </defs>
      <use xlink:href="#DejaVuSans-49"/>
      <use x="29.492188" xlink:href="#DejaVuSans-6d"/>
      <use x="126.904297" xlink:href="#DejaVuSans-70"/>
      <use x="190.380859" xlink:href="#DejaVuSans-6f"/>
      <use x="251.5625" xlink:href="#DejaVuSans-72"/>
      <use x="292.675781" xlink:href="#DejaVuSans-74"/>
      <use x="331.884766" xlink:href="#DejaVuSans-61"/>
      <use x="393.164062" xlink:href="#DejaVuSans-6e"/>
      <use x="456.542969" xlink:href="#DejaVuSans-63"/>
      <use x="511.523438" xlink:href="#DejaVuSans-65"/>
     </g>
    </g>
   </g>
   <g id="matplotlib.axis_2">
    <g id="ytick_1">
     <g id="line2d_9">
      <defs>
       <path d="M 0 0 
L -3.5 0 
" id="m7bbae1d319" style="stroke:#000000;stroke-width:0.8;"/>
      </defs>
      <g>
       <use style="stroke:#000000;stroke-width:0.8;" x="45" xlink:href="#m7bbae1d319" y="79.992"/>
      </g>
     </g>
     <g id="text_10">
      <!-- past_near_crimes_500mts -->
      <g transform="translate(-92.784375 83.791219)scale(0.1 -0.1)">
       <defs>
        <path d="M 2834 3397 
L 2834 2853 
Q 2591 2978 2328 3040 
Q 2066 3103 1784 3103 
Q 1356 3103 1142 2972 
Q 928 2841 928 2578 
Q 928 2378 1081 2264 
Q 1234 2150 1697 2047 
L 1894 2003 
Q 2506 1872 2764 1633 
Q 3022 1394 3022 966 
Q 3022 478 2636 193 
Q 2250 -91 1575 -91 
Q 1294 -91 989 -36 
Q 684 19 347 128 
L 347 722 
Q 666 556 975 473 
Q 1284 391 1588 391 
Q 1994 391 2212 530 
Q 2431 669 2431 922 
Q 2431 1156 2273 1281 
Q 2116 1406 1581 1522 
L 1381 1569 
Q 847 1681 609 1914 
Q 372 2147 372 2553 
Q 372 3047 722 3315 
Q 1072 3584 1716 3584 
Q 2034 3584 2315 3537 
Q 2597 3491 2834 3397 
z
" id="DejaVuSans-73" transform="scale(0.015625)"/>
        <path d="M 3263 -1063 
L 3263 -1509 
L -63 -1509 
L -63 -1063 
L 3263 -1063 
z
" id="DejaVuSans-5f" transform="scale(0.015625)"/>
        <path d="M 603 3500 
L 1178 3500 
L 1178 0 
L 603 0 
L 603 3500 
z
M 603 4863 
L 1178 4863 
L 1178 4134 
L 603 4134 
L 603 4863 
z
" id="DejaVuSans-69" transform="scale(0.015625)"/>
       </defs>
       <use xlink:href="#DejaVuSans-70"/>
       <use x="63.476562" xlink:href="#DejaVuSans-61"/>
       <use x="124.755859" xlink:href="#DejaVuSans-73"/>
       <use x="176.855469" xlink:href="#DejaVuSans-74"/>
       <use x="216.064453" xlink:href="#DejaVuSans-5f"/>
       <use x="266.064453" xlink:href="#DejaVuSans-6e"/>
       <use x="329.443359" xlink:href="#DejaVuSans-65"/>
       <use x="390.966797" xlink:href="#DejaVuSans-61"/>
       <use x="452.246094" xlink:href="#DejaVuSans-72"/>
       <use x="493.359375" xlink:href="#DejaVuSans-5f"/>
       <use x="543.359375" xlink:href="#DejaVuSans-63"/>
       <use x="598.339844" xlink:href="#DejaVuSans-72"/>
       <use x="639.453125" xlink:href="#DejaVuSans-69"/>
       <use x="667.236328" xlink:href="#DejaVuSans-6d"/>
       <use x="764.648438" xlink:href="#DejaVuSans-65"/>
       <use x="826.171875" xlink:href="#DejaVuSans-73"/>
       <use x="878.271484" xlink:href="#DejaVuSans-5f"/>
       <use x="928.271484" xlink:href="#DejaVuSans-35"/>
       <use x="991.894531" xlink:href="#DejaVuSans-30"/>
       <use x="1055.517578" xlink:href="#DejaVuSans-30"/>
       <use x="1119.140625" xlink:href="#DejaVuSans-6d"/>
       <use x="1216.552734" xlink:href="#DejaVuSans-74"/>
       <use x="1255.761719" xlink:href="#DejaVuSans-73"/>
      </g>
     </g>
    </g>
    <g id="ytick_2">
     <g id="line2d_10">
      <g>
       <use style="stroke:#000000;stroke-width:0.8;" x="45" xlink:href="#m7bbae1d319" y="101.736"/>
      </g>
     </g>
     <g id="text_11">
      <!-- restaurants -->
      <g transform="translate(-19.340625 105.535219)scale(0.1 -0.1)">
       <defs>
        <path d="M 544 1381 
L 544 3500 
L 1119 3500 
L 1119 1403 
Q 1119 906 1312 657 
Q 1506 409 1894 409 
Q 2359 409 2629 706 
Q 2900 1003 2900 1516 
L 2900 3500 
L 3475 3500 
L 3475 0 
L 2900 0 
L 2900 538 
Q 2691 219 2414 64 
Q 2138 -91 1772 -91 
Q 1169 -91 856 284 
Q 544 659 544 1381 
z
M 1991 3584 
L 1991 3584 
z
" id="DejaVuSans-75" transform="scale(0.015625)"/>
       </defs>
       <use xlink:href="#DejaVuSans-72"/>
       <use x="38.863281" xlink:href="#DejaVuSans-65"/>
       <use x="100.386719" xlink:href="#DejaVuSans-73"/>
       <use x="152.486328" xlink:href="#DejaVuSans-74"/>
       <use x="191.695312" xlink:href="#DejaVuSans-61"/>
       <use x="252.974609" xlink:href="#DejaVuSans-75"/>
       <use x="316.353516" xlink:href="#DejaVuSans-72"/>
       <use x="357.466797" xlink:href="#DejaVuSans-61"/>
       <use x="418.746094" xlink:href="#DejaVuSans-6e"/>
       <use x="482.125" xlink:href="#DejaVuSans-74"/>
       <use x="521.333984" xlink:href="#DejaVuSans-73"/>
      </g>
     </g>
    </g>
    <g id="ytick_3">
     <g id="line2d_11">
      <g>
       <use style="stroke:#000000;stroke-width:0.8;" x="45" xlink:href="#m7bbae1d319" y="123.48"/>
      </g>
     </g>
     <g id="text_12">
      <!-- supers_minisupers -->
      <g transform="translate(-55.371875 127.279219)scale(0.1 -0.1)">
       <use xlink:href="#DejaVuSans-73"/>
       <use x="52.099609" xlink:href="#DejaVuSans-75"/>
       <use x="115.478516" xlink:href="#DejaVuSans-70"/>
       <use x="178.955078" xlink:href="#DejaVuSans-65"/>
       <use x="240.478516" xlink:href="#DejaVuSans-72"/>
       <use x="281.591797" xlink:href="#DejaVuSans-73"/>
       <use x="333.691406" xlink:href="#DejaVuSans-5f"/>
       <use x="383.691406" xlink:href="#DejaVuSans-6d"/>
       <use x="481.103516" xlink:href="#DejaVuSans-69"/>
       <use x="508.886719" xlink:href="#DejaVuSans-6e"/>
       <use x="572.265625" xlink:href="#DejaVuSans-69"/>
       <use x="600.048828" xlink:href="#DejaVuSans-73"/>
       <use x="652.148438" xlink:href="#DejaVuSans-75"/>
       <use x="715.527344" xlink:href="#DejaVuSans-70"/>
       <use x="779.003906" xlink:href="#DejaVuSans-65"/>
       <use x="840.527344" xlink:href="#DejaVuSans-72"/>
       <use x="881.640625" xlink:href="#DejaVuSans-73"/>
      </g>
     </g>
    </g>
    <g id="ytick_4">
     <g id="line2d_12">
      <g>
       <use style="stroke:#000000;stroke-width:0.8;" x="45" xlink:href="#m7bbae1d319" y="145.224"/>
      </g>
     </g>
     <g id="text_13">
      <!-- past_crimes -->
      <g transform="translate(-22.096875 149.023219)scale(0.1 -0.1)">
       <use xlink:href="#DejaVuSans-70"/>
       <use x="63.476562" xlink:href="#DejaVuSans-61"/>
       <use x="124.755859" xlink:href="#DejaVuSans-73"/>
       <use x="176.855469" xlink:href="#DejaVuSans-74"/>
       <use x="216.064453" xlink:href="#DejaVuSans-5f"/>
       <use x="266.064453" xlink:href="#DejaVuSans-63"/>
       <use x="321.044922" xlink:href="#DejaVuSans-72"/>
       <use x="362.158203" xlink:href="#DejaVuSans-69"/>
       <use x="389.941406" xlink:href="#DejaVuSans-6d"/>
       <use x="487.353516" xlink:href="#DejaVuSans-65"/>
       <use x="548.876953" xlink:href="#DejaVuSans-73"/>
      </g>
     </g>
    </g>
    <g id="ytick_5">
     <g id="line2d_13">
      <g>
       <use style="stroke:#000000;stroke-width:0.8;" x="45" xlink:href="#m7bbae1d319" y="166.968"/>
      </g>
     </g>
     <g id="text_14">
      <!-- banks -->
      <g transform="translate(8.185937 170.767219)scale(0.1 -0.1)">
       <defs>
        <path d="M 3116 1747 
Q 3116 2381 2855 2742 
Q 2594 3103 2138 3103 
Q 1681 3103 1420 2742 
Q 1159 2381 1159 1747 
Q 1159 1113 1420 752 
Q 1681 391 2138 391 
Q 2594 391 2855 752 
Q 3116 1113 3116 1747 
z
M 1159 2969 
Q 1341 3281 1617 3432 
Q 1894 3584 2278 3584 
Q 2916 3584 3314 3078 
Q 3713 2572 3713 1747 
Q 3713 922 3314 415 
Q 2916 -91 2278 -91 
Q 1894 -91 1617 61 
Q 1341 213 1159 525 
L 1159 0 
L 581 0 
L 581 4863 
L 1159 4863 
L 1159 2969 
z
" id="DejaVuSans-62" transform="scale(0.015625)"/>
        <path d="M 581 4863 
L 1159 4863 
L 1159 1991 
L 2875 3500 
L 3609 3500 
L 1753 1863 
L 3688 0 
L 2938 0 
L 1159 1709 
L 1159 0 
L 581 0 
L 581 4863 
z
" id="DejaVuSans-6b" transform="scale(0.015625)"/>
       </defs>
       <use xlink:href="#DejaVuSans-62"/>
       <use x="63.476562" xlink:href="#DejaVuSans-61"/>
       <use x="124.755859" xlink:href="#DejaVuSans-6e"/>
       <use x="188.134766" xlink:href="#DejaVuSans-6b"/>
       <use x="246.044922" xlink:href="#DejaVuSans-73"/>
      </g>
     </g>
    </g>
    <g id="ytick_6">
     <g id="line2d_14">
      <g>
       <use style="stroke:#000000;stroke-width:0.8;" x="45" xlink:href="#m7bbae1d319" y="188.712"/>
      </g>
     </g>
     <g id="text_15">
      <!-- rtp -->
      <g transform="translate(23.620312 192.511219)scale(0.1 -0.1)">
       <use xlink:href="#DejaVuSans-72"/>
       <use x="41.113281" xlink:href="#DejaVuSans-74"/>
       <use x="80.322266" xlink:href="#DejaVuSans-70"/>
      </g>
     </g>
    </g>
    <g id="ytick_7">
     <g id="line2d_15">
      <g>
       <use style="stroke:#000000;stroke-width:0.8;" x="45" xlink:href="#m7bbae1d319" y="210.456"/>
      </g>
     </g>
     <g id="text_16">
      <!-- department_stores -->
      <g transform="translate(-56.657813 214.255219)scale(0.1 -0.1)">
       <defs>
        <path d="M 2906 2969 
L 2906 4863 
L 3481 4863 
L 3481 0 
L 2906 0 
L 2906 525 
Q 2725 213 2448 61 
Q 2172 -91 1784 -91 
Q 1150 -91 751 415 
Q 353 922 353 1747 
Q 353 2572 751 3078 
Q 1150 3584 1784 3584 
Q 2172 3584 2448 3432 
Q 2725 3281 2906 2969 
z
M 947 1747 
Q 947 1113 1208 752 
Q 1469 391 1925 391 
Q 2381 391 2643 752 
Q 2906 1113 2906 1747 
Q 2906 2381 2643 2742 
Q 2381 3103 1925 3103 
Q 1469 3103 1208 2742 
Q 947 2381 947 1747 
z
" id="DejaVuSans-64" transform="scale(0.015625)"/>
       </defs>
       <use xlink:href="#DejaVuSans-64"/>
       <use x="63.476562" xlink:href="#DejaVuSans-65"/>
       <use x="125" xlink:href="#DejaVuSans-70"/>
       <use x="188.476562" xlink:href="#DejaVuSans-61"/>
       <use x="249.755859" xlink:href="#DejaVuSans-72"/>
       <use x="290.869141" xlink:href="#DejaVuSans-74"/>
       <use x="330.078125" xlink:href="#DejaVuSans-6d"/>
       <use x="427.490234" xlink:href="#DejaVuSans-65"/>
       <use x="489.013672" xlink:href="#DejaVuSans-6e"/>
       <use x="552.392578" xlink:href="#DejaVuSans-74"/>
       <use x="591.601562" xlink:href="#DejaVuSans-5f"/>
       <use x="641.601562" xlink:href="#DejaVuSans-73"/>
       <use x="693.701172" xlink:href="#DejaVuSans-74"/>
       <use x="732.910156" xlink:href="#DejaVuSans-6f"/>
       <use x="794.091797" xlink:href="#DejaVuSans-72"/>
       <use x="832.955078" xlink:href="#DejaVuSans-65"/>
       <use x="894.478516" xlink:href="#DejaVuSans-73"/>
      </g>
     </g>
    </g>
    <g id="ytick_8">
     <g id="line2d_16">
      <g>
       <use style="stroke:#000000;stroke-width:0.8;" x="45" xlink:href="#m7bbae1d319" y="232.2"/>
      </g>
     </g>
     <g id="text_17">
      <!-- area_km2 -->
      <g transform="translate(-11.189063 235.999219)scale(0.1 -0.1)">
       <use xlink:href="#DejaVuSans-61"/>
       <use x="61.279297" xlink:href="#DejaVuSans-72"/>
       <use x="100.142578" xlink:href="#DejaVuSans-65"/>
       <use x="161.666016" xlink:href="#DejaVuSans-61"/>
       <use x="222.945312" xlink:href="#DejaVuSans-5f"/>
       <use x="272.945312" xlink:href="#DejaVuSans-6b"/>
       <use x="330.855469" xlink:href="#DejaVuSans-6d"/>
       <use x="428.267578" xlink:href="#DejaVuSans-32"/>
      </g>
     </g>
    </g>
    <g id="ytick_9">
     <g id="line2d_17">
      <g>
       <use style="stroke:#000000;stroke-width:0.8;" x="45" xlink:href="#m7bbae1d319" y="253.944"/>
      </g>
     </g>
     <g id="text_18">
      <!-- covid_dummy -->
      <g transform="translate(-31.748438 257.743219)scale(0.1 -0.1)">
       <defs>
        <path d="M 191 3500 
L 800 3500 
L 1894 563 
L 2988 3500 
L 3597 3500 
L 2284 0 
L 1503 0 
L 191 3500 
z
" id="DejaVuSans-76" transform="scale(0.015625)"/>
        <path d="M 2059 -325 
Q 1816 -950 1584 -1140 
Q 1353 -1331 966 -1331 
L 506 -1331 
L 506 -850 
L 844 -850 
Q 1081 -850 1212 -737 
Q 1344 -625 1503 -206 
L 1606 56 
L 191 3500 
L 800 3500 
L 1894 763 
L 2988 3500 
L 3597 3500 
L 2059 -325 
z
" id="DejaVuSans-79" transform="scale(0.015625)"/>
       </defs>
       <use xlink:href="#DejaVuSans-63"/>
       <use x="54.980469" xlink:href="#DejaVuSans-6f"/>
       <use x="116.162109" xlink:href="#DejaVuSans-76"/>
       <use x="175.341797" xlink:href="#DejaVuSans-69"/>
       <use x="203.125" xlink:href="#DejaVuSans-64"/>
       <use x="266.601562" xlink:href="#DejaVuSans-5f"/>
       <use x="316.601562" xlink:href="#DejaVuSans-64"/>
       <use x="380.078125" xlink:href="#DejaVuSans-75"/>
       <use x="443.457031" xlink:href="#DejaVuSans-6d"/>
       <use x="540.869141" xlink:href="#DejaVuSans-6d"/>
       <use x="638.28125" xlink:href="#DejaVuSans-79"/>
      </g>
     </g>
    </g>
    <g id="ytick_10">
     <g id="line2d_18">
      <g>
       <use style="stroke:#000000;stroke-width:0.8;" x="45" xlink:href="#m7bbae1d319" y="275.688"/>
      </g>
     </g>
     <g id="text_19">
      <!-- day_per_3 -->
      <g transform="translate(-13.370313 279.487219)scale(0.1 -0.1)">
       <use xlink:href="#DejaVuSans-64"/>
       <use x="63.476562" xlink:href="#DejaVuSans-61"/>
       <use x="124.755859" xlink:href="#DejaVuSans-79"/>
       <use x="183.935547" xlink:href="#DejaVuSans-5f"/>
       <use x="233.935547" xlink:href="#DejaVuSans-70"/>
       <use x="297.412109" xlink:href="#DejaVuSans-65"/>
       <use x="358.935547" xlink:href="#DejaVuSans-72"/>
       <use x="400.048828" xlink:href="#DejaVuSans-5f"/>
       <use x="450.048828" xlink:href="#DejaVuSans-33"/>
      </g>
     </g>
    </g>
    <g id="ytick_11">
     <g id="line2d_19">
      <g>
       <use style="stroke:#000000;stroke-width:0.8;" x="45" xlink:href="#m7bbae1d319" y="297.432"/>
      </g>
     </g>
     <g id="text_20">
      <!-- day_per_2 -->
      <g transform="translate(-13.370313 301.231219)scale(0.1 -0.1)">
       <use xlink:href="#DejaVuSans-64"/>
       <use x="63.476562" xlink:href="#DejaVuSans-61"/>
       <use x="124.755859" xlink:href="#DejaVuSans-79"/>
       <use x="183.935547" xlink:href="#DejaVuSans-5f"/>
       <use x="233.935547" xlink:href="#DejaVuSans-70"/>
       <use x="297.412109" xlink:href="#DejaVuSans-65"/>
       <use x="358.935547" xlink:href="#DejaVuSans-72"/>
       <use x="400.048828" xlink:href="#DejaVuSans-5f"/>
       <use x="450.048828" xlink:href="#DejaVuSans-32"/>
      </g>
     </g>
    </g>
    <g id="ytick_12">
     <g id="line2d_20">
      <g>
       <use style="stroke:#000000;stroke-width:0.8;" x="45" xlink:href="#m7bbae1d319" y="319.176"/>
      </g>
     </g>
     <g id="text_21">
      <!-- house_per_km2 -->
      <g transform="translate(-40.6625 322.975219)scale(0.1 -0.1)">
       <defs>
        <path d="M 3513 2113 
L 3513 0 
L 2938 0 
L 2938 2094 
Q 2938 2591 2744 2837 
Q 2550 3084 2163 3084 
Q 1697 3084 1428 2787 
Q 1159 2491 1159 1978 
L 1159 0 
L 581 0 
L 581 4863 
L 1159 4863 
L 1159 2956 
Q 1366 3272 1645 3428 
Q 1925 3584 2291 3584 
Q 2894 3584 3203 3211 
Q 3513 2838 3513 2113 
z
" id="DejaVuSans-68" transform="scale(0.015625)"/>
       </defs>
       <use xlink:href="#DejaVuSans-68"/>
       <use x="63.378906" xlink:href="#DejaVuSans-6f"/>
       <use x="124.560547" xlink:href="#DejaVuSans-75"/>
       <use x="187.939453" xlink:href="#DejaVuSans-73"/>
       <use x="240.039062" xlink:href="#DejaVuSans-65"/>
       <use x="301.5625" xlink:href="#DejaVuSans-5f"/>
       <use x="351.5625" xlink:href="#DejaVuSans-70"/>
       <use x="415.039062" xlink:href="#DejaVuSans-65"/>
       <use x="476.5625" xlink:href="#DejaVuSans-72"/>
       <use x="517.675781" xlink:href="#DejaVuSans-5f"/>
       <use x="567.675781" xlink:href="#DejaVuSans-6b"/>
       <use x="625.585938" xlink:href="#DejaVuSans-6d"/>
       <use x="722.998047" xlink:href="#DejaVuSans-32"/>
      </g>
     </g>
    </g>
    <g id="ytick_13">
     <g id="line2d_21">
      <g>
       <use style="stroke:#000000;stroke-width:0.8;" x="45" xlink:href="#m7bbae1d319" y="340.92"/>
      </g>
     </g>
     <g id="text_22">
      <!-- day_per_0 -->
      <g transform="translate(-13.370313 344.719219)scale(0.1 -0.1)">
       <use xlink:href="#DejaVuSans-64"/>
       <use x="63.476562" xlink:href="#DejaVuSans-61"/>
       <use x="124.755859" xlink:href="#DejaVuSans-79"/>
       <use x="183.935547" xlink:href="#DejaVuSans-5f"/>
       <use x="233.935547" xlink:href="#DejaVuSans-70"/>
       <use x="297.412109" xlink:href="#DejaVuSans-65"/>
       <use x="358.935547" xlink:href="#DejaVuSans-72"/>
       <use x="400.048828" xlink:href="#DejaVuSans-5f"/>
       <use x="450.048828" xlink:href="#DejaVuSans-30"/>
      </g>
     </g>
    </g>
    <g id="ytick_14">
     <g id="line2d_22">
      <g>
       <use style="stroke:#000000;stroke-width:0.8;" x="45" xlink:href="#m7bbae1d319" y="362.664"/>
      </g>
     </g>
     <g id="text_23">
      <!-- day_per_1 -->
      <g transform="translate(-13.370313 366.463219)scale(0.1 -0.1)">
       <use xlink:href="#DejaVuSans-64"/>
       <use x="63.476562" xlink:href="#DejaVuSans-61"/>
       <use x="124.755859" xlink:href="#DejaVuSans-79"/>
       <use x="183.935547" xlink:href="#DejaVuSans-5f"/>
       <use x="233.935547" xlink:href="#DejaVuSans-70"/>
       <use x="297.412109" xlink:href="#DejaVuSans-65"/>
       <use x="358.935547" xlink:href="#DejaVuSans-72"/>
       <use x="400.048828" xlink:href="#DejaVuSans-5f"/>
       <use x="450.048828" xlink:href="#DejaVuSans-31"/>
      </g>
     </g>
    </g>
    <g id="ytick_15">
     <g id="line2d_23">
      <g>
       <use style="stroke:#000000;stroke-width:0.8;" x="45" xlink:href="#m7bbae1d319" y="384.408"/>
      </g>
     </g>
     <g id="text_24">
      <!-- g_edu -->
      <g transform="translate(7.8125 388.207219)scale(0.1 -0.1)">
       <defs>
        <path d="M 2906 1791 
Q 2906 2416 2648 2759 
Q 2391 3103 1925 3103 
Q 1463 3103 1205 2759 
Q 947 2416 947 1791 
Q 947 1169 1205 825 
Q 1463 481 1925 481 
Q 2391 481 2648 825 
Q 2906 1169 2906 1791 
z
M 3481 434 
Q 3481 -459 3084 -895 
Q 2688 -1331 1869 -1331 
Q 1566 -1331 1297 -1286 
Q 1028 -1241 775 -1147 
L 775 -588 
Q 1028 -725 1275 -790 
Q 1522 -856 1778 -856 
Q 2344 -856 2625 -561 
Q 2906 -266 2906 331 
L 2906 616 
Q 2728 306 2450 153 
Q 2172 0 1784 0 
Q 1141 0 747 490 
Q 353 981 353 1791 
Q 353 2603 747 3093 
Q 1141 3584 1784 3584 
Q 2172 3584 2450 3431 
Q 2728 3278 2906 2969 
L 2906 3500 
L 3481 3500 
L 3481 434 
z
" id="DejaVuSans-67" transform="scale(0.015625)"/>
       </defs>
       <use xlink:href="#DejaVuSans-67"/>
       <use x="63.476562" xlink:href="#DejaVuSans-5f"/>
       <use x="113.476562" xlink:href="#DejaVuSans-65"/>
       <use x="175" xlink:href="#DejaVuSans-64"/>
       <use x="238.476562" xlink:href="#DejaVuSans-75"/>
      </g>
     </g>
    </g>
    <g id="ytick_16">
     <g id="line2d_24">
      <g>
       <use style="stroke:#000000;stroke-width:0.8;" x="45" xlink:href="#m7bbae1d319" y="406.152"/>
      </g>
     </g>
     <g id="text_25">
      <!-- no_labor_day -->
      <g transform="translate(-28.335938 409.951219)scale(0.1 -0.1)">
       <defs>
        <path d="M 603 4863 
L 1178 4863 
L 1178 0 
L 603 0 
L 603 4863 
z
" id="DejaVuSans-6c" transform="scale(0.015625)"/>
       </defs>
       <use xlink:href="#DejaVuSans-6e"/>
       <use x="63.378906" xlink:href="#DejaVuSans-6f"/>
       <use x="124.560547" xlink:href="#DejaVuSans-5f"/>
       <use x="174.560547" xlink:href="#DejaVuSans-6c"/>
       <use x="202.34375" xlink:href="#DejaVuSans-61"/>
       <use x="263.623047" xlink:href="#DejaVuSans-62"/>
       <use x="327.099609" xlink:href="#DejaVuSans-6f"/>
       <use x="388.28125" xlink:href="#DejaVuSans-72"/>
       <use x="429.394531" xlink:href="#DejaVuSans-5f"/>
       <use x="479.394531" xlink:href="#DejaVuSans-64"/>
       <use x="542.871094" xlink:href="#DejaVuSans-61"/>
       <use x="604.150391" xlink:href="#DejaVuSans-79"/>
      </g>
     </g>
    </g>
    <g id="ytick_17">
     <g id="line2d_25">
      <g>
       <use style="stroke:#000000;stroke-width:0.8;" x="45" xlink:href="#m7bbae1d319" y="427.896"/>
      </g>
     </g>
     <g id="text_26">
      <!-- pop_per_km2 -->
      <g transform="translate(-29.321875 431.695219)scale(0.1 -0.1)">
       <use xlink:href="#DejaVuSans-70"/>
       <use x="63.476562" xlink:href="#DejaVuSans-6f"/>
       <use x="124.658203" xlink:href="#DejaVuSans-70"/>
       <use x="188.134766" xlink:href="#DejaVuSans-5f"/>
       <use x="238.134766" xlink:href="#DejaVuSans-70"/>
       <use x="301.611328" xlink:href="#DejaVuSans-65"/>
       <use x="363.134766" xlink:href="#DejaVuSans-72"/>
       <use x="404.248047" xlink:href="#DejaVuSans-5f"/>
       <use x="454.248047" xlink:href="#DejaVuSans-6b"/>
       <use x="512.158203" xlink:href="#DejaVuSans-6d"/>
       <use x="609.570312" xlink:href="#DejaVuSans-32"/>
      </g>
     </g>
    </g>
    <g id="ytick_18">
     <g id="line2d_26">
      <g>
       <use style="stroke:#000000;stroke-width:0.8;" x="45" xlink:href="#m7bbae1d319" y="449.64"/>
      </g>
     </g>
     <g id="text_27">
      <!-- weekday_2 -->
      <g transform="translate(-18.032813 453.439219)scale(0.1 -0.1)">
       <defs>
        <path d="M 269 3500 
L 844 3500 
L 1563 769 
L 2278 3500 
L 2956 3500 
L 3675 769 
L 4391 3500 
L 4966 3500 
L 4050 0 
L 3372 0 
L 2619 2869 
L 1863 0 
L 1184 0 
L 269 3500 
z
" id="DejaVuSans-77" transform="scale(0.015625)"/>
       </defs>
       <use xlink:href="#DejaVuSans-77"/>
       <use x="81.787109" xlink:href="#DejaVuSans-65"/>
       <use x="143.310547" xlink:href="#DejaVuSans-65"/>
       <use x="204.833984" xlink:href="#DejaVuSans-6b"/>
       <use x="262.744141" xlink:href="#DejaVuSans-64"/>
       <use x="326.220703" xlink:href="#DejaVuSans-61"/>
       <use x="387.5" xlink:href="#DejaVuSans-79"/>
       <use x="446.679688" xlink:href="#DejaVuSans-5f"/>
       <use x="496.679688" xlink:href="#DejaVuSans-32"/>
      </g>
     </g>
    </g>
    <g id="ytick_19">
     <g id="line2d_27">
      <g>
       <use style="stroke:#000000;stroke-width:0.8;" x="45" xlink:href="#m7bbae1d319" y="471.384"/>
      </g>
     </g>
     <g id="text_28">
      <!-- weekday_0 -->
      <g transform="translate(-18.032813 475.183219)scale(0.1 -0.1)">
       <use xlink:href="#DejaVuSans-77"/>
       <use x="81.787109" xlink:href="#DejaVuSans-65"/>
       <use x="143.310547" xlink:href="#DejaVuSans-65"/>
       <use x="204.833984" xlink:href="#DejaVuSans-6b"/>
       <use x="262.744141" xlink:href="#DejaVuSans-64"/>
       <use x="326.220703" xlink:href="#DejaVuSans-61"/>
       <use x="387.5" xlink:href="#DejaVuSans-79"/>
       <use x="446.679688" xlink:href="#DejaVuSans-5f"/>
       <use x="496.679688" xlink:href="#DejaVuSans-30"/>
      </g>
     </g>
    </g>
    <g id="ytick_20">
     <g id="line2d_28">
      <g>
       <use style="stroke:#000000;stroke-width:0.8;" x="45" xlink:href="#m7bbae1d319" y="493.128"/>
      </g>
     </g>
     <g id="text_29">
      <!-- weekday_3 -->
      <g transform="translate(-18.032813 496.927219)scale(0.1 -0.1)">
       <use xlink:href="#DejaVuSans-77"/>
       <use x="81.787109" xlink:href="#DejaVuSans-65"/>
       <use x="143.310547" xlink:href="#DejaVuSans-65"/>
       <use x="204.833984" xlink:href="#DejaVuSans-6b"/>
       <use x="262.744141" xlink:href="#DejaVuSans-64"/>
       <use x="326.220703" xlink:href="#DejaVuSans-61"/>
       <use x="387.5" xlink:href="#DejaVuSans-79"/>
       <use x="446.679688" xlink:href="#DejaVuSans-5f"/>
       <use x="496.679688" xlink:href="#DejaVuSans-33"/>
      </g>
     </g>
    </g>
    <g id="text_30">
     <!-- Features -->
     <g transform="translate(-98.864063 308.054531)rotate(-90)scale(0.1 -0.1)">
      <defs>
       <path d="M 628 4666 
L 3309 4666 
L 3309 4134 
L 1259 4134 
L 1259 2759 
L 3109 2759 
L 3109 2228 
L 1259 2228 
L 1259 0 
L 628 0 
L 628 4666 
z
" id="DejaVuSans-46" transform="scale(0.015625)"/>
      </defs>
      <use xlink:href="#DejaVuSans-46"/>
      <use x="52.019531" xlink:href="#DejaVuSans-65"/>
      <use x="113.542969" xlink:href="#DejaVuSans-61"/>
      <use x="174.822266" xlink:href="#DejaVuSans-74"/>
      <use x="214.03125" xlink:href="#DejaVuSans-75"/>
      <use x="277.410156" xlink:href="#DejaVuSans-72"/>
      <use x="316.273438" xlink:href="#DejaVuSans-65"/>
      <use x="377.796875" xlink:href="#DejaVuSans-73"/>
     </g>
    </g>
   </g>
   <g id="line2d_29">
    <path clip-path="url(#pcb2b344548)" style="fill:none;stroke:#424242;stroke-linecap:square;stroke-width:2.7;"/>
   </g>
   <g id="line2d_30">
    <path clip-path="url(#pcb2b344548)" style="fill:none;stroke:#424242;stroke-linecap:square;stroke-width:2.7;"/>
   </g>
   <g id="line2d_31">
    <path clip-path="url(#pcb2b344548)" style="fill:none;stroke:#424242;stroke-linecap:square;stroke-width:2.7;"/>
   </g>
   <g id="line2d_32">
    <path clip-path="url(#pcb2b344548)" style="fill:none;stroke:#424242;stroke-linecap:square;stroke-width:2.7;"/>
   </g>
   <g id="line2d_33">
    <path clip-path="url(#pcb2b344548)" style="fill:none;stroke:#424242;stroke-linecap:square;stroke-width:2.7;"/>
   </g>
   <g id="line2d_34">
    <path clip-path="url(#pcb2b344548)" style="fill:none;stroke:#424242;stroke-linecap:square;stroke-width:2.7;"/>
   </g>
   <g id="line2d_35">
    <path clip-path="url(#pcb2b344548)" style="fill:none;stroke:#424242;stroke-linecap:square;stroke-width:2.7;"/>
   </g>
   <g id="line2d_36">
    <path clip-path="url(#pcb2b344548)" style="fill:none;stroke:#424242;stroke-linecap:square;stroke-width:2.7;"/>
   </g>
   <g id="line2d_37">
    <path clip-path="url(#pcb2b344548)" style="fill:none;stroke:#424242;stroke-linecap:square;stroke-width:2.7;"/>
   </g>
   <g id="line2d_38">
    <path clip-path="url(#pcb2b344548)" style="fill:none;stroke:#424242;stroke-linecap:square;stroke-width:2.7;"/>
   </g>
   <g id="line2d_39">
    <path clip-path="url(#pcb2b344548)" style="fill:none;stroke:#424242;stroke-linecap:square;stroke-width:2.7;"/>
   </g>
   <g id="line2d_40">
    <path clip-path="url(#pcb2b344548)" style="fill:none;stroke:#424242;stroke-linecap:square;stroke-width:2.7;"/>
   </g>
   <g id="line2d_41">
    <path clip-path="url(#pcb2b344548)" style="fill:none;stroke:#424242;stroke-linecap:square;stroke-width:2.7;"/>
   </g>
   <g id="line2d_42">
    <path clip-path="url(#pcb2b344548)" style="fill:none;stroke:#424242;stroke-linecap:square;stroke-width:2.7;"/>
   </g>
   <g id="line2d_43">
    <path clip-path="url(#pcb2b344548)" style="fill:none;stroke:#424242;stroke-linecap:square;stroke-width:2.7;"/>
   </g>
   <g id="line2d_44">
    <path clip-path="url(#pcb2b344548)" style="fill:none;stroke:#424242;stroke-linecap:square;stroke-width:2.7;"/>
   </g>
   <g id="line2d_45">
    <path clip-path="url(#pcb2b344548)" style="fill:none;stroke:#424242;stroke-linecap:square;stroke-width:2.7;"/>
   </g>
   <g id="line2d_46">
    <path clip-path="url(#pcb2b344548)" style="fill:none;stroke:#424242;stroke-linecap:square;stroke-width:2.7;"/>
   </g>
   <g id="line2d_47">
    <path clip-path="url(#pcb2b344548)" style="fill:none;stroke:#424242;stroke-linecap:square;stroke-width:2.7;"/>
   </g>
   <g id="line2d_48">
    <path clip-path="url(#pcb2b344548)" style="fill:none;stroke:#424242;stroke-linecap:square;stroke-width:2.7;"/>
   </g>
   <g id="patch_23">
    <path d="M 45 504 
L 45 69.12 
" style="fill:none;stroke:#000000;stroke-linecap:square;stroke-linejoin:miter;stroke-width:0.8;"/>
   </g>
   <g id="patch_24">
    <path d="M 324 504 
L 324 69.12 
" style="fill:none;stroke:#000000;stroke-linecap:square;stroke-linejoin:miter;stroke-width:0.8;"/>
   </g>
   <g id="patch_25">
    <path d="M 45 504 
L 324 504 
" style="fill:none;stroke:#000000;stroke-linecap:square;stroke-linejoin:miter;stroke-width:0.8;"/>
   </g>
   <g id="patch_26">
    <path d="M 45 69.12 
L 324 69.12 
" style="fill:none;stroke:#000000;stroke-linecap:square;stroke-linejoin:miter;stroke-width:0.8;"/>
   </g>
   <g id="text_31">
    <!-- CUAJIMALPA DE MORELOS -->
    <g transform="translate(132.545 63.12)scale(0.08 -0.08)">
     <defs>
      <path d="M 4122 4306 
L 4122 3641 
Q 3803 3938 3442 4084 
Q 3081 4231 2675 4231 
Q 1875 4231 1450 3742 
Q 1025 3253 1025 2328 
Q 1025 1406 1450 917 
Q 1875 428 2675 428 
Q 3081 428 3442 575 
Q 3803 722 4122 1019 
L 4122 359 
Q 3791 134 3420 21 
Q 3050 -91 2638 -91 
Q 1578 -91 968 557 
Q 359 1206 359 2328 
Q 359 3453 968 4101 
Q 1578 4750 2638 4750 
Q 3056 4750 3426 4639 
Q 3797 4528 4122 4306 
z
" id="DejaVuSans-43" transform="scale(0.015625)"/>
      <path d="M 556 4666 
L 1191 4666 
L 1191 1831 
Q 1191 1081 1462 751 
Q 1734 422 2344 422 
Q 2950 422 3222 751 
Q 3494 1081 3494 1831 
L 3494 4666 
L 4128 4666 
L 4128 1753 
Q 4128 841 3676 375 
Q 3225 -91 2344 -91 
Q 1459 -91 1007 375 
Q 556 841 556 1753 
L 556 4666 
z
" id="DejaVuSans-55" transform="scale(0.015625)"/>
      <path d="M 2188 4044 
L 1331 1722 
L 3047 1722 
L 2188 4044 
z
M 1831 4666 
L 2547 4666 
L 4325 0 
L 3669 0 
L 3244 1197 
L 1141 1197 
L 716 0 
L 50 0 
L 1831 4666 
z
" id="DejaVuSans-41" transform="scale(0.015625)"/>
      <path d="M 628 4666 
L 1259 4666 
L 1259 325 
Q 1259 -519 939 -900 
Q 619 -1281 -91 -1281 
L -331 -1281 
L -331 -750 
L -134 -750 
Q 284 -750 456 -515 
Q 628 -281 628 325 
L 628 4666 
z
" id="DejaVuSans-4a" transform="scale(0.015625)"/>
      <path d="M 628 4666 
L 1569 4666 
L 2759 1491 
L 3956 4666 
L 4897 4666 
L 4897 0 
L 4281 0 
L 4281 4097 
L 3078 897 
L 2444 897 
L 1241 4097 
L 1241 0 
L 628 0 
L 628 4666 
z
" id="DejaVuSans-4d" transform="scale(0.015625)"/>
      <path d="M 628 4666 
L 1259 4666 
L 1259 531 
L 3531 531 
L 3531 0 
L 628 0 
L 628 4666 
z
" id="DejaVuSans-4c" transform="scale(0.015625)"/>
      <path d="M 1259 4147 
L 1259 2394 
L 2053 2394 
Q 2494 2394 2734 2622 
Q 2975 2850 2975 3272 
Q 2975 3691 2734 3919 
Q 2494 4147 2053 4147 
L 1259 4147 
z
M 628 4666 
L 2053 4666 
Q 2838 4666 3239 4311 
Q 3641 3956 3641 3272 
Q 3641 2581 3239 2228 
Q 2838 1875 2053 1875 
L 1259 1875 
L 1259 0 
L 628 0 
L 628 4666 
z
" id="DejaVuSans-50" transform="scale(0.015625)"/>
      <path id="DejaVuSans-20" transform="scale(0.015625)"/>
      <path d="M 1259 4147 
L 1259 519 
L 2022 519 
Q 2988 519 3436 956 
Q 3884 1394 3884 2338 
Q 3884 3275 3436 3711 
Q 2988 4147 2022 4147 
L 1259 4147 
z
M 628 4666 
L 1925 4666 
Q 3281 4666 3915 4102 
Q 4550 3538 4550 2338 
Q 4550 1131 3912 565 
Q 3275 0 1925 0 
L 628 0 
L 628 4666 
z
" id="DejaVuSans-44" transform="scale(0.015625)"/>
      <path d="M 628 4666 
L 3578 4666 
L 3578 4134 
L 1259 4134 
L 1259 2753 
L 3481 2753 
L 3481 2222 
L 1259 2222 
L 1259 531 
L 3634 531 
L 3634 0 
L 628 0 
L 628 4666 
z
" id="DejaVuSans-45" transform="scale(0.015625)"/>
      <path d="M 2522 4238 
Q 1834 4238 1429 3725 
Q 1025 3213 1025 2328 
Q 1025 1447 1429 934 
Q 1834 422 2522 422 
Q 3209 422 3611 934 
Q 4013 1447 4013 2328 
Q 4013 3213 3611 3725 
Q 3209 4238 2522 4238 
z
M 2522 4750 
Q 3503 4750 4090 4092 
Q 4678 3434 4678 2328 
Q 4678 1225 4090 567 
Q 3503 -91 2522 -91 
Q 1538 -91 948 565 
Q 359 1222 359 2328 
Q 359 3434 948 4092 
Q 1538 4750 2522 4750 
z
" id="DejaVuSans-4f" transform="scale(0.015625)"/>
      <path d="M 2841 2188 
Q 3044 2119 3236 1894 
Q 3428 1669 3622 1275 
L 4263 0 
L 3584 0 
L 2988 1197 
Q 2756 1666 2539 1819 
Q 2322 1972 1947 1972 
L 1259 1972 
L 1259 0 
L 628 0 
L 628 4666 
L 2053 4666 
Q 2853 4666 3247 4331 
Q 3641 3997 3641 3322 
Q 3641 2881 3436 2590 
Q 3231 2300 2841 2188 
z
M 1259 4147 
L 1259 2491 
L 2053 2491 
Q 2509 2491 2742 2702 
Q 2975 2913 2975 3322 
Q 2975 3731 2742 3939 
Q 2509 4147 2053 4147 
L 1259 4147 
z
" id="DejaVuSans-52" transform="scale(0.015625)"/>
      <path d="M 3425 4513 
L 3425 3897 
Q 3066 4069 2747 4153 
Q 2428 4238 2131 4238 
Q 1616 4238 1336 4038 
Q 1056 3838 1056 3469 
Q 1056 3159 1242 3001 
Q 1428 2844 1947 2747 
L 2328 2669 
Q 3034 2534 3370 2195 
Q 3706 1856 3706 1288 
Q 3706 609 3251 259 
Q 2797 -91 1919 -91 
Q 1588 -91 1214 -16 
Q 841 59 441 206 
L 441 856 
Q 825 641 1194 531 
Q 1563 422 1919 422 
Q 2459 422 2753 634 
Q 3047 847 3047 1241 
Q 3047 1584 2836 1778 
Q 2625 1972 2144 2069 
L 1759 2144 
Q 1053 2284 737 2584 
Q 422 2884 422 3419 
Q 422 4038 858 4394 
Q 1294 4750 2059 4750 
Q 2388 4750 2728 4690 
Q 3069 4631 3425 4513 
z
" id="DejaVuSans-53" transform="scale(0.015625)"/>
     </defs>
     <use xlink:href="#DejaVuSans-43"/>
     <use x="69.824219" xlink:href="#DejaVuSans-55"/>
     <use x="143.017578" xlink:href="#DejaVuSans-41"/>
     <use x="211.425781" xlink:href="#DejaVuSans-4a"/>
     <use x="240.917969" xlink:href="#DejaVuSans-49"/>
     <use x="270.410156" xlink:href="#DejaVuSans-4d"/>
     <use x="356.689453" xlink:href="#DejaVuSans-41"/>
     <use x="425.097656" xlink:href="#DejaVuSans-4c"/>
     <use x="480.810547" xlink:href="#DejaVuSans-50"/>
     <use x="534.738281" xlink:href="#DejaVuSans-41"/>
     <use x="603.146484" xlink:href="#DejaVuSans-20"/>
     <use x="634.933594" xlink:href="#DejaVuSans-44"/>
     <use x="711.935547" xlink:href="#DejaVuSans-45"/>
     <use x="775.119141" xlink:href="#DejaVuSans-20"/>
     <use x="806.90625" xlink:href="#DejaVuSans-4d"/>
     <use x="893.185547" xlink:href="#DejaVuSans-4f"/>
     <use x="971.896484" xlink:href="#DejaVuSans-52"/>
     <use x="1041.378906" xlink:href="#DejaVuSans-45"/>
     <use x="1104.5625" xlink:href="#DejaVuSans-4c"/>
     <use x="1156.650391" xlink:href="#DejaVuSans-4f"/>
     <use x="1235.361328" xlink:href="#DejaVuSans-53"/>
    </g>
   </g>
  </g>
  <g id="text_32">
   <!-- Features Importance -->
   <g transform="translate(97.22125 23.6775)scale(0.16 -0.16)">
    <use xlink:href="#DejaVuSans-46"/>
    <use x="52.019531" xlink:href="#DejaVuSans-65"/>
    <use x="113.542969" xlink:href="#DejaVuSans-61"/>
    <use x="174.822266" xlink:href="#DejaVuSans-74"/>
    <use x="214.03125" xlink:href="#DejaVuSans-75"/>
    <use x="277.410156" xlink:href="#DejaVuSans-72"/>
    <use x="316.273438" xlink:href="#DejaVuSans-65"/>
    <use x="377.796875" xlink:href="#DejaVuSans-73"/>
    <use x="429.896484" xlink:href="#DejaVuSans-20"/>
    <use x="461.683594" xlink:href="#DejaVuSans-49"/>
    <use x="491.175781" xlink:href="#DejaVuSans-6d"/>
    <use x="588.587891" xlink:href="#DejaVuSans-70"/>
    <use x="652.064453" xlink:href="#DejaVuSans-6f"/>
    <use x="713.246094" xlink:href="#DejaVuSans-72"/>
    <use x="754.359375" xlink:href="#DejaVuSans-74"/>
    <use x="793.568359" xlink:href="#DejaVuSans-61"/>
    <use x="854.847656" xlink:href="#DejaVuSans-6e"/>
    <use x="918.226562" xlink:href="#DejaVuSans-63"/>
    <use x="973.207031" xlink:href="#DejaVuSans-65"/>
   </g>
  </g>
 </g>
 <defs>
  <clipPath id="pcb2b344548">
   <rect height="434.88" width="279" x="45" y="69.12"/>
  </clipPath>
 </defs>
</svg>
